<?xml version="1.0" encoding="UTF-8" standalone="no"?>
<svg xmlns="http://www.w3.org/2000/svg" version="1.1" width="875" height="894">
    <path id="Block1Jump0"
        fill="none"
        stroke="#0B3D91"
		stroke-width="2px"
		d="M 547 337 L 546 356 558 359 554 364 545 355 531 338 546 354 567 371 558 363 537 342 517 318 539 340 560 361 576 375 572 371 551 349 529 328 509 305 531 327 552 348 573 369 584 377 564 357 543 336 522 315 505 295 523 313 544 334 565 356 587 377 601 388 577 365 556 344 535 322 514 301 500 284 515 300 536 321 558 342 579 363 600 385 609 393 592 365 558 340 594 334 626 323 655 310 676 322 659 305 640 289 647 296 668 317 682 334 667 318 645 297 626 281 633 288 655 309 676 330 684 342 674 332 653 310 632 289 616 276 620 280 641 301 662 322 684 344 686 349 682 345 661 324 640 303 618 281 608 274 628 293 649 315 670 336 686 355 669 337 647 316 626 295 605 274 600 272 614 286 635 307 657 328 678 349 685 359 676 351 655 330 634 308 613 287 592 269 601 278 622 299 643 320 664 342 685 365 663 343 642 322 621 301 599 279 586 269 609 291 630 313 651 334 672 355 684 370 671 356 650 335 628 314 607 293 586 272 580 268 595 284 616 305 638 326 659 347 680 368 684 375 679 370 657 349 636 327 615 306 594 285 572 267 582 276 603 297 624 318 645 339 667 361 682 379 665 362 644 341 623 320 601 298 580 277 568 267 589 289 611 310 632 332 653 353 674 374 679 382 673 375 652 354 630 333 609 312 588 291 567 269 562 267 576 281 597 303 618 324 640 345 661 366 675 383 659 368 638 346 617 325 596 304 575 283 556 267 563 274 584 295 605 316 626 337 647 359 669 380 671 385 667 381 646 360 625 339 604 317 582 296 561 275 551 267 570 287 592 308 613 330 634 351 655 372 667 386 654 373 633 352 611 331 590 310 569 289 546 268 557 279 578 301 599 322 621 343 642 364 663 385 663 388 640 366 619 344 598 323 577 302 556 281 540 268 544 272 565 293 586 314 607 335 628 356 650 378 661 392 648 379 627 358 606 337 585 315 563 294 542 273 536 269 551 285 572 306 594 327 615 349 636 370 657 391 659 395 635 371 614 350 592 329 571 308 550 286 531 270 538 277 559 298 580 320 601 341 623 362 644 383 657 400 642 385 621 363 600 342 579 321 558 300 536 279 526 271 546 291 567 312 588 333 609 354 630 375 652 397 655 403 650 398 629 377 608 356 587 334 565 313 544 292 522 272 532 283 553 304 575 325 596 346 617 368 638 389 652 406 637 390 616 369 594 348 573 327 552 305 531 284 517 274 540 296 561 317 582 339 604 360 625 381 646 402 649 408 645 404 623 383 602 361 581 340 560 319 539 298 517 276 512 274 527 289 548 310 569 331 590 352 611 373 633 395 644 409 631 396 610 375 589 354 568 332 546 311 525 290 508 276 513 281 534 302 556 323 577 344 598 366 619 387 640 408 618 388 597 367 575 346 554 325 533 303 512 282 505 278 521 294 542 315 563 337 585 358 606 379 627 400 628 404 604 380 583 359 562 338 541 317 519 296 500 279 507 286 529 308 550 329 571 350 592 371 614 392 618 400 612 394 591 373 570 351 548 330 527 309 506 288 498 280 479 306 441 304 403 293 393 290 381 287 396 311 397 346 384 328 375 312 385 327 403 351 410 357 396 338 378 313 370 298 380 312 397 336 415 361 421 365 408 347 390 323 373 299 366 286 374 298 392 322 409 346 429 369 420 357 402 333 385 309 367 284 362 273 369 283 386 307 404 332 422 356 435 372 432 367 414 343 397 318 379 294 361 270 357 260 363 269 381 293 398 317 416 341 434 366 442 374 426 352 409 328 391 304 373 280 356 255 350 247 375 279 381 287 357 255 333 223 326 215 310 199 331 224 328 220 313 196 321 207 338 231 364 266 381 287 408 317 423 334 442 369 446 376 428 351 410 327 393 303 375 278 357 254 340 230 322 206 319 198 333 217 350 241 368 265 386 289 403 314 421 338 438 362 451 376 440 361 422 337 405 312 387 288 370 264 352 240 334 215 326 200 345 226 362 251 380 275 398 299 415 323 433 348 450 372 457 378 452 371 434 347 417 322 399 298 382 274 364 249 346 225 334 205 339 212 357 236 374 260 392 285 410 309 427 333 445 358 462 378 447 356 429 332 411 308 394 284 376 259 358 235 341 211 342 210 351 222 369 246 386 270 404 294 422 319 439 343 457 367 467 378 459 366 441 342 423 318 406 293 388 269 370 245 353 220 351 215 363 231 381 256 398 280 416 304 434 329 451 353 469 377 472 378 453 352 435 327 418 303 400 279 382 255 365 230 359 219 375 241 393 266 411 290 428 314 446 338 463 363 477 378 465 361 447 337 430 313 412 289 395 264 377 240 367 223 370 227 387 251 405 275 423 300 440 324 458 348 475 372 482 378 477 371 459 347 442 323 424 298 407 274 389 250 371 226 382 237 399 261 417 285 435 309 452 334 470 358 486 377 472 357 454 332 436 308 419 284 401 260 383 235 380 228 394 246 411 271 429 295 447 319 464 343 482 368 491 376 484 366 466 342 448 318 431 294 413 269 395 245 388 231 406 256 423 280 441 305 459 329 476 353 495 375 478 352 460 328 443 303 425 279 407 255 394 233 400 242 418 266 436 290 453 314 471 339 488 363 499 375 490 362 472 338 455 313 437 289 420 265 402 240 401 236 412 251 430 276 448 300 465 324 483 348 500 373 503 373 484 347 467 323 449 299 432 274 414 250 408 239 424 261 442 285 460 310 477 334 495 358 507 372 497 357 479 333 461 309 444 284 426 260 415 242 419 247 436 271 454 295 472 320 489 344 507 368 510 369 491 343 473 318 456 294 438 270 420 246 422 244 431 256 448 281 466 305 484 329 501 354 514 367 503 352 485 328 468 304 450 280 432 255 429 247 443 266 461 291 478 315 496 339 513 363 516 364 497 338 480 314 462 289 445 265 436 249 455 276 473 300 490 325 508 349 518 359 509 348 492 323 474 299 457 275 443 253 449 262 467 286 485 310 502 334 519 354 504 333 486 309 469 285 451 260 450 255 461 271 479 296 497 320 514 344 520 349 516 343 498 319 481 294 463 270 456 258 473 281 491 305 509 330 520 341 510 328 493 304 475 280 463 259 468 267 486 291 503 315 518 333 505 314 487 290 470 265 471 263 480 276 498 301 515 325 513 319 499 300 482 275 478 268 492 286 506 302 494 285 488 273 502 289 497 280 500 284 483 268 464 260 445 252 426 244 407 237 388 229 369 221 350 214 332 206 314 197 308 197 276 192 250 177 228 154 210 126 192 97 173 70 154 48 144 60 117 46 117 39 112 52 123 36 113 58 128 35 116 62 130 36 133 35 118 66 133 40 138 35 134 42 120 69 135 44 142 36 136 46 123 73 137 48 146 37 139 50 126 76 140 51 150 38 141 53 128 79 142 55 155 38 144 57 131 82 145 59 157 37 154 48 165 24 161 27 171 13 160 33 154 48 169 33 175 11 161 35 146 61 134 86 147 63 162 37 179 12 164 38 149 64 136 90 150 66 165 40 180 14 183 14 166 42 151 68 139 93 152 70 167 44 182 18 186 16 183 20 168 46 153 72 141 97 155 74 170 48 185 22 189 18 186 24 171 50 156 76 144 101 157 78 172 52 187 26 192 21 188 27 173 53 158 79 146 105 160 81 175 55 190 29 195 24 191 31 176 57 161 83 149 108 162 85 177 59 192 33 197 28 193 35 178 61 163 87 151 112 165 89 180 63 195 37 200 32 196 39 181 65 166 91 154 116 167 92 182 66 197 40 202 35 198 42 183 68 168 94 156 120 169 96 184 70 199 44 205 39 201 46 186 72 171 98 159 122 172 100 187 74 202 48 207 43 203 50 188 76 173 102 162 125 174 104 189 78 204 52 210 47 206 54 191 80 176 105 164 129 177 107 192 81 207 55 212 50 208 57 193 83 178 109 167 133 179 111 194 85 209 59 215 54 211 61 196 87 181 113 170 136 182 115 197 89 212 63 217 59 213 65 198 91 183 117 172 139 184 119 199 93 214 67 219 62 216 68 201 94 186 120 175 143 187 122 202 96 217 70 221 67 218 72 203 98 188 124 178 146 189 126 204 100 219 74 223 71 220 76 205 102 190 128 180 150 192 130 207 104 222 78 225 75 223 80 208 106 193 132 182 154 194 133 209 108 224 82 227 80 210 109 195 135 185 157 197 137 212 111 227 85 230 84 213 113 198 139 187 162 199 141 214 115 229 89 232 88 215 117 200 143 190 165 202 145 217 119 232 93 234 92 218 121 203 147 192 169 204 148 219 122 234 96 237 96 220 124 205 150 194 173 206 152 221 126 236 100 239 100 223 128 208 154 197 177 209 156 224 130 239 104 241 104 225 132 210 158 200 180 211 160 226 134 241 108 228 135 213 161 202 183 214 163 229 137 244 111 246 112 230 139 215 165 205 186 216 167 231 141 246 115 233 143 218 169 208 190 219 171 234 145 250 121 235 147 220 173 211 193 221 175 236 149 252 124 237 150 222 176 214 195 224 178 239 152 255 128 240 154 225 180 217 198 226 182 241 156 257 132 242 158 227 184 220 200 229 186 244 160 260 136 245 162 230 188 224 202 231 189 246 163 262 139 247 165 232 191 227 205 234 193 249 167 265 143 250 169 235 195 230 207 236 197 251 171 268 146 252 173 237 199 234 208 238 201 253 175 268 149 271 149 255 177 240 203 237 210 241 204 256 178 271 152 273 153 257 180 242 206 241 212 258 182 273 156 276 156 260 184 245 210 246 212 261 186 276 160 279 159 262 188 250 212 263 190 278 164 281 163 265 191 254 213 266 193 281 167 284 166 267 195 259 213 268 197 283 171 287 169 270 199 264 213 271 201 286 175 289 172 287 177 272 203 268 213 273 205 288 179 292 175 289 180 274 206 273 213 276 208 291 182 295 178 292 184 277 210 278 212 293 186 298 181 294 188 283 211 296 190 301 185 297 192 289 209 298 193 304 188 299 195 296 205 301 197 307 190 302 199 303 201 310 193 306 199 310 196 314 236 316 263 346 290 370 322 376 331 392 345 386 337 392 342 390 347 388 335 386 346 386 335 384 332 382 345 382 333 380 325 380 332 378 344 378 331 376 318 376 330 374 342 374 329 372 307 372 328 370 340 370 327 368 297 368 326 366 339 366 325 366 295 364 288 364 294 364 324 362 338 362 323 362 293 360 278 360 292 360 322 358 336 358 321 358 291 356 268 356 290 356 320 354 334 354 319 354 289 352 260 352 288 352 318 350 332 350 317 350 287 350 257 348 252 348 286 348 316 346 331 346 315 346 285 346 255 344 246 344 254 344 284 344 314 342 329 342 313 342 283 342 253 340 240 340 252 340 282 340 312 338 327 338 311 338 281 338 251 336 235 336 250 336 280 336 310 334 326 334 309 334 279 334 249 332 229 332 248 332 278 332 308 330 324 330 307 330 277 330 247 328 225 328 246 328 276 328 306 326 322 326 305 326 275 326 245 324 220 324 244 324 274 324 304 322 321 322 303 322 273 322 243 320 214 320 242 320 272 320 302 318 319 318 301 318 271 318 241 316 208 316 240 316 270 316 300 314 317 314 299 314 269 314 239 314 209 312 201 312 208 312 238 312 268 312 298 310 316 310 297 310 267 310 237 310 207 310 197 304 227 308 256 278 253 248 244 218 225 188 210 174 200 176 208 176 200 178 199 180 213 180 202 182 199 184 216 184 204 186 200 186 205 188 220 188 206 190 200 190 207 192 223 192 208 194 201 194 209 196 226 196 210 198 202 198 211 200 230 200 212 202 203 202 213 204 233 204 214 206 204 206 215 208 236 208 216 210 205 210 217 212 239 212 218 214 206 214 219 216 242 216 220 218 207 218 221 220 244 220 222 222 208 222 223 224 248 224 224 226 208 226 225 228 251 228 226 230 209 230 227 232 254 232 228 234 210 234 229 236 257 236 230 238 210 238 231 240 261 240 232 242 211 242 233 242 263 244 266 244 234 246 211 246 235 246 265 248 276 248 266 248 236 250 211 250 237 250 267 252 281 252 268 252 238 254 211 254 239 254 269 256 284 256 270 256 240 258 211 258 241 258 271 260 287 260 272 260 242 260 212 262 211 262 243 262 273 264 288 264 274 264 244 264 214 266 211 266 245 266 275 268 290 268 276 268 246 268 216 270 210 270 217 270 247 270 277 272 293 272 278 272 248 272 218 274 210 274 219 274 249 274 279 276 296 276 280 276 250 276 220 278 209 278 221 278 251 278 281 280 299 280 282 280 252 280 222 282 208 282 223 282 253 282 283 284 302 284 284 284 254 284 224 286 207 286 225 286 255 286 285 288 304 288 286 288 256 288 226 290 206 290 227 290 257 290 287 292 307 292 288 292 258 292 228 294 205 294 229 294 259 294 289 296 309 296 290 296 260 296 230 298 203 298 231 298 261 298 291 300 311 300 292 300 262 300 232 300 202 302 200 302 233 302 263 302 293 304 313 304 294 304 264 304 234 304 204 306 198 306 205 306 235 306 265 306 295 308 315 308 296 308 266 308 236 308 206 308 196 " />
    <path id="Block2Jump1"
        fill="none"
        stroke="#0A55A3"
		stroke-width="2px"
		d="M 310 196 L 283 178 260 154 237 128 216 99 194 72 181 37 178 52 186 36 173 76 179 61 189 38 180 63 176 80 182 64 192 42 183 66 179 84 185 68 195 45 186 69 182 88 188 71 198 48 189 72 185 90 191 74 201 51 192 76 188 93 194 77 204 55 195 79 191 97 197 81 207 60 199 82 195 99 200 84 209 64 202 85 198 102 203 87 212 68 205 89 201 105 206 90 215 72 208 92 204 109 209 94 218 75 211 95 207 111 212 97 221 80 214 98 210 115 215 100 223 84 217 102 213 117 219 103 226 88 220 105 216 121 222 107 229 92 223 108 219 125 225 110 232 96 226 111 222 128 228 113 234 101 229 115 225 132 231 116 237 104 232 118 228 136 234 120 240 108 235 121 231 140 237 123 243 113 239 124 234 144 240 126 246 116 242 128 236 148 243 129 248 121 245 131 239 151 246 133 251 125 248 134 242 155 249 136 254 128 251 137 246 158 252 139 257 132 254 141 249 161 255 142 260 136 257 144 252 163 258 146 263 140 260 147 255 166 262 149 266 144 263 150 258 169 265 152 269 147 266 154 262 171 268 155 272 150 269 157 265 174 271 159 274 155 272 160 268 177 274 162 277 159 272 179 277 165 280 162 278 167 275 182 280 168 283 165 282 170 278 186 283 172 286 168 285 173 281 189 286 175 289 173 284 193 289 178 292 176 287 197 292 181 295 179 289 201 295 185 298 182 293 203 298 188 301 187 297 203 302 191 304 190 302 201 305 194 308 192 307 198 309 194 310 196 290 202 310 196 290 202 270 206 290 202 270 206 250 207 270 206 250 207 230 207 250 207 230 207 212 199 230 207 212 199 200 183 212 199 200 183 189 166 200 183 189 166 177 150 189 166 177 150 163 134 177 150 163 134 152 117 163 134 152 117 141 100 152 117 141 100 130 82 141 100 130 82 122 64 130 82 122 64 117 46 122 64 117 46 132 43 117 46 132 43 142 61 132 43 142 61 151 79 142 61 151 79 160 97 151 79 160 97 170 114 160 97 170 114 181 131 170 114 181 131 192 148 181 131 192 148 203 165 192 148 203 165 210 182 203 165 210 182 216 198 210 182 216 198 204 203 216 198 204 203 187 200 204 203 187 200 174 201 187 200 174 201 183 216 174 201 183 216 197 226 183 216 197 226 209 236 197 226 209 236 223 245 209 236 223 245 238 258 223 245 238 258 246 271 238 258 246 271 259 284 246 271 259 284 276 295 259 284 276 295 293 306 276 295 293 306 311 314 293 306 311 314 328 322 311 314 328 322 345 328 328 322 345 328 364 335 345 328 364 335 383 340 364 335 383 340 375 332 383 340 375 332 356 325 375 332 356 325 337 316 356 325 337 316 319 307 337 316 319 307 302 296 319 307 302 296 286 284 302 296 286 284 270 271 286 284 270 271 252 262 270 271 252 262 235 252 252 262 235 252 220 238 235 252 220 238 206 223 220 238 206 223 197 210 206 223 197 210 197 203 197 210 197 203 217 206 223 208 226 221 223 208 226 221 238 237 226 221 238 237 254 250 238 237 254 250 269 263 254 250 269 263 286 274 269 263 286 274 303 284 286 274 303 284 320 295 303 284 320 295 338 305 320 295 338 305 356 313 338 305 356 313 371 317 356 313 371 317 374 318 371 317 374 319 371 304 358 297 371 304 358 297 340 289 358 297 340 289 322 280 340 289 322 280 304 270 322 280 304 270 288 258 304 270 288 258 271 246 288 258 271 246 257 232 271 246 257 232 257 216 257 232 257 216 262 212 257 216 262 212 273 211 262 212 273 211 285 208 273 211 285 208 301 201 285 208 301 201 315 206 301 201 315 206 328 220 315 206 328 220 340 236 328 220 340 236 349 252 340 236 349 252 356 265 349 252 356 265 362 279 356 265 362 279 368 297 362 279 368 297 374 313 368 297 374 313 382 330 374 313 382 330 394 345 382 330 394 345 410 357 394 345 410 357 426 367 410 357 426 367 443 372 426 367 443 372 462 374 443 372 462 374 481 374 462 374 481 374 500 369 481 374 500 369 515 357 500 369 515 357 517 340 515 357 517 340 513 323 517 340 513 323 509 309 513 323 509 309 502 293 509 309 502 293 495 280 502 293 495 280 478 269 495 280 478 269 460 260 478 269 460 260 441 252 460 260 441 252 422 245 441 252 422 245 403 236 422 245 403 236 384 228 403 236 384 228 365 220 384 228 365 220 346 212 365 220 346 212 328 203 346 212 328 203 316 197 328 203 316 197 301 184 316 196 301 184 288 169 301 184 288 169 274 154 288 169 274 154 262 138 274 154 262 138 250 122 262 138 250 122 239 105 250 122 239 105 229 87 239 105 229 87 220 69 229 87 220 69 211 51 220 69 211 51 200 34 211 51 200 34 187 20 200 34 187 20 171 14 187 20 171 14 160 25 171 14 160 25 150 36 160 25 150 36 135 34 150 36 135 34 121 37 135 34 121 37 114 49 121 37 114 49 114 57 114 49 114 57 116 40 131 36 148 35 161 21 169 12 183 19 198 33 209 50 219 68 230 85 239 104 250 121 261 138 272 155 287 170 299 185 313 196 332 204 350 213 369 222 388 229 407 238 426 245 445 252 464 259 482 268 497 279 497 299 499 293 501 287 483 307 493 280 494 277 473 276 480 287 456 264 447 259 459 257 456 263 460 281 466 267 477 266 475 272 474 302 484 276 485 272 498 281 505 300 511 311 521 334 512 366 482 379 465 376 489 386 480 377 487 370 511 380 504 373 505 360 512 366 526 366 516 342 528 340 514 327 511 311 492 308 503 299 492 308 473 302 492 308 473 302 453 296 473 302 453 296 433 293 453 296 433 293 414 287 433 293 414 287 395 278 414 287 395 278 378 266 395 278 378 266 364 250 378 266 364 250 361 236 364 250 361 236 361 235 361 236 361 235 362 251 361 235 362 251 365 266 362 251 365 266 369 283 365 266 369 283 378 296 369 283 378 296 396 301 378 296 396 301 415 305 396 301 415 305 434 307 415 305 434 307 452 310 434 307 452 310 458 324 452 310 458 324 441 331 458 324 441 331 421 330 441 331 421 330 402 324 421 330 402 324 384 313 402 324 384 313 373 307 384 313 373 307 381 326 373 307 381 326 396 339 381 326 396 339 414 345 396 339 414 345 433 348 414 345 433 348 447 348 433 348 447 348 449 349 447 348 "/>
    <path id="Block2Jump2"
        fill="none"
        stroke="#0A55A3"
		stroke-width="2px"
		d="M 515 273 L 499 283 515 273 533 268 515 273 533 268 553 266 533 268 553 266 573 267 553 266 573 267 593 268 573 267 593 268 612 275 593 268 612 275 629 282 612 275 629 282 646 294 629 282 646 294 662 306 646 294 662 306 675 321 662 306 675 321 682 339 675 321 682 339 684 356 682 339 684 356 681 374 684 356 681 374 670 383 681 374 670 383 656 393 670 383 656 393 644 403 656 393 644 403 625 401 644 403 625 401 607 391 625 401 607 391 590 381 607 391 590 381 573 371 590 381 573 371 557 365 573 371 557 365 541 353 557 365 541 353 529 336 541 353 529 336 517 320 529 336 517 320 508 302 517 320 508 302 505 298 508 302 505 298 " />
    <path id="Block3Jump3"
        fill="none"
        stroke="#000000"
		stroke-width="2px"
		d="M 632 355 L 652 371 642 378 654 364 647 371 636 378 653 359 633 376 643 366 651 355 630 373 649 352 639 362 627 371 645 350 626 366 634 358 641 349 625 361 639 348 632 352 651 366 645 372 639 376 651 360 634 374 641 368 649 357 639 367 631 372 646 354 629 369 635 362 643 352 634 361 627 364 638 351 629 357 634 352 632 352 676 383 700 420 693 417 660 400 680 409 700 416 680 407 653 395 651 392 668 399 695 411 699 411 668 397 655 389 683 402 697 405 684 400 659 387 671 392 692 399 672 390 664 385 686 394 670 383 679 384 673 382 684 390 693 401 698 415 699 420 664 400 658 397 652 395 673 407 649 398 663 404 690 417 698 420 681 417 670 410 665 414 659 411 649 404 680 416 674 414 648 399 662 406 689 418 699 420 687 413 699 420 687 413 672 403 687 413 672 403 658 397 672 403 658 397 651 388 658 397 651 388 " />
    <path id="Block4Jump4"
        fill="none"
        stroke="#D15400"
		stroke-width="2px"
		d="M 611 440 L 572 447 559 449 526 440 503 420 477 404 463 415 424 411 394 399 370 381 347 361 342 358 346 351 337 346 340 340 315 322 302 310 299 316 303 312 307 311 300 320 311 312 303 323 315 314 306 326 312 320 320 315 313 321 309 329 324 317 312 331 327 319 315 334 320 329 331 321 322 330 318 336 335 322 321 339 339 324 324 342 329 337 343 326 330 338 327 345 347 327 329 348 351 329 329 350 337 346 351 341 353 330 337 346 324 362 339 347 357 331 326 365 356 336 361 333 329 365 328 369 363 333 342 358 322 375 322 372 317 379 326 371 342 358 359 349 365 334 346 354 320 382 347 355 370 336 363 343 323 385 364 344 374 337 337 374 326 388 339 375 378 338 354 362 329 391 356 364 383 339 371 351 332 394 373 353 387 341 346 382 334 397 347 384 391 343 363 371 334 402 364 372 395 344 380 360 337 402 334 408 339 403 381 361 399 346 354 391 336 412 356 392 398 350 402 348 371 379 338 416 373 381 407 350 388 368 346 411 341 418 347 412 390 370 410 352 405 357 363 399 344 421 364 401 407 358 414 354 380 388 346 424 381 389 418 355 397 377 354 419 349 427 356 420 398 378 421 358 414 365 371 408 352 430 373 409 415 367 425 360 388 396 355 432 390 398 429 361 405 385 363 428 358 435 364 429 407 387 433 362 422 374 380 416 362 437 381 418 423 375 437 365 397 405 365 440 398 406 442 365 414 394 371 436 368 442 373 437 415 395 446 367 431 382 388 425 372 444 390 426 432 384 450 368 405 413 375 446 407 415 449 372 455 370 422 402 380 444 379 448 423 403 460 370 439 391 397 433 382 450 398 435 440 392 464 371 456 379 414 422 387 452 415 423 457 381 469 372 431 411 390 454 432 412 476 371 448 399 405 442 394 455 407 443 449 401 481 371 464 388 422 430 399 457 423 432 466 389 488 370 481 377 439 419 402 459 440 420 483 378 494 370 456 408 414 450 406 461 415 452 457 409 501 368 473 396 431 439 409 463 432 440 474 398 508 367 490 385 448 428 414 464 449 429 491 387 513 365 486 394 477 404 504 375 530 348 527 342 533 339 525 350 532 343 537 341 522 355 495 384 477 404 452 437 416 465 422 459 464 416 507 374 539 344 508 375 466 418 423 460 420 466 439 447 481 405 524 362 542 348 525 364 483 406 440 449 424 468 456 436 498 394 541 351 544 350 500 395 457 437 428 469 473 425 515 382 547 353 517 384 474 426 432 469 432 471 448 456 490 413 532 371 551 355 534 372 491 415 449 457 437 472 464 444 507 402 549 360 554 358 508 403 466 446 440 474 481 433 524 391 557 360 525 392 483 435 445 476 456 464 498 422 541 379 560 363 542 381 500 423 457 466 450 476 473 453 515 411 558 368 563 366 559 370 517 412 474 454 455 477 490 442 532 399 565 370 534 401 491 443 459 478 464 473 507 430 549 388 564 376 551 389 508 432 466 474 463 480 481 461 524 419 563 382 525 420 483 463 468 481 498 450 541 408 563 388 542 409 500 452 473 481 515 439 558 396 565 392 559 398 517 440 478 482 490 470 532 428 567 396 534 429 491 471 484 482 507 459 549 416 569 399 551 418 508 460 490 481 524 447 566 405 571 403 525 449 496 481 541 436 573 407 542 437 500 480 501 481 515 467 558 425 573 412 559 426 517 469 508 480 532 456 575 416 534 457 514 480 549 444 578 419 551 446 521 478 566 433 581 421 568 435 529 476 541 464 585 423 542 466 537 474 558 453 588 425 559 454 544 472 575 442 591 428 576 443 555 467 592 430 594 431 566 461 597 434 579 454 583 450 602 435 592 447 600 439 607 435 602 440 602 442 612 436 609 442 613 437 615 440 " />
    <path id="Block5Jump5"
        fill="none"
        stroke="#F0F0F0"
		stroke-width="2px"
		d="M 657 410 L "/>
    <path id="Block5Jump6"
        fill="none"
        stroke="#F0F0F0"
		stroke-width="2px"
		d="M 542 472 L "/>
    <path id="Block5Jump7"
        fill="none"
        stroke="#F0F0F0"
		stroke-width="2px"
		d="M 654 410 L "/>
    <path id="Block5Jump8"
        fill="none"
        stroke="#F0F0F0"
		stroke-width="2px"
		d="M 577 449 L "/>
    <path id="Block5Jump9"
        fill="none"
        stroke="#F0F0F0"
		stroke-width="2px"
		d="M 650 411 L "/>
    <path id="Block5Jump10"
        fill="none"
        stroke="#F0F0F0"
		stroke-width="2px"
		d="M 533 463 L "/>
    <path id="Block5Jump11"
        fill="none"
        stroke="#F0F0F0"
		stroke-width="2px"
		d="M 646 411 L "/>
    <path id="Block5Jump12"
        fill="none"
        stroke="#F0F0F0"
		stroke-width="2px"
		d="M 571 443 L "/>
    <path id="Block5Jump13"
        fill="none"
        stroke="#F0F0F0"
		stroke-width="2px"
		d="M 642 411 L "/>
    <path id="Block5Jump14"
        fill="none"
        stroke="#F0F0F0"
		stroke-width="2px"
		d="M 527 455 L "/>
    <path id="Block5Jump15"
        fill="none"
        stroke="#F0F0F0"
		stroke-width="2px"
		d="M 638 411 L "/>
    <path id="Block5Jump16"
        fill="none"
        stroke="#F0F0F0"
		stroke-width="2px"
		d="M 554 440 L "/>
    <path id="Block5Jump17"
        fill="none"
        stroke="#F0F0F0"
		stroke-width="2px"
		d="M 634 410 L "/>
    <path id="Block5Jump18"
        fill="none"
        stroke="#F0F0F0"
		stroke-width="2px"
		d="M 532 443 L "/>
    <path id="Block5Jump19"
        fill="none"
        stroke="#F0F0F0"
		stroke-width="2px"
		d="M 630 409 L "/>
    <path id="Block5Jump20"
        fill="none"
        stroke="#F0F0F0"
		stroke-width="2px"
		d="M 545 434 L "/>
    <path id="Block5Jump21"
        fill="none"
        stroke="#F0F0F0"
		stroke-width="2px"
		d="M 626 408 L "/>
    <path id="Block5Jump22"
        fill="none"
        stroke="#F0F0F0"
		stroke-width="2px"
		d="M 522 436 L "/>
    <path id="Block5Jump23"
        fill="none"
        stroke="#F0F0F0"
		stroke-width="2px"
		d="M 622 407 L "/>
    <path id="Block5Jump24"
        fill="none"
        stroke="#F0F0F0"
		stroke-width="2px"
		d="M 539 427 L "/>
    <path id="Block5Jump25"
        fill="none"
        stroke="#F0F0F0"
		stroke-width="2px"
		d="M 618 405 L "/>
    <path id="Block5Jump26"
        fill="none"
        stroke="#F0F0F0"
		stroke-width="2px"
		d="M 516 428 L "/>
    <path id="Block5Jump27"
        fill="none"
        stroke="#F0F0F0"
		stroke-width="2px"
		d="M 614 403 L "/>
    <path id="Block5Jump28"
        fill="none"
        stroke="#F0F0F0"
		stroke-width="2px"
		d="M 544 418 L "/>
    <path id="Block5Jump29"
        fill="none"
        stroke="#F0F0F0"
		stroke-width="2px"
		d="M 610 400 L "/>
    <path id="Block5Jump30"
        fill="none"
        stroke="#F0F0F0"
		stroke-width="2px"
		d="M 521 419 L "/>
    <path id="Block5Jump31"
        fill="none"
        stroke="#F0F0F0"
		stroke-width="2px"
		d="M 606 396 L 544 410 602 393 "/>
    <path id="Block5Jump32"
        fill="none"
        stroke="#F0F0F0"
		stroke-width="2px"
		d="M 525 411 L "/>
    <path id="Block5Jump33"
        fill="none"
        stroke="#F0F0F0"
		stroke-width="2px"
		d="M 598 389 L 539 404 594 385 "/>
    <path id="Block5Jump34"
        fill="none"
        stroke="#F0F0F0"
		stroke-width="2px"
		d="M 527 403 L 590 381 542 396 586 378 522 399 582 375 544 389 578 372 536 389 574 370 544 385 573 370 627 363 628 349 627 363 641 373 627 363 641 373 653 366 641 373 653 366 647 351 653 366 647 351 639 348 647 351 639 348 "/>
    <path id="Block5Jump35"
        fill="none"
        stroke="#F0F0F0"
		stroke-width="2px"
		d="M 367 440 L 333 424 290 420 264 424 242 432 270 428 249 428 240 424 275 424 288 424 278 392 283 364 279 336 260 308 244 280 243 264 230 268 236 268 249 272 230 276 258 280 236 280 229 284 249 284 269 288 262 288 223 292 236 292 281 296 249 296 223 300 262 300 290 304 275 304 236 304 225 308 249 308 288 308 299 312 262 312 224 316 236 316 275 316 306 320 288 320 249 320 223 324 262 324 301 324 314 328 275 328 236 328 233 332 249 332 288 332 322 336 301 336 262 336 238 340 275 340 314 340 327 344 288 344 249 344 235 348 262 348 301 348 326 352 314 352 275 352 236 352 236 356 249 356 288 356 325 360 301 360 262 360 241 364 275 364 314 364 327 368 288 368 249 368 236 372 262 372 301 372 320 376 314 376 275 376 236 376 230 380 249 380 288 380 324 384 301 384 262 384 228 388 236 388 275 388 314 388 328 392 288 392 249 392 230 396 262 396 301 396 333 400 314 400 275 400 236 400 227 404 249 404 288 404 327 404 337 408 301 408 262 408 232 412 275 412 314 412 342 416 327 416 288 416 249 416 235 420 262 420 301 420 340 420 346 420 333 424 342 432 317 424 355 428 337 432 365 436 353 436 364 440 370 440 372 442 355 441 337 432 318 425 299 421 292 421 256 435 303 409 "/>
    <path id="Block5Jump36"
        fill="none"
        stroke="#F0F0F0"
		stroke-width="2px"
		d="M 228 444 L 287 412 243 432 301 398 "/>
    <path id="Block5Jump37"
        fill="none"
        stroke="#F0F0F0"
		stroke-width="2px"
		d="M 219 436 L "/>
    <path id="Block5Jump38"
        fill="none"
        stroke="#F0F0F0"
		stroke-width="2px"
		d="M 287 402 L 240 420 298 390 "/>
    <path id="Block5Jump39"
        fill="none"
        stroke="#F0F0F0"
		stroke-width="2px"
		d="M 209 427 L "/>
    <path id="Block5Jump40"
        fill="none"
        stroke="#F0F0F0"
		stroke-width="2px"
		d="M 287 390 L 227 414 "/>
    <path id="Block5Jump41"
        fill="none"
        stroke="#F0F0F0"
		stroke-width="2px"
		d="M 299 380 L "/>
    <path id="Block5Jump42"
        fill="none"
        stroke="#F0F0F0"
		stroke-width="2px"
		d="M 207 416 L "/>
    <path id="Block5Jump43"
        fill="none"
        stroke="#F0F0F0"
		stroke-width="2px"
		d="M 273 385 L 231 401 293 368 "/>
    <path id="Block5Jump44"
        fill="none"
        stroke="#F0F0F0"
		stroke-width="2px"
		d="M 202 410 L "/>
    <path id="Block5Jump45"
        fill="none"
        stroke="#F0F0F0"
		stroke-width="2px"
		d="M 277 371 L 221 396 283 362 "/>
    <path id="Block5Jump46"
        fill="none"
        stroke="#F0F0F0"
		stroke-width="2px"
		d="M 210 397 L 255 372 225 385 265 364 230 378 "/>
    <path id="Block5Jump47"
        fill="none"
        stroke="#F0F0F0"
		stroke-width="2px"
		d="M 310 379 L 258 397 318 374 325 371 265 388 263 389 310 373 250 386 245 387 305 371 329 364 269 376 254 379 306 366 246 374 242 375 302 364 325 360 265 366 252 368 303 359 243 363 237 364 297 357 322 353 262 357 248 358 307 350 247 353 226 354 286 349 321 345 261 347 248 348 299 343 239 343 224 343 284 340 322 338 262 338 253 338 291 335 231 335 227 335 287 334 296 333 "/>
    <path id="Block5Jump48"
        fill="none"
        stroke="#F0F0F0"
		stroke-width="2px"
		d="M 231 144 L 280 193 "/>
    <path id="Block5Jump49"
        fill="none"
        stroke="#F0F0F0"
		stroke-width="2px"
		d="M 217 128 L 265 182 233 146 266 191 "/>
    <path id="Block5Jump50"
        fill="none"
        stroke="#F0F0F0"
		stroke-width="2px"
		d="M 208 115 L 250 177 218 132 "/>
    <path id="Block5Jump51"
        fill="none"
        stroke="#F0F0F0"
		stroke-width="2px"
		d="M 262 204 L "/>
    <path id="Block5Jump52"
        fill="none"
        stroke="#F0F0F0"
		stroke-width="2px"
		d="M 206 118 L "/>
    <path id="Block5Jump53"
        fill="none"
        stroke="#F0F0F0"
		stroke-width="2px"
		d="M 245 185 L 214 135 "/>
    <path id="Block5Jump54"
        fill="none"
        stroke="#F0F0F0"
		stroke-width="2px"
		d="M 249 201 L "/>
    <path id="Block5Jump55"
        fill="none"
        stroke="#F0F0F0"
		stroke-width="2px"
		d="M 196 115 L 230 175 205 139 238 198 "/>
    <path id="Block5Jump56"
        fill="none"
        stroke="#F0F0F0"
		stroke-width="2px"
		d="M 193 124 L 225 184 204 148 224 193 198 140 216 187 203 156 217 191 204 158 " />
    <path id="Block6Jump57"
        fill="none"
        stroke="#F993BC"
		stroke-width="2px"
		d="M 101 419 L 76 444 54 464 42 433 37 410 25 424 37 413 43 409 28 425 23 432 29 426 48 410 41 417 23 438 42 419 52 412 33 431 24 443 35 432 56 414 47 423 25 444 25 447 48 424 59 416 39 436 27 451 40 438 63 418 52 429 31 450 29 455 33 451 54 430 66 420 45 442 31 458 46 443 67 422 69 423 58 434 37 455 33 462 38 457 59 436 73 425 50 448 36 465 52 449 73 428 76 428 64 440 42 461 38 468 44 462 65 441 78 431 56 453 40 472 57 455 78 433 81 433 69 445 48 467 25 493 28 489 50 468 71 447 83 434 76 444 105 413 106 406 100 412 87 428 91 424 112 403 125 392 113 404 92 426 85 433 76 444 86 477 111 494 121 507 103 528 117 556 121 558 111 565 127 547 105 566 115 555 127 540 114 554 100 564 123 542 127 535 122 540 100 561 96 563 110 549 127 529 108 548 93 560 117 536 126 525 116 535 95 556 90 558 104 544 124 520 103 542 87 555 91 552 112 530 124 515 110 529 89 550 85 552 98 538 120 517 123 511 118 515 97 537 83 548 106 525 122 508 121 507 144 486 171 488 154 502 172 484 172 482 160 494 146 504 158 492 170 478 146 501 140 505 145 500 166 479 168 474 154 488 135 504 153 486 165 472 141 496 129 504 139 494 161 473 162 469 148 482 127 503 121 507 97 523 81 547 105 523 126 502 147 481 159 466 135 490 114 511 93 532 79 543 91 531 112 510 134 489 155 467 156 463 143 477 122 498 100 519 79 540 77 540 99 518 120 496 141 475 153 460 129 484 108 506 87 527 76 535 86 525 107 504 128 483 149 462 150 458 137 471 116 492 95 513 74 531 93 512 115 491 136 470 146 456 124 479 103 500 81 521 74 525 80 520 101 499 122 477 144 456 132 465 110 486 89 508 74 520 88 506 109 485 130 464 139 453 118 473 97 494 76 515 74 514 95 493 117 472 135 450 126 460 105 481 83 502 74 509 82 501 103 479 124 458 134 446 112 467 91 489 70 510 47 530 69 508 90 487 111 466 132 445 136 438 120 454 99 475 78 496 57 518 42 530 55 516 76 495 98 474 119 453 136 432 128 441 107 462 86 483 64 504 43 525 37 528 42 524 63 503 84 482 105 460 127 439 136 426 115 448 93 470 72 491 51 512 33 527 50 511 71 489 92 468 113 447 134 426 137 420 122 435 101 456 80 477 59 499 37 520 30 525 36 518 57 497 78 476 100 455 121 433 137 414 130 421 109 443 88 464 66 485 45 506 27 522 44 505 65 484 86 462 107 441 129 420 137 409 117 429 95 450 74 472 53 493 32 514 25 518 30 513 52 491 73 470 94 449 115 428 136 404 124 416 103 437 82 458 61 479 40 501 23 515 38 499 59 478 81 457 102 436 123 414 134 400 111 424 90 445 69 466 47 487 26 508 21 511 25 507 46 486 67 465 88 443 110 422 131 401 133 396 119 410 98 431 76 453 55 474 34 495 21 506 33 494 54 472 75 451 96 430 117 409 131 392 127 397 105 418 84 439 63 460 42 482 23 497 40 480 62 459 83 438 104 416 125 395 130 390 129 390 "/>
    <path id="Block6Jump58"
        fill="none"
        stroke="#F993BC"
		stroke-width="2px"
		d="M 180 552 L 173 517 193 499 174 518 168 527 186 509 200 498 188 510 167 534 178 522 200 501 205 499 201 503 180 524 167 539 171 536 192 515 207 502 193 516 172 537 168 544 184 528 205 507 207 508 185 530 170 548 176 542 197 520 200 520 178 543 172 551 190 534 194 532 174 555 182 547 185 547 176 556 178 558 204 524 209 513 210 518 212 510 196 529 211 514 217 511 213 515 192 536 185 546 204 527 218 516 205 529 184 550 182 552 195 550 197 539 197 553 203 548 216 532 202 546 189 556 211 534 217 525 209 533 188 554 181 558 197 542 218 519 196 541 177 559 178 558 "/>
    <path id="Block6Jump59"
        fill="none"
        stroke="#F993BC"
		stroke-width="2px"
		d="M 276 657 L 281 678 259 702 240 718 238 706 223 723 238 709 248 702 239 711 222 731 230 723 251 702 255 700 231 724 222 736 243 715 259 699 281 722 294 740 283 755 276 795 297 772 288 781 267 798 286 779 301 762 296 767 274 789 261 799 273 787 294 766 308 750 303 754 282 775 261 796 257 797 281 774 302 752 310 742 290 762 269 783 255 794 267 781 288 760 310 735 298 748 276 769 255 791 253 790 275 768 296 747 310 730 305 735 284 756 263 777 255 783 262 776 283 755 304 733 311 726 294 740 324 714 359 712 346 722 351 717 362 704 350 716 337 726 359 704 358 702 337 723 330 727 346 711 354 700 344 710 325 726 332 719 349 699 331 718 320 726 340 706 344 699 339 704 315 726 327 714 337 701 325 712 312 726 294 740 278 748 255 779 271 764 292 743 313 721 329 702 312 720 291 741 269 762 259 769 279 750 300 729 321 708 325 702 320 706 298 728 277 749 264 759 286 737 308 716 321 699 306 714 285 735 262 756 273 745 294 723 315 702 320 695 314 701 293 722 271 743 255 757 259 752 281 731 302 710 318 691 300 709 279 730 258 751 249 757 267 739 288 718 310 697 317 687 308 695 287 716 266 738 243 757 254 747 275 726 296 704 315 682 295 703 274 724 252 745 238 757 262 733 283 712 304 691 315 678 303 690 281 711 260 732 239 753 234 755 248 741 269 720 291 699 312 678 313 674 289 697 268 719 247 740 231 752 235 749 256 728 277 706 298 685 309 672 297 684 276 705 255 726 233 748 228 750 243 735 264 714 285 693 306 672 305 670 284 692 262 713 241 734 226 747 229 743 250 722 271 701 293 680 302 668 291 678 270 699 249 721 228 742 224 743 237 730 258 709 279 687 298 665 278 686 257 707 235 728 223 738 245 716 266 695 287 674 296 665 281 678 285 665 295 663 286 673 267 689 274 682 292 661 272 680 268 682 281 668 289 658 280 667 269 675 286 655 271 668 276 663 282 653 274 661 278 655 275 656 "/>
    <path id="Block6Jump60"
        fill="none"
        stroke="#F993BC"
		stroke-width="2px"
		d="M 419 782 L 391 811 384 819 405 795 365 793 350 780 355 775 360 772 346 790 367 771 359 779 342 799 360 780 372 771 351 792 343 804 353 794 374 773 377 772 365 785 344 808 366 786 382 773 378 777 357 798 346 812 358 799 379 778 386 775 370 790 349 812 347 816 351 813 372 792 391 775 384 783 363 804 350 819 364 805 385 784 395 777 376 796 355 817 352 823 356 819 377 797 401 777 389 788 368 809 355 826 370 811 391 790 409 774 403 780 382 802 360 823 358 828 362 824 383 803 404 782 424 765 416 773 395 794 374 815 360 831 375 816 396 795 418 774 437 758 430 765 408 786 387 807 366 828 363 834 367 830 389 809 410 787 431 766 446 754 422 778 401 799 379 821 364 836 384 819 355 846 338 862 317 860 326 852 338 842 327 853 314 869 318 865 339 844 346 840 341 845 319 867 312 877 331 857 354 838 333 859 314 881 324 871 345 850 362 836 346 851 325 872 315 885 337 863 358 842 362 838 384 819 408 838 440 848 450 855 435 872 448 882 457 871 443 884 432 893 442 883 456 866 451 871 430 892 425 894 449 869 456 860 437 879 421 893 436 877 455 855 445 865 424 886 416 891 423 885 444 864 454 853 450 855 471 837 474 848 485 834 471 848 464 852 480 836 488 826 478 835 458 853 466 844 487 821 465 843 455 853 450 855 427 869 415 890 432 873 453 852 474 831 484 818 473 829 452 850 430 872 411 888 418 881 440 860 461 838 482 817 481 815 459 837 438 858 417 879 408 886 426 867 447 846 469 825 477 814 467 824 446 845 425 866 405 883 413 875 434 854 455 833 474 812 454 831 433 853 411 874 402 880 421 862 442 841 463 819 469 810 462 818 440 839 419 860 399 877 407 869 428 848 449 827 466 808 448 826 427 847 406 868 396 874 415 856 436 835 457 814 462 806 456 812 435 833 413 855 393 872 401 864 423 843 444 821 461 802 442 820 421 841 400 862 389 870 409 850 430 829 452 808 459 797 450 807 429 828 408 849 387 870 372 882 396 858 417 837 438 816 459 792 437 814 416 836 394 857 373 878 361 887 382 866 404 845 425 824 446 802 459 787 445 801 423 822 402 843 381 865 360 886 353 889 369 874 390 853 411 831 433 810 454 789 458 782 452 787 431 809 410 830 389 851 367 872 346 891 355 882 377 860 398 839 419 818 440 797 457 777 439 795 418 816 396 838 375 859 354 880 341 891 363 868 384 847 406 826 427 804 448 783 457 771 447 782 425 803 404 824 383 845 362 867 341 888 335 891 350 876 371 855 392 833 413 812 435 791 456 770 457 766 433 790 412 811 391 832 370 853 348 874 329 891 336 884 358 862 379 841 400 820 421 799 442 778 455 762 441 776 420 797 399 819 377 840 356 861 335 882 324 890 344 870 365 849 387 828 408 807 429 785 450 764 454 758 449 763 428 784 406 805 385 826 364 848 343 869 321 888 331 878 352 857 373 836 394 814 416 793 437 772 452 754 435 771 414 792 393 813 372 834 351 855 329 877 317 886 338 865 360 843 381 822 402 801 423 780 445 758 451 752 447 753 "/>
    <path id="Block6Jump61"
        fill="none"
        stroke="#F993BC"
		stroke-width="2px"
		d="M 481 656 L 499 641 529 654 532 662 523 674 530 693 519 701 530 690 533 684 528 688 515 699 535 676 515 696 512 696 524 684 536 669 523 683 509 693 532 671 538 661 531 669 509 690 507 690 519 678 540 657 532 662 547 639 560 635 538 656 517 677 503 688 526 665 548 644 565 624 546 642 525 664 504 685 500 685 513 673 534 652 555 630 560 623 554 629 533 650 511 671 497 683 521 659 542 638 557 620 540 637 519 658 498 679 495 680 507 667 528 646 550 625 553 618 548 623 527 644 506 666 490 679 494 675 515 654 536 632 550 616 535 631 514 652 492 673 480 683 502 661 523 640 544 619 545 615 521 639 500 660 479 681 475 683 488 669 509 648 531 627 542 613 529 625 508 647 487 668 469 683 475 677 496 656 517 635 538 613 540 609 516 633 495 654 473 676 463 683 482 664 504 642 525 621 540 603 524 620 502 641 481 662 458 682 469 671 490 650 511 629 533 608 541 596 531 606 510 628 489 649 468 670 454 681 477 658 498 637 519 615 540 594 542 590 518 614 497 635 475 657 454 678 451 681 469 654 495 635 482 605 457 587 441 570 435 578 448 568 435 584 440 579 456 566 441 580 436 589 454 571 461 566 455 572 437 594 446 584 466 567 447 586 438 598 459 577 471 567 461 578 439 599 439 602 451 590 475 570 453 591 441 606 465 582 478 572 466 584 445 605 443 610 457 596 478 574 481 574 458 597 446 613 449 609 470 588 485 577 472 589 451 611 448 616 463 601 484 580 488 579 464 603 451 619 455 615 476 594 492 581 478 595 456 616 452 623 468 607 490 586 506 572 491 587 470 608 451 630 461 620 482 599 503 578 516 567 504 579 483 601 462 622 445 642 453 634 474 613 495 591 516 570 523 567 518 572 497 593 475 614 454 635 441 651 445 647 466 626 487 605 509 584 528 567 510 585 489 606 468 628 446 649 441 657 458 640 480 618 501 597 522 576 533 568 524 577 502 599 481 620 460 641 439 664 451 653 472 632 493 611 514 589 537 570 516 591 495 612 473 633 452 654 439 670 443 666 464 645 485 624 507 603 528 582 539 573 529 583 508 604 487 625 466 647 444 668 440 675 456 659 478 637 499 616 520 595 541 577 521 596 500 618 479 639 458 660 442 678 449 672 470 651 491 630 512 608 533 587 541 582 535 589 514 610 492 631 471 652 450 673 446 681 462 664 483 643 504 622 526 601 541 588 527 602 506 623 485 644 463 666 448 681 "/>
    <path id="Block6Jump62"
        fill="none"
        stroke="#F993BC"
		stroke-width="2px"
		d="M 573 154 L 591 167 567 148 527 153 519 154 505 126 504 124 483 142 467 127 460 137 475 125 463 137 461 141 475 128 480 125 476 129 463 146 467 141 484 127 468 143 465 149 480 134 489 127 482 135 467 153 472 147 494 128 474 148 470 156 486 139 497 128 504 124 519 106 525 89 513 103 524 93 531 88 515 105 507 115 516 106 535 91 528 97 507 118 504 124 525 111 537 91 530 98 508 119 487 141 472 159 478 153 499 132 521 110 541 93 522 112 501 133 480 154 475 162 492 145 513 124 534 103 544 95 535 104 514 125 493 146 475 167 484 158 505 137 526 116 547 98 528 117 506 139 485 160 464 181 460 188 476 172 497 151 518 129 540 108 550 100 541 110 520 131 499 152 477 173 463 191 468 185 489 164 511 143 532 122 553 103 533 123 512 144 491 165 470 187 465 194 482 177 503 156 524 135 545 114 556 106 547 115 525 136 504 158 483 179 470 194 474 191 495 170 516 148 537 127 558 110 539 129 518 150 496 171 475 192 476 194 487 183 508 162 530 141 551 119 560 113 552 121 531 142 510 163 489 185 482 194 501 175 522 154 543 133 562 117 545 134 523 156 502 177 489 192 493 189 514 168 535 146 557 125 566 119 558 127 537 148 516 169 501 186 506 181 528 160 549 139 571 119 550 140 529 161 508 182 513 180 520 173 541 152 562 131 578 117 564 132 542 153 521 175 519 180 533 165 554 144 576 123 586 116 577 124 556 146 535 167 525 179 547 158 568 136 589 118 569 138 548 159 533 177 539 171 560 150 581 129 592 121 583 130 562 151 540 173 552 163 574 142 593 123 586 141 569 150 599 159 584 174 578 177 583 173 602 151 592 161 571 178 591 159 603 144 578 168 565 179 577 167 598 146 600 141 586 155 565 176 560 178 564 175 585 153 597 139 573 163 555 177 571 161 593 140 595 135 581 149 559 170 551 176 558 169 579 148 594 130 588 136 567 157 547 174 566 156 587 134 593 126 575 144 554 165 545 173 "/>
    <path id="Block6Jump63"
        fill="none"
        stroke="#F993BC"
		stroke-width="2px"
		d="M 594 75 L 596 56 569 37 557 7 559 2 552 12 564 3 558 8 551 19 560 10 568 5 551 22 549 26 570 7 564 14 549 32 565 15 574 10 556 27 549 37 558 29 576 13 570 19 550 42 571 21 579 16 562 33 551 47 563 34 582 19 575 25 554 46 553 51 577 27 585 22 568 39 554 55 569 40 588 24 581 31 560 52 556 59 561 53 582 32 593 24 573 44 558 63 575 46 599 24 587 36 565 58 560 66 567 59 588 38 605 24 600 29 579 50 563 69 580 51 602 30 612 22 592 42 571 63 565 72 573 65 594 44 617 23 606 34 585 56 568 75 586 57 607 36 615 31 598 48 577 69 571 77 578 70 599 49 614 35 596 56 602 58 611 41 590 61 583 71 592 63 608 49 604 53 587 73 605 55 596 67 590 76 597 68 591 77 643 35 642 28 638 40 640 30 649 24 642 30 633 42 644 32 653 26 635 44 632 49 636 45 657 24 667 17 648 36 632 52 647 48 650 37 656 56 665 45 661 49 650 57 659 47 676 28 668 35 644 57 667 34 680 18 676 22 655 43 639 57 654 42 675 21 675 18 663 30 642 51 633 57 640 50 661 28 668 18 649 38 632 55 "/>
    <path id="Block6Jump64"
        fill="none"
        stroke="#F993BC"
		stroke-width="2px"
		d="M 703 112 L 723 91 720 85 703 99 700 88 708 78 691 52 704 42 690 59 710 42 693 59 690 64 705 50 714 43 706 51 690 70 697 63 718 45 698 64 690 76 710 55 720 49 712 57 691 78 690 81 703 69 722 52 704 70 691 86 695 82 716 61 724 56 718 62 696 83 691 91 708 74 725 60 710 76 691 95 700 88 715 82 726 62 722 66 701 88 679 109 674 117 681 110 702 89 723 68 727 66 714 80 693 101 674 123 694 103 715 81 730 69 706 93 685 115 674 129 686 116 708 95 729 74 733 69 720 85 750 52 758 39 742 58 749 51 765 37 750 52 736 66 720 85 747 101 771 119 780 127 768 141 776 159 769 163 779 151 764 163 770 157 781 143 768 156 760 161 778 144 782 136 776 142 756 159 764 151 783 130 763 150 753 157 772 138 784 126 780 127 800 110 810 105 807 109 794 119 805 107 810 100 793 117 780 127 792 107 810 97 792 115 771 136 749 156 759 146 780 124 801 103 808 93 800 102 778 123 757 144 745 153 766 132 788 111 806 90 786 110 765 131 744 152 742 151 753 140 774 119 795 98 802 88 794 96 773 117 751 139 739 148 761 127 782 105 798 86 780 104 759 125 738 146 747 134 768 113 790 92 793 86 788 91 767 112 746 133 735 141 755 121 776 100 788 85 775 98 754 120 734 136 742 129 763 107 784 86 761 106 740 127 732 132 749 115 771 94 773 88 769 93 748 114 731 128 736 123 757 102 781 75 777 79 756 100 735 122 727 126 744 110 765 88 784 66 764 87 742 108 721 129 709 139 730 117 751 96 773 75 784 61 771 74 750 95 729 116 708 137 702 140 717 125 738 104 759 83 780 62 783 56 779 60 758 81 737 103 715 124 695 141 703 133 725 112 746 91 767 69 782 52 766 68 744 89 723 110 702 132 689 142 711 120 732 98 754 77 775 56 780 48 773 54 752 76 731 97 710 118 689 139 684 141 698 127 719 106 740 85 761 64 778 45 760 62 739 83 718 105 696 126 677 142 684 135 706 114 727 93 748 71 769 50 775 42 768 49 747 70 725 91 704 112 683 134 675 141 697 114 723 91 692 117 674 132 677 128 698 107 720 86 741 64 762 43 769 39 764 45 742 66 721 87 700 108 679 129 674 137 691 120 712 99 733 78 754 57 773 41 756 58 735 79 713 100 692 122 674 139 "/>
    <path id="Block6Jump65"
        fill="none"
        stroke="#F993BC"
		stroke-width="2px"
		d="M 765 221 L 785 243 790 247 788 252 801 264 791 271 806 253 800 259 784 272 798 258 807 247 786 267 780 271 785 266 806 245 807 241 794 254 777 269 793 252 806 237 802 240 781 262 772 267 779 260 801 239 804 235 790 247 808 231 837 245 860 259 854 267 864 267 852 275 864 261 854 271 847 274 862 259 860 259 868 253 865 259 875 247 863 259 860 259 863 247 875 244 861 257 843 273 849 267 871 245 872 241 848 265 839 271 857 253 870 238 856 252 835 269 844 261 865 240 866 235 842 259 831 268 852 247 864 233 850 246 828 265 838 255 859 234 860 230 837 254 825 262 846 242 856 229 844 240 823 259 832 250 850 229 831 248 820 257 840 236 844 229 839 235 818 253 827 244 839 229 825 242 815 250 835 230 813 246 821 238 827 229 820 237 811 242 823 228 808 240 815 233 817 228 806 236 812 228 805 235 790 247 776 252 771 266 789 248 808 226 787 247 768 263 775 256 796 235 803 225 795 233 774 254 765 260 783 242 798 224 782 241 763 257 770 250 791 229 794 223 789 228 768 249 761 253 777 237 789 222 776 235 760 249 764 245 785 223 785 221 762 243 759 244 772 231 781 219 770 230 759 238 777 218 760 232 766 225 772 217 765 224 762 224 770 216 " />
    <path id="Block7Jump66"
        fill="none"
        stroke="#FCBBC4"
		stroke-width="2px"
		d="M 761 232 L 768 216 761 232 764 251 761 232 764 251 778 265 764 251 778 265 795 256 778 265 795 256 802 239 795 256 802 239 813 244 802 239 813 244 826 259 813 244 826 259 843 270 826 259 843 270 858 271 843 270 858 271 863 256 858 271 863 256 872 241 863 256 872 241 857 232 872 241 857 232 838 231 857 232 838 231 821 231 838 231 821 231 818 232 821 231 818 233 "/>
    <path id="Block7Jump67"
        fill="none"
        stroke="#FCBBC4"
		stroke-width="2px"
		d="M 781 144 L 776 159 781 144 781 128 781 144 781 128 777 111 781 128 777 111 766 100 777 111 766 100 757 97 766 100 757 97 773 85 757 97 773 85 783 69 773 85 783 69 782 52 783 69 782 52 768 42 782 52 768 42 750 49 768 42 750 49 737 65 750 49 737 65 730 83 737 65 730 83 728 80 730 83 721 60 728 80 721 60 710 43 721 60 710 43 695 48 710 43 695 48 690 64 695 48 690 64 693 83 690 64 693 83 705 94 693 83 705 94 719 96 705 94 719 96 701 97 719 96 701 97 684 103 701 97 684 103 674 120 684 103 674 120 674 137 674 120 674 137 689 141 674 137 689 141 706 140 689 141 706 140 722 129 706 140 722 129 730 115 722 129 730 115 732 128 730 115 732 128 741 146 732 128 741 146 758 156 741 146 758 156 773 157 758 156 773 157 781 144 773 157 781 144 780 127 781 144 780 127 790 122 780 127 790 122 804 111 790 122 804 111 811 96 804 111 811 96 799 86 811 96 799 86 783 86 799 86 783 86 767 91 783 86 767 91 763 95 767 91 763 95 763 94 752 97 763 94 752 97 756 111 752 97 756 111 763 127 756 111 763 127 768 142 763 127 768 142 760 124 768 142 760 124 751 105 760 124 751 105 742 106 751 105 742 106 746 120 742 106 746 120 754 136 746 120 754 136 755 146 754 136 755 146 749 130 741 114 731 104 715 113 700 126 698 126 711 113 719 102 704 105 690 114 681 120 695 105 711 100 723 95 711 79 699 69 715 82 725 93 722 77 708 62 697 53 693 52 708 62 722 77 725 93 715 82 703 70 699 69 711 79 723 95 711 100 695 105 681 120 690 114 704 105 719 102 711 113 698 126 715 113 731 104 741 114 749 130 755 146 "/>
    <path id="Block7Jump68"
        fill="none"
        stroke="#FCBBC4"
		stroke-width="2px"
		d="M 656 53 L 649 65 656 53 665 38 656 53 665 38 673 25 665 38 673 25 671 17 673 25 671 17 663 14 671 17 663 14 654 23 663 14 654 23 640 27 654 23 640 27 632 41 640 27 632 41 633 50 632 41 633 50 641 49 633 50 641 49 604 57 594 72 604 57 611 38 604 57 611 38 614 24 611 38 614 24 601 24 614 24 601 24 586 21 601 24 586 21 574 13 586 21 574 13 560 0 574 13 560 0 554 9 560 0 554 9 553 28 554 9 553 28 555 44 553 28 555 44 565 58 555 44 565 58 576 72 565 58 576 72 587 68 576 72 587 68 557 116 558 130 557 116 549 97 557 116 549 97 532 91 549 97 532 91 519 96 532 91 519 96 509 112 519 96 509 112 503 129 509 112 503 129 501 149 503 129 501 149 507 169 501 149 507 169 523 175 507 169 523 175 541 165 523 175 541 165 554 149 541 165 554 149 555 131 554 149 555 131 542 115 555 131 542 115 529 113 542 115 529 113 512 116 529 113 512 116 503 129 512 116 503 129 489 126 503 129 489 126 475 124 489 126 475 124 462 134 475 124 462 134 470 151 462 134 470 151 479 166 470 151 479 166 463 178 479 166 463 178 464 191 463 178 464 191 483 193 464 191 483 193 501 187 483 193 501 187 517 178 501 187 517 178 533 176 517 178 533 176 549 172 533 176 549 172 567 176 549 172 567 176 586 172 567 176 586 172 604 164 586 172 604 164 606 149 604 164 606 149 592 149 606 149 592 149 578 162 592 149 578 162 561 166 578 162 561 166 561 164 561 166 578 158 561 164 578 158 591 145 578 158 591 145 599 130 591 145 599 130 592 118 599 130 592 118 578 119 592 118 578 119 568 128 578 119 568 128 566 130 568 128 "/>
    <path id="Block7Jump69"
        fill="none"
        stroke="#FCBBC4"
		stroke-width="2px"
		d="M 141 425 L 138 445 141 425 139 406 141 425 139 406 130 390 139 406 130 390 112 397 130 390 112 397 95 408 112 397 95 408 84 425 95 408 84 425 73 422 84 425 73 422 57 408 73 422 57 408 38 404 57 408 38 404 21 415 38 404 21 415 16 433 21 415 16 433 24 452 16 433 24 452 33 470 24 452 33 470 26 489 33 470 26 489 22 509 26 489 22 509 29 527 22 509 29 527 49 530 29 527 49 530 68 523 49 530 68 523 74 505 68 523 74 505 76 525 74 505 76 525 82 544 76 525 82 544 94 560 82 544 94 560 114 562 94 560 114 562 128 547 114 562 128 547 126 527 128 547 126 527 116 510 126 527 116 510 100 500 116 510 100 500 110 504 100 500 110 504 128 509 110 504 128 509 146 503 128 509 146 503 160 488 146 503 160 488 161 469 160 488 161 469 145 457 161 469 145 457 128 451 145 457 128 451 114 460 128 451 114 460 98 472 114 460 98 472 96 475 98 472 96 475 93 459 88 441 84 431 69 400 69 389 59 402 72 388 75 388 60 407 65 402 79 391 66 403 61 411 78 394 81 394 63 415 70 408 83 398 72 409 65 418 84 400 86 401 68 421 76 413 87 405 77 415 71 424 89 409 74 427 81 419 89 415 83 420 77 429 86 423 80 432 84 427 85 445 81 463 75 471 63 470 45 470 36 470 36 479 39 478 36 475 42 475 31 484 40 472 22 486 32 477 36 469 31 475 19 486 18 479 25 478 12 460 2 472 15 460 19 459 6 472 2 478 7 473 22 461 5 481 21 465 27 462 12 477 7 484 13 479 29 465 25 469 11 486 27 471 33 467 17 483 16 487 34 469 "/>
    <path id="Block7Jump70"
        fill="none"
        stroke="#FCBBC4"
		stroke-width="2px"
		d="M 171 543 L 178 561 171 543 171 524 171 543 171 524 179 506 171 524 179 506 197 496 179 506 197 496 206 507 197 496 206 507 197 524 206 507 197 524 185 540 197 524 185 540 187 554 185 540 187 554 206 548 187 554 206 548 220 534 206 548 220 534 222 516 220 534 222 516 216 501 222 516 216 501 215 501 216 501 215 501 "/>
    <path id="Block7Jump71"
        fill="none"
        stroke="#FCBBC4"
		stroke-width="2px"
		d="M 311 744 L 289 725 267 703 253 695 260 691 253 701 259 695 265 692 260 696 255 705 270 693 257 708 265 701 275 693 266 702 258 713 280 694 260 717 270 706 286 694 272 708 261 721 284 698 291 694 285 700 264 721 263 725 276 712 294 696 277 713 265 729 268 725 289 704 298 698 291 706 270 727 267 732 282 718 301 701 283 719 269 736 274 731 295 710 304 704 296 711 275 732 271 740 287 723 306 708 289 725 273 743 279 737 301 715 308 711 302 717 281 738 275 747 293 729 309 715 294 730 279 749 285 742 306 721 311 720 287 744 282 751 299 735 312 724 300 736 289 750 312 727 297 747 304 740 313 735 306 742 304 747 313 740 310 746 313 742 313 745 312 732 313 745 312 732 329 725 312 732 329 725 347 716 329 725 347 716 355 701 347 716 355 701 338 701 355 701 338 701 324 700 338 701 324 700 314 685 324 700 314 685 302 668 314 685 302 668 285 657 302 668 285 657 273 666 285 657 273 666 265 681 273 666 265 681 269 691 265 681 269 691 285 694 269 691 285 694 302 699 285 694 302 699 308 714 302 699 308 714 311 732 308 714 311 732 306 749 311 732 306 749 292 755 306 749 292 755 278 741 292 755 278 741 266 725 278 741 266 725 258 708 266 725 258 708 242 705 258 708 242 705 227 719 242 705 227 719 227 737 227 719 227 737 236 752 227 737 236 752 254 757 236 752 254 757 261 766 254 757 261 766 258 785 261 766 258 785 260 797 258 785 260 797 278 790 260 797 278 790 293 777 278 790 293 777 299 757 293 777 299 757 300 753 299 757 300 753 348 785 354 772 348 785 346 805 348 785 346 805 357 823 346 805 357 823 375 833 357 823 375 833 368 838 375 833 368 838 349 839 368 838 349 839 330 848 349 839 330 848 317 863 330 848 317 863 316 882 317 863 316 882 333 890 316 882 333 890 353 886 333 890 353 886 371 877 353 886 371 877 385 862 371 877 385 862 390 859 385 862 390 859 402 876 390 859 402 876 419 886 402 876 419 886 439 886 419 886 439 886 449 870 439 886 449 870 448 850 449 870 448 850 436 834 448 850 436 834 434 830 436 834 434 830 451 841 434 830 451 841 469 845 451 841 469 845 485 832 469 845 485 832 478 817 485 832 478 817 462 808 478 817 462 808 446 809 462 808 446 809 453 803 446 809 453 803 459 786 453 803 459 786 455 767 459 786 455 767 446 750 455 767 446 750 430 762 446 750 430 762 415 774 430 762 415 774 409 788 415 774 409 788 410 805 409 788 410 805 410 809 410 805 410 809 405 790 410 809 405 790 391 775 405 790 391 775 372 767 391 775 372 767 355 764 372 767 355 764 " />
    <path id="Block8Jump72"
        fill="none"
        stroke="#FFFF00"
		stroke-width="2px"
		d="M 416 822 L 417 833 416 822 426 817 416 822 426 817 414 825 426 817 414 825 418 812 414 825 418 812 421 797 418 812 421 797 415 811 421 797 415 811 413 814 415 811 413 814 408 804 413 814 408 804 406 812 408 804 406 812 409 819 406 812 409 819 403 817 409 819 403 817 393 812 403 817 393 812 384 810 393 812 384 810 396 813 384 810 396 813 407 821 396 813 407 821 406 828 407 821 406 828 395 830 406 828 395 830 388 829 395 830 388 829 "/>
    <path id="Block8Jump73"
        fill="none"
        stroke="#FFFF00"
		stroke-width="2px"
		d="M 493 624 L 495 633 493 624 489 611 493 624 489 611 493 615 489 611 493 615 495 630 493 615 495 630 498 623 495 630 498 623 499 617 498 623 499 617 501 604 499 617 501 604 505 597 501 604 505 597 500 611 505 597 500 611 503 616 500 611 503 616 512 614 503 616 512 614 519 614 512 614 519 614 503 617 519 614 503 617 504 626 503 617 504 626 509 631 504 626 509 631 514 636 509 631 514 636 511 626 514 636 511 626 511 624 511 626 "/>
    <path id="Block8Jump74"
        fill="none"
        stroke="#FFFF00"
		stroke-width="2px"
		d="M 78 491 L 79 499 78 491 80 480 78 491 80 480 87 468 80 480 87 468 81 477 87 468 81 477 66 473 81 477 66 473 66 477 66 473 82 483 66 477 82 483 96 474 82 483 96 474 88 483 96 474 88 483 103 483 88 483 103 483 89 484 103 483 89 484 "/>
    <path id="Block8Jump75"
        fill="none"
        stroke="#FFFF00"
		stroke-width="2px"
		d="M 744 95 L 733 105 744 95 750 83 744 95 750 83 739 92 750 83 739 92 736 87 739 92 736 87 739 74 736 87 739 74 734 80 739 74 734 80 729 88 734 80 729 88 719 90 729 88 719 90 726 86 719 90 726 86 729 87 726 86 729 87 " />
    <path id="Block9Jump76"
        fill="none"
        stroke="#B54C64"
		stroke-width="2px"
		d="M 50 687 L 66 671 49 684 40 665 59 643 71 605 79 581 72 546 66 537 71 535 66 540 66 543 75 537 67 548 78 540 72 546 68 553 73 547 79 544 68 558 81 548 69 563 79 553 83 551 70 565 69 568 85 555 69 574 85 558 87 558 75 570 69 580 77 572 90 562 68 586 90 567 81 576 68 592 83 578 90 573 73 590 67 599 75 591 87 581 64 607 86 588 79 595 57 620 80 597 85 595 71 609 53 630 73 610 83 602 63 622 49 639 65 624 83 609 77 614 56 636 48 646 57 637 78 616 80 616 69 628 48 649 44 655 49 650 70 629 80 623 61 641 40 662 19 684 5 686 18 676 1 696 5 691 30 669 7 693 0 702 19 684 38 665 40 665 20 694 1 704 20 685 41 664 63 643 78 630 54 655 32 676 11 697 0 710 13 698 34 677 55 656 76 635 79 635 67 647 46 668 25 689 3 710 0 717 5 712 26 691 47 669 68 648 82 638 59 660 38 681 17 703 0 722 18 704 39 683 61 662 82 640 87 638 73 652 51 674 30 695 9 716 1 727 10 718 32 696 53 675 74 654 92 638 86 645 65 666 44 687 22 708 3 731 24 710 45 689 66 667 87 646 97 637 66 671 99 649 107 644 136 617 164 588 177 574 175 561 182 557 171 571 177 566 187 558 178 567 166 582 192 558 170 580 161 590 136 617 174 604 203 593 239 576 261 566 290 538 319 510 328 502 360 467 384 438 411 409 440 378 458 352 485 323 493 314 518 282 532 264 559 235 580 213 585 191 555 218 540 191 525 180 532 176 527 184 539 175 534 180 529 188 535 182 544 175 529 193 550 175 539 186 526 202 541 187 554 177 532 199 529 205 533 201 554 179 557 179 545 191 532 207 546 193 557 185 537 205 536 209 557 191 551 197 539 211 552 199 558 196 543 211 541 215 558 201 543 219 558 204 548 216 543 225 550 218 565 206 542 231 563 210 568 206 585 191 599 174 612 155 606 119 609 105 623 88 618 84 607 92 582 78 573 70 582 63 575 74 586 66 577 75 576 78 590 68 577 80 582 78 582 86 573 87 594 69 582 80 576 90 584 82 599 69 596 73 579 92 597 74 609 66 588 86 582 95 590 88 612 68 602 78 585 97 603 80 614 71 594 92 588 100 595 93 616 75 607 84 592 102 609 85 618 79 599 97 595 104 601 99 620 80 618 84 631 68 633 61 627 70 638 61 625 75 618 84 623 88 639 75 655 64 637 80 641 75 650 64 640 74 628 85 623 88 597 106 613 90 634 68 642 63 635 70 614 91 599 109 605 103 626 82 647 64 628 83 606 104 599 112 609 105 603 119 599 114 615 102 599 120 611 109 614 109 599 126 603 122 614 114 604 124 600 131 614 119 602 135 609 128 615 124 610 129 603 139 616 129 604 143 614 133 617 133 605 148 618 138 608 148 606 153 621 141 605 160 612 153 623 144 614 154 601 167 587 181 587 178 576 191 592 175 598 170 587 184 575 196 583 187 604 166 626 147 606 167 585 189 573 200 585 191 580 213 609 186 621 175 660 165 677 161 719 162 745 178 764 201 794 211 786 216 792 208 781 216 788 206 775 216 785 203 777 211 771 215 775 210 782 201 765 215 778 199 771 206 761 213 770 204 774 197 759 209 770 196 766 200 758 205 764 199 766 194 756 201 763 191 754 197 759 193 761 187 752 194 759 184 754 189 749 191 753 187 756 181 746 188 754 178 749 183 744 185 751 175 741 182 747 173 743 177 737 180 742 176 744 170 734 177 742 167 737 172 731 175 736 170 739 165 727 173 736 162 732 166 723 172 730 165 733 159 718 171 730 156 726 160 714 170 725 159 727 153 713 168 709 169 725 150 720 155 704 168 719 153 727 142 707 162 699 167 705 161 727 140 730 134 715 149 693 167 713 148 729 129 722 136 701 157 688 167 700 155 699 153 688 165 682 167 686 163 692 155 677 167 686 155 682 159 672 167 681 158 680 155 666 167 674 155 660 167 669 155 663 161 655 167 662 160 664 155 647 168 659 154 639 171 653 154 644 163 628 177 643 162 647 154 631 171 611 187 629 170 643 153 638 158 617 179 599 197 580 213 566 230 569 235 559 242 567 235 574 225 565 233 551 244 575 221 581 215 604 181 628 148 618 158 597 179 575 201 554 222 540 239 556 223 577 202 598 181 619 160 631 150 610 172 589 193 568 214 546 235 533 252 548 237 569 216 590 194 611 173 633 152 635 152 623 164 602 185 581 206 560 228 539 249 523 267 540 250 561 229 582 208 604 187 625 165 640 153 616 177 594 199 573 220 552 241 531 262 519 274 532 264 534 268 549 247 532 264 509 290 523 276 544 254 524 277 498 306 515 289 536 268 517 290 495 312 474 333 453 354 452 356 458 352 429 379 421 387 408 393 418 383 434 370 430 374 409 395 394 413 411 397 432 375 447 360 458 352 431 382 411 405 386 424 401 409 423 387 444 366 465 345 486 324 507 302 529 281 526 287 509 304 488 325 466 346 445 368 424 389 403 410 382 431 375 441 394 422 415 401 436 380 457 358 478 337 500 316 512 307 501 317 480 339 459 360 437 381 416 402 395 423 374 445 369 450 384 438 396 428 424 399 454 368 449 372 428 393 407 414 386 435 365 457 343 478 322 499 307 517 324 500 345 479 366 458 387 437 408 416 421 406 399 428 378 449 357 470 336 491 314 512 301 526 328 502 331 507 307 534 307 539 283 566 302 590 324 611 347 630 377 643 405 645 395 658 411 685 399 723 396 734 387 746 370 759 330 757 314 731 310 729 317 725 309 736 317 727 321 727 309 742 325 728 322 732 309 747 323 733 329 730 314 745 312 749 334 730 327 737 314 754 329 739 340 730 319 751 314 759 321 752 344 732 333 743 314 765 334 744 337 744 325 756 319 766 326 758 338 749 326 764 341 752 331 762 332 764 343 755 337 764 347 757 342 765 351 759 347 766 351 761 355 761 353 765 360 761 358 766 369 758 365 764 370 759 376 754 387 746 379 759 399 736 384 751 368 764 382 750 404 729 405 727 396 734 421 702 427 694 408 722 392 738 394 732 411 715 433 694 438 686 421 703 399 725 419 702 435 684 428 690 407 711 401 715 406 710 427 689 431 681 415 698 401 708 413 696 428 679 423 684 401 703 421 683 425 677 409 692 401 698 408 691 422 674 417 679 400 693 416 677 419 671 404 686 398 689 402 685 416 668 411 673 396 686 410 672 414 665 398 681 393 683 396 679 412 661 406 667 390 680 404 666 410 657 392 675 387 678 391 674 408 653 400 662 383 676 399 660 408 648 387 669 379 674 385 668 406 647 411 643 405 645 425 628 452 624 439 637 433 640 448 625 452 618 447 624 428 639 435 633 449 616 433 631 423 638 442 619 443 616 418 638 429 627 436 617 428 626 413 640 405 645 409 633 433 618 416 635 394 656 376 672 393 655 414 633 425 620 402 643 381 664 373 669 379 662 401 641 418 621 410 629 389 650 370 666 387 649 408 628 408 625 396 637 375 658 367 663 374 657 395 636 400 628 383 645 366 659 382 643 393 629 370 652 364 655 368 651 387 630 377 639 361 652 376 638 381 630 364 647 360 648 375 631 357 645 370 632 370 630 358 641 354 643 365 629 351 640 360 628 353 636 348 638 351 634 356 626 343 636 353 624 347 630 339 635 346 628 349 622 335 633 346 620 341 624 331 631 340 623 343 617 329 628 339 615 336 619 326 626 334 617 336 612 324 622 334 609 330 613 321 619 329 611 331 607 319 616 328 604 324 607 316 613 323 606 325 601 313 610 322 598 319 602 310 607 317 600 319 596 307 605 316 593 303 603 312 595 313 590 300 600 310 587 297 597 306 589 308 584 294 595 306 580 302 585 290 593 300 583 304 577 286 592 302 573 296 579 283 590 295 578 302 568 283 587 278 589 281 585 302 562 290 573 273 587 289 572 302 556 298 560 277 581 268 587 276 580 297 558 305 548 285 568 262 587 283 566 305 545 307 539 332 517 335 529 349 512 331 529 324 534 341 517 351 504 339 516 315 537 327 525 348 504 353 496 347 503 326 524 311 539 281 563 259 588 271 575 293 554 314 533 335 512 358 486 334 510 312 532 291 553 270 574 252 589 258 583 279 562 300 541 322 520 343 498 361 480 331 507 360 480 392 450 403 455 391 464 403 452 415 438 391 462 382 468 389 460 411 439 416 431 399 448 373 471 397 447 416 426 406 435 385 456 368 473 339 500 331 507 301 534 285 548 259 578 248 590 256 582 278 561 299 539 320 518 341 497 363 476 384 455 405 433 417 418 393 442 372 464 351 485 329 506 308 527 287 549 266 570 241 592 264 568 285 547 307 526 328 505 349 483 370 462 392 441 413 420 418 411 401 429 379 450 358 471 337 493 316 514 295 535 273 556 252 578 237 592 261 566 256 562 289 538 272 555 251 576 230 595 239 585 260 564 274 547 259 563 237 584 220 598 225 593 247 572 268 551 245 570 224 592 213 600 233 580 254 558 232 578 210 599 205 602 220 587 241 566 218 586 195 607 206 595 227 574 205 594 184 611 193 603 214 582 218 575 213 580 191 602 172 619 179 611 201 590 212 575 199 588 178 609 156 628 166 619 187 597 208 576 186 596 165 617 139 640 153 626 174 605 195 584 201 575 194 582 172 604 151 625 123 650 139 634 160 613 182 592 198 573 180 590 159 611 138 633 109 659 126 642 147 621 168 599 189 578 196 568 188 577 167 598 145 619 124 640 103 662 97 665 112 650 133 628 155 607 176 586 196 563 174 585 153 606 132 627 111 648 84 672 99 657 120 636 141 615 162 594 184 573 194 559 182 571 161 592 140 614 119 635 97 656 78 675 107 644 76 669 65 677 70 681 85 665 107 644 128 623 134 614 126 621 105 643 84 664 56 689 72 673 93 652 114 631 116 626 92 650 70 672 49 693 41 698 58 681 80 660 101 638 101 636 78 658 57 679 36 701 30 706 22 715 " />
    <path id="Block10Jump77"
        fill="none"
        stroke="#2F7E20"
		stroke-width="2px"
		d="M 160 627 L 190 639 215 656 238 675 243 690 256 675 242 688 235 692 252 676 257 668 250 675 229 693 238 684 257 662 237 682 223 693 246 670 257 657 245 669 223 690 218 693 233 678 254 657 257 651 252 656 231 677 212 693 219 686 240 665 256 646 239 663 218 685 206 693 227 673 248 651 255 641 247 650 226 671 204 692 201 692 213 680 235 659 254 637 233 658 212 679 197 692 200 688 221 667 242 646 252 634 241 644 220 665 199 687 192 691 208 675 229 653 250 630 228 652 206 673 188 689 194 682 216 661 237 640 247 627 235 639 214 660 193 681 184 687 202 669 223 648 245 627 244 624 222 646 201 668 181 685 189 677 210 656 231 634 240 622 230 633 209 654 187 675 178 682 197 663 218 642 237 620 216 641 195 662 176 678 183 671 204 650 226 629 233 618 224 627 203 648 182 670 173 675 191 658 212 636 229 617 211 635 189 656 171 672 177 665 199 644 220 623 224 616 218 622 197 643 176 664 169 668 185 652 206 631 220 615 205 629 184 651 168 664 172 660 193 639 214 617 215 614 192 637 170 658 165 660 180 646 201 625 210 613 199 624 178 645 164 656 187 633 204 613 186 631 165 653 162 653 174 641 195 619 199 612 194 618 172 639 160 648 182 627 194 612 180 626 158 645 168 635 189 614 167 634 157 641 176 622 180 615 175 620 156 636 163 629 169 620 161 628 156 630 163 623 161 640 167 659 171 668 139 693 128 702 115 687 127 683 122 679 116 685 103 702 118 687 133 674 130 678 108 699 100 710 110 700 131 679 142 670 122 691 101 712 96 719 102 714 123 692 144 671 149 669 135 683 114 704 95 726 115 706 137 685 157 667 149 675 127 697 106 718 94 733 108 719 129 698 150 677 164 666 141 689 120 710 98 731 94 739 100 733 121 711 142 690 164 669 168 667 154 681 133 702 112 724 93 743 116 731 132 707 142 738 161 762 160 774 172 762 181 750 171 761 149 780 159 770 180 749 185 741 178 748 157 769 137 786 145 778 166 757 187 733 165 755 144 777 128 789 132 786 153 765 174 743 189 726 173 742 151 763 130 784 119 793 139 772 161 751 182 730 190 719 180 728 159 750 138 771 117 792 112 794 126 780 147 759 168 738 191 712 167 736 146 757 125 779 108 792 113 788 134 767 155 745 176 724 191 707 175 723 154 744 132 765 111 786 106 789 120 774 142 753 163 732 184 711 192 700 183 709 161 731 140 752 119 773 105 784 128 761 149 740 171 719 185 702 169 717 148 738 127 760 106 781 103 781 115 769 136 748 157 726 178 705 183 697 177 704 156 725 135 746 113 767 101 777 122 755 144 734 165 713 182 693 164 711 142 733 121 754 100 772 109 763 130 742 151 721 173 699 181 688 171 698 150 719 129 740 108 762 98 768 117 750 138 728 159 707 180 684 158 706 137 727 115 748 97 764 103 757 125 736 146 715 167 694 178 680 166 692 144 714 123 735 102 756 96 760 111 744 132 723 154 702 175 680 176 676 152 700 131 721 110 743 95 755 119 731 140 709 161 688 174 673 160 687 139 708 118 729 96 750 94 750 106 738 127 717 148 696 169 675 172 669 168 673 147 695 125 716 104 737 94 745 113 725 135 704 156 683 170 668 "/>
    <path id="Block10Jump78"
        fill="none"
        stroke="#2F7E20"
		stroke-width="2px"
		d="M 347 616 L 380 588 388 581 393 573 384 539 380 501 363 521 378 506 388 498 379 507 357 533 370 519 391 498 396 496 393 500 371 521 352 543 362 533 383 512 408 490 385 513 364 534 350 551 354 546 376 525 397 504 412 492 398 505 377 527 356 548 348 558 368 539 389 517 410 496 414 495 391 519 369 540 349 563 360 552 381 531 403 510 415 500 404 511 383 532 362 553 350 568 374 544 395 523 416 505 396 524 375 546 354 567 351 573 366 558 387 536 408 515 418 508 410 517 388 538 367 559 352 577 358 571 379 550 400 529 420 512 402 530 381 551 359 573 354 580 371 563 393 542 414 521 422 515 415 522 394 544 373 565 356 585 364 577 385 556 406 534 424 519 408 536 386 557 365 578 358 588 377 569 398 548 420 527 425 524 421 528 400 549 379 570 360 592 369 582 391 561 412 540 427 528 413 541 392 563 371 584 362 596 383 575 404 553 425 532 427 534 405 555 384 576 363 597 362 601 375 588 396 567 417 546 427 539 419 547 398 568 376 589 360 606 388 581 417 580 413 584 396 598 401 593 421 570 400 592 388 601 409 580 423 563 408 578 386 599 381 602 395 587 417 566 425 555 415 565 394 586 374 604 382 595 403 574 424 553 426 548 402 573 381 594 354 618 369 603 390 582 411 560 427 542 410 559 388 580 367 601 349 620 351 615 347 618 349 614 346 617 "/>
    <path id="Block10Jump79"
        fill="none"
        stroke="#2F7E20"
		stroke-width="2px"
		d="M 549 542 L 560 534 577 551 555 564 571 557 586 539 566 559 550 572 554 568 575 547 588 531 574 546 553 567 542 575 562 555 583 534 590 524 582 532 560 553 538 572 548 563 570 541 591 517 568 540 547 561 535 570 556 549 577 528 591 511 576 526 555 548 531 568 543 557 564 536 585 514 593 504 584 513 562 534 541 555 527 567 550 543 572 522 591 500 570 521 549 542 528 563 521 567 537 551 558 530 579 509 589 496 578 507 557 529 536 550 519 567 532 545 552 531 529 511 538 500 522 515 515 525 534 506 550 493 536 507 514 532 526 519 548 498 558 491 549 500 528 521 514 538 519 533 540 512 561 490 566 488 562 492 541 513 520 534 514 543 532 525 553 504 573 487 555 505 533 526 514 549 524 538 546 517 567 496 579 486 568 497 547 519 526 540 514 554 538 531 559 509 580 488 585 486 582 490 560 511 539 532 518 553 515 559 530 544 551 523 572 502 587 490 574 503 553 524 531 546 516 564 522 558 543 536 565 515 586 494 588 495 566 517 545 538 524 559 517 566 553 589 549 597 547 596 565 581 556 589 541 607 558 591 568 580 570 589 556 595 595 598 631 605 644 603 623 621 638 607 653 589 636 605 615 624 624 615 645 593 652 584 644 592 623 613 608 625 632 601 648 582 631 600 609 621 602 626 619 609 640 588 645 580 638 586 617 608 596 626 605 617 626 596 642 577 625 594 604 615 590 626 613 603 634 582 638 576 633 581 611 602 590 623 585 626 599 611 621 590 633 574 619 589 598 610 579 626 586 619 607 598 628 576 628 574 606 596 585 618 574 625 594 605 615 584 623 573 614 583 592 604 570 624 580 613 602 592 618 573 600 591 579 612 567 621 588 600 609 579 614 572 608 577 587 598 564 618 575 608 596 586 609 571 594 585 573 606 561 616 582 594 604 573 604 569 581 593 560 614 557 614 569 602 590 581 599 569 589 579 568 601 553 613 577 589 591 572 575 587 554 608 549 611 563 596 585 575 562 595 544 610 550 604 571 583 572 579 549 603 541 610 "/>
    <path id="Block10Jump80"
        fill="none"
        stroke="#2F7E20"
		stroke-width="2px"
		d="M 506 93 L 514 103 506 93 498 86 506 93 498 86 498 85 485 109 490 98 488 105 475 115 496 92 477 111 470 115 486 99 497 88 488 88 485 97 463 76 441 56 417 46 427 39 417 52 428 41 434 38 429 42 417 57 440 37 422 55 418 62 434 46 447 36 435 48 419 67 426 60 447 39 453 36 449 40 427 61 420 71 439 52 458 36 441 53 422 75 432 65 453 44 463 37 454 46 433 67 424 79 445 58 468 38 446 59 425 80 425 83 437 71 458 50 472 39 460 51 439 72 427 87 451 63 472 42 476 41 452 65 431 86 429 91 443 77 464 55 480 43 466 57 444 78 431 94 435 90 456 69 478 48 484 44 479 49 458 70 437 92 433 98 449 82 470 61 487 46 471 63 450 84 435 101 441 96 462 75 483 53 491 48 485 55 463 76 442 97 438 104 454 88 475 67 495 51 477 68 456 89 441 106 446 101 468 80 489 59 497 53 490 60 469 82 448 103 445 109 460 94 481 72 500 56 483 74 461 95 449 110 473 86 495 65 502 60 496 66 475 87 454 109 454 111 466 99 487 78 503 65 488 80 467 101 458 112 479 92 500 70 504 69 480 93 463 113 471 105 492 84 504 75 494 85 473 106 468 114 485 97 503 79 498 85 507 95 518 91 520 79 520 74 520 75 535 64 527 69 537 62 541 55 536 60 517 76 524 69 542 52 532 52 529 62 517 30 515 25 508 32 500 42 509 33 531 14 521 24 500 45 499 49 522 25 538 13 534 16 513 37 500 54 515 39 536 18 541 16 527 30 505 51 501 58 507 52 528 31 542 20 519 43 503 62 520 45 542 23 532 35 511 57 505 65 513 58 534 37 543 30 525 49 508 68 526 50 542 37 538 41 517 62 512 70 518 64 539 42 542 42 530 54 515 73 532 56 542 49 522 68 516 74 "/>
    <path id="Block10Jump81"
        fill="none"
        stroke="#2F7E20"
		stroke-width="2px"
		d="M 651 174 L 646 167 651 174 659 190 651 174 659 190 637 202 633 197 630 209 627 203 645 188 625 208 623 213 637 199 652 187 638 200 622 219 629 212 650 191 656 188 652 192 631 214 622 222 638 217 640 207 672 218 692 240 712 262 728 289 728 301 733 295 736 289 722 301 737 283 729 291 718 299 728 289 737 276 713 298 735 276 739 269 723 285 708 297 722 284 739 264 731 272 710 293 704 296 708 291 730 270 740 257 718 279 700 294 716 278 737 257 740 252 725 266 704 287 696 292 703 286 724 264 739 247 733 252 712 274 692 291 711 272 732 251 739 241 720 260 699 281 689 288 697 280 718 259 737 237 728 247 706 268 684 287 705 267 726 245 736 233 714 255 693 276 681 285 691 274 713 253 734 232 735 228 722 241 701 262 677 283 699 261 720 240 733 224 730 228 708 249 687 270 674 281 686 269 707 247 728 226 731 221 716 235 695 257 674 278 670 279 694 255 715 234 730 216 724 222 703 243 682 264 666 277 680 263 701 242 723 221 728 213 711 230 689 251 668 272 663 274 667 271 688 250 709 228 725 209 718 216 697 238 676 259 660 272 675 257 696 236 717 215 723 206 705 224 684 245 662 267 656 270 661 265 682 244 704 223 721 202 713 211 691 232 670 253 653 268 669 252 690 231 711 209 719 199 699 218 678 240 657 261 649 266 655 260 677 238 698 217 718 194 707 205 686 226 665 247 646 263 663 246 684 225 706 204 715 192 694 213 672 234 651 255 643 260 650 254 671 233 692 211 713 188 701 199 680 221 659 242 641 257 658 240 679 219 700 198 710 185 688 207 667 228 646 250 638 255 644 248 665 227 687 206 708 185 707 182 696 194 675 215 653 236 635 252 652 235 673 214 694 192 704 180 682 202 661 223 640 244 633 248 638 243 660 221 681 200 699 179 690 188 669 209 648 231 631 245 646 229 667 208 689 187 694 178 677 196 655 217 634 238 629 241 633 237 654 216 675 194 689 177 684 182 663 204 642 225 626 238 641 223 662 202 683 181 683 178 671 190 650 211 629 233 625 233 648 210 670 189 675 180 658 198 636 219 623 230 635 218 656 197 664 186 644 206 622 225 643 204 658 189 " />
    <path id="Block11Jump82"
        fill="none"
        stroke="#003822"
		stroke-width="2px"
		d="M 674 204 L 684 222 697 238 711 253 721 270 726 290 728 296 726 290 721 270 711 253 697 238 684 222 674 204 659 190 652 180 659 190 652 180 647 170 652 180 647 170 647 165 647 170 647 165 "/>
    <path id="Block11Jump83"
        fill="none"
        stroke="#003822"
		stroke-width="2px"
		d="M 519 59 L 523 41 531 26 526 29 519 46 519 64 519 73 519 64 519 46 526 29 531 26 523 41 519 59 521 75 479 78 495 88 479 78 463 66 479 78 463 66 448 54 463 66 448 54 429 46 448 54 429 46 423 44 429 46 423 44 423 43 "/>
    <path id="Block11Jump84"
        fill="none"
        stroke="#003822"
		stroke-width="2px"
		d="M 177 637 L 157 632 177 637 197 642 177 637 197 642 215 651 197 642 215 651 231 663 215 651 231 663 246 677 231 663 246 677 241 672 246 677 241 672 225 659 241 672 225 659 207 649 225 659 207 649 188 640 207 649 188 640 169 631 188 640 169 631 157 626 169 631 157 626 160 641 166 658 169 672 155 687 169 672 155 687 140 701 155 687 140 701 129 718 140 701 129 718 124 738 129 718 124 738 120 758 124 738 120 758 117 777 120 758 117 777 117 788 117 777 117 788 117 789 "/>
    <path id="Block11Jump85"
        fill="none"
        stroke="#003822"
		stroke-width="2px"
		d="M 367 582 L 368 602 367 582 372 562 367 582 372 562 379 543 372 562 379 543 387 525 379 543 387 525 397 507 387 525 397 507 409 490 397 507 409 490 409 489 409 490 409 489 "/>
    <path id="Block11Jump86"
        fill="none"
        stroke="#003822"
		stroke-width="2px"
		d="M 572 500 L 587 486 572 500 561 513 572 500 561 513 551 531 561 513 551 531 542 548 551 531 542 548 538 565 542 548 538 565 538 566 538 565 558 609 538 609 558 609 578 606 558 609 578 606 598 601 578 606 598 601 618 597 598 601 618 597 634 594 618 597 634 594 652 588 634 594 652 588 " />
    <path id="Block12Jump87"
        fill="none"
        stroke="#000000"
		stroke-width="2px"
		d="M 310 383 L 342 394 370 409 385 436 387 446 390 439 383 444 389 435 382 439 388 430 382 434 388 424 385 425 391 416 387 417 389 412 383 415 387 409 378 415 382 407 374 413 378 406 369 412 374 405 370 409 365 411 368 407 370 403 360 410 366 401 356 409 363 402 363 399 351 407 360 396 348 405 357 396 356 394 344 403 353 392 341 401 349 390 339 400 336 400 346 387 333 398 343 385 334 394 329 395 340 382 326 393 336 381 328 388 322 392 327 387 332 378 318 390 327 378 322 383 315 388 321 381 322 377 311 386 312 381 309 385 309 383 "/>
    <path id="Block12Jump88"
        fill="none"
        stroke="#000000"
		stroke-width="2px"
		d="M 410 444 L 403 448 387 453 395 448 392 454 403 446 397 452 408 444 421 442 414 448 409 451 420 437 402 453 410 444 419 436 414 427 "/>
    <path id="Block12Jump89"
        fill="none"
        stroke="#000000"
		stroke-width="2px"
		d="M 261 424 L 279 448 301 468 322 484 318 491 330 522 325 523 328 518 323 520 325 515 320 518 324 511 318 513 323 506 316 510 322 501 316 505 322 496 316 501 314 501 322 490 314 495 322 487 328 482 326 486 333 476 323 486 320 478 330 476 313 490 320 484 325 476 318 482 313 485 321 474 311 482 314 478 316 473 313 477 308 479 313 470 305 476 308 472 311 467 307 471 301 474 307 465 298 472 303 467 304 462 295 469 301 460 292 467 297 461 299 457 289 464 296 454 285 462 292 455 293 451 282 459 290 448 279 456 286 450 287 445 276 454 284 443 273 451 280 444 282 440 270 448 279 437 267 445 275 438 276 434 265 443 273 431 263 439 269 433 270 429 260 436 267 426 259 431 263 427 264 424 260 425 263 422 261 422 "/>
    <path id="Block12Jump90"
        fill="none"
        stroke="#000000"
		stroke-width="2px"
		d="M 352 497 L 346 526 354 515 344 522 350 516 355 509 347 514 355 503 349 506 354 498 350 499 352 492 " />
</svg>
