<?xml version="1.0" encoding="UTF-8" standalone="no"?>
<svg xmlns="http://www.w3.org/2000/svg" version="1.1" width="540" height="612">
    <path id="Block1Jump0"
        fill="none"
        stroke="#66BA49"
		stroke-width="2px"
		d="M 420 264 L 414 270 432 252 423 243 414 252 432 234 423 225 414 234 432 216 423 207 414 216 432 198 423 189 414 198 432 180 423 171 414 180 405 171 396 180 414 162 405 153 396 162 387 153 378 162 369 153 360 162 378 144 360 162 378 144 369 153 360 144 378 162 360 144 378 162 396 144 378 162 396 144 387 153 378 144 396 162 378 144 396 162 414 144 423 153 414 162 432 144 441 153 432 162 441 171 432 180 441 189 432 198 441 207 432 216 441 225 432 234 441 243 432 252 441 261 432 270 441 279 432 288 441 297 432 306 441 315 432 324 450 306 459 315 450 324 459 333 450 342 468 324 477 333 468 342 477 351 468 360 477 369 468 378 486 360 504 342 495 333 486 342 504 324 495 315 486 324 477 315 468 324 486 306 477 297 468 306 459 297 450 306 468 288 459 279 450 288 468 270 459 261 450 270 468 252 459 243 450 252 468 234 459 225 450 234 468 216 459 207 450 216 468 198 459 189 450 198 468 180 459 171 450 180 468 162 450 180 468 162 459 171 450 162 468 180 477 189 468 198 477 207 468 216 477 225 468 234 477 243 468 252 477 261 468 270 477 279 468 288 486 270 495 279 486 288 495 297 486 306 504 288 513 297 504 306 513 315 504 324 522 306 504 324 522 306 513 315 522 324 504 306 522 324 504 306 522 288 513 279 504 288 522 270 513 261 504 270 495 261 486 270 504 252 495 243 486 252 504 234 495 225 486 234 504 216 495 207 486 216 504 198 486 216 504 198 495 207 486 198 504 216 513 225 504 234 513 243 504 252 522 234 504 252 522 234 513 243 522 252 504 234 522 252 504 234 522 216 504 234 522 216 513 225 522 234 504 216 522 234 504 216 486 198 504 216 486 234 504 216 495 225 486 216 504 234 486 216 504 234 486 252 504 234 495 243 486 234 504 252 486 234 504 252 486 270 504 252 495 261 486 252 504 270 486 252 504 270 522 252 504 270 522 252 513 261 504 252 522 270 504 252 522 270 504 288 522 270 513 279 504 270 522 288 504 270 522 288 504 306 522 288 513 297 522 306 504 288 522 306 504 288 486 306 504 288 495 297 504 306 486 288 504 306 486 288 504 270 486 288 504 270 495 279 504 288 486 270 504 288 486 270 468 288 486 270 477 279 486 288 468 270 486 288 468 270 486 252 468 270 486 252 477 261 486 270 468 252 486 270 468 252 486 234 468 252 486 234 477 243 486 252 468 234 486 252 468 234 486 216 468 234 486 216 477 225 486 234 468 216 486 234 468 216 486 198 468 216 486 198 477 207 486 216 468 198 486 216 468 198 486 180 468 198 486 180 477 189 486 198 468 180 486 198 468 180 450 162 468 180 450 198 468 180 459 189 450 180 468 198 450 180 468 198 450 216 468 198 459 207 450 198 468 216 450 198 468 216 450 234 468 216 459 225 450 216 468 234 450 216 468 234 450 252 468 234 459 243 450 234 468 252 450 234 468 252 450 270 468 252 459 261 450 252 468 270 450 252 468 270 450 288 468 270 459 279 450 270 468 288 450 270 468 288 450 306 468 288 459 297 450 288 468 306 450 288 468 306 486 288 468 306 486 288 477 297 468 288 486 306 468 288 486 306 468 324 486 306 477 315 468 306 486 324 468 306 486 324 504 306 486 324 504 306 495 315 486 306 504 324 486 306 504 324 486 342 504 324 495 333 486 324 504 342 486 324 504 342 486 360 504 342 495 351 504 360 486 342 504 360 486 342 495 351 486 360 468 378 486 360 477 369 486 378 468 360 486 378 468 360 486 342 468 360 486 342 477 351 486 360 468 342 486 360 468 342 486 324 468 342 486 324 477 333 486 342 468 324 486 342 468 324 450 342 468 324 459 333 468 342 450 324 468 342 450 324 468 306 450 324 468 306 459 315 468 324 450 306 468 324 450 306 432 324 450 306 441 315 450 324 432 306 450 324 432 306 450 288 432 306 450 288 441 297 450 306 432 288 450 306 432 288 450 270 432 288 450 270 441 279 450 288 432 270 450 288 432 270 450 252 432 270 450 252 441 261 450 270 432 252 450 270 432 252 450 234 432 252 450 234 441 243 450 252 432 234 450 252 432 234 450 216 432 234 450 216 441 225 450 234 432 216 450 234 432 216 450 198 432 216 450 198 441 207 450 216 432 198 450 216 432 198 450 180 432 198 450 180 441 189 450 198 432 180 450 198 432 180 450 162 432 180 450 162 441 171 450 180 432 162 450 180 432 162 450 144 432 162 450 144 441 153 450 162 432 144 450 162 432 144 414 162 432 144 423 153 432 162 414 144 432 162 414 144 396 162 414 144 405 153 396 144 414 162 396 144 414 162 396 180 414 162 405 171 396 162 414 180 396 162 414 180 432 162 414 180 432 162 423 171 414 162 432 180 414 162 432 180 414 198 432 180 423 189 414 180 432 198 414 180 432 198 414 216 432 198 423 207 414 198 432 216 414 198 432 216 414 234 432 216 423 225 414 216 432 234 414 216 432 234 414 252 432 234 423 243 414 234 432 252 414 234 432 252 414 270 432 252 423 261 432 270 414 252 432 270 414 252 423 261 414 270 418 266 414 270 "/>
    <path id="Block1Jump1"
        fill="none"
        stroke="#66BA49"
		stroke-width="2px"
		d="M 174 156 L 180 162 171 153 162 162 153 153 144 162 135 153 126 162 117 153 108 162 99 153 90 162 99 171 90 180 81 171 72 180 81 189 72 198 63 189 54 198 63 207 54 216 45 207 36 216 45 225 36 234 27 225 18 234 27 243 18 252 27 261 18 270 27 279 18 288 27 297 18 306 36 288 45 297 36 306 45 315 36 324 45 333 36 342 45 351 36 360 54 342 63 351 54 360 63 369 54 378 72 360 54 378 72 360 63 369 72 378 54 360 72 378 54 360 72 342 63 333 54 342 72 324 63 315 54 324 72 306 63 297 54 306 72 288 63 279 54 288 45 279 36 288 54 270 45 261 36 270 54 252 45 243 36 252 54 234 63 243 54 252 63 261 54 270 72 252 81 261 72 270 81 279 72 288 81 297 72 306 81 315 72 324 81 333 72 342 90 324 108 306 99 297 90 306 108 288 99 279 90 288 108 270 99 261 90 270 108 252 99 243 90 252 81 243 72 252 90 234 81 225 72 234 63 225 54 234 72 216 90 198 99 207 90 216 99 225 90 234 108 216 117 225 108 234 117 243 108 252 117 261 108 270 126 252 108 270 126 252 117 261 126 270 108 252 126 270 108 252 126 234 108 252 126 234 117 243 126 252 108 234 126 252 108 234 126 216 117 207 108 216 126 198 117 189 108 198 99 189 90 198 108 180 126 162 135 171 126 180 144 162 126 180 144 162 135 171 144 180 126 162 144 180 126 162 108 180 126 162 117 171 126 180 108 162 126 180 108 162 117 171 108 180 90 198 108 180 99 189 90 180 108 198 90 180 108 198 126 180 108 198 126 180 117 189 108 180 126 198 108 180 126 198 108 216 126 198 117 207 108 198 126 216 108 198 126 216 108 234 126 216 117 225 126 234 108 216 126 234 108 216 90 234 108 216 99 225 108 234 90 216 108 234 90 216 108 198 90 216 108 198 99 207 108 216 90 198 108 216 90 198 72 216 90 198 81 207 90 216 72 198 90 216 72 198 81 207 72 216 54 234 72 216 63 225 54 216 72 234 54 216 72 234 90 216 72 234 90 216 81 225 72 216 90 234 72 216 90 234 72 252 90 234 81 243 72 234 90 252 72 234 90 252 108 234 90 252 108 234 99 243 90 234 108 252 90 234 108 252 90 270 108 252 99 261 90 252 108 270 90 252 108 270 90 288 108 270 99 279 90 270 108 288 90 270 108 288 90 306 108 288 99 297 90 288 108 306 90 288 108 306 90 324 108 306 99 315 108 324 90 306 108 324 90 306 99 315 90 324 72 342 90 324 81 333 90 342 72 324 90 342 72 324 90 306 72 324 90 306 81 315 90 324 72 306 90 324 72 306 90 288 72 306 90 288 81 297 90 306 72 288 90 306 72 288 90 270 72 288 90 270 81 279 90 288 72 270 90 288 72 270 90 252 72 270 90 252 81 261 90 270 72 252 90 270 72 252 54 270 72 252 63 261 72 270 54 252 72 270 54 252 72 234 54 252 72 234 63 243 72 252 54 234 72 252 54 234 36 252 54 234 45 243 36 234 54 252 36 234 54 252 36 270 54 252 45 261 36 252 54 270 36 252 54 270 36 288 54 270 45 279 36 270 54 288 36 270 54 288 72 270 54 288 72 270 63 279 54 270 72 288 54 270 72 288 54 306 72 288 63 297 54 288 72 306 54 288 72 306 54 324 72 306 63 315 54 306 72 324 54 306 72 324 54 342 72 324 63 333 54 324 72 342 54 324 72 342 54 360 72 342 63 351 72 360 54 342 72 360 54 342 36 360 54 342 45 351 54 360 36 342 54 360 36 342 54 324 36 342 54 324 45 333 54 342 36 324 54 342 36 324 54 306 36 324 54 306 45 315 54 324 36 306 54 324 36 306 54 288 36 306 54 288 45 297 54 306 36 288 54 306 36 288 18 306 36 288 27 297 36 306 18 288 36 306 18 288 36 270 18 288 36 270 27 279 36 288 18 270 36 288 18 270 36 252 18 270 36 252 27 261 36 270 18 252 36 270 18 252 36 234 18 252 36 234 27 243 36 252 18 234 36 252 18 234 36 216 18 234 36 216 27 225 18 216 36 234 18 216 36 234 54 216 36 234 54 216 45 225 54 234 36 216 54 234 36 216 54 198 36 216 54 198 45 207 36 198 54 216 36 198 54 216 72 198 54 216 72 198 63 207 72 216 54 198 72 216 54 198 72 180 54 198 72 180 63 189 54 180 72 198 54 180 72 198 90 180 72 198 90 180 81 189 90 198 72 180 90 198 72 180 90 162 72 180 90 162 81 171 72 162 90 180 72 162 90 180 108 162 90 180 108 162 99 171 108 180 90 162 108 180 90 162 108 144 90 162 108 144 99 153 90 144 108 162 90 144 108 162 126 144 108 162 126 144 117 153 108 144 126 162 108 144 126 162 144 144 126 162 144 144 135 153 126 144 144 162 126 144 144 162 162 144 144 162 162 144 153 153 144 144 162 162 144 144 162 162 180 144 162 162 180 144 171 153 162 144 180 162 162 144 180 162 176 158 180 162 " />
    <path id="Block2Jump2"
        fill="none"
        stroke="#FFFF00"
		stroke-width="2px"
		d="M 168 138 L 162 144 180 126 171 117 162 126 153 117 144 126 135 117 126 126 117 117 108 126 99 117 90 126 81 117 72 126 63 117 54 126 72 108 54 126 72 108 63 117 54 108 72 126 81 135 72 144 90 126 99 135 90 144 108 126 117 135 108 144 126 126 135 135 126 144 144 126 153 135 144 144 162 126 144 144 162 126 153 135 162 144 144 126 162 144 144 126 126 144 144 126 135 135 144 144 126 126 144 144 126 126 108 144 126 126 117 135 126 144 108 126 126 144 108 126 90 144 108 126 99 135 108 144 90 126 108 144 90 126 72 144 90 126 81 135 90 144 72 126 90 144 72 126 54 108 72 126 90 108 72 126 90 108 81 117 72 108 90 126 72 108 90 126 108 108 90 126 108 108 99 117 90 108 108 126 90 108 108 126 126 108 108 126 126 108 117 117 108 108 126 126 108 108 126 126 144 108 162 90 153 81 144 90 162 72 171 81 162 90 171 99 162 108 180 90 189 99 180 108 189 117 180 126 189 135 180 144 198 126 207 135 198 144 216 126 207 117 198 126 216 108 207 99 198 108 216 90 207 81 198 90 189 81 180 90 198 72 189 63 180 72 171 63 162 72 180 54 198 36 207 45 198 54 207 63 198 72 216 54 225 63 216 72 225 81 216 90 225 99 216 108 225 117 216 126 225 135 216 144 234 126 243 135 234 144 252 126 243 117 234 126 252 108 243 99 234 108 252 90 243 81 234 90 252 72 243 63 234 72 252 54 243 45 234 54 225 45 216 54 234 36 225 27 216 36 207 27 198 36 216 18 198 36 216 18 207 27 198 18 216 36 198 18 216 36 234 18 243 27 234 36 252 18 261 27 252 36 261 45 252 54 261 63 252 72 261 81 252 90 261 99 252 108 261 117 252 126 261 135 252 144 270 126 279 135 270 144 288 126 279 117 270 126 288 108 279 99 270 108 288 90 279 81 270 90 288 72 279 63 270 72 288 54 279 45 270 54 288 36 279 27 270 36 288 18 297 27 288 36 297 45 288 54 297 63 288 72 297 81 288 90 297 99 288 108 297 117 288 126 297 135 288 144 306 126 315 135 306 144 324 126 315 117 306 126 324 108 315 99 306 108 324 90 315 81 306 90 324 72 315 63 306 72 324 54 315 45 306 54 324 36 315 27 306 36 324 18 333 27 324 36 333 45 324 54 333 63 324 72 333 81 324 90 333 99 324 108 333 117 324 126 333 135 324 144 342 126 351 135 342 144 360 126 351 117 342 126 360 108 351 99 342 108 360 90 351 81 342 90 360 72 351 63 342 72 360 54 351 45 342 54 360 36 342 54 360 36 351 45 342 36 360 54 369 63 360 72 369 81 360 90 369 99 360 108 369 117 360 126 369 135 360 144 378 126 387 135 378 144 396 126 387 117 378 126 396 108 387 99 378 108 396 90 387 81 378 90 396 72 378 90 396 72 387 81 378 72 396 90 378 72 396 90 378 108 396 90 387 99 378 90 396 108 405 117 396 126 405 135 396 144 414 126 423 135 414 144 432 126 423 117 414 126 432 108 441 117 432 126 441 135 432 144 450 126 459 135 450 144 468 126 459 117 450 126 468 108 477 117 468 126 486 108 468 126 486 108 477 117 486 126 468 108 486 126 468 108 450 126 468 108 459 117 450 108 468 126 450 108 468 126 450 144 468 126 459 135 468 144 450 126 468 144 450 126 432 144 450 126 441 135 450 144 432 126 450 144 432 126 450 108 432 126 450 108 441 117 450 126 432 108 450 126 432 108 414 126 432 108 423 117 414 108 432 126 414 108 432 126 414 144 432 126 423 135 432 144 414 126 432 144 414 126 396 144 414 126 405 135 414 144 396 126 414 144 396 126 414 108 396 126 414 108 405 117 414 126 396 108 414 126 396 108 378 90 396 108 378 126 396 108 387 117 378 108 396 126 378 108 396 126 378 144 396 126 387 135 396 144 378 126 396 144 378 126 360 144 378 126 369 135 378 144 360 126 378 144 360 126 378 108 360 126 378 108 369 117 378 126 360 108 378 126 360 108 378 90 360 108 378 90 369 99 378 108 360 90 378 108 360 90 378 72 360 90 378 72 369 81 378 90 360 72 378 90 360 72 378 54 360 72 378 54 369 63 378 72 360 54 378 72 360 54 342 36 360 54 342 72 360 54 351 63 342 54 360 72 342 54 360 72 342 90 360 72 351 81 342 72 360 90 342 72 360 90 342 108 360 90 351 99 342 90 360 108 342 90 360 108 342 126 360 108 351 117 342 108 360 126 342 108 360 126 342 144 360 126 351 135 360 144 342 126 360 144 342 126 324 144 342 126 333 135 342 144 324 126 342 144 324 126 342 108 324 126 342 108 333 117 342 126 324 108 342 126 324 108 342 90 324 108 342 90 333 99 342 108 324 90 342 108 324 90 342 72 324 90 342 72 333 81 342 90 324 72 342 90 324 72 342 54 324 72 342 54 333 63 342 72 324 54 342 72 324 54 342 36 324 54 342 36 333 45 342 54 324 36 342 54 324 36 342 18 324 36 342 18 333 27 342 36 324 18 342 36 324 18 306 36 324 18 315 27 306 18 324 36 306 18 324 36 306 54 324 36 315 45 306 36 324 54 306 36 324 54 306 72 324 54 315 63 306 54 324 72 306 54 324 72 306 90 324 72 315 81 306 72 324 90 306 72 324 90 306 108 324 90 315 99 306 90 324 108 306 90 324 108 306 126 324 108 315 117 306 108 324 126 306 108 324 126 306 144 324 126 315 135 324 144 306 126 324 144 306 126 288 144 306 126 297 135 306 144 288 126 306 144 288 126 306 108 288 126 306 108 297 117 306 126 288 108 306 126 288 108 306 90 288 108 306 90 297 99 306 108 288 90 306 108 288 90 306 72 288 90 306 72 297 81 306 90 288 72 306 90 288 72 306 54 288 72 306 54 297 63 306 72 288 54 306 72 288 54 306 36 288 54 306 36 297 45 306 54 288 36 306 54 288 36 306 18 288 36 306 18 297 27 306 36 288 18 306 36 288 18 270 36 288 18 279 27 270 18 288 36 270 18 288 36 270 54 288 36 279 45 270 36 288 54 270 36 288 54 270 72 288 54 279 63 270 54 288 72 270 54 288 72 270 90 288 72 279 81 270 72 288 90 270 72 288 90 270 108 288 90 279 99 270 90 288 108 270 90 288 108 270 126 288 108 279 117 270 108 288 126 270 108 288 126 270 144 288 126 279 135 288 144 270 126 288 144 270 126 252 144 270 126 261 135 270 144 252 126 270 144 252 126 270 108 252 126 270 108 261 117 270 126 252 108 270 126 252 108 270 90 252 108 270 90 261 99 270 108 252 90 270 108 252 90 270 72 252 90 270 72 261 81 270 90 252 72 270 90 252 72 270 54 252 72 270 54 261 63 270 72 252 54 270 72 252 54 270 36 252 54 270 36 261 45 270 54 252 36 270 54 252 36 270 18 252 36 270 18 261 27 270 36 252 18 270 36 252 18 234 36 252 18 243 27 252 36 234 18 252 36 234 18 216 36 234 18 225 27 216 18 234 36 216 18 234 36 216 54 234 36 225 45 216 36 234 54 216 36 234 54 252 36 234 54 252 36 243 45 234 36 252 54 234 36 252 54 234 72 252 54 243 63 234 54 252 72 234 54 252 72 234 90 252 72 243 81 234 72 252 90 234 72 252 90 234 108 252 90 243 99 234 90 252 108 234 90 252 108 234 126 252 108 243 117 234 108 252 126 234 108 252 126 234 144 252 126 243 135 252 144 234 126 252 144 234 126 216 144 234 126 225 135 234 144 216 126 234 144 216 126 234 108 216 126 234 108 225 117 234 126 216 108 234 126 216 108 234 90 216 108 234 90 225 99 234 108 216 90 234 108 216 90 234 72 216 90 234 72 225 81 234 90 216 72 234 90 216 72 234 54 216 72 234 54 225 63 234 72 216 54 234 72 216 54 198 72 216 54 207 63 216 72 198 54 216 72 198 54 216 36 198 54 216 36 207 45 216 54 198 36 216 54 198 36 180 54 198 36 189 45 198 54 180 36 198 54 180 36 189 45 180 54 162 72 180 54 171 63 162 54 180 72 162 54 180 72 198 54 180 72 198 54 189 63 180 54 198 72 180 54 198 72 180 90 198 72 189 81 180 72 198 90 180 72 198 90 216 72 198 90 216 72 207 81 198 72 216 90 198 72 216 90 198 108 216 90 207 99 198 90 216 108 198 90 216 108 198 126 216 108 207 117 198 108 216 126 198 108 216 126 198 144 216 126 207 135 216 144 198 126 216 144 198 126 180 144 198 126 189 135 198 144 180 126 198 144 180 126 198 108 180 126 198 108 189 117 198 126 180 108 198 126 180 108 198 90 180 108 198 90 189 99 198 108 180 90 198 108 180 90 162 108 180 90 171 99 180 108 162 90 180 108 162 90 180 72 162 90 180 72 171 81 180 90 162 72 180 90 162 72 144 90 162 72 153 81 144 72 162 90 144 72 162 90 144 108 162 90 153 99 162 108 144 90 162 108 144 90 153 99 144 108 126 126 144 108 135 117 126 108 144 126 126 108 144 126 162 108 144 126 162 108 153 117 144 108 162 126 144 108 162 126 180 108 162 126 180 108 171 117 162 108 180 126 162 108 180 126 162 144 180 126 171 135 180 144 162 126 180 144 162 126 171 135 162 144 166 140 162 144 " />
    <path id="Block3Jump3"
        fill="none"
        stroke="#ED171F"
		stroke-width="2px"
		d="M 240 276 L 234 270 243 279 234 288 243 297 234 306 225 297 216 306 225 315 216 324 234 306 243 315 234 324 243 333 234 342 252 324 261 333 252 342 270 324 261 315 252 324 270 306 261 297 252 306 270 288 261 279 252 288 270 270 279 279 270 288 279 297 270 306 279 315 270 324 279 333 270 342 288 324 297 333 288 342 306 324 297 315 288 324 306 306 297 297 288 306 306 288 297 279 288 288 306 270 288 288 306 270 297 279 288 270 306 288 315 297 306 306 315 315 306 324 324 306 306 324 324 306 315 315 324 324 306 306 324 324 306 306 324 288 306 306 324 288 315 297 324 306 306 288 324 306 306 288 288 270 306 288 288 306 306 288 297 297 288 288 306 306 288 288 306 306 288 324 306 306 297 315 288 306 306 324 288 306 306 324 288 342 306 324 297 333 306 342 288 324 306 342 288 324 270 342 288 324 279 333 288 342 270 324 288 342 270 324 288 306 270 324 288 306 279 315 288 324 270 306 288 324 270 306 288 288 270 306 288 288 279 297 288 306 270 288 288 306 270 288 288 270 270 288 288 270 279 279 288 288 270 270 288 288 270 270 252 288 270 270 261 279 252 270 270 288 252 270 270 288 252 306 270 288 261 297 252 288 270 306 252 288 270 306 252 324 270 306 261 315 252 306 270 324 252 306 270 324 252 342 270 324 261 333 270 342 252 324 270 342 252 324 234 342 252 324 243 333 252 342 234 324 252 342 234 324 252 306 234 324 252 306 243 315 252 324 234 306 252 324 234 306 216 324 234 306 225 315 234 324 216 306 234 324 216 306 234 288 216 306 234 288 225 297 216 288 234 306 216 288 234 306 252 288 234 306 252 288 243 297 252 306 234 288 252 306 234 288 252 270 234 288 252 270 243 279 252 288 234 270 252 288 234 270 238 274 234 270 " />
    <path id="Block4Jump4"
        fill="none"
        stroke="#F0F0F0"
		stroke-width="2px"
		d="M 192 264 L 198 270 189 261 180 270 198 252 189 243 180 252 198 234 189 225 180 234 198 216 207 225 198 234 216 216 207 207 198 216 216 198 225 207 216 216 225 225 216 234 234 216 216 234 234 216 225 225 234 234 216 216 234 234 216 216 234 198 216 216 234 198 225 207 234 216 216 198 234 216 216 198 198 216 216 198 207 207 198 198 216 216 198 198 216 216 198 234 216 216 207 225 216 234 198 216 216 234 198 216 180 234 198 216 189 225 180 216 198 234 180 216 198 234 180 252 198 234 189 243 180 234 198 252 180 234 198 252 180 270 198 252 189 261 180 252 198 270 180 252 198 270 194 266 198 270 198 324 204 330 198 324 207 333 198 342 207 351 198 360 189 351 180 360 189 369 180 378 189 387 180 396 198 378 207 387 198 396 207 405 198 414 216 396 225 405 216 414 234 396 225 387 216 396 234 378 225 369 216 378 207 369 198 378 216 360 234 342 225 333 216 342 234 324 216 342 234 324 225 333 216 324 234 342 243 351 234 360 243 369 234 378 243 387 234 396 243 405 234 414 243 423 234 432 252 414 261 423 252 432 270 414 261 405 252 414 270 396 261 387 252 396 270 378 261 369 252 378 270 360 261 351 252 360 270 342 279 351 270 360 279 369 270 378 279 387 270 396 279 405 270 414 279 423 270 432 288 414 297 423 288 432 306 414 297 405 288 414 306 396 297 387 288 396 306 378 297 369 288 378 306 360 297 351 288 360 306 342 315 351 306 360 315 369 306 378 315 387 306 396 315 405 306 414 324 396 333 405 324 414 342 396 333 387 324 396 342 378 333 369 324 378 342 360 333 351 324 360 342 342 333 333 324 342 315 333 306 342 324 324 306 342 324 324 315 333 306 324 324 342 306 324 324 342 342 324 324 342 342 324 333 333 324 324 342 342 351 351 342 360 351 369 342 378 351 387 342 396 360 378 342 396 360 378 351 387 360 396 342 378 360 396 342 378 360 360 342 378 360 360 351 369 360 378 342 360 360 378 342 360 360 342 342 360 360 342 351 351 360 360 342 342 360 360 342 342 324 324 342 342 324 360 342 342 333 351 324 342 342 360 324 342 342 360 324 378 342 360 333 369 324 360 342 378 324 360 342 378 324 396 342 378 333 387 324 378 342 396 324 378 342 396 324 414 342 396 333 405 342 414 324 396 342 414 324 396 306 414 324 396 315 405 324 414 306 396 324 414 306 396 324 378 306 396 324 378 315 387 324 396 306 378 324 396 306 378 324 360 306 378 324 360 315 369 324 378 306 360 324 378 306 360 324 342 306 360 324 342 315 351 324 360 306 342 324 360 306 342 288 360 306 342 297 351 288 342 306 360 288 342 306 360 288 378 306 360 297 369 288 360 306 378 288 360 306 378 288 396 306 378 297 387 288 378 306 396 288 378 306 396 288 414 306 396 297 405 288 396 306 414 288 396 306 414 288 432 306 414 297 423 306 432 288 414 306 432 288 414 270 432 288 414 279 423 288 432 270 414 288 432 270 414 288 396 270 414 288 396 279 405 288 414 270 396 288 414 270 396 288 378 270 396 288 378 279 387 288 396 270 378 288 396 270 378 288 360 270 378 288 360 279 369 288 378 270 360 288 378 270 360 288 342 270 360 288 342 279 351 288 360 270 342 288 360 270 342 252 360 270 342 261 351 252 342 270 360 252 342 270 360 252 378 270 360 261 369 252 360 270 378 252 360 270 378 252 396 270 378 261 387 252 378 270 396 252 378 270 396 252 414 270 396 261 405 252 396 270 414 252 396 270 414 252 432 270 414 261 423 270 432 252 414 270 432 252 414 234 432 252 414 243 423 252 432 234 414 252 432 234 414 252 396 234 414 252 396 243 405 252 414 234 396 252 414 234 396 252 378 234 396 252 378 243 387 252 396 234 378 252 396 234 378 252 360 234 378 252 360 243 369 252 378 234 360 252 378 234 360 252 342 234 360 252 342 243 351 252 360 234 342 252 360 234 342 216 324 234 342 216 360 234 342 225 351 234 360 216 342 234 360 216 342 225 351 216 360 198 378 216 360 207 369 198 360 216 378 198 360 216 378 234 360 216 378 234 360 225 369 216 360 234 378 216 360 234 378 216 396 234 378 225 387 216 378 234 396 216 378 234 396 216 414 234 396 225 405 234 414 216 396 234 414 216 396 198 414 216 396 207 405 216 414 198 396 216 414 198 396 216 378 198 396 216 378 207 387 216 396 198 378 216 396 198 378 180 396 198 378 189 387 198 396 180 378 198 396 180 378 198 360 180 378 198 360 189 369 198 378 180 360 198 378 180 360 198 342 180 360 198 342 189 351 180 342 198 360 180 342 198 360 216 342 198 360 216 342 207 351 216 360 198 342 216 360 198 342 216 324 198 342 216 324 207 333 216 342 198 324 216 342 198 324 202 328 198 324 "/>
    <path id="Block4Jump5"
        fill="none"
        stroke="#F0F0F0"
		stroke-width="2px"
		d="M 312 228 L 306 234 324 216 315 207 306 216 324 198 333 207 324 216 333 225 324 234 342 216 351 225 342 234 351 243 342 252 351 261 342 270 360 252 342 270 360 252 351 261 360 270 342 252 360 270 342 252 360 234 342 252 360 234 351 243 360 252 342 234 360 252 342 234 360 216 342 234 360 216 351 225 360 234 342 216 360 234 342 216 324 234 342 216 333 225 342 234 324 216 342 234 324 216 342 198 324 216 342 198 333 207 342 216 324 198 342 216 324 198 306 216 324 198 315 207 306 198 324 216 306 198 324 216 306 234 324 216 315 225 324 234 306 216 324 234 306 216 315 225 306 234 310 230 306 234 " />
    <path id="Block5Jump6"
        fill="none"
        stroke="#000000"
		stroke-width="2px"
		d="M 306 234 L 315 243 306 252 315 261 306 270 324 252 333 261 324 270 342 252 333 243 324 252 342 234 324 252 342 234 333 243 324 234 342 252 324 234 342 252 324 270 342 252 333 261 342 270 324 252 342 270 324 252 306 270 324 252 315 261 324 270 306 252 324 270 306 252 324 234 306 252 324 234 315 243 324 252 306 234 324 252 306 234 310 238 306 234 "/>
    <path id="Block5Jump7"
        fill="none"
        stroke="#000000"
		stroke-width="2px"
		d="M 228 240 L 234 234 216 252 207 243 198 252 207 261 198 270 216 252 225 261 216 270 234 252 216 270 234 252 225 261 234 270 216 252 234 270 216 252 198 270 216 252 207 261 216 270 198 252 216 270 198 252 216 234 198 252 216 234 207 243 198 234 216 252 198 234 216 252 234 234 216 252 225 243 234 252 216 234 234 252 216 234 225 243 234 234 230 238 234 234 270 270 278 270 270 270 288 270 306 270 324 270 342 270 360 270 378 270 360 270 360 252 360 234 360 216 342 216 342 198 324 198 306 198 306 216 306 234 324 234 342 234 342 252 342 270 342 252 342 234 324 234 306 234 306 252 306 270 306 288 324 288 324 306 324 324 342 324 342 342 360 342 360 360 360 378 360 396 342 396 342 414 324 414 306 414 306 432 288 432 270 432 252 432 234 432 234 414 216 414 198 414 198 396 180 396 180 378 180 360 180 342 198 342 198 324 216 324 234 324 234 342 252 342 270 342 288 342 306 342 324 360 324 378 324 360 306 378 288 396 270 396 252 396 234 378 216 360 216 378 216 360 234 342 216 360 234 378 252 396 270 396 288 396 306 378 324 360 306 342 306 324 324 324 306 324 306 342 288 342 270 342 252 342 234 342 234 324 216 324 216 306 216 288 234 288 234 270 252 270 270 270 252 270 234 270 216 270 198 270 180 270 162 270 180 270 180 252 180 234 180 216 198 216 198 198 216 198 234 198 234 216 234 234 234 252 234 270 234 252 234 234 216 234 198 234 198 252 198 270 198 252 198 234 216 234 234 234 234 216 234 198 216 198 198 198 198 216 180 216 180 234 180 252 180 270 162 252 180 270 198 270 216 270 234 270 234 288 216 288 216 306 216 324 198 324 198 342 180 342 180 360 180 378 180 396 198 396 198 414 216 414 234 414 234 432 252 432 270 432 288 432 306 432 306 414 324 414 342 414 342 396 360 396 360 378 360 360 360 342 342 342 342 324 324 324 324 306 324 288 306 288 306 270 306 252 306 234 306 216 306 198 324 198 342 198 342 216 360 216 360 234 360 252 360 270 378 252 360 270 342 270 324 270 306 270 288 270 270 270 265 270 270 270 "/>
    <path id="Block5Jump8"
        fill="none"
        stroke="#000000"
		stroke-width="2px"
		d="M 278 144 L 270 144 288 144 306 144 324 144 342 144 360 144 378 144 396 144 414 144 432 144 450 144 468 144 468 126 486 126 486 108 468 108 450 108 432 108 414 108 396 108 378 108 360 108 342 108 324 108 306 108 288 108 270 108 252 108 234 108 216 108 198 108 180 108 162 108 144 108 126 108 108 108 90 108 72 108 54 108 54 126 72 126 72 144 90 144 108 144 126 144 144 144 162 144 180 144 198 144 216 144 234 144 252 144 270 144 252 144 234 144 216 144 198 144 180 144 180 162 162 162 144 162 144 180 126 180 126 198 126 216 126 234 126 252 126 270 108 270 108 288 108 306 108 324 90 324 90 342 72 342 72 360 72 378 54 378 54 360 36 360 36 342 36 324 36 306 18 306 18 288 18 270 18 252 18 234 18 216 36 216 36 198 54 198 54 180 72 180 72 162 90 162 90 144 90 162 72 162 72 180 54 180 54 198 36 198 36 216 18 216 18 234 18 252 18 270 18 288 18 306 36 306 36 324 36 342 36 360 54 360 54 378 72 378 72 360 72 342 90 342 90 324 108 324 108 306 108 288 108 270 126 270 126 252 126 234 126 216 126 198 126 180 144 180 144 162 162 162 180 162 180 144 162 144 144 144 126 144 108 144 90 144 72 144 72 126 54 126 54 108 72 108 90 108 108 108 126 108 144 108 144 90 144 72 162 72 162 54 180 54 180 36 198 36 198 18 216 18 234 18 252 18 270 18 288 18 306 18 324 18 342 18 342 36 360 36 360 54 378 54 378 72 396 72 396 90 396 108 396 90 396 72 378 72 378 54 360 54 360 36 342 36 342 18 324 18 306 18 288 18 270 18 252 18 234 18 216 18 198 18 198 36 180 36 180 54 162 54 162 72 144 72 144 90 144 108 162 108 180 108 198 108 216 108 234 108 252 108 270 108 288 108 306 108 324 108 342 108 360 108 378 108 396 108 414 108 432 108 450 108 468 108 486 108 486 126 468 126 468 144 450 144 450 162 468 162 468 180 486 180 486 198 504 198 504 216 522 216 522 234 522 252 522 270 522 288 522 306 522 324 504 324 504 342 504 360 486 360 486 378 468 378 468 360 468 342 450 342 450 324 432 324 432 306 432 288 432 270 414 270 414 252 414 234 414 216 414 198 414 180 396 180 396 162 378 162 360 162 360 144 360 162 378 162 396 162 396 180 414 180 414 198 414 216 414 234 414 252 414 270 432 270 432 288 432 306 432 324 450 324 450 342 468 342 468 360 468 378 486 378 486 360 504 360 504 342 504 324 522 324 522 306 522 288 522 270 522 252 522 234 522 216 504 216 504 198 486 198 486 180 468 180 468 162 450 162 450 144 432 144 414 144 396 144 378 144 360 144 342 144 324 144 306 144 288 144 270 144 265 144 270 144 " />
    <path id="Block6Jump9"
        fill="none"
        stroke="#0B3D91"
		stroke-width="2px"
		d="M 444 438 L 450 432 432 450 414 468 396 486 378 486 360 504 378 522 378 540 396 558 396 576 414 594 414 612 396 612 378 612 360 612 342 612 324 612 306 612 288 612 270 612 252 612 234 612 216 612 198 612 180 612 162 612 144 612 126 612 126 594 144 576 144 558 162 540 162 522 180 504 162 486 144 486 126 468 108 450 90 432 72 414 90 432 108 450 126 468 144 486 162 486 180 504 162 522 162 540 144 558 144 576 126 594 126 612 144 612 162 612 180 612 198 612 216 612 234 612 252 612 270 612 288 612 306 612 324 612 342 612 360 612 378 612 396 612 414 612 414 594 396 576 396 558 378 540 378 522 360 504 378 486 396 486 414 468 432 450 450 432 468 414 450 432 454 428 450 432 " />
    <path id="Block7Jump10"
        fill="none"
        stroke="#4E2990"
		stroke-width="2px"
		d="M 476 396 L 468 396 486 396 504 378 522 360 522 342 540 324 540 306 540 288 540 270 540 252 540 234 540 216 522 198 504 180 486 162 486 144 504 126 504 108 486 90 468 90 450 90 432 90 414 72 396 54 378 36 360 18 342 0 324 0 306 0 288 0 270 0 252 0 234 0 216 0 198 0 180 18 162 36 144 54 126 72 108 90 90 90 72 90 54 90 36 108 36 126 54 144 54 162 36 180 18 198 0 216 0 234 0 252 0 270 0 288 0 306 18 324 18 342 18 360 36 378 54 396 72 396 72 414 72 396 54 396 36 378 18 360 18 342 18 324 0 306 0 288 0 270 0 252 0 234 0 216 18 198 36 180 54 162 54 144 36 126 36 108 54 90 72 90 90 90 108 90 126 72 144 54 162 36 180 18 198 0 216 0 234 0 252 0 270 0 288 0 306 0 324 0 342 0 360 18 378 36 396 54 414 72 432 90 450 90 468 90 486 90 504 108 504 126 486 144 486 162 504 180 522 198 540 216 540 234 540 252 540 270 540 288 540 306 540 324 522 342 522 360 504 378 486 396 468 396 468 414 468 396 468 391 468 396 " />
</svg>
