<?xml version="1.0" encoding="UTF-8" standalone="no"?>
<svg xmlns="http://www.w3.org/2000/svg" version="1.1" width="980" height="1204">
    <path id="Block1Jump0"
        fill="none"
        stroke="#2F7E20"
		stroke-width="2px"
		d="M 239 257 L 239 257 227 256 239 257 182 255 233 264 237 320 226 271 183 266 218 277 213 335 210 283 153 266 201 288 185 345 192 293 131 260 183 296 160 350 173 300 125 267 164 302 128 339 154 304 121 280 144 305 114 332 134 306 104 277 123 306 67 354 113 306 76 261 103 305 64 327 93 305 55 281 83 303 54 309 74 302 90 304 107 305 122 305 139 305 155 303 170 300 185 296 199 290 212 283 223 274 233 264 249 261 266 258 283 255 300 251 316 247 332 243 348 238 365 233 381 228 397 222 412 216 427 209 442 202 457 193 471 185 484 175 533 144 487 167 459 119 490 158 "/>
    <path id="Block1Jump1"
        fill="none"
        stroke="#2F7E20"
		stroke-width="2px"
		d="M 493 149 L 471 116 495 140 542 93 496 130 460 84 498 120 553 63 498 110 438 63 498 101 529 69 497 91 451 58 496 82 528 33 494 72 458 52 492 62 526 0 488 54 435 33 485 45 488 0 480 36 459 14 476 28 484 41 491 56 495 71 498 86 499 101 499 117 497 133 493 148 488 164 483 179 499 185 513 191 529 198 544 203 560 209 575 215 590 220 606 225 622 230 638 234 654 238 669 241 685 244 702 246 717 248 733 248 748 247 763 244 793 293 772 246 809 224 782 248 810 307 791 250 853 219 800 253 815 292 809 257 849 243 818 261 827 317 826 266 "/>
    <path id="Block1Jump2"
        fill="none"
        stroke="#2F7E20"
		stroke-width="2px"
		d="M 834 271 L 837 311 842 278 "/>
    <path id="Block1Jump3"
        fill="none"
        stroke="#2F7E20"
		stroke-width="2px"
		d="M 849 285 L "/>
    <path id="Block1Jump4"
        fill="none"
        stroke="#2F7E20"
		stroke-width="2px"
		d="M 855 292 L 888 299 861 300 853 335 865 309 "/>
    <path id="Block1Jump5"
        fill="none"
        stroke="#2F7E20"
		stroke-width="2px"
		d="M 870 317 L 860 350 874 326 896 336 877 335 873 365 880 344 894 363 882 354 877 339 872 325 866 312 858 299 850 288 840 277 829 268 817 260 805 255 792 251 778 248 764 247 752 257 739 266 726 275 712 284 699 292 686 300 672 308 658 314 644 320 629 325 614 329 600 331 586 333 532 384 587 342 633 374 588 351 566 378 589 360 636 392 590 370 542 424 592 379 "/>
    <path id="Block1Jump7"
        fill="none"
        stroke="#2F7E20"
		stroke-width="2px"
		d="M 571 422 L 595 397 625 418 597 406 "/>
    <path id="Block1Jump9"
        fill="none"
        stroke="#2F7E20"
		stroke-width="2px"
		d="M 651 441 L 602 424 571 485 605 433 "/>
    <path id="Block1Jump11"
        fill="none"
        stroke="#2F7E20"
		stroke-width="2px"
		d="M 595 473 L 612 451 666 470 616 460 "/>
    <path id="Block1Jump12"
        fill="none"
        stroke="#2F7E20"
		stroke-width="2px"
		d="M 620 468 L 675 483 624 477 613 514 630 485 "/>
    <path id="Block1Jump13"
        fill="none"
        stroke="#2F7E20"
		stroke-width="2px"
		d="M 635 493 L 630 534 640 500 696 502 646 507 "/>
    <path id="Block1Jump15"
        fill="none"
        stroke="#2F7E20"
		stroke-width="2px"
		d="M 696 528 L 659 520 679 546 667 526 722 516 674 532 662 522 651 511 640 499 631 486 623 473 615 459 609 444 603 429 599 413 595 398 592 382 590 366 588 350 587 334 603 334 618 336 633 339 647 344 660 351 673 359 685 368 696 379 706 390 714 402 722 416 730 429 736 443 742 458 747 473 752 488 756 503 760 519 704 542 756 527 787 589 752 535 "/>
    <path id="Block1Jump16"
        fill="none"
        stroke="#2F7E20"
		stroke-width="2px"
		d="M 749 545 L 768 585 745 554 707 574 743 563 773 611 740 572 691 601 738 582 773 627 736 591 690 627 735 601 774 645 734 611 711 638 734 620 777 658 734 630 684 683 735 640 795 676 736 650 711 683 738 659 773 680 740 668 699 719 743 677 803 703 746 687 713 746 750 696 788 712 753 705 741 744 758 713 818 723 762 722 "/>
    <path id="Block1Jump17"
        fill="none"
        stroke="#2F7E20"
		stroke-width="2px"
		d="M 767 730 L 824 739 772 738 766 774 778 746 836 753 784 754 775 809 790 761 846 762 796 768 786 755 776 742 768 729 760 715 753 701 746 686 742 671 738 655 735 640 734 625 734 609 736 593 739 577 742 561 747 547 753 532 760 518 776 518 792 518 808 517 824 517 841 517 857 517 873 516 889 517 876 572 894 524 951 531 900 532 878 586 904 541 959 559 908 550 889 587 911 560 962 591 913 571 864 626 914 581 941 605 914 591 883 619 913 601 964 651 912 611 "/>
    <path id="Block1Jump19"
        fill="none"
        stroke="#2F7E20"
		stroke-width="2px"
		d="M 933 653 L 908 630 870 653 905 640 946 700 901 650 847 670 898 659 917 705 894 668 851 681 889 677 "/>
    <path id="Block1Jump20"
        fill="none"
        stroke="#2F7E20"
		stroke-width="2px"
		d="M 885 686 L "/>
    <path id="Block1Jump22"
        fill="none"
        stroke="#2F7E20"
		stroke-width="2px"
		d="M 893 726 L 876 703 834 744 876 713 919 752 876 723 840 770 878 733 936 773 879 744 854 784 881 754 912 775 883 763 846 824 886 773 "/>
    <path id="Block1Jump23"
        fill="none"
        stroke="#2F7E20"
		stroke-width="2px"
		d="M 889 783 L 872 817 892 792 918 810 895 802 869 856 898 812 "/>
    <path id="Block1Jump24"
        fill="none"
        stroke="#2F7E20"
		stroke-width="2px"
		d="M 902 822 L 889 855 905 831 929 849 909 840 911 880 912 849 930 871 916 858 909 843 903 827 897 812 891 796 887 780 882 764 879 748 877 732 876 717 877 702 885 689 892 674 899 659 904 644 909 628 912 613 914 597 914 581 912 566 908 551 903 537 896 524 884 528 873 535 863 544 855 555 847 566 840 578 833 591 828 605 787 661 830 614 890 646 831 623 807 652 832 633 861 655 833 643 777 689 833 652 863 678 833 662 799 687 832 671 881 718 831 681 782 712 829 690 864 737 828 700 791 721 825 709 857 757 823 719 771 741 820 728 848 777 817 737 "/>
    <path id="Block1Jump25"
        fill="none"
        stroke="#2F7E20"
		stroke-width="2px"
		d="M 813 746 L 826 779 810 755 773 766 806 764 819 803 802 773 764 784 797 781 830 825 793 790 "/>
    <path id="Block1Jump26"
        fill="none"
        stroke="#2F7E20"
		stroke-width="2px"
		d="M 790 799 L 801 827 786 808 751 828 784 817 827 855 782 826 745 853 780 836 818 881 779 846 729 893 779 855 822 893 779 865 756 892 781 874 809 899 782 884 752 916 784 893 837 918 786 903 765 937 790 912 "/>
    <path id="Block1Jump28"
        fill="none"
        stroke="#2F7E20"
		stroke-width="2px"
		d="M 779 956 L 797 930 851 947 800 938 791 977 805 947 833 959 810 956 815 988 815 964 836 982 820 972 812 959 804 944 798 931 792 917 787 902 783 887 781 872 779 857 780 841 781 827 784 812 788 798 795 783 801 771 791 762 781 752 773 742 765 731 759 719 753 706 747 694 708 694 740 700 743 757 734 707 "/>
    <path id="Block1Jump30"
        fill="none"
        stroke="#2F7E20"
		stroke-width="2px"
		d="M 731 751 L 721 721 665 736 715 729 721 770 709 737 "/>
    <path id="Block1Jump31"
        fill="none"
        stroke="#2F7E20"
		stroke-width="2px"
		d="M 704 745 L "/>
    <path id="Block1Jump32"
        fill="none"
        stroke="#2F7E20"
		stroke-width="2px"
		d="M 699 753 L 662 762 694 762 712 817 689 771 648 782 685 779 708 831 681 788 650 808 678 797 697 832 674 807 612 833 672 816 717 873 669 825 634 850 667 835 691 867 666 845 619 877 664 854 689 881 663 863 619 901 663 873 712 909 662 883 620 922 662 893 692 922 663 902 635 937 663 912 717 942 664 922 635 957 665 932 701 960 666 941 629 982 668 951 717 983 670 961 637 1007 672 970 722 998 674 979 653 1017 677 989 728 1017 679 999 639 1043 682 1008 734 1032 685 1017 665 1053 688 1026 730 1047 692 1036 665 1086 695 1045 734 1066 698 1054 695 1094 702 1063 720 1080 706 1072 700 1058 693 1042 688 1028 683 1012 679 997 674 981 671 966 668 951 666 934 664 919 663 902 663 887 662 870 663 856 624 868 659 865 682 915 656 874 620 889 652 883 672 936 647 892 "/>
    <path id="Block1Jump34"
        fill="none"
        stroke="#2F7E20"
		stroke-width="2px"
		d="M 661 954 L 639 910 605 920 634 918 643 956 629 927 587 938 623 936 "/>
    <path id="Block1Jump35"
        fill="none"
        stroke="#2F7E20"
		stroke-width="2px"
		d="M 618 944 L "/>
    <path id="Block1Jump36"
        fill="none"
        stroke="#2F7E20"
		stroke-width="2px"
		d="M 612 952 L 619 993 606 960 549 963 599 967 "/>
    <path id="Block1Jump38"
        fill="none"
        stroke="#2F7E20"
		stroke-width="2px"
		d="M 536 972 L 585 981 586 1016 577 988 522 979 569 994 572 1056 561 1000 503 973 552 1005 "/>
    <path id="Block1Jump40"
        fill="none"
        stroke="#2F7E20"
		stroke-width="2px"
		d="M 485 979 L 534 1013 521 1045 525 1016 477 986 515 1019 494 1053 505 1021 462 985 496 1022 459 1065 486 1023 448 981 476 1022 435 1061 466 1022 463 1006 460 989 455 973 451 958 445 942 439 927 432 912 424 898 416 884 406 871 397 858 386 846 375 835 363 824 350 814 337 805 324 796 310 789 296 781 282 775 293 820 290 780 "/>
    <path id="Block1Jump41"
        fill="none"
        stroke="#2F7E20"
		stroke-width="2px"
		d="M 299 784 L "/>
    <path id="Block1Jump42"
        fill="none"
        stroke="#2F7E20"
		stroke-width="2px"
		d="M 307 789 L "/>
    <path id="Block1Jump43"
        fill="none"
        stroke="#2F7E20"
		stroke-width="2px"
		d="M 316 794 L 328 849 325 799 362 790 333 805 341 859 341 810 400 809 349 816 355 872 356 822 "/>
    <path id="Block1Jump45"
        fill="none"
        stroke="#2F7E20"
		stroke-width="2px"
		d="M 368 885 L 372 835 "/>
    <path id="Block1Jump47"
        fill="none"
        stroke="#2F7E20"
		stroke-width="2px"
		d="M 383 882 L 386 849 446 859 393 856 "/>
    <path id="Block1Jump48"
        fill="none"
        stroke="#2F7E20"
		stroke-width="2px"
		d="M 400 863 L 456 868 406 871 402 910 412 879 444 886 418 887 393 949 423 896 478 910 428 904 416 941 432 913 464 921 436 921 404 977 440 931 502 954 444 940 428 978 447 950 496 977 449 959 408 1011 451 969 498 1000 453 979 432 1014 454 989 499 1024 456 999 433 1031 456 1009 498 1047 456 1019 405 1046 456 1029 480 1061 456 1039 412 1073 455 1048 474 1074 454 1058 424 1083 452 1068 473 1101 451 1077 404 1108 449 1087 490 1123 447 1097 398 1125 444 1106 459 1142 442 1116 431 1119 420 1118 409 1114 399 1106 389 1095 380 1084 372 1071 364 1058 357 1043 350 1029 343 1014 339 999 336 983 334 967 333 951 334 935 336 919 339 905 343 890 350 876 357 862 366 849 375 839 321 846 370 847 380 901 364 854 310 866 359 862 "/>
    <path id="Block1Jump49"
        fill="none"
        stroke="#2F7E20"
		stroke-width="2px"
		d="M 355 871 L 318 887 350 880 360 916 346 889 283 920 343 898 "/>
    <path id="Block1Jump50"
        fill="none"
        stroke="#2F7E20"
		stroke-width="2px"
		d="M 339 907 L 313 928 337 917 367 965 335 927 291 961 334 936 359 972 333 946 282 997 333 956 384 999 333 966 312 994 335 976 365 1002 336 986 297 1041 338 995 "/>
    <path id="Block1Jump51"
        fill="none"
        stroke="#2F7E20"
		stroke-width="2px"
		d="M 341 1005 L 326 1033 344 1014 394 1036 347 1023 "/>
    <path id="Block1Jump52"
        fill="none"
        stroke="#2F7E20"
		stroke-width="2px"
		d="M 351 1032 L 404 1052 356 1041 344 1084 360 1050 415 1065 365 1058 359 1099 370 1066 411 1078 376 1074 "/>
    <path id="Block1Jump55"
        fill="none"
        stroke="#2F7E20"
		stroke-width="2px"
		d="M 387 1091 L 386 1135 394 1098 450 1104 400 1106 "/>
    <path id="Block1Jump56"
        fill="none"
        stroke="#2F7E20"
		stroke-width="2px"
		d="M 406 1113 L 462 1115 413 1121 425 1161 421 1125 "/>
    <path id="Block1Jump57"
        fill="none"
        stroke="#2F7E20"
		stroke-width="2px"
		d="M 430 1129 L "/>
    <path id="Block1Jump59"
        fill="none"
        stroke="#2F7E20"
		stroke-width="2px"
		d="M 480 1120 L 448 1137 472 1177 458 1141 508 1116 467 1144 506 1202 477 1146 534 1108 486 1149 512 1179 496 1150 539 1117 505 1152 543 1194 515 1152 546 1128 525 1153 578 1204 535 1152 583 1095 545 1152 578 1178 555 1151 584 1119 565 1149 599 1169 574 1147 604 1114 583 1145 627 1142 593 1141 622 1123 602 1138 587 1143 571 1147 555 1150 539 1152 523 1153 506 1152 491 1150 475 1146 460 1142 445 1136 430 1129 417 1121 403 1112 393 1100 383 1087 373 1073 364 1059 356 1045 349 1030 344 1015 339 1000 336 984 334 968 333 952 334 936 337 919 340 904 345 889 343 884 339 881 333 878 284 849 324 881 "/>
    <path id="Block1Jump61"
        fill="none"
        stroke="#2F7E20"
		stroke-width="2px"
		d="M 262 859 L 306 888 290 920 296 891 243 872 288 896 285 954 280 900 222 890 272 906 "/>
    <path id="Block1Jump62"
        fill="none"
        stroke="#2F7E20"
		stroke-width="2px"
		d="M 264 912 L 205 914 257 920 262 978 250 927 195 940 246 936 259 972 241 944 190 971 239 953 269 1003 236 963 191 1001 235 973 292 1023 235 983 209 1020 236 993 263 1022 237 1003 194 1055 240 1013 302 1048 242 1022 214 1072 245 1031 273 1051 248 1040 249 1079 252 1049 271 1075 256 1058 249 1044 242 1029 238 1014 235 999 234 984 235 969 238 953 242 939 227 944 213 948 203 947 199 945 206 931 212 917 216 901 220 886 222 870 224 854 224 838 224 821 223 805 221 789 219 772 216 755 212 739 208 723 204 707 199 691 194 676 189 660 183 644 177 629 171 615 "/>
    <path id="Block1Jump63"
        fill="none"
        stroke="#2F7E20"
		stroke-width="2px"
		d="M 175 624 L 229 643 179 633 163 663 182 642 236 664 186 651 "/>
    <path id="Block1Jump64"
        fill="none"
        stroke="#2F7E20"
		stroke-width="2px"
		d="M 189 661 L 242 684 192 670 175 706 196 680 248 704 199 689 165 731 202 699 234 715 205 709 174 759 207 719 269 743 210 729 177 777 212 738 246 756 214 748 180 795 216 758 266 789 218 768 182 813 220 778 267 811 221 787 183 831 222 797 278 842 223 807 182 849 224 817 253 847 224 827 195 856 224 837 275 888 224 847 178 884 223 857 241 885 222 867 192 892 220 877 256 923 219 887 167 917 216 897 246 948 213 907 178 927 210 917 236 969 206 926 "/>
    <path id="Block1Jump66"
        fill="none"
        stroke="#2F7E20"
		stroke-width="2px"
		d="M 222 990 L 197 944 155 965 192 952 196 978 187 961 153 986 180 968 169 1009 174 976 184 964 193 951 201 938 207 925 213 910 218 896 221 880 223 866 223 851 223 835 221 820 235 812 248 803 260 793 271 782 280 770 288 758 294 744 299 730 303 715 306 700 308 684 308 669 308 653 307 637 305 621 303 605 299 589 296 575 262 621 298 584 347 613 300 594 264 638 302 603 350 633 303 612 276 648 304 622 352 657 306 632 252 684 306 642 362 696 307 652 279 681 307 662 360 717 307 672 263 708 307 682 333 713 306 691 270 718 305 701 351 758 303 711 244 734 301 721 326 757 299 730 245 753 295 740 321 792 292 749 236 762 287 757 306 811 283 766 245 775 277 774 "/>
    <path id="Block1Jump67"
        fill="none"
        stroke="#2F7E20"
		stroke-width="2px"
		d="M 271 782 L 212 780 264 789 266 825 256 796 201 784 249 801 "/>
    <path id="Block1Jump68"
        fill="none"
        stroke="#2F7E20"
		stroke-width="2px"
		d="M 241 807 L 186 789 232 812 218 868 224 817 171 792 214 820 193 875 205 824 155 794 195 827 166 869 186 830 140 796 176 832 132 894 167 833 123 796 158 835 114 866 148 836 135 832 124 826 116 818 110 808 105 795 102 782 100 767 100 752 101 736 102 720 105 704 109 687 115 672 121 658 129 645 137 635 "/>
    <path id="Block1Jump69"
        fill="none"
        stroke="#2F7E20"
		stroke-width="2px"
		d="M 132 642 L 150 680 127 649 88 659 122 657 140 711 117 666 "/>
    <path id="Block1Jump71"
        fill="none"
        stroke="#2F7E20"
		stroke-width="2px"
		d="M 130 708 L 110 682 70 703 108 692 125 721 105 701 57 732 104 710 155 760 102 719 71 746 102 728 142 767 101 737 49 782 101 747 145 784 102 756 79 783 103 766 148 800 103 775 67 819 105 785 136 804 106 794 59 851 108 803 158 832 110 813 88 848 112 821 144 843 115 830 109 874 117 839 134 864 120 848 115 832 110 817 106 802 103 786 101 770 100 753 100 738 102 722 105 707 109 691 114 677 121 663 128 649 137 636 143 621 148 606 154 590 160 575 166 559 173 545 180 530 187 515 195 500 203 487 212 473 221 459 231 446 241 434 252 423 263 412 275 401 288 392 300 383 314 376 328 369 343 363 357 359 373 356 388 355 347 394 388 365 413 386 389 374 344 410 388 383 440 430 388 393 340 427 386 403 407 430 385 413 346 439 382 423 430 483 380 432 316 465 377 441 395 500 374 450 "/>
    <path id="Block1Jump73"
        fill="none"
        stroke="#2F7E20"
		stroke-width="2px"
		d="M 404 508 L 367 469 323 485 362 478 376 512 358 487 "/>
    <path id="Block1Jump75"
        fill="none"
        stroke="#2F7E20"
		stroke-width="2px"
		d="M 371 536 L 348 504 291 511 342 512 373 556 337 520 279 525 331 528 345 573 325 535 266 538 318 543 324 601 312 551 255 549 305 558 310 614 299 565 240 562 292 571 293 630 284 578 226 574 277 585 276 644 270 592 213 584 262 598 261 655 255 604 199 595 248 610 244 667 240 616 241 628 240 616 240 616 " />
    <path id="Block2Jump76"
        fill="none"
        stroke="#003822"
		stroke-width="2px"
		d="M 264 459 L 264 459 256 468 264 459 230 496 265 468 294 482 266 476 235 518 267 485 310 514 269 494 242 538 271 502 316 528 273 511 250 558 276 520 324 541 279 528 260 577 283 536 332 553 287 544 272 594 291 552 342 566 296 560 285 611 301 568 352 577 306 575 298 627 311 583 363 589 317 590 312 642 323 597 375 599 329 603 "/>
    <path id="Block2Jump77"
        fill="none"
        stroke="#003822"
		stroke-width="2px"
		d="M 335 610 L 360 612 341 616 352 656 348 623 386 627 355 629 378 670 361 634 393 654 368 640 356 629 344 618 332 607 322 595 312 582 302 569 294 555 286 541 279 527 273 512 268 497 264 482 261 465 258 449 261 434 264 419 266 403 266 387 265 371 262 355 259 340 254 324 249 309 243 294 235 280 227 266 204 227 218 264 164 295 209 262 185 209 201 259 168 280 192 257 170 226 183 255 137 283 174 253 141 199 164 251 110 279 155 248 130 216 146 246 106 265 138 244 106 224 129 242 97 249 120 240 137 244 152 248 168 252 185 256 201 260 216 265 232 269 247 274 263 272 279 270 296 268 312 265 327 262 343 258 359 253 375 248 389 242 404 235 418 228 430 219 443 210 454 200 464 188 473 177 480 163 501 117 476 155 419 141 473 147 497 87 469 139 442 128 466 131 486 83 462 123 400 104 459 114 473 84 455 106 413 87 451 97 471 49 448 89 399 70 444 80 459 48 440 72 381 37 437 64 438 29 433 56 410 34 430 48 437 64 443 79 450 95 456 110 462 126 467 142 473 158 478 174 483 190 488 206 492 222 506 229 520 236 534 244 547 253 560 262 572 272 585 283 596 294 606 305 617 317 627 330 637 342 645 355 654 369 663 383 670 397 642 442 672 406 717 434 674 415 645 460 676 425 720 456 678 434 647 478 679 444 722 477 681 454 648 498 682 464 723 501 683 474 648 515 683 484 723 521 684 499 647 533 684 503 722 542 684 513 645 550 684 523 719 563 683 533 642 568 682 542 716 585 681 552 653 577 680 562 698 587 678 572 615 617 676 582 705 627 675 591 641 628 672 601 708 657 670 610 642 656 667 619 673 659 664 628 671 638 664 628 664 628 " />
    <path id="Block3Jump78"
        fill="none"
        stroke="#ED171F"
		stroke-width="2px"
		d="M 520 176 L 520 176 526 179 520 176 526 179 520 176 526 179 541 193 554 209 563 211 581 201 599 188 614 173 627 157 638 139 647 120 654 100 654 79 649 72 639 67 623 67 602 73 584 82 568 94 554 109 542 126 533 145 524 169 551 165 567 163 564 189 561 214 560 220 576 200 592 181 609 162 625 143 641 124 659 102 644 83 627 62 611 81 595 100 579 119 563 138 547 158 531 177 525 184 549 172 571 160 586 145 601 127 613 109 625 110 649 116 655 118 639 99 623 80 588 77 566 90 582 109 598 128 614 147 610 182 592 199 576 180 560 161 544 142 534 130 558 144 562 152 574 129 594 111 612 101 631 91 644 70 650 57 668 81 650 59 643 54 654 68 669 89 658 77 636 53 663 86 668 95 643 65 629 53 647 74 667 102 651 83 624 53 631 61 656 92 666 107 662 102 636 71 618 55 640 80 665 113 645 89 619 58 614 56 624 67 649 98 663 119 654 108 628 77 608 57 633 86 658 116 662 124 638 95 612 64 603 58 616 74 642 104 659 128 647 114 622 83 599 59 626 91 652 122 658 133 631 100 605 70 594 62 609 79 635 110 655 137 640 120 615 89 591 63 619 97 645 128 653 142 649 137 623 107 597 76 586 65 602 85 628 116 651 146 633 125 608 95 581 68 586 73 611 104 637 134 648 151 642 143 616 113 590 82 577 69 595 91 621 122 646 154 627 131 601 101 574 73 579 79 604 109 630 140 643 158 635 149 609 118 584 88 570 74 588 97 614 127 640 163 619 138 593 107 566 78 572 85 597 115 623 146 638 166 628 155 602 124 577 93 562 81 581 103 607 134 632 164 635 170 612 143 586 113 559 83 565 90 591 121 616 152 632 174 621 161 595 130 570 99 555 87 574 109 600 140 625 170 629 178 605 149 579 119 553 90 558 96 584 127 609 157 625 181 614 167 588 136 562 106 549 93 567 115 593 145 618 176 623 184 598 155 573 124 546 97 550 103 576 133 602 164 619 187 607 173 581 142 555 111 543 101 560 120 586 151 612 182 616 191 591 161 566 130 540 105 569 139 595 170 613 194 600 179 574 148 548 117 538 108 553 126 579 157 605 188 609 197 584 167 558 137 535 112 562 145 588 175 606 200 593 184 567 154 541 123 532 117 546 133 571 163 597 194 602 203 577 173 551 142 530 120 555 151 581 181 599 205 586 190 560 159 535 129 527 125 539 138 564 169 590 200 595 209 570 179 544 148 525 129 548 156 574 187 591 211 578 197 553 166 523 134 532 144 557 175 583 206 587 214 563 185 535 152 521 139 541 163 566 193 583 216 571 202 546 172 519 143 525 150 551 181 576 211 580 219 556 190 530 160 517 148 534 169 560 199 575 221 565 208 539 177 515 153 544 186 569 217 571 224 548 197 523 166 514 158 527 174 553 205 567 225 558 214 532 183 512 164 536 193 563 228 542 203 516 172 510 168 520 180 546 211 559 230 551 220 525 189 508 173 531 201 520 191 508 176 490 182 465 181 439 174 432 172 462 178 453 182 437 196 423 210 404 205 384 197 366 186 351 173 337 157 325 141 319 126 318 106 323 91 333 80 349 72 370 73 388 81 406 93 419 109 430 127 441 146 450 164 455 174 428 170 411 169 401 160 425 149 443 141 427 160 411 179 395 198 369 191 348 177 364 158 380 139 396 120 412 100 395 82 373 69 357 88 341 107 325 127 317 137 340 122 347 121 346 112 346 104 331 83 324 69 313 89 304 110 320 82 333 64 327 74 307 109 304 118 313 102 333 68 339 61 320 94 305 126 308 121 328 87 346 59 335 79 315 114 306 133 321 107 341 72 353 58 349 64 329 99 309 133 308 139 316 126 336 91 357 58 343 83 323 118 311 144 330 112 350 77 363 58 357 69 337 103 317 138 313 148 324 130 344 96 367 58 350 88 330 123 316 153 337 116 357 82 373 59 365 73 345 108 325 142 319 156 331 135 351 100 371 65 377 61 359 93 339 128 322 161 325 155 345 121 365 86 381 62 372 78 352 112 332 147 325 166 340 140 360 105 380 70 386 64 367 97 347 132 328 169 333 160 353 125 373 91 390 65 380 82 360 117 340 151 331 173 348 144 368 110 388 75 395 67 375 102 355 137 334 176 341 164 361 130 381 95 399 70 389 87 369 122 349 156 338 180 356 149 376 114 396 79 402 72 382 106 362 141 342 176 341 183 349 169 369 135 389 100 406 75 397 92 377 126 357 161 344 186 363 153 383 119 403 84 410 77 390 111 370 146 350 180 348 189 357 174 377 139 397 105 413 80 404 96 384 131 364 165 351 192 371 158 391 123 411 88 417 85 399 116 379 151 359 185 355 196 365 178 385 144 405 109 420 88 412 101 392 135 372 170 359 198 380 163 400 128 423 92 407 120 387 155 367 190 362 201 373 183 393 148 413 114 426 95 420 105 400 140 380 174 367 204 388 167 408 133 429 99 414 125 394 160 374 194 370 206 381 187 401 153 421 118 432 104 429 110 409 145 389 179 374 208 395 172 415 137 435 108 422 129 402 164 382 199 379 211 389 192 409 158 429 123 438 113 417 149 397 184 383 212 403 176 423 142 440 117 430 134 410 169 390 203 387 214 397 197 417 162 437 128 443 122 424 154 404 188 391 215 411 181 431 146 446 127 439 139 419 174 399 208 396 217 405 201 425 167 448 130 432 158 412 193 401 219 420 186 440 151 450 136 446 143 426 178 406 213 405 220 413 206 433 171 453 140 440 163 420 197 410 220 427 190 447 156 456 145 434 183 414 222 420 210 440 176 459 150 449 168 429 202 419 222 435 195 455 160 461 154 442 187 425 223 429 215 449 181 464 159 456 172 436 207 432 219 443 199 465 162 455 171 451 177 473 179 465 190 471 175 454 198 469 169 464 177 445 206 457 185 466 164 450 192 432 219 443 199 463 165 464 159 456 172 436 207 426 224 436 207 426 224 436 207 426 224 426 224 " />
    <path id="Block4Jump79"
        fill="none"
        stroke="#FE370F"
		stroke-width="2px"
		d="M 680 397 L 680 397 690 413 680 397 690 413 680 397 690 413 698 433 708 453 718 473 730 490 743 508 755 525 771 542 785 558 801 573 818 586 836 599 855 610 865 608 873 593 879 572 886 553 894 532 903 513 911 492 920 472 927 452 936 433 942 419 932 417 910 421 888 417 867 409 849 396 834 380 819 365 797 350 791 358 782 378 771 393 754 405 733 412 711 412 687 406 710 423 717 430 731 438 754 451 764 454 779 475 795 497 813 517 829 533 838 541 845 565 866 580 880 589 864 608 837 602 814 590 830 571 846 552 863 533 879 514 895 494 911 475 927 456 917 429 896 415 880 434 864 453 848 472 832 491 816 510 800 530 784 549 761 537 744 518 760 499 776 480 792 461 808 442 825 422 841 403 833 373 815 356 799 375 783 394 767 413 751 432 735 452 719 471 715 475 701 418 689 408 677 395 696 413 716 430 729 438 750 449 763 471 779 493 799 514 819 497 839 480 859 463 873 454 884 458 904 443 951 411 945 413 934 422 928 428 916 416 932 435 937 442 928 465 919 489 916 495 900 476 884 456 868 437 852 418 836 399 820 380 804 361 790 345 801 361 783 379 765 392 781 411 797 430 813 450 829 469 845 488 861 507 877 526 894 546 882 562 878 574 874 590 876 602 860 583 844 564 828 544 812 525 795 506 779 487 763 468 747 449 731 430 713 407 725 436 738 440 763 433 782 421 801 402 806 394 801 369 796 347 784 326 793 325 784 330 797 329 782 335 801 332 781 341 790 338 806 336 800 338 780 345 810 339 783 347 779 351 792 347 814 343 803 346 778 355 813 346 819 347 786 356 775 361 795 356 822 350 805 355 774 367 815 355 827 354 788 365 771 371 797 364 830 358 807 364 766 378 779 374 818 364 835 362 829 363 790 374 763 383 799 373 839 366 810 373 771 384 754 390 781 383 820 373 842 369 831 372 792 382 754 393 741 399 763 393 802 383 845 373 812 382 774 393 742 403 784 392 822 381 846 377 833 381 795 391 756 401 743 405 755 428 759 436 781 423 792 415 798 420 804 445 811 470 818 496 824 521 831 546 839 566 849 574 851 582 855 586 853 611 877 614 846 621 874 613 881 609 864 614 839 617 854 613 885 603 843 614 834 614 872 604 887 598 861 605 829 611 852 604 888 593 880 595 841 605 824 608 831 606 869 596 889 587 859 595 819 604 850 596 891 583 877 586 839 597 814 600 828 596 867 586 891 577 857 587 818 597 810 597 847 587 886 577 893 573 875 578 836 588 805 593 826 588 864 577 895 567 854 578 816 588 801 590 806 589 845 578 884 568 897 561 872 568 834 578 795 586 823 579 862 569 899 557 891 559 852 569 813 580 791 582 804 579 842 569 881 558 902 551 870 559 831 570 788 579 821 570 860 560 898 550 904 546 888 550 850 561 811 571 783 575 801 570 840 560 879 550 906 540 868 551 829 561 790 571 780 572 819 562 857 551 896 541 909 534 886 541 847 551 808 561 776 568 799 562 838 551 876 541 911 530 904 531 865 542 827 552 788 563 772 564 778 562 816 552 855 542 893 531 913 524 883 532 845 542 806 553 769 560 797 553 835 543 874 532 915 519 902 523 863 533 824 543 786 554 765 556 775 554 814 543 853 533 891 522 918 513 881 523 842 533 804 544 762 553 794 544 833 534 872 524 910 513 919 508 899 513 860 523 822 534 783 544 758 549 773 545 812 534 850 524 889 514 922 503 879 514 840 525 801 535 763 546 754 545 792 535 831 524 869 514 908 504 924 497 897 504 858 515 819 525 781 535 751 541 771 536 809 526 848 515 886 505 926 493 915 495 876 506 838 516 799 526 760 537 748 537 790 526 828 516 867 505 905 495 928 487 894 496 856 506 817 516 778 527 745 534 768 527 807 517 846 507 884 496 923 486 931 481 912 486 874 496 835 506 796 517 758 527 742 529 749 528 787 517 826 507 865 496 903 486 933 476 892 487 853 497 815 508 776 518 738 525 766 518 804 507 843 497 882 487 920 476 935 470 910 477 871 487 833 498 794 508 755 518 735 522 746 519 785 509 824 498 862 488 901 477 937 466 928 468 890 478 851 489 812 499 774 509 731 518 763 509 802 499 841 488 879 478 918 468 940 460 908 468 869 479 830 489 792 499 753 510 729 514 744 510 783 500 821 489 860 479 899 469 937 458 942 454 926 458 887 469 848 479 810 489 771 500 733 510 726 510 761 500 800 490 838 480 877 469 916 459 944 449 905 460 867 470 828 480 789 491 751 501 723 505 741 501 780 490 819 480 857 469 896 459 935 449 947 443 923 450 885 460 846 470 807 481 769 491 730 501 721 502 759 492 797 481 836 471 875 461 913 450 948 439 942 441 903 451 864 461 826 472 787 482 749 492 718 498 739 492 778 481 816 471 855 461 894 450 932 440 950 433 921 441 882 451 844 462 805 472 767 482 728 493 716 494 756 483 795 473 834 462 872 452 911 442 953 427 939 431 900 441 862 452 823 462 785 472 746 483 713 490 737 483 775 473 814 462 853 452 891 442 930 431 955 422 919 432 880 443 841 453 803 463 764 474 726 484 709 485 715 484 754 473 792 463 831 453 870 442 908 432 947 422 958 417 937 422 898 433 859 443 821 453 782 464 744 474 707 482 734 474 773 464 812 454 850 443 889 433 928 423 960 412 916 424 878 434 839 444 801 455 762 465 723 475 705 477 713 475 751 465 790 454 829 444 867 434 906 423 945 413 960 407 934 414 896 424 857 434 819 445 780 455 741 465 703 473 732 466 771 455 809 445 848 435 887 424 925 414 955 403 914 414 875 424 837 435 798 445 759 455 721 466 701 469 710 466 749 456 788 446 826 435 865 425 904 415 942 404 952 402 933 406 920 408 893 415 855 426 816 436 778 446 739 457 699 464 729 456 768 446 807 435 845 425 884 415 903 408 873 416 834 426 796 436 757 447 718 457 697 461 708 458 747 447 785 437 824 427 863 416 894 406 853 417 814 427 775 438 737 448 694 456 727 447 766 437 804 427 843 416 882 406 886 403 871 407 832 417 793 428 755 438 716 448 692 453 706 449 744 439 783 428 822 418 860 408 879 399 850 407 811 418 773 428 734 438 695 449 690 448 725 439 763 428 802 418 841 408 874 397 868 398 830 409 791 419 752 429 714 440 688 443 703 439 742 429 780 419 819 408 858 398 868 393 848 399 809 409 770 419 732 430 693 440 686 440 722 430 761 420 800 409 838 399 864 390 827 400 789 410 750 421 711 431 684 435 701 431 740 420 778 410 817 400 859 386 845 390 807 400 768 411 729 421 691 431 682 431 720 421 759 411 797 401 836 390 854 382 825 390 786 401 747 411 709 421 681 427 699 422 737 412 776 401 814 391 851 379 843 381 804 392 766 402 727 412 688 423 679 422 718 412 756 401 795 391 833 381 847 375 822 381 784 392 745 402 706 413 678 418 696 413 "/>
    <path id="Block4Jump80"
        fill="none"
        stroke="#FE370F"
		stroke-width="2px"
		d="M 812 382 L 846 373 803 384 765 394 737 400 725 404 686 414 676 414 719 400 704 404 675 410 694 405 706 398 683 404 673 405 696 397 672 400 687 394 681 396 671 396 679 392 670 394 661 377 651 365 641 352 631 340 621 327 611 315 601 301 591 289 581 276 571 264 561 251 561 246 570 243 589 231 607 219 623 204 638 187 650 170 660 150 668 129 673 108 677 104 683 108 693 127 701 146 705 162 706 184 711 203 729 214 746 227 760 244 772 262 779 284 784 305 785 327 782 349 775 369 763 384 743 395 722 400 701 400 680 394 662 384 644 372 626 359 608 346 590 333 573 320 559 308 558 300 563 279 565 254 591 265 616 275 636 292 656 309 676 325 696 342 710 351 720 351 730 347 743 369 757 394 773 374 784 362 784 337 784 312 784 284 768 303 752 322 736 341 720 361 704 380 688 399 664 388 642 376 658 357 674 338 690 319 706 299 722 280 738 261 754 242 741 219 721 204 705 223 689 242 673 261 657 280 641 299 624 319 608 338 581 332 560 317 577 298 593 279 609 260 625 240 641 221 657 202 673 183 689 164 705 145 694 122 681 96 668 111 681 133 682 152 679 169 677 183 674 196 671 206 672 214 677 223 686 237 666 253 646 270 626 287 610 299 602 294 586 315 576 329 560 310 552 300 578 296 595 293 600 292 602 269 623 254 639 242 658 225 670 206 673 198 677 180 680 172 681 158 681 148 680 140 665 124 681 143 697 162 711 179 709 202 720 210 732 220 748 240 765 260 776 276 781 294 784 319 784 338 787 347 771 328 755 309 739 290 723 271 707 251 691 232 675 213 659 194 643 175 629 199 608 212 624 231 640 250 657 269 673 288 689 307 705 326 721 346 737 365 753 384 759 392 735 398 711 404 706 405 690 386 673 367 657 348 641 329 625 310 609 290 593 271 577 252 566 239 589 258 594 263 615 248 635 233 653 215 664 204 679 200 678 179 681 167 680 153 681 141 682 130 680 118 674 93 670 84 661 69 655 74 669 71 655 78 673 74 657 83 677 78 668 81 658 87 682 81 659 92 684 85 671 90 660 97 681 89 688 89 659 101 690 92 674 98 660 106 685 98 693 97 659 111 666 108 695 101 678 108 658 117 688 106 698 104 660 118 656 123 670 118 700 109 681 116 654 128 691 114 702 113 663 127 652 134 673 126 704 117 684 124 651 139 656 137 694 123 706 122 667 136 648 145 676 135 707 125 687 133 649 147 645 151 660 146 697 132 709 130 670 144 642 157 679 143 711 134 690 141 652 155 638 163 663 154 700 141 713 138 673 153 634 169 644 165 682 152 714 143 693 151 656 164 630 176 666 163 703 149 715 147 676 161 638 175 624 183 648 175 685 161 717 152 696 159 659 173 618 190 631 185 669 171 706 158 718 155 679 170 641 183 610 198 651 183 688 170 718 161 699 168 662 181 624 195 602 205 634 193 672 180 710 166 719 166 682 179 645 193 607 207 591 215 616 205 654 192 691 178 719 170 703 176 665 190 627 203 590 217 584 219 574 226 600 217 638 203 675 189 713 176 719 175 685 188 648 201 610 215 573 229 564 234 582 227 619 214 657 200 695 186 720 179 706 185 668 198 630 212 593 226 566 239 603 225 641 211 678 198 720 183 690 186 680 192 679 199 688 221 702 235 710 259 719 284 728 308 737 333 746 357 740 365 754 386 740 399 723 413 744 406 770 394 733 408 710 414 723 409 761 395 781 385 751 396 713 410 698 413 741 397 778 384 784 380 767 386 729 399 689 411 720 400 758 386 788 373 748 387 710 401 683 409 700 403 737 389 775 375 791 367 764 377 726 391 689 405 676 406 717 391 755 377 793 361 782 365 744 379 707 393 670 404 697 394 734 381 772 367 795 355 761 368 723 381 685 395 664 401 676 396 714 383 751 369 789 355 796 351 779 357 741 371 704 384 666 398 658 398 693 385 731 371 769 357 798 345 758 359 720 373 682 387 653 395 673 388 711 374 748 361 786 347 797 341 776 348 738 362 701 376 663 389 648 392 690 376 728 363 765 349 799 335 792 337 754 351 717 365 679 378 645 389 670 379 708 366 745 352 783 338 799 329 772 339 735 353 697 366 660 380 639 385 650 382 687 368 725 354 762 341 799 325 789 329 751 342 714 356 676 370 635 382 667 370 704 356 742 343 779 329 799 320 769 331 732 344 694 358 657 372 631 379 647 373 684 359 722 346 759 332 798 316 786 320 748 334 711 348 673 361 636 375 626 375 664 362 701 348 739 334 776 321 798 310 766 322 729 336 691 349 654 363 622 373 643 365 681 351 719 337 756 324 794 310 797 305 782 311 745 325 707 338 670 352 632 366 617 369 623 367 661 353 698 339 736 326 773 312 797 301 763 314 726 327 688 341 650 355 612 366 640 355 678 342 715 328 753 314 790 301 796 296 779 302 742 316 704 330 667 343 629 357 609 362 620 358 657 345 695 331 733 317 770 304 796 292 760 305 723 319 685 333 647 346 610 360 603 359 637 347 675 333 712 319 750 306 787 292 794 287 776 294 739 308 701 321 664 335 626 349 600 356 617 350 654 336 692 323 730 309 767 295 793 282 757 296 719 309 682 323 644 337 606 351 594 353 634 338 671 325 709 311 747 297 784 284 793 278 773 286 736 299 698 313 660 327 623 340 590 349 613 341 651 327 689 313 726 299 764 286 791 274 754 287 716 301 678 315 641 328 603 342 586 346 593 344 631 330 668 316 706 303 744 289 781 275 790 270 770 277 733 291 695 304 657 318 620 332 581 343 610 332 648 318 685 305 723 291 761 277 788 265 751 279 713 293 675 306 638 320 600 334 577 340 590 335 628 321 665 308 703 294 740 280 778 267 786 260 767 268 729 281 692 295 654 309 616 322 579 336 572 336 607 324 645 310 682 296 720 283 758 269 784 257 747 270 710 284 672 298 635 311 597 325 567 333 587 326 624 312 662 298 699 285 737 271 775 257 782 252 764 259 726 273 688 287 651 300 613 314 576 328 564 330 604 315 642 301 679 288 717 274 754 260 780 249 744 262 707 276 669 289 632 303 594 317 558 327 584 317 621 304 659 290 696 276 734 263 772 249 777 245 761 251 723 264 685 278 648 292 610 305 573 319 554 324 563 320 601 307 639 293 676 279 714 266 751 252 775 240 741 253 703 266 666 280 628 294 591 307 550 320 581 309 618 295 656 281 693 268 731 254 768 240 773 237 757 242 720 256 682 270 645 283 607 297 570 311 545 316 560 311 598 297 635 284 673 270 710 256 748 243 769 233 738 244 700 258 663 271 625 285 588 299 550 313 541 314 577 300 615 287 653 273 690 259 728 246 767 229 754 234 717 248 679 261 642 275 604 289 566 302 539 309 557 303 595 289 632 275 670 261 707 248 745 234 763 225 735 236 697 249 660 263 622 277 584 290 542 304 574 292 612 278 650 265 687 251 725 237 759 221 751 224 713 238 676 252 638 265 601 279 563 293 544 297 554 294 591 280 629 267 667 253 704 239 742 226 756 218 732 227 694 241 657 255 619 268 581 282 547 291 571 283 609 269 646 255 684 241 721 228 752 215 710 230 673 243 635 257 598 271 560 284 548 287 588 272 626 258 664 245 701 231 739 217 748 212 729 219 691 232 653 246 616 260 578 273 549 281 568 274 605 260 643 247 681 233 718 219 744 208 707 221 670 235 632 249 594 262 557 276 550 276 585 263 623 250 661 236 698 222 738 205 725 209 688 223 650 237 612 250 575 264 550 271 565 266 602 252 640 238 678 225 715 211 734 202 704 213 667 226 629 240 591 254 551 265 582 254 619 240 657 227 695 213 729 198 722 201 685 215 647 228 609 242 572 256 550 261 562 257 599 243 637 230 675 216 712 202 725 196 701 204 663 218 626 232 588 245 551 256 579 246 616 232 654 218 692 205 721 192 682 206 644 220 606 233 569 247 550 252 559 249 596 235 634 221 671 208 709 194 720 187 698 195 660 209 622 222 585 236 549 247 576 237 613 223 651 210 689 196 720 183 678 198 641 211 603 225 566 239 550 241 555 239 593 226 630 212 668 198 706 185 720 177 695 186 657 200 619 214 582 227 549 239 534 243 519 246 502 250 487 253 470 257 454 260 438 264 421 268 405 271 389 275 373 278 357 282 341 285 324 289 308 293 292 296 276 300 260 303 243 307 228 311 205 323 187 336 170 348 156 364 141 381 128 399 114 416 96 430 79 442 57 450 37 452 28 457 36 474 48 491 58 510 67 528 77 549 88 568 96 587 107 607 117 626 127 645 131 651 145 636 163 623 180 609 195 594 209 578 221 561 233 542 241 523 247 502 250 480 253 465 241 463 222 455 206 440 193 422 187 401 187 380 189 357 193 335 195 330 179 353 176 364 168 381 164 394 160 408 155 417 156 429 153 444 153 451 169 471 187 489 199 496 210 490 232 476 254 461 238 480 222 499 206 518 190 538 174 557 158 576 142 595 126 614 114 629 102 607 88 581 104 562 120 543 136 524 152 505 168 486 185 466 201 447 209 437 194 422 187 401 192 380 176 399 160 418 144 437 128 456 112 476 95 495 79 514 64 532 52 511 39 485 55 466 71 447 82 433 97 456 106 471 112 469 128 489 145 509 162 529 179 553 162 572 143 592 156 614 165 628 149 609 133 589 117 570 101 551 85 532 69 513 53 494 37 475 23 458 47 449 72 439 88 459 104 478 121 497 137 516 153 535 169 554 185 573 202 594 217 574 233 553 217 534 201 514 185 495 168 476 152 457 136 438 120 419 113 410 128 391 144 370 161 389 177 408 193 427 209 446 225 465 241 485 253 499 232 475 216 455 199 435 182 415 166 395 152 375 172 359 191 337 206 319 187 342 194 351 180 334 181 351 175 362 170 371 166 387 162 396 161 404 167 430 179 452 196 469 216 484 222 485 230 481 246 461 250 452 264 465 235 447 263 470 241 454 232 451 247 461 261 473 255 469 231 452 223 478 220 486 217 504 210 523 200 540 193 550 178 570 162 586 143 602 138 608 134 636 133 664 123 657 113 648 137 663 109 639 135 657 142 660 128 650 105 632 120 642 146 656 115 635 100 622 107 627 140 650 149 654 133 643 100 620 97 615 125 635 152 650 120 627 91 605 113 620 145 643 155 647 138 635 106 612 87 596 98 604 131 627 159 644 125 620 92 597 83 588 118 612 151 635 163 640 144 627 111 604 77 578 103 596 136 619 167 638 130 612 97 589 74 571 90 582 123 605 156 628 171 635 149 620 116 597 84 574 68 561 76 566 109 589 141 612 174 632 168 628 135 605 102 582 70 559 64 552 96 574 129 597 161 620 177 628 154 612 122 589 89 567 60 544 81 559 114 582 147 604 182 626 174 620 141 597 108 574 75 551 55 534 68 544 101 567 134 589 167 612 185 623 160 605 127 582 94 559 61 536 51 527 86 551 119 574 152 597 189 619 179 612 146 589 113 567 81 544 46 517 73 536 106 559 139 582 172 605 192 617 165 598 132 575 99 552 66 529 41 507 59 520 92 543 125 566 157 589 190 612 195 613 184 605 151 582 118 559 86 536 53 513 37 500 46 506 79 529 111 552 144 575 177 598 199 610 170 589 138 567 105 544 72 521 39 498 32 490 64 513 97 536 130 559 163 582 195 604 202 607 189 598 156 575 124 552 91 529 58 506 24 480 51 499 84 521 117 544 149 567 182 590 206 603 176 582 143 559 110 536 77 513 45 490 18 469 37 482 69 505 102 528 135 551 168 574 201 597 208 600 194 590 162 567 129 544 96 521 63 499 30 476 15 461 24 467 57 490 90 513 122 536 155 559 188 582 212 597 181 575 148 552 115 529 83 506 50 483 17 460 14 455 42 475 75 498 107 521 140 544 173 567 206 590 215 592 200 582 167 559 135 536 102 513 69 490 36 467 15 450 29 460 62 483 95 506 127 529 160 552 193 575 218 590 186 567 153 544 120 521 88 499 55 476 22 453 18 447 47 468 80 491 113 514 145 536 178 559 211 582 221 586 205 575 172 552 140 529 107 506 74 483 41 460 22 444 34 453 67 476 100 499 133 521 165 544 198 567 223 582 191 560 158 537 126 514 93 491 60 468 27 441 53 459 86 482 118 505 151 528 184 551 217 574 227 579 210 567 178 544 145 521 112 499 79 476 47 453 32 440 40 445 72 468 105 491 138 514 171 537 203 560 230 575 197 552 164 529 131 506 99 483 66 460 39 439 58 452 91 475 123 498 156 521 189 544 222 567 232 571 216 560 183 537 150 514 117 491 84 468 52 445 45 438 77 461 110 484 143 507 176 530 208 553 235 567 202 544 169 521 136 499 104 476 71 453 52 437 63 445 96 468 129 491 161 514 194 536 227 559 236 564 221 553 188 530 155 507 122 484 90 461 59 435 83 453 116 476 149 499 181 521 214 544 239 559 207 537 174 514 142 491 109 468 76 445 63 433 68 437 101 460 134 483 167 506 199 529 232 552 242 555 226 544 194 521 161 499 128 476 95 453 68 431 88 445 121 468 154 491 187 514 219 537 243 551 212 530 180 507 147 484 114 461 81 438 72 429 106 453 139 476 172 499 204 522 237 545 246 547 232 537 199 514 166 491 133 468 101 445 77 426 93 438 126 461 159 484 192 507 225 530 248 544 218 522 185 499 152 476 119 453 86 431 82 423 112 445 145 468 177 491 210 514 243 536 250 539 237 530 204 507 171 484 138 461 106 438 85 421 99 431 131 453 164 476 197 499 230 522 252 534 223 514 190 491 158 468 125 445 92 422 89 418 117 437 150 460 183 483 215 506 248 529 253 530 242 522 209 499 176 476 144 453 111 431 92 415 104 423 137 446 169 469 202 492 235 515 255 526 228 507 196 484 163 461 130 438 97 412 122 430 155 453 188 476 221 499 257 522 247 515 214 492 182 469 149 446 116 423 101 409 110 415 142 438 175 461 208 484 241 507 258 517 234 499 201 476 168 453 135 431 104 407 127 423 160 446 193 468 226 491 259 511 253 507 220 484 187 461 155 438 122 415 108 403 115 408 147 431 180 453 213 476 246 499 261 507 239 492 206 469 173 446 140 423 110 400 133 415 165 438 198 461 231 484 261 502 225 476 192 453 160 431 127 408 113 396 120 400 153 423 185 446 218 469 251 492 263 498 244 485 211 462 178 439 146 416 116 392 138 407 171 430 204 453 237 476 263 492 230 469 198 446 165 423 132 400 118 388 125 393 158 416 191 439 223 462 256 485 264 486 250 476 217 453 184 431 151 408 121 384 143 400 176 423 209 446 242 468 264 482 236 462 203 439 170 416 137 393 124 381 130 385 163 408 196 431 229 454 265 476 255 469 222 446 189 423 156 400 127 377 149 392 181 415 214 438 247 461 264 471 241 454 208 431 175 408 142 385 129 373 136 377 169 400 201 423 213 429 194 416 162 393 132 369 154 385 187 408 207 419 181 400 148 377 135 366 141 370 174 393 205 412 200 408 167 385 138 363 159 378 192 400 202 404 186 393 153 370 141 359 146 363 179 385 201 399 172 378 144 355 165 369 200 392 191 385 158 363 147 352 184 378 200 385 178 370 150 348 170 362 200 381 164 355 153 345 189 371 200 375 183 363 157 342 175 355 201 370 169 348 161 338 195 363 202 365 188 355 164 336 180 347 202 359 175 340 167 332 203 355 193 348 171 330 185 340 204 349 180 332 175 327 205 345 198 340 180 324 191 332 206 340 184 321 207 335 188 319 196 324 209 331 192 316 210 325 198 315 212 322 205 313 212 319 227 319 243 323 259 325 274 326 290 325 306 322 321 318 336 313 351 306 365 297 378 288 390 278 402 268 414 256 425 244 425 239 417 239 397 231 378 220 360 208 343 192 330 175 320 156 312 135 309 113 309 106 300 109 283 125 269 142 256 160 247 179 241 200 240 223 242 243 248 265 247 275 232 289 217 304 205 323 199 344 199 366 200 388 204 411 214 430 229 445 247 454 269 459 292 458 312 450 328 438 342 421 353 403 366 385 380 368 395 354 413 339 430 328 430 319 423 299 419 277 419 254 421 246 396 258 370 271 373 295 374 307 400 305 429 302 413 321 397 341 381 360 365 379 349 398 333 417 317 436 301 455 295 462 290 435 287 408 300 395 314 374 329 354 345 334 363 316 370 311 373 304 371 280 370 271 382 264 403 249 421 235 404 254 388 273 372 292 356 311 340 331 324 350 308 369 292 388 276 407 260 426 244 446 219 436 202 418 218 399 234 380 250 361 266 341 282 322 298 303 314 284 330 265 346 246 362 227 359 208 341 190 338 178 321 197 305 217 289 236 273 255 257 274 241 293 225 312 209 331 194 349 206 335 222 315 239 295 256 276 272 256 269 250 249 234 236 222 252 203 268 184 284 165 300 145 316 126 292 148 289 167 289 182 302 203 318 222 338 239 359 254 379 265 381 290 386 306 380 316 361 333 343 352 327 373 313 395 301 410 297 414 280 419 279 445 279 465 263 445 247 426 231 407 215 388 198 369 195 364 201 341 207 316 210 305 226 324 243 344 259 363 275 382 291 401 307 420 323 439 328 445 343 425 359 404 343 385 326 366 310 347 294 327 278 308 262 289 246 270 242 265 241 240 241 216 240 191 239 184 256 203 272 223 288 242 304 261 320 280 336 299 352 318 368 337 384 357 387 359 407 343 425 329 430 334 414 315 398 295 382 276 366 257 350 238 334 219 318 200 302 180 285 161 269 142 266 138 284 160 301 180 318 200 334 220 351 239 368 259 374 258 393 242 408 230 425 249 398 257 391 260 368 247 348 234 328 217 310 197 297 175 290 160 296 134 300 121 308 104 309 98 317 93 333 83 325 79 330 87 320 81 328 91 321 85 314 83 327 96 310 85 325 100 315 92 305 87 320 100 323 105 302 90 322 111 309 99 297 92 314 106 323 116 293 96 324 124 303 106 290 98 308 113 326 130 316 122 287 102 321 131 327 138 297 113 283 104 303 120 331 148 309 130 280 108 285 112 315 138 334 156 322 146 291 120 276 111 296 128 327 154 341 168 334 162 303 137 274 114 279 119 310 145 340 170 351 182 347 178 316 152 285 127 270 118 290 135 321 161 352 186 356 192 328 169 298 143 268 121 273 126 304 151 335 177 353 196 340 186 310 160 279 134 266 123 286 144 291 151 291 163 303 186 319 207 337 224 357 241 379 253 391 260 388 273 372 293 355 313 338 333 322 353 305 373 288 393 271 413 258 427 252 424 239 447 207 436 201 434 206 439 241 465 230 456 199 430 195 424 224 449 253 469 218 440 191 415 212 432 243 458 262 471 236 449 205 423 189 406 200 415 231 441 261 467 271 472 255 459 224 433 194 407 187 399 218 425 248 451 278 473 272 468 241 442 211 417 187 392 206 408 236 434 267 460 285 472 261 452 230 426 199 400 186 387 193 393 224 418 254 444 285 470 292 472 278 460 248 435 217 409 186 380 212 402 242 427 273 453 297 471 266 445 236 419 205 394 186 374 199 385 230 411 261 436 291 462 303 469 284 453 254 428 223 402 192 376 186 368 217 395 248 420 279 446 307 468 303 464 272 438 242 412 211 387 185 361 205 378 236 404 266 429 297 455 313 466 290 446 259 421 229 395 198 369 185 356 192 362 223 388 254 413 284 439 318 463 309 456 279 430 248 405 217 379 186 350 211 371 242 397 272 422 303 448 322 461 296 440 265 414 234 388 204 362 186 343 199 354 230 380 260 406 291 432 326 458 315 449 284 424 254 398 223 372 193 346 187 339 217 364 247 390 278 416 309 441 329 456 302 433 271 407 240 381 210 356 188 333 205 347 235 373 266 399 297 425 327 450 333 453 321 442 290 417 260 391 229 365 198 340 189 329 223 357 253 383 284 409 314 434 337 449 308 425 277 399 247 374 216 348 191 324 210 341 241 366 272 392 302 418 333 443 340 446 327 435 296 410 265 384 235 358 204 333 192 319 198 324 229 350 260 375 290 401 321 427 343 443 314 418 283 392 252 367 222 341 194 315 216 334 247 359 278 385 308 411 339 437 345 440 332 429 302 403 271 377 241 351 210 326 196 311 204 317 235 343 265 368 296 394 327 420 349 436 320 411 289 386 258 360 228 334 198 307 222 327 253 353 283 378 314 404 345 430 352 432 339 421 308 395 278 369 247 344 216 318 201 302 210 310 241 336 271 362 302 387 332 413 354 428 325 404 295 379 264 353 233 327 204 299 228 319 259 345 290 371 320 396 351 422 357 424 345 414 314 388 283 363 253 337 222 311 207 295 216 303 246 329 277 355 308 380 338 406 359 421 331 397 300 372 270 346 239 320 210 292 234 312 265 338 296 364 326 389 361 416 350 407 320 381 289 356 259 330 228 304 212 289 221 296 252 322 283 348 313 373 344 399 364 412 338 390 307 364 276 338 246 313 216 285 240 305 271 331 301 357 332 382 366 409 356 400 326 375 295 349 264 323 234 297 219 282 228 289 259 314 289 340 320 366 350 392 369 405 343 383 313 357 282 331 251 306 222 279 246 298 276 324 307 350 338 376 372 402 362 393 331 368 301 342 270 316 239 290 226 275 234 282 264 307 295 333 326 359 356 385 374 397 349 376 318 350 288 325 257 299 229 273 252 292 282 317 313 343 344 369 378 393 368 386 338 360 307 334 277 309 246 283 233 270 239 275 270 301 301 326 331 352 362 378 380 390 355 369 324 343 294 318 263 292 235 265 258 284 289 310 319 335 350 361 383 386 374 379 344 353 313 327 282 302 252 276 233 258 245 268 276 294 307 319 337 345 368 371 386 383 361 362 330 337 299 311 269 285 238 259 230 249 264 277 294 303 325 328 356 354 389 380 380 372 349 346 319 320 288 295 257 269 229 242 251 261 282 287 312 313 343 338 374 364 392 376 367 355 336 329 306 303 275 277 245 252 227 235 239 244 270 270 300 296 331 322 362 347 396 373 386 365 355 339 325 314 294 288 263 262 233 236 227 228 257 253 288 279 319 305 349 331 380 356 399 370 373 348 342 322 312 296 281 271 250 245 226 222 245 237 275 263 306 289 337 315 367 340 402 366 392 358 361 332 330 307 300 281 269 255 238 230 226 215 233 221 263 247 294 272 325 298 355 324 386 349 406 363 379 341 348 315 317 289 287 264 256 238 226 210 251 231 281 256 312 282 342 308 373 333 404 359 409 360 398 350 367 325 337 299 306 273 275 248 245 222 227 204 238 214 269 240 300 265 330 291 361 317 392 342 412 357 384 334 354 308 323 282 293 257 262 231 231 205 227 198 257 223 288 249 318 274 349 300 380 326 410 352 416 354 404 344 373 318 343 292 312 266 281 241 251 215 228 194 244 207 275 233 305 258 336 284 367 310 397 336 419 351 390 327 360 301 329 276 298 250 268 224 237 198 229 188 263 216 293 242 324 267 355 293 385 319 416 345 424 349 410 337 379 311 348 285 318 260 287 234 256 208 230 183 250 200 281 226 311 252 342 277 373 303 403 329 428 346 397 319 366 294 335 268 305 242 274 216 243 191 232 178 238 183 269 209 299 235 330 261 360 286 391 312 422 338 431 343 415 330 385 304 354 278 323 253 293 227 262 201 233 173 256 192 287 218 318 244 348 270 379 295 410 321 436 341 402 312 372 287 341 261 311 235 280 210 249 184 235 169 244 177 274 202 305 228 336 254 366 279 397 305 428 331 440 338 421 323 390 297 360 271 329 246 299 220 268 194 238 165 262 186 293 211 323 237 354 263 385 288 415 314 444 336 439 331 408 306 378 280 347 254 316 228 286 203 255 177 239 161 249 170 280 195 311 221 341 247 372 273 403 298 433 324 450 334 428 315 397 289 366 264 336 238 305 212 274 187 244 161 241 156 268 179 299 204 329 230 360 256 391 282 421 307 453 331 445 324 414 299 383 273 353 247 322 222 291 196 261 170 244 152 256 162 287 188 317 213 348 239 378 265 409 291 440 316 446 319 433 308 403 283 372 257 341 231 311 205 280 180 250 154 246 149 274 172 304 197 335 223 366 249 396 275 427 300 441 310 420 292 389 266 359 240 328 215 297 189 267 163 249 145 262 155 292 181 323 207 354 232 384 258 415 284 438 300 408 276 378 250 347 224 317 199 286 173 255 147 252 142 280 165 310 191 341 216 371 242 402 268 435 291 426 284 396 258 365 233 334 207 304 181 273 156 254 137 267 148 298 174 329 200 359 225 390 251 421 277 433 285 414 269 384 243 353 217 322 192 292 166 261 140 258 133 286 157 317 183 347 209 378 234 409 260 432 277 401 251 371 226 340 200 309 174 279 149 260 130 273 141 304 167 335 193 365 218 396 244 426 270 432 272 420 262 389 236 359 210 328 185 297 159 267 133 263 127 292 150 322 176 353 202 384 227 414 253 432 265 407 245 377 219 346 193 315 167 285 142 266 123 279 134 310 160 340 186 371 212 402 237 432 259 426 254 396 229 365 203 335 177 304 151 273 126 269 120 298 143 328 169 359 195 389 221 420 246 432 254 413 238 371 202 381 207 408 230 434 249 402 222 399 217 426 239 434 244 419 231 415 224 436 239 426 228 432 233 436 236 446 219 456 206 472 203 492 197 511 199 525 205 539 220 549 238 551 260 549 280 543 300 533 317 516 331 495 336 475 334 458 326 445 310 436 291 431 269 432 248 438 233 451 217 462 209 470 205 482 230 488 251 480 259 481 273 493 287 502 310 514 337 530 318 546 298 551 292 549 267 548 242 546 221 530 240 514 259 497 279 481 298 465 317 454 330 443 308 428 283 444 264 460 245 477 226 493 207 504 193 504 196 502 222 502 236 511 251 512 266 507 285 499 295 487 297 478 324 476 340 460 321 444 301 428 283 433 258 438 234 441 220 457 239 473 259 489 278 505 297 521 316 530 327 511 307 499 296 507 286 510 273 535 275 554 278 538 259 522 239 506 220 490 201 484 194 492 220 494 227 508 228 511 235 511 261 511 287 509 300 500 307 507 332 513 345 502 345 460 343 491 343 525 341 481 341 453 339 471 339 511 339 532 336 502 336 462 336 446 334 491 334 531 334 537 332 521 332 481 332 442 329 471 329 511 329 542 327 502 327 462 327 439 325 451 325 491 325 531 325 546 322 521 322 481 322 441 322 435 320 471 320 511 320 549 318 542 318 502 318 462 318 432 316 451 316 491 316 531 316 552 313 521 313 481 313 441 313 429 311 471 311 511 311 554 309 542 309 502 309 462 309 427 306 451 306 491 306 531 306 557 304 521 304 481 304 441 304 425 302 431 302 471 302 511 302 551 302 558 299 542 299 502 299 462 299 423 297 451 297 491 297 531 297 560 295 521 295 481 295 441 295 422 293 431 293 471 293 511 293 551 293 561 290 542 290 502 290 462 290 420 288 451 288 491 288 531 288 562 286 521 286 481 286 441 286 419 283 431 283 471 283 511 283 551 283 563 281 542 281 502 281 462 281 418 279 451 279 491 279 531 279 564 276 521 276 481 276 441 276 417 274 431 274 471 274 511 274 551 274 564 272 542 272 502 272 462 272 422 272 417 270 451 270 491 270 531 270 565 267 521 267 481 267 441 267 417 265 431 265 471 265 511 265 551 265 565 263 542 263 502 263 462 263 422 263 417 260 451 260 491 260 531 260 565 258 521 258 481 258 441 258 417 256 431 256 471 256 511 256 551 256 565 253 542 253 502 253 462 253 422 253 417 251 451 251 491 251 531 251 565 249 521 249 481 249 441 249 417 247 431 247 471 247 511 247 551 247 564 244 542 244 502 244 462 244 418 242 451 242 491 242 531 242 563 240 521 240 481 240 441 240 420 237 431 237 471 237 511 237 551 237 562 235 542 235 502 235 462 235 422 233 451 233 491 233 531 233 560 230 521 230 481 230 441 230 425 228 431 228 471 228 511 228 551 228 558 226 542 226 502 226 462 226 427 224 451 224 491 224 531 224 556 221 521 221 481 221 441 221 430 219 471 219 511 219 554 217 542 217 502 217 462 217 435 214 451 214 491 214 531 214 550 212 521 212 481 212 439 210 471 210 511 210 546 207 502 207 462 207 445 205 451 205 491 205 531 205 543 203 521 203 481 203 450 201 471 201 511 201 537 198 502 198 458 196 491 196 533 194 521 194 481 194 468 191 511 191 528 191 520 196 495 196 484 195 480 187 491 187 524 189 502 189 468 191 511 191 533 194 521 194 481 194 462 194 481 194 462 194 481 194 462 194 "/>
    <path id="Block4Jump81"
        fill="none"
        stroke="#FE370F"
		stroke-width="2px"
		d="M 241 633 L 241 633 246 622 241 633 253 605 222 655 267 617 212 639 271 635 213 621 264 652 226 607 248 662 244 603 230 660 261 610 216 648 270 626 211 630 269 644 218 613 257 658 234 603 239 662 253 605 230 660 234 649 "/>
    <path id="Block4Jump82"
        fill="none"
        stroke="#FE370F"
		stroke-width="2px"
		d="M 178 784 L 178 784 168 778 178 784 152 769 198 806 166 757 181 814 184 755 163 810 200 764 151 796 208 781 149 778 204 799 158 762 190 811 175 754 172 813 193 758 156 804 205 772 148 787 207 790 152 769 204 799 194 793 "/>
    <path id="Block4Jump83"
        fill="none"
        stroke="#FE370F"
		stroke-width="2px"
		d="M 331 873 L 331 873 341 865 331 873 355 855 303 882 361 872 303 864 356 890 313 849 341 901 331 843 322 901 348 848 307 891 360 863 301 873 360 882 307 855 349 897 322 844 331 903 340 844 314 897 355 855 307 891 317 883 "/>
    <path id="Block4Jump84"
        fill="none"
        stroke="#FE370F"
		stroke-width="2px"
		d="M 223 954 L 223 954 213 947 223 954 198 937 241 978 213 926 224 984 232 925 206 979 247 936 195 964 253 953 194 946 248 971 205 930 233 982 222 924 214 983 240 929 199 972 251 944 193 955 252 963 198 937 248 971 238 964 "/>
    <path id="Block4Jump85"
        fill="none"
        stroke="#FE370F"
		stroke-width="2px"
		d="M 389 1068 L 389 1068 380 1076 389 1068 367 1089 416 1055 359 1072 418 1073 362 1054 410 1089 376 1041 393 1098 394 1038 375 1094 410 1047 362 1081 419 1064 359 1063 415 1082 368 1046 402 1095 385 1038 384 1097 403 1041 367 1089 410 1047 402 1055 "/>
    <path id="Block4Jump86"
        fill="none"
        stroke="#FE370F"
		stroke-width="2px"
		d="M 521 941 L 521 941 509 939 521 941 491 935 547 955 500 919 533 968 517 911 515 970 535 915 499 961 548 928 491 945 550 946 494 926 541 963 508 914 524 970 526 911 506 967 543 920 493 954 550 937 491 935 550 946 538 944 "/>
    <path id="Block4Jump87"
        fill="none"
        stroke="#FE370F"
		stroke-width="2px"
		d="M 675 970 L 675 970 672 982 675 970 668 1000 690 944 652 990 702 958 645 973 704 977 649 955 695 993 663 943 678 1000 681 941 660 996 697 950 647 982 704 967 645 964 700 985 655 948 687 998 672 941 668 1000 681 941 679 953 "/>
    <path id="Block4Jump88"
        fill="none"
        stroke="#FE370F"
		stroke-width="2px"
		d="M 709 818 L 709 818 698 822 709 818 681 829 739 816 680 810 734 834 690 795 720 846 707 788 702 847 725 792 686 837 737 807 679 820 738 825 684 802 728 841 698 790 711 848 716 789 693 843 732 799 681 829 737 807 726 811 "/>
    <path id="Block4Jump89"
        fill="none"
        stroke="#FE370F"
		stroke-width="2px"
		d="M 867 753 L 867 753 874 763 867 753 884 778 859 725 866 783 877 725 849 777 892 736 839 762 897 754 839 743 891 772 850 729 876 782 868 723 857 782 885 730 842 770 896 745 837 752 896 763 844 735 884 778 850 729 857 738 "/>
    <path id="Block4Jump90"
        fill="none"
        stroke="#FE370F"
		stroke-width="2px"
		d="M 781 626 L 781 626 769 630 781 626 752 635 811 626 752 617 805 644 763 602 790 655 781 596 772 655 799 602 757 644 809 617 751 626 809 636 757 609 798 651 772 598 781 656 790 598 763 651 805 609 752 635 809 617 798 621 "/>
    <path id="Block4Jump91"
        fill="none"
        stroke="#FE370F"
		stroke-width="2px"
		d="M 950 572 L 950 572 939 576 950 572 921 581 980 572 922 563 974 590 932 548 959 601 950 542 941 601 968 548 926 590 979 563 920 572 978 581 926 554 968 596 941 543 950 602 959 544 932 596 974 555 921 581 979 563 967 566 979 563 979 563 " />
    <path id="Block5Jump92"
        fill="none"
        stroke="#ED171F"
		stroke-width="2px"
		d="M 426 205 L 426 205 420 216 414 226 420 216 426 205 409 236 414 200 397 225 399 214 403 192 385 215 391 186 382 196 368 212 380 179 359 199 368 172 346 190 359 161 338 177 329 184 340 166 350 151 322 170 342 141 321 153 311 158 325 142 336 130 304 143 333 118 310 125 300 128 318 116 334 106 301 111 335 94 312 95 301 95 321 88 338 82 302 79 344 71 325 67 314 65 330 59 344 57 358 57 372 60 385 64 398 71 410 80 421 90 431 100 442 112 451 124 460 137 468 150 476 164 484 174 452 190 477 161 451 174 456 167 473 146 447 161 456 148 465 133 459 137 436 151 458 120 434 135 449 108 426 124 434 109 443 94 437 99 413 117 433 83 413 102 409 106 416 89 422 73 417 78 400 100 410 63 395 86 392 92 394 73 396 56 393 62 382 87 383 49 376 75 374 81 371 63 368 47 367 54 363 80 352 46 353 73 353 81 344 61 337 45 338 52 337 45 338 52 337 45 "/>
    <path id="Block5Jump93"
        fill="none"
        stroke="#ED171F"
		stroke-width="2px"
		d="M 343 79 L 343 79 336 69 329 59 336 69 343 79 322 50 331 78 309 58 322 86 309 76 296 65 300 71 313 94 284 74 303 98 285 89 270 81 275 86 292 104 261 93 281 112 286 116 265 109 249 103 255 107 274 122 241 115 257 119 274 122 257 119 "/>
    <path id="Block5Jump94"
        fill="none"
        stroke="#ED171F"
		stroke-width="2px"
		d="M 266 132 L 266 132 249 130 266 132 249 130 266 132 249 130 232 128 258 142 230 141 223 140 255 155 245 154 218 154 234 160 251 166 221 168 214 169 248 178 238 180 211 184 228 187 246 191 218 197 211 199 243 203 236 205 211 214 227 215 241 215 218 226 211 229 244 228 236 232 212 244 229 242 247 240 225 255 219 258 250 252 231 265 216 275 201 286 184 295 203 325 171 303 188 327 180 323 157 309 175 332 162 327 146 319 151 325 169 345 135 330 155 350 126 342 146 362 134 358 115 352 126 362 142 378 111 366 106 364 131 388 118 384 100 378 108 386 125 402 91 389 115 414 104 408 82 396 88 405 102 423 75 404 70 400 87 429 77 421 60 407 65 417 74 437 48 411 61 444 52 434 34 411 40 430 44 444 25 422 35 433 44 444 35 433 "/>
    <path id="Block5Jump95"
        fill="none"
        stroke="#ED171F"
		stroke-width="2px"
		d="M 19 416 L 19 416 25 426 31 436 25 426 19 416 34 442 7 427 25 439 0 441 19 444 34 447 11 453 2 456 34 453 30 456 5 471 23 465 37 461 17 483 26 478 47 466 26 493 22 497 49 482 41 493 30 510 35 507 "/>
    <path id="Block5Jump96"
        fill="none"
        stroke="#ED171F"
		stroke-width="2px"
		d="M 56 495 L 56 495 49 504 42 514 49 504 56 495 36 523 61 509 41 536 59 527 71 520 57 539 49 549 79 533 56 562 77 551 87 546 71 565 63 575 94 559 71 587 90 577 99 572 84 592 77 601 103 585 83 615 102 603 111 597 95 620 88 630 118 610 115 615 98 642 115 629 125 622 111 645 104 656 128 634 118 664 121 654 134 665 128 644 125 631 138 647 146 656 131 628 156 644 135 623 169 635 147 616 162 621 183 629 174 621 158 607 194 619 169 598 165 594 184 601 204 608 195 601 174 585 212 596 192 581 186 576 202 581 225 587 214 579 197 567 232 573 204 555 220 558 242 563 217 547 229 555 242 563 229 555 "/>
    <path id="Block5Jump97"
        fill="none"
        stroke="#ED171F"
		stroke-width="2px"
		d="M 249 550 L 249 550 239 544 228 538 239 544 249 550 227 537 217 532 240 535 256 537 251 534 222 520 261 523 233 511 251 510 267 509 261 507 238 499 268 494 239 485 269 479 241 472 259 468 275 465 269 464 240 459 234 454 224 448 216 442 210 435 206 426 201 440 196 455 190 469 183 483 175 498 168 511 160 525 151 538 146 550 122 524 156 541 136 521 144 524 169 533 147 514 161 517 177 521 172 517 150 501 186 510 162 495 192 496 166 483 183 484 200 485 193 482 166 469 204 471 179 461 174 458 190 458 207 457 201 455 175 446 210 443 185 435 178 433 196 431 213 429 186 422 187 408 186 394 186 381 180 396 174 409 168 424 161 439 156 453 153 467 146 461 126 443 162 456 138 438 144 440 173 446 148 430 160 431 179 433 171 429 149 417 185 420 160 408 189 406 163 396 196 393 178 388 161 382 174 368 178 352 183 338 189 324 196 309 203 295 211 282 220 269 229 256 239 245 250 233 257 223 278 252 245 232 263 255 255 251 231 238 250 261 236 255 220 249 225 254 244 273 209 259 229 278 199 271 222 289 205 285 188 282 194 285 220 301 181 296 206 307 211 309 194 310 177 311 184 313 210 320 174 326 201 331 207 332 189 337 172 341 179 341 206 344 168 356 195 356 201 356 184 364 169 371 176 370 202 369 169 386 196 382 204 381 184 393 170 402 177 400 170 402 177 400 170 402 "/>
    <path id="Block5Jump98"
        fill="none"
        stroke="#ED171F"
		stroke-width="2px"
		d="M 203 394 L 203 394 194 401 185 409 194 401 203 394 175 417 203 405 184 429 199 420 211 412 198 435 194 441 218 418 216 425 206 451 216 437 225 426 218 455 217 462 233 434 233 439 232 467 238 451 245 435 246 467 246 474 253 443 255 449 262 476 263 459 264 445 274 470 277 476 275 447 292 475 287 449 286 442 297 456 307 470 305 464 295 438 321 463 308 439 304 432 320 444 334 454 329 448 313 426 344 442 322 419 338 426 354 432 349 427 331 412 364 420 342 403 338 400 358 405 374 409 369 405 345 388 379 394 357 378 351 375 368 378 388 383 363 364 395 372 377 356 371 351 388 357 405 364 400 359 381 339 413 354 399 336 394 330 409 338 424 346 407 322 430 336 436 339 421 315 450 336 436 311 432 305 429 305 422 298 416 290 404 300 392 309 378 318 365 326 351 333 336 340 322 346 310 354 308 345 305 319 324 352 318 323 322 329 339 353 330 324 340 334 353 347 349 339 340 315 367 342 354 316 379 333 364 309 376 317 392 328 387 320 371 296 403 318 383 291 396 298 413 307 407 300 390 281 422 296 402 275 398 272 413 278 431 285 411 266 399 269 385 268 370 265 355 258 342 251 329 244 336 238 355 220 339 255 357 232 356 238 348 266 364 241 363 254 362 273 366 264 375 241 376 278 383 250 391 278 395 250 405 280 405 261 406 242 417 269 420 277 417 247 419 234 422 221 427 210 435 199 445 192 455 185 468 180 482 176 496 176 511 179 523 183 534 190 542 199 549 209 555 221 562 234 541 205 574 226 556 203 563 208 588 221 568 199 582 205 599 211 593 206 575 187 610 202 589 183 620 191 597 173 614 178 631 182 623 176 601 160 640 171 612 152 624 154 647 158 636 151 617 140 653 145 622 130 635 130 658 131 646 126 626 119 664 118 633 108 643 106 666 103 653 101 633 96 667 89 632 83 647 80 669 75 656 73 635 72 666 60 635 59 622 61 606 64 591 69 578 75 565 82 553 91 543 102 535 113 528 126 524 139 521 153 519 168 521 181 488 169 525 168 498 156 509 156 532 157 506 143 527 144 536 144 506 127 542 132 518 117 547 120 524 103 535 106 557 110 544 100 528 87 556 98 565 101 541 78 551 82 572 92 564 82 550 66 577 82 582 85 563 57 572 64 593 79 586 68 576 49 598 71 605 77 592 46 599 55 614 73 611 60 606 40 622 67 625 71 621 36 625 46 633 73 635 60 638 39 635 60 638 39 635 60 "/>
    <path id="Block5Jump99"
        fill="none"
        stroke="#ED171F"
		stroke-width="2px"
		d="M 642 72 L 642 72 646 61 650 50 646 61 642 72 652 43 652 55 652 75 657 65 667 46 662 77 662 82 681 54 678 65 670 89 677 82 691 66 677 94 674 100 699 79 694 89 683 107 694 100 712 89 692 112 686 119 715 105 707 113 692 130 701 127 720 119 695 143 723 134 696 155 718 150 729 147 712 159 698 168 732 162 699 181 722 178 733 177 738 191 748 202 759 214 767 226 775 240 781 253 786 268 789 282 790 297 789 311 786 329 811 304 797 339 817 318 814 327 805 352 825 330 821 345 817 361 822 356 840 335 828 371 846 349 840 379 858 357 854 374 851 391 855 385 871 359 863 399 875 375 878 369 878 390 877 406 879 400 890 374 890 412 897 386 899 378 902 395 906 412 906 405 906 378 921 412 917 390 915 379 927 396 935 406 930 375 940 394 947 368 938 404 952 388 960 380 957 396 967 395 948 403 936 408 969 410 931 416 954 422 964 425 943 426 927 426 933 429 955 439 918 438 943 449 947 451 932 452 915 452 921 455 946 466 907 465 936 477 920 478 903 479 910 482 931 491 897 493 924 504 918 504 891 506 908 512 923 518 896 518 887 518 919 532 912 532 883 530 900 539 914 547 888 543 879 542 909 562 903 560 876 555 890 565 902 575 877 569 871 567 895 589 889 587 865 579 879 594 890 606 867 594 859 590 862 594 885 622 881 618 856 593 862 612 865 625 856 603 851 592 849 623 848 617 844 591 839 605 833 621 835 594 835 585 819 615 820 609 825 580 817 591 807 604 812 579 814 572 795 595 803 562 784 584 786 578 795 550 784 563 773 574 782 550 785 541 758 568 760 562 774 531 759 546 747 557 758 534 763 524 739 545 741 539 "/>
    <path id="Block5Jump100"
        fill="none"
        stroke="#ED171F"
		stroke-width="2px"
		d="M 756 511 L 756 511 743 522 756 511 743 522 756 511 743 522 730 532 742 508 746 501 719 522 722 517 739 488 728 496 715 506 727 483 731 477 700 497 704 492 723 465 705 476 692 485 707 464 715 453 689 469 693 464 710 440 697 447 710 440 697 447 710 440 "/>
    <path id="Block5Jump101"
        fill="none"
        stroke="#ED171F"
		stroke-width="2px"
		d="M 683 455 L 683 455 690 445 696 435 690 445 683 455 698 433 701 429 675 443 694 416 668 429 672 425 692 401 679 407 664 414 682 394 688 388 655 402 675 399 690 401 704 402 719 403 733 404 737 418 743 431 750 443 759 454 769 465 779 475 790 485 802 494 814 503 824 512 827 504 837 480 810 507 823 481 818 485 795 504 810 478 798 485 782 495 788 488 802 467 770 486 788 465 760 475 780 455 766 460 748 465 755 460 777 441 740 453 766 433 752 435 733 439 741 434 762 420 727 425 753 411 757 409 741 410 722 411 747 400 760 397 774 397 789 399 804 402 818 407 831 416 828 407 819 383 817 420 814 391 812 397 801 424 805 394 798 403 786 418 789 409 798 385 772 410 786 385 761 399 779 376 782 363 787 348 790 332 793 316 793 301 792 285 789 269 785 254 779 240 771 227 762 215 752 204 740 195 728 188 715 183 701 182 687 183 674 188 681 153 687 189 695 161 696 172 698 195 709 167 710 188 710 198 725 167 721 204 735 180 734 191 731 210 749 187 742 207 739 219 743 214 765 192 747 227 765 213 773 206 762 224 755 236 784 217 762 246 782 235 792 230 778 246 768 257 799 243 771 270 792 263 802 259 786 272 775 281 808 273 778 293 802 290 813 288 794 297 777 305 811 304 778 316 807 319 779 328 800 332 810 334 789 337 777 339 809 351 775 350 793 360 803 365 782 362 768 360 796 379 764 370 782 386 790 394 772 384 753 374 773 399 745 380 755 397 760 406 744 392 735 383 745 410 725 384 731 417 726 408 714 386 715 399 715 420 705 391 703 386 700 421 698 411 692 385 689 399 684 419 680 384 669 414 669 403 669 377 665 386 656 405 658 374 659 368 644 398 645 387 649 358 641 371 631 389 635 359 636 353 618 382 620 372 625 344 619 353 608 370 613 338 595 363 597 352 601 328 594 339 582 356 588 321 571 346 572 336 576 312 559 337 562 317 565 303 548 327 555 292 534 321 544 302 552 288 559 275 574 279 589 283 604 285 618 286 632 284 644 281 653 275 659 269 664 261 664 252 683 282 656 259 668 286 660 278 645 262 655 290 635 268 638 280 643 301 627 274 624 270 628 298 613 272 614 301 601 269 600 296 599 307 594 287 590 267 585 300 578 265 573 288 570 299 569 278 567 261 557 293 557 255 546 281 553 267 558 255 559 242 557 228 552 215 545 202 536 191 523 183 509 179 495 177 484 179 475 184 468 193 453 161 478 189 470 161 476 170 488 190 485 160 494 179 498 188 501 154 507 189 515 162 516 191 530 166 527 177 522 199 533 186 546 170 533 198 529 206 555 185 549 194 536 214 547 207 566 196 545 219 541 223 573 211 564 218 544 234 557 231 578 226 550 241 543 245 576 242 566 246 544 255 556 256 577 258 547 265 542 266 577 273 566 274 538 277 550 281 570 288 535 288 562 301 532 298 549 310 558 316 538 310 526 306 549 330 518 313 529 330 536 339 520 325 508 315 521 345 499 320 505 343 507 354 497 335 489 320 491 351 479 321 477 341 476 352 472 331 470 319 461 347 462 314 445 344 448 333 454 309 445 320 432 336 445 308 448 303 420 325 426 316 441 293 411 311 435 284 416 292 406 297 422 282 432 273 403 281 431 262 409 265 398 266 418 258 433 251 397 251 430 240 406 236 396 235 417 232 433 231 403 221 436 221 418 211 408 206 429 211 443 214 416 192 449 205 436 190 429 182 447 192 458 198 442 174 468 194 455 167 479 194 472 169 469 159 472 169 469 159 472 169 469 159 " />
</svg>
