<?xml version="1.0" encoding="UTF-8" standalone="no"?>
<svg xmlns="http://www.w3.org/2000/svg" version="1.1" width="736" height="721">
    <path id="Block1Jump0"
        fill="none"
        stroke="#7B6F00"
		stroke-width="2px"
		d="M 149 137 L 166 149 184 141 190 121 186 101 175 84 160 71 141 62 121 58 101 62 84 72 68 84 84 72 101 62 121 58 141 62 160 71 175 84 186 101 190 121 184 141 166 149 149 137 155 130 143 143 158 130 144 148 161 132 146 152 163 135 149 156 164 137 154 158 165 139 159 159 167 140 165 159 169 140 170 159 171 140 175 158 173 139 180 156 176 138 184 153 178 136 188 150 179 134 191 146 180 132 194 142 181 130 196 137 182 128 198 132 182 126 198 127 183 124 198 122 183 121 198 117 183 118 197 112 182 114 196 108 181 111 195 104 180 108 194 100 179 104 192 96 178 101 190 92 176 98 188 88 174 95 185 85 172 92 183 81 170 89 180 78 168 87 177 75 165 84 174 72 163 82 170 69 160 80 167 66 157 77 163 64 155 75 159 62 152 74 155 60 148 72 151 58 145 70 147 56 142 69 143 55 139 67 139 54 135 66 135 53 132 65 130 52 128 65 126 51 125 64 122 51 121 64 117 51 118 65 113 51 114 65 108 52 111 66 104 53 108 67 99 54 105 68 95 55 101 69 91 57 98 70 87 59 95 72 83 62 92 74 80 64 89 76 76 67 87 78 73 71 85 81 71 74 82 84 69 77 79 87 67 81 68 84 75 92 94 98 110 110 117 128 109 145 92 147 76 135 70 116 65 96 70 116 76 135 92 147 109 145 117 128 110 110 94 98 75 92 55 91 36 98 22 112 13 130 9 150 11 170 18 190 28 207 40 223 55 237 72 249 89 259 108 268 127 274 132 285 127 274 108 268 89 259 72 249 55 237 40 223 28 207 18 190 11 170 9 150 13 130 22 112 36 98 55 91 75 92 94 98 110 110 117 128 109 145 92 147 76 135 70 116 65 96 62 96 68 96 62 99 76 99 61 103 77 103 61 107 77 106 61 112 77 109 61 117 77 112 62 121 77 115 63 126 77 118 65 131 77 122 67 135 78 125 69 139 80 129 72 143 81 132 75 147 83 135 79 150 85 137 83 152 88 139 88 154 90 141 92 156 93 142 97 157 96 143 102 157 99 143 107 156 102 143 112 154 105 142 116 152 107 140 119 148 109 138 122 145 110 135 124 141 111 132 126 136 112 129 126 132 112 126 126 127 111 123 125 122 110 120 123 117 107 117 121 113 105 114 118 108 102 112 115 104 100 109 112 101 98 108 108 97 95 106 104 94 93 105 100 92 90 103 96 90 87 102 92 88 84 101 87 87 80 100 83 86 77 99 79 84 74 99 74 84 71 98 70 83 67 98 65 82 64 97 61 82 61 97 56 82 57 97 52 82 54 97 48 83 51 98 43 84 48 100 39 86 45 102 35 88 43 104 31 90 40 106 27 92 37 108 24 95 35 111 21 98 33 113 18 101 31 116 15 105 28 118 12 108 27 121 10 112 25 124 8 116 23 127 6 120 22 130 5 124 21 133 3 128 20 137 2 133 19 140 1 137 19 143 1 141 18 147 0 146 18 150 0 150 18 154 0 155 18 157 0 159 19 160 0 163 19 164 0 168 20 167 1 172 21 170 2 177 22 173 3 181 23 177 4 185 25 180 5 189 27 183 7 193 28 186 9 197 30 190 10 200 32 193 12 204 34 196 14 208 36 199 17 212 38 202 19 215 40 205 21 219 42 208 24 222 44 211 26 226 47 213 29 229 49 216 32 232 52 219 35 235 55 221 38 238 57 224 41 241 60 226 44 244 63 228 48 246 66 231 51 249 68 233 55 251 71 235 58 254 74 237 62 256 77 239 65 258 80 241 69 260 83 243 73 263 87 245 76 265 90 247 80 267 93 248 84 269 96 250 87 271 100 252 91 273 103 253 95 275 107 255 98 276 111 256 102 278 115 258 105 280 118 259 109 281 122 260 113 282 126 262 117 284 130 263 121 285 134 264 125 286 135 270 128 287 132 288 132 282 128 287 135 270 127 265 144 277 143 297 148 317 156 335 162 345 182 351 162 345 156 335 148 317 143 297 144 277 150 258 161 241 175 227 192 216 211 211 231 208 251 206 271 206 291 208 310 211 324 226 310 211 291 208 271 206 251 206 231 208 211 211 192 216 175 227 161 241 150 258 144 277 143 297 148 317 156 335 162 345 182 351 163 349 183 347 162 345 152 327 145 307 143 287 147 266 156 248 170 232 186 220 206 212 226 208 247 206 268 206 288 208 308 213 321 223 321 226 327 226 323 220 319 228 320 213 315 228 317 206 311 227 314 199 308 226 310 195 304 225 306 195 300 225 303 194 296 224 299 193 292 224 295 193 288 223 290 192 285 223 286 191 281 223 282 191 278 222 277 191 274 222 273 190 271 222 269 190 268 222 264 190 264 222 260 190 261 222 256 190 257 222 251 190 254 222 247 190 251 222 243 190 247 223 238 190 244 223 234 191 240 223 229 191 237 223 225 192 233 224 221 192 230 224 216 193 226 225 212 194 223 225 208 195 219 225 203 196 216 226 199 197 213 227 194 198 209 227 190 199 206 228 186 201 203 229 182 202 200 231 178 204 197 232 174 207 194 234 170 209 192 236 166 211 189 238 162 214 187 240 159 217 184 242 156 220 182 244 153 223 179 247 150 227 177 249 147 230 175 252 144 233 173 254 141 237 171 257 139 241 169 259 136 245 168 262 134 248 166 265 132 252 165 268 130 256 164 271 129 260 163 275 127 265 162 278 126 269 162 281 125 273 162 285 125 277 161 288 124 281 161 292 124 286 162 296 124 290 162 299 124 295 163 303 125 299 163 306 125 303 165 310 126 308 166 314 127 312 168 317 128 317 169 321 130 321 171 324 131 325 173 328 133 330 175 331 135 334 177 335 137 338 179 339 139 342 181 343 142 346 183 347 163 349 162 349 173 364 191 372 207 364 224 353 240 343 256 333 272 322 274 319 296 319 317 316 338 312 359 306 380 298 398 287 404 272 398 287 380 298 359 306 338 312 317 316 296 319 274 319 273 308 275 330 275 308 279 331 279 308 283 331 283 307 287 331 287 307 291 331 291 307 295 319 315 317 335 313 354 308 373 301 391 293 403 278 404 269 404 275 405 282 400 272 404 295 397 274 401 301 393 277 397 303 390 279 394 305 386 281 390 308 382 283 386 310 379 285 383 311 375 286 379 313 371 288 375 315 368 289 371 317 364 290 367 318 360 291 363 320 356 292 360 321 352 294 356 322 349 295 352 324 345 296 348 325 341 297 344 326 337 298 340 327 333 299 336 328 330 300 332 328 326 301 328 329 322 301 324 330 318 302 320 330 314 303 316 331 310 304 312 331 306 304 307 331 303 305 303 331 299 306 299 331 295 306 295 331 291 307 291 331 286 337 278 329 286 337 307 337 329 337 351 337 372 337 394 337 404 326 394 337 372 337 351 337 329 337 307 337 286 337 278 329 278 326 278 332 280 326 282 348 284 326 286 348 288 326 290 348 292 325 294 349 296 325 298 349 300 325 302 349 304 325 306 349 308 324 309 350 312 324 313 350 316 324 317 350 320 324 321 350 324 324 325 350 328 324 329 350 333 324 333 350 337 324 336 350 341 324 340 350 345 324 344 351 349 323 348 351 353 323 352 351 357 323 356 351 362 323 360 351 366 323 363 351 370 323 367 351 374 323 371 351 378 323 375 351 383 323 379 351 387 323 383 351 391 323 387 351 395 323 391 351 399 323 395 351 403 323 404 329 405 323 404 329 403 323 396 327 411 336 408 358 404 381 400 403 394 425 388 447 401 453 395 467 409 481 418 499 423 518 421 538 414 553 422 564 414 575 416 598 404 618 385 632 391 639 379 650 366 667 345 669 324 671 311 686 317 704 336 706 317 704 311 686 324 671 345 669 366 667 379 650 391 639 393 638 388 640 377 642 381 646 370 665 349 669 327 670 312 683 315 702 333 708 337 697 337 713 335 697 333 718 331 698 329 720 328 699 323 721 327 698 318 721 326 698 312 720 325 697 307 717 324 696 303 713 323 695 299 709 323 694 296 704 323 692 294 699 323 690 293 694 323 689 293 688 324 687 294 683 324 686 295 677 325 685 297 672 326 684 300 667 328 683 303 663 330 682 307 660 332 681 312 658 334 680 318 657 337 679 324 656 339 679 330 656 342 680 336 658 345 680 341 659 349 681 344 659 354 681 347 659 359 680 350 659 364 680 353 659 369 679 356 658 374 678 359 657 378 675 361 657 382 671 363 656 385 667 365 655 388 663 367 653 390 658 367 651 392 653 367 649 393 648 368 647 394 643 377 642 388 640 390 629 406 617 416 599 415 578 419 564 415 578 416 599 406 617 390 629 370 634 350 631 334 620 332 602 347 595 365 602 377 619 386 621 377 619 365 602 347 595 332 602 334 620 350 631 370 634 390 629 406 617 416 599 415 578 419 564 416 564 423 564 414 575 416 596 408 615 391 628 371 634 350 631 334 619 333 601 348 595 367 604 378 621 389 621 383 621 371 625 387 616 368 622 386 613 366 618 384 608 365 616 382 604 363 613 380 600 361 611 377 597 359 609 373 594 356 607 370 591 354 605 366 588 351 604 361 586 349 603 356 584 348 603 351 582 346 604 345 582 345 604 340 582 343 605 334 584 342 605 329 586 341 606 324 589 340 607 320 593 340 608 318 598 339 610 316 603 340 612 315 608 342 614 316 614 343 616 317 619 344 617 320 625 346 619 324 629 347 619 328 633 349 620 333 637 350 620 338 640 352 620 342 642 355 621 347 644 357 622 351 645 360 622 356 646 363 623 361 646 366 623 365 646 369 623 370 646 372 623 375 646 375 623 380 645 377 622 384 644 380 621 389 642 383 621 393 640 386 619 397 638 388 618 401 636 391 617 405 633 393 615 409 630 395 613 412 627 397 611 415 624 399 608 418 620 401 606 421 616 402 603 424 612 403 601 426 608 403 599 428 603 404 597 429 598 404 595 430 593 404 593 431 587 404 591 431 582 404 589 429 577 403 587 427 571 403 584 425 568 402 580 423 564 422 564 423 565 414 553 422 535 423 515 417 496 407 479 393 465 388 461 393 444 395 426 397 408 399 391 400 373 402 355 403 337 402 355 400 373 399 391 397 408 395 426 393 444 388 461 396 453 396 467 409 483 419 501 423 521 420 541 410 559 394 572 374 575 357 566 354 548 369 537 389 540 407 541 389 540 369 537 354 548 357 566 374 575 394 572 410 559 420 541 423 521 419 501 409 483 396 467 396 453 398 451 394 456 385 476 401 453 388 480 397 469 411 484 419 502 423 522 420 541 410 559 396 572 376 576 357 569 351 550 365 536 385 537 403 546 406 544 409 539 401 553 405 535 395 558 402 532 391 556 399 529 388 554 395 527 386 552 390 525 384 551 386 523 381 550 381 522 379 548 376 522 376 547 371 522 374 547 366 523 371 547 362 524 369 548 357 527 368 549 352 529 367 550 347 533 366 551 343 536 365 552 340 541 364 553 337 546 364 554 336 551 364 556 337 557 363 557 338 562 364 559 341 567 364 560 344 572 366 562 348 576 368 563 351 579 371 563 356 582 373 564 361 585 375 564 366 586 377 564 371 587 379 564 377 588 381 564 382 588 383 563 387 588 384 563 393 587 386 563 398 585 388 562 402 583 390 560 406 581 392 558 410 579 395 556 414 576 397 554 417 572 399 552 420 569 400 549 423 565 402 547 425 561 404 544 428 557 405 542 430 553 406 539 432 549 407 536 434 544 408 533 435 540 409 531 436 536 409 528 437 531 409 525 437 526 409 522 437 521 409 519 437 517 409 517 436 512 408 514 436 507 408 511 434 503 407 509 433 498 406 506 432 493 405 504 430 489 404 501 428 485 402 499 426 480 401 497 423 476 400 494 420 472 398 492 417 468 397 490 414 465 395 487 411 461 393 485 407 458 391 482 404 455 388 480 401 453 389 444 394 425 399 405 404 385 407 365 410 344 412 324 414 304 419 285 428 280 419 285 414 304 412 324 410 344 407 365 404 385 399 405 394 425 389 444 382 464 372 481 359 498 345 512 329 525 311 535 292 543 291 557 292 543 311 535 329 525 345 512 359 498 372 481 382 464 389 444 394 425 399 405 404 385 407 365 410 344 412 324 414 304 419 285 428 280 431 280 425 280 431 284 416 278 430 288 406 277 430 293 400 278 430 297 400 282 429 302 400 287 429 306 399 291 429 311 399 296 428 315 399 300 428 319 398 305 428 324 398 309 427 328 398 314 427 333 397 318 426 337 397 322 426 341 396 327 425 346 396 331 425 350 395 335 424 354 395 340 424 359 394 344 423 363 394 348 423 367 393 353 422 371 393 357 421 376 392 361 420 380 391 365 420 384 391 370 419 388 390 374 418 392 390 378 417 396 389 382 416 400 388 386 415 404 387 391 414 408 386 395 413 413 385 399 412 417 384 403 411 421 383 407 410 425 382 411 409 429 381 415 408 433 380 419 407 437 379 423 406 441 378 427 405 445 377 431 403 448 376 435 402 452 375 439 401 456 373 443 400 460 372 447 399 464 371 450 397 468 369 454 396 472 368 458 394 475 366 461 392 479 364 465 390 482 362 468 388 486 359 472 386 489 357 475 384 492 355 478 381 496 352 481 379 499 350 484 376 502 347 488 374 505 344 491 371 508 342 494 368 511 339 497 366 514 336 499 363 517 332 502 360 520 329 505 357 523 326 508 353 526 322 510 350 529 319 513 347 531 315 515 343 534 311 518 340 536 307 520 336 539 318 531 297 542 291 553 289 555 294 559 296 558 283 548 301 556 278 540 306 554 275 534 311 552 280 532 315 550 284 530 320 548 289 528 324 546 293 526 328 544 298 524 332 541 303 522 336 539 307 520 307 520 " />
    <path id="Block2Jump1"
        fill="none"
        stroke="#6A1C8A"
		stroke-width="2px"
		d="M 203 643 L 203 646 189 644 222 642 181 640 228 639 175 637 232 636 171 634 "/>
    <path id="Block2Jump30"
        fill="none"
        stroke="#6A1C8A"
		stroke-width="2px"
		d="M 170 583 L 229 582 177 580 227 579 182 577 226 576 186 574 225 572 189 570 224 569 191 567 223 566 193 564 223 562 195 560 222 559 196 557 222 556 198 554 211 552 198 550 204 550 208 550 186 551 164 552 164 572 164 585 150 589 179 590 145 588 187 586 139 584 192 583 134 581 196 580 "/>
    <path id="Block2Jump55"
        fill="none"
        stroke="#6A1C8A"
		stroke-width="2px"
		d="M 140 535 L 157 534 158 514 161 507 179 504 180 498 185 503 186 502 170 504 186 506 136 507 186 509 133 510 186 513 130 514 187 516 128 517 187 519 126 520 188 523 124 524 "/>
    <path id="Block2Jump64"
        fill="none"
        stroke="#6A1C8A"
		stroke-width="2px"
		d="M 224 552 L 244 551 264 550 269 530 264 520 258 517 252 519 277 521 252 522 283 524 251 525 269 529 264 549 257 563 257 585 259 606 258 609 274 607 238 605 283 604 231 602 288 601 227 598 "/>
    <path id="Block2Jump95"
        fill="none"
        stroke="#6A1C8A"
		stroke-width="2px"
		d="M 237 545 L 296 544 241 542 295 541 244 539 294 537 246 535 292 534 248 532 290 531 250 529 287 527 251 525 283 524 286 526 272 524 303 523 264 521 309 520 259 517 313 516 255 514 317 513 "/>
    <path id="Block2Jump125"
        fill="none"
        stroke="#6A1C8A"
		stroke-width="2px"
		d="M 249 460 L 308 459 251 457 304 456 253 454 300 453 256 451 297 449 260 447 295 446 264 444 292 443 269 441 291 439 277 437 286 436 277 437 291 439 290 435 310 438 325 441 326 461 326 468 340 472 311 472 345 470 303 468 352 467 298 465 356 464 294 462 "/>
    <path id="Block2Jump152"
        fill="none"
        stroke="#6A1C8A"
		stroke-width="2px"
		d="M 305 415 L 367 414 306 411 366 410 307 408 365 407 307 405 364 404 308 401 363 400 308 398 361 397 308 395 359 394 308 391 356 390 308 388 353 387 307 385 347 383 306 381 339 380 309 380 315 378 295 380 277 381 276 402 276 423 277 444 263 448 291 448 258 446 300 445 252 443 305 442 247 439 309 438 "/>
    <path id="Block2Jump194"
        fill="none"
        stroke="#6A1C8A"
		stroke-width="2px"
		d="M 248 366 L 306 365 251 363 302 361 256 359 296 358 263 356 291 356 263 356 285 359 265 361 262 362 255 371 253 374 258 372 251 370 257 368 268 354 262 333 249 320 244 309 244 287 244 284 258 285 225 287 266 289 219 290 272 292 215 293 275 295 211 297 "/>
    <path id="Block2Jump209"
        fill="none"
        stroke="#6A1C8A"
		stroke-width="2px"
		d="M 224 323 L 287 326 231 327 287 329 235 330 287 332 239 333 288 336 242 337 288 339 244 340 288 342 246 344 287 346 248 347 287 349 249 350 287 352 250 354 286 356 251 357 285 359 251 360 273 362 251 364 266 365 251 367 261 369 251 370 258 372 258 372 239 369 223 366 219 343 219 319 219 316 234 318 200 319 242 321 194 322 247 324 189 326 251 328 "/>
    <path id="Block2Jump239"
        fill="none"
        stroke="#6A1C8A"
		stroke-width="2px"
		d="M 191 379 L 253 382 192 383 251 385 193 386 249 388 193 389 247 392 193 393 245 395 193 396 243 398 193 399 241 402 221 402 217 402 196 404 193 403 241 402 193 399 198 401 180 401 162 399 144 395 127 390 129 388 109 385 96 382 93 359 93 335 94 311 109 306 79 306 113 308 72 309 119 312 67 313 124 315 64 316 127 318 "/>
    <path id="Block2Jump281"
        fill="none"
        stroke="#6A1C8A"
		stroke-width="2px"
		d="M 67 389 L 80 391 77 394 71 392 96 391 67 389 129 388 123 383 107 381 123 383 86 384 129 386 79 387 129 389 75 391 129 393 71 394 130 396 68 397 131 399 "/>
    <path id="Block2Jump317"
        fill="none"
        stroke="#6A1C8A"
		stroke-width="2px"
		d="M 66 461 L 127 463 69 464 126 466 73 468 124 470 78 471 118 473 86 474 113 475 86 474 118 473 116 471 136 469 156 468 155 448 157 437 140 428 136 425 143 425 145 427 132 428 151 430 129 431 163 433 126 435 "/>
    <path id="Block2Jump347"
        fill="none"
        stroke="#6A1C8A"
		stroke-width="2px"
		d="M 139 485 L 160 486 160 506 160 510 160 513 146 511 178 510 139 508 184 507 134 505 189 504 130 501 192 500 "/>
    <path id="Block2Jump357"
        fill="none"
        stroke="#6A1C8A"
		stroke-width="2px"
		d="M 186 483 L 206 481 221 480 240 476 241 475 242 472 237 473 248 475 231 477 221 480 219 505 219 530 220 554 206 559 234 559 201 557 242 556 195 553 247 552 190 550 251 549 187 547 "/>
    <path id="Block2Jump396"
        fill="none"
        stroke="#6A1C8A"
		stroke-width="2px"
		d="M 218 480 L 251 479 231 477 248 475 246 480 226 480 220 480 220 483 220 486 205 484 239 483 197 481 246 480 192 478 250 477 188 474 "/>
    <path id="Block2Jump435"
        fill="none"
        stroke="#6A1C8A"
		stroke-width="2px"
		d="M 192 407 L 252 406 193 404 248 403 194 401 244 399 196 397 237 396 203 394 233 394 203 394 204 394 182 396 161 397 161 417 162 436 148 440 176 441 143 439 184 437 137 435 189 434 132 432 193 431 129 429 "/>
    <path id="Block2Jump476"
        fill="none"
        stroke="#6A1C8A"
		stroke-width="2px"
		d="M 131 359 L 192 358 134 355 189 354 138 352 184 351 143 349 175 347 161 346 161 346 " />
    <path id="Block3Jump477"
        fill="none"
        stroke="#435607"
		stroke-width="2px"
		d="M 326 179 L 334 193 342 208 351 223 331 220 320 204 311 194 301 184 293 185 304 201 289 170 311 204 289 161 301 182 315 205 309 193 291 161 309 193 315 205 321 216 326 228 300 215 317 240 304 212 324 245 307 210 330 247 315 221 310 208 323 232 335 249 314 206 320 217 340 248 328 228 339 251 320 217 313 204 320 217 340 250 328 228 309 193 291 157 297 168 317 203 336 238 346 251 325 214 306 179 296 157 314 189 333 224 340 237 346 251 353 264 333 267 333 270 332 263 339 273 334 260 345 275 337 256 351 277 340 253 357 279 343 250 362 280 346 247 362 281 340 240 318 199 296 158 314 189 333 224 352 259 367 281 360 269 341 234 322 199 302 159 310 175 330 210 349 245 372 282 357 255 338 220 318 185 307 160 326 196 346 231 365 266 377 283 354 241 334 206 315 171 312 161 323 182 342 217 362 251 382 284 370 262 351 227 331 192 317 162 339 202 359 237 378 272 387 284 367 248 347 213 328 178 318 163 339 202 359 237 378 272 387 284 367 248 347 213 328 178 314 149 336 188 355 223 375 258 392 285 383 269 363 234 344 199 325 164 314 141 333 174 352 209 371 244 397 285 379 254 360 219 341 184 321 149 318 140 329 160 349 195 368 230 388 265 402 286 396 275 376 240 357 205 337 170 322 139 345 181 365 216 384 251 407 287 392 261 373 226 353 191 334 156 326 138 342 166 362 201 381 236 400 271 411 287 389 247 370 212 350 177 331 137 339 152 358 187 378 222 397 257 416 288 405 268 386 233 366 198 347 163 335 138 355 173 374 208 394 243 413 278 421 288 402 253 382 218 363 183 344 148 340 139 352 159 371 194 390 229 410 264 425 287 418 274 399 239 379 204 360 169 346 140 368 180 387 215 407 250 428 285 415 260 395 225 376 190 356 155 352 144 364 165 384 200 403 235 423 270 431 282 411 246 392 211 373 176 352 135 361 151 381 186 400 221 419 256 434 279 427 267 408 232 389 197 369 162 356 134 377 172 397 207 416 242 438 277 424 252 405 217 385 182 366 147 362 136 374 158 393 193 413 228 432 263 441 274 421 238 401 203 382 168 367 137 390 179 410 214 429 249 444 271 437 259 418 224 398 189 379 154 373 139 387 164 406 199 426 234 447 268 434 245 414 210 395 175 378 141 384 150 403 185 422 220 442 255 450 265 430 231 411 196 392 161 376 128 400 171 419 206 438 241 453 263 446 251 427 216 408 181 388 147 373 114 396 157 416 192 435 227 456 260 443 237 424 202 404 167 385 132 373 106 393 143 412 178 432 213 451 248 459 257 440 223 420 188 401 153 382 118 374 100 390 129 409 164 429 199 448 233 462 254 456 244 437 209 417 174 398 139 378 99 386 114 406 149 425 184 445 219 464 251 453 230 433 195 414 160 395 125 382 98 403 135 422 170 441 205 461 240 467 248 449 216 430 181 411 146 391 111 386 98 399 121 419 156 438 191 457 226 470 245 446 201 427 166 407 131 384 86 396 107 415 142 435 177 454 212 473 242 462 222 443 187 423 152 404 117 382 74 393 93 412 128 431 163 451 198 476 239 459 208 440 173 420 138 401 103 382 65 389 78 409 113 428 148 448 183 467 218 479 236 456 194 436 159 417 124 397 89 383 58 406 99 425 134 444 169 464 204 482 233 472 215 452 180 433 145 414 110 394 75 384 52 402 85 422 120 441 155 460 190 485 229 468 200 449 165 430 130 410 95 391 60 385 46 399 71 418 106 438 141 457 176 477 211 487 226 465 186 446 151 426 116 407 81 387 41 396 57 415 92 434 127 454 162 473 197 490 223 481 207 462 172 442 137 423 102 404 67 389 36 412 77 431 112 451 147 470 182 493 220 478 193 459 158 439 123 420 88 400 53 391 32 408 63 428 98 447 133 467 168 486 203 496 217 475 179 455 144 436 109 417 74 397 39 394 28 405 49 425 84 444 119 463 154 483 189 498 213 491 199 471 164 452 129 433 94 413 60 399 29 421 70 441 105 460 140 479 175 501 210 488 185 468 150 449 115 429 80 410 45 404 30 418 56 437 91 457 126 476 161 496 196 504 206 484 171 465 136 445 101 426 66 409 31 415 42 434 77 453 112 473 146 492 181 506 203 500 192 481 157 462 122 442 87 423 52 412 28 431 62 450 97 470 132 489 167 509 199 497 178 478 143 458 108 439 73 419 38 414 24 428 48 447 83 466 118 486 153 505 188 512 196 494 163 474 129 455 94 436 59 417 21 424 34 444 69 463 104 482 139 502 174 514 192 490 149 471 114 452 79 432 44 420 17 440 55 460 90 479 125 499 160 517 189 507 170 487 135 468 100 448 65 429 30 422 14 437 41 456 76 476 111 495 146 519 185 503 156 484 121 464 86 445 51 425 10 434 26 453 61 473 96 492 131 511 166 522 181 500 142 481 107 461 72 442 37 428 7 450 47 469 82 489 117 508 152 525 178 516 163 497 128 477 93 458 58 439 23 430 4 447 33 466 68 485 103 505 138 527 174 513 148 493 113 474 78 455 43 433 0 443 19 463 54 482 89 501 124 521 159 530 170 510 134 490 99 471 64 451 29 441 7 459 40 479 75 498 110 518 145 497 106 476 67 455 28 452 23 455 28 448 19 453 28 459 40 479 75 498 110 518 145 532 167 526 155 506 120 487 85 467 50 457 27 475 60 495 95 514 130 535 163 522 141 503 106 484 71 464 36 460 25 472 46 492 81 511 116 530 151 537 160 519 127 500 92 480 57 463 22 469 32 488 67 508 102 527 137 540 156 516 112 496 77 477 42 467 20 485 53 504 88 524 123 542 152 532 133 512 98 493 63 474 28 473 23 482 40 489 47 473 23 490 57 489 57 512 98 532 133 543 153 532 133 512 98 492 57 501 74 521 109 545 148 529 119 509 84 496 55 517 94 537 129 547 145 525 105 506 70 499 53 514 80 533 115 512 72 506 62 509 60 503 52 512 72 499 54 509 72 533 115 550 141 541 126 522 91 512 69 530 101 552 137 538 111 519 76 514 64 527 87 546 122 555 134 535 97 515 58 523 73 543 108 557 130 551 118 532 83 517 54 540 94 560 126 548 104 528 69 520 49 536 79 556 114 562 122 544 90 522 46 533 65 552 100 565 118 541 76 525 42 549 86 567 114 557 96 538 61 530 43 546 72 570 111 554 82 539 51 562 93 572 107 551 68 541 46 559 78 574 103 567 89 547 54 543 42 555 64 577 99 563 75 545 38 552 50 571 85 579 95 560 60 548 34 568 71 582 91 576 81 557 46 551 31 565 57 584 87 573 67 554 28 562 42 587 83 570 53 557 25 578 63 589 80 566 39 560 23 574 49 591 76 582 59 563 21 571 35 594 72 579 45 567 19 587 56 596 68 576 31 570 17 584 41 599 64 592 52 583 32 601 60 587 30 604 56 591 29 606 52 594 27 608 48 598 26 611 44 602 24 613 41 606 23 615 37 609 21 618 33 613 20 620 29 617 18 623 25 620 16 625 21 623 17 626 20 628 20 621 22 628 24 619 26 627 28 616 30 627 32 614 34 627 36 611 38 627 40 609 42 627 44 607 46 626 48 604 50 626 52 602 54 626 56 599 58 626 60 597 62 626 64 635 62 628 62 643 64 626 62 642 64 629 64 594 66 616 66 642 68 592 70 630 70 641 72 617 72 589 74 604 74 640 76 613 77 587 78 618 78 639 80 605 80 584 82 611 83 638 84 619 84 582 86 606 86 638 88 593 88 579 90 620 90 637 92 607 92 577 94 594 94 636 96 621 96 574 98 608 98 636 100 595 100 572 102 582 102 622 102 635 104 609 104 569 106 596 106 634 108 623 108 583 108 567 110 610 110 634 112 597 112 564 114 584 114 634 116 611 116 562 118 598 118 640 120 625 120 585 120 559 122 572 122 612 122 645 124 599 124 557 126 586 126 626 126 644 128 613 128 573 128 554 130 600 130 642 132 627 132 587 132 551 134 574 134 614 134 639 136 601 136 561 136 549 138 588 138 637 140 615 140 575 140 546 142 562 142 602 142 634 144 589 144 543 146 576 146 616 146 632 148 603 148 563 148 541 150 590 150 630 152 617 152 577 152 538 154 564 154 604 154 631 155 659 156 631 156 591 156 551 156 535 158 578 158 618 158 663 160 645 160 605 160 565 160 533 162 552 162 592 162 632 162 663 164 619 164 579 164 530 166 566 166 606 166 646 166 663 168 633 168 593 168 553 168 527 170 540 170 580 170 620 170 663 172 647 172 607 172 567 172 525 174 554 174 594 174 634 174 663 176 621 176 581 176 541 176 522 178 568 178 608 178 648 178 672 180 635 180 595 180 555 180 519 182 542 182 582 182 622 182 662 182 682 184 649 184 609 184 569 184 529 184 516 186 556 186 596 186 636 186 676 186 692 188 663 188 623 188 583 188 543 188 513 190 530 190 570 190 610 190 650 190 694 192 677 192 637 192 597 192 557 192 510 194 544 194 584 194 624 194 664 194 693 196 651 196 611 196 571 196 531 196 507 198 518 198 558 198 598 198 638 198 678 198 692 200 665 200 625 200 585 200 545 200 504 202 532 202 572 202 612 202 652 202 690 204 679 204 639 204 599 204 559 204 519 204 501 206 546 206 586 206 626 206 666 206 689 208 653 208 613 208 573 208 533 208 498 210 520 210 560 210 600 210 640 210 680 210 692 212 667 212 627 212 587 212 547 212 507 212 495 214 534 214 574 214 614 214 654 214 696 216 681 216 641 216 601 216 561 216 521 216 491 218 508 218 548 218 588 218 628 218 668 218 700 220 655 220 615 220 575 220 535 220 488 222 522 222 562 222 602 222 642 222 682 222 704 224 669 224 629 224 589 224 549 224 509 224 485 226 496 226 536 226 576 226 616 226 656 226 707 228 683 228 643 228 603 228 563 228 523 228 481 230 510 230 550 230 590 230 630 230 670 230 711 232 697 232 657 232 617 232 577 232 537 232 497 232 477 234 524 234 564 234 604 234 644 234 684 234 714 236 671 236 631 236 591 236 551 236 511 236 474 238 498 238 538 238 578 238 618 238 658 238 698 238 707 240 685 240 645 240 605 240 565 240 525 240 485 240 470 242 512 242 552 242 592 242 632 242 672 242 699 244 659 244 619 244 579 244 539 244 499 244 466 246 486 246 526 246 566 246 606 246 646 246 692 248 673 248 633 248 593 248 553 248 513 248 463 250 500 250 540 250 580 250 620 250 660 250 684 252 647 252 607 252 567 252 527 252 487 252 459 254 474 254 514 254 554 254 594 254 634 254 679 256 661 256 621 256 581 256 541 256 501 256 455 258 488 258 528 258 568 258 608 258 648 258 681 260 635 260 595 260 555 260 515 260 475 260 451 262 462 262 502 262 542 262 582 262 622 262 662 262 683 264 649 264 609 264 569 264 529 264 489 264 447 266 476 266 516 266 556 266 596 266 636 266 684 268 663 268 623 268 583 268 543 268 503 268 463 268 442 270 490 270 530 270 570 270 610 270 650 270 674 272 637 272 597 272 557 272 517 272 477 272 437 274 464 274 504 274 544 274 584 274 624 274 657 276 611 276 571 276 531 276 491 276 451 276 432 278 478 278 518 278 558 278 598 278 638 278 641 280 625 280 585 280 600 289 616 298 618 300 596 298 635 296 601 296 586 294 614 294 635 292 606 291 578 290 600 290 634 288 613 288 572 286 586 286 633 284 599 284 567 282 612 282 641 280 625 280 585 280 565 278 598 278 641 278 598 278 565 278 549 279 532 279 516 280 499 280 500 296 500 311 501 325 487 330 473 334 459 338 454 350 462 348 451 346 466 344 449 342 469 340 447 338 471 336 489 337 508 338 500 356 513 368 503 366 513 364 496 362 513 360 490 358 513 356 488 354 499 355 511 355 528 356 540 372 545 372 533 370 545 368 525 366 545 364 519 362 545 360 514 358 545 356 511 354 546 356 516 355 485 354 504 354 545 352 517 352 481 350 530 350 545 348 503 348 477 346 516 346 545 344 529 344 489 344 474 342 502 342 545 340 515 340 471 338 488 338 528 338 543 338 556 338 564 340 547 338 565 336 546 338 564 336 541 336 501 336 461 336 445 334 474 334 514 334 563 332 527 332 487 332 443 330 460 330 500 330 540 330 563 328 513 328 473 328 441 326 486 326 526 326 562 324 539 324 499 324 459 324 439 322 472 322 512 322 561 320 525 320 485 320 437 318 458 318 498 318 538 318 560 316 511 316 471 316 435 314 484 314 524 314 559 312 537 312 497 312 457 312 433 310 470 310 510 310 559 308 523 308 483 308 443 308 431 306 456 306 496 306 536 306 560 304 549 304 509 304 469 304 430 304 469 304 509 304 549 304 560 304 567 306 575 308 558 306 575 304 557 306 574 304 549 304 509 304 469 304 429 302 442 302 482 302 522 302 562 302 574 300 535 300 495 300 455 300 427 298 468 298 508 298 548 298 573 296 561 296 521 296 481 296 441 296 426 294 454 294 494 294 534 294 571 292 547 292 507 292 467 292 424 290 440 290 480 290 520 290 560 290 570 288 533 288 493 288 453 288 423 286 466 286 506 286 546 286 569 284 519 284 479 284 439 284 428 282 452 282 492 282 532 282 568 280 545 280 505 280 465 280 431 278 478 278 518 278 558 278 566 280 566 280 " />
    <path id="Block4Jump478"
        fill="none"
        stroke="#293133"
		stroke-width="2px"
		d="M 581 292 L 594 303 608 313 621 324 635 334 650 329 666 324 675 313 685 303 694 292 696 276 699 260 715 260 705 254 714 264 693 250 712 268 686 249 710 272 682 251 709 275 679 254 707 279 680 260 705 283 681 266 683 268 694 275 704 283 716 291 732 286 735 291 724 285 732 295 716 284 730 298 708 283 727 301 703 284 729 302 705 284 682 267 705 285 725 304 693 278 680 270 713 297 723 307 702 290 674 271 690 284 720 310 710 302 669 272 699 296 718 314 687 289 664 273 676 282 707 307 715 317 696 301 659 274 684 294 715 322 704 313 673 288 654 275 693 306 718 329 681 299 650 276 670 293 701 318 721 337 690 311 658 286 645 278 678 305 709 330 719 340 698 323 667 298 640 279 655 292 687 317 715 342 706 335 675 310 635 280 664 303 695 329 711 344 684 322 652 297 631 282 641 290 672 315 707 346 692 334 661 309 632 288 649 302 681 327 703 348 669 321 633 294 658 314 689 339 700 350 678 333 647 307 631 298 666 326 696 353 686 345 655 319 626 299 644 313 675 338 693 355 663 331 632 306 621 299 652 325 683 350 693 361 672 343 641 318 615 300 629 311 660 337 694 366 680 355 649 330 609 300 638 323 669 348 694 372 657 342 626 317 601 299 615 310 646 335 677 360 694 376 666 354 635 329 613 313 592 296 623 322 654 347 689 378 674 366 643 341 612 315 579 291 600 309 632 334 663 359 635 336 608 313 580 290 611 315 643 340 674 366 689 378 674 366 643 341 612 315 589 298 566 281 600 309 632 334 663 359 684 379 651 352 620 327 589 302 568 287 578 295 609 321 640 346 671 371 680 381 660 364 629 339 597 314 569 294 586 307 617 333 648 358 675 382 637 351 606 326 571 300 594 319 626 344 657 370 670 383 645 363 614 338 583 313 572 307 603 331 634 356 667 386 654 375 623 350 591 325 567 308 580 318 611 343 642 368 676 398 662 387 631 362 600 337 579 321 558 305 588 330 620 355 651 380 680 407 670 399 639 374 608 348 577 323 556 309 566 317 597 342 628 367 659 392 678 410 648 386 617 360 585 335 558 315 574 329 605 354 636 379 667 404 675 413 656 397 625 372 594 347 559 321 582 340 614 366 645 391 673 417 664 409 633 384 602 359 571 334 560 328 591 352 622 378 653 403 671 420 642 396 611 371 579 346 561 334 599 364 630 389 661 415 678 430 650 408 619 383 588 358 563 340 576 351 608 376 639 401 670 427 684 441 658 420 627 395 596 370 555 339 585 363 616 388 647 413 678 438 684 446 667 432 636 407 605 382 573 356 547 337 562 350 593 375 624 400 655 425 681 449 644 419 613 393 582 368 551 343 542 339 570 362 602 387 633 412 664 437 678 451 652 431 621 405 590 380 559 355 542 344 579 374 610 399 641 424 675 454 661 442 630 417 599 392 567 367 542 349 556 360 587 385 618 411 649 436 671 456 638 429 607 404 576 379 542 354 564 372 596 397 627 423 658 448 670 460 646 441 615 416 584 391 553 366 542 359 573 384 604 409 635 434 670 465 655 453 624 428 593 403 561 378 542 365 550 371 581 396 612 421 643 446 670 471 632 440 601 415 570 389 542 370 558 383 590 408 621 433 652 458 670 476 640 452 609 427 578 401 539 372 567 395 598 420 629 445 660 470 670 481 649 464 618 438 587 413 555 388 518 360 544 381 575 407 606 432 637 457 670 486 657 476 626 450 595 425 564 400 533 375 510 359 521 368 552 393 584 419 615 444 646 469 669 490 634 462 603 437 572 412 541 387 510 364 530 380 561 405 592 430 623 456 654 481 660 488 643 474 612 449 581 424 549 399 518 374 505 366 538 392 569 417 600 442 631 468 650 486 620 461 589 436 558 411 527 385 496 363 515 379 546 404 578 429 609 454 595 443 581 431 567 420 553 408 539 397 526 386 512 374 498 363 482 350 474 343 470 337 480 347 467 340 481 348 467 340 484 354 515 379 546 404 578 429 609 454 641 483 628 473 597 448 566 423 535 397 504 372 464 343 493 366 524 391 555 416 586 441 617 466 634 483 606 460 575 434 543 409 512 384 481 359 462 346 470 352 501 377 532 403 563 428 594 453 632 486 614 472 583 446 552 421 521 396 490 371 459 349 478 364 509 389 540 415 572 440 603 465 630 490 591 458 560 433 529 408 498 383 467 358 456 352 487 376 518 401 549 426 580 452 611 477 628 493 600 470 569 445 537 420 506 395 475 370 487 379 500 389 512 399 524 409 514 406 504 403 492 394 479 385 473 397 466 409 451 398 435 386 420 375 412 370 404 371 413 376 405 366 419 376 406 363 420 374 433 385 446 396 459 407 472 418 468 438 457 448 441 445 425 442 426 459 419 450 430 456 416 443 433 454 414 436 437 452 415 431 426 441 437 450 451 462 465 474 452 472 442 479 456 488 441 473 460 486 439 466 464 484 438 460 468 482 477 492 482 501 489 504 465 482 491 501 464 481 491 501 481 493 450 467 437 454 461 474 493 497 473 481 436 449 453 462 484 487 496 497 484 487 453 462 436 449 435 450 473 481 495 498 473 481 443 455 413 430 422 437 453 462 484 487 496 494 464 469 433 444 412 424 445 450 476 475 498 491 487 482 456 457 425 432 412 418 436 438 467 464 501 488 479 470 448 445 411 413 428 426 459 452 490 477 503 485 470 458 439 433 411 408 420 415 451 440 482 465 505 481 493 471 462 446 431 421 412 403 442 428 473 453 513 482 485 460 454 434 423 409 413 399 434 416 465 441 496 466 523 485 508 473 476 448 445 422 414 394 426 404 457 429 488 454 523 480 499 461 468 436 437 411 415 390 448 417 479 442 510 468 524 476 491 449 460 424 429 399 416 386 440 405 471 430 502 456 524 471 513 462 482 437 451 412 417 381 432 393 463 419 494 444 525 466 505 450 474 425 443 400 418 377 454 407 485 432 516 457 526 462 497 438 466 413 435 388 419 373 446 395 477 420 508 445 478 421 448 398 417 374 454 403 490 433 526 462 497 438 466 413 435 388 406 362 415 370 446 395 477 420 508 445 526 457 488 426 457 401 426 376 407 358 438 383 469 408 500 433 533 457 511 440 480 415 449 389 418 364 408 354 429 371 460 396 491 421 522 446 541 458 503 428 472 403 441 377 409 350 421 359 452 384 483 409 514 434 541 454 525 441 494 416 463 391 432 366 411 345 444 372 475 397 506 423 541 449 517 429 486 404 455 379 424 354 412 342 435 360 466 385 497 411 528 436 542 444 509 417 478 392 447 367 414 338 427 348 458 374 489 399 520 424 542 439 531 430 500 405 469 380 438 355 416 334 450 362 481 387 512 412 544 436 523 419 492 393 461 368 430 343 416 332 430 343 461 368 492 393 523 419 544 436 553 444 562 453 568 472 559 466 578 478 553 456 580 475 547 446 582 471 563 456 541 436 574 462 585 468 554 444 540 435 574 462 584 468 554 444 523 419 492 393 461 368 430 343 417 330 441 350 472 375 503 400 534 425 566 450 597 475 626 496 608 482 577 457 546 432 515 407 484 381 453 356 419 327 433 338 464 363 495 388 526 413 557 438 588 464 628 493 600 470 569 445 537 420 506 395 475 370 444 344 420 322 419 324 444 344 456 354 444 344 421 323 453 346 436 332 422 319 448 337 424 315 444 329 426 311 440 321 427 308 436 312 429 304 430 305 430 305 " />
    <path id="Block5Jump479"
        fill="none"
        stroke="#70BC1F"
		stroke-width="2px"
		d="M 375 281 L 360 278 344 274 330 267 338 258 345 249 331 247 318 240 307 230 298 218 308 212 317 205 303 200 294 188 291 173 290 158 305 161 320 164 316 154 313 144 327 138 342 140 356 147 352 133 367 138 382 143 377 130 374 116 374 101 389 99 385 85 383 71 384 56 388 42 394 29 410 32 418 22 426 12 434 1 443 9 450 19 456 30 470 20 480 31 487 44 491 59 507 51 510 63 512 76 514 63 520 51 528 41 539 53 546 38 558 26 574 17 579 26 584 34 598 28 612 22 626 16 625 32 624 48 623 64 641 62 639 75 636 89 634 102 631 116 645 125 639 135 632 145 625 155 642 156 660 156 662 167 663 177 679 184 694 190 691 199 687 208 695 217 704 227 713 236 701 242 690 249 678 255 684 269 671 272 658 275 645 279 632 282 634 297 620 300 605 300 591 297 579 289 567 281 571 296 574 311 556 305 559 317 561 329 561 324 577 327 593 327 609 326 599 326 616 330 631 338 643 350 631 338 643 350 631 338 616 330 631 338 616 330 599 326 616 330 599 326 609 326 624 323 639 319 641 319 656 310 669 298 678 284 669 298 678 284 669 298 656 310 669 298 656 310 641 319 656 310 641 319 658 321 673 328 687 339 673 328 687 339 673 328 658 321 673 328 658 321 641 319 658 321 641 319 639 319 654 314 670 310 684 304 698 296 684 304 698 296 684 304 670 310 684 304 670 310 654 314 670 310 654 314 639 319 654 314 639 319 624 323 639 319 624 323 609 326 624 323 609 326 593 327 609 326 593 327 577 327 593 327 577 327 561 324 577 327 561 324 561 329 563 342 553 339 543 337 544 338 552 353 561 367 571 381 582 394 585 397 590 410 593 423 594 436 595 449 594 436 595 449 594 436 593 423 594 436 593 423 590 410 593 423 590 410 585 397 590 410 585 397 582 394 571 381 561 367 552 353 552 353 554 355 566 365 579 375 594 381 610 386 625 390 610 386 625 390 610 386 594 381 610 386 594 381 579 375 594 381 579 375 566 365 579 375 566 365 554 355 566 365 554 355 552 353 556 368 560 383 565 398 568 413 568 428 568 413 568 428 568 413 565 398 568 413 565 398 560 383 565 398 560 383 556 368 560 383 556 368 552 353 556 368 552 353 552 353 561 367 571 381 582 394 594 406 607 417 605 415 620 418 636 418 651 412 636 418 651 412 636 418 620 418 636 418 620 418 605 415 620 418 605 415 613 430 614 447 606 462 614 447 606 462 614 447 613 430 614 447 613 430 605 415 613 430 605 415 607 417 620 428 632 441 642 452 632 441 642 452 632 441 620 428 632 441 620 428 607 417 620 428 607 417 594 406 607 417 594 406 582 394 594 406 582 394 571 381 582 394 571 381 561 367 571 381 561 367 552 353 561 367 552 353 544 338 552 353 544 338 543 337 543 349 543 362 543 374 532 369 522 362 512 355 511 369 496 361 483 350 471 336 464 345 468 340 469 356 470 371 472 387 471 388 469 404 466 420 461 435 466 420 461 435 466 420 469 404 466 420 469 404 471 388 469 404 471 388 472 387 470 371 469 356 469 352 469 351 474 366 481 381 491 394 501 407 513 418 501 407 513 418 501 407 491 394 501 407 491 394 481 381 491 394 481 381 474 366 481 381 474 366 469 351 474 366 469 351 469 352 465 366 459 380 451 392 441 402 451 392 441 402 451 392 459 380 451 392 459 380 465 366 459 380 465 366 469 352 465 366 469 352 469 356 470 371 472 387 475 402 476 405 482 419 489 432 497 444 489 432 497 444 489 432 482 419 489 432 482 419 476 405 482 419 476 405 475 402 478 418 479 433 480 449 481 464 480 449 481 464 480 449 479 433 480 449 479 433 478 418 479 433 478 418 475 402 478 418 475 402 472 387 475 402 472 387 470 371 472 387 470 371 469 356 470 371 469 356 468 340 469 356 468 340 464 345 471 336 483 350 496 361 511 369 512 355 522 362 532 369 543 374 543 362 543 349 543 337 553 339 563 342 561 329 559 317 556 305 574 311 571 296 567 281 579 289 591 297 605 300 620 300 634 297 632 282 645 279 658 275 671 272 684 269 678 255 690 249 691 249 703 254 715 258 709 271 704 283 721 285 736 288 728 298 720 308 712 318 717 328 721 337 706 345 692 353 692 364 693 375 679 380 665 384 672 394 680 403 670 419 677 431 685 444 677 450 669 456 669 473 669 490 657 487 645 484 634 481 629 489 623 498 610 488 597 477 585 466 574 480 563 470 555 459 548 447 541 435 540 448 540 460 526 453 524 469 521 485 505 479 496 492 486 504 476 493 465 482 450 489 443 477 439 464 437 450 424 459 418 443 414 426 413 410 415 393 420 375 403 376 407 360 412 346 418 331 424 317 431 303 424 317 431 303 424 317 418 331 424 317 418 331 412 346 418 331 412 346 407 360 412 346 407 360 403 376 407 360 403 376 420 375 403 376 420 375 415 393 420 375 415 393 413 410 415 393 413 410 414 426 413 410 414 426 418 443 414 426 418 443 424 459 418 443 424 459 437 450 424 459 437 450 439 464 437 450 439 464 443 477 439 464 443 477 450 489 443 477 450 489 465 482 450 489 465 482 476 493 465 482 476 493 486 504 476 493 486 504 496 492 486 504 496 492 505 479 496 492 505 479 521 485 505 479 521 485 524 469 521 485 524 469 526 453 524 469 526 453 540 460 526 453 540 460 540 448 540 460 540 448 541 435 540 448 541 435 548 447 541 435 548 447 555 459 548 447 555 459 563 470 555 459 563 470 574 480 563 470 574 480 585 466 574 480 585 466 597 477 585 466 597 477 610 488 597 477 610 488 623 498 610 488 623 498 629 489 623 498 629 489 634 481 629 489 634 481 645 484 634 481 645 484 657 487 645 484 657 487 669 490 657 487 669 490 669 473 669 490 669 473 669 456 669 473 669 456 677 450 669 456 677 450 685 444 677 450 685 444 677 431 685 444 677 431 670 419 677 431 670 419 680 403 670 419 680 403 672 394 680 403 672 394 665 384 672 394 665 384 679 380 665 384 679 380 693 375 679 380 693 375 692 364 693 375 692 364 692 353 692 364 692 353 706 345 692 353 706 345 721 337 706 345 721 337 717 328 721 337 717 328 712 318 717 328 712 318 720 308 712 318 720 308 728 298 720 308 728 298 736 288 728 298 736 288 721 285 736 288 721 285 704 283 721 285 704 283 709 271 704 283 709 271 715 258 709 271 715 258 703 254 715 258 703 254 691 249 703 254 691 249 690 249 701 242 713 236 704 227 695 217 687 208 691 199 694 190 679 184 663 177 662 167 660 156 642 156 625 155 632 145 639 135 645 125 631 116 634 102 636 89 639 75 641 62 623 64 624 48 625 32 626 16 612 22 598 28 584 34 579 26 574 17 558 26 546 38 539 53 528 41 520 51 514 63 512 76 510 63 507 51 491 59 487 44 480 31 470 20 456 30 450 19 443 9 434 1 426 12 418 22 410 32 394 29 388 42 384 56 383 71 385 85 389 99 374 101 374 116 377 130 382 143 367 138 352 133 356 147 342 140 327 138 313 144 316 154 320 164 305 161 290 158 291 173 294 188 303 200 317 205 308 212 298 218 307 230 318 240 331 247 345 249 338 258 330 267 344 274 360 278 375 281 391 284 407 286 423 288 435 277 447 266 451 266 454 269 467 279 479 288 491 298 488 296 501 302 515 307 529 311 543 313 529 311 543 313 529 311 515 307 529 311 515 307 501 302 515 307 501 302 488 296 501 302 488 296 490 310 490 324 489 338 490 324 489 338 490 324 490 310 490 324 490 310 488 296 490 310 488 296 491 298 503 309 513 321 522 334 531 347 522 334 531 347 522 334 513 321 522 334 513 321 503 309 513 321 503 309 491 298 503 309 491 298 479 288 491 298 479 288 467 279 479 288 467 279 454 269 467 279 454 269 451 266 464 272 478 277 492 281 506 283 521 285 535 285 521 285 535 285 521 285 506 283 521 285 506 283 492 281 506 283 492 281 478 277 492 281 478 277 464 272 478 277 464 272 451 266 464 272 451 266 458 279 462 293 465 307 464 322 465 307 464 322 465 307 462 293 465 307 462 293 458 279 462 293 458 279 451 266 458 279 451 266 447 266 459 255 471 243 467 250 481 242 497 235 502 236 486 241 502 236 486 241 502 236 519 234 536 236 552 242 567 249 582 258 596 268 582 258 596 268 582 258 567 249 582 258 567 249 552 242 567 249 552 242 536 236 552 242 536 236 519 234 536 236 519 234 502 236 519 234 502 236 497 235 513 230 530 226 547 224 547 225 563 219 579 213 594 205 608 195 620 183 608 195 620 183 608 195 594 205 608 195 594 205 579 213 594 205 579 213 563 219 579 213 563 219 547 225 563 219 547 225 561 229 575 233 589 239 602 245 615 252 625 263 615 252 625 263 615 252 602 245 615 252 602 245 589 239 602 245 589 239 575 233 589 239 575 233 561 229 575 233 561 229 547 225 561 229 547 225 547 224 564 224 581 225 598 226 615 227 611 227 624 221 638 215 651 209 638 215 651 209 638 215 624 221 638 215 624 221 611 227 624 221 611 227 624 233 636 240 647 249 657 258 647 249 657 258 647 249 636 240 647 249 636 240 624 233 636 240 624 233 611 227 624 233 611 227 615 227 632 229 648 232 665 236 682 238 665 236 682 238 665 236 648 232 665 236 648 232 632 229 648 232 632 229 615 227 632 229 615 227 598 226 615 227 598 226 581 225 598 226 581 225 564 224 581 225 564 224 547 224 564 224 547 224 530 226 547 224 530 226 513 230 530 226 513 230 497 235 513 230 497 235 481 242 497 235 481 242 467 250 481 242 467 250 471 243 482 231 492 219 502 206 512 193 521 180 519 183 533 176 546 170 560 164 574 159 589 155 603 153 589 155 603 153 589 155 574 159 589 155 574 159 560 164 574 159 560 164 546 170 560 164 546 170 533 176 546 170 533 176 519 183 533 176 519 183 528 168 533 152 534 135 533 118 533 101 532 85 533 101 532 85 533 101 533 118 533 101 533 118 534 135 533 118 534 135 533 152 534 135 533 152 528 168 533 152 528 168 519 183 528 168 519 183 521 180 531 167 540 153 549 140 558 126 556 129 572 119 586 110 602 104 619 102 602 104 619 102 602 104 586 110 602 104 586 110 572 119 586 110 572 119 556 129 572 119 556 129 560 113 563 97 564 81 566 64 564 81 566 64 564 81 563 97 564 81 563 97 560 113 563 97 560 113 556 129 560 113 556 129 558 126 549 140 540 153 531 167 521 180 512 193 502 206 492 219 482 231 471 243 459 255 447 266 442 271 448 256 453 241 457 225 459 209 461 192 461 200 466 186 471 172 476 158 483 144 491 131 500 119 491 131 500 119 491 131 483 144 491 131 483 144 476 158 483 144 476 158 471 172 476 158 471 172 466 186 471 172 466 186 461 200 466 186 461 200 456 186 449 173 441 161 432 149 422 138 413 126 422 138 413 126 422 138 432 149 422 138 432 149 441 161 432 149 441 161 449 173 441 161 449 173 456 186 449 173 456 186 461 200 456 186 461 200 461 192 461 176 461 160 460 144 460 142 461 127 461 111 466 97 473 83 483 71 473 83 483 71 473 83 466 97 473 83 466 97 461 111 466 97 461 111 461 127 461 111 461 127 460 142 461 127 460 142 453 128 445 114 435 102 425 90 414 79 425 90 414 79 425 90 435 102 425 90 435 102 445 114 435 102 445 114 453 128 445 114 453 128 460 142 453 128 460 142 460 144 458 127 455 111 451 95 446 80 440 65 434 50 440 65 434 50 440 65 446 80 440 65 446 80 451 95 446 80 451 95 455 111 451 95 455 111 458 127 455 111 458 127 460 144 458 127 460 144 461 160 460 144 461 160 461 176 461 160 461 176 461 192 461 176 461 192 459 209 461 192 459 209 457 225 459 209 457 225 453 241 457 225 453 241 448 256 453 241 448 256 442 271 448 256 442 271 447 266 435 277 440 272 435 256 427 241 429 246 422 232 415 218 408 204 401 190 395 176 390 161 395 176 390 161 395 176 401 190 395 176 401 190 408 204 401 190 408 204 415 218 408 204 415 218 422 232 415 218 422 232 429 246 422 232 429 246 417 239 404 233 389 230 375 231 361 233 375 231 361 233 375 231 389 230 375 231 389 230 404 233 389 230 404 233 417 239 404 233 417 239 429 246 417 239 429 246 427 241 416 229 403 218 388 210 391 212 382 200 372 189 362 178 350 169 362 178 350 169 362 178 372 189 362 178 372 189 382 200 372 189 382 200 391 212 382 200 391 212 378 211 364 213 351 218 340 225 351 218 340 225 351 218 364 213 351 218 364 213 378 211 364 213 378 211 391 212 378 211 391 212 388 210 373 204 357 200 340 196 324 193 340 196 324 193 340 196 357 200 340 196 357 200 373 204 357 200 373 204 388 210 373 204 388 210 403 218 388 210 403 218 416 229 403 218 416 229 427 241 416 229 427 241 435 256 427 241 435 256 440 272 435 256 440 272 435 277 447 266 459 255 471 243 482 231 492 219 502 206 512 193 521 180 531 167 540 153 549 140 558 126 567 113 576 99 585 85 593 71 602 57 610 43 618 29 626 15 618 29 626 15 618 29 610 43 618 29 610 43 602 57 610 43 602 57 593 71 602 57 593 71 585 85 593 71 585 85 576 99 585 85 576 99 567 113 576 99 567 113 558 126 567 113 558 126 549 140 558 126 549 140 540 153 549 140 540 153 531 167 540 153 531 167 521 180 531 167 521 180 512 193 521 180 512 193 502 206 512 193 502 206 492 219 502 206 492 219 482 231 492 219 482 231 471 243 482 231 471 243 459 255 471 243 459 255 447 266 459 255 447 266 435 277 447 266 435 277 423 288 435 277 423 288 407 286 423 288 407 286 391 284 407 286 391 284 375 281 391 284 375 281 360 278 375 281 360 278 344 274 360 278 344 274 330 267 344 274 330 267 338 258 330 267 338 258 345 249 338 258 345 249 331 247 345 249 331 247 318 240 331 247 318 240 307 230 318 240 307 230 298 218 307 230 298 218 308 212 298 218 308 212 317 205 308 212 317 205 303 200 317 205 303 200 294 188 303 200 294 188 291 173 294 188 291 173 290 158 291 173 290 158 305 161 290 158 305 161 320 164 305 161 320 164 316 154 320 164 316 154 313 144 316 154 313 144 327 138 313 144 327 138 342 140 327 138 342 140 356 147 342 140 356 147 352 133 356 147 352 133 367 138 352 133 367 138 382 143 367 138 382 143 377 130 382 143 377 130 374 116 377 130 374 116 374 101 374 116 374 101 389 99 374 101 389 99 385 85 389 99 385 85 383 71 385 85 383 71 384 56 383 71 384 56 388 42 384 56 388 42 394 29 388 42 394 29 410 32 394 29 410 32 418 22 410 32 418 22 426 12 418 22 426 12 434 1 426 12 434 1 443 9 434 1 443 9 450 19 443 9 450 19 456 30 450 19 456 30 470 20 456 30 470 20 480 31 470 20 480 31 487 44 480 31 487 44 491 59 487 44 491 59 507 51 491 59 507 51 510 63 507 51 510 63 512 76 510 63 512 76 514 63 512 76 514 63 520 51 514 63 520 51 528 41 520 51 528 41 539 53 528 41 539 53 546 38 539 53 546 38 558 26 546 38 558 26 574 17 558 26 574 17 579 26 574 17 579 26 584 34 579 26 584 34 598 28 584 34 598 28 612 22 598 28 612 22 626 16 612 22 626 16 625 32 626 16 625 32 624 48 625 32 624 48 623 64 624 48 623 64 641 62 623 64 641 62 639 75 641 62 639 75 636 89 639 75 636 89 634 102 636 89 634 102 631 116 634 102 631 116 645 125 631 116 645 125 639 135 645 125 639 135 632 145 639 135 632 145 625 155 632 145 625 155 642 156 625 155 642 156 660 156 642 156 660 156 662 167 660 156 662 167 663 177 662 167 663 177 679 184 663 177 679 184 694 190 679 184 694 190 691 199 694 190 691 199 687 208 691 199 687 208 695 217 687 208 695 217 704 227 695 217 704 227 713 236 704 227 713 236 701 242 713 236 701 242 690 249 701 242 690 249 678 255 690 249 678 255 684 269 678 255 684 269 671 272 684 269 671 272 658 275 671 272 658 275 645 279 658 275 645 279 632 282 645 279 632 282 634 297 632 282 634 297 620 300 634 297 620 300 605 300 620 300 605 300 591 297 605 300 591 297 579 289 591 297 579 289 567 281 579 289 567 281 571 296 567 281 571 296 574 311 571 296 574 311 556 305 574 311 556 305 559 317 556 305 559 317 561 329 559 317 561 329 563 342 561 329 563 342 553 339 563 342 553 339 543 337 553 339 543 337 543 349 543 337 543 349 543 362 543 349 543 362 543 374 543 362 543 374 532 369 543 374 532 369 522 362 532 369 522 362 512 355 522 362 512 355 511 369 512 355 511 369 496 361 511 369 496 361 483 350 496 361 483 350 471 336 483 350 471 336 464 345 471 336 464 345 457 353 464 345 457 353 449 340 457 353 449 340 443 327 449 340 443 327 437 313 443 327 437 313 430 300 437 313 430 300 423 287 430 300 423 287 430 300 430 300 " />
    <path id="Block6Jump480"
        fill="none"
        stroke="#293133"
		stroke-width="2px"
		d="M 55 366 L 62 380 73 392 62 380 73 392 62 380 55 366 62 380 55 366 52 350 55 366 52 350 55 335 52 350 55 335 63 321 55 335 63 321 75 310 63 321 75 310 90 305 75 310 90 305 105 307 90 305 105 307 119 315 105 307 119 315 128 328 119 315 128 328 133 343 128 328 133 343 133 359 133 343 133 359 132 362 124 376 124 382 107 379 91 381 77 390 67 404 60 419 59 435 63 451 73 465 87 474 103 476 119 470 103 476 119 470 103 476 87 474 103 476 87 474 73 465 87 474 73 465 63 451 73 465 63 451 59 435 63 451 59 435 60 419 59 435 60 419 67 404 60 419 67 404 77 390 67 404 77 390 91 381 77 390 91 381 107 379 91 381 107 379 124 382 107 379 124 382 124 376 120 392 121 409 128 424 132 429 124 443 119 459 119 475 125 491 135 503 141 509 130 520 124 536 123 553 128 569 139 582 154 591 160 592 161 607 166 622 175 634 188 643 203 646 218 643 231 635 240 622 242 607 240 622 242 607 240 622 231 635 240 622 231 635 218 643 231 635 218 643 203 646 218 643 203 646 188 643 203 646 188 643 175 634 188 643 175 634 166 622 175 634 166 622 161 607 166 622 161 607 160 592 161 607 160 592 154 591 171 591 187 585 199 574 204 557 199 574 204 557 199 574 187 585 199 574 187 585 171 591 187 585 171 591 154 591 171 591 154 591 139 582 154 591 139 582 128 569 139 582 128 569 123 553 128 569 123 553 124 536 123 553 124 536 130 520 124 536 130 520 141 509 130 520 141 509 135 503 149 512 165 515 180 508 179 510 179 526 186 542 198 553 213 560 216 560 217 576 223 590 235 602 249 608 265 608 280 604 291 592 295 577 297 561 295 545 287 531 280 527 296 525 310 518 320 506 326 491 326 475 326 491 326 475 326 491 320 506 326 491 320 506 310 518 320 506 310 518 296 525 310 518 296 525 280 527 296 525 280 527 287 531 275 521 259 518 275 521 259 518 275 521 287 531 275 521 287 531 295 545 287 531 295 545 297 561 295 545 297 561 295 577 297 561 295 577 291 592 295 577 291 592 280 604 291 592 280 604 265 608 280 604 265 608 249 608 265 608 249 608 235 602 249 608 235 602 223 590 235 602 223 590 217 576 223 590 217 576 216 560 217 576 216 560 213 560 230 561 245 554 255 540 258 524 258 507 255 491 245 477 255 491 245 477 255 491 258 507 255 491 258 507 258 524 258 507 258 524 255 540 258 524 255 540 245 554 255 540 245 554 230 561 245 554 230 561 213 560 230 561 213 560 198 553 213 560 198 553 186 542 198 553 186 542 179 526 186 542 179 526 179 510 179 526 179 510 183 493 193 480 183 493 193 480 183 493 179 510 183 493 179 510 180 508 165 515 180 508 165 515 149 512 165 515 149 512 135 503 149 512 135 503 125 491 135 503 125 491 119 475 125 491 119 475 119 459 119 475 119 459 124 443 119 459 124 443 132 429 124 443 132 429 128 424 121 409 120 392 124 376 132 362 143 350 159 345 175 348 188 358 197 372 200 388 197 372 200 388 197 372 188 358 197 372 188 358 175 348 188 358 175 348 159 345 175 348 159 345 143 350 159 345 143 350 132 362 143 350 132 362 124 376 132 362 124 376 120 392 124 376 120 392 121 409 120 392 121 409 128 424 121 409 128 424 140 435 128 424 140 435 155 442 140 435 155 442 171 442 155 442 171 442 186 435 171 442 186 435 196 422 186 435 196 422 201 406 196 422 201 406 200 390 201 406 200 390 201 396 217 392 201 396 217 392 233 394 217 392 233 394 247 404 254 418 259 434 260 450 255 466 244 478 230 486 213 487 198 481 187 469 181 454 183 438 181 454 183 438 181 454 187 469 181 454 187 469 198 481 187 469 198 481 213 487 198 481 213 487 230 486 213 487 230 486 244 478 230 486 244 478 255 466 244 478 255 466 260 450 255 466 260 450 259 434 260 450 259 434 254 418 259 434 254 418 247 404 254 418 247 404 233 394 247 404 233 394 237 397 240 381 248 367 260 357 276 354 283 356 284 339 283 323 279 307 268 293 254 285 237 285 222 291 210 303 204 318 198 321 187 334 179 349 187 334 179 349 187 334 198 321 187 334 198 321 214 315 231 317 246 325 256 339 261 356 256 339 261 356 256 339 246 325 256 339 246 325 231 317 246 325 231 317 214 315 231 317 214 315 198 321 214 315 198 321 204 318 210 303 204 318 210 303 222 291 210 303 222 291 237 285 222 291 237 285 254 285 237 285 254 285 268 293 254 285 268 293 279 307 268 293 279 307 283 323 279 307 283 323 284 339 283 323 284 339 283 356 284 339 283 356 276 354 260 357 248 367 240 381 237 397 240 381 237 397 240 381 248 367 240 381 248 367 260 357 248 367 260 357 276 354 260 357 276 354 291 358 276 354 291 358 304 367 291 358 304 367 313 380 304 367 313 380 317 396 316 412 312 427 304 441 291 449 275 450 260 444 275 450 260 444 275 450 291 449 275 450 291 449 304 441 291 449 304 441 312 427 304 441 312 427 316 412 312 427 316 412 317 396 316 412 317 396 313 380 317 396 313 380 312 379 328 379 312 379 328 379 344 384 328 379 344 384 356 395 344 384 356 395 362 410 356 395 362 410 365 427 362 410 365 427 364 443 358 458 346 469 330 474 313 472 299 463 290 450 299 463 290 450 299 463 313 472 299 463 313 472 330 474 313 472 330 474 346 469 330 474 346 469 358 458 346 469 358 458 364 443 358 458 364 443 365 427 364 443 365 427 " />
</svg>
