<?xml version="1.0" encoding="UTF-8" standalone="no"?>
<svg xmlns="http://www.w3.org/2000/svg" version="1.1" width="700" height="980">
    <path id="Block1Jump2"
        fill="none"
        stroke="#F0F0F0"
		stroke-width="2px"
		d="M 200 340 L 194 334 200 340 190 330 180 340 200 320 190 310 180 320 200 300 190 290 180 300 170 290 160 300 150 290 140 300 130 290 120 300 110 290 100 300 90 290 80 300 70 290 60 300 70 310 60 320 70 330 60 340 80 320 60 340 80 320 70 330 80 340 60 320 80 340 60 320 80 300 60 320 80 300 70 310 80 320 60 300 80 320 60 300 80 280 90 270 80 260 100 280 110 270 120 280 140 260 130 250 120 260 140 240 130 230 120 240 140 220 130 210 120 220 140 200 130 190 120 200 140 180 130 170 120 180 140 160 130 150 120 160 140 140 130 130 120 140 140 120 130 110 120 120 140 100 150 110 140 120 150 130 140 140 150 150 140 160 150 170 140 180 150 190 140 200 150 210 140 220 150 230 140 240 150 250 140 260 150 270 140 280 160 260 170 270 160 280 180 260 170 250 160 260 180 240 170 230 160 240 180 220 170 210 160 220 180 200 170 190 160 200 180 180 170 170 160 180 180 160 170 150 160 160 180 140 170 130 160 140 180 120 170 110 160 120 180 100 170 90 160 100 180 80 160 100 180 80 170 90 160 80 180 100 190 110 180 120 190 130 180 140 190 150 180 160 190 170 180 180 190 190 180 200 190 210 180 220 190 230 180 240 190 250 180 260 190 270 180 280 200 260 180 280 200 260 190 270 200 280 180 260 200 280 180 260 200 240 180 260 200 240 190 250 200 260 180 240 200 260 180 240 200 220 180 240 200 220 190 230 200 240 180 220 200 240 180 220 200 200 180 220 200 200 190 210 200 220 180 200 200 220 180 200 200 180 180 200 200 180 190 190 200 200 180 180 200 200 180 180 200 160 180 180 200 160 190 170 200 180 180 160 200 180 180 160 200 140 180 160 200 140 190 150 200 160 180 140 200 160 180 140 200 120 180 140 200 120 190 130 200 140 180 120 200 140 180 120 200 100 180 120 200 100 190 110 200 120 180 100 200 120 180 100 160 80 180 100 160 120 180 100 170 110 160 100 180 120 160 100 180 120 160 140 180 120 170 130 160 120 180 140 160 120 180 140 160 160 180 140 170 150 160 140 180 160 160 140 180 160 160 180 180 160 170 170 160 160 180 180 160 160 180 180 160 200 180 180 170 190 160 180 180 200 160 180 180 200 160 220 180 200 170 210 160 200 180 220 160 200 180 220 160 240 180 220 170 230 160 220 180 240 160 220 180 240 160 260 180 240 170 250 160 240 180 260 160 240 180 260 160 280 180 260 170 270 180 280 160 260 180 280 160 260 140 280 160 260 150 270 160 280 140 260 160 280 140 260 160 240 140 260 160 240 150 250 160 260 140 240 160 260 140 240 160 220 140 240 160 220 150 230 160 240 140 220 160 240 140 220 160 200 140 220 160 200 150 210 160 220 140 200 160 220 140 200 160 180 140 200 160 180 150 190 160 200 140 180 160 200 140 180 160 160 140 180 160 160 150 170 160 180 140 160 160 180 140 160 160 140 140 160 160 140 150 150 160 160 140 140 160 160 140 140 160 120 140 140 160 120 150 130 160 140 140 120 160 140 140 120 160 100 140 120 160 100 150 110 160 120 140 100 160 120 140 100 120 120 140 100 130 110 120 100 140 120 120 100 140 120 120 140 140 120 130 130 120 120 140 140 120 120 140 140 120 160 140 140 130 150 120 140 140 160 120 140 140 160 120 180 140 160 130 170 120 160 140 180 120 160 140 180 120 200 140 180 130 190 120 180 140 200 120 180 140 200 120 220 140 200 130 210 120 200 140 220 120 200 140 220 120 240 140 220 130 230 120 220 140 240 120 220 140 240 120 260 140 240 130 250 120 240 140 260 120 240 140 260 120 280 140 260 130 270 140 280 120 260 140 280 120 260 130 270 120 280 110 270 120 280 110 270 120 260 100 280 120 260 100 280 80 260 100 280 90 270 80 280 90 270 80 280 60 300 80 280 70 290 80 300 70 290 80 300 100 280 80 300 100 280 90 290 80 280 100 300 110 310 100 320 110 330 100 340 120 320 100 340 120 320 110 330 120 340 100 320 120 340 100 320 120 300 100 320 120 300 110 310 120 320 100 300 120 320 100 300 80 280 100 300 120 280 100 300 120 280 110 290 100 280 120 300 100 280 120 300 140 280 120 300 140 280 130 290 120 280 140 300 150 310 140 320 150 330 140 340 160 320 140 340 160 320 150 330 160 340 140 320 160 340 140 320 160 300 140 320 160 300 150 310 160 320 140 300 160 320 140 300 120 280 140 300 160 280 140 300 160 280 150 290 140 280 160 300 140 280 160 300 180 280 160 300 180 280 170 290 160 280 180 300 160 280 180 300 200 280 180 300 200 280 190 290 180 280 200 300 180 280 200 300 180 320 200 300 190 310 180 300 200 320 180 300 200 320 180 340 200 320 190 330 180 320 200 340 180 320 200 340 196 336 200 340 " />
    <path id="Block2Jump4"
        fill="none"
        stroke="#FE9E32"
		stroke-width="2px"
		d="M 160 340 L 154 346 160 340 140 360 130 350 120 360 110 350 100 360 90 350 80 360 70 350 60 360 50 350 40 360 50 370 40 380 20 400 40 380 20 400 30 390 40 400 20 380 40 400 20 380 30 390 40 380 60 360 70 370 60 380 80 360 60 380 80 360 70 370 80 380 60 360 80 380 60 360 40 380 60 360 50 370 60 380 40 360 60 380 40 360 60 340 50 330 40 340 60 320 40 340 60 320 50 330 40 320 60 340 40 320 60 340 40 360 60 340 50 350 40 340 60 360 40 340 60 360 80 340 100 320 90 310 80 320 100 300 80 320 100 300 90 310 80 300 100 320 80 300 100 320 80 340 100 320 90 330 100 340 80 320 100 340 80 320 90 330 80 340 60 360 80 340 70 350 60 340 80 360 60 340 80 360 100 340 80 360 100 340 90 350 80 340 100 360 110 370 100 380 120 360 100 380 120 360 110 370 120 380 100 360 120 380 100 360 80 340 100 360 120 340 140 320 130 310 120 320 140 300 120 320 140 300 130 310 120 300 140 320 120 300 140 320 120 340 140 320 130 330 140 340 120 320 140 340 120 320 130 330 120 340 100 360 120 340 110 350 100 340 120 360 100 340 120 360 140 340 120 360 140 340 130 350 120 340 140 360 120 340 140 360 160 340 140 360 150 350 160 360 170 370 160 380 170 390 160 400 170 410 160 420 170 430 160 440 150 430 140 440 150 450 140 460 150 470 140 480 160 460 170 470 160 480 170 490 160 500 170 510 160 520 180 500 190 510 180 520 190 530 180 540 160 560 180 540 160 560 170 550 180 560 160 540 180 560 160 540 170 550 180 540 200 520 210 530 200 540 210 550 200 560 220 540 230 550 220 560 240 540 230 530 220 540 240 520 230 510 220 520 210 510 200 520 220 500 210 490 200 500 190 490 180 500 200 480 190 470 180 480 200 460 190 450 180 460 170 450 160 460 180 440 200 420 190 410 180 420 200 400 210 410 200 420 210 430 200 440 210 450 200 460 210 470 200 480 220 460 230 470 220 480 230 490 220 500 240 480 250 490 240 500 250 510 240 520 250 530 240 540 250 550 240 560 260 540 270 550 260 560 270 570 260 580 280 560 290 570 280 580 300 560 290 550 280 560 300 540 290 530 280 540 270 530 260 540 280 520 270 510 260 520 280 500 270 490 260 500 280 480 270 470 260 480 250 470 240 480 260 460 250 450 240 460 230 450 220 460 240 440 230 430 220 440 240 420 230 410 220 420 240 400 250 410 240 420 250 430 240 440 260 420 270 430 260 440 270 450 260 460 280 440 290 450 280 460 290 470 280 480 290 490 280 500 290 510 280 520 300 500 310 510 300 520 310 530 300 540 310 550 300 560 310 570 300 580 310 590 300 600 320 580 330 590 320 600 340 580 330 570 320 580 340 560 330 550 320 560 340 540 330 530 320 540 340 520 350 530 340 540 350 550 340 560 350 570 340 580 350 590 340 600 360 580 370 590 360 600 380 580 370 570 360 580 380 560 370 550 360 560 380 540 360 560 380 540 370 550 360 540 380 560 390 570 380 580 400 560 410 570 400 580 420 560 430 570 420 580 430 590 420 600 430 610 420 620 410 610 400 620 410 630 400 640 390 630 380 640 360 660 350 650 340 660 360 640 340 660 360 640 350 650 340 640 360 660 340 640 360 660 380 640 360 660 370 650 380 660 360 640 380 660 360 640 370 650 380 640 400 620 380 640 400 620 390 630 380 620 400 640 380 620 400 640 420 620 430 630 420 640 440 620 460 600 450 590 440 600 460 580 450 570 440 580 460 560 470 570 460 580 470 590 460 600 470 610 460 620 470 630 460 640 480 620 490 630 480 640 500 620 490 610 480 620 500 600 490 590 480 600 500 580 490 570 480 580 500 560 490 550 480 560 470 550 460 560 480 540 500 520 480 540 500 520 490 530 500 540 510 550 500 560 510 570 500 580 520 560 540 540 530 530 520 540 540 520 550 530 540 540 550 550 540 560 560 540 580 520 570 510 560 520 550 510 540 520 560 500 580 480 570 470 560 480 580 460 570 450 560 460 550 450 540 460 560 440 580 420 590 430 580 440 590 450 580 460 590 470 580 480 590 490 580 500 590 510 580 520 600 500 580 520 600 500 590 510 600 520 580 500 600 520 580 500 600 480 620 460 610 450 600 460 620 440 600 460 620 440 610 450 600 440 620 460 600 440 620 460 600 480 620 460 610 470 620 480 600 460 620 480 600 460 610 470 600 480 580 500 600 480 590 490 600 500 580 480 600 500 580 480 600 460 580 480 600 460 590 470 600 480 580 460 600 480 580 460 600 440 580 460 600 440 590 450 600 460 580 440 600 460 580 440 600 420 590 410 580 420 600 400 590 390 580 400 600 380 590 370 580 380 570 370 560 380 580 360 570 350 560 360 580 340 590 350 580 360 600 340 590 330 580 340 600 320 590 310 580 320 600 300 610 310 600 320 610 330 600 340 610 350 600 360 610 370 600 380 610 390 600 400 610 410 600 420 620 400 630 410 620 420 640 400 630 390 620 400 640 380 630 370 620 380 640 360 620 380 640 360 630 370 620 360 640 380 620 360 640 380 620 400 640 380 630 390 620 380 640 400 620 380 640 400 620 420 640 400 630 410 640 420 620 400 640 420 620 400 600 420 620 400 610 410 620 420 600 400 620 420 600 400 620 380 600 400 620 380 610 390 620 400 600 380 620 400 600 380 620 360 600 380 620 360 610 370 620 380 600 360 620 380 600 360 620 340 640 320 630 310 620 320 640 300 630 290 620 300 610 290 600 300 620 280 610 270 600 280 620 260 610 250 600 260 590 250 580 260 600 240 620 220 610 210 600 220 620 200 610 190 600 200 620 180 610 170 600 180 590 170 580 180 600 160 580 180 600 160 590 170 580 160 600 180 580 160 600 180 620 160 600 180 620 160 610 170 600 160 620 180 630 190 620 200 630 210 620 220 630 230 620 240 630 250 620 260 630 270 620 280 640 260 650 270 640 280 660 260 650 250 640 260 660 240 640 260 660 240 650 250 640 240 660 260 640 240 660 260 640 280 660 260 650 270 660 280 640 260 660 280 640 260 620 280 640 260 630 270 640 280 620 260 640 280 620 260 640 240 620 260 640 240 630 250 640 260 620 240 640 260 620 240 640 220 660 200 650 190 640 200 660 180 640 200 660 180 650 190 640 180 660 200 640 180 660 200 640 220 660 200 650 210 660 220 640 200 660 220 640 200 650 210 640 220 620 240 640 220 630 230 640 240 620 220 640 240 620 220 640 200 620 220 640 200 630 210 640 220 620 200 640 220 620 200 640 180 620 200 640 180 630 190 640 200 620 180 640 200 620 180 600 160 620 180 600 200 620 180 610 190 600 180 620 200 600 180 620 200 600 220 620 200 610 210 600 200 620 220 600 200 620 220 600 240 620 220 610 230 620 240 600 220 620 240 600 220 610 230 600 240 580 260 600 240 590 250 580 240 600 260 580 240 600 260 620 240 600 260 620 240 610 250 600 240 620 260 600 240 620 260 600 280 620 260 610 270 600 260 620 280 600 260 620 280 600 300 620 280 610 290 600 280 620 300 600 280 620 300 640 280 620 300 640 280 630 290 620 280 640 300 620 280 640 300 620 320 640 300 630 310 620 300 640 320 620 300 640 320 620 340 640 320 630 330 640 340 620 320 640 340 620 320 630 330 620 340 600 360 620 340 610 350 620 360 600 340 620 360 600 340 620 320 600 340 620 320 610 330 620 340 600 320 620 340 600 320 620 300 600 320 620 300 610 310 620 320 600 300 620 320 600 300 580 320 600 300 590 310 580 300 600 320 580 300 600 320 580 340 600 320 590 330 580 320 600 340 580 320 600 340 580 360 600 340 590 350 600 360 580 340 600 360 580 340 560 360 580 340 570 350 560 340 580 360 560 340 580 360 560 380 580 360 570 370 560 360 580 380 560 360 580 380 600 360 580 380 600 360 590 370 580 360 600 380 580 360 600 380 580 400 600 380 590 390 580 380 600 400 580 380 600 400 580 420 600 400 590 410 580 400 600 420 580 400 600 420 580 440 600 420 590 430 600 440 580 420 600 440 580 420 560 440 580 420 570 430 580 440 560 420 580 440 560 420 570 430 560 440 540 460 560 440 550 450 540 440 560 460 540 440 560 460 580 440 560 460 580 440 570 450 560 440 580 460 560 440 580 460 560 480 580 460 570 470 560 460 580 480 560 460 580 480 560 500 580 480 570 490 580 500 560 480 580 500 560 480 570 490 560 500 540 520 560 500 550 510 540 500 560 520 540 500 560 520 580 500 560 520 580 500 570 510 560 500 580 520 560 500 580 520 560 540 580 520 570 530 580 540 560 520 580 540 560 520 570 530 560 540 540 560 560 540 550 550 560 560 540 540 560 560 540 540 560 520 540 540 560 520 550 530 560 540 540 520 560 540 540 520 520 540 540 520 530 530 520 520 540 540 520 520 540 540 520 560 540 540 530 550 540 560 520 540 540 560 520 540 530 550 520 560 500 580 520 560 510 570 520 580 500 560 520 580 500 560 520 540 500 560 520 540 510 550 520 560 500 540 520 560 500 540 480 520 500 540 480 520 490 530 480 540 460 560 480 540 470 550 460 540 480 560 460 540 480 560 500 540 480 560 500 540 490 550 480 540 500 560 480 540 500 560 480 580 500 560 490 570 480 560 500 580 480 560 500 580 480 600 500 580 490 590 480 580 500 600 510 610 500 620 510 630 500 640 520 620 500 640 520 620 510 630 520 640 500 620 520 640 500 620 520 600 500 620 520 600 510 610 520 620 500 600 520 620 500 600 480 580 500 600 480 620 500 600 490 610 480 600 500 620 480 600 500 620 480 640 500 620 490 630 500 640 480 620 500 640 480 620 460 640 480 620 470 630 480 640 460 620 480 640 460 620 480 600 460 620 480 600 470 610 480 620 460 600 480 620 460 600 480 580 460 600 480 580 470 590 480 600 460 580 480 600 460 580 480 560 460 580 480 560 470 570 480 580 460 560 480 580 460 560 440 580 460 560 450 570 440 560 460 580 440 560 460 580 440 600 460 580 450 590 440 580 460 600 440 580 460 600 440 620 460 600 450 610 460 620 440 600 460 620 440 600 450 610 440 620 420 640 440 620 430 630 440 640 420 620 440 640 420 620 400 640 420 620 410 630 420 640 400 620 420 640 400 620 420 600 400 620 420 600 410 610 400 600 420 620 400 600 420 620 440 600 420 620 440 600 430 610 440 620 420 600 440 620 420 600 440 580 420 600 440 580 430 590 440 600 420 580 440 600 420 580 440 560 420 580 440 560 430 570 440 580 420 560 440 580 420 560 400 580 420 560 410 570 420 580 400 560 420 580 400 560 380 580 400 560 390 570 400 580 380 560 400 580 380 560 360 540 380 560 360 580 380 560 370 570 360 560 380 580 360 560 380 580 360 600 380 580 370 590 380 600 360 580 380 600 360 580 340 600 360 580 350 590 360 600 340 580 360 600 340 580 360 560 340 580 360 560 350 570 360 580 340 560 360 580 340 560 360 540 340 560 360 540 350 550 360 560 340 540 360 560 340 540 360 520 340 540 360 520 350 530 360 540 340 520 360 540 340 520 320 540 340 520 330 530 320 520 340 540 320 520 340 540 320 560 340 540 330 550 320 540 340 560 320 540 340 560 320 580 340 560 330 570 320 560 340 580 320 560 340 580 320 600 340 580 330 590 340 600 320 580 340 600 320 580 300 600 320 580 310 590 320 600 300 580 320 600 300 580 320 560 300 580 320 560 310 570 320 580 300 560 320 580 300 560 320 540 300 560 320 540 310 550 320 560 300 540 320 560 300 540 320 520 300 540 320 520 310 530 320 540 300 520 320 540 300 520 320 500 300 520 320 500 310 510 320 520 300 500 320 520 300 500 280 520 300 500 290 510 300 520 280 500 300 520 280 500 300 480 320 460 310 450 300 460 320 440 330 450 320 460 330 470 320 480 340 460 320 480 340 460 330 470 340 480 320 460 340 480 320 460 340 440 320 460 340 440 330 450 340 460 320 440 340 460 320 440 300 460 320 440 310 450 300 440 320 460 300 440 320 460 300 480 320 460 310 470 320 480 300 460 320 480 300 460 310 470 300 480 280 500 300 480 290 490 300 500 280 480 300 500 280 480 300 460 280 480 300 460 290 470 300 480 280 460 300 480 280 460 300 440 280 460 300 440 290 450 300 460 280 440 300 460 280 440 260 460 280 440 270 450 280 460 260 440 280 460 260 440 280 420 260 440 280 420 270 430 280 440 260 420 280 440 260 420 240 440 260 420 250 430 260 440 240 420 260 440 240 420 260 400 250 390 240 400 260 380 240 400 260 380 250 390 240 380 260 400 240 380 260 400 240 420 260 400 250 410 260 420 240 400 260 420 240 400 220 420 240 400 230 410 220 400 210 390 200 400 220 380 200 400 220 380 210 390 200 380 220 400 200 380 220 400 240 420 220 400 240 420 220 440 240 420 230 430 220 420 240 440 220 420 240 440 220 460 240 440 230 450 220 440 240 460 220 440 240 460 260 440 240 460 260 440 250 450 240 440 260 460 240 440 260 460 240 480 260 460 250 470 240 460 260 480 240 460 260 480 280 460 260 480 280 460 270 470 260 460 280 480 260 460 280 480 260 500 280 480 270 490 260 480 280 500 260 480 280 500 260 520 280 500 270 510 260 500 280 520 260 500 280 520 260 540 280 520 270 530 260 520 280 540 260 520 280 540 300 520 280 540 300 520 290 530 280 520 300 540 280 520 300 540 280 560 300 540 290 550 280 540 300 560 280 540 300 560 280 580 300 560 290 570 300 580 280 560 300 580 280 560 260 580 280 560 270 570 280 580 260 560 280 580 260 560 280 540 260 560 280 540 270 550 280 560 260 540 280 560 260 540 240 560 260 540 250 550 260 560 240 540 260 560 240 540 260 520 240 540 260 520 250 530 260 540 240 520 260 540 240 520 260 500 240 520 260 500 250 510 260 520 240 500 260 520 240 500 260 480 240 500 260 480 250 490 260 500 240 480 260 500 240 480 220 500 240 480 230 490 240 500 220 480 240 500 220 480 240 460 220 480 240 460 230 470 240 480 220 460 240 480 220 460 200 480 220 460 210 470 220 480 200 460 220 480 200 460 220 440 200 460 220 440 210 450 220 460 200 440 220 460 200 440 220 420 200 440 220 420 210 430 220 440 200 420 220 440 200 420 220 400 200 420 220 400 210 410 220 420 200 400 220 420 200 400 180 420 200 400 190 410 180 400 200 420 180 400 200 420 180 440 200 420 190 430 200 440 180 420 200 440 180 420 190 430 180 440 160 460 180 440 170 450 160 440 180 460 160 440 180 460 200 440 180 460 200 440 190 450 180 440 200 460 180 440 200 460 180 480 200 460 190 470 180 460 200 480 180 460 200 480 180 500 200 480 190 490 180 480 200 500 180 480 200 500 220 480 200 500 220 480 210 490 200 480 220 500 200 480 220 500 200 520 220 500 210 510 200 500 220 520 200 500 220 520 240 500 220 520 240 500 230 510 220 500 240 520 220 500 240 520 220 540 240 520 230 530 220 520 240 540 220 520 240 540 220 560 240 540 230 550 240 560 220 540 240 560 220 540 200 560 220 540 210 550 220 560 200 540 220 560 200 540 220 520 200 540 220 520 210 530 220 540 200 520 220 540 200 520 180 540 200 520 190 530 200 540 180 520 200 540 180 520 200 500 180 520 200 500 190 510 200 520 180 500 200 520 180 500 160 520 180 500 170 510 180 520 160 500 180 520 160 500 180 480 160 500 180 480 170 490 180 500 160 480 180 500 160 480 180 460 160 480 180 460 170 470 180 480 160 460 180 480 160 460 140 480 160 460 150 470 160 480 140 460 160 480 140 460 160 440 140 460 160 440 150 450 160 460 140 440 160 460 140 440 160 420 140 440 160 420 150 430 140 420 160 440 140 420 160 440 180 420 160 440 180 420 170 430 180 440 160 420 180 440 160 420 180 400 160 420 180 400 170 410 180 420 160 400 180 420 160 400 180 380 160 400 180 380 170 390 180 400 160 380 180 400 160 380 180 360 160 380 180 360 170 370 180 380 160 360 180 380 160 360 140 340 160 360 140 340 150 350 160 340 156 344 160 340 "/>
    <path id="Block2Jump5"
        fill="none"
        stroke="#FE9E32"
		stroke-width="2px"
		d="M 200 300 L 206 294 200 300 220 280 210 270 200 280 220 260 210 250 200 260 220 240 210 230 200 240 220 220 210 210 200 220 220 200 210 190 200 200 220 180 210 170 200 180 220 160 210 150 200 160 220 140 210 130 200 140 220 120 210 110 200 120 220 100 210 90 200 100 190 90 180 100 200 80 190 70 180 80 170 70 160 80 150 70 140 80 130 70 120 80 130 90 120 100 140 80 120 100 140 80 130 90 140 100 120 80 140 100 120 80 140 60 120 80 140 60 130 70 140 80 130 70 140 80 160 60 140 80 160 60 150 70 140 60 160 80 140 60 160 80 180 60 160 80 180 60 170 70 160 60 180 80 160 60 180 80 200 60 210 70 200 80 210 70 200 80 210 70 220 80 230 90 220 100 230 110 220 120 230 130 220 140 230 150 220 160 230 170 220 180 230 190 220 200 230 210 220 220 230 230 220 240 230 250 220 260 230 270 220 280 230 290 220 300 230 310 220 320 240 300 250 310 240 320 260 300 250 290 240 300 250 290 240 300 250 290 240 280 260 300 240 280 260 300 240 320 260 300 250 310 260 320 240 300 260 320 240 300 220 320 240 300 230 310 240 320 220 300 240 320 220 300 240 280 220 300 240 280 230 290 240 300 220 280 240 300 220 280 240 260 220 280 240 260 230 270 240 280 220 260 240 280 220 260 240 240 220 260 240 240 230 250 240 260 220 240 240 260 220 240 240 220 220 240 240 220 230 230 240 240 220 220 240 240 220 220 240 200 220 220 240 200 230 210 240 220 220 200 240 220 220 200 240 180 220 200 240 180 230 190 240 200 220 180 240 200 220 180 240 160 220 180 240 160 230 170 240 180 220 160 240 180 220 160 240 140 220 160 240 140 230 150 240 160 220 140 240 160 220 140 240 120 220 140 240 120 230 130 240 140 220 120 240 140 220 120 240 100 220 120 240 100 230 110 240 120 220 100 240 120 220 100 230 90 220 100 230 90 240 100 220 80 240 100 220 80 200 60 220 80 200 60 180 80 200 60 190 70 180 60 200 80 180 60 200 80 180 100 200 80 190 90 180 80 200 100 180 80 200 100 220 80 200 100 220 80 210 90 200 80 220 100 200 80 220 100 200 120 220 100 210 110 200 100 220 120 200 100 220 120 200 140 220 120 210 130 200 120 220 140 200 120 220 140 200 160 220 140 210 150 200 140 220 160 200 140 220 160 200 180 220 160 210 170 200 160 220 180 200 160 220 180 200 200 220 180 210 190 200 180 220 200 200 180 220 200 200 220 220 200 210 210 200 200 220 220 200 200 220 220 200 240 220 220 210 230 200 220 220 240 200 220 220 240 200 260 220 240 210 250 200 240 220 260 200 240 220 260 200 280 220 260 210 270 200 260 220 280 200 260 220 280 200 300 220 280 210 290 220 300 200 280 220 300 200 280 210 290 200 300 204 296 200 300 "/>
    <path id="Block2Jump7"
        fill="none"
        stroke="#FE9E32"
		stroke-width="2px"
		d="M 120 460 L 114 466 120 460 100 480 120 460 100 480 110 470 120 480 100 460 120 480 100 460 110 470 120 460 116 464 120 460 " />
    <path id="Block3Jump12"
        fill="none"
        stroke="#D15400"
		stroke-width="2px"
		d="M 120 120 L 114 114 120 120 110 110 120 100 110 90 100 100 90 90 100 80 90 90 100 80 90 90 80 80 100 100 80 80 100 100 120 80 100 100 120 80 110 90 100 80 120 100 100 80 120 100 110 110 120 100 110 110 100 100 120 120 100 100 120 120 116 116 120 120 " />
    <path id="Block4Jump16"
        fill="none"
        stroke="#B54C64"
		stroke-width="2px"
		d="M 126 366 L 120 360 130 370 120 380 130 390 120 400 110 390 100 400 110 410 100 420 90 410 80 420 70 410 60 420 50 410 40 420 50 430 40 440 50 450 40 460 50 470 40 480 50 490 40 500 60 480 70 490 60 500 70 510 60 520 70 530 60 540 80 520 90 530 80 540 90 550 80 560 100 540 110 550 100 560 110 570 100 580 120 560 130 570 120 580 130 590 120 600 140 580 150 590 140 600 150 610 140 620 160 600 170 610 160 620 180 600 170 590 160 600 180 580 170 570 160 580 150 570 140 580 160 560 150 550 140 560 130 550 120 560 140 540 130 530 120 540 110 530 100 540 120 520 110 510 100 520 90 510 80 520 100 500 90 490 80 500 100 480 90 470 80 480 70 470 60 480 80 460 70 450 60 460 80 440 70 430 60 440 80 420 90 430 80 440 90 450 80 460 100 440 110 450 100 460 120 440 110 430 100 440 120 420 130 430 120 440 130 450 120 460 130 470 120 480 130 490 120 500 110 490 100 500 120 480 100 500 120 480 110 490 100 480 120 500 130 510 120 520 140 500 150 510 140 520 150 530 140 540 160 520 170 530 160 540 180 520 160 540 180 520 170 530 180 540 190 550 180 560 190 570 180 580 190 590 180 600 190 610 180 620 190 630 180 640 200 620 210 630 200 640 220 620 210 610 200 620 220 600 210 590 200 600 220 580 210 570 200 580 220 560 230 570 220 580 230 590 220 600 230 610 220 620 230 630 220 640 230 650 220 660 240 640 250 650 240 660 260 640 250 630 240 640 260 620 250 610 240 620 260 600 250 590 240 600 260 580 250 570 240 580 260 560 240 580 260 560 250 570 240 560 260 580 270 590 260 600 270 610 260 620 270 630 260 640 270 650 260 660 270 670 260 680 280 660 290 670 280 680 300 660 290 650 280 660 300 640 290 630 280 640 300 620 290 610 280 620 300 600 290 590 280 600 300 580 280 600 300 580 290 590 280 580 300 600 310 610 300 620 310 630 300 640 310 650 300 660 310 670 300 680 320 660 330 670 320 680 340 660 330 650 320 660 340 640 330 630 320 640 340 620 330 610 320 620 340 600 350 610 340 620 350 630 340 640 360 620 370 630 360 640 380 620 370 610 360 620 380 600 390 610 380 620 400 600 390 590 380 600 400 580 410 590 400 600 420 580 400 600 420 580 410 590 420 600 400 580 420 600 400 580 380 600 400 580 390 590 380 580 400 600 380 580 400 600 380 620 400 600 390 610 400 620 380 600 400 620 380 600 360 620 380 600 370 610 360 600 380 620 360 600 380 620 360 640 380 620 370 630 380 640 390 650 380 660 400 640 380 660 400 640 390 650 400 660 380 640 400 660 380 640 360 620 380 640 360 620 340 640 360 620 350 630 360 640 340 620 360 640 340 620 360 600 340 620 360 600 350 610 360 620 340 600 360 620 340 600 320 620 340 600 330 610 320 600 340 620 320 600 340 620 320 640 340 620 330 630 320 620 340 640 320 620 340 640 320 660 340 640 330 650 320 640 340 660 350 670 340 680 360 660 340 680 360 660 350 670 360 680 340 660 360 680 340 660 320 640 340 660 320 680 340 660 330 670 340 680 320 660 340 680 320 660 300 680 320 660 310 670 320 680 300 660 320 680 300 660 320 640 300 660 320 640 310 650 320 660 300 640 320 660 300 640 320 620 300 640 320 620 310 630 320 640 300 620 320 640 300 620 320 600 300 620 320 600 310 610 320 620 300 600 320 620 300 600 280 580 300 600 280 620 300 600 290 610 280 600 300 620 280 600 300 620 280 640 300 620 290 630 280 620 300 640 280 620 300 640 280 660 300 640 290 650 280 640 300 660 280 640 300 660 280 680 300 660 290 670 300 680 280 660 300 680 280 660 260 680 280 660 270 670 280 680 260 660 280 680 260 660 280 640 260 660 280 640 270 650 280 660 260 640 280 660 260 640 280 620 260 640 280 620 270 630 280 640 260 620 280 640 260 620 280 600 260 620 280 600 270 610 280 620 260 600 280 620 260 600 280 580 260 600 280 580 270 590 280 600 260 580 280 600 260 580 240 560 260 580 240 600 260 580 250 590 240 580 260 600 240 580 260 600 240 620 260 600 250 610 240 600 260 620 240 600 260 620 240 640 260 620 250 630 240 620 260 640 240 620 260 640 240 660 260 640 250 650 260 660 240 640 260 660 240 640 220 660 240 640 230 650 240 660 220 640 240 660 220 640 240 620 220 640 240 620 230 630 240 640 220 620 240 640 220 620 240 600 220 620 240 600 230 610 240 620 220 600 240 620 220 600 240 580 220 600 240 580 230 590 240 600 220 580 240 600 220 580 240 560 220 580 240 560 230 570 240 580 220 560 240 580 220 560 200 580 220 560 210 570 200 560 220 580 200 560 220 580 200 600 220 580 210 590 200 580 220 600 200 580 220 600 200 620 220 600 210 610 200 600 220 620 200 600 220 620 200 640 220 620 210 630 220 640 200 620 220 640 200 620 180 640 200 620 190 630 200 640 180 620 200 640 180 620 200 600 180 620 200 600 190 610 200 620 180 600 200 620 180 600 200 580 180 600 200 580 190 590 200 600 180 580 200 600 180 580 200 560 180 580 200 560 190 570 200 580 180 560 200 580 180 560 200 540 180 560 200 540 190 550 200 560 180 540 200 560 180 540 160 520 180 540 160 520 140 540 160 520 150 530 160 540 140 520 160 540 140 520 160 500 150 490 140 500 160 480 140 500 160 480 150 490 140 480 160 500 140 480 160 500 140 520 160 500 150 510 160 520 140 500 160 520 140 500 120 520 140 500 130 510 140 520 120 500 140 520 120 500 100 480 120 500 140 480 120 500 140 480 130 490 140 500 120 480 140 500 120 480 140 460 120 480 140 460 130 470 140 480 120 460 140 480 120 460 140 440 120 460 140 440 130 450 140 460 120 440 140 460 120 440 140 420 130 410 120 420 140 400 150 410 140 420 160 400 150 390 140 400 160 380 150 370 140 380 160 360 140 380 160 360 150 370 140 360 160 380 140 360 160 380 140 400 160 380 150 390 140 380 160 400 140 380 160 400 140 420 160 400 150 410 160 420 140 400 160 420 140 400 120 420 140 400 130 410 120 400 140 420 120 400 140 420 120 440 140 420 130 430 140 440 120 420 140 440 120 420 100 440 120 420 110 430 100 420 120 440 100 420 120 440 100 460 120 440 110 450 120 460 100 440 120 460 100 440 80 460 100 440 90 450 100 460 80 440 100 460 80 440 100 420 80 440 100 420 90 430 100 440 80 420 100 440 80 420 60 440 80 420 70 430 60 420 80 440 60 420 80 440 60 460 80 440 70 450 60 440 80 460 60 440 80 460 60 480 80 460 70 470 60 460 80 480 60 460 80 480 100 460 80 480 100 460 90 470 80 460 100 480 80 460 100 480 80 500 100 480 90 490 80 480 100 500 80 480 100 500 80 520 100 500 90 510 80 500 100 520 80 500 100 520 120 500 100 520 120 500 110 510 100 500 120 520 100 500 120 520 100 540 120 520 110 530 100 520 120 540 100 520 120 540 140 520 120 540 140 520 130 530 120 520 140 540 120 520 140 540 120 560 140 540 130 550 120 540 140 560 120 540 140 560 160 540 140 560 160 540 150 550 140 540 160 560 140 540 160 560 140 580 160 560 150 570 140 560 160 580 140 560 160 580 180 560 160 580 180 560 170 570 160 560 180 580 160 560 180 580 160 600 180 580 170 590 160 580 180 600 160 580 180 600 160 620 180 600 170 610 180 620 160 600 180 620 160 600 140 620 160 600 150 610 160 620 140 600 160 620 140 600 160 580 140 600 160 580 150 590 160 600 140 580 160 600 140 580 120 600 140 580 130 590 140 600 120 580 140 600 120 580 140 560 120 580 140 560 130 570 140 580 120 560 140 580 120 560 100 580 120 560 110 570 120 580 100 560 120 580 100 560 120 540 100 560 120 540 110 550 120 560 100 540 120 560 100 540 80 560 100 540 90 550 100 560 80 540 100 560 80 540 100 520 80 540 100 520 90 530 100 540 80 520 100 540 80 520 60 540 80 520 70 530 80 540 60 520 80 540 60 520 80 500 60 520 80 500 70 510 80 520 60 500 80 520 60 500 80 480 60 500 80 480 70 490 80 500 60 480 80 500 60 480 40 500 60 480 50 490 60 500 40 480 60 500 40 480 60 460 40 480 60 460 50 470 60 480 40 460 60 480 40 460 60 440 40 460 60 440 50 450 60 460 40 440 60 460 40 440 60 420 40 440 60 420 50 430 60 440 40 420 60 440 40 420 60 400 50 390 40 400 60 380 40 400 60 380 50 390 40 380 60 400 40 380 60 400 40 420 60 400 50 410 40 400 60 420 40 400 60 420 80 400 60 420 80 400 70 410 60 400 80 420 60 400 80 420 100 400 80 420 100 400 90 410 80 400 100 420 80 400 100 420 120 400 100 420 120 400 110 410 120 420 100 400 120 420 100 400 120 380 100 400 120 380 110 390 100 380 120 400 100 380 120 400 140 380 120 400 140 380 130 390 140 400 120 380 140 400 120 380 140 360 120 380 140 360 130 370 140 380 120 360 140 380 120 360 124 364 120 360 "/>
    <path id="Block4Jump17"
        fill="none"
        stroke="#B54C64"
		stroke-width="2px"
		d="M 260 380 L 266 386 260 380 270 390 260 400 270 410 260 420 280 400 290 410 280 420 290 430 280 440 300 420 310 430 300 440 320 420 310 410 300 420 320 400 300 420 320 400 310 410 300 400 290 390 280 400 300 380 280 400 300 380 290 390 280 380 300 400 280 380 300 400 320 420 300 400 320 420 300 440 320 420 310 430 320 440 300 420 320 440 300 420 280 440 300 420 290 430 300 440 280 420 300 440 280 420 300 400 280 420 300 400 290 410 300 420 280 400 300 420 280 400 260 420 280 400 270 410 280 420 260 400 280 420 260 400 280 380 260 400 280 380 270 390 280 400 260 380 280 400 260 380 264 384 260 380 "/>
    <path id="Block4Jump18"
        fill="none"
        stroke="#B54C64"
		stroke-width="2px"
		d="M 300 480 L 306 486 300 480 310 490 300 500 320 480 330 490 320 500 330 510 320 520 340 500 350 510 340 520 360 500 340 520 360 500 350 510 360 520 370 530 360 540 380 520 360 540 380 520 370 530 380 540 390 550 380 560 400 540 380 560 400 540 390 550 400 560 380 540 400 560 380 540 360 520 380 540 360 520 340 500 360 520 340 500 320 520 340 500 330 510 340 520 320 500 340 520 320 500 340 480 320 500 340 480 330 490 340 500 320 480 340 500 320 480 300 500 320 480 310 490 320 500 300 480 320 500 300 480 304 484 300 480 " />
    <path id="Block5Jump20"
        fill="none"
        stroke="#ED171F"
		stroke-width="2px"
		d="M 340 480 L 346 486 340 480 350 490 340 500 360 480 350 470 340 480 360 460 350 450 340 460 360 440 350 430 340 440 330 430 320 440 340 420 330 410 320 420 340 400 330 390 320 400 310 390 300 400 320 380 310 370 300 380 320 360 330 370 320 380 340 360 330 350 320 360 340 340 330 330 320 340 340 320 330 310 320 320 340 300 350 310 340 320 350 330 340 340 350 350 340 360 350 370 340 380 350 390 340 400 350 410 340 420 360 400 370 410 360 420 370 430 360 440 370 450 360 460 370 470 360 480 370 490 360 500 370 510 360 520 380 500 390 510 380 520 400 500 390 490 380 500 400 480 390 470 380 480 400 460 390 450 380 460 400 440 390 430 380 440 400 420 390 410 380 420 400 400 390 390 380 400 370 390 360 400 380 380 370 370 360 380 380 360 370 350 360 360 380 340 370 330 360 340 380 320 370 310 360 320 380 300 370 290 360 300 350 290 340 300 360 280 350 270 340 280 360 260 370 270 360 280 380 260 370 250 360 260 380 240 370 230 360 240 380 220 390 230 380 240 390 250 380 260 390 270 380 280 390 290 380 300 390 310 380 320 390 330 380 340 390 350 380 360 390 370 380 380 400 360 410 370 400 380 410 390 400 400 410 410 400 420 410 430 400 440 410 450 400 460 420 440 430 450 420 460 430 470 420 480 430 490 420 500 430 510 420 520 440 500 420 520 440 500 430 510 440 520 420 500 440 520 420 500 440 480 460 460 450 450 440 460 460 440 450 430 440 440 430 430 420 440 440 420 430 410 420 420 440 400 430 390 420 400 440 380 430 370 420 380 440 360 430 350 420 360 410 350 400 360 420 340 410 330 400 340 420 320 410 310 400 320 420 300 410 290 400 300 420 280 410 270 400 280 420 260 410 250 400 260 420 240 410 230 400 240 420 220 410 210 400 220 390 210 380 220 400 200 420 180 430 190 420 200 430 210 420 220 430 230 420 240 430 250 420 260 430 270 420 280 430 290 420 300 430 310 420 320 430 330 420 340 440 320 450 330 440 340 450 350 440 360 450 370 440 380 450 390 440 400 450 410 440 420 460 400 470 410 460 420 470 430 460 440 480 420 490 430 480 440 490 450 480 460 490 470 480 480 500 460 510 470 500 480 510 490 500 500 520 480 500 500 520 480 510 490 520 500 500 480 520 500 500 480 520 460 510 450 500 460 520 440 500 460 520 440 510 450 500 440 520 460 500 440 520 460 500 480 520 460 510 470 520 480 500 460 520 480 500 460 480 480 500 460 490 470 500 480 480 460 500 480 480 460 500 440 480 460 500 440 490 450 500 460 480 440 500 460 480 440 500 420 490 410 480 420 500 400 490 390 480 400 470 390 460 400 480 380 470 370 460 380 480 360 470 350 460 360 480 340 470 330 460 340 480 320 470 310 460 320 450 310 440 320 460 300 450 290 440 300 460 280 450 270 440 280 460 260 450 250 440 260 460 240 450 230 440 240 460 220 450 210 440 220 460 200 450 190 440 200 460 180 450 170 440 180 460 160 470 170 460 180 470 190 460 200 470 210 460 220 470 230 460 240 470 250 460 260 470 270 460 280 470 290 460 300 480 280 490 290 480 300 490 310 480 320 490 330 480 340 490 350 480 360 490 370 480 380 500 360 510 370 500 380 510 390 500 400 520 380 530 390 520 400 530 410 520 420 540 400 520 420 540 400 530 410 540 420 520 400 540 420 520 400 540 380 530 370 520 380 540 360 520 380 540 360 530 370 520 360 510 350 500 360 520 340 510 330 500 340 520 320 510 310 500 320 520 300 510 290 500 300 520 280 500 300 520 280 510 290 500 280 490 270 480 280 500 260 480 280 500 260 490 270 480 260 500 280 480 260 500 280 520 300 530 310 520 320 530 330 520 340 540 320 550 330 540 340 560 320 540 340 560 320 550 330 560 340 540 320 560 340 540 320 520 340 540 320 530 330 540 340 520 320 540 340 520 320 540 300 520 320 540 300 530 310 540 320 520 300 540 320 520 300 500 280 520 300 500 320 520 300 510 310 500 300 520 320 500 300 520 320 500 340 520 320 510 330 500 320 520 340 500 320 520 340 500 360 520 340 510 350 500 340 520 360 500 340 520 360 540 380 520 360 540 380 520 400 540 380 530 390 540 400 520 380 540 400 520 380 500 400 520 380 510 390 520 400 500 380 520 400 500 380 520 360 500 380 520 360 510 370 520 380 500 360 520 380 500 360 480 380 500 360 490 370 500 380 480 360 500 380 480 360 500 340 480 360 500 340 490 350 500 360 480 340 500 360 480 340 500 320 480 340 500 320 490 330 500 340 480 320 500 340 480 320 500 300 480 320 500 300 490 310 500 320 480 300 500 320 480 300 500 280 480 300 500 280 490 290 500 300 480 280 500 300 480 280 460 300 480 280 470 290 480 300 460 280 480 300 460 280 480 260 460 280 480 260 470 270 480 280 460 260 480 280 460 260 480 240 500 220 490 210 480 220 500 200 490 190 480 200 500 180 490 170 480 180 500 160 510 170 500 180 510 190 500 200 510 210 500 220 510 230 500 240 520 220 530 230 520 240 530 250 520 260 540 240 520 260 540 240 530 250 540 260 520 240 540 260 520 240 540 220 520 240 540 220 530 230 540 240 520 220 540 240 520 220 500 240 520 220 510 230 520 240 500 220 520 240 500 220 520 200 540 180 520 200 540 180 530 190 540 200 520 180 540 200 520 180 530 190 520 200 500 220 520 200 510 210 520 220 500 200 520 220 500 200 520 180 500 200 520 180 510 190 520 200 500 180 520 200 500 180 520 160 500 180 520 160 510 170 520 180 500 160 520 180 500 160 480 180 500 160 490 170 480 160 500 180 480 160 500 180 480 200 500 180 490 190 480 180 500 200 480 180 500 200 480 220 500 200 490 210 480 200 500 220 480 200 500 220 480 240 500 220 490 230 500 240 480 220 500 240 480 220 490 230 480 240 460 260 480 240 470 250 480 260 460 240 480 260 460 240 480 220 460 240 480 220 470 230 480 240 460 220 480 240 460 220 480 200 460 220 480 200 470 210 480 220 460 200 480 220 460 200 480 180 460 200 480 180 470 190 480 200 460 180 480 200 460 180 480 160 460 180 480 160 470 170 480 180 460 160 480 180 460 160 440 180 460 160 450 170 440 160 460 180 440 160 460 180 440 200 460 180 450 190 440 180 460 200 440 180 460 200 440 220 460 200 450 210 440 200 460 220 440 200 460 220 440 240 460 220 450 230 440 220 460 240 440 220 460 240 440 260 460 240 450 250 440 240 460 260 440 240 460 260 440 280 460 260 450 270 440 260 460 280 440 260 460 280 440 300 460 280 450 290 440 280 460 300 440 280 460 300 440 320 460 300 450 310 440 300 460 320 440 300 460 320 480 300 460 320 480 300 470 310 460 300 480 320 460 300 480 320 460 340 480 320 470 330 460 320 480 340 460 320 480 340 460 360 480 340 470 350 460 340 480 360 460 340 480 360 460 380 480 360 470 370 460 360 480 380 460 360 480 380 460 400 480 380 470 390 460 380 480 400 460 380 480 400 500 380 480 400 500 380 490 390 480 380 500 400 480 380 500 400 480 420 500 400 490 410 480 400 500 420 480 400 500 420 480 440 500 420 490 430 500 440 480 420 500 440 480 420 460 440 480 420 470 430 480 440 460 420 480 440 460 420 480 400 460 420 480 400 470 410 480 420 460 400 480 420 460 400 440 420 460 400 450 410 460 420 440 400 460 420 440 400 460 380 440 400 460 380 450 390 460 400 440 380 460 400 440 380 460 360 440 380 460 360 450 370 460 380 440 360 460 380 440 360 460 340 440 360 460 340 450 350 460 360 440 340 460 360 440 340 460 320 440 340 460 320 450 330 460 340 440 320 460 340 440 320 420 340 440 320 430 330 440 340 420 320 440 340 420 320 440 300 420 320 440 300 430 310 440 320 420 300 440 320 420 300 440 280 420 300 440 280 430 290 440 300 420 280 440 300 420 280 440 260 420 280 440 260 430 270 440 280 420 260 440 280 420 260 440 240 420 260 440 240 430 250 440 260 420 240 440 260 420 240 440 220 420 240 440 220 430 230 440 240 420 220 440 240 420 220 440 200 420 220 440 200 430 210 440 220 420 200 440 220 420 200 440 180 420 200 440 180 430 190 440 200 420 180 440 200 420 180 400 200 420 180 410 190 420 200 400 180 420 200 400 180 410 190 400 200 380 220 400 200 390 210 380 200 400 220 380 200 400 220 420 200 400 220 420 200 410 210 400 200 420 220 400 200 420 220 400 240 420 220 410 230 400 220 420 240 400 220 420 240 400 260 420 240 410 250 400 240 420 260 400 240 420 260 400 280 420 260 410 270 400 260 420 280 400 260 420 280 400 300 420 280 410 290 400 280 420 300 400 280 420 300 400 320 420 300 410 310 400 300 420 320 400 300 420 320 400 340 420 320 410 330 400 320 420 340 400 320 420 340 400 360 420 340 410 350 400 340 420 360 400 340 420 360 440 340 420 360 440 340 430 350 420 340 440 360 420 340 440 360 420 380 440 360 430 370 420 360 440 380 420 360 440 380 420 400 440 380 430 390 420 380 440 400 420 380 440 400 420 420 440 400 430 410 420 400 440 420 420 400 440 420 420 440 440 420 430 430 420 420 440 440 420 420 440 440 460 420 440 440 460 420 450 430 440 420 460 440 440 420 460 440 440 460 460 440 450 450 440 440 460 460 440 440 460 460 440 480 460 460 450 470 460 480 440 460 460 480 440 460 450 470 440 480 420 500 440 480 430 490 440 500 420 480 440 500 420 480 440 460 420 480 440 460 430 470 440 480 420 460 440 480 420 460 440 440 420 460 440 440 430 450 440 460 420 440 440 460 420 440 400 460 420 440 410 450 420 460 400 440 420 460 400 440 420 420 400 440 420 420 410 430 420 440 400 420 420 440 400 420 420 400 400 420 420 400 410 410 420 420 400 400 420 420 400 400 420 380 400 400 420 380 410 390 420 400 400 380 420 400 400 380 420 360 400 380 420 360 410 370 420 380 400 360 420 380 400 360 380 380 400 360 390 370 400 380 380 360 400 380 380 360 400 340 380 360 400 340 390 350 400 360 380 340 400 360 380 340 400 320 380 340 400 320 390 330 400 340 380 320 400 340 380 320 400 300 380 320 400 300 390 310 400 320 380 300 400 320 380 300 400 280 380 300 400 280 390 290 400 300 380 280 400 300 380 280 400 260 380 280 400 260 390 270 400 280 380 260 400 280 380 260 400 240 380 260 400 240 390 250 400 260 380 240 400 260 380 240 400 220 380 240 400 220 390 230 400 240 380 220 400 240 380 220 360 240 380 220 370 230 360 220 380 240 360 220 380 240 360 260 380 240 370 250 360 240 380 260 360 240 380 260 360 280 380 260 370 270 380 280 360 260 380 280 360 260 340 280 360 260 350 270 340 260 360 280 340 260 360 280 340 300 360 280 350 290 340 280 360 300 340 280 360 300 380 280 360 300 380 280 370 290 360 280 380 300 360 280 380 300 360 320 380 300 370 310 360 300 380 320 360 300 380 320 360 340 380 320 370 330 360 320 380 340 360 320 380 340 360 360 380 340 370 350 360 340 380 360 360 340 380 360 360 380 380 360 370 370 360 360 380 380 360 360 380 380 360 400 380 380 370 390 360 380 380 400 360 380 380 400 400 380 380 400 400 380 390 390 380 380 400 400 380 380 400 400 380 420 400 400 390 410 380 400 400 420 380 400 400 420 380 440 400 420 390 430 380 420 400 440 380 420 400 440 380 460 400 440 390 450 380 440 400 460 380 440 400 460 380 480 400 460 390 470 380 460 400 480 380 460 400 480 380 500 400 480 390 490 380 480 400 500 380 480 400 500 380 520 400 500 390 510 400 520 380 500 400 520 380 500 360 520 380 500 370 510 380 520 360 500 380 520 360 500 380 480 360 500 380 480 370 490 380 500 360 480 380 500 360 480 380 460 360 480 380 460 370 470 380 480 360 460 380 480 360 460 380 440 360 460 380 440 370 450 380 460 360 440 380 460 360 440 380 420 360 440 380 420 370 430 380 440 360 420 380 440 360 420 380 400 360 420 380 400 370 410 380 420 360 400 380 420 360 400 340 420 360 400 350 410 360 420 340 400 360 420 340 400 360 380 340 400 360 380 350 390 360 400 340 380 360 400 340 380 360 360 340 380 360 360 350 370 360 380 340 360 360 380 340 360 360 340 340 360 360 340 350 350 360 360 340 340 360 360 340 340 360 320 340 340 360 320 350 330 360 340 340 320 360 340 340 320 360 300 340 320 360 300 350 310 360 320 340 300 360 320 340 300 320 320 340 300 330 310 320 300 340 320 320 300 340 320 320 340 340 320 330 330 320 320 340 340 320 320 340 340 320 360 340 340 330 350 320 340 340 360 320 340 340 360 320 380 340 360 330 370 340 380 320 360 340 380 320 360 300 380 320 360 310 370 300 360 320 380 300 360 320 380 300 400 320 380 310 390 300 380 320 400 300 380 320 400 340 380 320 400 340 380 330 390 320 380 340 400 320 380 340 400 320 420 340 400 330 410 320 400 340 420 320 400 340 420 320 440 340 420 330 430 320 420 340 440 320 420 340 440 360 420 340 440 360 420 350 430 340 420 360 440 340 420 360 440 340 460 360 440 350 450 340 440 360 460 340 440 360 460 340 480 360 460 350 470 340 460 360 480 340 460 360 480 340 500 360 480 350 490 360 500 340 480 360 500 340 480 344 484 340 480 "/>
    <path id="Block5Jump21"
        fill="none"
        stroke="#ED171F"
		stroke-width="2px"
		d="M 280 380 L 274 374 280 380 270 370 260 380 250 370 240 380 230 370 220 380 210 370 200 380 190 370 180 380 190 390 180 400 200 380 180 400 200 380 190 390 200 400 180 380 200 400 180 380 200 360 190 350 180 360 170 350 160 360 180 340 170 330 160 340 180 320 170 310 160 320 180 300 160 320 180 300 170 310 160 300 180 320 160 300 180 320 160 340 180 320 170 330 160 320 180 340 160 320 180 340 160 360 180 340 170 350 160 340 180 360 160 340 180 360 200 340 210 350 200 360 220 340 210 330 200 340 220 320 210 310 200 320 220 300 200 320 220 300 210 310 200 300 220 320 230 330 220 340 230 350 220 360 240 340 250 350 240 360 260 340 250 330 240 340 260 320 240 340 260 320 250 330 240 320 260 340 270 350 260 360 280 340 260 360 280 340 270 350 280 360 260 340 280 360 260 340 240 320 260 340 240 360 260 340 250 350 260 360 240 340 260 360 240 340 220 360 240 340 230 350 240 360 220 340 240 360 220 340 240 320 220 340 240 320 230 330 240 340 220 320 240 340 220 320 200 300 220 320 200 340 220 320 210 330 200 320 220 340 200 320 220 340 200 360 220 340 210 350 220 360 200 340 220 360 200 340 180 360 200 340 190 350 180 340 200 360 180 340 200 360 180 380 200 360 190 370 180 360 200 380 180 360 200 380 220 360 200 380 220 360 210 370 200 360 220 380 230 390 220 400 240 380 220 400 240 380 230 390 240 400 220 380 240 400 220 380 200 360 220 380 240 360 220 380 240 360 230 370 220 360 240 380 220 360 240 380 260 360 240 380 260 360 250 370 240 360 260 380 240 360 260 380 280 360 260 380 280 360 270 370 260 360 280 380 260 360 280 380 276 376 280 380 "/>
    <path id="Block5Jump23"
        fill="none"
        stroke="#ED171F"
		stroke-width="2px"
		d="M 260 200 L 266 194 260 200 280 180 270 170 260 180 250 170 240 180 250 190 260 180 250 190 260 180 250 190 260 200 240 180 260 200 240 180 260 160 250 150 240 160 260 140 250 130 240 140 260 120 250 110 240 120 260 100 250 90 240 100 230 90 240 80 230 70 220 80 210 70 220 60 210 50 200 60 190 50 180 60 170 50 160 60 150 50 140 60 130 50 140 40 130 30 120 40 140 20 130 10 120 20 140 0 150 10 140 20 150 30 140 40 160 20 140 40 160 20 150 30 160 40 170 30 180 40 200 20 190 10 180 20 200 0 210 10 200 20 210 30 200 40 220 20 230 30 220 40 230 50 220 60 240 40 250 50 240 60 250 70 240 80 260 60 270 70 260 80 270 90 260 100 270 110 260 120 270 130 260 140 270 150 260 160 280 140 290 150 280 160 290 170 300 160 310 170 300 180 320 160 310 150 300 160 320 140 310 130 300 140 290 130 280 140 300 120 290 110 280 120 300 100 290 90 280 100 300 80 290 70 280 80 300 60 310 70 300 80 310 90 300 100 310 110 300 120 320 100 330 110 320 120 340 100 330 90 320 100 340 80 330 70 320 80 330 70 320 80 330 70 320 60 340 80 320 60 340 80 320 100 340 80 330 90 320 80 340 100 320 80 340 100 320 120 340 100 330 110 320 100 330 110 320 100 300 120 320 100 310 110 320 120 300 100 320 120 300 100 320 80 300 100 320 80 310 90 320 100 300 80 320 100 300 80 320 60 300 80 320 60 310 70 320 80 300 60 320 80 300 60 280 80 300 60 290 70 280 60 270 50 260 60 280 40 270 30 260 40 250 30 240 40 260 20 240 40 260 20 250 30 260 40 250 30 260 40 280 20 290 30 280 40 290 50 280 60 300 40 280 60 300 40 290 50 280 40 290 50 280 40 300 20 280 40 300 20 290 30 300 40 280 20 300 40 280 20 260 40 280 20 270 30 260 20 280 40 260 20 280 40 260 60 280 40 270 50 260 40 280 60 260 40 280 60 300 80 280 60 300 80 280 100 300 80 290 90 280 80 300 100 280 80 300 100 280 120 300 100 290 110 280 100 300 120 280 100 300 120 280 140 300 120 290 130 280 120 300 140 280 120 300 140 310 130 300 140 310 130 300 120 320 140 300 120 320 140 300 160 320 140 310 150 300 140 320 160 300 140 320 160 300 180 320 160 310 170 320 180 300 160 320 180 300 160 290 170 300 160 290 170 300 180 280 160 300 180 280 160 300 140 280 160 300 140 290 150 300 160 280 140 300 160 280 140 260 160 280 140 270 150 280 160 260 140 280 160 260 140 280 120 260 140 280 120 270 130 280 140 260 120 280 140 260 120 280 100 260 120 280 100 270 110 280 120 260 100 280 120 260 100 280 80 260 100 280 80 270 90 280 100 260 80 280 100 260 80 280 60 260 80 280 60 270 70 280 80 260 60 280 80 260 60 240 80 260 60 250 70 260 80 240 60 260 80 240 60 260 40 240 60 260 40 250 50 260 60 240 40 260 60 240 40 220 60 240 40 230 50 240 60 220 40 240 60 220 40 240 20 230 10 220 20 240 0 220 20 240 0 230 10 220 0 240 20 220 0 240 20 220 40 240 20 230 30 220 20 230 30 220 20 200 40 220 20 210 30 220 40 200 20 220 40 200 20 220 0 200 20 220 0 210 10 220 20 200 0 220 20 200 0 180 20 200 0 190 10 200 20 190 10 200 20 180 40 200 20 190 30 200 40 180 20 200 40 180 20 190 30 180 40 170 30 180 40 170 30 180 20 160 40 180 20 160 40 140 20 160 40 140 20 160 0 140 20 160 0 150 10 160 20 140 0 160 20 140 0 120 20 140 0 130 10 140 20 130 10 140 20 120 40 140 20 130 30 120 20 140 40 120 20 140 40 130 50 140 40 130 50 120 40 140 60 120 40 140 60 160 40 140 60 160 40 150 50 140 40 160 60 140 40 160 60 180 40 160 60 180 40 170 50 160 40 180 60 160 40 180 60 200 40 180 60 200 40 190 50 180 40 200 60 180 40 200 60 220 40 200 60 220 40 210 50 200 40 220 60 200 40 220 60 210 70 220 60 210 70 200 60 220 80 200 60 220 80 240 60 220 80 240 60 230 70 220 60 240 80 220 60 240 80 230 90 240 80 230 90 220 80 240 100 220 80 240 100 260 80 240 100 260 80 250 90 240 80 260 100 240 80 260 100 240 120 260 100 250 110 240 100 260 120 240 100 260 120 240 140 260 120 250 130 240 120 260 140 240 120 260 140 240 160 260 140 250 150 240 140 260 160 240 140 260 160 240 180 260 160 250 170 240 160 260 180 240 160 260 180 280 160 260 180 280 160 270 170 260 160 280 180 260 160 280 180 260 200 280 180 270 190 280 200 260 180 280 200 260 180 270 190 260 200 264 196 260 200 "/>
    <path id="Block5Jump24"
        fill="none"
        stroke="#ED171F"
		stroke-width="2px"
		d="M 120 180 L 114 186 120 180 100 200 90 190 80 200 90 210 80 220 70 210 60 220 70 230 60 240 50 230 40 240 50 250 40 260 50 270 40 280 50 290 40 300 60 280 70 290 60 300 80 280 70 270 60 280 80 260 70 250 60 260 80 240 90 250 80 260 90 270 100 260 110 270 100 280 120 260 110 250 100 260 120 240 110 230 100 240 90 230 80 240 100 220 120 200 100 220 120 200 110 210 120 220 100 200 120 220 100 200 110 210 100 220 80 240 100 220 90 230 80 220 100 240 80 220 100 240 120 220 100 240 120 220 110 230 100 220 120 240 100 220 120 240 100 260 120 240 110 250 100 240 120 260 100 240 120 260 100 280 120 260 110 270 100 260 110 270 100 260 90 270 100 260 90 270 100 280 80 260 100 280 80 260 100 240 80 260 100 240 90 250 100 260 80 240 100 260 80 240 60 260 80 240 70 250 60 240 80 260 60 240 80 260 60 280 80 260 70 270 60 260 80 280 60 260 80 280 60 300 80 280 70 290 60 280 70 290 60 280 40 300 60 280 50 290 60 300 40 280 60 300 40 280 60 260 40 280 60 260 50 270 60 280 40 260 60 280 40 260 60 240 40 260 60 240 50 250 60 260 40 240 60 260 40 240 60 220 40 240 60 220 50 230 60 240 50 230 60 240 80 220 60 240 80 220 70 230 80 240 60 220 80 240 60 220 80 200 60 220 80 200 70 210 80 220 70 210 80 220 100 200 80 220 100 200 90 210 100 220 80 200 100 220 80 200 100 180 120 160 110 150 100 160 120 140 110 130 100 140 120 120 110 110 100 120 110 110 100 120 110 110 100 100 120 120 100 100 120 120 100 140 120 120 110 130 100 120 120 140 100 120 120 140 100 160 120 140 110 150 100 140 120 160 100 140 120 160 100 180 120 160 110 170 120 180 100 160 120 180 100 160 110 170 100 180 80 200 100 180 90 190 80 180 100 200 80 180 100 200 120 180 100 200 110 190 120 200 100 180 120 200 100 180 110 190 120 180 116 184 120 180 " />
    <path id="Block6Jump27"
        fill="none"
        stroke="#00671A"
		stroke-width="2px"
		d="M 100 360 L 94 366 100 360 80 380 90 390 80 400 70 390 60 400 80 380 60 400 80 380 70 390 60 380 80 400 60 380 80 400 100 380 80 400 100 380 90 390 100 400 80 380 100 400 80 380 100 360 80 380 90 370 100 380 80 360 100 380 80 360 90 370 100 360 96 364 100 360 "/>
    <path id="Block6Jump28"
        fill="none"
        stroke="#00671A"
		stroke-width="2px"
		d="M 40 400 L 34 406 40 400 20 420 30 430 20 440 10 430 0 440 10 450 0 460 10 470 0 480 10 490 0 500 10 510 0 520 10 530 0 540 10 550 0 560 20 540 30 550 20 560 30 570 20 580 30 590 20 600 40 580 50 590 40 600 50 610 40 620 60 600 80 580 70 570 60 580 50 570 40 580 60 560 50 550 40 560 60 540 50 530 40 540 30 530 20 540 40 520 30 510 20 520 40 500 30 490 20 500 40 480 30 470 20 480 40 460 30 450 20 460 40 440 20 460 40 440 30 450 20 440 40 460 20 440 40 460 20 480 40 460 30 470 20 460 40 480 20 460 40 480 20 500 40 480 30 490 20 480 40 500 50 510 40 520 60 500 40 520 60 500 50 510 60 520 40 500 60 520 40 500 20 480 40 500 20 520 40 500 30 510 20 500 40 520 20 500 40 520 20 540 40 520 30 530 20 520 40 540 20 520 40 540 60 520 40 540 60 520 50 530 40 520 60 540 70 550 60 560 80 540 60 560 80 540 70 550 80 560 60 540 80 560 60 540 40 520 60 540 40 560 60 540 50 550 40 540 60 560 40 540 60 560 40 580 60 560 50 570 40 560 60 580 40 560 60 580 80 560 60 580 80 560 70 570 60 560 80 580 60 560 80 580 60 600 80 580 70 590 80 600 60 580 80 600 60 580 70 590 60 600 40 620 60 600 50 610 60 620 40 600 60 620 40 600 60 580 40 600 60 580 50 590 60 600 40 580 60 600 40 580 20 600 40 580 30 590 40 600 20 580 40 600 20 580 40 560 20 580 40 560 30 570 40 580 20 560 40 580 20 560 40 540 20 560 40 540 30 550 40 560 20 540 40 560 20 540 0 560 20 540 10 550 20 560 0 540 20 560 0 540 20 520 0 540 20 520 10 530 20 540 0 520 20 540 0 520 20 500 0 520 20 500 10 510 20 520 0 500 20 520 0 500 20 480 0 500 20 480 10 490 20 500 0 480 20 500 0 480 20 460 0 480 20 460 10 470 20 480 0 460 20 480 0 460 20 440 0 460 20 440 10 450 20 460 0 440 20 460 0 440 20 420 0 440 20 420 10 430 0 420 20 440 0 420 20 440 40 420 20 440 40 420 30 430 40 440 20 420 40 440 20 420 40 400 20 420 30 410 40 420 20 400 40 420 20 400 30 410 40 400 36 404 40 400 " />
    <path id="Block7Jump31"
        fill="none"
        stroke="#0B3D91"
		stroke-width="2px"
		d="M 120 600 L 126 606 120 600 130 610 120 620 130 630 120 640 130 650 120 660 110 650 100 660 90 650 80 660 90 670 80 680 90 690 80 700 90 710 80 720 100 700 110 710 100 720 110 730 100 740 120 720 130 730 120 740 140 720 130 710 120 720 140 700 130 690 120 700 110 690 100 700 120 680 110 670 100 680 120 660 130 670 120 680 140 660 150 670 140 680 150 690 140 700 150 710 140 720 150 730 140 740 150 750 140 760 160 740 170 750 160 760 170 770 160 780 180 760 190 770 180 780 190 790 180 800 190 810 180 820 200 800 210 810 200 820 210 830 200 840 220 820 230 830 220 840 230 850 220 860 240 840 250 850 240 860 260 840 250 830 240 840 260 820 250 810 240 820 230 810 220 820 240 800 230 790 220 800 210 790 200 800 220 780 210 770 200 780 220 760 210 750 200 760 190 750 180 760 200 740 190 730 180 740 170 730 160 740 180 720 170 710 160 720 180 700 170 690 160 700 180 680 170 670 160 680 180 660 170 650 160 660 150 650 140 660 160 640 150 630 140 640 160 620 170 630 160 640 180 620 160 640 180 620 170 630 180 640 190 650 180 660 190 670 180 680 190 690 180 700 190 710 180 720 200 700 210 710 200 720 210 730 200 740 220 720 230 730 220 740 230 750 220 760 230 770 220 780 240 760 250 770 240 780 250 790 240 800 260 780 270 790 260 800 270 810 260 820 270 830 260 840 280 820 260 840 280 820 270 830 280 840 260 820 280 840 260 820 280 800 300 780 290 770 280 780 270 770 260 780 280 760 270 750 260 760 250 750 240 760 260 740 250 730 240 740 260 720 250 710 240 720 230 710 220 720 240 700 230 690 220 700 210 690 200 700 220 680 210 670 200 680 220 660 210 650 200 660 220 640 200 660 220 640 210 650 200 640 220 660 230 670 220 680 240 660 250 670 240 680 250 690 240 700 260 680 270 690 260 700 270 710 260 720 270 730 260 740 280 720 290 730 280 740 290 750 280 760 300 740 310 750 300 760 310 770 300 780 310 790 300 800 310 810 300 820 320 800 330 810 320 820 330 830 320 840 340 820 350 830 340 840 360 820 350 810 340 820 360 800 350 790 340 800 330 790 320 800 340 780 330 770 320 780 340 760 330 750 320 760 340 740 330 730 320 740 310 730 300 740 320 720 310 710 300 720 290 710 280 720 300 700 290 690 280 700 300 680 310 690 300 700 320 680 330 690 320 700 330 710 320 720 340 700 350 710 340 720 350 730 340 740 350 750 340 760 350 770 340 780 360 760 370 770 360 780 370 790 360 800 370 810 360 820 380 800 360 820 380 800 370 810 380 820 360 800 380 820 360 800 380 780 360 800 380 780 370 790 380 800 360 780 380 800 360 780 380 760 370 750 360 760 380 740 370 730 360 740 380 720 370 710 360 720 380 700 370 690 360 700 350 690 340 700 360 680 380 660 390 670 380 680 390 690 380 700 390 710 380 720 390 730 380 740 400 720 410 730 400 740 420 720 410 710 400 720 420 700 410 690 400 700 420 680 410 670 400 680 420 660 410 650 400 660 420 640 430 650 420 660 430 670 420 680 430 690 420 700 430 710 420 720 440 700 460 680 450 670 440 680 460 660 450 650 440 660 460 640 450 630 440 640 460 620 440 640 460 620 450 630 440 620 460 640 470 650 460 660 470 670 460 680 480 660 460 680 480 660 470 670 480 680 460 660 480 680 460 660 480 640 460 660 480 640 470 650 480 660 460 640 480 660 460 640 440 620 460 640 440 660 460 640 450 650 440 640 460 660 440 640 460 660 440 680 460 660 450 670 440 660 460 680 440 660 460 680 440 700 460 680 450 690 460 700 440 680 460 700 440 680 450 690 440 700 420 720 440 700 430 710 440 720 420 700 440 720 420 700 440 680 420 700 440 680 430 690 440 700 420 680 440 700 420 680 440 660 420 680 440 660 430 670 440 680 420 660 440 680 420 660 440 640 420 660 440 640 430 650 440 660 420 640 440 660 420 640 400 660 420 640 410 650 400 640 420 660 400 640 420 660 400 680 420 660 410 670 400 660 420 680 400 660 420 680 400 700 420 680 410 690 400 680 420 700 400 680 420 700 400 720 420 700 410 710 400 700 420 720 400 700 420 720 400 740 420 720 410 730 420 740 400 720 420 740 400 720 380 740 400 720 390 730 400 740 380 720 400 740 380 720 400 700 380 720 400 700 390 710 400 720 380 700 400 720 380 700 400 680 380 700 400 680 390 690 400 700 380 680 400 700 380 680 400 660 380 680 400 660 390 670 400 680 380 660 400 680 380 660 360 680 380 660 370 670 380 680 360 660 380 680 360 660 370 670 360 680 340 700 360 680 350 690 340 680 360 700 340 680 360 700 380 680 360 700 380 680 370 690 360 680 380 700 360 680 380 700 360 720 380 700 370 710 360 700 380 720 360 700 380 720 360 740 380 720 370 730 360 720 380 740 360 720 380 740 360 760 380 740 370 750 360 740 380 760 360 740 380 760 360 780 380 760 370 770 380 780 360 760 380 780 360 760 340 780 360 760 350 770 360 780 340 760 360 780 340 760 360 740 340 760 360 740 350 750 360 760 340 740 360 760 340 740 360 720 340 740 360 720 350 730 360 740 340 720 360 740 340 720 360 700 340 720 360 700 350 710 360 720 340 700 360 720 340 700 320 720 340 700 330 710 340 720 320 700 340 720 320 700 340 680 320 700 340 680 330 690 340 700 320 680 340 700 320 680 300 700 320 680 310 690 320 700 300 680 320 700 300 680 280 700 300 680 290 690 280 680 300 700 280 680 300 700 280 720 300 700 290 710 280 700 300 720 280 700 300 720 320 700 300 720 320 700 310 710 300 700 320 720 300 700 320 720 300 740 320 720 310 730 300 720 320 740 300 720 320 740 340 720 320 740 340 720 330 730 320 720 340 740 320 720 340 740 320 760 340 740 330 750 320 740 340 760 320 740 340 760 320 780 340 760 330 770 320 760 340 780 320 760 340 780 320 800 340 780 330 790 320 780 340 800 320 780 340 800 360 780 340 800 360 780 350 790 340 780 360 800 340 780 360 800 340 820 360 800 350 810 340 800 360 820 340 800 360 820 340 840 360 820 350 830 360 840 340 820 360 840 340 820 320 840 340 820 330 830 340 840 320 820 340 840 320 820 340 800 320 820 340 800 330 810 340 820 320 800 340 820 320 800 300 820 320 800 310 810 320 820 300 800 320 820 300 800 320 780 300 800 320 780 310 790 320 800 300 780 320 800 300 780 320 760 300 780 320 760 310 770 320 780 300 760 320 780 300 760 320 740 300 760 320 740 310 750 320 760 300 740 320 760 300 740 280 760 300 740 290 750 300 760 280 740 300 760 280 740 300 720 280 740 300 720 290 730 300 740 280 720 300 740 280 720 260 740 280 720 270 730 280 740 260 720 280 740 260 720 280 700 260 720 280 700 270 710 280 720 260 700 280 720 260 700 280 680 260 700 280 680 270 690 280 700 260 680 280 700 260 680 240 700 260 680 250 690 260 700 240 680 260 700 240 680 260 660 240 680 260 660 250 670 260 680 240 660 260 680 240 660 220 680 240 660 230 670 240 680 220 660 240 680 220 660 200 640 220 660 200 680 220 660 210 670 200 660 220 680 200 660 220 680 200 700 220 680 210 690 200 680 220 700 200 680 220 700 240 680 220 700 240 680 230 690 220 680 240 700 220 680 240 700 220 720 240 700 230 710 220 700 240 720 220 700 240 720 260 700 240 720 260 700 250 710 240 700 260 720 240 700 260 720 240 740 260 720 250 730 240 720 260 740 240 720 260 740 240 760 260 740 250 750 240 740 260 760 240 740 260 760 280 740 260 760 280 740 270 750 260 740 280 760 260 740 280 760 260 780 280 760 270 770 260 760 280 780 260 760 280 780 300 760 280 780 300 760 290 770 280 760 300 780 280 760 300 780 280 800 300 780 290 790 300 800 280 780 300 800 280 780 290 790 280 800 260 820 280 800 270 810 280 820 260 800 280 820 260 800 280 780 260 800 280 780 270 790 280 800 260 780 280 800 260 780 240 800 260 780 250 790 260 800 240 780 260 800 240 780 260 760 240 780 260 760 250 770 260 780 240 760 260 780 240 760 220 780 240 760 230 770 240 780 220 760 240 780 220 760 240 740 220 760 240 740 230 750 240 760 220 740 240 760 220 740 240 720 220 740 240 720 230 730 240 740 220 720 240 740 220 720 200 740 220 720 210 730 220 740 200 720 220 740 200 720 220 700 200 720 220 700 210 710 220 720 200 700 220 720 200 700 180 720 200 700 190 710 200 720 180 700 200 720 180 700 200 680 180 700 200 680 190 690 200 700 180 680 200 700 180 680 200 660 180 680 200 660 190 670 200 680 180 660 200 680 180 660 200 640 180 660 200 640 190 650 200 660 180 640 200 660 180 640 160 620 180 640 160 620 140 640 160 620 150 630 140 620 160 640 140 620 160 640 140 660 160 640 150 650 140 640 160 660 140 640 160 660 180 640 160 660 180 640 170 650 160 640 180 660 160 640 180 660 160 680 180 660 170 670 160 660 180 680 160 660 180 680 160 700 180 680 170 690 160 680 180 700 160 680 180 700 160 720 180 700 170 710 160 700 180 720 160 700 180 720 160 740 180 720 170 730 160 720 180 740 160 720 180 740 200 720 180 740 200 720 190 730 180 720 200 740 180 720 200 740 180 760 200 740 190 750 180 740 200 760 180 740 200 760 220 740 200 760 220 740 210 750 200 740 220 760 200 740 220 760 200 780 220 760 210 770 200 760 220 780 200 760 220 780 200 800 220 780 210 790 200 780 220 800 200 780 220 800 240 780 220 800 240 780 230 790 220 780 240 800 220 780 240 800 220 820 240 800 230 810 220 800 240 820 220 800 240 820 260 800 240 820 260 800 250 810 240 800 260 820 240 800 260 820 240 840 260 820 250 830 240 820 260 840 240 820 260 840 240 860 260 840 250 850 260 860 240 840 260 860 240 840 220 860 240 840 230 850 240 860 220 840 240 860 220 840 240 820 220 840 240 820 230 830 240 840 220 820 240 840 220 820 200 840 220 820 210 830 220 840 200 820 220 840 200 820 220 800 200 820 220 800 210 810 220 820 200 800 220 820 200 800 180 820 200 800 190 810 200 820 180 800 200 820 180 800 200 780 180 800 200 780 190 790 200 800 180 780 200 800 180 780 200 760 180 780 200 760 190 770 200 780 180 760 200 780 180 760 160 780 180 760 170 770 180 780 160 760 180 780 160 760 180 740 160 760 180 740 170 750 180 760 160 740 180 760 160 740 140 760 160 740 150 750 160 760 140 740 160 760 140 740 160 720 140 740 160 720 150 730 160 740 140 720 160 740 140 720 160 700 140 720 160 700 150 710 160 720 140 700 160 720 140 700 160 680 140 700 160 680 150 690 160 700 140 680 160 700 140 680 160 660 140 680 160 660 150 670 160 680 140 660 160 680 140 660 120 680 140 660 130 670 140 680 120 660 140 680 120 660 100 680 120 660 110 670 100 660 120 680 100 660 120 680 100 700 120 680 110 690 100 680 120 700 100 680 120 700 140 680 120 700 140 680 130 690 120 680 140 700 120 680 140 700 120 720 140 700 130 710 120 700 140 720 120 700 140 720 120 740 140 720 130 730 140 740 120 720 140 740 120 720 100 740 120 720 110 730 120 740 100 720 120 740 100 720 120 700 100 720 120 700 110 710 120 720 100 700 120 720 100 700 80 720 100 700 90 710 100 720 80 700 100 720 80 700 100 680 80 700 100 680 90 690 100 700 80 680 100 700 80 680 100 660 80 680 100 660 90 670 100 680 80 660 100 680 80 660 100 640 80 660 100 640 90 650 80 640 100 660 80 640 100 660 120 640 100 660 120 640 110 650 100 640 120 660 100 640 120 660 140 640 120 660 140 640 130 650 140 660 120 640 140 660 120 640 140 620 120 640 140 620 130 630 140 640 120 620 140 640 120 620 140 600 120 620 140 600 130 610 140 620 120 600 140 620 120 600 124 604 120 600 "/>
    <path id="Block7Jump34"
        fill="none"
        stroke="#0B3D91"
		stroke-width="2px"
		d="M 380 540 L 386 534 380 540 400 520 410 530 400 540 410 550 400 560 420 540 430 550 420 560 440 540 430 530 420 540 440 520 450 530 440 540 450 550 440 560 460 540 480 520 470 510 460 520 450 510 440 520 460 500 450 490 440 500 460 480 470 490 460 500 480 480 470 470 460 480 480 460 470 450 460 460 480 440 460 460 480 440 470 450 460 440 480 460 460 440 480 460 460 480 480 460 470 470 460 460 480 480 490 490 480 500 490 510 480 520 500 500 510 510 500 520 510 530 500 540 520 520 540 500 530 490 520 500 540 480 530 470 520 480 540 460 530 450 520 460 540 440 530 430 520 440 510 430 500 440 520 420 510 410 500 420 520 400 500 420 520 400 510 410 500 400 520 420 500 400 520 420 500 440 520 420 510 430 500 420 520 440 500 420 520 440 540 420 550 430 540 440 560 420 550 410 540 420 560 400 550 390 540 400 560 380 550 370 540 380 560 360 550 350 540 360 530 350 520 360 540 340 520 360 540 340 530 350 520 340 540 360 520 340 540 360 560 340 580 320 570 310 560 320 550 310 540 320 560 300 550 290 540 300 530 290 520 300 540 280 530 270 520 280 510 270 500 280 520 260 510 250 500 260 490 250 480 260 500 240 480 260 500 240 490 250 480 240 500 260 480 240 500 260 520 240 500 260 520 240 510 250 500 240 520 260 500 240 520 260 500 280 520 260 510 270 500 260 520 280 500 260 520 280 540 260 550 270 540 280 560 260 550 250 540 260 560 240 550 230 540 240 560 220 550 210 540 220 530 210 520 220 540 200 560 180 550 170 540 180 530 170 520 180 540 160 530 150 520 160 510 150 500 160 520 140 500 160 520 140 510 150 500 140 520 160 500 140 520 160 540 140 550 150 540 160 560 140 570 150 560 160 570 170 560 180 570 190 560 200 570 210 560 220 570 230 560 240 570 250 560 260 570 270 560 280 570 290 560 300 580 280 590 290 580 300 600 280 590 270 580 280 600 260 580 280 600 260 590 270 580 260 600 280 580 260 600 280 580 300 600 280 590 290 600 300 580 280 600 300 580 280 560 300 580 280 570 290 580 300 560 280 580 300 560 280 580 260 560 280 580 260 570 270 580 280 560 260 580 280 560 260 580 240 600 220 590 210 580 220 600 200 590 190 580 200 600 180 580 200 600 180 590 190 580 180 600 200 580 180 600 200 580 220 600 200 590 210 580 200 600 220 580 200 600 220 580 240 600 220 590 230 600 240 580 220 600 240 580 220 590 230 580 240 560 260 580 240 570 250 580 260 560 240 580 260 560 240 580 220 560 240 580 220 570 230 580 240 560 220 580 240 560 220 580 200 560 220 580 200 570 210 580 220 560 200 580 220 560 200 580 180 560 200 580 180 570 190 580 200 560 180 580 200 560 180 580 160 600 140 610 150 600 160 620 140 600 160 620 140 610 150 620 160 600 140 620 160 600 140 580 160 600 140 590 150 600 160 580 140 600 160 580 140 590 150 580 160 560 180 580 160 570 170 580 180 560 160 580 180 560 160 580 140 560 160 580 140 570 150 580 160 560 140 580 160 560 140 540 160 560 140 550 150 560 160 540 140 560 160 540 140 520 160 540 140 530 150 520 140 540 160 520 140 540 160 520 180 540 160 530 170 520 160 540 180 520 160 540 180 560 160 540 180 560 160 550 170 540 160 560 180 540 160 560 180 540 200 560 180 550 190 560 200 540 180 560 200 540 180 550 190 540 200 520 220 540 200 530 210 520 200 540 220 520 200 540 220 560 200 540 220 560 200 550 210 540 200 560 220 540 200 560 220 540 240 560 220 550 230 540 220 560 240 540 220 560 240 540 260 560 240 550 250 540 240 560 260 540 240 560 260 540 280 560 260 550 270 560 280 540 260 560 280 540 260 520 280 540 260 530 270 520 260 540 280 520 260 540 280 520 300 540 280 530 290 520 280 540 300 520 280 540 300 560 280 540 300 560 280 550 290 540 280 560 300 540 280 560 300 540 320 560 300 550 310 540 300 560 320 540 300 560 320 580 300 560 320 580 300 570 310 560 300 580 320 560 300 580 320 560 340 580 320 570 330 580 340 560 320 580 340 560 320 570 330 560 340 540 360 560 340 550 350 540 340 560 360 540 340 560 360 540 380 560 360 550 370 540 360 560 380 570 390 560 400 570 410 560 420 580 400 560 420 580 400 570 410 580 420 560 400 580 420 560 400 580 380 560 400 580 380 570 390 580 400 560 380 580 400 560 380 540 360 560 380 540 400 560 380 550 390 540 380 560 400 540 380 560 400 540 420 560 400 550 410 540 400 560 420 540 400 560 420 540 440 560 420 550 430 560 440 540 420 560 440 540 420 520 440 540 420 530 430 520 420 540 440 520 420 540 440 520 460 540 440 530 450 520 440 540 460 550 470 540 480 550 490 540 500 560 480 540 500 560 480 550 490 560 500 540 480 560 500 540 480 560 460 540 480 560 460 550 470 560 480 540 460 560 480 540 460 520 440 540 460 520 480 540 460 530 470 520 460 540 480 520 460 540 480 520 500 540 480 530 490 520 480 540 500 520 480 540 500 520 520 540 500 530 510 540 520 520 500 540 520 520 500 530 510 520 520 500 540 520 520 510 530 520 540 500 520 520 540 500 520 520 500 500 520 520 500 510 510 520 520 500 500 520 520 500 500 480 520 500 500 490 510 500 520 480 500 500 520 480 500 500 480 480 500 500 480 490 490 500 500 480 480 500 500 480 480 460 460 480 480 460 500 480 480 470 490 480 500 460 480 480 500 460 480 440 500 460 480 450 490 440 480 460 500 440 480 460 500 440 520 460 500 450 510 440 500 460 520 440 500 460 520 480 500 460 520 480 500 470 510 460 500 480 520 460 500 480 520 460 540 480 520 470 530 480 540 460 520 480 540 460 520 470 530 460 540 440 560 460 540 450 550 460 560 440 540 460 560 440 540 460 520 440 540 460 520 450 530 460 540 440 520 460 540 440 520 420 540 440 520 430 530 420 520 410 510 400 520 420 500 410 490 400 500 420 480 410 470 400 480 420 460 400 480 420 460 410 470 400 460 420 480 400 460 420 480 400 500 420 480 410 490 400 480 420 500 400 480 420 500 400 520 420 500 410 510 400 500 420 520 400 500 420 520 440 540 420 520 440 540 420 560 440 540 430 550 440 560 420 540 440 560 420 540 400 560 420 540 410 550 420 560 400 540 420 560 400 540 420 520 400 540 420 520 410 530 420 540 400 520 420 540 400 520 380 540 400 520 390 530 400 540 380 520 400 540 380 520 390 530 380 540 384 536 380 540 " />
    <path id="Block8Jump36"
        fill="none"
        stroke="#0E1F7C"
		stroke-width="2px"
		d="M 500 580 L 506 586 500 580 510 590 500 600 520 580 530 590 520 600 540 580 530 570 520 580 540 560 550 570 540 580 560 560 570 570 560 580 580 560 570 550 560 560 580 540 590 550 580 560 600 540 590 530 580 540 600 520 610 530 600 540 620 520 610 510 600 520 620 500 610 490 600 500 620 480 630 490 620 500 630 510 620 520 640 500 620 520 640 500 630 510 640 520 620 500 640 520 620 500 640 480 630 470 620 480 640 460 630 450 620 460 640 440 630 430 620 440 610 430 600 440 620 420 600 440 620 420 610 430 600 420 620 440 600 420 620 440 640 420 650 430 640 440 660 420 650 410 640 420 660 400 650 390 640 400 660 380 650 370 640 380 660 360 650 350 640 360 630 350 620 360 640 340 660 320 650 310 640 320 660 300 650 290 640 300 660 280 670 290 660 300 670 310 660 320 670 330 660 340 680 320 660 340 680 320 670 330 680 340 660 320 680 340 660 320 680 300 660 320 680 300 670 310 680 320 660 300 680 320 660 300 680 280 670 270 660 280 680 260 670 250 660 260 680 240 670 230 660 240 650 230 640 240 660 220 680 200 660 220 680 200 670 210 680 220 690 230 680 240 690 250 680 260 690 270 680 280 700 260 680 280 700 260 690 270 700 280 680 260 700 280 680 260 700 240 680 260 700 240 690 250 700 260 680 240 700 260 680 240 700 220 680 240 700 220 690 230 700 240 680 220 700 240 680 220 660 200 680 220 660 200 670 210 660 220 640 240 660 220 650 230 640 220 660 240 640 220 660 240 680 220 660 240 680 220 670 230 660 220 680 240 660 220 680 240 660 260 680 240 670 250 660 240 680 260 660 240 680 260 660 280 680 260 670 270 660 260 680 280 660 260 680 280 660 300 680 280 670 290 680 300 660 280 680 300 660 280 640 300 660 280 650 290 640 280 660 300 640 280 660 300 640 320 660 300 650 310 640 300 660 320 640 300 660 320 640 340 660 320 650 330 660 340 640 320 660 340 640 320 650 330 640 340 620 360 640 340 630 350 620 340 640 360 620 340 640 360 660 340 640 360 660 340 650 350 640 340 660 360 640 340 660 360 640 380 660 360 650 370 640 360 660 380 640 360 660 380 640 400 660 380 650 390 640 380 660 400 640 380 660 400 640 420 660 400 650 410 640 400 660 420 640 400 660 420 640 440 660 420 650 430 660 440 640 420 660 440 640 420 620 440 640 420 630 430 620 420 640 440 620 420 640 440 620 460 640 440 630 450 620 440 640 460 620 440 640 460 620 480 640 460 630 470 620 460 640 480 620 460 640 480 620 500 640 480 630 490 640 500 620 480 640 500 620 480 600 500 620 480 610 490 600 480 620 500 600 480 620 500 600 520 620 500 610 510 600 500 620 520 600 500 620 520 600 540 620 520 610 530 620 540 600 520 620 540 600 520 580 540 600 520 590 530 580 520 600 540 580 520 600 540 580 560 600 540 590 550 600 560 580 540 600 560 580 540 560 560 580 540 570 550 560 540 580 560 560 540 580 560 560 580 580 560 570 570 580 580 560 560 580 580 560 560 540 580 560 560 550 570 560 580 540 560 560 580 540 560 520 580 540 560 530 570 520 560 540 580 520 560 540 580 520 600 540 580 530 590 540 600 520 580 540 600 520 580 500 600 520 580 510 590 520 600 500 580 520 600 500 580 504 584 500 580 "/>
    <path id="Block8Jump40"
        fill="none"
        stroke="#0E1F7C"
		stroke-width="2px"
		d="M 120 580 L 114 586 120 580 100 600 90 590 80 600 90 610 80 620 70 610 60 620 70 630 60 640 50 630 40 640 50 650 40 660 60 640 70 650 60 660 70 670 60 680 80 660 60 680 80 660 70 670 80 680 60 660 80 680 60 660 80 640 100 620 110 630 100 640 120 620 110 610 100 620 120 600 100 620 120 600 110 610 100 600 120 620 100 600 120 620 100 640 120 620 110 630 120 640 100 620 120 640 100 620 80 640 100 620 90 630 100 640 80 620 100 640 80 620 90 630 80 640 60 660 80 640 70 650 80 660 60 640 80 660 60 640 40 660 60 640 50 650 60 660 40 640 60 660 40 640 60 620 40 640 60 620 50 630 40 620 60 640 40 620 60 640 80 620 60 640 80 620 70 630 80 640 60 620 80 640 60 620 80 600 60 620 80 600 70 610 60 600 80 620 60 600 80 620 100 600 80 620 100 600 90 610 100 620 80 600 100 620 80 600 100 580 90 570 80 580 100 560 80 580 100 560 90 570 80 560 100 580 80 560 100 580 80 600 100 580 90 590 80 580 100 600 80 580 100 600 120 580 100 600 110 590 120 600 100 580 120 600 100 580 110 590 120 580 116 584 120 580 " />
    <path id="Block9Jump44"
        fill="none"
        stroke="#2A1301"
		stroke-width="2px"
		d="M 240 860 L 246 866 240 860 250 870 240 880 250 890 240 900 250 910 240 920 250 930 240 940 230 930 220 940 210 930 200 940 190 930 180 940 170 930 160 940 170 950 160 960 180 940 160 960 180 940 170 950 180 960 160 940 180 960 160 940 180 920 160 940 180 920 170 930 180 940 170 930 180 940 200 920 180 940 200 920 190 930 180 920 200 940 180 920 200 940 220 920 200 940 220 920 210 930 200 920 220 940 230 950 220 960 210 950 200 960 210 970 200 980 220 960 200 980 220 960 210 970 220 980 200 960 220 980 200 960 220 940 200 960 220 940 210 950 220 960 210 950 220 960 240 940 220 960 240 940 230 950 220 940 230 950 220 940 200 920 220 940 240 920 220 940 240 920 230 930 220 920 240 940 220 920 240 940 260 920 270 930 260 940 280 920 290 930 280 940 300 920 290 910 280 920 300 900 310 910 300 920 310 930 300 940 320 920 330 930 320 940 340 920 330 910 320 920 340 900 350 910 340 920 350 930 340 940 360 920 380 900 390 910 380 920 400 900 410 910 400 920 420 900 400 920 420 900 410 910 420 920 400 900 420 920 400 900 380 920 400 900 390 910 400 920 380 900 400 920 380 900 360 920 380 900 370 910 380 920 360 900 350 890 340 900 360 880 350 870 340 880 360 860 350 850 340 860 360 840 340 860 360 840 350 850 340 840 360 860 340 840 360 860 340 880 360 860 350 870 340 860 360 880 340 860 360 880 340 900 360 880 350 890 340 880 360 900 340 880 360 900 380 920 360 900 370 910 360 920 340 940 360 920 350 930 340 920 350 930 340 920 360 900 340 920 360 900 350 910 360 920 340 900 360 920 340 900 320 920 340 900 330 910 320 900 340 920 320 900 340 920 320 940 340 920 330 930 340 940 320 920 340 940 320 920 300 940 320 920 310 930 320 940 300 920 320 940 300 920 320 900 300 920 320 900 310 910 320 920 300 900 320 920 300 900 280 920 300 900 290 910 300 920 290 910 300 920 280 940 300 920 290 930 300 940 280 920 300 940 280 920 260 940 280 920 270 930 280 940 260 920 280 940 260 920 240 940 260 920 250 930 260 940 240 920 260 940 240 920 260 900 240 920 260 900 250 910 260 920 240 900 260 920 240 900 260 880 240 900 260 880 250 890 260 900 240 880 260 900 240 880 260 860 240 880 260 860 250 870 260 880 240 860 260 880 240 860 244 864 240 860 "/>
    <path id="Block9Jump53"
        fill="none"
        stroke="#2A1301"
		stroke-width="2px"
		d="M 160 100 L 154 94 160 100 150 90 140 100 160 80 140 100 160 80 150 90 140 80 160 100 140 80 160 100 156 96 160 100 " />
    <path id="Block10Jump59"
        fill="none"
        stroke="#000000"
		stroke-width="2px"
		d="M 340 500 L 348 500 340 500 360 500 340 500 360 500 360 520 360 500 360 520 380 520 360 520 380 520 400 520 380 520 400 520 400 500 400 520 400 500 400 480 400 500 400 480 400 460 400 480 400 460 420 460 400 460 420 460 420 480 420 460 420 480 420 500 420 480 420 500 420 520 420 500 420 520 440 520 420 520 440 520 440 500 440 520 440 500 440 480 440 500 440 480 460 480 440 480 460 480 460 460 460 480 460 460 460 440 460 460 460 440 480 440 460 440 480 440 480 460 480 440 480 460 480 480 480 460 480 480 500 480 480 480 500 480 500 500 500 480 500 500 520 500 500 500 520 500 520 480 520 500 520 480 520 460 520 480 520 460 520 440 520 460 520 440 500 440 520 440 500 440 500 420 500 440 500 420 500 400 500 420 500 400 520 400 500 400 520 400 520 420 520 400 520 420 540 420 520 420 540 420 540 400 540 420 540 400 540 380 540 400 540 380 540 360 540 380 540 360 520 360 540 360 520 360 520 340 520 360 520 340 540 340 520 340 540 340 560 340 540 340 560 340 580 340 560 340 580 340 580 320 580 340 580 320 600 340 580 320 600 340 620 360 600 340 620 360 640 360 620 360 640 360 640 380 640 360 640 380 640 400 640 380 640 400 640 420 640 400 640 420 620 420 640 420 620 420 600 420 620 420 600 420 600 440 600 420 600 440 620 440 600 440 620 440 620 460 620 440 620 460 620 480 620 460 620 480 600 480 620 480 600 480 600 500 600 480 600 500 600 520 600 500 600 520 580 520 600 520 580 520 580 540 580 520 580 540 560 540 580 540 560 540 560 560 560 540 560 560 540 560 560 560 540 560 520 560 540 560 520 560 520 580 520 560 520 580 500 580 520 580 500 580 500 600 500 580 500 600 520 600 500 600 520 600 540 600 520 600 540 600 540 580 540 600 540 580 560 580 540 580 560 580 580 580 560 580 580 580 580 560 580 580 580 560 600 560 580 560 600 560 600 540 600 560 600 540 620 540 600 540 620 540 620 520 620 540 620 520 640 520 620 520 640 520 640 500 640 520 640 500 640 480 640 500 640 480 640 460 640 480 640 460 640 440 640 460 640 440 660 440 640 440 660 440 660 420 660 440 660 420 660 400 660 420 660 400 660 380 660 400 660 380 660 360 660 380 660 360 660 340 660 360 660 340 680 340 660 340 680 340 680 320 680 340 680 320 680 300 680 320 680 300 680 280 680 300 680 280 700 280 680 280 700 280 700 260 700 280 700 260 700 240 700 260 700 240 700 220 700 240 700 220 680 220 700 220 680 220 680 200 680 220 680 200 660 200 680 200 660 200 660 220 660 200 660 220 640 220 660 220 640 220 640 240 640 220 640 240 660 240 640 240 660 240 660 260 660 240 660 260 660 280 660 260 660 280 640 280 660 280 640 280 640 300 640 280 640 300 640 320 640 300 640 320 640 340 640 320 640 340 620 340 640 340 620 340 620 360 620 340 620 360 620 340 640 340 620 320 640 340 620 320 600 300 620 320 600 300 580 300 600 300 580 300 580 320 580 300 580 320 580 300 600 300 600 280 600 300 600 280 620 300 600 280 620 300 640 320 620 300 640 320 620 300 600 280 600 260 600 280 600 260 580 260 600 260 580 260 580 240 580 260 580 240 600 240 580 240 600 240 600 220 600 240 600 220 620 240 600 220 620 240 640 260 620 240 640 260 620 240 600 220 600 200 600 220 600 200 620 220 600 200 620 220 640 240 620 220 640 240 620 220 600 200 600 180 600 200 600 180 620 200 600 180 620 200 640 220 620 200 640 220 620 200 600 180 580 180 600 180 580 180 580 160 580 180 580 160 600 160 580 160 600 160 620 160 600 160 620 160 620 180 620 160 620 180 640 180 620 180 640 180 660 180 640 180 660 180 660 200 660 180 660 200 660 180 640 180 620 180 620 160 620 140 620 160 620 140 600 140 620 140 600 140 580 140 600 140 580 140 560 140 580 140 560 140 540 140 560 140 540 140 520 140 540 140 520 140 500 140 520 140 500 140 500 160 500 140 500 160 520 160 500 160 520 160 520 180 520 160 520 180 540 180 520 180 540 180 540 200 540 180 540 200 520 200 540 200 520 200 520 220 520 200 520 220 540 220 520 220 540 220 540 240 540 220 540 240 540 260 540 240 540 260 520 260 540 260 520 260 520 240 520 260 520 240 500 240 520 240 500 240 480 240 500 240 480 240 480 260 480 240 480 260 500 260 480 260 500 260 500 280 500 260 500 280 520 280 500 280 520 280 520 300 520 280 520 300 540 300 520 300 540 300 540 320 540 300 540 320 560 320 540 320 560 320 560 340 560 320 560 340 560 360 560 340 560 360 560 380 560 360 560 380 580 380 560 380 580 380 580 400 580 380 580 400 580 420 580 400 580 420 560 420 580 420 560 420 560 440 560 420 560 440 540 440 560 440 540 440 540 460 540 440 540 460 560 460 540 460 560 460 560 480 560 460 560 480 560 500 560 480 560 500 580 520 560 500 580 520 560 500 540 500 560 500 540 500 540 520 540 500 540 520 520 520 540 520 520 520 520 540 520 520 520 540 540 540 520 540 540 540 560 560 540 540 560 560 540 540 520 540 500 540 520 540 500 540 500 520 500 540 500 520 480 520 500 520 480 520 480 540 480 520 480 540 500 560 480 540 500 560 520 560 500 560 520 560 500 560 480 540 460 540 480 540 460 540 460 560 460 540 460 560 460 580 460 560 460 580 480 580 460 580 480 580 500 580 480 580 500 580 480 580 460 580 460 560 440 560 460 560 440 560 420 560 440 560 420 560 400 560 420 560 400 560 400 540 400 560 400 540 380 540 400 540 380 540 380 520 380 540 380 520 380 540 400 540 400 560 420 560 440 560 460 560 460 540 480 540 480 520 500 520 500 540 520 540 520 520 540 520 540 500 560 500 560 480 560 460 580 480 560 460 580 480 600 480 580 480 600 480 580 480 560 460 540 460 540 440 560 440 560 420 580 420 580 400 600 420 580 400 600 420 580 400 580 380 600 400 580 380 600 400 620 400 600 400 620 400 600 400 580 380 560 380 560 360 560 340 560 320 540 320 540 300 520 300 520 280 500 280 500 260 480 260 480 240 500 240 520 240 520 260 540 260 540 240 540 220 520 220 520 200 540 200 540 180 520 180 520 160 500 160 480 160 500 160 480 160 460 160 480 160 460 160 440 160 460 160 440 160 440 180 440 160 440 180 420 180 440 180 420 180 400 180 420 180 400 180 400 200 400 180 400 200 380 200 400 200 380 200 380 220 380 200 380 220 360 220 380 220 360 220 360 240 360 220 360 240 360 260 360 240 360 260 340 260 360 260 340 260 340 280 340 260 340 280 340 300 340 280 340 300 320 300 340 300 320 300 320 320 320 300 320 320 320 340 320 320 320 340 320 360 320 340 320 360 300 360 320 360 300 360 300 380 300 360 300 380 300 400 300 380 300 400 300 380 280 380 300 380 280 380 280 360 280 380 280 360 280 340 280 360 280 340 260 340 280 340 260 340 260 320 260 340 260 320 240 320 260 320 240 320 220 320 240 320 220 320 220 300 220 320 220 300 200 300 220 300 200 300 200 320 200 300 200 320 200 340 200 320 200 340 180 340 200 340 180 340 180 320 180 340 180 320 180 300 180 320 180 300 160 300 180 300 160 300 160 320 160 300 160 320 160 340 160 320 160 340 140 340 160 340 140 340 140 320 140 340 140 320 140 300 140 320 140 300 120 300 140 300 120 300 120 320 120 300 120 320 120 340 120 320 120 340 100 340 120 340 100 340 100 320 100 340 100 320 100 300 100 320 100 300 80 300 100 300 80 300 80 320 80 300 80 320 80 340 80 320 80 340 60 340 80 340 60 340 60 320 60 340 60 320 40 320 60 320 40 320 40 340 40 320 40 340 40 360 40 340 40 360 40 380 40 360 40 380 20 380 40 380 20 380 20 400 20 380 20 400 20 420 20 400 20 420 0 420 20 420 0 420 0 440 0 420 0 440 0 460 0 440 0 460 0 480 0 460 0 480 0 500 0 480 0 500 0 520 0 500 0 520 0 540 0 520 0 540 0 560 0 540 0 560 20 560 0 560 20 560 20 580 20 560 20 580 20 600 20 580 20 600 40 600 20 600 40 600 40 620 40 600 40 620 60 620 40 620 60 620 60 600 60 620 60 600 80 600 60 600 80 600 80 580 80 600 80 580 80 560 80 580 80 560 100 560 80 560 100 560 100 580 100 560 100 580 120 580 100 580 120 580 120 600 120 580 120 600 140 600 120 600 140 600 140 620 140 600 140 620 160 620 140 620 160 620 180 620 160 620 180 620 180 640 180 620 180 640 200 640 180 640 200 640 220 640 200 640 220 640 220 660 220 640 220 660 240 660 220 660 240 660 260 660 240 660 260 660 260 680 260 660 260 680 280 680 260 680 280 680 300 680 280 680 300 680 320 680 300 680 320 680 340 680 320 680 340 680 360 680 340 680 360 680 360 660 360 680 360 660 380 660 360 660 380 660 400 660 380 660 400 660 400 640 400 660 400 640 420 640 400 640 420 640 440 640 420 640 440 640 440 620 440 640 440 620 460 620 440 620 460 620 460 640 460 620 460 640 480 640 460 640 480 640 500 640 480 640 500 640 520 640 500 640 520 640 520 620 520 640 520 620 520 600 520 620 520 600 520 620 520 640 500 640 480 640 480 660 480 640 480 660 480 680 480 660 480 680 460 680 480 680 460 680 460 700 460 680 460 700 440 700 460 700 440 700 440 720 440 700 440 720 420 720 440 720 420 720 420 740 420 720 420 740 400 740 420 740 400 740 380 740 400 740 380 740 380 760 380 740 380 760 380 780 380 760 380 780 380 800 380 780 380 800 380 820 380 800 380 820 360 820 380 820 360 820 360 840 360 820 360 840 360 860 360 840 360 860 360 880 360 860 360 880 360 900 360 880 360 900 380 900 360 900 380 900 400 900 380 900 400 900 420 900 400 900 420 900 420 920 420 900 420 920 400 920 420 920 400 920 380 920 400 920 380 920 360 920 380 920 360 920 340 940 360 920 340 940 320 940 340 940 320 940 300 940 320 940 300 940 280 940 300 940 280 940 260 940 280 940 260 940 240 940 260 940 240 940 220 960 240 940 220 960 220 980 220 960 220 980 200 980 220 980 200 980 200 960 200 980 200 960 220 940 200 960 220 940 200 940 220 940 200 940 180 940 200 940 180 940 180 960 180 940 180 960 160 960 180 960 160 960 160 940 160 960 160 940 180 920 160 940 180 920 200 920 180 920 200 920 220 920 200 920 220 920 240 920 220 920 240 920 240 900 240 920 240 900 240 880 240 900 240 880 240 860 240 880 240 860 260 860 240 860 260 860 260 880 260 860 260 880 260 900 260 880 260 900 260 920 260 900 260 920 280 920 260 920 280 920 300 920 280 920 300 920 320 920 300 920 320 920 320 940 320 920 320 940 320 920 300 920 280 920 300 900 280 920 300 900 320 900 300 900 320 900 340 900 320 900 340 900 340 880 340 900 340 880 340 860 340 880 340 860 340 840 340 860 340 840 360 840 340 840 360 840 340 840 320 840 340 840 320 840 320 820 320 840 320 820 300 820 320 820 300 820 300 800 300 820 300 800 280 800 300 800 280 800 280 820 280 800 280 820 280 840 280 820 280 840 260 840 280 840 260 840 260 860 260 840 260 860 260 840 280 840 280 820 280 800 300 800 300 780 300 800 300 780 300 760 300 780 300 760 320 760 300 760 320 760 340 760 320 760 340 760 360 760 340 760 360 760 380 760 360 760 380 760 360 760 340 760 320 760 300 760 300 780 300 800 300 820 320 820 320 840 340 840 340 860 340 880 340 900 320 900 300 900 280 920 260 920 260 900 260 880 260 860 240 860 220 860 240 860 220 860 220 840 220 860 220 840 200 840 220 840 200 840 200 820 200 840 200 820 180 820 200 820 180 820 180 800 180 820 180 800 180 780 180 800 180 780 160 780 180 780 160 780 160 760 160 780 160 760 140 760 160 760 140 760 140 740 140 760 140 740 120 740 140 740 120 740 100 740 120 740 100 740 100 720 100 740 100 720 80 720 100 720 80 720 80 700 80 720 80 700 80 680 80 700 80 680 60 680 80 680 60 680 60 660 60 680 60 660 40 660 60 660 40 660 40 640 40 660 40 640 40 620 40 640 40 620 40 640 40 660 60 660 60 680 80 680 80 660 80 680 80 660 80 640 80 660 80 640 100 640 80 640 100 640 120 640 100 640 120 640 120 620 120 640 120 620 120 600 120 620 120 600 120 620 120 640 100 640 80 640 80 660 80 680 80 700 80 720 100 720 100 740 120 740 140 740 140 760 160 760 160 780 180 780 180 800 180 820 200 820 200 840 220 840 220 860 240 860 240 880 240 900 240 920 220 920 200 920 180 920 160 940 160 960 180 960 180 940 200 940 220 940 200 960 200 980 220 980 220 960 240 940 260 940 280 940 300 940 320 940 340 940 360 920 380 920 400 920 420 920 420 900 400 900 380 900 360 900 360 880 360 860 360 840 360 820 380 820 380 800 380 780 380 760 380 740 400 740 420 740 420 720 440 720 440 700 460 700 460 680 480 680 480 660 480 640 460 640 460 620 440 620 440 640 420 640 400 640 400 660 380 660 360 660 360 680 340 680 320 680 300 680 280 680 260 680 260 660 240 660 220 660 220 640 200 640 180 640 180 620 160 620 140 620 140 600 120 600 120 580 100 580 100 560 80 560 80 540 80 560 80 540 60 540 80 540 60 540 60 520 60 540 60 520 60 500 60 520 60 500 40 500 60 500 40 500 40 480 40 500 40 480 40 460 40 480 40 460 40 440 40 460 40 440 40 420 40 440 40 420 60 420 40 420 60 420 60 400 60 420 60 400 80 400 60 400 80 400 100 400 80 400 100 400 80 400 60 400 60 420 40 420 40 440 40 460 40 480 40 500 60 500 60 520 60 540 80 540 80 560 80 580 80 600 60 600 60 620 40 620 40 600 20 600 20 580 20 560 0 560 0 540 0 520 0 500 0 480 0 460 0 440 0 420 20 420 20 400 20 380 40 380 40 360 40 340 40 320 60 320 60 300 60 320 60 300 40 300 60 300 40 300 40 280 40 300 40 280 40 260 40 280 40 260 40 240 40 260 40 240 60 220 40 240 60 220 80 200 60 220 80 200 80 220 80 200 80 220 80 240 80 220 80 240 80 260 80 240 80 260 80 280 80 260 80 280 60 300 80 280 60 300 80 280 80 260 100 280 80 260 100 280 120 260 100 280 120 260 120 240 120 260 120 240 120 220 120 240 120 220 120 200 120 220 120 200 120 180 120 200 120 180 120 160 120 180 120 160 120 140 120 160 120 140 120 120 120 140 120 120 100 100 120 120 100 100 100 120 100 100 100 120 100 140 100 120 100 140 100 160 100 140 100 160 100 180 100 160 100 180 80 180 100 180 80 180 80 200 80 180 80 200 80 180 100 180 100 160 100 140 100 120 100 100 80 80 100 100 80 80 100 80 80 80 100 80 120 80 100 80 120 80 140 60 120 80 140 60 160 60 140 60 160 60 180 60 160 60 180 60 200 60 180 60 200 60 220 80 200 60 220 80 240 100 220 80 240 100 240 120 240 100 240 120 240 140 240 120 240 140 240 160 240 140 240 160 240 180 240 160 240 180 240 200 240 180 240 200 240 220 240 200 240 220 240 240 240 220 240 240 240 260 240 240 240 260 240 280 240 260 240 280 260 300 240 280 260 300 260 320 260 300 260 320 260 300 240 280 220 260 240 280 220 260 200 240 220 260 200 240 220 260 240 280 240 260 240 240 220 220 240 240 220 220 200 200 220 220 200 200 220 220 240 240 240 220 240 200 220 180 240 200 220 180 200 160 220 180 200 160 220 180 240 200 240 180 260 200 240 180 260 200 280 200 260 200 280 200 280 180 280 200 280 180 280 160 280 180 280 160 300 180 280 160 300 180 320 180 300 180 320 180 320 160 320 180 320 160 320 140 320 160 320 140 300 120 320 140 300 120 320 120 300 120 320 120 340 100 320 120 340 100 340 80 340 100 340 80 320 60 340 80 320 60 300 60 320 60 300 60 280 60 300 60 280 60 300 40 280 60 300 40 300 20 300 40 300 20 280 20 300 20 280 20 260 20 280 20 260 20 240 40 260 20 240 40 220 40 240 40 220 40 240 20 220 40 240 20 240 0 240 20 240 0 220 0 240 0 220 0 200 0 220 0 200 0 180 20 200 0 180 20 160 40 180 20 160 40 160 20 160 40 160 20 160 0 160 20 160 0 140 0 160 0 140 0 120 20 140 0 120 20 120 40 120 20 120 40 140 60 120 40 140 60 120 40 120 20 140 0 160 0 160 20 160 40 180 20 200 0 220 0 240 0 240 20 220 40 240 40 260 20 280 20 300 20 300 40 280 60 300 60 320 60 340 80 340 100 320 120 300 120 320 140 320 160 320 180 300 180 280 160 280 180 280 200 260 200 240 180 240 160 220 140 240 160 220 140 200 120 220 140 200 120 220 140 240 160 240 140 220 120 240 140 220 120 200 100 220 120 200 100 220 120 240 140 240 120 240 100 220 80 200 60 180 60 160 60 140 60 120 80 100 80 80 80 100 100 120 120 120 140 120 160 120 180 120 200 120 220 120 240 120 260 100 280 80 260 80 240 80 220 80 200 60 220 40 240 40 260 40 280 40 300 60 300 60 320 60 340 80 340 80 320 80 300 100 300 100 320 100 340 120 340 120 320 120 300 140 300 140 320 140 340 160 340 160 320 160 300 180 300 180 320 180 340 200 340 200 320 200 300 220 300 220 320 240 320 260 320 260 340 280 340 280 360 280 380 300 380 300 360 320 360 320 340 320 320 320 300 340 300 340 280 340 260 360 260 360 240 360 220 380 220 380 200 400 200 400 180 420 180 440 180 440 160 460 160 480 160 500 160 500 140 520 140 540 140 560 140 580 140 600 140 620 140 620 160 600 160 580 160 580 180 600 180 600 200 600 220 600 240 580 240 580 260 600 260 600 280 600 300 620 320 640 340 640 320 640 300 640 280 660 280 660 260 660 240 640 240 640 220 660 220 660 200 680 200 680 220 700 220 700 240 700 260 700 280 680 280 680 300 680 320 680 340 660 340 660 360 660 380 660 400 660 420 660 440 640 440 640 460 640 480 640 500 640 520 620 520 620 540 600 540 600 560 580 560 580 580 560 580 540 580 540 600 520 600 500 600 500 580 520 580 520 560 540 560 560 560 560 540 580 540 580 520 600 520 600 500 600 480 620 480 620 460 600 440 620 460 600 440 580 440 600 440 580 440 600 440 620 460 620 440 600 440 600 420 620 420 640 420 640 400 640 380 640 360 620 360 600 340 580 320 580 340 560 340 540 340 520 340 520 360 540 360 540 380 540 400 540 420 520 420 520 400 500 400 500 420 500 440 520 440 520 460 520 480 520 500 500 500 500 480 480 480 480 460 480 440 460 440 460 460 460 480 440 480 440 500 440 520 420 520 420 500 420 480 420 460 400 460 400 480 400 500 400 520 380 520 360 520 360 500 340 500 335 500 340 500 "/>
    <path id="Block10Jump60"
        fill="none"
        stroke="#000000"
		stroke-width="2px"
		d="M 340 500 L " />
</svg>
