<?xml version="1.0" encoding="UTF-8" standalone="no"?>
<svg xmlns="http://www.w3.org/2000/svg" version="1.1" width="1551" height="634">
    <path id="Block1Jump0"
        fill="none"
        stroke="#2F7E20"
		stroke-width="2px"
		d="M 25 49 L 30 57 33 47 24 52 15 58 51 42 89 30 112 26 111 35 99 27 76 10 76 29 77 47 65 34 41 9 43 25 45 41 47 57 12 45 15 58 1 64 0 41 5 65 3 40 10 66 5 38 14 66 8 37 18 67 12 35 22 67 16 34 26 68 19 29 30 68 22 22 34 68 25 16 38 68 28 10 41 67 31 5 44 67 "/>
    <path id="Block1Jump3"
        fill="none"
        stroke="#2F7E20"
		stroke-width="2px"
		d="M 51 15 L 66 23 93 22 111 17 111 44 107 14 108 45 103 10 105 46 99 6 101 48 95 3 97 49 91 2 93 51 87 2 89 52 83 2 85 53 79 1 81 55 75 1 78 56 71 1 74 57 67 1 70 59 63 0 67 60 59 0 63 61 55 0 60 62 51 0 "/>
    <path id="Block1Jump4"
        fill="none"
        stroke="#2F7E20"
		stroke-width="2px"
		d="M 47 0 L "/>
    <path id="Block1Jump9"
        fill="none"
        stroke="#2F7E20"
		stroke-width="2px"
		d="M 39 10 L 42 20 42 30 47 63 38 67 42 72 19 75 18 82 42 72 44 88 47 104 83 88 109 82 109 69 109 56 92 90 91 76 90 62 84 76 72 103 69 86 65 68 59 80 46 103 44 88 42 72 48 62 43 74 27 75 18 66 18 91 22 66 22 94 25 65 27 98 29 65 31 101 32 64 35 104 35 64 40 107 38 64 44 110 42 63 49 113 44 63 53 116 47 62 58 118 50 62 63 120 54 61 66 118 58 60 69 115 62 59 72 113 66 59 75 111 70 58 78 109 74 57 82 107 90 84 109 47 109 91 106 48 107 92 102 49 103 93 98 50 100 95 94 52 97 97 90 53 94 99 86 54 91 101 82 55 87 103 78 56 84 105 74 57 81 107 74 67 78 76 77 87 82 103 81 108 87 107 82 146 78 168 73 168 67 180 68 163 72 168 78 168 94 204 104 232 100 210 100 189 81 189 99 167 88 168 78 168 98 146 86 146 74 146 100 124 81 125 104 105 87 107 78 108 84 120 83 144 73 173 80 171 56 174 77 183 58 170 77 181 59 165 78 179 61 161 78 177 62 157 78 174 63 153 79 171 73 173 84 137 83 114 79 109 113 104 77 111 112 107 75 115 111 111 74 118 110 115 73 122 109 120 72 126 109 124 70 130 108 128 69 134 108 132 68 138 107 136 67 142 107 140 65 145 107 144 64 149 107 148 63 153 107 152 62 158 107 156 63 162 107 160 66 165 107 164 69 169 108 168 73 172 108 172 76 176 108 176 76 180 109 180 74 184 109 183 73 188 109 187 72 192 109 191 71 196 110 194 71 200 110 198 73 204 110 201 80 207 110 205 87 210 111 209 92 214 111 212 94 218 111 215 95 221 112 219 96 224 112 224 95 232 113 232 96 228 112 228 96 224 112 223 103 225 98 223 108 225 113 224 119 235 126 196 130 157 128 118 126 104 141 131 129 131 117 130 128 140 149 158 132 157 115 155 127 165 150 186 133 183 116 180 140 212 129 209 118 207 118 234 110 226 110 234 126 234 110 230 130 232 110 225 134 230 110 221 137 227 109 217 141 223 109 213 144 220 109 209 147 217 109 205 149 213 109 201 151 209 108 197 153 205 108 194 155 202 108 190 156 198 108 186 157 194 108 182 158 190 107 178 159 186 107 174 159 182 107 171 160 178 107 167 160 174 107 163 159 170 106 160 159 165 106 156 158 161 106 152 158 157 106 148 157 153 106 145 156 149 107 141 154 145 107 138 153 141 107 134 152 136 108 131 150 132 109 127 149 128 109 124 147 124 110 120 145 120 111 116 143 116 112 112 141 112 114 108 139 108 115 104 137 104 117 100 134 100 115 104 136 104 124 101 116 103 126 105 133 104 138 102 139 92 138 52 132 49 124 50 116 51 126 26 129 37 132 49 138 52 130 11 141 10 132 31 146 31 138 52 148 51 136 72 147 69 138 92 149 89 168 124 193 155 199 160 199 166 187 148 182 159 176 134 168 145 166 120 160 126 157 105 150 109 148 89 138 92 136 105 140 66 136 41 132 33 121 20 127 14 121 47 115 60 117 42 118 60 117 38 122 60 118 33 126 60 120 28 130 59 123 23 134 58 124 17 137 54 126 14 121 20 126 13 119 3 144 2 119 4 149 4 120 8 149 7 120 12 150 11 121 16 151 15 121 20 152 19 121 24 153 23 122 28 154 27 123 32 155 30 124 36 155 34 125 40 156 38 127 44 157 42 128 48 157 45 129 52 157 49 149 67 149 91 164 128 181 156 198 174 199 151 194 174 198 149 190 173 197 147 186 171 195 145 182 170 194 143 178 168 192 141 174 166 190 138 171 163 188 136 168 160 187 133 165 157 185 131 163 153 183 128 161 149 181 125 159 145 179 122 157 141 177 120 156 137 175 117 154 133 174 115 152 129 172 112 150 125 171 110 147 122 169 107 145 118 168 105 143 115 166 102 140 111 164 100 138 108 163 97 135 104 161 94 133 101 159 91 131 97 158 88 129 93 156 85 128 89 154 82 127 85 154 78 127 81 155 74 127 77 155 70 127 73 156 66 127 69 156 62 128 64 157 59 128 60 157 55 129 56 157 52 129 52 157 49 190 65 190 55 175 64 176 53 161 62 161 53 161 44 161 71 165 44 164 72 195 47 195 74 192 46 191 74 188 45 186 74 185 45 182 74 181 44 178 74 177 44 174 73 173 44 171 73 169 44 167 72 165 44 164 72 167 62 164 52 164 46 163 68 161 79 192 102 224 125 257 143 241 145 244 132 226 134 230 124 212 124 216 116 199 113 201 108 186 102 188 97 173 90 176 82 161 78 161 69 161 88 165 70 162 90 169 71 165 93 173 72 167 95 177 73 169 98 181 75 172 100 184 79 175 103 186 83 178 106 189 86 181 109 193 90 184 112 196 93 187 114 199 96 190 117 202 98 192 119 206 101 195 121 209 103 198 123 213 105 201 126 216 106 204 129 219 108 207 131 222 109 211 134 225 111 214 136 229 137 250 147 256 153 256 132 251 153 254 129 247 153 251 127 243 153 249 125 239 153 246 123 235 151 243 122 231 148 240 120 228 146 237 118 224 144 234 116 221 141 231 114 217 139 228 112 214 136 225 111 222 120 219 130 216 135 225 115 232 102 225 89 256 81 278 66 282 61 289 50 291 45 296 43 291 34 284 36 277 40 261 41 226 58 222 42 251 53 247 42 243 31 274 35 269 22 264 9 284 35 288 24 292 12 292 37 305 24 318 11 310 23 294 49 312 51 285 59 294 67 303 75 272 69 275 83 247 74 253 84 259 95 247 89 222 78 225 89 235 107 231 102 220 70 234 107 223 69 238 107 226 69 243 107 229 68 247 107 231 68 252 107 234 67 256 107 237 67 260 105 239 66 264 102 242 66 267 100 244 66 268 95 248 65 267 93 253 64 267 93 257 63 267 93 262 62 271 93 266 61 275 92 269 60 279 91 273 59 283 91 275 64 288 89 275 59 292 88 278 63 296 87 276 58 301 85 280 61 305 83 277 55 309 81 283 58 313 79 279 52 315 75 285 55 316 71 281 50 317 67 287 52 318 62 283 48 319 58 290 49 320 54 285 47 321 49 291 48 322 45 296 46 323 40 285 47 323 35 291 44 324 30 297 41 325 25 286 45 326 19 292 40 327 13 298 35 327 7 287 43 292 35 279 25 261 33 231 56 214 64 213 38 219 65 216 36 223 66 218 34 227 67 221 32 231 67 224 31 235 67 227 30 240 66 230 28 244 65 233 27 247 64 236 26 251 63 239 25 255 61 240 22 259 59 242 19 262 57 244 16 266 55 246 13 269 52 248 9 272 49 251 6 275 47 254 3 277 44 258 1 273 31 263 1 277 37 267 2 279 44 272 2 279 32 276 2 280 37 281 2 281 44 285 3 284 32 290 3 284 37 294 3 282 44 298 3 289 32 303 4 287 37 308 4 284 43 313 4 295 31 318 4 292 36 324 4 286 43 327 7 294 37 301 29 309 24 325 8 325 8 "/>
    <path id="Block1Jump21"
        fill="none"
        stroke="#2F7E20"
		stroke-width="2px"
		d="M 1246 22 L 1240 29 1250 29 1242 22 1230 11 1243 34 1270 62 1300 82 1327 90 1326 81 1292 97 1294 86 1297 76 1263 83 1270 66 1234 59 1248 57 1261 55 1251 40 1230 11 1240 22 1250 33 1260 45 1275 42 1311 51 1338 63 1337 46 1316 62 1316 49 1316 36 1284 54 1287 40 1289 26 1292 12 1283 23 1264 44 1262 28 1260 12 1260 45 1250 33 1240 22 1230 11 1220 7 1234 44 1241 60 1256 72 1295 79 1320 76 1326 73 1326 99 1322 71 1322 103 1318 70 1318 107 1315 70 1314 110 1313 69 1310 110 1310 69 1305 110 1308 68 1301 110 1305 68 1297 109 1302 67 1293 108 1299 67 1290 106 1295 66 1286 103 1292 66 1283 100 1289 65 1279 98 1287 65 1275 96 1284 63 1271 95 1281 62 1267 93 1277 60 1263 93 1274 58 1259 92 1271 55 1255 91 1267 60 1251 90 1264 64 1246 89 1271 54 1241 88 1265 59 1236 87 1260 62 1234 83 1264 58 1232 79 1259 60 1230 75 1264 56 1228 71 1270 53 1227 67 1263 55 1226 63 1257 55 1225 58 1262 53 1224 54 1256 52 1223 49 1269 53 1223 45 1261 51 1222 40 1254 48 1222 35 1260 49 1221 30 1253 44 1221 25 1267 52 1220 19 1259 45 1220 13 1251 37 1219 7 1258 43 1223 4 1254 37 1228 4 1252 31 1233 4 1261 44 1238 3 1258 37 1242 3 1258 32 1247 3 1263 44 1251 3 1262 38 1256 3 1263 32 1260 3 1265 45 1265 3 1266 38 1269 3 1268 32 1274 3 1265 54 1278 3 1269 56 1281 3 1273 58 1285 3 1277 60 1289 3 1280 62 1292 3 1284 63 1296 3 1288 65 1299 3 1292 66 1302 7 1296 68 1304 11 1300 69 1306 14 1304 70 1308 18 1308 71 1311 22 1312 71 1313 25 1316 71 1317 27 1320 71 1321 30 1324 71 1325 31 1328 71 1329 33 1332 71 1332 35 1336 71 1337 37 1337 61 1335 51 1337 41 1338 53 1337 60 1351 60 1387 63 1386 56 1375 65 1374 56 1362 67 1361 56 1353 68 1352 56 1350 47 1354 77 1354 47 1357 76 1358 47 1361 76 1362 47 1365 75 1366 47 1368 75 1370 47 1372 74 1374 47 1376 73 1378 47 1379 73 1382 47 1383 72 1386 47 1387 68 1389 77 1383 86 1351 109 1318 130 1294 143 1309 140 1307 132 1324 134 1321 122 1340 125 1336 113 1354 113 1351 103 1368 100 1367 94 1383 86 1388 74 1367 93 1336 118 1293 132 1293 153 1296 130 1298 153 1299 128 1302 152 1302 126 1306 150 1305 123 1310 149 1308 121 1314 148 1311 119 1318 146 1314 117 1321 145 1317 115 1325 143 1320 113 1329 141 1324 110 1332 139 1327 108 1336 137 1331 106 1339 135 1334 104 1343 133 1338 102 1346 130 1342 99 1349 128 1345 97 1352 125 1349 95 1355 122 1353 93 1359 119 1356 91 1362 116 1360 88 1365 113 1364 86 1368 110 1368 84 1371 107 1371 82 1375 104 1375 80 1378 101 1379 78 1381 98 1383 76 1384 95 1387 73 1388 92 1387 85 1386 75 1387 82 1390 87 1406 91 1413 108 1424 114 1430 120 1444 118 1437 114 1447 115 1457 153 1461 171 1466 170 1474 170 1480 178 1480 185 1477 171 1473 143 1469 156 1466 170 1461 171 1452 209 1446 235 1453 214 1447 212 1466 194 1448 189 1460 170 1448 165 1466 148 1457 144 1448 140 1468 124 1457 119 1447 115 1439 111 1458 142 1470 169 1471 184 1489 185 1469 182 1492 180 1468 180 1494 176 1468 177 1495 171 1471 174 1495 167 1467 176 1495 162 1470 173 1494 157 1473 170 1492 152 1465 177 1490 148 1468 172 1487 144 1470 167 1484 140 1464 178 1480 138 1466 171 1476 135 1463 171 1476 135 1466 171 1463 180 1453 218 1452 229 1453 234 1437 234 1453 230 1437 230 1453 226 1438 226 1453 223 1438 222 1455 220 1438 218 1459 217 1438 214 1462 215 1439 209 1466 212 1439 205 1469 209 1439 201 1473 207 1439 197 1475 203 1439 193 1475 199 1440 189 1475 195 1440 185 1474 191 1440 181 1473 187 1440 177 1472 183 1440 172 1470 179 1440 168 1468 176 1440 163 1469 172 1440 159 1470 168 1440 154 1471 164 1440 150 1472 160 1440 146 1473 157 1440 142 1454 132 1471 119 1438 98 1473 120 1438 101 1475 124 1438 106 1476 128 1438 111 1477 132 1439 116 1477 136 1439 120 1477 141 1439 124 1476 145 1439 128 1475 149 1439 133 1474 153 1440 137 1473 157 1440 141 1464 151 1455 149 1444 145 1412 165 1422 166 1416 159 1415 169 1423 162 1435 152 1409 181 1403 188 1395 196 1401 174 1395 196 1402 189 1423 222 1432 237 1411 215 1432 209 1401 189 1417 185 1434 181 1405 160 1420 156 1435 152 1419 116 1417 110 1423 106 1405 131 1431 125 1405 160 1420 156 1435 152 1444 146 1409 164 1398 170 1406 169 1391 186 1397 165 1390 198 1401 165 1393 204 1403 165 1395 209 1405 169 1398 170 1407 179 1420 216 1423 237 1440 237 1420 234 1440 233 1417 232 1440 228 1414 229 1440 224 1411 226 1440 220 1408 223 1441 216 1405 220 1441 211 1402 217 1441 207 1399 213 1441 203 1395 210 1441 199 1393 207 1442 195 1391 203 1442 190 1391 199 1442 186 1392 195 1442 182 1393 191 1442 178 1394 186 1443 174 1395 182 1443 169 1396 178 1443 165 1397 174 1443 161 1397 170 1443 157 1397 165 1443 153 1396 162 1443 149 1395 158 1443 146 1395 153 1443 142 1394 149 1442 138 1394 145 1442 134 1395 141 1441 130 1396 137 1440 126 1397 134 1439 122 1398 130 1438 118 1400 126 1437 114 1402 123 1435 110 1405 119 1434 107 1432 102 1408 116 1433 106 1405 119 1424 110 1416 116 1409 118 1401 119 1407 80 1414 46 1416 52 1423 52 1431 52 1422 39 1416 52 1414 46 1420 5 1408 4 1420 17 1406 16 1420 32 1404 29 1413 46 1403 44 1410 60 1402 58 1413 76 1402 73 1412 92 1402 89 1408 106 1396 101 1400 119 1388 113 1372 143 1351 165 1360 156 1364 164 1367 149 1372 153 1375 138 1381 142 1381 125 1391 131 1388 113 1400 119 1411 120 1396 127 1369 156 1351 175 1351 154 1356 175 1352 152 1360 175 1353 151 1365 175 1354 150 1368 172 1356 148 1371 169 1357 147 1374 165 1358 146 1377 162 1360 144 1380 159 1361 142 1382 155 1363 139 1385 152 1365 137 1388 149 1367 134 1390 146 1369 131 1393 142 1370 127 1395 139 1372 124 1398 136 1373 121 1400 133 1375 118 1403 129 1376 115 1406 126 1378 112 1408 123 1380 109 1411 119 1382 106 1413 116 1384 103 1415 112 1386 100 1416 109 1388 97 1418 105 1390 94 1419 101 1393 92 1420 97 1393 88 1421 93 1393 84 1421 89 1393 80 1421 85 1393 76 1421 80 1393 72 1421 76 1393 68 1420 72 1393 64 1420 67 1393 60 1419 63 1393 56 1418 58 1393 52 1419 54 1393 49 1421 51 1394 45 1423 47 1394 41 1425 43 1394 37 1427 39 1395 34 1428 35 1396 30 1405 22 1407 10 1403 4 1425 4 1399 6 1429 7 1398 9 1429 11 1397 13 1429 15 1397 16 1429 19 1396 19 1429 23 1396 23 1429 27 1395 26 1429 31 1395 30 1428 35 1423 29 1409 58 1426 31 1412 60 1429 34 1416 60 1431 37 1421 61 1434 62 1433 44 1430 62 1433 42 1425 61 1432 39 1421 61 1431 37 1426 48 1423 58 1432 44 1438 40 1453 41 1492 43 1531 51 1551 57 1542 46 1537 50 1523 40 1522 25 1518 43 1513 61 1505 45 1489 12 1486 26 1484 39 1482 53 1472 40 1453 15 1453 28 1453 41 1439 45 1444 16 1443 46 1446 12 1447 48 1449 9 1451 50 1453 6 1455 51 1457 5 1458 53 1461 5 1461 54 1465 5 1465 55 1469 4 1468 57 1473 4 1471 58 1477 4 1474 59 1481 3 1477 60 1486 3 1480 62 1490 3 1483 63 1494 3 1486 64 1498 3 1489 65 1502 3 1492 66 1506 3 "/>
    <path id="Block1Jump22"
        fill="none"
        stroke="#2F7E20"
		stroke-width="2px"
		d="M 1511 3 L "/>
    <path id="Block1Jump23"
        fill="none"
        stroke="#2F7E20"
		stroke-width="2px"
		d="M 1515 4 L "/>
    <path id="Block1Jump24"
        fill="none"
        stroke="#2F7E20"
		stroke-width="2px"
		d="M 1518 6 L 1505 69 1521 9 1509 70 1524 14 1513 70 1526 18 1517 70 1528 23 1530 40 1538 45 1544 50 1550 47 1550 66 1547 44 1546 67 1544 41 1542 68 1540 39 1538 69 1537 37 1534 69 1533 36 1530 70 1529 33 1526 70 1529 28 1521 70 1528 23 1517 70 1525 32 1524 43 1520 52 1520 67 1520 72 1522 77 1489 76 1451 65 1444 62 1442 76 1470 66 1464 78 1458 90 1471 85 1496 75 1488 91 1480 106 1494 97 1522 77 1517 90 1512 102 1530 93 1523 89 1529 79 1534 78 1512 102 1517 90 1522 77 1521 69 1524 76 1532 75 1537 69 1527 101 1534 69 1522 104 1531 69 1517 106 1528 69 1512 109 1524 69 1506 112 1520 68 1500 114 1516 68 1495 118 1512 68 1489 121 1509 68 1485 120 1506 68 1481 118 1502 68 1478 116 1498 67 1475 113 1494 66 1471 111 1491 65 1468 109 1488 64 1465 106 1484 63 1461 104 1481 62 1458 101 1477 60 1455 99 1474 58 1453 97 1470 56 1451 95 1466 54 1449 93 1462 53 1447 92 1458 52 1445 90 1454 52 1443 88 1449 52 1442 87 1445 52 1441 85 1442 62 1443 72 1442 81 1442 81 "/>
    <path id="Block1Jump37"
        fill="none"
        stroke="#2F7E20"
		stroke-width="2px"
		d="M 421 124 L 416 117 414 127 422 121 435 112 411 143 389 176 383 184 392 185 402 185 384 165 399 166 414 167 404 158 385 139 399 139 413 139 426 140 398 114 416 113 434 111 444 111 405 114 389 114 443 111 381 118 442 115 "/>
    <path id="Block1Jump41"
        fill="none"
        stroke="#2F7E20"
		stroke-width="2px"
		d="M 376 128 L 439 127 376 131 438 131 376 134 437 135 376 138 436 139 376 141 434 143 376 144 433 147 375 148 431 151 375 151 430 155 375 155 428 159 375 159 426 162 375 163 424 166 374 167 422 170 374 171 419 174 374 175 417 177 373 179 415 180 373 183 412 184 378 185 405 185 394 185 393 203 371 220 370 214 382 219 381 210 393 213 393 207 394 198 366 229 370 205 371 229 372 204 375 229 374 203 379 229 377 201 383 228 381 200 387 226 385 199 390 224 389 199 393 222 393 198 390 209 394 218 394 207 399 207 407 202 434 173 453 141 462 102 459 118 468 128 459 124 449 120 456 132 470 156 456 149 442 143 460 178 447 170 435 163 441 196 430 188 419 181 416 205 407 202 396 207 417 207 396 204 420 208 397 199 424 208 399 195 428 207 401 191 432 207 450 169 454 139 452 104 471 99 451 104 470 104 449 105 468 109 448 105 467 114 446 109 471 119 443 112 474 124 441 116 476 129 439 119 478 134 438 123 479 139 437 126 479 144 435 130 480 148 435 133 479 153 434 137 479 157 433 141 478 161 432 144 477 165 432 147 475 169 431 150 474 173 430 152 472 176 428 155 470 180 427 158 468 183 426 161 465 186 423 164 462 190 421 167 459 192 419 169 456 195 416 172 453 198 413 175 450 200 410 178 446 202 407 181 443 203 405 184 439 205 403 188 435 206 401 191 432 207 409 197 419 199 427 206 "/>
    <path id="Block1Jump42"
        fill="none"
        stroke="#2F7E20"
		stroke-width="2px"
		d="M 407 303 L 407 308 398 314 372 302 371 309 384 309 398 314 435 327 462 332 452 334 453 327 437 333 440 324 423 332 426 320 410 324 412 315 398 313 406 304 371 318 371 293 375 318 375 295 377 319 379 296 381 319 384 297 383 320 388 298 386 321 392 300 389 322 396 301 393 323 399 302 397 325 402 303 400 327 406 304 404 330 410 305 407 332 414 306 410 335 417 308 413 338 421 309 416 340 425 310 421 340 429 311 425 341 432 312 429 341 436 313 433 342 439 314 437 342 443 315 441 342 446 316 445 342 450 317 449 342 453 318 454 342 456 319 458 342 459 320 462 342 462 321 459 330 462 340 463 335 462 325 462 325 "/>
    <path id="Block1Jump51"
        fill="none"
        stroke="#2F7E20"
		stroke-width="2px"
		d="M 1136 127 L 1134 136 1142 131 1132 128 1119 125 1143 156 1164 185 1162 152 1146 155 1129 157 1140 146 1160 123 1146 123 1132 124 1119 125 1112 133 1149 115 1107 114 1156 116 1107 117 1163 119 1108 121 1169 123 1109 125 1171 126 1110 129 1171 130 1111 133 1171 133 1113 137 1171 136 1114 141 1171 139 1115 145 1171 142 1117 149 1171 146 1118 153 1171 149 1120 157 1171 152 1121 161 1171 156 1123 164 1172 159 1125 168 1172 162 1126 172 1172 166 1128 176 1172 168 1130 180 1173 172 1135 183 1173 176 1140 184 1174 180 1146 185 1174 185 1157 186 1154 202 1154 210 1160 213 1171 216 1180 218 1171 216 1160 213 1154 210 1154 198 1181 232 1177 203 1177 231 1175 203 1173 230 1172 203 1168 229 1169 202 1164 227 1166 201 1160 226 1162 201 1157 224 1158 199 1154 222 1154 198 1154 207 1148 207 1149 202 1127 185 1107 158 1104 153 1092 115 1090 107 1099 128 1085 131 1106 150 1094 155 1082 159 1116 168 1106 175 1097 182 1131 185 1119 199 1148 201 1148 211 1148 192 1143 211 1148 191 1133 188 1107 169 1098 150 1096 112 1082 100 1098 113 1081 105 1100 115 1080 110 1102 116 1079 114 1104 118 1079 119 1105 120 1078 123 1106 123 1077 127 1107 125 1076 132 1108 128 1075 136 1109 131 1074 141 1110 135 1073 145 1111 138 1072 150 1112 141 1071 154 1113 144 1072 158 1114 147 1074 162 1115 149 1076 166 1116 152 1078 169 1118 154 1080 173 1119 156 1082 176 1120 159 1085 180 1121 161 1087 183 1123 163 1090 186 1124 165 1092 190 1126 167 1095 193 1127 169 1098 196 1130 171 1101 199 1132 173 1104 201 1134 175 1108 204 1136 177 1111 205 1138 180 1116 207 1140 182 1120 208 1142 184 1124 209 1144 186 1129 210 1145 187 1134 211 1146 189 1139 211 1148 190 1143 211 1143 202 1146 192 1145 198 1143 207 1135 225 1133 230 1146 243 1152 248 1160 242 1184 248 1173 242 1171 248 1160 242 1157 230 1166 238 1184 238 1184 257 1182 237 1179 257 1179 235 1175 257 1176 234 1171 257 1172 233 1167 256 1168 232 1164 255 1164 231 1161 254 1160 230 1158 253 1157 230 1157 245 1146 303 1149 308 1152 315 1114 326 1086 330 1085 336 1095 328 1097 336 1106 326 1109 335 1117 323 1120 333 1129 320 1131 327 1140 319 1152 315 1172 312 1172 305 1161 312 1151 315 1147 306 1174 320 1176 295 1171 321 1171 297 1168 322 1167 298 1165 322 1163 300 1162 323 1159 301 1160 324 1155 303 1158 324 1150 304 1156 325 1146 306 1152 326 1142 307 1148 328 1139 308 1144 330 1136 309 1141 332 1133 310 1137 334 1130 311 1133 336 1126 312 1130 338 1122 313 1126 340 1118 314 1122 341 1114 314 1119 342 1111 315 1115 343 1107 316 1111 344 1104 317 1107 345 1100 318 1102 345 1097 318 1098 345 1094 319 1094 345 1091 319 1090 345 1088 320 1085 345 1086 321 1086 330 1087 340 1086 325 1086 325 "/>
    <path id="Block1Jump57"
        fill="none"
        stroke="#2F7E20"
		stroke-width="2px"
		d="M 676 212 L 679 204 670 208 679 211 689 215 658 205 627 204 606 210 603 198 637 208 630 192 623 176 635 190 659 218 656 200 654 183 652 165 660 179 668 193 685 221 688 215 692 207 678 191 665 186 649 190 614 209 599 218 599 196 602 219 599 193 607 219 601 190 611 218 602 187 615 218 604 185 619 218 606 182 624 217 609 180 628 217 611 177 632 217 614 174 637 216 616 172 640 216 619 168 643 217 622 165 646 218 625 162 649 219 629 161 651 220 633 160 653 221 637 159 "/>
    <path id="Block1Jump74"
        fill="none"
        stroke="#2F7E20"
		stroke-width="2px"
		d="M 674 162 L "/>
    <path id="Block1Jump75"
        fill="none"
        stroke="#2F7E20"
		stroke-width="2px"
		d="M 678 169 L 676 221 681 175 676 231 685 182 679 224 688 187 679 230 691 194 682 230 692 206 687 204 687 214 682 223 691 209 708 191 718 188 735 189 764 160 778 146 784 142 822 129 808 131 810 143 795 134 796 147 782 136 783 142 785 151 780 127 788 153 785 126 791 155 789 126 795 156 793 125 799 156 796 124 804 156 799 124 808 156 803 123 810 153 807 122 813 150 811 122 825 119 819 139 820 120 817 143 815 121 815 146 811 122 813 146 819 148 842 133 823 151 841 155 833 194 826 227 815 224 841 206 829 202 817 199 843 181 830 178 817 175 841 155 823 151 815 148 832 136 851 130 828 137 851 135 825 138 850 139 822 140 850 144 820 142 850 148 817 145 850 152 815 148 850 156 812 151 850 161 810 155 850 165 808 158 850 169 808 162 851 173 841 184 829 214 825 231 805 234 829 231 806 229 832 230 806 225 835 228 807 220 837 226 807 216 840 223 808 212 843 220 808 208 846 217 808 205 848 213 808 201 849 209 809 197 851 205 809 193 852 202 809 190 852 198 809 186 853 193 809 182 853 189 809 178 853 185 809 175 852 181 808 171 851 177 808 167 851 173 808 162 841 169 831 169 822 165 812 164 812 173 807 173 795 207 795 226 801 201 785 197 769 192 802 174 783 168 764 163 745 158 730 125 744 129 758 134 772 138 744 157 764 163 783 168 802 174 811 168 785 153 775 143 780 140 720 121 "/>
    <path id="Block1Jump76"
        fill="none"
        stroke="#2F7E20"
		stroke-width="2px"
		d="M 722 125 L "/>
    <path id="Block1Jump81"
        fill="none"
        stroke="#2F7E20"
		stroke-width="2px"
		d="M 803 163 L "/>
    <path id="Block1Jump83"
        fill="none"
        stroke="#2F7E20"
		stroke-width="2px"
		d="M 810 168 L "/>
    <path id="Block1Jump84"
        fill="none"
        stroke="#2F7E20"
		stroke-width="2px"
		d="M 730 144 L "/>
    <path id="Block1Jump85"
        fill="none"
        stroke="#2F7E20"
		stroke-width="2px"
		d="M 810 172 L "/>
    <path id="Block1Jump86"
        fill="none"
        stroke="#2F7E20"
		stroke-width="2px"
		d="M 732 149 L "/>
    <path id="Block1Jump87"
        fill="none"
        stroke="#2F7E20"
		stroke-width="2px"
		d="M 811 176 L "/>
    <path id="Block1Jump89"
        fill="none"
        stroke="#2F7E20"
		stroke-width="2px"
		d="M 811 180 L "/>
    <path id="Block1Jump95"
        fill="none"
        stroke="#2F7E20"
		stroke-width="2px"
		d="M 749 174 L 810 196 752 179 810 200 756 185 809 204 760 190 809 208 764 195 808 211 768 200 807 215 772 206 806 218 776 211 805 221 779 216 804 224 783 221 803 226 786 226 804 224 785 220 787 229 788 236 773 228 743 202 721 169 706 131 716 147 704 153 732 170 718 180 704 191 719 191 748 191 738 202 727 212 717 222 733 219 766 213 758 225 750 236 787 236 784 220 771 219 738 204 724 187 716 148 713 130 698 130 715 131 696 133 717 133 696 137 718 135 696 142 720 138 696 146 722 140 696 151 723 142 696 155 725 145 696 160 727 147 696 164 728 150 696 169 730 152 696 174 732 155 696 179 734 158 696 184 736 160 696 188 738 163 696 193 740 166 696 198 742 169 696 204 744 172 696 209 746 174 698 213 748 176 699 217 750 179 702 220 751 181 704 223 753 183 707 226 755 185 710 229 757 187 714 231 758 189 717 233 760 192 721 236 762 194 725 237 764 196 729 239 766 198 733 241 768 201 737 242 770 204 741 243 772 206 746 244 774 208 750 245 776 211 755 245 778 213 759 246 780 215 764 246 782 217 769 246 783 219 773 247 785 221 778 247 786 223 782 247 787 225 788 247 786 237 786 227 786 232 788 243 801 254 819 273 829 283 840 271 829 283 839 283 836 306 835 296 839 283 829 283 823 276 829 288 826 304 844 304 825 300 845 300 823 295 846 296 822 292 847 292 821 288 847 288 820 283 848 284 820 279 848 280 823 275 848 278 827 271 848 274 832 269 849 270 839 271 834 268 842 269 865 227 858 229 859 234 828 259 817 270 815 259 814 249 831 263 829 244 843 251 843 239 858 244 858 234 858 225 858 253 855 226 854 255 851 227 850 256 846 229 847 258 842 230 843 261 838 231 840 263 834 233 837 266 830 234 834 270 826 235 832 273 822 236 829 276 819 238 825 277 815 239 821 278 812 240 817 278 809 241 813 278 812 273 816 283 807 271 797 246 798 258 801 270 815 282 805 283 818 320 824 321 812 307 821 308 808 295 818 295 804 283 815 282 815 276 820 305 823 312 835 328 811 324 834 324 809 320 833 320 807 317 832 315 806 313 831 311 804 309 830 307 803 306 829 303 802 302 828 299 800 298 827 295 799 295 826 291 798 291 825 286 797 287 824 282 795 284 820 280 794 280 815 276 793 275 811 272 792 272 810 267 791 270 809 264 791 266 808 245 785 246 808 249 786 250 808 252 787 254 809 256 788 258 809 260 789 262 809 264 790 266 799 264 809 263 799 264 794 264 788 267 749 262 714 254 731 273 736 263 741 253 757 280 764 268 771 256 782 286 788 267 790 260 789 298 789 265 785 297 789 259 781 295 786 268 776 294 786 263 772 292 789 257 768 291 786 254 764 290 783 251 760 289 779 249 756 289 775 248 753 288 771 247 749 287 767 246 745 287 763 245 742 287 736 271 715 245 713 263 718 244 714 266 723 244 715 269 727 244 717 272 732 245 719 275 736 245 722 277 741 245 724 279 745 245 727 281 749 245 731 283 754 245 734 284 758 245 738 286 763 245 742 286 757 254 755 264 748 272 743 283 742 293 712 286 713 301 715 316 742 293 742 308 741 323 742 338 762 329 800 317 800 309 772 330 770 315 768 299 759 312 741 338 741 323 742 308 742 293 739 283 733 294 717 290 710 277 716 325 714 278 718 329 719 278 720 333 723 279 723 336 727 280 726 340 731 281 729 342 735 282 733 344 739 283 737 346 742 284 741 347 746 285 746 347 749 285 750 347 752 286 754 347 756 287 758 346 758 288 762 344 762 289 766 343 765 290 770 341 777 325 800 301 801 326 797 299 798 326 793 298 794 327 789 296 790 328 785 295 787 328 781 294 783 328 777 293 780 331 773 292 777 335 768 291 773 338 765 290 770 341 765 300 768 309 767 320 768 338 768 338 "/>
    <path id="Block1Jump102"
        fill="none"
        stroke="#2F7E20"
		stroke-width="2px"
		d="M 242 408 L 237 400 235 410 243 404 253 399 226 427 201 457 181 488 180 461 191 465 202 469 188 434 201 439 213 443 226 448 219 436 206 412 225 418 244 425 227 394 239 396 253 399 262 393 222 390 262 397 219 392 261 402 217 393 260 406 214 395 259 410 211 397 258 414 208 400 257 417 205 402 255 421 202 404 253 425 199 407 252 429 197 410 250 432 194 413 247 436 191 415 245 439 189 419 242 443 186 422 240 446 183 425 237 449 181 429 233 452 179 432 230 455 178 435 226 458 176 439 223 461 175 442 219 464 173 446 216 467 172 450 213 470 172 454 209 472 171 458 206 475 171 462 203 478 170 467 200 480 170 471 197 483 170 476 173 482 170 489 189 489 170 484 192 487 170 480 195 485 170 475 197 483 186 480 173 477 194 482 194 490 230 473 255 450 271 416 265 415 270 436 258 433 269 458 259 453 249 448 261 478 250 469 239 460 240 488 233 480 226 472 215 491 211 482 193 490 193 479 193 501 195 478 198 501 198 478 202 501 200 477 207 500 202 476 211 500 205 474 216 499 207 473 220 499 210 472 225 498 212 471 229 498 214 469 234 497 217 468 238 496 219 466 243 496 221 464 248 495 224 463 253 494 226 461 257 493 228 459 262 491 230 457 264 488 232 455 267 485 233 453 270 482 235 452 273 479 237 450 275 475 238 448 276 471 240 446 277 466 241 443 277 462 243 441 277 457 244 439 277 453 246 437 278 449 247 434 278 444 249 431 278 440 250 429 278 436 252 426 279 432 253 423 279 428 254 420 279 423 255 417 279 419 256 414 279 415 257 412 280 412 271 412 271 405 277 405 285 369 292 380 280 380 297 392 278 393 288 393 298 399 301 404 289 404 287 395 277 405 268 405 278 395 276 368 292 368 274 372 295 372 273 376 298 376 272 380 301 380 270 384 303 384 270 388 305 388 269 392 306 392 268 396 307 395 268 400 308 399 267 404 310 403 277 405 287 403 297 404 306 403 311 401 317 401 335 436 346 474 347 509 346 514 360 484 350 487 340 489 350 478 370 455 352 460 334 466 354 434 341 440 329 446 340 417 322 422 331 401 317 401 307 402 340 401 308 406 342 404 310 410 344 406 311 414 346 408 312 418 347 410 313 422 348 413 314 426 350 416 315 430 351 418 316 434 352 421 318 438 353 424 319 442 353 427 320 446 357 429 321 450 362 431 322 454 367 433 323 457 371 436 324 460 376 439 363 458 354 487 355 513 337 513 356 509 336 511 357 504 336 508 359 499 335 505 361 495 334 501 364 490 333 497 367 485 332 494 370 481 331 490 373 477 330 486 376 472 329 482 377 468 328 478 378 463 328 475 379 459 327 472 379 455 326 469 379 450 325 467 378 446 325 465 377 442 324 462 375 438 324 460 365 441 357 447 347 449 327 458 323 445 318 445 320 475 305 439 298 418 312 445 301 447 290 450 320 475 305 477 291 480 313 512 340 544 343 538 309 537 320 526 331 516 294 511 309 503 325 495 291 480 305 477 320 475 326 460 312 451 304 431 307 418 288 418 309 420 287 422 311 423 285 427 313 426 284 431 315 429 283 435 317 433 283 440 318 436 282 444 320 440 281 448 321 444 281 452 322 448 281 456 323 452 280 460 324 455 280 463 325 459 280 467 326 463 281 471 327 467 281 475 328 471 282 479 329 475 282 483 330 479 282 487 331 482 283 491 332 486 283 495 332 487 284 499 332 488 284 504 333 489 285 508 333 490 286 512 333 491 286 517 333 493 287 521 334 494 287 526 334 495 288 531 334 497 289 536 335 500 291 539 336 503 295 541 337 507 300 543 338 510 304 544 339 514 308 545 341 517 313 547 342 520 317 548 344 523 322 549 345 525 326 550 347 528 331 551 348 530 335 551 350 532 340 552 351 534 344 553 352 536 349 553 352 538 353 553 352 543 353 554 353 549 353 549 "/>
    <path id="Block1Jump114"
        fill="none"
        stroke="#2F7E20"
		stroke-width="2px"
		d="M 1255 391 L 1259 399 1262 389 1253 394 1247 397 1270 376 1273 388 1276 400 1259 381 1260 400 1248 391 1247 397 1240 405 1260 385 1268 367 1278 409 1265 368 1274 409 1262 369 1270 409 1260 370 1265 409 1258 372 1261 409 1256 374 1257 408 1254 376 1253 408 1252 379 1248 407 1251 382 1244 406 1249 386 1240 405 1247 396 1248 386 1244 393 1241 401 1233 404 1215 439 1203 477 1202 516 1195 495 1206 499 1197 486 1178 460 1195 467 1213 474 1206 462 1193 439 1206 446 1218 454 1207 416 1216 422 1226 428 1232 404 1243 404 1222 404 1243 404 1218 403 1241 409 1214 404 1240 413 1210 404 1239 417 1207 406 1237 421 1204 407 1236 425 1201 409 1235 429 1199 412 1233 433 1197 415 1232 437 1195 419 1231 441 1193 422 1230 445 1191 426 1229 449 1189 429 1228 453 1187 432 1226 457 1184 436 1225 460 1181 439 1224 464 1179 442 1224 467 1176 445 1223 469 1173 448 1223 471 1171 452 1222 474 1170 456 1221 476 1169 460 1220 479 1170 465 1220 482 1172 470 1219 486 1175 475 1218 489 1179 480 1217 493 1183 486 1216 497 1186 491 1215 501 1188 496 1214 505 1190 501 1213 508 1191 505 1213 510 1192 510 1212 513 1192 514 1212 515 1202 513 1193 513 1203 516 1208 516 1216 517 1235 484 1246 446 1251 418 1241 443 1257 447 1233 470 1246 474 1259 477 1224 495 1241 500 1257 506 1243 510 1216 517 1232 525 1250 534 1216 548 1205 543 1220 540 1249 534 1232 525 1216 517 1208 513 1215 525 1209 541 1194 549 1214 550 1195 546 1217 551 1196 541 1222 551 1198 537 1227 551 1200 533 1232 550 1201 530 1237 549 1203 526 1242 547 1204 522 1247 546 1205 519 1251 543 1207 516 1255 540 1208 513 1257 537 1209 510 1260 534 1210 507 1262 530 1211 504 1263 527 1212 501 1264 523 1213 498 1265 518 1214 495 1266 514 1215 492 1266 510 1217 489 1266 506 1218 486 1265 501 1219 482 1264 497 1220 479 1263 492 1221 475 1262 487 1222 472 1265 484 1224 469 1267 480 1225 466 1269 477 1226 462 1270 473 1227 459 1271 469 1228 455 1271 465 1254 444 1240 418 1262 418 1239 420 1262 422 1238 423 1262 426 1237 426 1262 430 1236 429 1262 435 1235 433 1263 439 1234 436 1264 443 1233 440 1265 448 1232 444 1266 452 1230 448 1268 456 1229 452 1270 460 1228 455 1271 465 1238 459 1248 459 1257 463 1268 466 1274 469 1278 457 1313 476 1350 491 1357 493 1333 491 1337 483 1307 489 1314 480 1321 471 1288 477 1298 468 1307 458 1278 456 1287 450 1297 445 1279 412 1287 429 1277 433 1296 444 1287 450 1278 456 1271 466 1279 447 1277 425 1267 413 1289 412 1268 417 1290 415 1268 421 1291 417 1268 426 1293 420 1269 430 1294 422 1269 434 1295 425 1269 439 1296 427 1269 443 1298 430 1270 448 1299 432 1270 452 1301 435 1270 457 1302 437 1270 461 1304 440 1271 466 1306 442 1271 471 1308 445 1273 474 1309 447 1276 477 1311 449 1279 481 1313 450 1282 484 1314 452 1284 487 1316 454 1287 490 1318 456 1290 493 1320 458 1294 495 1322 460 1298 496 1324 462 1303 497 1327 464 1307 497 1329 466 1312 498 1331 468 1317 498 1334 470 1321 499 1336 471 1326 499 1338 473 1330 500 1340 475 1335 500 1342 476 1339 500 1344 478 1344 501 1346 479 1348 501 1350 481 1352 501 1353 483 1356 501 1357 485 1354 493 1355 499 1357 489 1370 494 1351 460 1334 425 1319 391 1308 393 1297 395 1333 408 1319 416 1304 425 1323 427 1360 430 1347 437 1335 443 1322 449 1337 453 1369 462 1357 466 1345 471 1370 494 1355 490 1362 493 1379 494 1358 492 1379 490 1355 490 1379 485 1352 487 1379 481 1349 485 1378 477 1346 483 1378 473 1344 480 1378 468 1341 478 1377 464 1338 475 1377 460 1335 472 1377 456 1332 470 1376 451 1329 467 1375 448 1326 465 1374 444 1324 462 1373 440 1321 460 1371 436 1318 457 1370 432 1315 455 1369 428 1313 452 1367 424 1310 450 1366 420 1308 447 1363 417 1305 444 1359 415 1303 441 1354 413 1301 438 1350 411 1299 435 1347 408 1298 431 1343 405 1296 428 1340 403 1295 425 1337 400 1294 421 1334 397 1292 418 1331 394 1291 414 1324 396 1290 410 1329 392 1289 405 1322 393 1288 401 1329 391 1321 391 1288 397 1328 390 1288 401 1318 392 1309 396 1299 397 1292 399 1292 399 "/>
    <path id="Block1Jump124"
        fill="none"
        stroke="#2F7E20"
		stroke-width="2px"
		d="M 522 504 L 516 497 516 507 523 500 535 488 517 511 506 545 505 584 506 598 506 580 496 582 507 562 491 563 509 547 492 545 512 532 496 527 517 516 504 511 524 501 517 497 535 488 541 487 526 488 538 493 521 488 536 497 518 488 534 501 514 490 532 504 510 491 530 507 507 494 529 511 503 497 528 514 501 500 526 517 498 503 525 520 496 507 524 523 494 510 523 526 492 514 522 529 490 518 521 532 489 522 521 535 488 525 520 538 486 529 519 541 485 533 519 543 484 538 518 546 484 542 518 549 483 546 517 552 483 550 517 555 482 554 517 558 482 558 516 561 482 562 516 564 483 567 516 567 483 571 515 570 484 575 515 573 485 579 515 577 487 582 515 581 488 586 515 585 490 589 515 590 492 593 515 594 495 596 515 598 494 595 515 594 505 596 495 597 504 596 511 594 517 591 522 602 518 631 521 601 538 604 548 566 559 528 572 495 557 487 561 500 570 526 553 519 537 511 548 526 568 556 555 550 541 545 527 540 538 554 559 582 541 576 524 571 537 604 521 601 513 594 521 608 526 631 510 631 528 627 510 627 530 624 510 623 533 620 511 619 535 617 511 615 538 614 511 611 541 611 512 606 544 608 512 602 547 605 512 598 550 602 513 594 554 599 513 590 557 597 514 586 561 594 514 582 565 592 514 578 567 589 515 574 568 585 515 569 568 582 515 565 569 578 516 561 569 574 516 557 571 571 516 553 573 568 517 549 574 565 517 545 576 562 518 541 577 559 519 537 578 556 520 533 578 552 521 529 579 548 522 525 579 544 523 521 579 540 524 517 578 536 526 513 578 532 528 510 578 528 530 506 578 524 532 503 578 520 534 499 578 516 536 496 578 512 539 493 578 508 542 490 579 504 545 487 579 500 548 484 580 496 554 484 554 474 539 455 532 462 541 462 534 454 534 464 534 472 496 464 475 450 471 442 473 434 463 472 450 511 456 491 469 451 464 471 460 491 456 511 461 485 467 460 472 434 494 490 498 460 503 431 533 472 536 456 539 441 571 462 538 441 536 456 533 472 550 478 535 468 528 465 494 464 473 467 461 479 451 512 451 518 447 501 452 520 444 478 452 510 446 461 452 499 449 455 453 508 453 450 455 497 457 447 455 507 462 445 "/>
    <path id="Block1Jump128"
        fill="none"
        stroke="#2F7E20"
		stroke-width="2px"
		d="M 469 451 L 465 427 467 449 470 426 469 450 474 425 "/>
    <path id="Block1Jump129"
        fill="none"
        stroke="#2F7E20"
		stroke-width="2px"
		d="M 455 520 L "/>
    <path id="Block1Jump130"
        fill="none"
        stroke="#2F7E20"
		stroke-width="2px"
		d="M 477 425 L "/>
    <path id="Block1Jump131"
        fill="none"
        stroke="#2F7E20"
		stroke-width="2px"
		d="M 459 519 L "/>
    <path id="Block1Jump132"
        fill="none"
        stroke="#2F7E20"
		stroke-width="2px"
		d="M 480 424 L "/>
    <path id="Block1Jump133"
        fill="none"
        stroke="#2F7E20"
		stroke-width="2px"
		d="M 464 519 L "/>
    <path id="Block1Jump134"
        fill="none"
        stroke="#2F7E20"
		stroke-width="2px"
		d="M 482 424 L "/>
    <path id="Block1Jump135"
        fill="none"
        stroke="#2F7E20"
		stroke-width="2px"
		d="M 468 518 L "/>
    <path id="Block1Jump136"
        fill="none"
        stroke="#2F7E20"
		stroke-width="2px"
		d="M 485 423 L "/>
    <path id="Block1Jump137"
        fill="none"
        stroke="#2F7E20"
		stroke-width="2px"
		d="M 472 516 L "/>
    <path id="Block1Jump138"
        fill="none"
        stroke="#2F7E20"
		stroke-width="2px"
		d="M 488 423 L "/>
    <path id="Block1Jump139"
        fill="none"
        stroke="#2F7E20"
		stroke-width="2px"
		d="M 477 514 L "/>
    <path id="Block1Jump140"
        fill="none"
        stroke="#2F7E20"
		stroke-width="2px"
		d="M 492 423 L "/>
    <path id="Block1Jump141"
        fill="none"
        stroke="#2F7E20"
		stroke-width="2px"
		d="M 481 511 L "/>
    <path id="Block1Jump142"
        fill="none"
        stroke="#2F7E20"
		stroke-width="2px"
		d="M 496 423 L "/>
    <path id="Block1Jump143"
        fill="none"
        stroke="#2F7E20"
		stroke-width="2px"
		d="M 485 507 L "/>
    <path id="Block1Jump144"
        fill="none"
        stroke="#2F7E20"
		stroke-width="2px"
		d="M 500 422 L "/>
    <path id="Block1Jump145"
        fill="none"
        stroke="#2F7E20"
		stroke-width="2px"
		d="M 489 503 L "/>
    <path id="Block1Jump146"
        fill="none"
        stroke="#2F7E20"
		stroke-width="2px"
		d="M 504 422 L "/>
    <path id="Block1Jump152"
        fill="none"
        stroke="#2F7E20"
		stroke-width="2px"
		d="M 504 485 L 520 424 508 482 524 425 513 482 528 426 517 481 531 427 521 481 534 429 525 481 538 431 529 481 541 433 533 480 544 435 538 480 548 438 541 479 552 440 546 478 555 442 550 478 558 444 554 477 561 446 558 476 564 448 563 475 568 450 567 474 571 452 571 472 570 464 570 454 570 460 571 468 588 475 594 476 594 515 593 527 602 527 592 511 604 513 592 494 606 497 593 476 607 481 608 473 601 472 607 481 593 476 586 473 594 495 593 513 585 526 611 527 583 523 611 524 583 519 612 521 583 514 612 518 583 510 612 515 583 506 613 512 584 502 613 509 584 497 614 505 584 493 614 502 584 489 614 498 584 485 615 495 584 480 615 491 583 476 615 487 585 473 615 483 588 471 616 479 592 471 616 475 607 475 596 473 607 472 611 463 610 458 648 449 654 448 631 460 632 444 610 457 614 441 576 429 541 412 521 401 519 407 541 406 537 414 559 419 554 425 575 430 572 438 594 437 590 450 613 440 610 457 609 467 599 456 568 431 537 406 514 392 510 414 518 392 512 414 522 392 515 415 526 393 518 416 530 393 521 417 534 394 524 418 538 395 527 419 542 397 531 421 546 398 534 422 550 400 537 424 553 402 540 426 556 405 543 428 560 407 545 430 563 410 548 432 566 413 551 434 569 415 554 436 571 417 558 439 574 419 561 441 577 420 564 444 579 422 568 446 582 423 571 449 586 425 575 451 589 426 578 454 592 427 582 456 596 428 585 458 600 429 589 459 603 430 593 461 606 430 596 463 609 431 600 464 612 431 604 465 616 432 608 466 619 432 612 467 622 433 616 468 624 433 620 469 628 434 625 469 631 434 629 469 634 435 633 468 638 436 637 467 641 436 641 466 645 437 645 463 649 438 649 461 653 438 654 453 669 461 679 459 684 452 679 459 674 474 679 459 666 461 673 458 674 453 692 451 670 454 692 455 667 457 691 460 665 461 690 463 664 465 689 466 662 469 688 470 660 473 688 474 678 470 669 473 662 474 676 475 674 480 667 522 670 514 663 514 676 497 659 499 680 481 672 481 663 482 689 480 654 485 688 484 649 490 688 488 676 498 673 515 676 522 659 522 677 519 656 520 679 515 654 517 680 511 653 514 681 507 652 510 683 502 651 506 684 498 650 502 685 495 650 498 686 491 649 494 687 488 649 490 677 487 667 490 654 489 649 489 664 458 653 471 648 466 644 485 630 481 637 520 652 557 657 574 669 574 681 574 655 569 666 565 677 561 651 561 660 552 669 543 644 552 648 537 627 545 635 538 644 532 624 522 643 516 626 501 643 501 629 481 644 485 654 487 650 479 654 471 662 467 665 448 662 469 660 450 662 471 655 452 662 473 651 454 661 475 647 456 660 476 643 459 659 478 639 461 657 479 635 464 656 480 631 467 655 483 627 470 654 485 623 473 653 487 621 476 653 489 620 480 652 491 619 485 652 494 619 489 652 496 618 493 652 499 617 497 652 502 617 501 652 504 616 506 652 506 616 510 652 508 616 514 651 510 616 519 651 512 616 523 651 514 616 528 651 516 616 532 651 519 616 537 651 521 616 542 651 523 617 546 651 525 619 550 651 528 622 553 647 534 626 555 645 537 630 557 650 529 635 559 649 534 639 560 648 537 643 561 655 529 646 557 660 529 644 563 664 530 647 559 669 531 644 565 673 533 650 561 659 562 660 574 690 574 654 572 689 569 647 572 688 565 658 569 686 561 652 569 685 557 646 571 683 553 651 566 681 549 645 569 679 545 650 564 677 541 645 567 675 537 649 561 673 533 656 554 661 545 669 539 699 476 699 481 712 519 730 550 716 555 703 560 724 530 710 533 697 536 683 538 695 528 719 508 704 509 688 509 713 481 701 481 692 481 722 481 690 484 723 485 688 488 724 489 686 492 725 493 684 496 726 496 682 500 726 500 681 504 727 503 680 508 728 507 678 512 728 510 678 517 729 513 677 521 730 516 676 525 731 518 675 529 731 521 675 533 732 524 674 538 733 527 677 541 733 530 682 544 734 534 686 548 735 537 688 551 736 540 691 555 737 542 692 559 737 544 694 563 730 549 701 564 738 547 712 563 735 551 729 552 721 558 713 564 727 558 722 559 724 567 745 566 714 591 711 606 715 577 725 594 735 611 738 596 744 566 752 580 761 595 789 581 794 580 780 587 777 574 774 562 761 595 752 580 744 566 728 562 728 578 717 590 707 585 708 630 706 582 712 628 705 579 716 626 704 577 720 625 704 574 725 623 705 573 729 622 707 571 733 621 709 570 737 620 711 569 741 619 713 568 745 618 716 567 749 616 718 566 754 616 720 565 758 615 724 563 758 610 728 562 757 606 732 560 760 605 736 559 762 604 740 558 765 602 744 557 768 601 748 556 770 600 753 555 772 599 757 555 775 598 761 554 777 597 765 554 779 597 770 553 781 596 774 553 783 595 778 555 785 594 783 558 788 593 788 563 791 592 791 569 796 590 "/>
    <path id="Block1Jump155"
        fill="none"
        stroke="#2F7E20"
		stroke-width="2px"
		d="M 1007 422 L 1014 433 1009 442 971 462 983 455 1009 442 1010 457 1012 473 1028 474 1060 487 1090 512 1096 501 1098 486 1101 472 1087 480 1058 497 1066 484 1074 470 1082 457 1067 463 1038 476 1043 461 1048 446 1052 431 1039 445 1011 472 1010 457 1009 442 1013 430 1026 438 1053 453 1083 479 1097 480 1100 475 1093 525 1098 482 1089 524 1099 473 1085 523 1102 462 1081 522 1097 472 1077 521 1093 480 1073 519 1096 471 1069 517 1101 461 1065 515 1094 470 1062 513 1099 460 1059 510 1096 458 1057 509 1093 455 1056 508 1090 452 1055 506 1087 449 1053 505 1084 446 1052 503 1081 443 1051 502 1079 438 1049 500 "/>
    <path id="Block1Jump168"
        fill="none"
        stroke="#2F7E20"
		stroke-width="2px"
		d="M 1035 485 L 1051 422 1033 483 1047 422 1031 482 1043 422 1029 482 1038 423 1027 482 1034 423 1025 482 1030 424 1023 482 1025 425 1021 482 1021 426 1018 482 1017 428 1016 482 1013 430 1014 482 1009 432 1012 481 1005 435 1010 481 1001 437 1008 481 997 439 1004 480 994 441 1000 480 991 443 996 479 980 461 970 455 970 470 974 452 975 472 978 450 979 474 981 448 983 475 985 446 987 477 988 444 991 478 991 443 996 479 991 453 995 462 994 475 992 483 996 523 1005 562 1015 600 1027 634 1013 612 1025 610 1013 602 989 585 1006 581 1023 577 1006 570 973 555 988 552 1004 548 1019 545 1004 537 975 520 992 517 1009 514 999 505 980 486 987 484 996 483 971 487 999 487 967 490 1002 491 964 493 1005 494 961 497 1007 497 961 501 1008 499 961 505 1010 502 961 510 1012 505 962 514 1015 508 963 517 1017 511 965 521 1020 515 968 524 1022 519 969 528 978 536 997 571 1013 607 1018 634 1033 634 1018 632 1035 632 1016 628 1035 628 1014 624 1034 624 1012 621 1034 620 1009 618 1034 615 1006 615 1034 611 1003 612 1034 607 1000 610 1033 603 997 607 1033 599 994 603 1033 595 991 600 1033 591 988 597 1032 586 985 594 1032 582 982 590 1032 578 980 587 1031 574 977 583 1031 570 974 580 1030 566 971 576 1030 562 969 573 1029 559 966 569 1029 555 "/>
    <path id="Block1Jump170"
        fill="none"
        stroke="#2F7E20"
		stroke-width="2px"
		d="M 964 562 L "/>
    <path id="Block1Jump171"
        fill="none"
        stroke="#2F7E20"
		stroke-width="2px"
		d="M 964 557 L 1027 544 965 553 1027 540 965 549 1026 537 966 545 1026 533 966 540 1025 530 967 536 1025 526 968 532 1024 522 969 528 1022 519 979 527 988 523 998 524 1019 519 1026 514 1037 542 1040 575 1039 601 1038 582 1047 581 1038 563 1055 561 1036 546 1052 543 1032 530 1047 525 1026 514 1040 508 1010 492 1020 499 1039 507 1026 514 1019 520 1031 529 1040 544 1043 564 1031 600 1047 601 1029 597 1049 597 1029 594 1050 592 1029 590 1052 588 1029 586 1054 584 1029 582 1056 580 1029 578 1059 576 1029 574 1061 572 1029 570 1063 568 1029 566 1064 564 1029 563 1064 560 1029 560 1064 556 1029 557 1063 552 1028 554 1062 548 1028 550 1061 544 1027 547 1060 540 1027 544 1059 536 1026 540 1058 532 1025 537 1057 528 1024 534 1056 524 1023 531 1054 520 1022 528 1053 516 1021 526 1051 512 1020 523 1050 508 1018 520 1048 505 1017 516 1046 501 1015 513 1044 498 1014 511 1041 495 1013 508 1035 493 1012 506 1030 492 1011 504 1025 491 1012 501 1020 489 1012 500 1015 487 1012 497 1008 486 1014 494 1009 490 " />
    <path id="Block2Jump171"
        fill="none"
        stroke="#F993BC"
		stroke-width="2px"
		d="M 1009 490 L "/>
    <path id="Block2Jump182"
        fill="none"
        stroke="#F993BC"
		stroke-width="2px"
		d="M 258 186 L 261 177 252 181 261 185 285 194 247 184 209 174 211 189 214 205 219 173 222 188 224 202 241 169 242 183 243 196 262 162 262 177 263 191 285 188 285 194 285 203 285 179 281 202 283 173 277 201 280 168 273 200 277 163 270 200 273 157 267 200 269 154 264 200 265 153 261 200 261 153 258 201 257 153 255 201 253 154 251 203 249 156 248 204 245 158 244 205 241 160 241 206 237 161 232 173 219 178 209 173 214 205 208 165 218 213 213 164 221 212 217 164 224 211 221 164 228 210 225 164 231 209 229 164 234 208 233 163 238 207 237 161 241 203 242 215 249 218 252 230 256 238 252 230 249 218 239 214 257 221 239 219 259 221 238 224 256 222 238 228 262 222 238 233 260 225 259 232 245 250 266 227 243 246 262 228 241 242 264 224 240 238 260 225 238 233 249 233 256 226 242 233 223 240 206 242 199 251 197 226 198 251 189 256 180 261 200 294 226 324 255 351 263 360 249 348 264 336 227 342 240 328 253 314 237 321 205 335 214 323 223 311 194 310 202 302 209 294 184 286 200 275 179 260 189 256 198 251 207 246 201 240 202 227 189 226 203 227 189 232 203 229 188 238 204 233 185 245 205 238 180 250 206 242 176 256 206 246 172 262 206 249 171 268 207 252 170 273 207 255 169 278 207 258 169 283 207 262 171 286 207 266 174 289 208 270 178 292 208 274 181 294 208 278 185 296 208 282 188 300 211 283 188 306 213 285 188 312 216 287 188 317 218 289 188 323 220 292 188 329 222 294 191 332 224 297 194 335 226 300 197 338 236 334 250 342 256 358 255 368 274 367 254 366 274 363 252 364 273 358 251 362 273 354 249 360 272 350 248 358 272 345 246 356 272 340 244 354 271 336 242 353 271 331 239 353 271 326 236 352 270 320 233 351 270 315 230 350 270 309 226 350 266 308 222 349 260 308 219 348 255 308 215 348 250 308 211 348 244 308 208 347 239 308 205 347 234 308 201 346 229 306 199 341 228 303 197 338 226 300 204 331 208 321 216 315 224 302 230 295 232 289 264 274 280 256 282 249 288 248 287 229 279 225 272 213 283 221 305 236 295 235 285 235 303 259 294 253 285 248 291 278 284 268 276 257 274 294 269 278 264 263 253 291 253 278 254 264 231 288 236 276 241 264 228 246 224 225 221 245 230 258 221 268 240 264 236 276 231 288 231 299 223 260 218 223 230 223 215 228 230 226 212 232 230 229 209 237 230 232 210 241 230 235 211 245 231 238 212 250 231 240 213 254 232 243 214 259 233 245 214 264 233 247 215 269 235 249 215 274 236 251 216 279 235 257 219 283 239 253 222 286 237 259 225 290 241 255 227 295 243 255 231 298 245 255 235 299 245 263 239 299 249 255 244 299 249 263 248 299 252 255 252 300 253 263 256 300 255 255 261 301 257 262 265 301 258 255 269 302 261 262 274 302 261 254 278 303 265 262 283 303 264 254 272 261 289 254 292 241 282 227 268 218 275 208 270 221 279 210 272 223 283 212 273 226 287 214 276 225 292 218 274 227 297 221 275 229 303 225 280 230 307 229 276 233 311 233 276 235 315 238 277 237 320 243 284 240 319 247 277 240 317 251 283 243 315 255 277 242 313 258 283 247 311 262 277 245 309 266 281 250 307 270 275 247 304 274 278 253 302 277 273 249 300 281 276 255 297 285 270 251 294 288 272 258 292 292 267 252 289 296 269 261 286 300 263 254 283 303 266 263 272 272 273 282 282 300 288 310 297 309 330 286 350 284 356 276 359 262 353 282 343 286 318 283 330 286 343 288 357 291 341 296 326 300 296 309 314 312 332 315 350 319 319 344 301 361 328 344 310 341 291 338 305 333 320 328 349 318 332 315 314 312 296 309 284 311 296 320 302 334 299 351 291 360 312 361 288 355 317 360 286 351 322 357 285 347 327 354 283 342 332 350 282 338 336 347 281 334 340 344 281 330 343 340 280 326 "/>
    <path id="Block2Jump197"
        fill="none"
        stroke="#F993BC"
		stroke-width="2px"
		d="M 298 297 L "/>
    <path id="Block2Jump198"
        fill="none"
        stroke="#F993BC"
		stroke-width="2px"
		d="M 301 293 L 364 305 303 290 364 302 306 286 365 298 308 282 365 294 309 279 366 291 311 275 366 287 338 277 366 283 345 275 366 279 347 271 366 275 350 268 365 271 352 265 365 266 359 262 349 258 342 259 335 227 318 193 301 172 300 183 300 194 312 176 309 188 306 199 335 185 326 197 317 209 353 200 340 210 327 220 350 232 335 235 342 259 352 259 332 259 353 256 331 255 354 252 331 251 355 248 330 246 356 244 329 243 357 240 328 241 336 231 334 209 321 198 300 203 300 163 301 197 303 164 302 205 307 165 304 200 311 167 304 208 315 168 308 203 320 170 306 211 323 171 311 206 327 173 309 214 331 174 314 209 335 176 311 216 339 178 317 211 343 180 314 219 347 182 321 214 350 184 316 222 353 187 324 218 356 190 319 225 359 193 327 221 362 196 321 227 363 201 329 225 363 206 323 231 362 211 330 230 362 216 325 234 361 221 331 234 360 226 327 237 359 231 332 239 358 235 328 241 357 240 348 236 339 240 329 240 354 241 365 245 378 245 388 241 378 245 368 248 364 242 370 249 363 242 374 254 368 240 377 254 372 238 379 254 376 236 382 253 380 234 385 252 384 232 388 252 388 231 385 242 389 251 389 242 388 235 388 235 "/>
    <path id="Block2Jump209"
        fill="none"
        stroke="#F993BC"
		stroke-width="2px"
		d="M 1212 202 L 1210 211 1218 205 1209 203 1195 201 1204 239 1208 262 1197 232 1206 236 1215 240 1208 227 1195 201 1209 210 1223 220 1235 207 1240 205 1237 191 1235 178 1230 211 1221 198 1213 185 1223 219 1209 210 1195 201 1187 205 1224 198 1241 204 1244 211 1247 166 1243 204 1243 167 1241 213 1238 168 1239 206 1234 169 1239 214 1230 170 1236 208 1226 171 1238 216 1222 172 1234 209 1218 174 1236 217 1214 175 1231 211 1210 177 1234 219 1206 178 1228 213 1202 180 1232 221 1198 182 1226 216 1196 186 1231 223 1194 190 1224 218 1191 193 1230 224 1187 196 1229 227 1186 200 1227 230 1187 205 1226 233 1187 210 1226 235 1187 215 1225 238 1188 220 1224 241 1188 225 1223 244 1188 229 1223 246 1189 234 1222 248 1190 239 1221 251 1191 244 1221 253 1192 248 1220 256 1193 253 1219 259 1195 257 1218 262 1198 262 1205 260 1215 260 1202 262 1219 279 1222 290 1220 331 1212 338 1206 339 1206 345 1201 355 1194 354 1189 353 1194 354 1201 355 1202 346 1183 356 1196 348 1187 360 1199 347 1192 362 1202 346 1196 364 1205 346 1198 355 1195 362 1202 354 1204 349 1208 344 1215 345 1257 353 1242 350 1215 345 1226 333 1238 322 1250 311 1233 304 1199 285 1191 279 1229 284 1217 295 1204 306 1192 317 1211 315 1250 311 1238 322 1226 333 1215 345 1208 351 1212 334 1207 308 1185 275 1180 264 1194 269 1180 269 1196 271 1180 274 1200 271 1180 279 1198 273 1181 284 1201 274 1181 288 1201 276 1181 293 1204 276 1182 298 1209 275 1182 303 1215 275 1182 308 1221 275 1183 313 1226 275 1183 318 1232 275 1184 323 1236 277 1187 326 1237 281 1190 329 1239 284 1192 332 1241 288 1195 335 1243 291 1197 338 1246 294 1200 341 1248 297 1203 344 1251 300 1205 347 1253 302 1208 350 1256 304 1210 353 1258 306 1213 356 1260 308 1217 359 1261 311 1220 361 1263 314 1224 363 1264 317 1228 364 1265 321 1233 365 1265 325 1251 361 1261 344 1243 365 1264 334 1238 366 1265 329 1233 365 1265 324 1240 358 1244 349 1252 342 1263 327 1263 334 1279 334 1283 321 1311 316 1333 301 1347 278 1353 239 1353 232 1349 257 1365 259 1345 281 1355 283 1365 286 1338 296 1348 304 1357 311 1327 308 1335 323 1344 338 1332 330 1308 315 1314 330 1320 346 1307 338 1282 320 1291 336 1299 352 1291 359 1282 357 1299 352 1291 336 1282 320 1287 358 1292 372 1274 362 1290 369 1274 358 1292 369 1275 352 1293 368 1276 347 1294 366 1277 341 1296 364 1277 335 1298 362 1278 328 1301 361 1278 320 1304 359 1278 311 1307 359 1280 307 1310 358 1285 307 1313 357 1289 307 1315 357 1294 307 1318 356 1298 307 1321 355 1302 306 1324 355 1307 306 1326 354 1311 305 1329 353 1315 305 1333 352 1320 312 1337 351 1319 303 1341 350 1324 310 1345 348 1321 301 1349 346 1327 308 1352 344 1324 300 1356 341 1330 306 1359 338 1326 297 1362 335 1333 303 1364 332 1328 295 1364 326 1329 293 1364 320 1330 292 1364 314 1332 290 1364 309 1333 288 1363 303 1334 286 1363 298 1339 286 1367 295 1335 282 1370 292 1336 280 1374 289 1336 278 1377 285 1337 276 1380 282 1337 275 1383 278 1337 273 1382 274 1338 269 1379 270 1339 265 1377 266 1339 261 1374 262 1340 257 1372 258 1340 253 1370 253 1341 249 1368 249 1342 245 1366 245 1342 242 1364 240 1343 238 1362 236 1344 235 1360 232 1348 233 1332 218 1327 208 1332 218 1321 199 1295 189 1273 189 1265 193 1274 171 1279 183 1284 194 1292 162 1295 179 1298 196 1312 175 1313 187 1314 200 1332 176 1329 191 1333 210 1330 219 1325 205 1305 186 1295 181 1266 183 1263 203 1265 180 1268 202 1265 177 1272 202 1265 173 1277 202 1266 170 1282 202 1269 165 1286 202 1272 161 1289 203 1275 159 1291 203 1279 156 1293 203 1283 155 1295 204 1287 154 1298 204 1291 153 1300 205 1295 153 1301 205 1299 155 1304 206 1303 160 1308 207 1308 165 1312 208 1312 166 1314 209 1316 166 1316 210 1320 167 1318 211 1325 167 1320 212 1329 167 1322 214 1333 167 1324 215 1337 168 1326 216 1342 168 1328 217 1346 168 1330 219 1326 228 1320 252 1314 260 1307 263 1301 266 1283 264 1279 269 1269 261 1264 252 1270 249 1267 228 1269 221 1262 221 1264 237 1252 240 1241 243 1266 252 1256 258 1247 264 1279 265 1271 273 1263 281 1289 266 1285 280 1281 294 1297 266 1301 279 1304 293 1306 264 1315 273 1323 281 1325 254 1326 229 1317 224 1335 234 1317 229 1337 237 1317 233 1338 241 1321 274 1305 284 1285 283 1277 280 1255 263 1249 254 1249 235 1260 219 1280 218 1254 220 1278 220 1246 224 1276 224 1241 228 1274 227 1238 232 1274 229 1235 237 1273 231 1233 242 1273 234 1232 246 1272 236 1230 251 1272 238 1230 256 1272 240 1231 260 1272 242 1234 263 1272 243 1237 266 1273 245 1240 269 1273 247 1243 272 1274 249 1246 275 1276 252 1250 277 1279 255 1253 280 1282 258 1255 283 1279 263 1257 287 1285 259 1259 292 1282 264 1261 296 1288 258 1263 300 1285 265 1266 303 1290 258 1271 303 1285 272 1276 303 1289 265 1281 302 1292 258 1285 302 1291 271 1290 302 1293 265 1294 302 1294 257 1299 302 1296 270 1303 301 1296 265 1307 301 1296 257 1312 301 1301 270 1316 301 1300 265 1319 297 1297 257 1322 294 1302 263 1326 291 1299 258 1329 288 1305 263 1332 285 1301 258 1333 280 1304 258 1334 275 1306 257 1334 270 1308 257 1335 266 1310 256 1336 262 1313 252 1336 258 1315 249 1337 253 1317 246 1337 249 1317 241 1337 245 1317 237 1338 241 1317 233 1327 240 1337 240 1330 237 1321 235 1301 261 1301 247 1298 233 1301 225 1301 217 1301 225 1298 233 1293 240 1298 233 1309 237 1306 230 1305 222 1296 212 1308 226 1293 216 1309 232 1291 219 1309 237 1289 221 1308 242 1287 223 1306 246 1284 226 1304 249 1282 229 1297 242 1289 237 1283 228 1285 233 1285 233 "/>
    <path id="Block2Jump213"
        fill="none"
        stroke="#F993BC"
		stroke-width="2px"
		d="M 994 303 L 991 294 986 302 996 300 1002 299 994 279 989 286 967 275 967 269 978 278 1002 298 988 297 973 296 959 295 967 323 968 351 985 345 1003 339 987 334 956 324 973 322 989 321 1005 319 990 311 959 295 973 296 988 297 1002 298 1013 303 997 296 992 285 1002 282 958 264 1003 284 957 268 1005 286 955 272 1006 288 954 276 1007 291 953 280 1009 293 952 284 1010 295 951 288 1011 298 950 292 1011 301 950 296 1012 303 949 300 "/>
    <path id="Block2Jump214"
        fill="none"
        stroke="#F993BC"
		stroke-width="2px"
		d="M 949 305 L 973 320 1001 343 960 360 1010 338 959 357 1011 336 958 353 1012 334 957 349 1013 332 956 345 1013 329 954 341 1014 327 953 337 1014 324 950 333 "/>
    <path id="Block2Jump227"
        fill="none"
        stroke="#F993BC"
		stroke-width="2px"
		d="M 949 305 L 943 302 939 281 941 260 944 255 929 250 942 262 925 257 939 273 921 273 938 289 933 290 942 305 936 291 937 271 947 256 920 247 952 259 919 249 951 262 917 253 951 265 915 257 950 267 914 261 949 270 913 265 949 272 912 269 948 274 912 273 947 276 913 277 947 280 916 282 947 283 919 285 947 286 923 289 947 289 926 293 947 292 929 297 947 296 933 300 941 302 935 299 944 306 933 322 930 333 929 365 925 376 931 389 931 430 931 453 902 482 891 490 881 492 873 505 891 522 888 516 875 544 848 556 819 557 800 553 806 545 813 568 816 558 820 547 834 576 836 562 838 549 857 575 855 562 853 548 879 568 873 557 868 545 894 547 898 522 891 518 914 532 889 520 911 535 887 522 909 539 885 524 907 543 883 526 905 546 881 528 903 550 866 563 839 559 830 555 811 541 797 557 812 538 796 562 814 538 799 565 817 538 803 568 819 538 806 571 822 539 809 575 825 539 812 579 829 540 814 583 832 540 819 584 834 540 823 584 836 540 827 585 839 540 831 585 841 540 835 585 843 540 840 585 845 540 844 585 847 540 848 585 849 540 852 585 851 539 857 584 853 539 861 584 854 539 865 583 856 539 869 582 858 539 873 581 860 538 877 579 863 538 881 577 865 537 884 575 867 536 888 572 870 535 890 569 872 534 893 565 874 533 895 561 877 532 898 557 879 530 900 554 881 528 903 550 887 536 896 542 900 548 911 556 919 554 943 522 946 516 952 513 931 533 950 533 918 553 932 554 947 555 941 573 931 571 946 555 932 554 918 553 907 557 922 570 950 574 918 568 951 571 913 565 952 567 909 561 953 563 907 557 954 559 909 553 955 555 912 549 956 551 914 546 957 547 916 542 958 543 919 538 958 539 921 535 959 535 923 531 959 531 926 528 960 527 928 526 960 523 931 523 960 518 934 521 961 514 960 509 937 520 960 514 934 521 947 518 956 514 939 519 932 508 925 505 915 519 925 505 937 480 942 444 933 411 909 383 904 391 919 381 909 396 934 392 919 404 948 404 938 408 928 412 955 421 945 423 935 425 952 441 936 441 948 460 937 457 945 478 937 473 941 496 936 489 924 505 934 511 928 511 922 519 906 519 924 518 908 514 925 518 910 509 926 517 913 505 928 515 915 501 931 513 916 497 934 511 919 493 937 509 921 490 940 507 924 487 943 505 927 484 946 504 930 481 949 501 932 478 950 495 932 475 951 490 931 472 952 486 930 470 953 481 930 467 954 477 929 464 955 473 929 462 956 468 928 459 956 464 928 456 957 460 928 454 958 456 927 451 959 452 927 448 959 447 927 446 960 443 927 443 961 439 927 440 962 435 926 437 962 430 926 434 963 426 926 431 964 422 926 428 965 418 926 425 965 413 926 422 966 409 926 419 928 409 914 396 903 396 912 373 902 401 916 373 906 398 921 373 904 404 926 373 906 405 930 375 907 406 933 378 909 408 936 381 910 409 939 384 912 410 942 387 914 411 945 390 915 413 948 393 917 414 951 396 919 415 955 399 921 416 958 402 923 417 962 405 926 419 966 409 935 417 945 413 955 413 962 409 975 397 1008 367 1037 351 1038 336 1032 326 1031 286 1005 255 999 242 987 238 979 246 952 230 966 226 964 242 980 226 980 236 979 246 979 255 974 245 953 223 951 238 956 220 954 242 960 219 957 245 964 218 961 248 968 217 964 251 973 217 967 253 976 217 971 254 980 217 975 255 982 217 979 255 980 226 981 237 978 246 982 234 993 235 1018 261 1029 288 1031 323 1041 320 1051 316 1028 299 1042 299 1055 299 1024 285 1039 280 1054 276 1041 273 1015 269 1025 263 1035 257 1002 256 1015 241 994 232 992 247 996 221 992 242 1000 224 991 247 1004 226 991 250 1008 228 992 254 1012 230 993 257 1015 232 994 260 1019 233 996 262 1024 235 997 264 1028 237 999 265 1033 238 1000 267 1038 240 1002 269 1042 242 1004 271 1042 247 1005 272 1042 251 1007 274 1043 256 1008 276 1047 258 1010 278 1052 261 1011 280 1056 263 1013 283 1059 266 1014 285 1062 270 1015 287 1063 274 1015 289 1064 278 1016 290 1064 282 1017 292 1064 287 1017 294 1065 291 1018 295 1065 295 1018 297 1064 299 1019 299 1064 303 1019 301 1063 307 1020 303 1062 312 1020 306 1061 313 1021 310 1061 313 1021 314 1054 314 1021 319 1049 316 1022 323 1060 314 1022 328 1053 317 1022 333 1048 321 1022 336 1039 325 1031 331 1021 335 1027 334 1031 345 1043 346 1031 356 996 375 967 378 966 385 948 374 956 380 965 384 969 395 981 378 987 393 996 371 1002 386 1010 362 1013 372 1015 383 1026 354 1028 367 1030 380 1043 346 1044 357 1045 368 1052 356 1052 342 1044 367 1044 357 1043 346 1034 341 1050 364 1053 333 1050 368 1050 334 1047 372 1046 336 1044 377 1042 337 1041 382 1038 339 1038 386 1034 341 1035 389 1030 342 1032 389 1026 344 1029 390 1022 346 1025 390 1018 348 1022 391 1014 350 1019 391 1011 352 1016 392 1007 354 1013 393 1003 356 1011 393 999 359 1008 394 996 361 1006 395 992 363 1002 396 989 364 998 397 986 366 994 399 983 367 991 401 979 369 987 403 975 370 984 405 971 372 982 407 968 373 978 408 964 375 971 402 961 376 964 396 958 377 958 392 956 377 954 383 946 384 957 377 943 381 956 373 940 379 955 369 946 375 951 372 945 365 940 362 920 337 913 321 906 321 905 308 912 299 916 293 908 285 908 307 892 302 908 321 892 324 924 327 913 334 903 342 931 330 925 345 918 360 937 331 938 347 940 362 944 370 952 366 941 336 948 368 939 330 944 369 936 322 940 371 937 331 936 372 936 337 931 371 935 330 927 370 935 322 923 369 933 330 918 369 930 336 914 368 931 329 910 367 934 321 905 366 925 335 903 361 928 328 901 357 932 321 899 352 922 330 897 348 926 326 894 345 931 321 889 343 923 325 880 343 929 322 910 321 905 310 914 299 922 299 901 279 920 300 898 281 916 299 894 284 919 304 890 287 913 303 886 290 917 307 882 293 911 307 883 297 916 311 883 302 911 311 883 306 915 314 884 311 910 316 884 315 915 317 883 319 911 320 883 324 919 319 883 329 922 320 882 333 925 321 881 338 929 321 884 341 903 360 882 345 879 352 870 324 871 296 877 279 896 254 924 236 932 233 905 228 910 238 915 249 883 242 891 253 898 263 862 258 871 267 880 275 855 286 872 292 855 312 872 308 856 337 864 331 873 324 879 351 882 345 887 337 890 347 902 351 902 369 900 349 898 368 898 347 893 367 896 345 889 365 894 343 885 364 891 341 881 362 889 339 877 361 886 337 874 359 883 335 870 357 858 325 861 291 865 281 880 265 915 247 932 242 931 223 931 244 926 221 929 246 922 220 927 249 917 219 925 251 912 219 922 254 908 219 920 256 904 219 918 258 900 220 915 260 896 222 913 262 892 224 911 265 889 226 909 266 886 229 906 268 883 231 904 270 879 234 902 272 876 237 900 273 873 239 897 275 870 242 895 277 866 244 892 278 863 247 890 280 859 249 887 282 856 251 884 283 852 253 882 285 849 255 880 287 847 260 880 289 847 265 875 288 847 270 881 293 847 275 875 293 846 280 881 297 846 285 875 297 846 289 881 300 846 294 875 301 846 298 881 303 846 302 875 305 846 307 881 306 846 311 875 309 846 316 880 309 846 320 875 313 846 324 880 312 847 329 875 317 847 334 880 316 847 339 880 318 849 342 880 321 852 345 880 325 855 348 880 328 859 351 880 330 863 353 881 333 866 355 883 335 870 357 874 348 881 338 874 355 880 358 877 364 859 362 820 370 833 359 830 371 828 383 858 362 853 373 848 385 879 392 887 396 869 386 882 372 847 385 853 373 858 362 872 357 835 372 812 385 803 363 812 389 807 361 813 391 812 359 815 392 816 357 817 392 821 355 820 392 825 353 823 392 830 351 827 392 834 349 829 392 839 348 832 393 843 349 834 393 847 350 836 393 851 351 839 393 855 352 841 393 859 353 844 393 863 354 847 393 867 356 849 393 871 357 852 393 875 359 856 393 879 361 859 393 883 363 862 393 886 365 865 393 890 367 869 393 894 369 870 395 894 374 872 397 894 380 874 399 894 385 876 399 895 390 878 399 895 395 882 399 896 399 888 398 893 396 882 397 892 399 875 416 870 426 870 439 865 455 865 465 870 467 873 476 879 486 871 496 873 508 835 518 815 522 816 515 836 527 835 512 856 521 853 509 873 508 869 500 855 510 837 514 824 511 818 507 812 531 821 506 816 532 824 505 820 534 827 505 824 535 830 504 829 536 833 504 833 536 835 503 837 536 838 502 841 536 841 502 845 535 843 501 850 535 846 501 854 533 849 500 857 531 853 499 861 528 856 499 864 525 859 498 868 523 862 498 871 521 865 498 875 518 867 499 879 516 869 500 884 514 874 507 870 500 878 506 881 497 876 492 888 477 894 461 894 432 887 410 895 432 911 429 896 449 912 452 891 466 901 472 911 478 881 479 894 493 876 492 885 501 870 482 890 503 872 478 895 502 873 475 899 500 875 473 903 498 876 471 888 470 902 453 905 443 902 423 891 405 881 415 897 408 882 416 902 411 883 419 906 414 884 421 911 417 884 424 915 420 885 427 918 423 886 431 920 427 886 433 920 432 887 436 920 436 887 438 920 440 887 440 921 444 887 443 921 449 887 445 921 453 887 448 921 457 887 450 921 462 888 453 920 466 888 455 920 470 887 457 920 475 885 459 919 480 884 461 918 484 882 462 916 487 881 464 913 490 880 465 910 493 878 467 907 496 877 469 903 498 876 471 897 490 888 485 883 476 868 468 865 463 857 456 850 449 857 434 858 409 862 421 868 415 857 421 868 423 858 435 870 437 855 443 869 450 850 449 857 456 865 463 870 472 867 433 872 417 849 405 876 421 849 409 873 421 848 413 877 424 848 418 873 425 848 422 878 427 848 427 878 429 848 431 879 434 853 433 879 438 849 434 879 442 853 437 878 447 848 437 878 451 852 440 877 456 846 439 875 460 850 443 874 464 845 441 872 468 848 446 870 472 842 443 867 475 845 449 863 477 840 446 860 480 839 448 855 471 848 464 844 454 835 444 829 445 821 411 819 423 834 422 819 435 833 436 820 445 829 445 840 443 811 445 839 443 810 442 841 439 810 438 842 435 810 434 843 431 810 431 843 427 810 428 843 422 810 426 842 419 810 422 838 416 810 418 834 414 810 413 830 413 811 409 794 405 771 416 751 434 751 442 756 407 762 419 768 431 772 395 776 405 780 415 791 391 792 402 793 411 790 382 792 413 785 382 790 415 781 383 761 417 748 431 747 452 748 427 752 451 748 422 756 450 749 418 760 448 749 413 764 446 750 408 768 444 751 403 771 441 752 398 774 437 754 394 776 434 758 391 778 431 761 389 780 428 765 388 782 426 769 386 784 423 773 385 786 420 777 384 788 418 781 383 790 415 783 393 787 402 790 411 797 416 802 449 797 450 801 459 811 470 828 484 831 468 808 493 815 479 822 464 793 479 802 470 811 461 781 464 799 456 790 438 799 436 801 415 794 415 808 415 791 419 808 418 789 424 808 422 787 428 808 425 784 433 807 429 782 438 807 432 781 443 807 435 779 448 807 439 777 453 807 442 776 458 807 445 775 463 807 448 773 468 807 452 774 473 808 454 777 476 810 454 780 479 812 454 783 482 809 458 786 485 816 454 789 488 814 460 816 470 829 471 834 465 834 493 833 460 830 494 831 464 825 495 831 458 821 496 828 464 816 497 829 457 811 499 827 456 805 502 821 463 802 499 823 455 798 497 817 461 795 494 820 454 792 491 813 460 789 488 806 467 801 475 793 482 782 491 757 499 767 499 760 493 761 503 767 495 773 489 782 518 787 518 784 538 787 518 782 518 777 543 748 541 782 518 762 519 742 520 772 488 755 491 738 494 738 464 758 464 738 494 755 491 772 488 789 495 773 511 773 530 786 544 778 548 798 511 794 537 796 509 790 538 792 509 785 541 788 509 782 546 784 511 777 548 786 543 739 540 787 539 738 537 788 535 737 535 788 531 736 532 789 527 735 529 790 523 734 526 790 519 733 523 791 515 733 520 791 511 732 517 791 507 731 514 791 502 731 511 790 498 730 508 788 495 730 505 786 491 729 501 782 488 729 497 778 485 729 492 774 484 728 488 769 483 728 484 769 479 728 480 769 475 728 476 768 471 728 472 767 467 728 468 767 464 729 464 757 463 747 465 737 463 737 463 "/>
    <path id="Block2Jump230"
        fill="none"
        stroke="#F993BC"
		stroke-width="2px"
		d="M 584 230 L 586 240 591 232 581 234 590 240 584 236 568 236 584 236 594 231 584 236 587 251 590 244 594 219 591 245 589 219 589 248 585 219 587 251 581 219 583 252 577 219 579 252 573 219 575 252 569 219 571 252 565 220 570 242 566 232 566 226 558 227 553 227 533 261 518 297 517 326 519 332 494 311 507 312 521 312 493 284 509 289 525 294 510 261 521 269 533 276 533 243 542 250 551 257 538 230 552 227 561 225 529 232 561 230 529 233 561 234 529 234 561 239 529 234 561 243 529 235 561 248 529 235 561 253 529 236 561 258 529 237 559 262 527 237 555 265 522 237 552 267 518 237 549 270 513 237 547 272 510 240 545 274 509 245 544 276 508 249 542 278 506 253 541 280 503 256 539 282 500 259 538 285 496 261 537 287 492 264 536 290 490 268 502 292 508 331 528 333 502 330 529 329 496 328 529 325 490 324 529 321 486 321 529 317 485 317 529 315 485 313 530 313 485 308 530 310 484 304 530 308 484 300 531 306 484 296 531 304 484 291 532 302 484 287 532 299 484 283 533 297 484 279 534 296 486 275 534 294 487 271 535 292 489 267 536 290 498 273 508 275 516 281 533 288 538 292 544 293 576 270 582 266 569 275 544 293 557 294 571 296 586 298 579 324 579 355 572 353 587 323 572 324 557 325 542 325 556 316 585 298 571 296 557 294 544 293 534 293 557 286 571 274 572 269 591 263 567 270 591 268 563 271 592 273 558 274 592 277 553 276 592 281 549 279 593 285 544 282 593 289 540 286 594 294 537 289 594 297 534 293 594 300 533 297 594 302 532 301 595 305 531 305 "/>
    <path id="Block2Jump231"
        fill="none"
        stroke="#F993BC"
		stroke-width="2px"
		d="M 582 315 L 569 332 566 351 586 359 562 350 587 356 557 348 589 351 552 345 591 347 548 342 592 343 543 339 593 339 539 336 594 335 537 333 595 331 534 330 595 327 533 326 596 323 532 322 "/>
    <path id="Block2Jump236"
        fill="none"
        stroke="#F993BC"
		stroke-width="2px"
		d="M 531 309 L "/>
    <path id="Block2Jump237"
        fill="none"
        stroke="#F993BC"
		stroke-width="2px"
		d="M 531 305 L "/>
    <path id="Block2Jump238"
        fill="none"
        stroke="#F993BC"
		stroke-width="2px"
		d="M 541 307 L 551 305 561 307 592 308 599 305 613 268 613 251 602 259 624 265 606 270 620 285 608 286 603 305 595 305 611 305 596 301 614 302 597 297 618 298 598 294 621 294 598 290 625 289 599 286 628 285 599 283 632 281 598 280 634 277 598 277 635 272 598 275 634 268 597 273 633 264 597 271 632 260 597 270 630 256 601 266 627 253 595 266 624 249 598 262 621 246 594 263 618 244 597 258 614 241 594 263 618 244 602 258 608 250 617 245 620 238 622 232 648 249 669 275 672 281 677 308 678 340 671 339 650 372 659 354 670 360 675 341 681 343 677 324 686 324 677 306 690 303 677 287 694 280 661 275 670 269 680 264 649 261 664 249 638 244 646 236 622 232 615 240 628 223 618 242 633 224 622 243 638 225 625 245 642 226 628 247 646 227 630 249 651 229 633 251 655 231 635 254 658 233 637 257 662 235 639 260 665 238 641 263 668 240 642 266 671 243 644 269 674 246 646 272 677 249 648 274 680 252 650 277 683 255 653 279 686 258 655 280 690 261 658 282 693 264 662 283 697 266 666 284 701 269 669 286 703 273 669 290 702 277 669 294 701 282 669 298 701 287 669 301 700 291 669 305 699 296 669 308 698 300 669 312 698 305 668 315 697 309 668 318 696 313 668 320 696 318 668 323 695 322 667 326 694 326 667 329 693 330 667 332 693 335 667 334 692 339 666 336 691 343 666 339 689 347 664 341 688 351 661 343 686 355 658 345 683 358 655 347 681 361 652 350 678 365 649 352 675 368 642 369 655 378 642 365 659 377 641 361 664 375 642 357 668 372 645 355 672 370 649 352 675 367 657 358 666 361 671 367 672 375 673 382 659 385 658 394 637 395 630 376 636 394 653 393 652 408 651 425 658 410 672 382 673 395 675 408 706 388 716 385 708 371 700 357 699 371 696 399 691 384 687 370 674 408 673 395 672 382 674 371 682 378 696 370 698 354 697 348 721 391 695 350 719 394 693 352 716 397 691 354 713 400 690 356 709 402 688 358 706 405 686 360 702 406 684 362 698 407 682 364 694 409 680 366 690 410 678 367 686 411 676 369 682 412 674 371 678 414 671 373 674 418 667 375 670 422 664 377 667 426 661 380 663 430 658 381 659 432 655 382 655 433 652 383 651 434 650 384 646 434 647 384 642 434 645 384 638 433 642 391 634 429 640 395 631 423 644 384 628 419 641 390 624 416 642 385 624 407 637 388 625 399 640 386 624 392 639 384 624 387 638 383 624 382 636 383 625 376 633 382 629 374 628 363 631 352 604 362 599 360 630 352 619 346 608 340 625 325 626 330 636 326 642 315 641 309 635 308 632 297 640 299 652 296 639 317 653 318 625 324 635 331 646 338 607 340 619 346 630 352 627 365 629 350 642 327 643 313 633 302 627 303 646 278 631 300 649 281 629 304 652 285 633 302 656 288 630 306 659 291 630 308 662 294 630 311 665 297 635 311 664 302 630 314 663 307 635 315 662 312 630 316 662 316 635 318 661 321 630 318 661 325 638 321 660 330 635 321 660 334 630 320 659 339 623 320 656 341 615 320 653 343 608 320 650 345 603 321 647 348 602 326 644 350 601 330 641 353 600 334 639 355 598 338 637 358 597 341 635 361 596 345 633 364 594 349 627 365 592 353 619 365 590 357 613 365 599 360 590 358 602 362 595 371 591 394 597 386 588 388 596 394 595 384 603 388 610 392 612 399 574 387 537 372 511 359 493 345 504 373 515 352 529 385 540 362 554 394 561 377 579 402 587 387 602 408 612 399 610 392 594 384 589 373 613 381 589 369 614 385 588 372 616 390 587 376 618 395 586 380 618 400 587 385 592 379 575 383 541 376 506 365 493 355 491 334 493 359 496 336 493 363 500 337 494 367 504 339 495 371 508 340 496 375 512 342 497 378 516 343 500 381 520 345 504 383 524 346 507 385 527 347 511 387 531 349 515 388 535 350 518 390 538 351 522 391 542 353 526 393 545 355 529 395 549 356 533 396 552 358 537 398 555 360 541 399 558 363 545 400 561 365 548 402 563 367 552 403 566 370 556 404 568 373 560 406 570 376 564 407 573 378 567 408 578 378 570 408 582 378 573 409 587 378 576 410 591 379 579 411 595 380 581 411 599 382 584 412 603 384 587 413 606 386 590 413 610 387 593 414 614 389 596 414 617 392 598 415 619 396 610 399 605 408 599 416 616 399 " />
</svg>
