<?xml version="1.0" encoding="UTF-8" standalone="no"?>
<svg xmlns="http://www.w3.org/2000/svg" version="1.1" width="780" height="968">
    <path id="Block1Jump0"
        fill="none"
        stroke="#000000"
		stroke-width="2px"
		d="M 771 779 L 780 777 771 780 780 778 774 777 780 775 771 773 778 771 769 770 770 759 761 738 760 732 756 738 765 738 757 742 767 742 759 746 770 747 760 750 772 751 762 754 774 755 763 758 776 758 765 762 777 762 767 766 779 765 769 770 780 769 771 769 780 767 771 770 780 768 "/>
    <path id="Block1Jump1"
        fill="none"
        stroke="#000000"
		stroke-width="2px"
		d="M 688 530 L 679 535 687 529 680 536 688 530 678 546 678 555 687 584 690 602 691 609 709 624 715 654 721 683 727 713 733 742 736 772 740 802 742 832 744 851 759 877 778 900 770 898 777 894 766 895 775 891 763 892 771 886 760 889 769 882 757 886 767 879 755 882 764 875 752 879 762 872 750 875 760 869 747 872 757 865 745 869 755 862 742 865 752 859 740 862 750 855 737 858 751 851 735 855 751 847 733 851 751 842 746 844 732 847 751 838 732 843 752 834 744 836 732 838 752 830 732 834 752 826 732 830 752 822 731 826 753 818 731 821 753 814 731 817 753 809 731 813 754 805 731 809 753 802 731 805 753 798 731 801 753 794 730 796 753 790 730 792 742 790 752 786 729 788 752 782 729 784 741 782 752 778 728 780 752 775 727 776 740 774 751 771 727 772 751 767 726 768 739 766 751 763 725 764 747 760 724 760 744 756 723 756 742 756 722 752 736 753 721 747 744 754 719 742 747 753 731 746 718 737 723 739 749 750 716 733 752 747 734 739 715 728 726 733 751 742 722 729 713 724 741 736 751 738 737 732 711 720 728 727 751 733 719 722 710 716 750 729 740 725 708 711 731 720 750 725 722 714 706 707 713 709 750 720 742 718 714 708 704 703 733 713 749 716 724 708 703 699 715 703 749 712 744 710 711 700 702 696 735 706 748 707 726 701 701 692 717 696 748 703 709 692 700 688 737 698 747 699 728 694 699 685 719 690 746 694 710 686 698 681 735 690 746 690 730 687 697 678 721 683 745 686 711 679 696 675 702 676 734 682 744 682 731 679 695 671 722 676 743 678 712 673 695 668 703 669 732 674 743 673 733 671 694 665 723 668 742 669 713 665 693 661 704 662 741 665 734 664 703 661 693 658 724 661 740 661 714 659 692 655 704 656 739 657 734 656 702 654 692 652 724 654 738 653 715 651 691 649 705 649 737 649 701 647 691 645 725 646 736 645 715 644 691 642 705 642 735 641 701 641 690 639 723 639 733 637 715 637 690 636 705 636 732 633 701 634 690 632 720 631 730 629 715 630 690 629 704 628 729 625 690 626 727 621 714 622 703 622 725 617 691 623 723 614 713 617 702 619 721 610 690 622 719 607 710 612 700 617 692 620 700 615 714 605 697 615 708 605 693 616 702 604 690 616 697 604 686 619 695 606 683 615 690 608 682 612 690 606 680 608 694 604 678 604 686 603 696 601 676 599 699 599 674 596 686 597 711 596 673 593 704 594 714 592 696 592 672 590 686 590 715 588 681 589 671 588 705 586 715 584 696 585 670 586 686 584 715 580 679 584 669 583 704 579 714 576 695 578 668 581 685 578 713 572 677 578 667 579 702 572 712 568 694 572 666 577 684 573 710 565 675 573 665 575 699 566 709 561 692 566 664 573 682 567 707 557 673 568 663 570 696 559 704 554 690 559 662 568 680 561 702 550 671 563 661 566 692 553 700 547 687 553 660 564 678 555 698 544 668 558 659 562 688 547 696 540 684 546 657 560 675 550 693 537 666 554 656 558 683 541 691 534 681 541 655 556 671 545 688 531 663 549 654 554 663 541 662 531 650 504 628 484 606 464 581 447 556 430 535 419 528 419 512 427 511 432 522 417 514 435 521 424 533 407 528 416 517 437 534 409 544 397 541 401 524 430 521 439 528 428 549 396 534 420 524 441 541 413 553 398 548 405 531 434 527 444 534 432 556 400 541 425 531 446 548 417 560 402 555 410 539 438 534 448 541 436 563 403 548 429 538 450 555 421 567 405 562 414 545 442 541 452 548 440 570 407 555 433 544 454 562 425 574 409 569 418 551 446 546 455 553 444 570 418 577 411 560 436 549 457 568 429 581 413 575 422 556 449 551 459 559 447 577 422 584 415 566 440 553 460 573 433 588 417 581 426 561 453 556 462 564 451 583 426 591 419 572 445 558 464 579 438 594 422 587 431 566 456 561 465 569 455 590 430 598 424 577 449 563 467 584 442 601 426 593 436 572 460 566 469 574 460 596 435 604 428 582 453 568 470 590 447 608 431 598 441 576 463 571 472 579 464 602 439 611 433 587 458 573 474 595 452 614 436 604 446 582 467 576 476 584 469 609 444 617 438 592 463 578 477 600 457 621 441 608 452 580 479 587 473 615 448 624 443 596 468 583 481 604 462 627 446 614 457 585 483 591 478 621 453 630 448 600 472 588 484 609 468 633 451 618 463 590 486 595 483 627 458 636 453 604 478 592 488 613 473 639 456 622 469 595 490 599 487 632 465 643 459 608 483 597 492 617 479 646 461 627 475 600 494 636 471 649 464 612 488 602 496 621 484 652 467 630 480 604 498 640 477 655 470 649 473 615 493 607 500 625 490 658 473 634 486 609 502 643 483 661 476 653 480 620 498 611 504 628 495 663 479 637 492 613 506 647 488 666 482 657 486 624 502 616 508 631 501 659 486 669 484 640 498 618 511 650 495 672 487 660 493 629 507 620 513 634 507 665 492 675 490 643 504 622 515 653 502 677 493 663 499 633 512 625 518 636 513 670 499 680 496 646 511 627 520 656 508 683 500 666 506 638 517 629 522 638 518 675 505 685 503 648 516 631 525 658 515 688 506 668 513 633 527 641 524 678 512 689 510 650 523 635 530 661 522 686 515 671 520 638 532 643 531 671 522 682 521 653 530 640 535 663 528 674 527 642 538 670 529 655 535 645 541 675 528 647 545 671 531 657 540 650 548 675 529 651 551 680 530 661 545 653 553 670 540 686 530 679 535 654 555 679 535 686 530 677 535 685 529 678 536 686 530 681 528 "/>
    <path id="Block1Jump2"
        fill="none"
        stroke="#000000"
		stroke-width="2px"
		d="M 389 426 L 379 428 373 448 368 449 376 444 368 445 378 440 367 441 380 436 368 437 375 434 382 432 370 433 385 428 374 428 385 424 374 425 385 420 378 421 372 428 388 420 383 416 395 416 378 421 386 420 398 420 374 425 400 424 389 428 400 428 389 432 399 432 390 435 398 436 386 440 396 440 385 444 395 444 388 446 383 448 393 448 381 452 386 452 392 452 378 457 390 456 374 461 388 460 377 463 385 464 374 469 383 468 387 460 371 468 381 472 365 473 383 468 374 468 359 469 385 464 355 465 358 431 371 408 388 376 402 376 397 376 379 380 397 380 386 382 372 385 392 384 375 388 385 388 370 393 385 392 370 397 382 396 375 398 369 401 381 400 367 405 373 404 382 404 365 409 388 408 375 410 365 413 378 413 365 417 372 416 387 408 377 404 365 422 355 442 369 460 363 461 352 461 363 456 350 457 360 452 351 453 359 448 348 449 359 444 348 445 359 440 351 441 360 436 351 437 362 432 352 433 362 429 354 429 366 424 356 425 369 420 358 421 363 419 372 416 361 417 374 414 363 413 378 408 373 409 365 409 378 404 367 405 364 413 371 413 378 412 391 409 396 411 407 411 426 379 423 384 420 388 417 392 423 392 414 396 421 396 414 398 420 400 408 404 418 404 405 408 416 407 390 412 415 412 399 415 409 416 415 416 400 420 417 419 414 424 409 424 403 424 417 423 434 427 415 472 405 481 394 476 410 440 421 435 415 460 420 455 413 456 422 451 414 452 424 447 415 448 423 445 416 444 426 439 421 440 426 435 417 436 426 431 416 432 416 439 416 431 411 428 422 428 407 432 426 432 411 434 404 436 421 436 426 435 401 440 409 440 416 440 399 444 410 444 397 448 406 448 401 449 394 452 403 452 392 456 398 456 390 460 399 460 388 464 398 464 389 467 398 468 386 472 401 472 388 476 401 476 392 480 398 480 401 472 406 480 417 483 398 484 411 481 420 479 398 480 392 480 420 476 410 476 388 476 417 472 423 470 408 472 427 467 414 468 423 465 429 463 418 464 431 459 421 460 433 455 423 456 434 451 425 452 436 447 427 448 437 443 428 444 439 439 429 440 437 436 429 436 442 431 432 431 444 427 425 428 441 419 437 395 432 395 461 389 462 367 442 355 413 348 410 344 419 314 428 284 434 263 464 263 442 265 421 268 453 267 475 267 465 267 430 270 413 272 441 271 473 271 453 272 418 275 407 276 430 275 465 275 470 275 442 277 407 279 402 280 418 279 453 279 467 279 430 281 398 284 406 284 441 283 463 283 453 283 418 286 395 288 418 287 453 287 460 287 430 289 395 291 406 291 441 291 457 291 419 294 393 296 430 295 454 295 442 296 407 299 400 300 418 299 452 299 431 301 399 304 407 303 442 303 450 303 419 305 395 308 430 307 449 307 442 307 407 310 393 312 419 311 447 311 431 312 396 315 390 316 407 315 442 315 419 317 388 320 395 320 430 319 444 319 407 322 385 324 419 323 443 323 431 324 396 327 388 328 407 327 441 327 419 329 393 332 431 331 440 331 408 334 390 336 419 335 439 335 431 335 396 339 387 340 407 339 438 339 419 340 386 343 396 343 431 343 437 343 408 345 384 348 419 347 437 347 431 347 396 350 384 352 407 351 436 351 436 343 454 352 472 346 478 308 483 274 500 274 481 279 488 278 509 278 502 279 479 283 511 282 489 285 476 287 488 286 516 286 501 287 474 291 511 290 518 290 489 293 472 295 500 294 520 294 512 294 478 298 470 299 488 298 522 298 501 300 468 303 477 302 512 302 523 302 489 305 465 307 500 306 524 306 512 307 478 309 463 311 489 310 524 310 501 311 466 314 460 315 477 314 512 314 524 314 489 316 457 319 465 319 500 318 524 318 512 318 478 321 454 323 489 322 523 322 501 323 466 326 451 327 477 326 512 326 521 326 489 328 454 330 448 331 466 330 501 330 508 330 478 332 445 335 454 335 489 334 508 334 501 334 466 337 441 339 477 338 508 338 489 339 454 341 437 343 466 342 501 342 508 342 478 344 443 346 438 347 454 346 489 346 508 346 501 346 466 349 438 351 477 350 507 350 508 342 476 350 447 354 442 355 413 363 410 368 414 372 413 380 418 379 409 380 421 375 407 376 424 371 396 372 420 369 427 367 408 368 393 368 427 363 420 364 393 364 408 362 427 359 396 360 393 368 422 359 442 355 413 352 383 348 419 347 454 346 489 346 508 346 501 346 466 348 431 349 396 351 379 352 407 351 442 351 477 350 508 350 489 350 454 352 419 354 384 355 378 356 396 355 431 355 466 354 501 354 508 354 478 355 443 357 408 358 381 360 419 359 454 358 489 358 505 358 466 360 432 362 397 363 391 364 408 363 443 363 478 362 499 362 483 362 469 364 439 367 433 368 455 367 488 367 467 369 433 372 443 371 478 371 490 371 455 374 433 376 466 375 490 375 479 376 444 379 433 380 455 379 489 379 467 381 434 383 443 383 478 383 489 383 455 386 431 388 467 387 488 387 479 387 444 390 430 392 455 391 487 390 474 391 463 392 453 392 432 395 430 396 433 392 437 395 456 395 470 392 483 398 486 394 478 395 470 395 486 390 470 391 482 388 470 387 471 393 453 393 440 395 437 395 456 395 447 397 441 399 455 399 443 403 454 403 443 407 453 407 443 411 452 411 441 415 451 415 437 419 449 419 437 423 446 423 439 426 444 427 449 419 446 423 421 424 431 423 421 423 431 422 421 424 431 423 461 455 449 453 461 454 449 454 461 455 451 462 446 491 445 522 446 541 449 548 430 572 409 600 404 606 399 599 412 607 404 601 398 593 416 605 398 588 418 603 410 595 399 583 404 587 421 600 401 579 423 597 415 590 403 576 409 581 426 595 405 572 428 592 420 584 407 569 414 576 431 590 409 565 433 587 425 579 412 562 420 570 436 584 415 559 438 582 431 574 417 556 426 565 441 579 420 553 443 576 436 569 423 550 432 560 445 573 427 549 448 571 442 564 432 548 438 555 450 568 436 549 453 565 448 560 437 548 442 552 455 561 446 553 458 558 448 552 460 555 441 548 461 551 447 548 461 547 435 546 462 543 456 543 430 543 446 541 462 539 429 540 463 534 456 535 429 537 446 535 463 530 428 534 464 526 455 528 428 531 445 528 464 522 428 528 464 518 453 520 428 525 443 521 465 514 428 523 465 509 452 513 428 519 441 514 465 505 428 516 461 502 449 506 427 512 439 508 461 500 427 508 462 496 448 500 427 504 438 501 463 493 428 499 465 490 446 494 429 495 436 493 465 488 431 491 464 485 446 487 432 487 464 483 433 483 464 480 445 481 434 479 464 478 436 475 463 475 437 471 463 471 438 467 463 467 439 463 462 463 440 459 462 459 449 456 462 459 450 457 462 458 450 458 462 459 "/>
    <path id="Block1Jump3"
        fill="none"
        stroke="#000000"
		stroke-width="2px"
		d="M 349 835 L 343 827 350 834 342 828 349 835 336 832 312 850 287 868 262 885 237 902 222 914 217 928 213 958 211 968 209 960 215 963 209 956 217 959 208 951 218 954 208 946 219 950 208 942 220 946 208 937 221 942 209 932 221 939 209 927 222 935 210 923 223 931 211 918 224 927 212 913 225 923 213 909 226 920 222 915 216 906 228 917 220 904 232 915 223 902 235 913 227 899 239 910 230 897 242 908 234 895 246 906 237 892 249 904 241 890 253 902 244 888 256 899 247 886 260 897 251 883 263 895 254 881 267 893 258 879 270 890 261 876 274 888 264 874 278 886 268 871 281 884 271 869 285 881 274 866 288 879 277 864 292 877 281 861 295 875 284 859 299 873 287 857 302 870 290 854 306 868 294 852 300 859 309 866 297 849 313 864 300 847 306 853 316 861 303 844 320 859 307 842 312 848 323 857 310 839 327 855 324 851 313 837 318 843 330 852 316 834 334 850 330 845 320 832 324 837 337 847 323 829 340 845 336 840 326 827 330 831 343 842 329 824 345 839 341 835 332 822 336 826 348 836 335 819 348 822 354 814 359 817 363 821 348 808 360 824 345 811 349 815 357 827 354 823 342 814 354 830 338 816 342 820 351 833 348 829 335 819 348 836 355 838 348 827 360 834 347 822 363 831 346 818 365 828 346 814 368 825 345 811 371 822 348 807 374 819 350 804 367 813 377 815 353 801 379 812 355 797 371 805 382 809 358 794 385 806 360 791 374 799 388 803 362 788 390 800 365 784 378 791 393 797 367 781 396 794 390 791 370 778 382 784 399 791 372 774 401 788 394 784 375 771 386 777 404 785 377 768 407 782 398 777 380 765 390 770 409 779 382 761 412 776 401 770 384 758 394 763 415 773 387 755 418 770 405 763 389 752 398 756 420 767 392 748 423 764 409 756 394 745 402 749 426 761 397 742 428 757 413 749 399 739 406 742 431 754 402 735 434 751 417 742 404 732 410 735 436 748 406 729 429 742 439 745 422 735 409 726 414 728 442 742 411 722 433 735 444 739 425 728 414 719 447 736 416 716 437 728 450 733 429 721 418 713 452 730 421 709 441 721 449 696 435 692 458 701 432 695 448 701 457 708 429 699 456 712 426 702 445 709 456 716 424 705 455 720 433 710 423 707 442 716 455 725 450 723 422 709 454 729 431 715 420 711 439 722 445 725 465 703 466 683 472 672 489 646 495 646 506 652 495 638 489 632 499 628 500 604 499 574 499 543 497 513 494 484 491 454 490 438 503 439 482 442 509 443 488 444 476 446 498 445 511 447 475 450 512 450 489 451 474 454 499 453 513 454 474 458 479 458 514 457 489 459 473 462 499 460 515 461 509 461 473 466 479 465 516 465 490 467 474 470 500 468 517 469 510 469 474 474 480 473 517 473 490 475 474 478 500 476 518 477 511 477 474 482 481 481 518 480 491 482 474 485 501 483 519 484 511 484 474 489 481 488 519 487 492 489 474 493 502 490 520 491 512 492 474 497 482 496 520 495 492 497 474 501 502 498 521 499 513 500 474 505 483 504 521 502 493 505 475 509 503 506 521 506 513 507 475 513 484 512 522 510 494 513 475 517 504 514 522 514 514 515 475 521 485 520 522 518 495 521 475 525 505 522 522 522 515 523 485 526 475 529 485 528 523 526 496 529 475 533 506 530 523 529 516 531 485 534 475 537 486 536 523 533 497 536 475 541 507 537 523 537 517 538 485 542 475 545 487 543 523 541 498 544 476 549 508 545 523 545 518 546 486 550 476 553 488 551 523 549 499 552 476 557 509 553 523 553 486 558 476 561 490 559 522 557 500 560 476 565 510 560 522 561 486 566 476 569 491 567 522 565 501 568 476 574 511 569 522 569 486 574 476 578 492 576 522 573 502 576 477 582 511 576 522 577 487 582 477 586 493 583 521 580 503 584 477 590 511 584 521 584 487 590 477 594 494 591 521 588 505 591 477 598 510 592 520 592 487 598 477 602 496 599 520 596 506 599 477 606 509 600 519 600 487 606 477 610 497 607 519 604 507 607 477 614 518 608 488 614 478 618 498 614 518 613 509 615 478 622 517 617 490 622 478 626 500 622 517 621 510 622 481 629 516 624 485 633 493 631 489 636 497 636 491 638 501 640 495 642 504 643 499 645 507 647 502 648 506 652 492 646 487 650 469 675 465 684 465 700 451 719 445 721 439 719 452 730 441 717 454 728 443 715 457 724 446 713 460 721 448 710 462 718 450 708 465 715 453 706 467 711 455 703 470 708 458 701 473 704 460 698 475 701 457 693 477 698 452 687 479 695 465 690 446 681 481 692 453 681 444 676 458 681 483 690 468 683 447 672 475 685 485 687 449 669 461 674 487 685 471 677 452 666 479 679 488 682 454 663 464 668 490 680 474 671 457 660 492 677 459 656 468 661 494 675 478 665 462 653 495 672 464 650 472 655 497 669 482 659 466 646 499 667 468 643 477 649 500 664 486 653 470 639 502 662 472 636 481 643 503 659 490 648 474 633 505 656 476 629 486 637 507 654 495 643 478 625 492 635 481 622 478 626 488 625 478 627 488 624 478 626 "/>
    <path id="Block1Jump4"
        fill="none"
        stroke="#000000"
		stroke-width="2px"
		d="M 351 505 L 357 510 350 505 356 511 343 512 332 502 317 490 310 490 302 495 316 502 320 520 320 527 326 524 318 525 329 520 313 519 330 516 310 515 330 512 308 511 330 508 306 507 330 504 304 503 329 499 302 498 329 494 302 495 313 488 329 498 340 510 355 510 347 516 334 523 353 506 331 520 335 517 350 502 342 510 329 516 348 499 326 514 330 511 345 495 336 504 324 513 343 492 322 511 326 507 340 488 331 499 319 510 338 485 316 508 321 503 335 484 326 494 313 506 332 482 310 504 315 499 329 480 320 490 306 501 326 478 303 499 309 493 323 476 315 484 301 496 320 474 299 492 303 488 316 472 309 480 298 488 313 469 296 484 310 467 295 480 306 465 294 475 303 463 293 470 299 460 293 466 297 460 292 459 293 468 296 464 299 460 314 463 318 458 334 461 326 472 319 474 335 488 343 500 367 486 374 483 368 477 374 489 362 477 368 484 372 492 358 478 369 496 354 479 361 488 367 499 350 481 364 503 346 482 354 493 361 506 342 483 358 508 355 504 339 484 348 497 355 511 335 486 352 513 329 493 321 485 312 478 320 483 334 488 330 485 304 470 296 462 305 469 337 485 315 472 299 460 328 478 307 460 338 485 331 478 313 460 333 479 319 461 336 479 324 461 331 471 341 481 329 461 340 474 334 461 317 452 319 446 340 425 347 418 342 416 347 426 336 419 345 430 332 421 344 435 328 422 335 429 342 439 324 424 341 442 321 426 330 435 340 444 317 429 339 446 313 431 327 439 339 447 309 433 338 449 305 436 325 444 338 450 315 442 302 439 337 452 299 442 323 449 337 453 313 447 296 446 303 447 336 455 294 450 322 454 335 456 312 454 297 454 302 454 334 460 303 457 330 463 308 459 327 467 304 458 319 467 304 459 309 464 303 458 298 460 306 466 297 461 306 466 298 460 "/>
    <path id="Block1Jump5"
        fill="none"
        stroke="#000000"
		stroke-width="2px"
		d="M 239 175 L 225 179 239 174 226 180 239 175 225 180 211 175 217 163 230 155 219 155 233 158 208 159 218 160 237 163 228 163 198 163 206 164 238 167 216 167 190 167 229 170 239 171 204 172 183 172 217 174 239 175 216 175 183 176 194 177 229 179 239 179 205 180 183 180 183 172 213 179 218 180 248 175 253 174 252 166 248 162 255 164 245 166 264 170 242 170 255 172 264 174 251 174 242 174 264 178 242 178 242 171 265 202 276 235 288 264 299 293 310 322 319 344 327 365 322 357 329 357 320 353 330 353 318 349 331 349 316 345 324 345 332 345 321 343 314 341 332 341 312 337 333 337 309 333 324 333 335 333 316 330 307 329 334 329 327 328 305 325 312 325 338 325 303 321 324 321 340 321 314 319 300 318 335 317 342 317 325 316 297 314 312 314 343 313 337 313 302 310 295 310 324 309 345 309 313 307 293 306 300 306 335 305 346 305 324 304 290 302 312 302 345 301 336 300 301 299 288 298 324 297 349 297 313 295 285 294 300 294 335 293 350 293 324 292 289 290 283 290 312 290 347 289 336 288 301 287 281 286 288 286 323 285 351 285 312 283 278 282 300 282 335 281 349 281 324 280 289 279 276 278 311 278 346 277 336 277 301 275 273 274 288 274 323 273 346 273 312 272 277 270 271 270 300 270 335 269 344 269 324 268 289 267 268 266 276 266 311 265 342 265 335 265 300 263 266 262 288 262 323 261 339 261 312 260 277 259 264 258 299 258 334 257 323 257 288 255 261 254 276 254 311 253 335 253 300 252 265 250 259 250 288 250 323 249 333 249 312 248 277 247 256 246 264 246 299 245 330 245 323 245 288 243 254 242 276 242 311 241 328 241 300 240 265 239 252 238 288 238 323 237 311 237 276 235 249 234 264 234 299 233 322 233 288 232 253 230 247 230 276 230 311 229 320 229 300 228 265 227 244 226 252 226 287 225 317 225 311 225 276 224 242 223 264 222 299 221 314 221 288 220 253 219 239 219 275 218 308 217 299 217 264 216 237 215 252 215 287 214 308 213 276 212 241 211 235 211 264 210 299 209 305 209 287 209 252 208 232 207 240 207 275 206 301 205 264 204 232 203 252 203 287 202 297 202 276 201 241 199 232 199 263 199 294 198 301 206 296 202 266 199 244 198 214 201 191 203 165 221 146 234 129 259 112 283 98 309 90 338 82 367 74 396 75 422 76 452 78 482 75 510 69 539 57 560 41 585 49 581 42 577 53 577 43 573 48 573 55 573 45 569 58 569 50 566 61 565 50 561 63 561 52 557 60 557 66 557 54 553 68 553 61 551 56 549 71 549 59 545 74 544 61 541 71 540 76 540 63 537 79 536 72 535 65 533 82 532 67 529 85 528 70 525 83 524 72 521 88 520 83 519 70 517 88 516 70 513 82 512 87 512 72 510 88 508 83 507 69 505 88 504 69 501 82 500 88 500 71 498 89 496 83 495 68 493 89 492 68 489 82 488 89 488 71 486 89 484 82 484 67 482 89 481 67 478 82 477 89 477 71 475 89 473 82 472 67 470 89 469 66 466 81 465 88 465 71 463 66 462 88 461 82 460 66 458 88 457 65 454 81 453 88 453 70 451 65 450 88 449 82 448 65 446 87 445 65 442 81 441 87 441 70 439 64 438 87 437 82 436 64 434 69 434 87 433 64 430 81 429 87 429 70 427 64 426 86 425 81 424 63 422 69 422 86 421 63 418 81 417 86 417 70 415 63 414 86 413 81 412 62 410 69 410 86 409 62 406 80 405 86 405 70 403 62 402 85 401 62 398 68 398 85 397 61 394 80 393 85 393 69 391 61 390 85 389 61 386 68 386 85 385 61 382 80 381 69 379 84 377 64 374 84 373 60 370 80 369 86 369 69 367 60 366 88 365 80 364 61 362 68 362 90 361 62 358 80 357 92 357 69 355 62 354 91 353 80 352 63 350 68 350 95 349 64 346 79 346 97 345 68 342 91 341 99 341 80 339 66 338 101 337 91 336 67 334 79 334 103 333 68 330 91 329 106 329 79 327 69 326 102 325 108 325 91 324 71 322 79 322 110 321 103 320 72 317 90 317 112 317 80 314 74 313 102 313 114 313 91 311 75 309 114 309 103 308 77 305 90 305 119 305 114 305 79 301 102 301 121 301 91 298 81 297 114 297 124 297 103 295 83 293 90 293 124 293 114 292 84 289 102 289 129 288 91 285 113 284 131 284 102 282 89 281 125 280 134 280 114 279 91 277 101 277 136 276 125 275 93 273 113 273 139 272 102 269 96 269 125 268 142 268 114 266 98 265 136 264 145 264 125 263 101 261 113 261 148 260 137 259 104 257 124 257 151 256 113 253 107 253 136 252 154 252 125 250 109 249 148 248 157 248 137 247 113 245 124 245 158 244 148 243 116 241 136 241 164 240 125 237 119 237 148 236 167 236 136 234 123 233 159 232 170 232 148 231 126 229 135 229 170 228 160 227 130 224 147 224 182 224 171 223 136 220 159 220 194 219 183 218 148 217 138 216 170 216 204 215 194 215 159 213 142 212 147 212 182 211 210 211 171 209 164 208 194 208 218 207 203 205 188 205 163 204 170 204 205 203 240 203 275 202 297 202 264 202 229 201 194 201 162 200 182 200 217 199 252 199 287 198 294 198 275 198 240 197 205 197 170 196 160 196 193 196 228 195 263 194 290 194 252 193 217 193 182 192 161 192 170 192 205 191 240 191 275 190 286 190 264 190 229 189 194 189 164 188 182 188 217 187 252 187 282 186 275 186 240 185 205 185 170 184 193 184 228 183 263 182 278 182 252 182 217 181 182 180 172 180 205 179 240 179 274 178 264 178 229 177 194 176 177 176 216 175 251 174 269 174 251 174 239 175 251 175 239 176 251 174 239 175 "/>
    <path id="Block1Jump6"
        fill="none"
        stroke="#000000"
		stroke-width="2px"
		d="M 169 272 L 160 269 169 271 160 268 173 267 185 238 206 220 205 227 193 223 202 230 189 226 200 233 184 228 198 237 180 231 185 233 196 240 176 233 193 244 173 237 182 241 191 247 171 241 189 250 170 244 179 248 188 254 168 248 187 258 167 252 176 256 185 261 165 256 184 265 164 260 173 263 183 269 162 263 183 273 161 267 171 270 182 277 161 272 171 283 175 313 177 342 178 371 179 387 163 412 160 417 160 410 166 412 162 406 169 409 163 403 172 406 165 400 177 401 167 396 179 397 169 393 182 393 170 389 185 389 172 386 185 385 174 382 185 381 174 378 185 377 173 374 184 373 173 370 184 369 173 365 184 365 173 361 184 361 172 357 184 357 172 353 184 353 172 349 184 349 171 344 183 344 171 340 183 340 170 336 183 336 170 331 183 332 169 327 183 328 169 323 183 324 168 318 182 320 168 314 182 316 166 309 182 312 165 305 182 307 174 305 164 300 182 303 163 296 182 299 176 297 163 291 182 295 162 287 181 291 162 282 169 285 181 287 162 278 181 283 162 274 171 277 182 279 161 269 169 272 160 269 169 271 160 268 159 273 "/>
    <path id="Block1Jump7"
        fill="none"
        stroke="#000000"
		stroke-width="2px"
		d="M 1 853 L 15 826 29 799 41 772 46 742 51 712 56 683 64 653 71 624 84 597 99 571 115 545 133 521 142 504 142 494 162 472 182 450 196 443 224 433 253 423 281 413 310 403 326 394 335 385 328 380 340 396 341 401 324 380 341 408 331 393 320 381 323 386 339 412 315 382 332 405 336 415 324 398 311 382 317 391 332 417 314 391 307 383 324 409 329 418 318 402 302 384 310 396 325 419 305 392 298 385 317 411 321 421 311 407 294 385 304 400 317 422 297 393 289 386 309 414 313 423 305 412 285 387 298 405 309 424 290 398 281 388 301 416 306 426 299 416 276 389 291 409 302 427 284 403 272 390 276 396 298 428 292 421 268 391 285 414 294 429 277 407 264 392 270 400 290 431 286 426 267 400 259 393 279 419 286 432 271 412 255 394 263 405 282 433 258 402 251 395 272 424 279 434 265 417 246 396 257 410 275 436 250 404 242 397 266 428 271 437 259 422 238 398 251 415 267 438 243 408 234 399 258 430 263 439 253 427 229 400 245 420 259 441 237 414 225 401 229 407 250 433 255 442 247 431 221 402 239 425 251 443 231 418 217 403 223 412 243 435 247 445 241 436 220 411 212 404 233 430 244 446 225 423 208 406 217 417 240 447 235 441 212 413 204 407 227 435 236 448 219 428 200 408 211 422 232 450 229 446 203 415 195 409 221 440 228 451 213 434 191 410 205 427 224 452 197 421 187 412 215 445 220 454 207 439 183 413 199 432 216 455 191 426 179 415 183 420 207 447 212 456 201 444 175 416 193 437 208 458 185 431 173 420 177 425 199 450 204 459 195 449 173 426 187 443 200 460 173 432 196 461 189 454 172 438 181 448 192 463 172 443 189 465 183 459 159 433 175 453 187 467 167 447 154 436 159 441 185 470 179 464 152 439 170 458 183 472 162 452 149 442 154 447 181 475 174 469 147 445 166 463 179 477 157 458 144 449 148 453 177 480 170 474 142 452 161 469 175 482 152 464 140 455 173 484 165 479 138 459 156 474 171 487 147 469 135 462 169 489 161 484 133 465 152 480 167 492 143 476 131 469 165 495 157 489 129 472 148 485 163 497 139 482 127 476 161 500 153 495 125 479 144 491 160 503 134 487 123 483 158 506 150 501 128 490 140 497 156 509 134 497 154 512 146 507 137 500 152 516 141 506 150 519 141 508 147 523 135 501 145 527 140 515 136 505 142 531 134 498 140 535 136 517 129 497 131 508 138 538 129 506 125 496 134 528 136 541 130 519 121 496 125 510 135 544 133 539 123 508 118 499 128 530 133 546 123 521 115 504 118 513 132 548 129 541 113 509 124 532 131 551 118 524 111 513 126 543 129 553 124 543 108 517 118 535 128 555 113 529 106 521 122 548 127 557 119 546 104 526 113 539 125 559 102 530 124 561 115 550 100 533 108 543 123 563 98 537 122 565 111 554 96 541 103 548 120 567 94 545 119 569 107 559 92 548 98 554 118 571 90 552 117 573 103 564 88 556 94 560 116 575 86 559 114 578 100 570 84 563 90 567 112 582 83 566 110 585 96 577 81 570 86 573 108 588 79 574 106 592 92 584 77 577 82 580 104 595 75 581 102 599 87 591 73 584 78 587 100 602 71 588 97 606 84 598 70 592 74 595 95 609 68 595 93 613 80 604 66 599 70 602 91 616 64 602 89 620 76 611 62 606 66 609 87 623 60 610 85 626 72 619 58 613 62 616 83 630 57 617 81 633 67 626 55 620 79 637 53 624 77 640 63 633 54 629 75 644 57 636 74 648 51 636 74 651 49 640 73 655 48 644 72 658 48 648 63 656 71 662 47 653 71 665 47 657 60 663 70 669 46 661 69 672 46 665 57 670 68 676 46 670 67 679 45 674 54 677 67 683 45 678 66 686 44 682 52 685 65 690 44 686 64 693 44 690 51 692 64 697 43 694 63 701 43 698 49 700 62 704 42 702 61 708 42 706 48 708 60 712 42 710 59 716 41 714 46 715 58 720 41 718 58 724 41 722 57 728 40 726 56 732 40 730 55 736 40 734 54 740 39 738 53 744 39 742 52 748 38 746 51 752 38 750 50 756 38 754 49 761 37 758 49 765 37 762 48 769 37 766 48 773 35 770 48 778 33 773 48 782 32 777 46 786 30 780 44 789 28 784 42 793 27 787 40 797 25 791 37 800 23 794 35 804 21 798 33 807 20 801 31 811 18 805 29 814 16 808 26 818 14 812 24 821 13 816 22 825 11 819 20 828 9 823 17 832 7 826 15 835 6 830 13 839 4 834 11 842 2 837 8 846 2 840 6 849 1 844 0 851 3 846 "/>
    <path id="Block1Jump8"
        fill="none"
        stroke="#000000"
		stroke-width="2px"
		d="M 378 296 L 377 303 377 296 378 303 378 296 372 289 390 274 416 258 409 261 409 266 401 265 406 269 398 266 401 270 394 268 399 273 390 270 396 276 386 272 392 278 382 274 389 280 379 277 385 283 375 279 382 285 372 282 379 288 369 285 376 291 366 288 376 300 363 291 370 299 363 299 349 326 346 349 354 357 355 344 373 333 365 333 369 340 362 334 365 345 357 335 362 349 353 335 359 352 349 337 356 356 345 339 352 359 349 352 341 340 354 358 345 362 351 379 370 367 362 368 366 373 358 368 362 379 353 368 360 383 349 371 357 386 346 372 351 379 354 412 358 406 350 407 358 401 347 402 358 397 345 398 358 393 344 394 358 389 342 390 358 386 341 386 357 382 340 382 356 378 339 378 355 374 339 374 353 370 338 370 352 367 338 366 352 364 337 362 353 361 337 357 354 357 338 353 354 354 338 349 353 350 338 345 353 346 339 341 352 342 340 337 352 338 341 333 352 334 349 325 363 306 373 301 382 302 380 297 380 303 376 296 377 306 372 294 374 308 367 293 372 309 362 292 370 311 359 295 368 312 356 299 366 314 354 302 364 316 352 306 361 318 350 310 359 320 348 313 358 323 346 317 356 325 345 321 354 328 343 325 353 331 342 329 352 334 341 333 352 334 341 331 352 333 341 332 352 334 401 387 398 399 391 403 401 403 390 399 407 399 402 398 389 395 406 395 391 391 404 391 438 406 428 414 420 418 431 418 420 414 437 414 432 413 419 410 438 410 422 406 437 405 422 405 437 404 422 406 437 405 "/>
    <path id="Block1Jump9"
        fill="none"
        stroke="#000000"
		stroke-width="2px"
		d="M 549 48 L 559 51 549 49 559 50 549 48 571 53 592 47 610 67 613 96 616 124 616 151 610 179 605 207 600 235 581 257 563 279 547 297 548 319 548 341 540 369 528 388 510 406 494 421 480 430 467 426 464 422 467 426 463 449 441 450 449 449 473 445 447 446 460 444 480 441 451 441 472 439 487 437 460 437 455 437 483 434 493 433 471 433 458 433 495 430 483 429 461 429 472 428 505 425 495 425 463 425 470 425 475 423 484 424 504 414 523 393 539 374 546 345 549 323 545 302 545 297 564 280 582 257 600 233 605 212 610 183 615 154 617 125 613 96 610 67 600 43 575 24 592 23 583 25 564 27 593 27 571 31 556 32 581 32 600 31 594 32 559 35 548 36 570 36 602 35 582 37 547 40 541 40 558 40 593 40 605 39 570 42 535 44 546 44 581 44 607 43 611 74 614 104 618 135 613 166 607 196 602 226 591 246 573 271 551 292 545 314 550 338 541 368 522 400 510 421 483 421 495 419 515 417 489 417 507 414 519 413 495 413 518 409 523 409 506 409 493 409 528 405 518 405 496 405 507 404 531 400 498 401 518 399 535 396 506 397 500 397 530 393 538 392 517 393 503 393 541 388 529 389 505 389 518 388 543 384 523 384 530 383 546 380 526 380 542 377 548 376 529 376 550 372 540 372 530 372 552 368 530 368 542 366 553 364 531 364 553 361 540 360 531 360 556 356 531 356 542 355 557 352 531 352 553 349 540 348 535 348 557 344 551 344 541 344 558 340 544 340 556 337 545 336 558 332 551 332 545 332 557 328 544 328 556 324 543 324 556 320 551 320 542 320 554 316 542 316 553 312 541 312 551 308 540 308 547 304 539 304 546 300 539 300 551 296 543 296 555 292 547 292 556 289 551 288 565 284 554 284 570 280 563 280 558 280 574 275 562 276 579 272 566 271 577 269 583 268 569 267 586 263 575 263 589 259 576 259 592 255 580 255 589 253 595 251 583 251 598 247 586 247 601 243 589 243 603 239 591 239 602 236 594 235 607 231 598 231 609 227 595 227 601 226 611 223 596 223 613 219 597 219 613 215 608 215 598 215 613 211 599 211 613 207 600 207 614 203 607 203 601 203 615 199 602 199 614 196 603 195 618 191 607 191 619 187 605 187 613 185 620 183 606 183 622 179 607 179 623 175 607 175 613 174 624 171 608 171 624 167 609 167 625 163 619 163 610 163 626 159 611 159 625 155 612 155 627 151 618 151 612 151 627 147 613 147 626 143 610 143 627 139 618 139 609 139 627 135 609 135 623 132 609 131 627 127 618 127 608 127 627 123 608 123 623 119 608 119 622 115 607 115 613 113 622 111 607 111 622 107 607 107 621 103 607 103 614 101 621 99 606 99 620 95 606 95 620 91 606 91 614 88 619 87 606 87 619 83 607 83 618 79 605 79 615 76 605 75 617 71 605 71 616 67 604 67 616 63 601 63 615 59 605 59 598 59 613 55 596 55 611 51 595 51 609 47 593 47 600 45 607 43 593 43 605 39 593 39 592 47 571 53 549 48 523 62 498 76 478 96 462 119 446 143 436 166 428 194 424 225 424 250 420 246 425 242 419 242 426 238 419 238 427 234 419 234 428 230 421 230 428 226 418 226 429 222 418 222 430 218 421 218 430 214 418 214 431 210 418 210 431 206 421 206 432 202 419 202 432 198 419 198 430 195 421 194 433 190 420 190 434 186 421 186 432 183 421 182 437 178 432 178 422 178 439 174 424 174 432 172 441 170 425 170 443 166 432 166 427 166 444 162 428 162 445 158 430 158 443 155 432 154 448 150 443 150 434 150 449 146 436 146 444 144 451 142 438 142 453 138 443 138 454 134 443 134 457 130 445 130 455 127 448 125 462 122 454 121 464 118 453 117 467 114 455 113 467 110 458 109 473 105 466 105 461 105 482 101 477 101 464 101 487 97 467 97 478 96 491 93 471 93 489 90 495 89 477 89 499 85 489 85 479 85 503 81 483 81 490 80 507 77 488 77 501 74 511 73 492 73 513 69 500 69 522 65 512 65 503 65 528 60 523 60 508 60 513 60 534 56 514 56 524 55 541 52 521 52 536 50 548 48 527 48 538 49 549 48 561 53 574 60 559 60 591 55 581 56 556 56 571 54 592 51 558 52 553 52 582 49 592 47 570 48 549 48 559 49 549 49 559 48 549 48 "/>
    <path id="Block1Jump10"
        fill="none"
        stroke="#000000"
		stroke-width="2px"
		d="M 777 202 L 770 194 778 201 770 195 777 202 768 186 771 180 777 180 762 169 778 186 772 180 760 172 778 192 757 174 777 198 765 186 754 177 777 202 751 180 758 198 737 220 715 240 691 259 667 277 640 291 613 305 587 319 569 327 564 337 562 343 560 330 562 336 567 347 561 326 559 315 572 347 561 308 569 333 576 346 568 323 564 307 566 313 579 345 567 305 576 331 583 344 575 321 571 303 574 310 587 342 574 302 584 328 591 341 582 318 577 300 580 308 595 340 593 335 581 299 591 325 598 338 589 315 584 297 587 305 602 337 600 332 587 296 598 322 606 336 596 312 591 294 595 302 610 334 608 329 594 292 605 319 613 333 603 310 597 291 601 300 617 331 615 326 600 289 613 316 621 329 610 306 604 288 608 296 624 327 607 286 620 313 628 326 617 303 610 285 614 293 631 324 613 283 626 310 635 322 624 300 617 281 621 290 638 320 620 280 634 306 642 318 631 296 623 278 628 287 645 316 627 277 641 303 649 314 637 293 630 275 634 283 652 312 633 274 647 299 656 310 644 289 636 272 640 280 659 308 639 270 654 295 662 306 651 285 643 268 648 276 666 303 646 266 661 291 669 301 657 282 649 264 654 272 672 299 652 262 667 287 676 297 664 278 655 260 660 268 679 294 658 258 674 283 682 292 670 273 661 256 666 264 685 290 664 254 681 278 689 287 677 269 667 252 672 260 692 285 670 250 687 274 695 282 683 265 673 248 678 256 698 280 676 246 694 269 701 277 689 260 679 244 684 251 704 275 682 242 700 265 707 272 695 256 685 240 690 247 711 270 688 237 706 260 714 267 701 251 691 235 697 242 717 264 694 233 712 255 720 262 707 247 697 231 702 237 723 259 699 228 726 256 713 241 702 226 708 233 729 254 705 223 731 251 719 237 708 221 714 228 734 248 710 218 737 245 725 231 713 216 719 223 740 243 716 213 743 240 730 226 719 211 725 217 746 237 721 208 749 235 736 221 724 206 730 212 752 232 727 203 755 229 742 215 729 201 736 207 758 226 732 198 760 223 747 210 735 196 741 202 763 220 738 193 765 217 752 204 741 190 747 196 768 214 744 187 771 211 758 199 747 184 753 190 773 207 750 182 775 204 764 193 752 179 764 193 775 204 768 196 776 203 768 197 775 204 "/>
    <path id="Block1Jump11"
        fill="none"
        stroke="#000000"
		stroke-width="2px"
		d="M 644 362 L 641 352 645 362 640 353 644 362 630 353 615 365 614 357 617 365 617 353 624 365 620 350 629 365 623 346 633 364 629 355 626 343 637 364 629 340 641 363 636 352 632 337 645 361 645 342 666 320 688 299 710 279 733 259 737 255 734 261 731 256 731 264 728 259 728 267 724 261 725 271 722 265 722 274 718 266 719 277 716 270 716 280 711 272 713 283 708 274 710 285 703 278 707 284 707 289 700 281 704 291 697 283 701 294 694 286 698 298 690 288 695 301 687 291 692 305 684 293 686 298 689 308 681 296 686 311 677 299 684 315 674 301 681 318 679 313 671 304 678 322 668 306 675 325 671 317 665 309 672 328 661 311 669 332 658 314 666 335 655 316 663 339 652 319 661 342 649 321 658 345 645 324 655 349 642 327 648 340 652 352 639 330 649 356 647 351 636 332 641 343 646 359 633 335 643 362 641 352 645 362 640 353 644 362 "/>
    <path id="Block1Jump12"
        fill="none"
        stroke="#000000"
		stroke-width="2px"
		d="M 745 500 L 729 501 745 499 729 502 745 500 737 504 741 527 746 556 747 585 746 614 745 628 743 644 749 673 754 703 756 710 752 706 756 701 751 701 756 696 750 697 755 692 749 692 755 687 748 688 755 683 747 684 754 679 746 679 754 675 745 675 753 672 744 671 753 668 744 667 751 665 743 663 751 661 742 659 749 658 741 655 750 654 740 651 747 651 739 647 749 647 738 642 748 641 740 640 747 637 739 634 746 633 745 628 753 648 757 642 750 647 758 637 745 644 758 634 742 641 758 632 739 637 756 631 748 633 736 634 758 628 736 630 759 623 747 625 736 626 759 619 736 622 760 615 736 618 760 611 735 615 761 606 735 611 761 602 735 607 751 602 761 598 735 603 762 593 735 599 749 595 762 589 734 595 762 584 756 586 734 591 746 587 762 580 734 588 762 576 754 578 734 584 744 580 762 572 734 580 762 567 751 571 733 576 741 573 762 563 733 572 761 559 748 564 733 568 738 566 761 555 733 564 761 550 745 557 733 560 760 546 732 556 752 547 760 542 742 550 732 552 760 537 732 548 748 540 759 533 732 544 759 529 731 540 745 533 758 525 731 536 757 520 751 523 731 532 741 526 756 516 730 528 755 512 747 516 730 524 738 520 754 509 730 520 751 505 743 509 729 516 734 513 748 502 729 511 745 500 739 503 729 507 742 496 728 503 740 493 726 499 738 497 733 469 724 440 719 428 708 418 679 410 650 402 621 394 592 386 564 378 558 367 552 377 563 366 552 384 555 380 568 366 562 373 553 389 573 366 556 393 561 385 578 366 569 378 559 396 582 366 563 397 568 390 586 367 575 382 566 398 582 375 589 367 570 400 574 394 593 368 581 386 574 401 588 379 596 368 578 402 581 398 600 369 587 390 582 404 594 382 603 369 600 374 586 405 607 370 594 394 590 406 601 386 610 371 606 377 593 408 614 371 601 397 597 409 606 389 617 372 613 380 601 410 615 381 620 372 607 400 605 412 614 392 623 373 619 383 609 413 621 382 627 374 615 403 612 414 620 394 630 374 625 386 616 415 628 383 633 375 622 406 620 417 627 397 636 376 632 388 624 418 635 385 639 377 629 408 628 419 634 399 642 377 638 390 631 421 641 387 645 378 636 410 635 422 641 401 648 379 645 392 639 424 647 389 651 380 644 412 643 425 648 403 654 381 651 393 646 427 654 391 657 382 651 413 650 428 655 404 660 383 658 394 654 430 655 424 660 393 664 384 659 415 658 432 662 405 667 385 665 396 662 433 663 425 667 395 670 386 666 416 665 435 668 406 673 387 672 396 668 426 669 436 670 426 676 388 673 416 673 438 675 407 679 389 678 397 676 429 677 440 678 427 682 390 680 417 681 441 682 407 685 391 685 397 683 433 685 443 685 427 688 392 687 417 689 445 689 407 691 393 691 435 693 445 693 427 694 395 694 417 697 445 696 407 697 396 698 435 701 445 700 427 701 398 702 417 705 444 703 409 704 399 706 430 709 440 708 427 708 401 709 416 712 436 713 404 716 431 716 426 717 406 717 416 720 427 725 410 722 424 719 407 718 429 709 429 713 426 703 435 708 431 719 428 701 441 733 424 702 445 712 439 736 427 722 435 706 448 732 432 725 443 734 473 738 495 735 502 729 502 751 497 738 499 720 501 728 499 757 492 719 497 747 491 757 487 737 491 719 493 726 491 757 484 718 489 745 484 756 481 735 484 717 486 725 484 756 477 716 483 744 477 755 473 734 477 715 479 723 477 754 469 715 476 742 469 753 465 732 470 714 474 722 471 752 461 714 471 740 462 751 457 730 464 713 469 721 466 750 453 713 466 738 456 749 449 728 458 712 464 718 461 748 446 712 461 735 449 746 442 726 452 711 458 716 455 744 438 710 456 732 443 742 435 723 447 709 453 713 450 740 431 707 449 728 436 738 428 719 440 704 446 713 442 705 447 713 441 704 446 "/>
    <path id="Block1Jump13"
        fill="none"
        stroke="#000000"
		stroke-width="2px"
		d="M 513 180 L 504 184 513 179 504 185 513 180 514 193 502 221 493 247 497 242 495 237 501 235 496 233 504 231 497 228 506 227 497 225 508 224 499 219 510 220 499 216 512 216 500 213 514 212 501 209 518 208 501 206 522 204 501 203 520 200 500 201 519 196 499 198 517 192 498 196 514 191 489 174 476 170 470 178 458 206 449 235 444 252 449 250 444 250 450 246 444 246 451 243 444 242 452 239 444 238 453 235 445 233 454 231 446 229 455 227 446 223 456 224 447 219 458 220 448 215 459 216 449 211 461 213 450 207 462 209 452 203 463 206 453 199 465 202 454 195 466 198 456 191 468 195 457 187 470 192 459 183 472 189 460 180 475 186 462 176 478 183 463 172 479 181 465 168 475 176 467 164 480 182 469 160 480 180 475 170 472 156 480 178 476 156 481 181 479 169 480 158 482 178 484 160 482 181 488 162 484 182 492 164 486 183 495 166 488 184 499 169 489 185 502 171 491 187 505 173 492 188 509 176 494 190 512 179 495 191 514 182 496 193 515 186 497 195 517 190 499 197 513 193 514 186 508 181 513 194 519 205 512 180 522 204 516 180 520 191 550 188 559 189 566 196 555 224 542 252 528 278 525 283 527 277 530 281 529 273 533 277 530 269 535 274 532 265 538 270 534 261 540 267 535 257 544 262 537 253 546 258 539 250 548 255 540 246 550 251 542 243 553 248 543 239 555 244 545 235 557 240 546 232 558 237 548 228 560 233 549 225 562 229 550 221 564 226 551 218 566 222 552 214 568 218 554 211 569 215 555 207 571 211 556 204 572 207 557 200 573 203 559 200 574 199 557 199 575 194 559 198 576 190 564 194 577 184 558 197 573 182 561 192 568 180 556 198 564 178 556 196 559 178 557 187 555 198 555 177 555 195 551 178 551 185 551 198 547 178 548 198 543 178 544 186 544 198 539 178 540 198 535 178 536 187 537 198 531 179 533 198 527 179 529 189 530 200 522 179 527 201 518 179 521 191 524 203 514 180 524 203 514 202 524 202 514 203 524 203 "/>
    <path id="Block1Jump14"
        fill="none"
        stroke="#000000"
		stroke-width="2px"
		d="M 532 123 L 523 138 531 122 522 138 537 132 526 161 520 176 520 168 525 171 520 164 528 168 521 160 531 163 521 155 532 159 522 151 534 156 523 147 536 152 523 142 538 149 522 137 540 146 523 134 543 143 524 132 546 140 525 129 548 136 533 131 517 118 501 114 497 119 482 146 479 152 484 148 479 146 486 144 480 142 488 141 480 138 490 138 482 134 492 135 484 128 494 132 486 124 496 129 488 121 498 126 490 117 500 123 492 113 501 122 494 109 502 122 497 106 503 121 501 113 501 102 504 121 505 101 507 122 507 113 509 103 510 123 513 105 512 125 517 108 515 127 520 111 517 129 524 113 519 132 527 116 521 135 530 120 522 138 533 122 526 138 536 122 530 138 538 121 535 139 541 121 539 139 543 121 543 140 544 120 547 140 547 120 548 134 571 127 578 129 576 159 571 173 578 170 571 167 580 166 571 163 581 163 571 157 582 159 571 154 583 154 571 150 583 150 572 146 584 146 572 143 585 142 573 141 585 137 578 139 573 140 585 132 574 139 585 127 573 138 584 122 573 137 581 118 571 136 577 118 568 136 573 117 565 136 569 117 566 125 562 136 564 118 559 137 560 118 559 124 555 137 556 119 553 138 551 119 550 139 550 133 547 120 547 140 537 135 546 139 537 136 546 140 547 77 556 65 548 78 556 65 547 77 558 74 547 103 544 112 544 105 549 108 544 100 551 105 545 96 554 99 545 92 555 95 546 88 557 91 546 83 559 88 547 79 562 84 548 76 564 81 550 72 566 77 558 74 548 67 536 70 518 91 514 95 521 95 516 87 524 92 519 84 526 88 521 80 529 84 524 76 531 81 526 72 534 79 531 67 538 76 534 64 541 74 537 61 541 72 541 58 543 69 545 56 544 74 549 56 545 75 552 59 546 76 555 62 547 78 558 65 550 79 556 69 554 80 559 65 559 81 562 65 563 82 564 64 575 70 581 72 586 90 584 111 588 107 583 104 589 102 583 100 590 98 583 96 590 94 583 92 590 89 583 89 590 85 582 85 590 81 579 81 590 77 579 78 590 73 582 76 590 69 578 77 588 64 581 72 585 62 579 72 580 62 576 75 576 63 576 75 572 63 572 78 568 64 568 80 564 64 563 82 575 82 564 83 575 81 564 82 559 87 "/>
    <path id="Block1Jump15"
        fill="none"
        stroke="#000000"
		stroke-width="2px"
		d="M 383 263 L 391 250 387 220 384 190 381 160 377 130 379 100 382 69 387 40 391 21 409 0 412 5 405 0 411 9 396 0 410 14 392 2 399 8 409 18 388 3 408 23 385 5 395 13 407 25 402 20 381 7 407 27 378 10 391 18 407 29 399 24 375 13 406 31 372 16 388 24 406 35 396 30 370 20 405 38 369 23 385 31 404 42 393 37 368 27 395 40 404 45 368 31 382 38 403 49 391 43 367 36 394 48 403 53 366 40 379 45 402 56 388 50 366 44 393 56 402 60 365 48 377 52 401 63 385 57 365 52 401 67 364 56 374 59 400 70 383 64 363 60 400 74 363 64 372 67 399 77 381 71 362 68 390 76 399 81 362 72 369 74 398 85 378 79 361 76 388 83 398 88 361 80 367 82 398 92 377 86 360 84 386 90 397 95 360 88 366 89 397 99 375 93 359 92 384 97 397 102 358 96 364 97 396 106 373 101 358 100 383 105 396 109 358 104 396 113 372 108 358 108 381 112 396 116 391 115 358 112 396 120 371 116 358 116 380 119 396 123 390 122 357 120 395 127 370 123 357 124 380 127 395 130 389 129 357 128 395 134 369 131 358 132 379 134 395 137 389 136 358 136 395 141 368 139 358 140 378 142 395 145 388 144 358 144 395 148 358 148 378 149 395 152 388 152 359 152 396 155 359 156 378 157 396 159 388 159 359 160 396 162 360 164 378 164 396 166 388 166 360 168 396 169 361 172 378 172 396 173 388 173 361 176 397 176 362 180 379 179 397 180 389 180 362 184 397 183 363 188 379 187 398 187 389 188 363 192 398 191 364 196 380 194 399 194 390 195 365 200 399 198 365 204 381 202 399 201 391 202 366 208 400 205 367 212 383 209 400 208 393 209 368 216 400 212 368 220 384 217 401 216 394 217 369 224 401 219 370 228 386 224 402 223 396 224 371 232 402 226 372 236 387 232 402 230 373 240 403 234 374 244 390 239 403 237 375 248 404 241 376 252 392 247 404 245 377 255 400 250 380 259 390 258 385 264 "/>
    <path id="Block1Jump16"
        fill="none"
        stroke="#000000"
		stroke-width="2px"
		d="M 252 140 L 262 137 252 141 262 138 256 149 260 155 279 138 272 131 266 134 280 128 261 143 285 130 272 138 260 148 289 132 259 154 267 149 292 134 277 145 296 168 316 190 334 214 348 241 362 267 368 278 375 271 358 280 376 266 354 275 375 262 352 272 373 259 350 268 372 255 347 265 370 251 345 261 369 247 343 258 359 250 367 244 341 254 365 240 339 251 356 243 364 236 337 248 362 232 335 244 352 235 360 229 333 241 359 225 331 237 348 229 357 221 338 232 329 234 355 218 327 231 344 222 353 214 334 225 325 227 351 211 323 224 340 214 350 207 331 218 320 221 348 203 318 218 336 208 346 200 327 211 315 215 344 196 313 212 332 201 342 193 323 204 310 209 340 189 308 205 328 194 338 186 319 197 305 202 336 183 303 199 324 187 333 179 315 190 300 196 305 193 331 176 298 193 320 180 329 173 311 184 295 191 301 188 326 169 292 188 316 173 324 166 307 177 290 185 297 181 321 163 287 182 319 160 302 170 284 179 293 174 316 157 290 173 281 177 306 161 314 154 298 163 278 174 289 167 311 151 284 168 275 172 301 155 308 148 294 157 272 169 284 161 305 145 278 163 268 167 295 150 302 142 289 151 265 164 280 154 299 140 271 158 262 162 288 144 296 137 285 144 258 159 275 148 292 134 259 154 289 135 260 155 251 152 261 145 245 150 262 140 240 147 262 138 241 142 262 135 242 137 262 133 243 133 262 131 250 131 255 121 250 121 261 123 245 123 262 127 243 128 262 131 253 131 243 133 252 132 250 139 256 141 249 151 239 152 242 147 245 157 246 145 250 157 250 143 254 158 254 141 255 147 258 159 258 140 263 149 267 159 265 138 264 159 263 150 261 139 260 159 256 141 248 134 249 122 254 142 245 123 252 143 247 134 241 125 251 143 238 127 249 144 243 137 235 130 247 145 232 132 245 145 239 141 229 135 242 146 226 139 238 147 227 146 235 148 225 141 241 147 239 156 238 148 240 156 239 148 "/>
    <path id="Block1Jump17"
        fill="none"
        stroke="#000000"
		stroke-width="2px"
		d="M 321 158 L 326 158 321 159 326 159 322 147 323 123 334 95 346 67 358 39 365 28 360 28 363 35 357 30 363 40 353 35 362 43 351 39 361 47 349 42 360 51 346 46 360 55 354 52 344 49 359 59 342 52 358 63 350 59 340 56 358 67 338 59 357 70 347 66 335 63 356 74 333 66 356 77 344 73 331 70 355 81 329 74 354 84 341 80 327 77 353 87 325 81 352 90 339 87 323 85 329 86 350 93 322 88 349 96 337 94 320 92 327 94 348 100 318 96 346 103 336 101 316 100 326 101 345 106 315 103 344 109 335 108 313 107 325 109 342 112 312 111 341 115 334 115 310 115 324 116 339 119 309 119 338 122 307 123 323 124 337 125 307 127 336 129 308 131 323 131 335 132 308 135 333 136 309 139 332 140 311 143 331 144 313 147 329 148 315 151 328 152 319 155 324 154 326 159 321 158 326 158 321 159 326 159 " />
</svg>
