<?xml version="1.0" encoding="UTF-8" standalone="no"?>
<svg xmlns="http://www.w3.org/2000/svg" version="1.1" width="1675" height="975">
    <path id="Block1Jump0"
        fill="none"
        stroke="#0E1F7C"
		stroke-width="2px"
		d="M 541 361 L 558 373 577 382 593 386 607 383 620 376 632 363 644 346 657 329 667 311 672 292 673 271 671 250 666 229 657 210 644 193 629 178 612 166 593 156 573 148 560 138 550 122 545 107 545 89 549 73 556 63 567 56 587 51 608 52 628 57 648 65 649 71 646 72 641 79 637 80 621 71 599 67 583 68 569 72 562 79 558 90 559 105 565 118 576 130 594 140 614 148 633 159 649 173 663 190 674 208 681 229 684 250 686 272 685 294 682 315 673 334 661 351 648 369 635 386 622 398 606 404 593 406 574 401 555 392 538 381 523 366 511 349 501 334 498 323 499 314 498 305 501 306 501 302 505 303 512 301 516 302 526 320 540 337 556 351 575 362 590 366 601 364 613 358 625 344 638 326 650 309 657 292 660 273 658 252 651 232 640 214 625 198 609 184 591 173 571 165 555 155 544 142 535 123 530 104 532 84 538 65 547 52 559 42 579 35 598 34 619 37 639 44 646 47 648 53 649 59 652 61 648 65 649 71 648 65 628 57 607 52 586 51 566 57 555 64 549 75 544 93 546 110 552 126 563 140 577 150 597 158 616 168 632 181 647 196 659 214 667 234 672 255 673 276 671 298 665 315 654 333 641 350 629 367 617 378 603 385 591 386 573 380 554 371 537 358 523 342 512 324 501 306 494 310 496 307 508 297 496 307 502 301 496 329 525 314 512 355 539 333 531 378 555 348 554 394 572 358 580 405 590 364 607 406 606 360 630 394 619 349 649 371 633 329 666 348 647 311 681 324 654 295 687 295 658 279 688 266 657 259 685 237 651 239 677 209 643 221 662 185 630 206 642 164 613 189 619 148 591 175 594 138 565 164 574 125 543 145 564 113 531 119 561 103 529 91 560 90 536 64 566 77 555 43 581 71 581 33 598 69 609 33 618 73 636 41 641 83 650 48 644 81 645 64 618 54 589 51 561 59 548 77 545 106 556 133 578 150 605 162 629 178 649 199 664 224 671 252 673 281 668 308 655 331 639 353 622 374 601 385 575 381 551 369 531 351 515 329 501 306 494 310 505 298 492 317 511 295 491 322 515 295 492 327 517 295 492 330 520 297 494 334 522 299 495 337 523 302 497 339 525 305 499 342 526 308 501 345 527 311 502 348 529 313 504 350 530 315 506 353 531 317 508 356 533 319 510 359 534 321 512 361 536 323 514 364 537 325 516 367 539 327 518 369 541 329 520 372 542 331 522 374 544 333 524 377 546 334 526 379 547 336 529 381 549 338 531 383 550 339 534 385 552 340 536 387 553 342 539 389 555 343 541 391 557 344 544 393 558 345 547 394 560 347 549 396 562 348 552 397 563 349 555 399 565 350 558 400 567 351 561 402 568 352 563 403 570 353 566 404 572 354 569 405 574 354 572 406 576 355 575 407 578 356 578 408 580 357 581 409 581 358 584 410 583 359 587 411 585 359 590 411 587 360 593 412 589 360 596 412 591 360 599 412 593 360 602 411 595 360 605 411 598 368 608 410 598 359 611 409 602 369 614 408 601 358 616 407 606 369 619 406 604 357 622 405 608 364 624 403 607 355 627 401 613 365 630 400 609 353 632 398 615 361 634 396 612 351 637 393 613 350 639 391 614 348 641 389 615 347 643 386 617 345 645 383 618 343 647 381 620 341 648 378 622 339 650 376 623 336 652 373 625 334 654 370 626 332 656 368 628 330 658 365 629 328 660 362 631 326 662 360 632 324 664 357 634 322 666 355 635 320 667 352 637 318 669 350 638 316 671 347 640 314 673 345 641 312 675 342 643 310 677 339 644 309 678 337 644 307 680 334 645 306 682 331 646 304 683 328 647 302 684 325 648 301 686 322 649 299 687 319 649 297 688 316 650 296 689 313 660 298 689 310 651 293 690 307 658 293 690 303 652 290 691 300 660 290 691 297 653 286 691 293 659 286 691 290 653 283 692 287 682 286 673 284 673 267 671 250 667 233 661 217 652 203 641 189 629 178 615 168 600 159 584 153 569 145 556 133 548 118 544 103 545 87 550 72 558 62 572 54 587 51 603 51 618 54 633 59 648 65 653 55 648 77 652 46 643 85 649 42 640 87 647 40 637 86 645 39 634 85 642 39 631 83 639 38 629 81 636 37 627 80 633 35 624 79 630 34 622 78 627 34 620 77 624 33 618 77 621 32 615 76 618 31 613 75 615 30 611 75 612 30 609 75 609 29 606 74 605 29 604 74 602 29 602 74 599 28 600 74 596 28 599 73 593 28 596 66 590 28 595 73 587 28 594 73 584 28 592 73 580 29 590 73 577 29 589 73 574 30 584 65 571 31 586 74 568 32 581 68 565 33 582 75 562 34 581 75 559 36 579 75 557 37 577 75 554 39 576 76 551 40 568 68 549 42 573 77 546 44 571 78 544 46 570 78 541 49 569 80 539 51 568 81 537 54 567 82 536 57 566 84 534 60 559 80 533 63 565 86 531 66 556 83 530 69 564 89 529 72 558 87 528 75 564 92 527 78 555 90 526 81 564 94 526 85 556 93 525 88 564 97 525 91 558 97 524 94 564 99 524 98 555 100 524 101 564 102 524 104 558 103 525 108 565 104 525 111 556 106 526 114 565 105 526 117 559 108 527 120 566 107 528 124 557 112 529 127 566 109 531 130 561 113 532 133 567 110 533 136 561 116 535 139 568 112 537 141 563 117 538 144 569 113 540 147 562 122 542 150 570 115 544 152 567 122 546 155 572 118 548 157 574 120 551 159 576 122 553 161 578 124 556 163 580 125 558 165 582 127 561 166 584 128 564 168 586 130 567 169 588 131 569 171 591 132 572 172 593 133 575 173 595 134 578 174 598 135 581 175 600 136 584 177 603 137 587 178 605 138 589 179 608 139 592 181 611 140 594 182 614 141 597 183 617 143 599 185 620 144 602 186 622 145 604 188 625 147 606 189 628 148 608 191 630 150 611 193 633 152 613 195 635 153 615 196 638 155 617 198 640 157 619 200 643 159 621 202 645 161 623 204 647 163 624 205 650 166 626 207 652 168 627 208 654 170 629 210 656 172 630 211 659 175 631 213 661 177 633 215 663 179 634 216 665 182 635 218 667 184 637 220 668 187 638 221 670 189 639 223 672 192 640 225 674 195 641 227 675 198 642 228 677 200 643 230 678 203 644 232 680 206 645 234 681 209 646 236 682 212 647 238 683 215 647 240 684 218 648 242 685 222 649 244 686 225 649 246 687 228 650 248 687 231 651 250 688 234 651 252 689 238 652 254 689 241 652 256 690 244 653 258 690 247 653 260 691 251 654 262 691 254 654 264 691 257 654 266 691 260 654 268 691 264 654 270 692 267 654 272 692 270 654 274 692 274 654 276 692 277 654 278 692 280 654 280 692 283 654 282 692 287 682 286 672 284 682 286 692 287 731 287 736 285 741 282 736 285 731 287 741 282 744 265 745 247 745 230 749 213 757 197 768 183 779 171 793 160 809 152 826 148 843 150 859 156 874 166 886 178 896 193 905 208 910 224 912 242 909 259 903 275 898 292 892 308 885 325 877 340 867 354 855 367 841 377 825 380 808 376 792 368 779 356 769 342 759 327 740 338 743 355 741 373 738 391 736 410 735 428 736 446 738 465 741 482 746 499 745 494 752 480 753 467 749 445 748 424 749 402 752 380 756 359 753 350 745 329 737 309 736 312 733 308 732 328 730 347 729 365 727 383 724 402 723 420 722 439 723 457 726 475 732 489 742 501 744 497 740 476 737 457 735 438 736 418 737 399 740 379 742 366 742 347 738 328 735 309 728 295 728 283 733 262 733 240 733 218 739 200 750 182 763 164 778 149 796 137 816 130 834 128 853 132 872 141 888 155 902 171 913 190 922 210 926 231 925 252 919 273 913 293 906 314 899 334 889 354 877 372 862 387 848 396 835 400 819 400 804 395 787 385 773 371 760 356 749 340 739 323 730 305 746 302 759 293 768 312 779 331 791 346 805 355 821 359 834 358 844 352 857 336 869 318 879 299 887 278 895 258 898 241 895 226 886 207 873 190 857 177 841 170 826 169 810 172 794 180 778 194 766 211 759 226 756 247 755 267 756 283 761 297 746 300 733 309 746 301 742 286 743 272 745 252 745 231 748 214 756 198 740 193 738 202 737 208 738 215 739 208 747 189 754 170 757 161 755 140 753 128 747 122 744 124 741 122 733 128 730 133 730 149 732 166 732 183 733 200 734 216 737 211 738 215 737 211 740 195 742 179 744 168 743 152 742 138 744 124 735 123 744 124 742 141 744 158 743 173 740 189 749 193 758 196 768 182 780 170 794 159 810 152 827 148 844 150 860 156 874 166 886 179 897 193 905 208 910 225 912 242 909 259 903 276 898 292 892 309 885 325 877 340 867 354 855 367 841 377 824 380 807 376 792 368 779 356 769 342 759 327 740 338 742 362 739 386 736 410 735 434 737 459 740 479 747 498 732 492 755 476 722 464 752 448 720 433 750 418 722 402 753 389 726 372 758 358 729 335 741 313 735 309 750 301 765 294 747 301 730 307 758 284 728 278 757 262 731 247 759 238 731 217 765 217 742 190 775 202 759 167 789 187 779 146 807 175 803 132 823 171 829 126 839 172 855 130 857 179 879 144 872 192 899 165 883 206 915 189 891 220 926 216 896 236 928 245 894 255 921 273 886 275 912 301 878 295 903 329 869 315 891 356 857 333 873 378 846 347 852 396 832 356 826 402 815 356 800 395 799 349 776 378 786 337 757 356 777 324 742 331 766 304 730 309 747 304 761 329 777 353 798 372 826 380 849 372 869 352 884 327 895 301 904 274 912 246 908 217 895 191 877 169 853 153 824 148 797 158 774 176 756 198 740 193 738 204 740 214 731 202 752 182 730 169 758 152 727 137 752 124 735 123 753 121 736 124 756 125 728 125 760 127 726 128 760 130 724 131 760 133 724 134 761 136 723 138 761 139 723 141 761 142 724 145 761 145 724 148 762 147 724 151 762 150 725 155 762 153 725 158 762 156 725 161 763 159 726 165 763 162 726 168 763 165 726 171 762 168 726 175 761 171 726 178 760 174 726 181 758 177 726 185 757 180 727 188 756 183 727 192 754 187 727 195 753 190 727 199 751 194 727 203 750 197 727 207 748 201 727 210 747 205 728 214 745 209 728 218 744 213 749 212 758 196 769 182 781 169 795 158 812 151 829 148 847 151 863 158 877 169 889 182 899 197 907 213 911 230 911 248 907 265 901 282 896 299 889 315 882 331 873 347 862 360 848 373 834 379 816 379 799 372 785 362 773 348 763 333 754 318 746 302 755 296 765 290 725 308 766 293 726 310 743 309 736 312 739 329 742 346 743 358 741 373 739 389 737 404 735 420 735 435 736 451 738 466 741 482 744 497 751 496 737 504 753 493 734 501 755 490 732 499 756 487 729 496 757 485 728 493 757 483 726 490 758 481 724 487 758 479 723 484 759 477 722 481 759 474 721 477 759 472 720 474 759 469 719 471 759 466 718 468 758 463 718 465 758 460 717 462 758 457 717 459 757 454 717 456 756 451 717 453 756 448 717 449 755 445 716 446 755 442 716 443 754 439 716 440 754 436 716 436 754 433 716 433 754 430 716 430 754 427 716 427 754 424 717 424 754 421 717 420 754 418 717 417 754 415 717 414 755 412 717 411 755 409 718 407 755 406 718 404 755 403 718 401 756 400 719 398 756 397 719 395 756 394 720 391 757 391 720 388 757 388 720 385 758 385 721 382 758 382 721 379 759 379 722 375 759 376 722 372 760 373 722 369 760 370 723 366 761 367 723 362 761 364 723 359 762 361 724 356 762 358 724 353 761 355 724 350 760 351 724 346 758 347 725 343 757 344 725 340 755 340 725 336 754 336 725 333 752 333 726 329 751 329 726 326 749 325 726 322 748 321 726 319 746 317 727 315 745 313 727 312 743 309 727 308 743 309 747 304 755 320 764 335 774 350 786 362 800 373 816 379 834 379 849 373 862 360 873 347 882 331 889 315 895 299 901 282 907 265 911 248 921 246 932 245 891 246 931 248 891 248 931 251 891 250 930 255 890 252 930 258 890 254 929 261 889 256 928 264 889 258 927 267 888 260 926 270 887 262 925 273 886 264 924 276 886 266 923 280 885 267 922 283 884 269 921 286 883 271 920 289 883 273 919 292 882 275 918 295 881 278 917 298 880 280 916 301 879 282 915 304 879 284 914 307 878 286 913 311 877 288 912 314 876 291 911 317 875 293 910 320 874 295 909 323 873 297 908 326 872 299 907 329 872 301 906 332 871 303 905 335 870 305 904 338 869 307 902 341 867 309 901 344 866 311 900 347 865 313 898 350 864 315 897 353 863 317 895 356 862 319 894 359 861 321 892 361 859 323 890 364 858 325 888 366 857 327 887 369 856 328 885 371 855 329 883 374 854 331 881 376 853 332 879 378 852 334 877 381 851 335 875 383 850 337 872 385 849 338 870 387 851 347 868 390 846 341 866 392 845 342 863 394 844 344 861 395 843 345 858 397 841 346 856 399 840 348 853 400 839 349 850 402 837 350 848 403 836 350 845 404 836 362 842 405 833 352 839 405 831 352 836 406 829 353 833 406 828 353 830 406 826 353 827 406 824 353 824 406 822 353 821 406 820 353 819 406 818 353 816 405 816 353 813 404 815 352 810 404 813 352 807 403 811 351 804 402 809 350 801 400 808 350 798 399 806 349 795 398 805 348 793 396 803 347 790 394 802 346 787 392 800 345 785 390 799 344 782 388 797 343 780 386 796 342 777 384 794 341 775 382 793 340 772 379 792 338 770 377 791 337 768 375 786 342 765 372 789 335 763 370 781 342 761 367 787 332 759 365 780 337 757 362 785 329 755 359 777 335 753 357 783 327 751 354 777 330 750 351 782 324 748 349 773 329 746 346 780 322 744 343 772 325 743 340 779 319 741 338 778 317 739 335 776 315 738 332 775 312 736 329 774 310 735 327 773 308 733 324 771 305 732 321 770 303 730 319 769 300 729 316 768 298 728 313 767 295 726 310 766 293 743 309 727 308 739 303 751 298 764 291 725 305 765 293 726 308 767 295 727 311 763 291 725 305 764 291 724 302 764 288 723 299 763 286 722 296 762 284 722 293 762 282 722 290 761 279 722 286 761 277 722 283 761 275 723 280 761 273 724 276 761 271 725 273 761 269 726 269 761 267 727 266 761 265 727 263 761 263 727 259 761 260 727 256 762 257 727 253 762 255 727 249 762 252 727 246 762 250 727 243 762 247 727 239 762 245 727 236 762 242 727 233 763 240 727 229 763 237 727 226 763 235 727 223 764 232 727 219 764 230 728 216 765 227 728 213 766 225 729 210 766 223 730 207 767 221 731 204 768 219 732 201 769 218 733 198 769 216 735 195 770 215 736 192 771 213 738 189 772 212 739 186 773 210 741 183 774 209 743 181 775 208 745 178 776 206 747 176 778 205 749 173 779 204 751 170 780 202 753 168 781 201 755 165 782 199 757 163 784 197 759 160 785 196 761 158 787 194 763 155 789 192 765 153 791 191 767 151 793 189 770 149 794 187 772 146 796 186 774 144 798 185 777 142 800 183 779 141 802 182 782 139 804 181 784 137 806 180 787 135 808 179 790 134 809 179 792 132 811 178 795 131 812 177 798 130 814 177 801 128 815 176 803 127 817 176 806 126 819 175 809 125 820 175 812 124 822 175 815 124 824 175 818 123 825 175 821 123 827 174 824 122 828 174 827 122 830 174 830 122 832 166 833 122 833 175 835 122 835 164 838 122 837 175 841 123 838 175 844 123 840 176 847 124 842 176 850 124 844 177 853 125 846 178 856 126 847 178 859 127 849 179 861 128 851 180 864 130 853 181 867 131 854 182 869 132 856 183 872 134 858 184 875 135 859 186 877 137 861 187 880 139 862 188 882 141 864 190 885 143 866 191 887 145 867 193 889 147 868 194 891 149 870 196 894 152 871 197 896 154 873 199 898 157 874 200 900 159 875 202 902 162 876 203 904 164 881 198 906 167 878 206 908 169 886 199 910 172 880 209 911 175 887 203 913 177 881 212 915 180 890 205 917 183 883 214 918 186 890 211 920 189 885 217 921 191 886 219 922 194 895 214 924 197 887 221 925 200 888 223 926 203 896 220 927 206 889 226 928 210 896 225 929 213 890 229 930 216 900 227 930 219 891 232 931 222 897 232 931 225 891 235 932 229 901 235 932 232 892 238 932 235 898 239 932 238 892 241 932 242 892 244 932 245 922 245 912 244 922 245 932 245 971 252 978 251 984 251 978 251 971 252 984 251 987 231 989 211 991 191 991 171 990 151 988 133 983 130 981 134 975 143 972 156 972 176 972 197 971 217 969 238 967 258 964 277 961 297 960 317 960 337 962 357 967 368 975 376 981 379 986 384 988 380 993 382 994 377 1000 365 1001 355 995 335 994 315 995 295 997 274 1000 255 1003 235 1006 215 1009 195 1010 176 1010 156 1007 145 1000 136 994 133 990 129 988 133 983 130 988 133 990 150 991 171 991 192 989 211 987 230 984 249 982 267 979 286 977 305 977 324 979 343 983 362 988 380 998 380 994 381 970 374 1003 357 958 347 996 331 958 317 996 303 960 287 999 276 965 257 1003 248 968 229 1008 218 970 202 1011 189 970 175 1012 160 971 148 998 131 988 136 991 163 991 190 989 218 985 245 981 272 978 299 977 326 981 353 988 380 998 380 981 385 1001 377 975 383 1003 374 971 380 1004 372 968 378 1005 369 965 375 1006 367 963 372 1007 364 961 369 1007 361 959 366 1007 359 958 363 1007 356 957 360 1006 353 956 358 1006 351 956 355 1005 348 955 352 1004 345 955 349 1004 343 954 346 1003 340 954 343 1002 337 954 340 1001 335 954 337 1001 332 954 334 1000 329 953 331 1000 326 953 328 1000 324 953 325 1000 321 953 321 1000 318 953 318 1000 315 954 315 1000 313 954 312 1000 310 954 309 1000 307 954 306 1000 304 954 303 1000 302 955 300 1001 299 955 297 1001 296 955 294 1001 293 956 291 1001 290 956 288 1001 288 957 285 1002 285 957 282 1002 282 958 278 1002 279 958 275 1003 277 958 272 1003 274 959 269 1004 271 959 266 1004 268 960 263 1004 265 960 260 1005 263 961 257 1005 260 961 254 1006 257 961 250 1006 254 962 248 1007 251 962 245 1007 248 963 242 1008 245 963 239 1008 242 963 236 1009 239 963 234 1009 236 964 231 1010 233 964 228 1010 230 964 225 1011 227 965 223 1011 223 965 220 1012 220 965 217 1012 217 965 214 1013 214 965 211 1013 211 966 209 1013 208 966 206 1014 205 966 203 1014 202 966 200 1014 199 966 198 1015 196 966 195 1015 193 966 192 1015 190 966 189 1015 187 966 187 1016 184 966 184 1016 181 966 181 1016 178 966 179 1016 175 966 176 1016 172 966 173 1016 169 966 170 1016 166 966 168 1016 163 966 165 1016 161 965 162 1016 158 965 160 1016 155 966 157 1015 152 966 154 1015 149 966 151 1014 146 967 148 1012 143 967 145 1011 140 968 143 1009 137 970 140 1006 134 971 138 1002 131 973 135 996 128 977 131 996 128 986 130 977 131 986 130 996 128 997 92 991 88 991 82 991 88 997 92 991 88 991 82 1004 80 1016 78 1004 80 991 82 991 92 993 88 1005 82 1012 73 1017 60 1017 45 1013 33 1006 24 996 18 995 14 994 18 991 14 989 18 980 24 972 34 969 48 970 62 975 75 982 82 987 86 990 91 991 88 991 92 991 82 1004 80 1016 78 992 76 993 48 994 21 1004 18 972 30 1018 43 992 48 966 53 992 60 1017 67 974 76 1000 89 997 92 984 90 1004 90 977 87 1008 87 974 83 1012 84 971 80 1014 81 969 77 1016 78 1004 77 992 76 993 61 993 47 993 32 994 18 985 13 1001 15 979 16 1008 19 975 20 1012 22 972 23 1015 25 970 26 1017 28 968 29 1018 31 967 32 1019 33 966 35 1020 36 965 37 1021 38 964 40 1022 41 963 43 1022 43 963 46 1023 46 963 48 1023 49 962 51 1023 52 962 53 1023 55 963 56 1023 58 963 58 1023 60 963 61 1022 63 964 63 1021 66 964 66 1020 69 965 69 1019 72 966 71 1018 75 968 74 1016 78 1006 77 996 76 1006 77 1016 78 1052 105 1055 113 1065 113 1055 113 1052 105 1055 113 1071 113 1086 115 1101 122 1115 127 1124 135 1133 143 1118 141 1102 139 1101 159 1101 179 1100 199 1100 219 1099 240 1099 260 1098 281 1098 301 1098 322 1097 342 1097 362 1101 371 1106 379 1112 375 1116 379 1118 375 1124 369 1125 360 1125 338 1126 317 1126 295 1126 273 1127 251 1127 229 1128 207 1128 185 1128 163 1129 141 1115 143 1102 139 1115 143 1118 128 1133 129 1148 127 1158 124 1168 115 1176 103 1172 109 1171 126 1167 138 1160 143 1139 146 1122 146 1104 141 1085 133 1072 132 1062 132 1057 128 1051 117 1048 116 1052 112 1049 106 1053 104 1062 95 1071 94 1088 97 1105 106 1123 110 1143 109 1161 103 1167 101 1176 103 1168 114 1160 123 1148 127 1130 129 1113 126 1122 113 1113 113 1112 109 1100 98 1096 79 1093 59 1089 40 1086 22 1086 13 1090 6 1094 0 1099 3 1106 0 1109 4 1113 14 1116 32 1119 50 1121 69 1124 87 1126 106 1121 109 1116 113 1114 109 1113 113 1114 107 1111 88 1108 70 1105 51 1102 33 1099 14 1099 3 1088 0 1099 3 1099 15 1101 28 1104 42 1106 55 1108 69 1110 82 1112 96 1114 109 1114 123 1114 136 1114 149 1115 138 1115 127 1100 138 1130 153 1099 165 1130 182 1098 195 1129 211 1097 225 1129 241 1097 255 1128 271 1096 285 1128 301 1096 315 1127 330 1095 345 1127 360 1101 376 1112 372 1111 344 1112 315 1112 286 1113 258 1113 229 1114 200 1115 172 1115 143 1118 128 1140 128 1162 122 1176 105 1162 100 1164 143 1143 107 1136 149 1120 108 1107 145 1095 99 1079 134 1068 92 1051 125 1055 113 1075 113 1094 119 1113 126 1111 112 1128 104 1095 84 1124 72 1090 58 1120 42 1086 33 1115 13 1088 3 1088 0 1112 0 1084 4 1114 2 1082 7 1115 3 1081 11 1116 5 1080 14 1117 7 1079 18 1118 9 1079 21 1119 12 1080 24 1120 16 1080 26 1121 19 1081 29 1121 22 1082 32 1122 25 1082 35 1122 28 1083 38 1122 31 1083 40 1123 34 1084 43 1123 38 1084 45 1124 41 1084 48 1124 44 1085 50 1125 47 1085 53 1125 50 1086 55 1125 54 1086 58 1126 57 1087 61 1126 60 1087 63 1127 63 1088 66 1127 66 1088 68 1128 70 1089 71 1128 73 1089 73 1128 76 1090 76 1129 79 1090 79 1129 83 1091 82 1130 86 1091 84 1130 90 1092 87 1131 93 1092 90 1131 97 1093 93 1132 100 1093 96 1132 103 1094 99 1133 107 1094 102 1133 111 1100 106 1128 112 1107 111 1122 115 1127 129 1141 128 1156 125 1166 117 1174 105 1177 109 1174 97 1177 112 1169 95 1178 122 1166 95 1177 128 1163 96 1176 133 1160 97 1174 137 1157 98 1172 141 1155 99 1170 144 1153 100 1167 146 1152 100 1164 147 1150 101 1161 149 1148 102 1158 150 1146 102 1155 150 1144 103 1152 151 1143 103 1149 151 1141 103 1146 152 1139 103 1143 152 1137 104 1140 152 1136 104 1137 153 1133 104 1134 153 1131 104 1131 153 1128 104 1132 150 1115 146 1115 143 1125 142 1135 141 1096 138 1134 145 1096 141 1134 148 1096 144 1134 151 1096 147 1132 150 1130 139 1127 129 1111 126 1097 120 1083 114 1067 113 1052 112 1049 100 1048 122 1053 95 1051 129 1057 92 1053 133 1060 90 1056 136 1063 89 1059 138 1066 88 1062 139 1069 88 1065 139 1072 88 1068 139 1074 88 1071 138 1077 88 1074 138 1080 89 1077 138 1083 89 1080 138 1086 90 1083 139 1088 91 1086 140 1091 92 1089 141 1094 94 1092 142 1096 95 1095 144 1099 97 1098 145 1102 98 1101 146 1104 100 1104 148 1107 101 1107 149 1110 102 1110 150 1113 102 1113 150 1115 103 1116 151 1118 104 1119 152 1120 104 1122 152 1123 104 1125 153 1126 104 1128 153 1128 104 1131 153 1132 150 1096 147 1134 153 1096 151 1134 156 1096 154 1134 160 1096 157 1134 163 1095 160 1134 166 1095 163 1134 168 1095 166 1134 172 1095 169 1134 175 1095 172 1134 178 1095 175 1134 181 1095 178 1134 184 1095 182 1134 187 1095 185 1134 190 1095 188 1134 193 1094 191 1134 196 1094 194 1134 199 1094 197 1134 202 1094 200 1134 205 1094 204 1134 208 1094 207 1133 211 1094 210 1133 214 1094 213 1133 217 1094 216 1133 220 1094 219 1133 223 1094 222 1133 226 1093 225 1133 229 1093 228 1133 233 1093 232 1133 236 1093 235 1133 239 1093 238 1133 242 1093 241 1133 245 1093 244 1133 248 1093 247 1133 251 1093 250 1133 254 1093 254 1133 257 1093 257 1133 260 1093 260 1133 264 1093 263 1133 267 1093 266 1132 270 1093 269 1132 273 1093 272 1132 276 1093 275 1132 279 1092 278 1132 282 1092 282 1132 285 1092 285 1132 288 1092 288 1132 291 1092 291 1132 295 1092 294 1132 298 1092 297 1132 301 1092 300 1132 304 1092 303 1132 307 1092 307 1132 310 1092 310 1132 313 1092 313 1132 316 1092 316 1132 319 1092 319 1132 322 1092 322 1132 325 1092 325 1131 329 1092 328 1131 332 1092 331 1131 335 1092 335 1131 338 1091 338 1131 341 1091 341 1131 344 1091 344 1131 347 1091 347 1131 350 1091 350 1131 353 1091 353 1131 357 1091 357 1131 360 1091 360 1131 363 1091 363 1131 366 1092 366 1130 369 1121 369 1111 369 1112 375 1100 379 1122 378 1097 376 1126 375 1094 373 1129 372 1093 369 1130 369 1120 369 1110 369 1120 369 1130 369 "/>
    <path id="Block1Jump8"
        fill="none"
        stroke="#0E1F7C"
		stroke-width="2px"
		d="M 1647 530 L 1653 532 1647 530 1641 528 1652 532 1651 553 1649 573 1647 594 1645 614 1644 635 1643 655 1643 676 1643 697 1643 717 1643 738 1642 759 1636 762 1629 743 1627 722 1627 701 1628 680 1628 659 1629 638 1629 618 1630 597 1632 577 1633 556 1635 536 1639 525 1644 518 1649 512 1653 516 1658 513 1660 518 1667 529 1669 541 1667 563 1664 583 1662 604 1660 625 1659 645 1658 666 1658 687 1658 708 1658 729 1655 746 1648 762 1642 759 1636 762 1642 759 1643 738 1643 718 1642 698 1643 678 1643 658 1644 637 1645 617 1646 597 1648 577 1650 557 1652 536 1653 516 1643 512 1643 515 1670 532 1632 543 1670 557 1630 570 1666 582 1628 597 1663 610 1627 624 1661 638 1626 651 1660 667 1626 678 1660 694 1625 706 1660 720 1626 734 1657 747 1632 759 1642 755 1643 726 1643 696 1643 666 1644 636 1646 606 1648 576 1651 546 1653 516 1643 512 1664 514 1639 515 1667 517 1636 518 1670 521 1634 521 1672 524 1632 524 1673 528 1631 527 1674 531 1630 531 1675 533 1629 534 1675 536 1629 537 1675 539 1628 540 1675 542 1628 543 1675 545 1627 546 1675 547 1627 549 1675 550 1627 552 1675 553 1627 555 1674 555 1626 558 1674 558 1626 561 1673 561 1626 564 1673 563 1626 567 1672 566 1626 570 1672 569 1626 573 1672 572 1626 576 1671 575 1625 579 1671 578 1625 582 1670 581 1625 585 1670 584 1625 588 1670 587 1625 591 1669 590 1625 594 1669 593 1624 597 1669 596 1624 600 1668 599 1624 603 1668 603 1624 606 1668 606 1624 609 1667 609 1624 612 1667 612 1624 615 1667 615 1623 618 1667 618 1623 621 1666 621 1623 624 1666 624 1623 627 1666 628 1623 629 1666 631 1623 632 1665 634 1623 635 1665 637 1623 638 1665 640 1623 641 1665 643 1623 644 1665 646 1623 647 1664 650 1622 650 1664 653 1622 653 1664 656 1622 657 1664 659 1622 660 1664 662 1622 663 1664 665 1622 666 1664 669 1622 669 1664 672 1622 672 1664 675 1622 675 1664 678 1622 678 1664 681 1622 681 1664 684 1621 684 1664 687 1621 687 1664 690 1621 691 1664 693 1621 694 1664 695 1621 697 1664 698 1621 700 1664 701 1621 703 1664 704 1621 706 1664 707 1621 709 1664 710 1621 712 1664 713 1621 716 1664 716 1621 719 1664 719 1621 722 1664 722 1621 725 1664 724 1621 728 1664 727 1622 731 1664 730 1622 734 1663 733 1622 738 1663 736 1623 741 1663 739 1623 744 1662 742 1624 747 1662 745 1624 750 1661 749 1625 753 1660 752 1626 756 1658 755 1628 759 1656 758 1630 762 1654 762 1644 762 1634 762 1644 762 1654 762 1641 794 1647 797 1646 807 1647 797 1641 794 1647 797 1645 813 1633 815 1622 816 1633 815 1645 813 1647 794 1645 798 1636 804 1628 817 1625 829 1625 842 1629 851 1636 858 1642 866 1643 862 1642 866 1643 862 1655 855 1661 846 1663 832 1661 818 1655 804 1651 799 1648 794 1647 797 1647 794 1645 813 1633 815 1622 816 1644 819 1644 844 1640 866 1661 850 1622 832 1663 816 1640 797 1641 794 1654 794 1636 797 1658 798 1632 800 1660 801 1630 803 1662 805 1627 806 1664 808 1625 809 1665 811 1623 813 1666 814 1622 816 1633 818 1644 819 1644 834 1644 848 1643 862 1648 866 1636 866 1656 862 1630 862 1659 859 1627 859 1662 855 1624 855 1664 852 1623 852 1666 849 1621 849 1667 846 1620 846 1668 843 1619 843 1669 840 1619 840 1669 837 1619 837 1669 834 1618 834 1670 831 1618 831 1669 828 1619 828 1669 826 1619 825 1669 823 1620 822 1668 820 1621 819 1667 817 1622 816 1632 816 1642 816 1632 816 1622 816 1588 803 1582 801 1577 799 1582 801 1588 803 1577 799 1565 816 1553 834 1542 846 1529 854 1515 856 1501 852 1482 842 1467 828 1455 811 1445 792 1441 792 1443 796 1441 812 1445 821 1458 839 1473 855 1491 867 1509 874 1523 874 1538 870 1552 860 1566 842 1578 824 1590 806 1592 794 1591 772 1587 750 1580 730 1569 711 1555 694 1538 679 1520 668 1500 659 1487 651 1482 643 1482 632 1487 623 1495 619 1511 620 1533 622 1548 624 1558 627 1565 623 1570 621 1568 611 1573 601 1569 597 1561 591 1547 588 1525 587 1503 586 1487 586 1476 592 1465 603 1458 619 1455 637 1457 656 1464 672 1474 681 1487 687 1507 696 1525 709 1540 725 1552 743 1561 763 1566 784 1565 790 1553 807 1540 825 1530 834 1518 838 1507 836 1489 826 1474 814 1465 803 1462 793 1460 790 1452 790 1444 789 1445 792 1441 792 1445 792 1455 811 1468 829 1484 843 1503 853 1517 856 1531 853 1544 845 1556 830 1568 813 1579 797 1578 775 1574 754 1565 734 1553 716 1538 700 1521 686 1502 676 1484 668 1474 658 1469 646 1469 632 1473 617 1481 608 1491 603 1510 603 1531 604 1550 606 1568 611 1574 595 1571 596 1552 628 1545 586 1529 623 1518 585 1509 622 1490 584 1494 621 1467 597 1486 629 1455 623 1483 639 1454 650 1488 650 1465 676 1499 656 1488 689 1521 666 1512 702 1545 682 1532 719 1564 702 1547 738 1580 726 1558 759 1590 753 1562 772 1594 780 1564 783 1593 806 1557 798 1577 830 1545 815 1562 852 1535 828 1542 870 1523 834 1519 877 1510 835 1494 871 1496 829 1472 857 1479 816 1453 837 1466 798 1439 814 1452 784 1447 795 1461 820 1481 841 1506 854 1528 854 1551 838 1567 814 1579 794 1577 766 1567 738 1552 715 1532 694 1508 679 1482 667 1469 647 1471 622 1484 605 1512 603 1541 605 1568 611 1574 595 1569 627 1572 592 1565 630 1569 589 1562 632 1566 587 1559 633 1563 585 1555 633 1561 584 1553 632 1558 584 1550 631 1555 583 1547 630 1552 583 1544 629 1549 583 1541 628 1546 582 1539 628 1543 582 1536 628 1540 582 1534 628 1537 582 1532 627 1534 582 1530 627 1531 581 1528 627 1527 581 1526 627 1524 581 1524 627 1521 581 1522 627 1518 581 1520 626 1515 580 1518 626 1512 580 1516 626 1509 580 1513 626 1506 580 1511 626 1502 580 1509 625 1499 580 1507 625 1496 579 1505 625 1493 579 1502 618 1490 580 1502 625 1487 580 1497 614 1484 581 1500 624 1481 582 1495 618 1478 583 1497 624 1475 585 1492 617 1472 587 1495 625 1470 589 1488 617 1468 591 1493 626 1465 593 1487 621 1463 596 1491 628 1461 599 1483 621 1459 601 1490 629 1458 604 1484 626 1456 607 1489 631 1455 610 1480 627 1453 613 1488 633 1452 616 1482 631 1451 619 1488 635 1450 623 1478 633 1450 626 1487 637 1449 629 1481 636 1449 632 1487 639 1449 636 1478 639 1449 639 1487 641 1449 642 1481 642 1449 646 1488 643 1450 649 1479 645 1450 652 1489 645 1451 655 1483 647 1452 659 1490 646 1453 662 1482 651 1454 665 1492 648 1455 668 1485 653 1457 671 1494 649 1458 673 1489 654 1460 676 1496 650 1462 679 1490 657 1464 681 1498 651 1467 683 1494 657 1469 685 1500 652 1472 687 1494 661 1474 689 1502 653 1477 690 1498 661 1480 691 1505 654 1483 692 1508 656 1486 693 1511 657 1489 694 1514 658 1492 695 1517 660 1495 696 1519 661 1497 697 1522 662 1500 699 1525 664 1503 700 1528 665 1505 702 1531 667 1508 703 1533 669 1510 705 1536 670 1513 707 1538 672 1515 709 1541 674 1517 710 1544 676 1519 712 1546 678 1522 714 1548 680 1524 716 1551 682 1526 718 1553 684 1528 720 1555 686 1530 722 1557 688 1531 724 1560 691 1533 726 1562 693 1535 728 1564 695 1536 730 1566 698 1538 732 1568 700 1539 734 1570 703 1541 736 1572 705 1542 738 1574 708 1544 740 1576 710 1545 742 1577 713 1546 744 1579 716 1548 747 1581 718 1549 749 1582 721 1550 751 1584 724 1551 753 1585 727 1552 756 1587 730 1553 758 1588 733 1554 760 1589 736 1555 763 1590 739 1556 765 1591 742 1562 763 1592 745 1557 768 1593 748 1564 765 1594 752 1557 769 1595 755 1563 768 1595 758 1558 771 1596 761 1567 770 1596 765 1558 773 1597 768 1566 773 1597 771 1558 775 1598 774 1568 776 1598 778 1559 777 1598 781 1565 779 1598 784 1559 779 1598 787 1569 782 1598 791 1560 781 1598 794 1568 785 1598 797 1560 783 1597 801 1566 788 1597 804 1561 786 1596 808 1559 788 1595 810 1558 790 1593 813 1557 792 1591 816 1555 794 1589 818 1554 795 1588 821 1553 797 1586 824 1551 799 1584 826 1550 801 1582 829 1549 803 1580 832 1547 805 1579 834 1546 807 1577 837 1545 808 1575 840 1544 810 1573 842 1542 812 1571 845 1541 814 1570 848 1540 816 1568 850 1538 818 1566 853 1537 819 1564 856 1543 829 1562 858 1535 822 1560 861 1538 829 1557 863 1533 824 1555 865 1537 835 1553 867 1531 826 1550 869 1533 834 1547 871 1529 828 1545 873 1531 839 1542 874 1526 829 1539 876 1527 837 1536 877 1523 830 1533 878 1524 840 1531 879 1521 831 1527 879 1521 839 1524 880 1518 832 1521 880 1517 843 1518 881 1515 832 1515 881 1513 839 1512 880 1512 831 1509 880 1510 842 1506 879 1509 830 1503 878 1506 839 1500 878 1506 829 1497 876 1502 840 1494 875 1503 828 1492 874 1499 836 1489 873 1500 826 1486 871 1495 836 1483 869 1497 824 1480 868 1495 823 1478 866 1493 822 1475 864 1491 821 1473 862 1489 819 1470 860 1487 818 1468 858 1485 816 1465 856 1483 815 1463 854 1481 813 1461 852 1480 811 1458 849 1478 809 1456 847 1476 807 1454 844 1475 805 1452 841 1473 803 1450 839 1472 801 1448 836 1470 799 1446 833 1469 796 1444 831 1468 794 1442 828 1467 791 1440 826 1466 788 1439 823 1465 786 1437 820 1463 784 1436 817 1441 806 1447 795 1445 792 1437 796 1448 785 1435 803 1455 781 1435 808 1459 782 1435 813 1461 783 1436 817 1442 809 1448 801 1442 809 1436 817 1399 819 1390 820 1382 821 1390 820 1399 819 1382 821 1378 804 1376 786 1375 768 1375 751 1376 733 1376 715 1376 698 1372 680 1364 665 1351 652 1335 644 1317 642 1300 645 1283 651 1268 660 1254 672 1241 683 1251 697 1255 691 1249 688 1247 693 1233 707 1234 729 1234 750 1233 772 1233 793 1232 815 1231 836 1230 857 1232 865 1237 869 1244 872 1245 876 1247 872 1248 876 1249 872 1258 869 1263 862 1264 847 1264 828 1264 808 1265 788 1264 768 1264 748 1263 728 1263 708 1263 688 1255 691 1249 688 1255 691 1250 700 1236 687 1227 695 1223 700 1222 707 1226 707 1235 710 1243 707 1260 693 1275 678 1292 668 1308 664 1325 665 1339 671 1351 682 1358 696 1360 713 1359 735 1358 757 1358 779 1359 801 1362 822 1367 842 1375 851 1385 857 1393 860 1394 855 1397 857 1397 853 1402 833 1403 818 1397 798 1394 777 1393 756 1393 735 1393 714 1392 693 1389 672 1381 654 1369 638 1354 627 1339 621 1321 621 1301 624 1281 631 1263 641 1246 653 1230 666 1223 677 1220 692 1220 697 1218 701 1222 702 1222 707 1223 701 1232 690 1250 676 1237 659 1234 672 1238 675 1241 670 1251 658 1257 650 1257 635 1251 621 1244 609 1235 599 1231 603 1228 600 1226 604 1220 614 1217 627 1218 643 1223 659 1228 675 1234 672 1238 675 1234 672 1238 656 1240 650 1237 635 1234 619 1231 603 1222 601 1231 603 1234 618 1237 633 1239 645 1238 656 1242 668 1245 679 1241 683 1251 697 1253 694 1247 688 1265 698 1231 712 1265 724 1232 739 1266 751 1232 765 1267 778 1231 792 1266 806 1229 819 1266 833 1228 846 1266 859 1235 872 1247 869 1247 841 1248 812 1249 784 1249 756 1249 728 1250 700 1236 687 1224 699 1227 711 1224 672 1251 704 1247 678 1243 652 1270 685 1266 637 1290 671 1291 625 1309 666 1317 619 1326 667 1343 620 1342 647 1340 674 1366 633 1348 682 1384 654 1355 693 1393 681 1358 712 1395 710 1358 732 1395 739 1356 759 1395 766 1356 788 1397 792 1359 816 1403 812 1365 843 1404 836 1387 861 1393 852 1383 825 1377 796 1375 766 1376 737 1376 707 1371 678 1354 655 1329 643 1299 645 1272 657 1250 676 1237 659 1235 668 1240 675 1223 665 1262 650 1216 642 1256 627 1217 618 1240 600 1222 601 1241 598 1219 604 1244 601 1217 608 1247 604 1215 611 1250 607 1214 615 1252 610 1213 618 1254 613 1212 621 1256 616 1212 624 1257 619 1211 627 1259 622 1211 629 1260 625 1211 632 1261 628 1211 635 1262 631 1211 637 1263 634 1212 640 1264 637 1212 643 1264 640 1213 645 1265 643 1213 648 1265 646 1214 650 1266 649 1215 653 1263 652 1216 656 1261 655 1217 659 1258 658 1218 662 1255 662 1219 665 1253 665 1220 668 1250 668 1221 672 1247 672 1222 675 1244 675 1243 681 1232 690 1222 702 1215 696 1226 712 1215 689 1229 714 1216 683 1232 715 1229 713 1239 711 1248 709 1248 704 1251 697 1255 691 1269 688 1243 688 1269 691 1240 691 1269 694 1237 695 1269 697 1233 698 1269 699 1230 701 1269 702 1227 704 1269 705 1227 707 1269 708 1227 710 1269 711 1227 713 1226 697 1239 685 1253 673 1266 662 1281 652 1298 645 1316 642 1333 644 1350 651 1363 664 1372 679 1376 697 1376 714 1376 732 1375 750 1375 768 1376 786 1378 804 1382 822 1388 839 1394 855 1389 864 1402 853 1384 863 1405 848 1380 861 1406 843 1376 860 1408 839 1373 858 1408 835 1370 856 1409 832 1368 853 1409 829 1366 851 1409 826 1364 848 1409 823 1362 846 1409 821 1361 843 1409 819 1360 840 1408 816 1359 837 1408 814 1358 835 1407 812 1357 832 1407 810 1357 829 1406 808 1356 826 1406 806 1356 823 1405 804 1355 820 1404 802 1355 817 1404 800 1354 814 1403 798 1354 811 1402 796 1354 808 1402 794 1353 805 1401 792 1353 802 1401 790 1353 799 1401 788 1352 796 1400 785 1352 793 1400 782 1352 790 1400 779 1352 787 1400 777 1352 784 1399 774 1352 781 1399 771 1352 777 1399 768 1352 774 1399 765 1352 771 1399 762 1352 768 1399 759 1352 765 1399 757 1352 762 1399 754 1352 759 1399 751 1352 756 1399 748 1352 753 1399 745 1353 750 1399 742 1353 746 1399 739 1353 743 1399 736 1353 740 1399 733 1353 737 1399 730 1353 735 1399 727 1353 733 1399 724 1354 731 1399 721 1354 729 1399 718 1354 727 1399 714 1354 725 1399 711 1354 723 1399 708 1354 721 1399 705 1354 719 1399 701 1354 717 1398 698 1354 715 1398 695 1354 713 1398 692 1354 710 1398 688 1354 708 1397 685 1354 706 1397 682 1354 704 1396 679 1353 703 1396 676 1353 701 1395 673 1352 699 1394 669 1352 697 1393 666 1358 690 1392 663 1350 694 1391 661 1360 684 1390 658 1349 691 1389 655 1355 685 1387 652 1348 690 1386 650 1357 679 1384 647 1347 688 1382 645 1352 680 1380 642 1346 686 1379 640 1352 676 1377 638 1344 684 1374 635 1351 672 1372 633 1343 683 1370 631 1347 674 1368 629 1341 681 1366 628 1346 667 1363 626 1340 680 1361 624 1343 668 1358 623 1338 678 1356 621 1341 664 1353 620 1336 676 1350 618 1337 666 1348 617 1333 675 1345 616 1332 674 1342 616 1330 673 1339 615 1328 672 1336 615 1327 672 1334 614 1325 671 1331 614 1324 671 1328 614 1323 659 1325 614 1320 670 1322 614 1319 661 1319 615 1317 670 1316 615 1315 670 1313 615 1314 670 1310 616 1312 670 1307 616 1310 670 1304 617 1308 670 1302 617 1306 670 1299 618 1304 670 1296 619 1302 671 1293 620 1300 672 1290 621 1298 672 1287 622 1296 673 1285 623 1294 674 1282 624 1292 675 1279 625 1290 676 1276 626 1289 677 1274 628 1287 678 1271 629 1285 679 1268 631 1283 680 1266 632 1281 682 1263 633 1278 683 1260 635 1276 685 1258 637 1274 687 1255 638 1272 689 1253 640 1270 691 1250 642 1268 693 1248 643 1267 695 1246 645 1265 697 1243 647 1263 699 1241 649 1261 701 1239 651 1258 703 1236 652 1256 705 1234 654 1254 707 1232 656 1252 709 1230 657 1249 711 1228 659 1247 712 1226 661 1244 714 1224 663 1241 715 1222 666 1238 715 1220 669 1236 716 1219 673 1234 716 1217 678 1232 715 1216 683 1229 713 1269 711 1227 713 1269 715 1227 716 1269 718 1227 720 1269 721 1227 723 1269 724 1228 726 1269 727 1228 729 1270 730 1228 732 1270 733 1228 735 1270 736 1228 738 1270 739 1228 741 1270 743 1228 744 1270 746 1228 747 1270 749 1228 750 1270 752 1228 753 1270 755 1228 756 1270 758 1228 759 1270 761 1228 762 1270 764 1228 765 1270 768 1227 768 1270 771 1227 771 1271 774 1227 774 1271 777 1227 777 1271 780 1227 780 1271 783 1227 783 1271 786 1227 786 1271 789 1227 789 1271 792 1227 792 1271 796 1227 796 1271 799 1227 799 1271 802 1227 802 1270 805 1226 805 1270 808 1226 808 1270 811 1226 811 1270 814 1226 814 1270 817 1226 817 1270 820 1225 820 1270 824 1225 824 1270 827 1225 827 1270 830 1225 830 1270 833 1225 833 1270 836 1225 836 1270 839 1224 839 1270 842 1224 842 1270 845 1224 845 1270 848 1224 848 1270 851 1224 851 1270 854 1224 853 1270 857 1224 856 1270 860 1224 859 1269 863 1225 862 1236 864 1247 866 1247 872 1239 876 1254 876 1231 872 1263 872 1228 869 1266 869 1226 865 1268 867 1225 862 1235 863 1245 864 1235 863 1225 862 1182 864 1185 873 1182 864 1185 873 1179 859 1174 855 1170 855 1150 861 1129 865 1108 866 1088 863 1068 856 1050 845 1035 831 1024 814 1015 795 1004 806 991 812 1001 832 1013 850 1027 866 1044 880 1063 892 1084 899 1105 903 1127 903 1149 903 1168 898 1179 891 1187 886 1183 874 1185 873 1181 875 1167 877 1148 882 1128 884 1109 884 1089 882 1070 876 1053 867 1037 855 1024 840 1013 824 1004 806 995 791 988 798 983 805 979 812 983 812 991 818 1007 803 1024 789 1042 777 1061 767 1081 758 1102 751 1123 746 1132 743 1141 732 1139 724 1142 716 1139 715 1136 707 1132 701 1113 708 1094 715 1076 722 1057 731 1039 740 1022 750 1005 761 989 774 980 786 980 794 980 804 977 808 980 808 979 812 981 806 991 795 1002 784 994 778 998 779 997 774 1003 755 1003 734 1006 712 1012 692 1022 673 1035 657 1051 645 1066 639 1079 637 1093 642 1110 655 1124 670 1135 688 1143 685 1143 674 1145 668 1148 662 1144 659 1142 653 1140 639 1130 625 1114 610 1097 602 1077 598 1058 600 1039 607 1023 618 1009 634 998 652 989 671 983 691 980 712 978 733 978 754 980 771 992 783 994 778 998 779 994 778 992 757 991 736 992 716 996 696 1003 676 1012 659 1024 643 1038 630 1055 621 1071 618 1086 619 1102 626 1118 638 1131 653 1141 669 1142 652 1142 635 1140 640 1149 654 1158 667 1163 678 1166 694 1172 707 1168 711 1165 715 1161 726 1156 732 1143 739 1128 744 1134 725 1141 707 1143 699 1143 679 1142 660 1140 640 1145 648 1143 666 1141 685 1139 703 1137 722 1139 707 1141 692 1143 677 1146 662 1148 646 1145 662 1142 678 1139 693 1137 707 1134 721 1118 726 1102 732 1086 737 1070 744 1054 751 1039 759 1025 768 1010 778 997 788 1017 794 995 825 1027 816 1012 851 1043 837 1033 874 1061 850 1058 891 1081 859 1085 902 1103 863 1115 905 1127 863 1143 905 1155 858 1170 899 1181 858 1180 875 1155 881 1129 884 1102 884 1077 878 1053 867 1033 850 1016 830 1004 806 995 791 986 800 976 806 993 819 987 772 1012 801 1008 756 1032 786 1032 741 1053 773 1056 729 1074 763 1081 718 1096 755 1106 708 1120 749 1127 723 1134 697 1135 743 1140 708 1137 722 1125 724 1103 731 1081 739 1060 748 1040 759 1020 771 1002 784 1003 769 1001 773 979 772 1005 743 976 742 1006 723 977 713 1010 703 983 685 1018 684 992 658 1027 669 1006 634 1039 656 1024 614 1052 647 1047 601 1067 640 1073 596 1083 640 1099 601 1101 626 1103 651 1123 615 1122 643 1122 671 1141 636 1140 664 1138 695 1141 669 1143 641 1142 674 1141 708 1140 742 1150 704 1159 666 1159 699 1159 731 1172 692 1167 707 1151 700 1137 722 1143 710 1141 738 1140 704 1138 742 1137 698 1136 746 1135 693 1134 749 1132 694 1131 749 1129 695 1129 750 1126 696 1126 751 1123 698 1124 752 1120 699 1121 752 1117 700 1118 753 1114 701 1116 754 1111 702 1113 755 1109 703 1110 755 1106 704 1108 756 1103 705 1105 757 1100 706 1103 757 1097 707 1100 758 1094 708 1097 759 1091 710 1095 760 1088 711 1092 760 1085 712 1090 761 1083 713 1088 762 1080 714 1085 763 1077 715 1083 764 1074 717 1080 765 1071 718 1078 766 1068 719 1075 767 1065 720 1073 768 1062 722 1070 769 1060 723 1068 770 1057 724 1066 771 1054 725 1063 772 1051 727 1061 773 1048 728 1059 775 1045 730 1056 776 1043 731 1054 777 1040 732 1051 778 1037 734 1049 780 1034 735 1047 781 1032 737 1045 782 1029 738 1042 784 1026 740 1040 785 1023 741 1038 787 1021 743 1035 788 1018 745 1033 790 1015 746 1031 791 1013 748 1029 793 1010 750 1027 794 1008 751 1024 796 1005 753 1022 798 1007 756 1009 766 1011 777 997 788 1001 797 1004 806 1012 822 1022 837 1033 851 1047 862 1062 872 1078 879 1095 883 1113 885 1131 884 1149 882 1166 878 1183 874 1184 867 1188 891 1181 854 1184 895 1180 859 1181 898 1178 850 1178 900 1175 849 1175 902 1172 848 1173 903 1169 849 1170 904 1166 850 1168 905 1163 851 1165 905 1161 852 1162 906 1158 853 1160 907 1155 854 1157 908 1152 854 1154 908 1149 855 1151 908 1146 856 1149 909 1143 857 1146 909 1140 857 1143 909 1138 858 1140 909 1135 858 1137 909 1132 859 1134 909 1129 859 1132 909 1126 859 1129 909 1123 860 1126 909 1121 860 1123 909 1119 860 1120 909 1116 860 1117 909 1114 860 1114 909 1112 860 1111 909 1109 860 1108 909 1107 860 1105 909 1105 860 1102 909 1103 859 1099 908 1100 859 1096 908 1098 859 1093 907 1096 858 1090 907 1094 858 1087 906 1091 857 1084 906 1089 857 1081 905 1087 856 1078 904 1085 856 1075 903 1082 855 1072 902 1080 854 1069 901 1079 854 1066 900 1077 853 1063 899 1075 852 1061 897 1073 851 1058 896 1071 850 1055 894 1069 849 1052 893 1067 849 1050 891 1065 848 1047 889 1063 847 1044 888 1061 846 1042 886 1060 844 1039 884 1058 843 1037 882 1056 842 1034 880 1054 841 1032 878 1053 840 1029 876 1051 838 1027 874 1049 837 1024 872 1048 835 1022 869 1046 834 1020 867 1044 832 1018 865 1043 830 1016 862 1041 828 1014 860 1039 826 1011 857 1038 824 1009 855 1036 822 1007 852 1035 820 1006 850 1033 818 1004 847 1032 816 1002 844 1030 813 1000 842 1029 811 998 839 1028 809 997 836 1026 806 995 833 1025 804 993 831 1024 801 992 828 1023 799 990 825 1022 796 989 822 1021 794 987 819 1020 791 986 816 992 812 986 800 998 788 1011 777 1009 766 1007 756 1000 763 993 770 994 778 987 786 1003 776 984 785 1004 771 981 783 1006 765 978 781 1007 760 976 780 1009 754 1009 766 1011 777 997 788 985 801 980 809 981 818 975 802 987 825 973 791 991 825 974 785 993 824 975 781 996 821 977 778 998 819 979 775 1000 817 981 773 1002 815 983 771 1004 813 986 768 1006 811 988 766 1009 809 990 764 1011 807 993 762 1013 805 995 760 1015 803 997 758 1017 801 1000 757 1020 799 1002 755 1022 798 1005 753 1007 756 976 780 1009 754 975 776 1009 752 975 773 1009 750 974 769 1009 747 974 766 1009 745 973 762 1009 743 973 759 1009 741 973 755 1009 739 972 752 1009 737 972 748 1009 735 972 745 1009 733 972 742 1009 730 972 738 1009 729 972 735 1010 727 972 732 1010 725 972 728 1010 722 972 725 1011 720 973 722 1011 718 973 718 983 716 992 714 996 697 1001 680 1009 664 1018 650 1030 637 1044 626 1061 619 1078 618 1095 622 1110 632 1123 644 1134 658 1143 672 1143 681 1142 691 1149 656 1138 697 1148 646 1135 701 1146 638 1133 697 1145 634 1131 693 1143 632 1132 691 1145 696 1157 703 1170 707 1172 701 1172 716 1172 688 1167 727 1171 682 1163 733 1169 677 1160 736 "/>
    <path id="Block1Jump34"
        fill="none"
        stroke="#0E1F7C"
		stroke-width="2px"
		d="M 1132 691 L 1143 632 1129 689 1141 629 1127 686 1139 626 1125 683 1137 624 1123 679 1135 622 1121 676 1133 619 1119 674 1131 617 1116 671 1130 615 1114 668 1128 614 1112 666 1125 612 1110 664 1123 610 1108 662 1120 608 1106 660 1118 606 1104 658 1115 604 1102 656 1113 602 1100 654 1110 601 1098 653 1107 600 1096 651 1104 598 1094 650 1102 597 1092 648 1099 596 1090 647 1096 595 1088 646 1093 595 1086 645 1090 594 1083 644 1087 593 1081 644 1084 593 1080 633 1081 592 1078 643 1078 592 1076 635 1075 592 1074 643 1072 592 1073 643 1069 592 1071 644 1066 592 1069 644 1063 593 1068 644 1060 593 1066 645 1057 594 1065 645 1054 594 1063 646 1052 595 1062 646 1049 596 1060 647 1046 597 1058 648 1043 598 1057 648 1040 599 1055 649 1038 601 1054 650 1035 602 1053 651 1032 604 1051 652 1030 605 1050 653 1027 607 1048 654 1025 609 1047 655 1022 611 1046 656 1020 613 1044 657 1018 615 1043 658 1016 617 1042 659 1013 619 1040 660 1011 621 1039 661 1009 624 1038 663 1007 626 1036 664 1005 629 1035 665 1003 631 1034 667 1001 634 1033 668 1000 636 1032 669 998 639 1031 671 996 642 1030 672 995 645 1029 674 993 647 1028 675 992 650 1027 677 990 653 1026 678 989 656 1025 680 987 659 1024 681 986 662 1023 683 985 665 1022 685 984 668 1021 687 983 671 1020 688 982 674 1019 690 981 677 1019 692 980 680 1018 694 979 683 1017 696 978 686 1016 698 977 689 1016 700 977 693 1015 702 976 696 1014 704 975 699 1014 706 975 702 1013 708 974 705 1013 710 974 709 1012 712 973 712 1012 714 973 715 1011 716 973 718 983 718 993 717 983 718 973 718 938 713 933 714 928 716 933 714 938 713 928 716 924 733 918 749 913 765 907 781 900 797 892 812 882 826 870 839 855 848 839 850 822 846 807 838 795 826 784 812 775 797 756 809 759 825 757 843 754 861 752 880 751 898 752 916 754 935 757 952 762 969 761 964 768 950 769 937 765 915 764 895 765 873 768 852 772 830 769 820 761 800 753 779 752 783 749 779 748 799 746 817 745 836 743 854 740 873 739 891 738 910 739 928 742 945 748 959 758 971 760 967 756 947 753 927 751 908 752 888 753 869 756 850 758 837 758 818 754 798 751 779 744 765 744 753 749 731 749 710 749 688 755 670 766 652 780 635 795 619 813 607 832 600 851 598 870 602 888 612 904 626 918 642 930 661 938 681 942 702 940 723 935 744 928 765 922 785 914 806 905 825 892 843 877 858 861 867 846 871 828 868 812 861 795 848 780 832 768 814 756 795 746 776 762 772 775 763 784 783 795 802 807 816 820 825 837 830 849 828 860 822 874 806 886 787 896 768 904 748 911 727 914 711 911 695 901 677 888 659 873 647 857 640 841 639 825 642 810 651 795 665 782 681 775 697 772 717 771 738 772 753 777 767 762 771 749 779 762 771 758 756 759 742 761 721 761 701 765 684 772 669 756 663 754 672 753 679 754 685 755 679 761 663 768 647 773 634 772 617 770 600 762 592 760 595 751 597 746 602 745 614 747 632 748 650 749 669 750 687 753 682 754 685 753 680 756 662 759 644 760 632 758 614 759 599 760 595 751 593 760 595 759 599 758 615 760 631 759 645 757 660 765 663 774 667 784 653 796 640 810 630 826 622 843 619 860 620 876 627 890 637 902 650 912 664 921 679 926 695 928 713 925 730 919 746 914 763 908 779 901 795 893 811 883 825 871 838 856 847 840 850 823 847 808 838 795 826 784 812 775 797 756 809 758 832 755 856 752 880 751 904 753 928 756 949 763 968 748 963 771 946 738 934 768 918 736 904 766 889 738 873 769 860 742 842 775 828 745 805 757 783 751 779 766 772 781 765 763 771 746 777 774 754 744 748 773 733 747 718 775 708 747 688 781 687 758 661 791 673 775 637 805 657 795 616 823 645 819 602 839 641 845 596 855 642 871 601 873 649 895 614 888 662 915 635 899 677 931 660 907 691 942 686 912 707 944 715 910 726 937 744 902 745 928 772 894 766 919 800 885 786 906 827 873 803 889 849 862 817 868 867 848 827 842 873 830 827 816 866 814 820 792 848 802 808 773 826 793 794 758 801 782 774 746 779 763 775 777 800 793 824 814 842 842 850 865 843 885 822 900 797 911 771 920 744 928 716 924 687 911 662 893 639 869 623 840 619 813 628 790 646 772 669 756 663 754 674 756 685 747 673 768 652 746 640 774 623 743 608 768 595 751 593 768 592 751 594 772 595 744 595 776 598 742 598 776 601 740 602 777 603 740 605 777 606 739 608 777 609 739 612 777 612 739 615 778 615 740 618 778 618 740 622 778 621 741 625 778 624 741 628 779 626 741 632 779 629 742 635 779 632 742 639 779 635 742 642 778 638 742 645 777 641 742 648 776 644 742 652 774 647 742 655 773 651 743 659 772 654 743 662 770 657 743 666 769 661 743 670 767 664 743 673 766 668 743 677 764 671 744 681 763 675 744 685 761 679 744 689 760 683 765 682 774 666 785 652 797 639 811 629 828 622 845 619 863 621 879 628 893 639 905 653 915 667 923 683 927 700 927 718 923 735 917 752 912 769 905 786 898 802 889 817 878 831 864 843 849 850 832 849 815 843 801 832 789 819 779 804 770 788 762 772 771 766 781 761 741 778 782 763 742 781 759 780 752 783 755 799 758 816 759 828 757 844 755 859 753 874 752 890 751 906 752 921 755 937 757 952 760 967 767 966 753 975 769 963 750 972 771 960 748 969 772 958 745 966 773 955 743 963 773 953 742 960 774 951 740 957 774 949 739 954 775 947 738 951 775 945 737 948 775 942 736 945 775 939 735 942 775 936 734 939 775 933 734 936 774 930 733 932 774 927 733 929 773 924 733 926 772 921 733 923 772 918 732 920 771 916 732 917 771 913 732 913 770 909 732 910 770 906 732 907 770 903 732 904 770 900 732 900 770 897 732 897 770 894 733 894 770 891 733 891 770 888 733 888 771 885 733 884 771 882 733 881 771 879 734 878 771 876 734 875 772 873 734 871 772 870 735 868 772 867 735 865 773 864 736 862 773 861 736 859 773 858 736 855 774 855 737 852 774 852 737 849 775 849 738 846 775 846 738 842 776 843 738 839 776 840 739 836 777 837 739 833 777 834 739 830 778 831 740 826 779 828 740 823 777 825 740 820 776 821 740 817 774 818 741 813 773 814 741 810 771 810 741 807 770 807 741 803 768 803 742 800 767 799 742 796 765 795 742 793 764 791 742 789 762 787 743 786 761 784 743 782 759 780 743 778 759 780 763 775 771 791 780 806 791 821 803 834 817 844 834 850 851 849 866 842 879 829 890 815 899 800 906 783 912 766 918 750 924 733 928 715 927 697 921 680 913 664 902 650 890 637 876 627 860 620 844 619 828 621 813 628 800 637 788 649 778 661 769 675 763 690 761 707 743 706 778 713 743 703 779 710 743 700 779 708 743 696 779 705 743 693 780 703 743 690 780 700 744 687 781 698 744 683 782 695 745 680 782 693 746 677 783 692 747 674 784 690 748 671 785 688 749 668 786 687 751 665 786 685 752 662 787 684 754 659 788 682 756 657 789 681 757 654 790 680 759 651 791 678 761 649 792 677 763 646 794 675 765 643 795 674 767 641 796 673 769 638 797 671 771 636 798 670 773 633 800 668 775 631 801 666 777 628 803 664 779 626 805 663 781 624 807 661 784 621 808 659 786 619 810 658 788 617 812 656 791 615 814 655 793 613 816 654 795 611 818 652 798 609 820 651 800 607 822 650 803 606 824 650 806 604 825 649 808 603 827 648 811 601 828 648 814 600 830 647 817 599 831 647 819 598 833 646 822 597 835 646 825 596 836 646 828 595 838 645 831 594 840 645 834 594 841 645 837 593 843 645 840 593 844 645 843 592 846 645 846 592 848 645 849 592 849 637 852 592 851 645 855 593 853 635 857 593 854 646 860 594 856 646 863 594 858 647 866 595 860 647 869 596 862 648 872 597 863 649 875 598 865 650 877 599 867 651 880 600 869 652 883 601 870 653 885 603 872 654 888 604 874 655 891 606 875 656 893 608 877 657 896 610 878 659 898 612 880 660 901 614 882 662 903 616 883 663 905 618 884 665 908 620 886 666 910 622 887 668 912 625 889 669 914 627 890 671 916 630 891 673 918 632 892 674 920 635 897 669 922 637 894 677 924 640 902 669 926 643 896 679 927 645 903 674 929 648 897 682 931 651 906 676 933 654 899 685 934 656 906 682 936 659 901 688 937 662 910 683 938 665 902 690 940 668 903 692 941 671 911 689 942 674 904 695 943 677 911 693 944 680 905 698 945 683 915 696 946 686 906 701 946 690 913 701 947 693 907 704 947 696 907 705 948 699 917 706 948 703 908 709 948 706 914 710 948 709 908 712 948 712 908 714 948 716 907 716 947 719 907 718 947 722 907 720 946 725 906 722 945 728 906 724 945 732 905 726 944 735 905 728 943 738 904 730 942 741 903 732 941 744 902 734 940 747 902 736 939 750 901 738 938 753 900 740 937 756 899 742 936 759 899 744 935 763 898 746 934 766 897 748 933 769 896 750 932 772 895 753 931 775 895 755 930 778 894 757 929 781 893 759 928 784 892 761 927 787 891 763 926 791 890 765 925 794 889 768 924 797 888 770 923 800 887 772 922 803 886 774 921 806 885 776 920 809 884 778 918 812 883 780 917 815 882 782 916 818 881 784 914 821 880 786 913 824 879 788 911 826 878 790 910 829 876 792 908 832 875 794 906 834 874 796 904 837 873 797 902 839 872 799 901 842 871 800 899 844 870 802 897 847 869 803 895 849 874 815 892 851 867 806 890 854 865 807 888 856 864 809 886 858 867 818 884 860 862 812 881 862 861 813 879 864 860 814 876 866 859 816 874 868 857 817 871 869 856 818 869 871 855 819 866 872 855 831 863 873 852 821 860 874 852 830 858 875 849 822 855 876 847 823 852 876 845 823 849 877 843 824 846 877 842 824 843 877 840 824 840 877 838 824 837 876 836 824 834 876 834 823 831 875 832 823 828 875 830 822 826 874 829 822 823 873 827 821 820 872 825 821 817 871 824 820 814 869 822 819 811 868 820 819 808 866 819 818 806 864 817 817 803 863 816 816 800 861 814 815 798 859 813 814 795 856 812 812 793 854 810 811 790 852 809 810 788 850 808 809 786 847 806 807 783 845 800 815 781 843 804 805 779 840 799 809 777 837 803 802 775 835 795 809 773 832 801 800 771 829 794 804 769 827 799 797 767 824 791 802 766 821 798 794 764 819 790 798 762 816 796 792 760 813 787 796 759 810 795 789 757 808 794 787 755 805 792 785 754 802 791 783 752 800 790 780 751 797 789 778 749 794 787 775 748 792 786 773 746 789 785 771 745 786 784 768 743 784 783 766 742 781 782 763 759 780 743 778 782 763 742 779 783 765 743 782 744 778 782 763 741 776 781 761 740 773 780 759 739 770 779 757 738 767 778 754 738 763 778 752 738 760 777 750 738 757 777 748 738 753 777 746 739 750 777 744 740 747 777 742 741 743 777 739 742 740 777 737 742 736 777 735 743 733 777 733 743 730 778 730 743 726 778 728 743 723 778 725 743 720 778 723 743 716 778 720 743 713 778 718 743 710 778 715 743 706 753 709 762 711 753 709 743 706 701 704 696 706 690 708 696 706 701 704 690 708 688 726 683 743 677 759 672 776 665 792 657 808 647 823 635 836 621 847 605 850 587 847 571 839 558 827 547 813 538 797 519 809 522 825 519 843 517 861 515 880 514 898 514 916 517 935 519 952 524 969 524 964 530 951 532 937 528 916 526 895 528 873 531 852 535 830 531 820 523 800 516 779 514 783 512 779 510 799 509 817 507 835 505 854 503 872 501 890 501 909 501 927 505 945 511 959 521 971 522 967 518 947 516 927 514 908 514 888 516 869 518 850 520 837 520 818 517 798 514 779 507 766 507 753 512 732 512 710 512 689 517 670 529 652 542 635 557 619 575 607 594 600 613 598 632 602 650 611 667 625 681 642 692 661 700 681 704 702 703 723 698 744 691 764 684 785 677 805 668 825 655 842 640 858 626 866 613 870 598 870 582 865 565 855 551 842 539 826 528 810 518 793 509 776 525 772 538 763 547 783 558 802 569 815 582 825 598 830 610 829 621 824 633 810 646 792 656 773 664 753 672 733 676 715 675 699 667 682 655 665 640 650 624 642 608 639 592 641 575 649 559 663 546 679 538 695 535 716 534 738 534 753 540 767 524 771 511 779 524 771 520 756 521 742 523 721 524 701 527 684 535 669 518 663 517 672 516 679 516 685 517 679 524 663 530 647 535 634 534 617 533 600 525 592 522 595 513 597 509 602 508 614 510 632 511 650 512 668 512 687 515 682 516 685 515 680 519 662 522 644 523 632 521 614 522 599 522 595 514 593 522 595 522 599 521 615 523 631 522 645 519 660 528 663 536 667 547 653 559 640 573 630 588 622 605 619 623 620 639 627 653 637 665 650 675 664 684 679 689 695 690 713 687 730 682 746 676 763 670 779 664 795 655 811 645 825 634 838 619 848 603 850 586 847 570 838 558 826 547 812 538 797 519 809 521 832 518 856 515 880 514 904 516 928 519 949 526 968 510 963 534 946 500 934 530 918 499 904 529 889 501 873 532 860 505 842 537 828 508 805 519 783 514 779 528 772 543 765 526 771 508 777 537 754 506 748 536 733 510 718 537 708 510 687 543 687 520 661 553 673 537 637 568 657 558 616 586 645 582 602 602 641 608 596 618 642 634 601 635 649 658 615 651 662 678 635 661 677 694 660 670 691 704 686 674 707 706 715 672 726 700 744 665 745 691 772 657 766 681 800 647 786 669 827 636 803 652 849 625 817 630 867 611 827 605 873 593 827 578 866 577 820 555 848 564 808 536 826 556 794 520 801 545 774 508 779 526 775 539 800 555 824 577 842 604 850 628 843 648 822 663 797 673 771 683 744 690 716 687 687 674 662 655 639 631 623 603 619 575 628 553 646 535 669 518 663 516 674 518 685 510 673 530 652 508 640 537 623 506 608 531 595 514 593 531 592 513 594 535 595 507 595 539 598 504 598 539 601 503 602 539 603 502 605 539 606 502 608 540 609 502 612 540 612 502 615 540 615 502 618 540 618 503 622 541 621 503 625 541 624 504 628 541 626 504 632 541 629 504 635 542 632 504 639 542 635 505 642 541 638 505 645 539 641 505 648 538 644 505 652 537 647 505 655 535 651 505 659 534 654 505 662 533 657 505 666 531 661 506 670 530 664 506 673 528 668 506 677 527 671 506 681 525 675 506 685 524 679 506 689 522 683 526 687 523 703 523 720 522 737 520 754 524 771 515 776 506 782 515 776 524 771 520 754 522 736 523 718 524 700 528 683 536 667 547 653 559 640 573 629 589 622 607 619 625 621 641 628 655 639 667 652 677 667 685 683 690 700 690 718 686 735 680 752 674 769 668 786 660 802 651 817 640 832 626 844 611 850 594 849 577 842 563 831 551 818 545 824 539 831 563 800 535 832 560 806 537 835 565 802 539 837 560 812 541 840 567 805 544 842 564 812 546 845 569 807 548 847 570 809 551 850 571 810 553 852 573 811 555 854 574 812 558 856 576 814 560 858 577 815 563 861 578 816 566 862 580 817 568 864 581 818 571 866 583 819 574 868 584 819 577 869 586 820 579 871 588 821 582 872 589 821 585 873 591 822 588 874 593 822 591 875 595 823 594 875 597 823 597 876 599 824 600 876 600 824 603 877 602 824 606 877 604 824 609 877 606 824 612 877 608 823 614 876 610 823 617 876 613 833 620 875 613 822 623 874 616 829 626 873 616 820 629 872 617 819 631 871 618 818 634 869 623 829 636 868 621 816 639 866 622 814 641 864 624 813 644 862 625 812 646 860 629 818 649 858 627 809 651 856 628 807 653 854 635 817 655 851 630 804 657 849 631 803 659 847 632 802 661 844 633 800 663 842 634 799 665 839 635 797 667 837 636 796 669 834 638 794 670 832 639 792 672 829 640 790 674 827 641 788 675 824 642 786 677 821 644 784 678 818 645 782 679 815 646 780 681 812 647 778 682 809 648 776 683 806 649 774 685 803 650 772 686 800 651 770 687 797 652 768 688 794 653 766 689 791 654 763 690 788 655 761 691 784 655 759 692 781 656 757 693 778 657 755 694 775 658 753 695 772 659 750 696 769 660 748 697 766 660 746 698 763 661 744 699 760 662 742 700 756 663 740 701 753 663 738 702 750 664 736 703 747 665 734 704 744 666 732 705 741 666 730 706 738 667 728 706 735 668 726 707 732 668 724 708 729 669 722 709 725 669 720 709 722 670 718 710 719 670 716 710 716 670 714 710 713 670 712 711 709 670 710 711 706 670 709 711 703 677 706 710 700 670 706 710 696 670 704 710 693 679 700 709 690 669 701 708 687 675 697 708 683 668 698 707 680 668 696 706 677 675 691 705 674 666 693 704 671 675 687 702 668 665 690 701 665 670 685 700 662 663 688 698 659 671 679 697 656 662 685 695 654 668 677 694 651 660 682 692 648 667 673 690 645 658 679 688 643 662 672 686 640 657 677 685 638 661 667 683 635 655 674 681 632 654 673 679 630 652 671 677 627 651 669 675 625 650 668 672 622 649 666 670 620 647 665 668 618 646 663 666 616 644 662 663 614 643 660 661 612 641 659 658 610 640 657 656 608 638 656 653 606 636 655 651 604 635 654 648 603 633 653 645 601 631 652 643 600 630 651 640 599 628 650 637 598 626 649 634 597 624 648 632 596 622 648 629 595 621 647 626 594 619 646 623 594 617 646 620 593 615 646 617 593 613 645 614 592 612 637 611 592 610 645 608 592 609 645 605 592 607 645 602 593 605 645 600 593 604 645 597 594 602 645 594 594 600 645 591 595 599 646 588 596 597 646 585 597 596 646 582 598 594 647 579 599 592 647 577 600 591 648 574 601 589 648 571 603 588 649 568 604 586 650 566 606 585 650 563 607 583 651 561 609 581 652 558 611 579 654 556 613 577 655 553 615 575 656 551 617 573 658 549 619 571 659 546 621 569 661 544 624 568 663 542 626 566 664 540 628 564 666 538 631 562 668 536 633 561 670 533 636 559 671 531 638 558 673 529 641 557 674 527 643 556 675 525 646 555 677 524 649 554 678 522 651 553 680 520 654 552 681 518 657 551 682 516 659 550 684 515 662 549 685 513 665 548 687 512 668 547 688 511 671 547 690 509 674 546 691 508 677 545 693 507 680 544 695 507 683 544 698 506 686 543 700 506 690 542 703 505 693 542 705 505 696 541 708 505 700 541 710 505 703 541 713 505 706 541 715 506 710 541 718 506 713 540 720 506 716 540 723 506 720 540 725 506 723 540 728 506 726 540 730 506 730 540 733 506 733 540 735 505 736 540 737 504 740 540 739 503 743 540 741 502 747 539 744 501 750 539 746 501 753 540 748 500 757 540 750 500 760 540 752 500 763 541 754 501 767 542 757 501 770 542 759 502 773 543 761 503 776 544 763 504 779 545 765 506 782 506 778 522 780 505 782 523 784 505 786 525 787 505 789 526 791 505 793 528 795 504 796 529 799 504 800 531 803 504 803 532 807 504 807 534 810 503 810 535 814 503 813 537 818 503 817 538 821 503 820 540 825 503 823 541 828 502 826 541 831 543 822 548 814 540 800 532 786 525 772 534 767 543 761 503 778 544 763 505 781 546 766 506 784 547 768 507 786 548 771 509 789 549 773 510 792 550 775 512 794 551 778 513 797 552 780 515 800 554 782 516 802 555 785 518 805 556 787 519 808 557 789 521 810 549 796 523 813 559 792 524 816 554 797 526 819 560 794 528 821 555 801 530 824 562 797 532 827 558 803 534 829 563 800 535 832 539 831 502 826 541 831 502 830 540 834 502 833 539 837 501 836 539 840 501 839 538 843 501 843 538 846 500 846 537 849 500 849 537 852 499 852 536 855 499 855 536 858 499 859 535 861 498 862 535 864 498 865 535 867 497 868 534 870 497 871 534 873 497 875 534 876 496 878 505 880 515 882 514 899 514 916 517 933 519 950 522 967 529 966 515 975 532 963 513 972 533 960 510 969 534 958 508 966 535 955 506 963 536 953 504 960 537 951 503 957 537 949 501 954 537 947 500 951 538 945 499 948 538 942 498 945 538 939 498 942 538 936 497 939 537 933 496 936 537 930 496 932 536 927 496 929 536 924 495 926 535 921 495 923 534 918 495 920 534 915 495 917 533 912 495 913 533 909 495 910 533 906 495 907 532 903 495 904 532 900 495 900 532 897 495 897 533 894 495 894 533 891 495 891 533 888 495 887 533 885 496 884 533 882 496 881 534 879 496 878 506 878 516 878 506 878 496 878 463 873 458 875 453 877 458 875 463 873 453 877 452 886 456 890 458 886 464 881 467 875 466 859 463 842 460 826 458 809 456 821 453 828 442 842 434 853 433 858 438 875 442 882 449 886 450 890 452 886 456 890 452 886 453 875 450 858 449 853 453 837 456 825 458 813 458 792 458 770 457 749 455 727 450 706 443 686 432 667 418 653 400 641 383 627 378 626 371 630 364 636 343 636 326 640 309 651 294 665 284 683 276 703 269 724 262 744 261 766 263 788 268 809 275 829 285 848 298 866 313 881 329 890 345 895 364 894 384 888 403 879 420 866 434 850 446 832 456 814 439 805 424 791 416 812 404 830 389 844 373 852 356 856 341 854 328 847 314 834 303 815 295 795 290 774 288 754 291 740 300 720 308 700 313 693 329 678 350 673 355 673 373 685 390 698 404 694 409 696 416 715 420 734 423 754 424 774 423 794 440 802 455 814 440 801 441 781 441 762 439 742 436 722 431 703 422 685 431 677 440 669 443 681 447 692 442 681 432 664 418 649 412 644 412 633 418 618 423 613 430 611 431 607 432 611 433 607 434 611 444 618 449 627 450 640 447 660 446 681 447 692 441 673 434 655 431 650 432 630 432 611 425 607 432 611 432 623 431 636 430 643 434 655 439 666 429 674 420 682 411 672 396 670 382 659 370 653 352 654 335 657 323 662 310 673 299 686 291 702 286 718 279 735 275 752 275 769 278 786 282 803 288 820 296 835 306 849 318 862 333 871 349 875 367 874 383 868 398 860 411 849 422 835 431 821 452 840 450 860 453 883 442 886 464 885 439 883 468 880 437 877 469 876 433 866 468 856 430 853 463 828 456 813 439 802 421 791 460 798 422 771 461 770 421 753 459 742 419 738 455 715 416 724 447 689 412 710 433 665 407 699 410 673 413 646 401 673 390 700 390 665 390 629 379 657 367 684 366 658 364 631 347 676 336 635 331 679 311 646 319 691 291 666 308 704 277 693 302 720 268 721 293 740 259 750 290 761 260 779 294 781 266 808 300 803 276 836 309 823 292 862 320 837 312 883 334 848 337 895 353 854 365 896 374 850 392 887 391 839 416 872 405 825 436 852 415 808 451 828 421 792 438 807 424 833 405 854 380 869 352 875 325 867 304 847 289 823 280 795 275 767 277 739 288 713 298 687 317 666 338 656 366 653 391 666 409 672 422 685 440 669 445 692 448 683 434 672 449 662 409 646 452 633 419 613 443 613 422 610 425 607 439 608 418 610 445 612 415 613 449 615 412 617 451 618 411 620 453 620 409 623 454 623 408 625 455 626 407 628 456 629 407 631 456 632 406 633 456 634 406 636 456 637 405 638 456 640 405 641 456 643 405 643 455 646 405 646 455 649 408 649 454 652 412 652 454 655 416 656 454 658 419 659 453 661 423 662 453 664 426 666 452 667 428 669 452 670 430 672 452 672 432 676 452 675 434 679 452 678 436 683 452 681 438 686 452 684 440 690 452 687 442 693 452 691 441 697 431 703 424 688 413 675 409 672 396 669 384 660 372 654 357 654 341 655 330 658 317 667 305 677 297 690 291 704 285 719 276 717 266 715 303 727 264 718 303 729 263 721 301 731 262 724 300 733 261 727 299 735 260 731 298 737 259 734 297 739 258 737 296 742 257 740 296 744 256 743 295 746 256 746 295 748 255 749 294 751 255 753 294 753 255 756 294 755 255 759 294 757 255 762 294 759 255 766 294 761 255 769 294 763 255 772 295 765 255 775 295 767 256 779 295 769 256 782 296 771 257 785 296 773 257 788 297 775 258 791 297 777 258 795 297 779 259 798 298 782 260 801 298 784 261 804 299 786 261 807 300 788 262 810 300 790 263 813 301 792 264 816 301 794 265 820 302 797 266 823 303 799 267 826 303 801 269 829 304 803 270 832 305 805 271 835 306 807 273 837 307 809 274 840 308 812 276 843 309 814 277 846 310 816 279 849 311 818 280 852 312 819 282 854 313 821 284 857 314 822 286 860 315 824 288 862 316 825 290 865 317 827 292 868 318 828 294 870 319 830 296 872 320 831 298 875 321 833 300 877 322 834 303 879 323 835 305 882 325 837 307 884 326 838 310 886 327 839 312 888 329 840 315 889 330 841 318 891 331 842 320 893 333 843 323 894 334 844 326 895 334 853 329 897 337 846 332 898 339 847 334 899 341 847 337 899 343 848 340 900 345 849 343 901 347 849 346 901 349 850 349 901 351 850 352 901 353 850 355 901 356 850 358 901 358 850 361 900 360 849 364 900 362 849 367 899 364 849 370 899 366 848 373 898 369 847 376 897 371 847 379 897 373 846 382 896 375 845 384 895 377 844 387 894 379 843 390 892 381 842 393 891 382 841 396 890 384 840 398 888 386 839 401 887 387 838 404 885 389 836 406 884 391 835 409 882 392 834 412 880 394 832 414 878 395 831 417 877 396 829 419 875 398 828 421 873 399 826 424 870 400 825 426 868 402 823 428 866 403 821 430 864 404 819 432 862 405 818 434 859 406 816 436 857 407 814 438 854 408 813 440 852 409 811 442 850 410 809 444 847 411 808 446 844 412 806 447 842 413 804 449 839 414 802 451 837 414 800 452 834 415 799 454 831 416 797 455 828 416 795 457 826 417 793 458 823 418 791 459 820 418 790 461 817 419 788 461 817 457 816 455 828 452 840 449 849 450 862 452 874 452 886 444 890 462 890 438 886 467 886 435 883 470 883 434 880 472 880 433 878 473 876 432 875 473 873 431 872 473 870 430 869 473 867 429 866 472 864 428 863 472 860 427 860 472 857 427 857 471 854 426 854 471 851 428 851 471 848 430 848 470 845 433 845 469 841 435 841 469 838 438 838 468 835 440 835 467 831 443 831 467 828 446 827 466 824 449 823 465 821 450 820 465 818 451 816 464 815 452 813 463 812 453 809 463 809 448 802 434 795 419 788 461 814 418 791 461 817 420 790 461 814 418 789 462 811 418 787 462 807 418 785 463 804 418 782 463 801 418 781 463 798 418 778 464 795 418 776 464 792 418 775 464 788 418 773 464 785 418 771 464 782 418 769 464 779 418 767 465 776 418 765 465 773 418 763 464 770 418 761 464 766 417 759 464 763 417 757 464 760 417 755 464 757 417 753 464 754 417 751 464 751 416 750 463 748 416 748 463 745 424 746 463 741 416 745 462 738 425 742 462 735 416 742 462 732 423 739 461 729 415 740 461 726 426 735 460 723 415 737 460 720 423 732 459 717 414 734 458 714 425 728 458 710 414 731 457 707 420 726 456 704 413 728 455 701 423 720 454 698 413 725 453 695 421 718 452 692 412 723 451 689 418 716 450 686 411 720 449 683 420 710 448 681 411 717 446 678 416 709 445 675 410 714 443 672 417 703 441 670 409 712 440 667 414 704 438 664 408 710 436 662 415 697 434 660 408 708 432 657 411 699 430 655 407 705 427 653 410 694 425 651 406 703 423 649 407 696 420 647 409 683 418 645 404 700 415 643 401 701 413 641 398 702 410 640 395 703 "/>
    <path id="Block1Jump63"
        fill="none"
        stroke="#0E1F7C"
		stroke-width="2px"
		d="M 361 684 L 369 624 358 682 366 626 356 680 362 631 353 678 359 630 352 671 356 630 350 679 353 629 349 667 350 629 347 680 347 629 345 670 344 629 344 680 341 630 341 668 338 630 340 681 335 631 338 671 332 632 337 682 329 633 334 670 326 634 334 682 323 635 333 682 321 636 329 676 318 637 330 685 315 639 325 675 312 641 327 688 310 642 323 681 307 644 325 690 305 646 320 682 302 648 323 692 300 650 316 683 298 652 320 695 296 654 315 689 294 656 318 697 292 659 310 689 290 661 311 693 288 664 314 700 286 666 314 702 284 669 313 703 282 672 312 705 281 675 311 706 279 678 303 701 278 681 310 710 277 684 309 711 275 687 303 709 274 691 308 714 273 694 308 716 272 697 307 717 271 700 307 719 270 703 306 721 269 706 305 722 268 709 296 720 267 712 304 725 266 715 275 718 285 720 275 718 266 715 227 702 226 696 218 690 226 696 227 702 226 696 214 686 201 677 187 670 189 658 192 662 195 658 202 656 203 636 204 617 205 598 206 578 208 559 210 540 210 521 208 511 204 507 199 504 199 501 196 504 196 501 195 504 186 508 184 515 183 535 182 554 181 574 179 594 179 614 178 634 178 641 181 651 186 660 189 658 192 662 189 656 182 669 165 665 148 663 131 662 114 662 97 663 80 665 63 667 46 668 45 683 48 680 50 684 60 690 59 711 58 731 56 751 54 770 52 789 49 809 45 828 41 847 35 866 33 871 26 878 18 884 18 881 17 884 15 880 8 872 6 862 9 842 14 824 19 805 22 786 25 766 27 747 29 727 31 708 32 689 37 685 41 680 45 683 48 680 45 683 46 686 46 677 46 668 46 652 44 655 42 652 32 648 32 628 32 609 31 589 29 569 28 549 26 530 24 510 23 502 27 497 32 494 33 491 36 494 37 491 39 495 46 498 50 506 51 526 53 545 55 565 57 585 58 604 59 624 60 644 51 650 49 654 46 652 44 655 46 649 41 668 32 668 29 660 32 659 37 650 41 647 62 647 84 645 105 643 126 643 147 643 169 645 188 650 206 660 222 674 226 681 226 693 227 697 230 701 226 702 219 706 214 705 196 695 176 687 156 683 134 681 113 682 92 683 71 686 51 688 39 688 35 684 32 678 29 677 32 668 29 660 32 668 52 667 73 666 93 663 113 662 133 662 153 663 173 666 192 673 189 690 190 684 191 687 202 695 201 717 200 738 199 760 198 782 198 804 197 826 196 848 192 855 187 858 181 862 171 853 168 846 168 826 169 807 170 788 171 768 172 749 173 730 174 710 176 691 186 684 188 687 190 684 189 688 188 707 187 727 186 746 185 765 184 785 183 804 183 823 182 842 181 862 186 864 181 862 182 845 182 828 183 811 184 794 185 777 185 760 186 743 187 727 188 710 189 693 187 682 187 670 202 660 184 659 204 653 176 631 206 621 177 602 208 588 179 572 210 556 181 540 212 524 183 508 208 506 185 504 196 508 196 537 194 567 192 596 191 626 189 656 182 669 165 665 148 663 131 662 114 662 97 663 80 665 63 667 46 668 59 685 56 684 30 697 61 714 27 726 59 743 24 755 56 773 20 784 52 802 15 813 47 831 7 840 39 859 4 867 27 883 19 878 23 851 30 824 36 797 39 769 42 742 45 714 46 686 46 677 46 668 65 647 42 656 62 642 30 634 61 618 29 607 59 593 28 579 57 565 26 550 54 536 23 522 52 508 25 495 36 497 38 523 41 548 43 573 44 598 45 623 46 649 41 668 35 668 33 650 45 690 57 645 71 688 82 643 97 685 109 641 123 684 136 641 149 684 163 643 173 689 189 648 194 697 214 664 215 708 232 691 226 696 210 683 192 673 189 690 198 688 173 699 203 718 171 729 202 747 169 759 201 777 168 788 199 806 167 818 198 836 166 848 189 862 186 864 177 864 193 863 169 861 196 860 166 857 199 857 164 854 200 854 162 850 201 850 161 847 202 847 161 844 202 844 162 841 202 841 162 837 202 838 162 834 202 834 162 831 202 831 162 828 203 828 162 824 203 825 162 821 203 822 163 818 203 819 163 815 203 816 163 812 203 813 163 809 203 810 163 806 203 806 163 803 204 803 163 799 204 800 164 796 204 797 164 793 204 794 164 790 204 791 164 787 204 788 164 784 204 785 164 781 204 782 165 778 204 779 165 775 205 776 165 771 205 773 165 768 205 770 165 765 205 766 165 762 205 763 165 759 205 760 166 756 205 757 166 753 205 754 166 749 205 751 166 746 206 748 166 743 206 745 167 740 206 742 167 737 206 739 167 734 206 736 167 731 206 733 167 728 206 730 168 725 206 727 168 721 207 723 168 718 207 720 168 715 207 717 168 712 207 714 169 709 207 711 169 706 207 708 169 703 207 705 169 699 207 702 169 696 208 699 170 693 208 696 170 690 208 693 170 687 202 689 175 685 196 685 180 683 183 691 185 679 187 667 189 656 190 639 191 622 192 605 193 588 194 572 195 555 196 538 197 521 196 504 190 501 205 501 181 504 211 505 179 508 213 508 178 511 215 511 178 514 215 514 178 517 216 517 178 521 216 521 178 524 216 524 177 527 216 527 177 530 216 530 177 533 216 533 177 536 216 536 177 539 216 539 176 542 215 543 176 545 215 546 176 549 215 549 176 552 215 552 176 555 214 555 176 558 214 558 175 561 214 561 175 564 214 564 175 567 213 568 175 570 213 571 175 574 213 574 174 577 213 577 174 580 212 580 174 583 212 583 174 586 212 587 174 589 212 590 174 592 211 593 173 595 211 596 173 597 211 600 173 600 211 603 173 603 211 606 173 606 211 609 173 609 210 613 173 612 210 616 173 614 210 619 172 617 210 622 172 620 210 626 172 623 209 629 172 626 209 632 172 628 209 635 172 631 209 638 172 634 209 641 172 637 208 644 172 640 208 648 171 642 208 651 171 645 208 654 171 648 208 657 171 651 207 660 176 654 202 662 180 658 197 664 195 674 180 668 164 665 148 663 132 662 116 662 100 663 84 664 68 666 52 667 49 677 46 686 45 704 44 722 42 740 41 758 39 776 36 793 33 811 29 829 24 846 20 863 18 881 24 885 11 883 31 883 5 879 34 881 3 875 36 878 1 872 38 875 0 869 39 872 0 866 40 870 0 863 41 867 0 860 42 864 0 857 43 861 0 854 44 858 1 852 45 855 1 849 46 852 2 846 46 849 2 843 47 846 3 840 48 843 4 837 49 840 5 834 50 837 5 832 50 834 6 829 51 831 7 826 52 828 8 823 52 825 9 820 53 822 10 817 53 819 11 814 54 816 11 811 55 813 12 808 55 810 13 805 56 807 13 802 56 803 14 799 56 800 15 796 57 797 15 793 57 794 16 790 58 791 16 787 58 788 17 784 58 785 17 780 59 782 17 777 59 778 18 774 60 775 18 771 60 772 19 768 60 769 19 765 61 766 19 762 61 763 20 759 61 760 20 756 61 757 20 752 62 753 21 749 62 750 21 746 62 747 22 743 63 744 22 740 63 741 22 737 63 738 23 734 63 734 23 731 64 731 23 728 64 728 23 725 64 725 24 722 64 722 24 719 64 719 24 716 65 716 24 713 65 713 25 710 65 709 25 706 65 706 25 703 65 703 25 700 65 700 26 697 66 697 26 694 66 694 26 691 66 691 26 688 66 687 26 685 60 684 30 682 54 680 35 680 35 668 41 668 43 658 46 649 46 632 45 614 44 597 43 580 42 563 40 546 39 529 37 512 36 494 27 492 43 490 21 495 51 494 19 497 53 497 17 501 55 501 17 504 56 504 17 507 56 507 17 510 56 510 18 513 56 513 19 516 56 516 19 520 57 520 19 523 57 523 20 526 57 526 20 529 58 529 20 532 58 532 21 536 58 536 21 539 59 539 21 542 59 542 21 545 59 545 22 548 60 548 22 552 60 552 22 555 60 555 23 558 60 558 23 561 61 561 23 564 61 564 23 567 61 567 24 571 61 571 24 574 62 574 24 577 62 577 24 580 62 580 24 583 62 583 25 587 63 586 25 590 63 590 25 593 63 593 25 596 63 596 25 599 64 599 25 603 64 602 25 606 64 604 26 609 64 607 26 612 64 610 26 615 64 613 26 618 65 616 26 622 65 618 26 625 65 621 26 628 65 624 26 631 65 626 26 634 65 629 26 637 66 632 26 640 66 634 26 643 66 637 26 646 66 640 26 649 66 642 26 652 66 645 26 656 66 648 38 657 55 653 57 667 45 668 32 668 30 654 29 683 33 646 32 690 36 643 35 693 38 642 38 694 41 641 40 694 44 641 43 694 46 641 46 694 49 641 49 694 51 641 52 694 54 641 55 694 56 641 58 693 59 641 61 693 61 641 64 693 64 641 67 692 67 641 69 692 70 640 72 692 73 640 75 691 76 639 78 691 79 639 81 690 82 639 83 690 84 639 86 690 87 638 89 690 90 638 92 689 93 638 95 689 96 638 98 689 99 637 100 689 102 637 103 688 105 637 106 688 108 637 109 688 111 637 112 688 114 637 115 688 117 637 117 688 120 637 120 688 123 637 123 688 126 637 126 688 129 637 129 688 132 637 132 688 135 637 135 687 138 637 138 688 140 637 141 688 143 637 143 688 146 637 146 688 149 638 149 688 152 638 152 688 155 638 155 689 158 638 157 689 161 639 160 690 164 639 162 690 167 639 165 691 170 640 167 691 173 640 170 692 176 640 172 693 179 641 175 693 182 642 177 694 185 642 179 695 187 643 182 696 190 644 184 697 193 645 186 697 196 647 189 699 198 648 191 700 201 650 193 701 204 651 195 702 207 653 198 703 210 655 200 705 212 657 202 706 215 659 205 707 218 662 207 708 220 664 209 709 223 667 211 710 226 670 213 711 228 672 215 712 231 675 218 713 232 680 220 713 233 687 229 697 229 707 231 695 224 711 233 687 229 696 226 705 229 696 233 687 " />
</svg>
