<?xml version="1.0" encoding="UTF-8" standalone="no"?>
<svg xmlns="http://www.w3.org/2000/svg" version="1.1" width="843" height="1379">
    <path id="Block1Jump0"
        fill="none"
        stroke="#878787"
		stroke-width="2px"
		d="M 654 111 L "/>
    <path id="Block1Jump1"
        fill="none"
        stroke="#878787"
		stroke-width="2px"
		d="M 681 147 L 702 180 708 190 726 208 717 186 717 207 708 213 708 192 699 150 699 177 690 189 690 163 681 129 681 148 672 148 672 133 663 114 663 118 654 115 654 108 651 108 625 78 648 111 671 144 677 154 699 152 700 149 709 137 700 125 685 104 706 137 730 176 711 149 690 116 674 95 695 128 717 161 736 192 722 173 701 140 679 107 665 89 685 119 706 152 727 184 740 206 733 196 712 164 690 131 669 98 658 85 674 110 696 143 717 175 738 208 741 213 719 180 699 152 677 154 693 182 685 195 692 206 698 211 687 194 682 184 706 217 697 203 676 168 692 191 714 222 708 212 686 179 669 150 681 168 702 200 721 226 718 221 697 188 676 156 665 140 677 154 705 181 733 209 742 218 722 187 701 155 680 122 659 90 652 83 664 102 685 134 707 167 728 199 743 227 733 211 712 178 691 146 669 114 647 82 654 93 675 126 696 158 717 190 739 223 743 233 723 202 701 170 680 138 659 105 642 83 643 84 664 117 686 150 707 181 728 214 737 232 734 226 712 193 691 162 670 129 649 96 638 83 654 108 675 141 696 173 718 205 732 231 723 217 702 185 681 153 659 120 638 87 633 83 644 99 665 132 686 165 707 197 725 227 713 209 691 176 670 144 649 111 629 81 625 78 617 78 621 74 621 82 625 78 648 112 668 147 682 182 705 212 738 234 771 258 802 284 831 312 841 347 843 385 840 423 835 457 832 496 832 534 835 572 825 608 797 637 764 661 729 681 694 698 660 708 638 727 636 767 634 807 629 847 627 884 650 917 683 941 712 969 714 980 717 996 "/>
    <path id="Block1Jump2"
        fill="none"
        stroke="#878787"
		stroke-width="2px"
		d="M 727 1122 L 734 1114 730 1074 726 1034 725 1022 729 1062 734 1103 734 1115 725 1161 725 1160 725 1130 725 1100 725 1070 725 1040 725 1010 725 980 716 970 716 995 716 1025 716 1055 716 1085 716 1115 716 1145 716 1175 716 1201 680 1223 701 1189 707 1180 692 1217 680 1246 653 1282 626 1293 626 1295 635 1304 644 1282 644 1295 653 1295 653 1280 662 1258 662 1265 671 1279 671 1250 680 1222 680 1235 680 1265 689 1255 689 1250 689 1220 698 1170 698 1175 698 1205 698 1235 707 1223 707 1220 707 1190 707 1160 707 1138 702 1153 717 1165 722 1125 723 1119 724 1079 724 1065 723 1025 723 1009 738 976 739 975 738 984 742 979 735 971 741 985 738 981 728 968 741 992 728 972 721 966 733 984 740 999 739 996 715 963 723 975 739 1004 728 987 711 965 712 967 734 999 738 1010 718 979 710 970 723 991 738 1018 729 1003 708 975 713 982 734 1015 738 1025 718 994 708 982 724 1006 739 1033 729 1018 708 985 707 988 713 997 734 1030 738 1039 719 1009 707 995 724 1021 739 1047 729 1033 708 1000 707 1002 714 1012 735 1045 739 1055 719 1024 706 1009 724 1036 739 1063 730 1048 708 1016 706 1016 714 1028 735 1060 741 1072 719 1040 706 1023 725 1052 741 1080 730 1064 709 1031 707 1031 714 1043 735 1076 741 1088 720 1055 707 1039 725 1067 741 1095 730 1079 709 1046 708 1047 715 1058 736 1091 741 1103 720 1070 708 1055 725 1082 741 1110 731 1094 710 1061 708 1063 715 1073 736 1106 742 1118 720 1085 708 1070 726 1097 742 1125 731 1109 710 1077 708 1078 715 1089 737 1121 741 1132 721 1101 708 1085 726 1113 740 1138 732 1125 710 1092 708 1091 716 1104 737 1137 740 1144 721 1116 707 1099 727 1128 739 1151 732 1140 711 1107 707 1105 716 1119 737 1152 738 1156 722 1131 706 1111 727 1143 737 1162 732 1155 711 1122 707 1119 716 1134 735 1167 722 1146 707 1127 727 1158 735 1174 733 1170 711 1138 706 1133 717 1150 733 1178 722 1162 705 1138 706 1141 728 1174 731 1183 712 1153 704 1144 717 1165 730 1189 723 1177 702 1149 707 1156 728 1189 729 1191 717 1187 715 1172 701 1206 687 1240 669 1267 647 1289 619 1300 613 1303 610 1293 618 1307 623 1310 613 1295 613 1291 628 1310 623 1303 616 1289 618 1291 633 1310 619 1286 628 1300 637 1310 623 1288 623 1284 639 1309 642 1309 634 1297 626 1281 628 1285 646 1309 644 1306 629 1278 639 1294 650 1308 633 1282 632 1276 649 1302 654 1307 644 1290 635 1274 638 1278 658 1305 654 1299 638 1271 649 1287 661 1303 643 1275 642 1269 659 1296 664 1300 654 1284 645 1267 648 1272 667 1297 664 1292 648 1264 659 1280 670 1294 653 1269 651 1261 669 1289 672 1291 664 1277 653 1258 658 1265 675 1288 674 1286 656 1254 669 1274 678 1285 663 1262 658 1251 681 1282 674 1271 661 1247 668 1259 684 1279 663 1247 662 1242 679 1267 686 1276 673 1255 665 1238 668 1243 689 1273 684 1264 668 1235 678 1252 692 1270 673 1240 669 1231 689 1261 695 1267 683 1249 672 1227 678 1237 697 1263 694 1258 673 1222 689 1246 699 1259 683 1234 676 1218 678 1222 699 1254 702 1256 694 1242 677 1214 688 1230 705 1252 704 1251 683 1218 680 1210 699 1239 707 1248 693 1227 681 1205 688 1215 709 1244 704 1236 682 1203 682 1200 698 1224 711 1240 693 1212 684 1195 687 1200 709 1233 712 1235 703 1221 686 1190 698 1209 714 1230 714 1229 692 1197 688 1185 708 1217 716 1225 703 1205 689 1180 697 1193 717 1220 713 1214 692 1181 691 1176 708 1202 719 1216 702 1190 693 1171 697 1178 718 1211 721 1211 713 1199 694 1167 708 1187 723 1207 702 1175 697 1163 718 1195 725 1202 713 1184 698 1158 707 1172 726 1197 723 1192 702 1160 700 1153 718 1180 729 1193 712 1168 701 1151 702 1153 " />
    <path id="Block2Jump3"
        fill="none"
        stroke="#095BA6"
		stroke-width="2px"
		d="M 583 1137 L 609 1167 616 1174 625 1216 628 1176 631 1136 634 1096 634 1090 627 1051 625 1042 602 1009 598 1003 596 963 594 923 592 883 590 843 589 819 592 779 595 739 598 697 608 736 618 775 625 799 625 793 625 763 625 733 625 703 625 673 "/>
    <path id="Block2Jump4"
        fill="none"
        stroke="#095BA6"
		stroke-width="2px"
		d="M 616 598 L 616 628 616 658 616 688 616 718 616 748 616 778 616 808 616 838 "/>
    <path id="Block2Jump5"
        fill="none"
        stroke="#095BA6"
		stroke-width="2px"
		d="M 608 917 L 607 928 607 929 607 913 607 883 607 853 607 823 607 793 607 763 607 733 607 703 607 673 607 643 607 613 607 583 607 553 607 523 607 493 607 463 598 434 598 448 598 478 598 508 598 538 598 568 598 598 598 628 598 658 598 688 598 718 598 748 598 778 598 808 598 838 598 868 598 898 598 928 598 958 598 961 595 921 592 881 589 841 589 819 580 803 571 816 567 856 563 896 562 904 571 924 571 913 571 883 571 853 571 823 571 793 571 763 571 733 571 709 575 749 579 789 580 803 579 843 578 883 577 923 576 963 575 1003 574 1043 571 1065 568 1025 565 985 562 945 562 928 562 958 562 988 562 1018 562 1048 562 1078 562 1108 562 1138 "/>
    <path id="Block2Jump6"
        fill="none"
        stroke="#095BA6"
		stroke-width="2px"
		d="M 571 1204 L 571 1183 571 1153 571 1123 571 1093 571 1063 571 1033 571 1003 571 973 571 943 571 927 574 887 577 847 580 803 580 843 580 883 580 923 580 963 580 1003 580 1024 580 1064 580 1104 580 1144 580 1184 580 1224 580 1245 580 1228 580 1198 580 1168 580 1138 580 1108 580 1078 580 1048 580 1018 580 988 580 958 580 928 580 898 580 868 580 838 580 808 580 778 580 748 580 718 580 688 580 658 580 628 580 598 580 568 580 538 580 508 580 478 580 448 580 418 580 388 589 372 589 373 589 403 589 433 589 463 589 493 589 523 589 553 589 583 589 613 589 643 589 673 589 703 589 733 589 763 589 793 589 823 589 853 589 883 589 913 589 943 589 973 589 1003 589 1033 589 1063 589 1093 589 1123 589 1153 589 1183 589 1213 589 1243 589 1267 590 1227 591 1187 592 1147 593 1107 594 1067 595 1027 598 1003 616 1009 598 1012 607 969 607 973 "/>
    <path id="Block2Jump7"
        fill="none"
        stroke="#095BA6"
		stroke-width="2px"
		d="M 616 1039 L 616 1018 616 988 616 958 616 928 "/>
    <path id="Block2Jump8"
        fill="none"
        stroke="#095BA6"
		stroke-width="2px"
		d="M 624 1007 L 625 1011 625 1012 625 1033 625 1063 625 1073 634 1090 661 1088 688 1064 706 1054 "/>
    <path id="Block2Jump9"
        fill="none"
        stroke="#095BA6"
		stroke-width="2px"
		d="M 699 1133 L 697 1148 697 1149 697 1123 697 1093 697 1063 697 1033 697 1003 697 973 688 952 688 958 688 988 688 1018 688 1048 688 1078 688 1108 688 1138 688 1168 679 1199 679 1183 679 1153 679 1123 679 1093 679 1063 679 1033 679 1003 679 973 670 941 670 958 670 988 670 1018 670 1048 670 1078 670 1108 670 1138 670 1168 670 1198 661 1245 661 1243 661 1213 661 1183 661 1153 661 1123 661 1093 661 1063 661 1033 661 1003 661 973 661 943 652 923 652 928 652 958 652 988 652 1018 652 1048 652 1078 652 1108 652 1138 652 1168 652 1198 652 1228 643 1262 643 1243 643 1213 643 1183 643 1153 643 1123 643 1093 643 1063 643 1033 643 1003 643 973 643 943 634 906 634 928 634 958 634 988 634 1018 634 1048 634 1078 634 1108 634 1138 634 1168 634 1198 634 1228 634 1258 634 1275 628 1235 625 1216 620 1176 615 1136 610 1096 605 1056 598 1015 598 1018 598 1048 598 1078 598 1108 598 1138 598 1168 598 1198 598 1228 598 1258 607 1284 607 1273 607 1243 607 1213 607 1183 607 1153 607 1123 607 1093 607 1063 607 1033 616 1065 616 1078 616 1108 616 1138 616 1168 616 1198 616 1228 616 1258 625 1281 625 1273 625 1243 625 1213 625 1183 625 1153 625 1152 592 1130 557 1107 555 1109 557 1110 575 1074 593 1038 602 1019 608 1001 608 983 610 974 616 934 622 894 624 886 623 888 615 911 627 889 616 914 613 923 619 911 630 892 625 903 624 906 611 938 611 937 613 934 623 912 625 909 633 895 623 916 612 941 607 956 612 945 624 920 636 898 624 923 613 949 593 996 601 978 614 951 625 926 639 901 626 928 615 954 602 981 588 1016 590 1011 603 983 616 956 628 930 642 904 629 932 617 957 605 985 592 1013 578 1041 577 1043 595 1007 608 983 627 951 641 914 644 906 631 934 619 959 606 986 593 1014 580 1042 569 1070 581 1044 594 1016 607 988 620 961 632 935 646 909 633 937 622 963 609 990 596 1018 583 1046 571 1071 568 1083 573 1072 584 1047 598 1019 611 991 623 963 635 938 650 911 650 912 637 940 625 965 612 992 599 1020 586 1049 574 1074 566 1090 584 1054 602 1019 617 1058 634 1091 644 1130 646 1138 659 1181 667 1220 669 1230 672 1229 661 1252 653 1263 657 1256 658 1253 670 1229 671 1226 681 1203 683 1201 703 1153 691 1178 678 1206 666 1232 653 1259 643 1275 650 1261 663 1233 675 1208 688 1180 701 1152 708 1132 698 1154 685 1182 672 1210 660 1235 647 1263 635 1284 645 1264 657 1236 669 1211 682 1183 695 1155 708 1128 710 1118 705 1129 693 1156 679 1184 666 1212 655 1237 642 1264 629 1287 640 1265 652 1237 664 1212 677 1184 690 1156 703 1129 712 1105 701 1129 688 1156 675 1184 662 1212 650 1237 637 1265 623 1290 635 1265 648 1237 660 1212 673 1184 686 1156 699 1129 710 1103 712 1094 708 1103 696 1129 684 1156 671 1184 657 1212 646 1238 633 1265 618 1293 631 1265 643 1238 655 1212 668 1184 681 1156 694 1129 706 1103 713 1084 704 1103 692 1128 680 1155 666 1183 653 1211 642 1237 629 1264 616 1292 611 1298 614 1292 627 1264 639 1237 651 1211 664 1183 677 1155 690 1128 702 1103 714 1073 713 1074 700 1102 688 1127 676 1154 662 1182 649 1211 637 1236 625 1263 612 1291 606 1299 610 1290 623 1262 636 1235 648 1210 661 1182 674 1154 686 1126 698 1101 711 1073 714 1062 710 1072 696 1100 685 1126 672 1153 659 1181 646 1209 634 1234 621 1261 608 1290 602 1299 606 1289 619 1261 632 1233 644 1208 657 1180 670 1152 683 1125 695 1099 708 1071 713 1055 706 1069 693 1098 681 1123 669 1150 656 1178 642 1206 631 1232 618 1259 605 1287 598 1297 603 1286 616 1258 629 1231 641 1205 654 1177 667 1149 680 1122 691 1097 704 1069 712 1048 703 1067 690 1095 678 1120 665 1148 652 1176 639 1204 627 1229 615 1256 602 1284 595 1294 600 1283 613 1255 626 1227 638 1202 651 1174 664 1146 677 1119 689 1093 702 1065 710 1042 700 1063 687 1091 675 1117 663 1144 650 1172 637 1200 625 1226 612 1253 599 1281 592 1290 598 1279 611 1251 623 1224 635 1198 648 1170 661 1142 674 1115 686 1090 699 1062 709 1034 698 1060 684 1088 673 1113 660 1141 647 1169 634 1197 622 1222 609 1249 596 1277 590 1286 595 1275 608 1247 621 1219 633 1194 646 1166 659 1138 672 1111 683 1085 697 1057 709 1026 696 1055 683 1083 671 1108 658 1135 645 1163 632 1191 620 1217 607 1244 594 1272 587 1283 594 1268 607 1240 619 1213 631 1188 644 1160 657 1132 670 1104 682 1079 695 1051 708 1023 708 1017 708 1019 695 1047 681 1075 670 1101 657 1128 644 1156 631 1184 619 1210 606 1237 593 1265 584 1279 593 1260 594 1258 606 1232 607 1230 619 1205 620 1202 631 1180 632 1177 644 1152 645 1149 657 1124 658 1121 669 1096 671 1094 681 1071 683 1068 694 1043 696 1040 707 1015 709 1012 709 1008 708 1009 695 1038 683 1063 682 1066 670 1091 658 1115 657 1118 644 1146 632 1172 631 1174 619 1200 608 1224 606 1227 593 1255 582 1275 589 1260 602 1232 615 1204 627 1179 640 1151 653 1123 665 1096 677 1070 690 1042 703 1014 709 998 700 1017 687 1045 674 1073 662 1098 649 1126 636 1154 623 1182 611 1207 599 1234 585 1262 579 1271 582 1264 595 1236 608 1209 620 1184 633 1156 646 1127 659 1100 671 1075 684 1047 697 1019 710 986 707 992 694 1020 681 1048 668 1076 656 1101 643 1128 630 1157 617 1185 605 1210 593 1237 580 1265 577 1266 590 1238 603 1211 614 1186 628 1157 641 1129 654 1102 665 1078 678 1049 692 1021 704 993 710 975 702 994 689 1021 676 1049 663 1078 651 1102 639 1129 626 1158 612 1187 601 1211 588 1238 575 1261 585 1239 598 1212 610 1187 623 1159 636 1130 649 1103 660 1078 674 1050 687 1022 699 994 711 969 711 966 709 969 697 995 684 1022 671 1050 658 1078 646 1103 634 1130 621 1159 608 1187 596 1212 583 1239 573 1257 581 1239 593 1212 605 1188 605 1187 618 1159 631 1131 644 1103 656 1079 656 1078 669 1050 682 1022 695 995 706 970 707 969 709 960 704 969 693 995 680 1022 667 1050 654 1078 642 1103 629 1131 616 1159 603 1187 591 1212 579 1239 571 1251 577 1239 589 1211 601 1186 614 1158 627 1130 640 1103 652 1077 665 1049 678 1021 691 994 703 968 706 956 700 968 689 994 676 1021 663 1049 650 1077 638 1103 625 1130 612 1158 599 1186 587 1211 574 1239 569 1245 573 1238 585 1211 597 1185 610 1157 623 1129 636 1102 648 1076 661 1048 674 1020 687 993 699 968 704 952 697 967 685 992 672 1019 659 1047 646 1076 634 1101 622 1128 608 1156 595 1184 584 1210 571 1237 568 1238 569 1236 582 1209 594 1183 607 1155 620 1127 632 1100 644 1075 657 1047 670 1019 683 991 695 966 701 949 693 965 681 990 669 1018 656 1046 642 1074 631 1099 618 1126 605 1155 592 1183 580 1208 568 1230 578 1207 590 1181 603 1154 616 1126 629 1098 641 1072 654 1045 667 1017 680 990 692 963 698 946 690 963 678 988 665 1015 652 1043 639 1071 627 1097 615 1124 602 1152 589 1180 577 1205 566 1223 575 1205 587 1178 600 1151 613 1123 626 1096 638 1070 651 1042 664 1014 676 987 689 961 694 944 687 959 675 985 662 1012 649 1041 636 1068 624 1094 612 1121 598 1149 586 1177 573 1203 565 1217 572 1201 584 1175 597 1148 610 1119 623 1092 635 1066 648 1039 661 1011 674 984 686 957 691 942 684 956 672 982 659 1009 646 1037 634 1064 621 1091 609 1118 596 1146 583 1173 571 1199 562 1213 570 1197 582 1171 595 1143 608 1115 620 1088 632 1063 645 1034 659 1006 671 979 683 954 688 939 682 952 670 977 657 1005 644 1033 631 1061 619 1086 606 1113 593 1141 580 1170 568 1195 561 1207 567 1192 579 1167 592 1139 605 1111 618 1083 630 1058 643 1030 656 1002 669 975 681 949 684 938 680 947 668 972 655 999 642 1027 629 1055 617 1081 604 1108 591 1136 578 1164 566 1190 559 1201 566 1186 578 1161 591 1133 604 1104 617 1077 628 1052 642 1024 655 996 667 969 679 943 681 935 679 939 667 964 655 991 641 1019 628 1047 616 1073 604 1100 591 1128 578 1156 566 1182 558 1193 566 1175 568 1173 578 1150 580 1147 591 1122 593 1119 605 1094 606 1091 617 1067 618 1064 629 1041 630 1038 642 1013 643 1010 655 985 657 982 668 958 669 955 678 932 668 953 653 984 642 1009 629 1037 617 1062 603 1093 591 1117 578 1145 566 1171 557 1185 561 1178 562 1175 573 1153 574 1150 586 1125 587 1122 599 1097 600 1094 611 1069 613 1067 623 1044 625 1041 636 1016 638 1013 649 988 651 985 662 961 663 958 674 935 675 932 674 931 671 938 659 963 646 991 633 1019 620 1047 608 1072 595 1099 582 1127 569 1156 557 1181 556 1178 566 1157 579 1129 592 1101 605 1074 617 1049 630 1021 643 992 656 965 667 940 671 928 664 942 653 967 640 994 627 1022 614 1051 602 1076 589 1103 576 1131 563 1159 556 1169 560 1160 573 1132 586 1104 599 1077 611 1051 624 1023 637 995 650 968 662 943 667 926 659 944 647 969 635 996 621 1024 608 1052 596 1078 584 1105 571 1133 558 1161 556 1160 568 1133 582 1105 594 1078 606 1052 619 1024 632 996 645 969 657 944 664 923 655 944 643 969 630 996 617 1024 604 1053 592 1078 579 1105 566 1133 556 1151 564 1133 577 1105 590 1078 602 1053 615 1025 628 996 640 969 652 944 661 920 650 944 638 969 626 996 612 1025 599 1053 588 1078 575 1105 562 1133 555 1143 560 1133 573 1105 585 1078 597 1053 610 1025 623 997 636 969 648 944 657 919 646 943 634 969 622 996 608 1024 595 1052 583 1077 571 1104 558 1133 554 1135 555 1133 569 1105 581 1077 593 1052 606 1024 619 996 632 969 644 943 655 915 642 942 630 968 617 995 604 1023 591 1051 579 1076 567 1104 554 1127 565 1103 578 1076 589 1050 603 1022 616 994 628 967 640 942 651 913 638 941 627 966 614 993 601 1021 588 1049 576 1075 563 1102 553 1124 557 1110 559 1107 561 1102 554 1113 557 1106 557 1107 572 1074 583 1036 595 998 605 960 611 927 617 891 624 860 629 824 633 787 635 753 635 718 634 683 628 648 625 611 626 574 627 539 622 502 613 468 603 433 596 394 592 362 621 370 656 391 688 415 725 427 762 416 792 389 815 356 823 321 802 290 773 262 741 237 708 214 680 193 681 193 "/>
    <path id="Block2Jump10"
        fill="none"
        stroke="#095BA6"
		stroke-width="2px"
		d="M 584 152 L 611 139 638 150 665 172 683 190 674 201 674 189 665 147 665 174 656 195 656 189 656 160 647 119 647 145 647 174 638 192 638 189 638 160 638 130 629 100 629 115 629 145 629 174 620 189 620 160 620 130 620 100 611 91 611 115 611 145 611 174 602 184 602 160 602 130 602 100 593 107 593 115 593 145 593 174 584 176 584 160 584 130 584 128 580 141 573 167 562 178 564 178 581 143 590 122 573 107 572 123 568 118 583 91 580 95 568 122 566 131 571 120 584 93 590 85 587 91 574 118 566 139 579 113 580 110 591 86 595 83 592 89 591 91 580 116 578 118 568 147 579 123 591 96 600 81 592 99 579 127 568 155 580 130 592 103 605 81 593 106 581 133 568 163 582 135 594 108 606 83 612 76 607 85 596 110 583 137 570 165 570 171 571 167 584 139 597 112 609 86 617 74 610 88 598 113 586 141 573 169 570 173 588 154 595 125 620 143 645 161 667 182 690 205 698 207 693 212 695 204 690 210 692 200 686 208 690 196 682 208 687 191 678 206 685 186 674 205 675 204 684 180 674 201 670 204 674 196 675 194 682 175 674 191 666 204 670 196 680 170 680 171 667 198 662 203 663 200 677 173 678 165 674 173 661 201 658 202 671 174 676 160 669 174 655 200 666 175 674 154 664 175 650 200 662 175 673 148 672 149 660 175 647 198 658 174 671 148 671 143 668 148 656 174 643 197 654 174 666 147 668 138 665 147 652 173 639 196 650 173 663 146 667 133 661 145 648 172 635 196 647 171 659 144 664 130 658 142 645 169 631 195 643 169 656 141 661 125 655 140 642 167 627 193 627 192 641 165 653 138 659 122 652 136 639 163 626 190 623 192 625 188 638 161 651 134 656 118 649 132 637 159 624 186 619 192 623 183 636 156 649 129 653 116 648 126 635 154 622 181 614 192 621 177 634 150 647 123 650 111 647 118 634 146 621 173 610 191 622 167 623 165 635 139 636 137 648 112 649 109 648 107 647 108 633 138 622 163 609 190 606 190 616 170 617 168 629 142 630 139 642 115 643 112 646 102 638 118 626 145 613 173 602 189 610 174 623 147 635 120 643 98 632 121 620 149 606 176 598 189 604 177 617 150 630 122 641 97 641 94 639 98 627 123 614 151 601 178 594 189 599 178 612 151 625 123 636 98 638 90 634 98 622 124 610 151 597 178 590 188 594 178 608 151 620 124 632 98 636 86 630 98 618 124 605 151 592 178 586 187 590 178 603 151 616 124 628 98 633 81 626 98 614 123 601 150 588 177 582 186 586 177 599 150 612 123 623 98 631 78 622 97 610 122 597 149 584 176 578 186 582 176 595 148 608 121 620 96 627 76 618 95 606 120 594 148 580 175 574 184 579 174 592 147 604 120 616 94 623 74 615 92 603 118 590 145 577 173 572 179 575 172 589 144 601 117 613 92 619 74 612 90 600 115 587 142 574 171 571 176 564 178 556 178 560 174 560 182 564 178 542 194 513 212 490 234 491 234 " />
</svg>
