<?xml version="1.0" encoding="UTF-8" standalone="no"?>
<svg xmlns="http://www.w3.org/2000/svg" version="1.1" width="129" height="122">
    <path id="Block1Jump1"
        fill="none"
        stroke="#FFFF00"
		stroke-width="2px"
		d="M 63 14 L 60 23 63 14 65 4 59 27 54 49 45 71 37 93 29 115 25 118 28 106 62 94 33 94 40 75 34 53 48 47 57 41 62 27 63 12 65 4 59 17 75 32 43 44 76 52 109 60 71 66 34 71 63 79 92 87 71 100 99 114 101 117 95 113 102 122 96 119 104 120 99 117 90 115 103 116 99 113 86 113 83 111 102 112 97 109 76 107 90 107 101 107 80 105 69 102 74 103 100 103 96 101 66 100 63 98 90 99 99 99 80 97 71 96 64 96 58 84 56 76 49 66 41 57 32 49 43 45 54 42 57 26 59 10 63 0 68 2 62 2 66 4 70 6 60 6 66 8 71 10 59 10 63 12 73 14 57 14 60 16 71 16 74 18 55 18 63 20 75 22 71 22 54 22 57 24 73 24 77 27 56 26 52 26 62 28 78 31 72 30 50 30 54 32 76 33 80 35 53 34 49 34 62 36 81 39 72 38 47 38 78 41 83 43 52 42 46 41 62 44 102 45 129 48 112 48 72 46 32 45 4 44 7 46 42 47 82 49 121 50 124 52 92 51 52 50 12 48 0 48 21 51 62 52 101 53 119 56 111 56 71 54 31 53 5 52 41 55 81 57 114 60 91 59 51 58 15 56 11 56 21 59 61 60 101 61 109 64 71 62 31 61 16 60 41 63 81 65 104 68 91 67 51 66 21 65 57 68 61 68 96 69 99 71 71 70 31 69 26 69 41 71 81 73 94 75 90 75 51 74 31 73 61 76 94 79 71 78 33 77 40 79 81 81 95 83 90 83 50 82 32 81 60 84 96 87 70 86 30 85 40 87 80 89 97 91 90 91 50 90 29 89 60 92 98 95 70 94 32 93 28 93 40 95 80 97 98 99 90 99 50 98 29 98 34 103 29 111 24 120 21 117 27 117 31 117 27 115 22 113 37 113 30 111 23 109 29 109 43 109 39 107 28 107 25 105 49 106 40 103 26 101 30 101 54 102 51 100 30 99 27 97 50 98 60 98 55 98 50 98 55 98 60 98 " />
</svg>
