<?xml version="1.0" encoding="UTF-8" standalone="no"?>
<svg xmlns="http://www.w3.org/2000/svg" version="1.1" width="349" height="901">
    <path id="Block1Jump0"
        fill="none"
        stroke="#FEE3C5"
		stroke-width="2px"
		d="M 129 669 L 127 675 129 669 130 663 126 680 123 697 134 710 145 723 157 736 168 749 180 762 192 775 203 789 214 801 226 814 237 828 246 837 235 825 223 811 212 798 200 786 189 772 177 759 166 746 155 733 143 720 132 707 122 694 127 677 130 662 137 659 126 656 136 662 125 659 135 666 124 663 134 670 123 667 134 674 122 671 133 678 121 675 132 681 120 678 131 685 119 682 130 688 118 686 130 690 117 690 129 692 116 694 128 694 116 698 131 697 119 701 132 699 122 705 134 700 125 708 136 703 127 711 139 706 130 714 141 709 132 717 144 712 135 720 147 715 138 723 149 718 140 726 152 721 143 729 155 724 145 732 157 727 148 735 160 730 151 738 162 733 153 741 165 736 156 744 168 739 159 747 170 742 161 750 173 745 164 753 176 748 167 756 178 751 169 759 181 754 172 762 183 757 174 765 186 760 177 768 188 763 179 771 191 766 182 774 194 769 185 777 196 772 187 780 199 775 190 783 202 778 193 786 204 780 195 788 207 783 198 791 209 786 200 794 212 789 203 797 214 792 205 800 217 795 208 803 220 798 211 806 222 801 213 809 225 805 216 812 228 808 219 815 230 811 221 818 233 814 224 821 236 817 227 824 238 820 229 827 241 823 232 830 243 825 234 833 246 828 237 836 248 831 239 839 251 834 242 842 254 837 244 845 249 841 254 837 249 841 244 845 244 845 "/>
    <path id="Block1Jump1"
        fill="none"
        stroke="#FEE3C5"
		stroke-width="2px"
		d="M 272 666 L 274 672 272 666 269 661 276 677 282 695 268 705 253 714 239 723 224 732 210 742 196 751 181 760 166 770 152 779 138 788 123 798 108 807 94 816 86 821 101 812 115 803 130 793 144 784 159 775 173 765 188 756 202 747 217 737 231 728 246 719 260 709 275 700 284 693 277 677 269 661 273 654 262 658 274 657 263 662 276 660 265 665 278 665 267 669 279 668 268 673 280 671 269 676 282 675 271 679 284 678 273 683 285 681 274 685 286 685 274 687 288 688 275 688 290 692 276 690 291 696 276 692 286 699 274 693 282 702 272 695 279 704 271 695 275 707 269 697 272 709 265 699 268 711 262 701 265 713 258 703 262 716 255 705 258 718 252 708 255 720 249 710 252 722 245 712 249 724 242 714 245 726 239 716 242 728 235 718 238 730 232 720 235 733 229 722 232 735 225 725 228 737 222 727 225 739 219 729 222 741 215 731 218 743 212 733 215 746 208 735 212 748 205 738 209 750 202 740 205 752 199 742 202 754 195 744 199 756 192 746 195 758 189 748 192 760 185 750 188 763 182 753 186 765 179 754 182 767 176 757 179 769 172 759 175 771 169 761 172 773 166 763 169 775 162 765 165 778 159 767 162 780 155 770 159 782 152 772 155 784 149 774 152 786 145 776 148 788 142 778 145 791 139 780 142 793 135 783 138 795 132 785 135 797 129 787 132 799 125 789 128 801 122 791 125 803 118 793 122 805 116 795 119 808 112 797 115 810 109 800 112 812 105 802 109 814 102 804 105 816 99 806 102 818 95 808 98 821 92 810 95 823 89 813 92 825 85 815 88 827 82 817 85 829 79 819 85 829 79 819 85 829 79 819 79 819 "/>
    <path id="Block1Jump2"
        fill="none"
        stroke="#FEE3C5"
		stroke-width="2px"
		d="M 50 347 L 46 351 50 347 54 342 43 355 32 368 29 374 41 387 53 400 65 412 77 425 89 438 101 450 111 461 99 448 87 435 75 422 63 410 51 397 39 384 29 372 40 359 54 342 62 341 53 334 59 345 51 337 57 348 48 340 54 351 46 344 52 354 43 347 49 357 41 350 46 360 38 353 43 363 35 356 41 366 32 359 39 368 30 362 38 370 27 366 36 371 24 370 35 373 21 374 37 375 25 378 38 376 28 381 40 377 31 384 42 379 34 387 44 382 36 390 47 385 39 393 50 388 42 396 53 391 45 399 56 395 48 402 59 398 51 405 62 401 54 409 65 404 57 412 68 407 60 415 71 411 63 418 74 414 66 421 77 416 69 424 79 419 71 427 82 422 74 429 85 425 77 432 87 427 79 435 90 431 82 438 93 434 85 441 96 436 88 444 98 439 90 447 101 442 93 449 103 445 95 452 106 447 98 455 109 451 101 458 112 454 104 461 115 457 107 465 118 460 110 468 118 460 110 468 118 460 110 468 110 468 "/>
    <path id="Block1Jump3"
        fill="none"
        stroke="#FEE3C5"
		stroke-width="2px"
		d="M 305 328 L 309 333 305 328 302 323 312 337 322 351 332 364 341 379 328 390 316 402 303 414 290 425 277 437 267 446 280 434 293 423 306 411 319 399 331 388 341 377 331 363 321 349 311 335 301 322 303 315 294 322 305 318 296 324 307 321 298 328 309 324 300 331 312 328 303 334 314 330 305 337 316 334 307 340 318 337 310 343 321 340 312 346 323 343 314 349 325 346 317 353 328 349 319 356 330 353 321 359 332 355 323 362 335 359 326 365 337 362 328 368 339 364 330 370 341 367 331 372 343 370 332 374 346 374 333 375 349 379 335 378 345 383 333 379 342 386 331 380 339 389 330 382 335 391 328 383 332 394 325 386 329 397 322 389 327 399 319 391 324 402 316 394 321 405 314 396 318 407 311 399 315 410 308 402 312 412 305 404 310 415 302 407 306 418 299 410 303 421 296 413 300 423 293 415 298 426 290 418 295 429 287 420 292 431 284 423 289 434 281 426 286 436 279 428 283 439 275 431 280 442 272 434 276 445 269 437 273 448 266 440 270 451 263 443 267 454 260 445 267 454 260 445 267 454 260 445 260 445 "/>
    <path id="Block1Jump4"
        fill="none"
        stroke="#FEE3C5"
		stroke-width="2px"
		d="M 85 165 L 91 164 85 165 79 166 92 164 111 156 130 148 148 138 167 126 179 119 199 119 220 117 240 113 261 108 272 107 274 118 273 137 270 157 264 178 254 196 241 212 224 223 202 230 180 234 162 234 141 230 123 222 106 209 94 193 86 173 111 180 125 185 131 186 155 185 173 186 186 187 191 212 197 236 213 217 229 198 245 179 261 160 278 140 254 133 230 125 206 118 195 114 179 133 163 153 147 172 131 191 114 210 108 218 127 198 138 187 161 175 183 161 193 158 220 152 217 127 217 112 233 131 249 151 265 170 252 193 234 211 213 233 197 213 181 194 165 175 149 156 135 139 150 169 146 176 147 201 155 203 149 229 145 244 164 244 209 242 194 242 154 242 132 240 144 240 184 240 222 238 214 238 174 238 134 238 122 236 164 236 204 236 230 234 194 234 154 234 115 232 144 232 184 232 224 232 237 230 214 230 174 230 134 230 108 228 124 228 164 228 204 228 243 226 234 226 194 226 154 226 114 226 103 224 144 224 184 224 224 224 248 222 214 222 174 222 134 222 98 220 124 220 164 220 204 220 244 220 252 218 234 218 194 218 154 218 114 218 94 216 104 216 144 216 184 216 224 216 256 214 214 214 174 214 134 214 91 212 124 212 164 212 204 212 244 212 260 210 234 210 194 210 154 210 114 210 88 208 104 208 144 208 184 208 224 208 263 206 254 206 214 206 174 206 134 206 94 206 85 204 124 204 164 204 204 204 244 204 266 202 234 202 194 202 154 202 114 202 83 200 104 200 144 200 184 200 224 200 264 200 269 198 254 198 214 198 174 198 134 198 94 198 81 196 124 196 164 196 204 196 244 196 271 194 234 194 194 194 154 194 114 194 79 192 104 192 144 192 184 192 224 192 264 192 273 190 254 190 214 190 174 190 134 190 94 190 77 188 84 188 124 188 164 188 204 188 244 188 275 186 234 186 194 186 154 186 114 186 76 184 104 184 144 184 184 184 224 184 264 184 276 182 254 182 214 182 174 182 134 182 94 182 74 180 84 180 124 180 164 180 204 180 244 180 278 178 234 178 194 178 154 178 114 178 73 176 104 176 144 176 184 176 224 176 264 176 279 174 254 174 214 174 174 174 134 174 94 174 72 172 84 172 124 172 164 172 204 172 244 172 280 170 274 170 234 170 194 170 154 170 114 170 71 168 104 168 144 168 184 168 224 168 264 168 282 166 254 166 214 166 174 166 134 166 94 166 70 164 84 164 124 164 164 164 204 164 244 164 283 162 274 162 234 162 194 162 154 162 114 162 74 162 69 160 104 160 144 160 184 160 224 160 264 160 283 158 254 158 214 158 174 158 134 158 94 158 74 156 84 156 124 156 164 156 204 156 244 156 283 156 256 150 244 146 247 139 255 130 271 109 287 90 272 92 287 94 258 96 264 96 287 98 274 98 242 100 287 102 254 102 232 102 220 104 264 104 287 106 274 106 234 106 204 106 171 108 204 108 244 108 287 110 254 110 214 110 174 110 165 112 184 112 224 112 264 112 287 114 274 114 234 114 194 114 159 116 204 116 244 116 287 118 254 118 214 118 174 118 153 120 184 120 224 120 264 120 287 122 274 122 234 122 194 122 154 122 147 124 164 124 204 124 244 124 287 126 254 126 214 126 174 126 139 128 184 128 224 128 264 128 287 130 274 130 234 130 194 130 154 130 132 132 164 132 204 132 244 132 287 134 254 134 214 134 174 134 134 134 124 136 144 136 184 136 224 136 264 136 286 138 274 138 234 138 194 138 154 138 115 140 124 140 164 140 204 140 244 140 286 142 254 142 214 142 174 142 134 142 107 144 144 144 184 144 224 144 264 144 285 146 274 146 234 146 194 146 154 146 114 146 98 148 124 148 164 148 204 148 244 148 285 150 254 150 214 150 174 150 134 150 87 152 104 152 144 152 184 152 224 152 264 152 284 154 274 154 234 154 194 154 154 154 114 154 74 156 84 156 124 156 164 156 204 156 244 156 283 158 254 158 214 158 174 158 134 158 94 158 69 158 75 158 81 158 75 158 69 158 69 158 "/>
    <path id="Block1Jump5"
        fill="none"
        stroke="#FEE3C5"
		stroke-width="2px"
		d="M 169 259 L 169 265 169 259 169 253 169 270 169 283 169 266 169 253 175 248 163 248 175 251 163 251 175 255 163 255 175 258 163 258 175 262 163 262 175 266 163 266 175 270 163 270 175 273 163 273 175 277 163 277 175 280 163 280 175 284 163 284 175 288 163 288 169 288 175 288 169 288 163 288 163 288 " />
    <path id="Block2Jump6"
        fill="none"
        stroke="#2584BB"
		stroke-width="2px"
		d="M 64 99 L 59 102 64 99 70 96 52 106 32 116 23 121 24 130 42 140 63 145 73 144 94 137 114 129 128 119 121 114 100 108 80 102 70 99 73 86 40 101 4 118 0 122 14 115 50 98 78 88 60 96 24 113 3 125 34 111 70 94 84 90 44 108 6 128 17 123 54 106 89 91 64 103 27 120 8 131 37 118 74 101 94 93 83 99 47 115 11 135 21 130 57 113 93 96 100 95 67 111 31 127 14 137 41 125 77 108 106 97 87 106 51 123 17 141 24 137 60 120 97 103 111 99 70 118 34 135 20 143 44 132 80 115 117 100 90 113 54 130 25 146 64 127 100 111 125 101 110 108 74 125 38 142 28 148 47 140 84 123 120 106 131 103 94 120 57 137 34 150 67 135 103 118 138 104 113 115 77 132 39 152 51 147 87 130 123 113 145 105 133 111 97 128 61 144 43 155 71 142 107 125 143 108 153 106 117 123 81 140 51 156 90 137 127 120 161 106 137 118 100 135 64 152 57 157 74 149 110 132 146 115 170 107 156 113 120 130 84 147 61 157 79 156 114 140 151 122 164 114 140 125 104 142 65 158 94 144 130 128 166 111 174 107 166 111 174 107 166 111 174 107 174 107 "/>
    <path id="Block2Jump7"
        fill="none"
        stroke="#2584BB"
		stroke-width="2px"
		d="M 90 80 L 95 82 90 80 84 79 104 85 124 90 145 93 166 96 185 96 207 94 227 92 246 87 266 80 267 75 259 55 246 39 231 25 214 15 194 11 173 10 155 13 135 21 117 31 101 45 90 62 85 73 110 65 128 61 140 58 155 56 163 54 169 52 184 51 194 52 207 54 215 56 228 78 237 95 253 76 248 44 229 27 206 8 190 27 174 46 158 65 142 84 132 96 142 65 151 65 148 91 145 106 164 106 204 106 221 105 194 104 154 104 126 104 144 103 184 102 224 103 238 102 214 101 174 100 134 101 113 101 124 100 164 98 204 98 250 99 234 98 194 96 154 96 114 99 102 98 144 95 184 94 224 95 261 97 254 96 214 93 174 92 134 93 93 95 124 92 164 90 204 90 244 93 271 94 234 90 194 88 154 88 114 91 84 92 104 90 144 87 184 86 224 87 264 91 279 91 254 88 214 85 174 84 134 85 94 89 77 89 84 88 124 84 164 82 204 82 244 85 287 88 274 86 234 82 194 80 154 80 114 83 70 86 104 82 144 79 184 78 224 79 264 83 285 84 254 80 214 77 174 76 134 77 94 81 70 82 84 80 124 76 164 74 204 74 244 77 284 82 257 71 245 66 230 61 206 65 205 43 196 40 202 15 207 0 194 0 154 0 144 3 164 2 204 2 222 5 214 5 174 4 133 7 144 7 184 6 224 7 231 10 194 8 154 8 124 12 164 10 204 10 239 14 214 13 174 12 134 13 116 16 144 15 184 14 224 15 244 19 234 18 194 16 154 16 114 19 109 21 124 20 164 18 204 18 244 21 250 23 214 21 174 20 134 21 104 26 144 23 184 22 224 23 254 28 234 26 194 24 154 24 114 27 98 30 124 28 164 26 204 26 244 29 258 32 214 29 174 28 134 29 94 35 104 34 144 31 184 30 224 31 262 37 234 34 194 32 154 32 114 35 90 39 124 36 164 34 204 34 244 37 265 41 254 40 214 37 174 36 134 37 94 41 87 43 104 42 144 39 184 38 224 39 268 46 234 42 194 40 154 40 114 43 84 48 124 44 164 42 204 42 244 45 271 50 254 48 214 45 174 44 134 45 94 49 81 52 104 50 144 47 184 46 224 47 264 51 273 54 234 50 194 48 154 48 114 51 79 57 124 52 164 50 204 50 244 53 275 58 254 56 214 53 174 52 134 53 94 57 76 61 104 58 144 55 184 54 224 55 264 59 277 63 234 58 194 56 154 56 114 59 74 65 84 64 124 60 164 58 204 58 244 61 279 67 254 64 214 61 174 60 134 61 94 65 72 70 104 66 144 63 184 62 224 63 264 67 281 71 274 70 234 66 194 64 154 64 114 67 71 74 84 72 124 68 164 66 204 66 244 69 282 75 254 72 214 69 174 68 134 69 94 73 70 78 104 74 144 71 184 70 224 71 264 75 284 80 274 78 234 74 194 72 154 72 114 75 74 79 68 82 84 80 124 76 164 74 204 74 244 77 285 84 254 80 214 77 174 76 134 77 94 81 68 84 74 83 80 82 74 83 68 84 68 84 "/>
    <path id="Block2Jump8"
        fill="none"
        stroke="#2584BB"
		stroke-width="2px"
		d="M 123 483 L 120 474 123 483 120 474 123 483 122 505 119 526 116 547 113 569 111 591 109 612 106 634 112 640 132 645 153 650 161 648 166 639 171 618 177 596 183 575 198 553 211 571 216 581 221 602 228 624 237 648 249 648 270 642 290 635 291 624 285 604 281 583 276 561 271 540 267 518 262 497 256 477 248 477 226 481 204 485 181 486 158 486 137 483 128 481 143 504 152 517 161 527 172 524 184 521 205 518 225 520 235 544 244 567 249 584 253 595 257 611 263 612 291 608 275 627 259 646 255 651 241 630 227 609 215 588 210 580 226 561 242 542 258 523 269 510 243 516 227 521 210 519 189 519 171 538 152 562 149 569 147 578 143 604 138 613 144 637 148 654 164 634 177 620 179 596 181 570 183 545 186 520 187 495 189 481 173 500 156 519 140 539 124 558 108 578 137 581 148 584 145 589 142 605 140 612 130 638 126 649 110 630 103 620 105 596 108 571 112 546 115 521 116 512 132 531 148 550 164 569 180 588 183 592 157 584 148 577 148 563 165 543 183 523 193 520 208 522 221 534 237 553 242 566 246 575 249 583 253 594 279 593 288 592 271 573 255 554 239 534 223 515 207 496 195 482 203 514 228 511 235 509 245 492 252 463 268 465 237 467 244 467 269 469 254 469 227 469 216 471 224 471 264 471 270 474 234 474 200 474 203 501 204 514 178 514 153 514 145 509 130 490 113 467 124 467 132 469 112 471 138 471 156 474 112 476 124 476 156 478 134 478 112 481 144 481 156 481 154 507 155 515 181 515 207 514 235 509 240 534 240 560 246 584 253 608 256 617 247 633 241 663 234 663 225 661 249 661 260 658 254 658 223 656 244 656 275 654 234 654 222 651 264 651 295 649 254 649 221 647 244 647 284 647 308 645 274 645 234 645 219 643 264 643 307 640 294 640 254 640 218 638 244 638 284 638 306 636 274 636 234 636 216 633 224 633 264 633 305 631 294 631 254 631 215 629 244 629 284 629 304 627 274 627 234 627 214 625 224 625 264 625 303 622 294 622 254 622 213 620 244 620 284 620 302 618 274 618 234 618 211 615 224 615 264 615 301 613 294 613 254 613 210 611 244 611 284 611 300 609 274 609 234 609 209 607 224 607 264 607 299 604 254 604 214 604 208 602 244 602 284 602 298 600 274 600 234 600 206 597 224 597 264 597 297 595 254 595 214 595 205 593 244 593 284 593 296 591 274 591 234 591 204 589 224 589 264 589 295 586 254 586 214 586 203 584 244 584 284 584 294 582 274 582 234 582 201 579 224 579 264 579 293 577 254 577 214 577 200 575 244 575 284 575 292 573 274 573 234 573 199 571 224 571 264 571 291 568 254 568 214 568 198 566 204 566 244 566 284 566 290 564 274 564 234 564 198 561 224 561 264 561 289 561 262 567 249 567 246 562 238 557 227 536 211 525 195 523 175 530 168 539 156 563 149 587 143 611 143 619 152 635 156 639 158 663 173 661 148 661 133 658 174 656 164 656 124 656 113 654 154 654 176 651 144 651 104 651 91 649 134 649 177 647 164 647 124 647 91 645 114 645 154 645 178 643 144 643 104 643 92 640 134 640 174 640 179 638 164 638 124 638 93 636 114 636 154 636 181 633 144 633 104 633 93 631 134 631 174 631 182 629 164 629 124 629 94 627 114 627 154 627 183 625 144 625 104 625 94 622 134 622 174 622 184 620 164 620 124 620 95 618 114 618 154 618 185 615 144 615 104 615 95 613 134 613 174 613 187 611 164 611 124 611 96 609 114 609 154 609 188 607 144 607 104 607 96 604 134 604 174 604 189 602 164 602 124 602 97 600 114 600 154 600 190 597 184 597 144 597 104 597 97 595 134 595 174 595 191 593 164 593 124 593 98 591 114 591 154 591 192 589 184 589 144 589 104 589 98 586 134 586 174 586 194 584 164 584 124 584 99 582 114 582 154 582 195 579 184 579 144 579 100 577 134 577 174 577 196 575 164 575 124 575 100 573 114 573 154 573 197 571 184 571 144 571 101 568 134 568 174 568 198 568 244 567 284 566 290 566 284 566 244 566 204 566 164 566 124 566 101 564 114 564 154 564 194 564 234 564 274 564 289 561 264 561 224 561 184 561 144 561 102 559 134 559 174 559 214 559 254 559 288 557 244 557 204 557 164 557 124 557 102 555 114 555 154 555 194 555 234 555 274 555 288 553 264 553 224 553 184 553 144 553 103 550 134 550 174 550 214 550 254 550 286 548 244 548 204 548 164 548 124 548 103 546 114 546 154 546 194 546 234 546 274 546 285 543 264 543 224 543 184 543 144 543 104 541 134 541 174 541 214 541 254 541 284 539 244 539 204 539 164 539 124 539 104 537 114 537 154 537 194 537 234 537 274 537 284 535 264 535 224 535 184 535 144 535 105 532 134 532 174 532 214 532 254 532 282 530 244 530 204 530 164 530 124 530 105 528 114 528 154 528 194 528 234 528 274 528 281 525 264 525 224 525 184 525 144 525 106 523 134 523 174 523 214 523 254 523 280 521 244 521 204 521 164 521 124 521 106 519 114 519 154 519 194 519 234 519 274 519 280 517 264 517 224 517 184 517 144 517 107 514 134 514 174 514 214 514 254 514 278 512 244 512 204 512 164 512 124 512 107 510 114 510 154 510 194 510 234 510 277 507 264 507 224 507 184 507 144 507 108 505 134 505 174 505 214 505 254 505 276 503 244 503 204 503 164 503 124 503 109 501 154 501 194 501 234 501 276 499 264 499 224 499 184 499 144 499 109 496 134 496 174 496 214 496 254 496 274 494 244 494 204 494 164 494 124 494 110 492 154 492 194 492 234 492 273 489 264 489 224 489 184 489 144 489 110 487 134 487 174 487 214 487 254 487 272 485 244 485 204 485 164 485 124 485 111 483 154 483 194 483 234 483 272 481 264 481 224 481 184 481 144 481 111 478 134 478 174 478 214 478 254 478 270 476 244 476 204 476 164 476 124 476 112 476 118 476 124 476 118 476 112 476 112 476 "/>
    <path id="Block2Jump9"
        fill="none"
        stroke="#2584BB"
		stroke-width="2px"
		d="M 119 359 L 120 353 119 359 117 365 121 350 100 343 84 345 72 350 61 362 77 360 60 358 92 356 74 356 59 354 94 351 59 349 84 349 94 349 86 346 71 344 104 343 144 341 184 340 224 339 264 337 303 336 264 336 224 336 184 336 144 336 104 336 64 336 55 338 74 338 114 338 154 338 194 338 234 338 274 338 304 340 284 340 244 340 204 340 164 340 124 340 84 340 56 342 94 342 134 342 174 342 214 342 254 342 294 342 305 344 264 344 224 344 184 344 144 344 104 344 64 344 58 347 74 347 114 347 154 347 194 347 234 347 273 349 244 349 204 349 164 349 124 349 84 349 59 351 94 351 134 351 174 351 214 351 254 351 261 354 224 354 184 354 144 354 100 356 114 356 154 356 194 356 234 356 257 358 244 358 204 358 164 358 124 358 110 360 134 360 174 360 214 360 255 362 224 362 184 362 144 362 112 362 118 362 124 362 118 362 112 362 112 362 "/>
    <path id="Block2Jump10"
        fill="none"
        stroke="#2584BB"
		stroke-width="2px"
		d="M 252 421 L 247 425 252 421 256 417 246 426 231 427 205 427 179 427 153 427 130 426 115 435 144 435 184 435 224 435 261 432 254 432 214 432 174 432 134 432 115 430 124 430 164 430 204 430 244 430 260 428 234 428 194 428 154 428 116 425 144 425 184 425 224 425 260 423 254 423 214 423 174 423 134 423 116 421 124 421 164 421 204 421 244 421 259 419 234 419 194 419 154 419 116 417 144 417 184 417 224 417 258 417 252 417 246 417 252 417 258 417 258 417 " />
    <path id="Block3Jump11"
        fill="none"
        stroke="#ED171F"
		stroke-width="2px"
		d="M 76 308 L 82 308 76 308 70 309 90 307 98 304 114 300 133 297 148 295 157 280 138 282 160 284 134 284 128 286 144 286 167 289 154 289 120 291 167 293 134 293 120 293 135 298 141 296 150 297 167 300 178 297 196 295 189 278 207 280 194 280 183 282 204 282 221 284 214 284 175 286 184 286 224 286 230 286 244 289 234 289 194 289 170 289 124 291 116 291 124 291 164 291 204 291 244 291 262 293 254 293 214 293 174 293 134 293 105 296 144 296 184 296 224 296 264 296 280 298 274 298 234 298 194 298 154 298 114 298 105 300 124 300 164 300 204 300 244 300 280 300 244 298 204 296 164 294 124 291 116 291 124 291 164 291 204 291 244 291 262 293 254 293 214 293 174 293 134 293 105 296 144 296 184 296 224 296 264 296 280 296 304 298 274 298 234 298 194 298 154 298 114 298 96 300 124 300 164 300 204 300 244 300 284 300 303 302 294 302 254 302 214 302 174 302 134 302 94 302 83 304 104 304 144 304 184 304 224 304 264 304 302 307 274 307 234 307 194 307 154 307 114 307 74 307 80 307 86 307 80 307 74 307 74 307 "/>
    <path id="Block3Jump12"
        fill="none"
        stroke="#ED171F"
		stroke-width="2px"
		d="M 243 390 L 251 382 243 390 251 382 243 390 255 394 234 394 194 394 154 394 119 391 144 391 184 391 224 391 254 389 214 389 174 389 134 389 119 387 164 387 204 387 244 387 253 385 234 385 194 385 154 385 119 383 144 383 184 383 224 383 253 383 247 383 241 383 247 383 253 383 253 383 "/>
    <path id="Block3Jump13"
        fill="none"
        stroke="#ED171F"
		stroke-width="2px"
		d="M 123 411 L 128 407 123 411 118 414 130 406 118 398 144 398 184 398 224 398 256 400 234 400 194 400 154 400 117 402 124 402 164 402 204 402 244 402 256 404 214 404 174 404 134 404 117 406 144 406 184 406 224 406 257 409 234 409 194 409 154 409 117 411 124 411 164 411 204 411 244 411 258 413 214 413 174 413 134 413 116 413 122 413 128 413 122 413 116 413 116 413 " />
    <path id="Block4Jump14"
        fill="none"
        stroke="#F0F0F0"
		stroke-width="2px"
		d="M 295 315 L 291 320 295 315 299 311 288 323 303 331 274 331 234 331 194 331 154 331 114 331 74 331 53 329 64 329 104 329 144 329 184 329 224 329 264 329 302 326 294 326 254 326 214 326 174 326 134 326 94 326 52 324 84 324 124 324 164 324 204 324 244 324 284 324 302 322 274 322 234 322 194 322 154 322 114 322 74 322 50 319 64 319 104 319 144 319 184 319 224 319 264 319 302 317 294 317 254 317 214 317 174 317 134 317 94 317 54 317 49 315 84 315 124 315 164 315 204 315 244 315 284 315 302 313 274 313 234 313 194 313 154 313 114 313 74 313 60 311 104 311 144 311 184 311 224 311 264 311 302 311 296 311 290 311 296 311 302 311 302 311 "/>
    <path id="Block4Jump15"
        fill="none"
        stroke="#F0F0F0"
		stroke-width="2px"
		d="M 128 373 L 122 379 128 373 122 379 128 373 116 368 144 368 184 368 224 368 253 370 234 370 194 370 154 370 117 372 124 372 164 372 204 372 244 372 253 374 214 374 174 374 134 374 118 376 144 376 184 376 224 376 253 379 234 379 194 379 154 379 118 379 124 379 130 379 124 379 118 379 118 379 "/>
    <path id="Block4Jump16"
        fill="none"
        stroke="#F0F0F0"
		stroke-width="2px"
		d="M 254 443 L 250 447 254 443 259 439 247 449 232 454 205 454 179 454 153 454 144 456 132 471 164 471 204 471 223 471 234 469 194 469 154 469 117 466 144 466 184 466 224 466 253 464 214 464 174 464 134 464 113 462 124 462 164 462 204 462 244 462 267 460 234 460 194 460 154 460 113 458 144 458 184 458 224 458 266 455 254 455 214 455 174 455 134 455 114 453 124 453 164 453 204 453 244 453 265 451 234 451 194 451 154 451 114 448 144 448 184 448 224 448 264 446 254 446 214 446 174 446 134 446 114 444 124 444 164 444 204 444 244 444 263 442 234 442 194 442 154 442 115 440 144 440 184 440 224 440 263 440 257 440 251 440 257 440 263 440 263 440 " />
    <path id="Block5Jump17"
        fill="none"
        stroke="#000000"
		stroke-width="2px"
		d="M 165 135 L 175 132 165 135 175 132 165 135 155 146 176 144 152 142 164 142 178 140 151 138 179 136 151 134 164 134 178 132 152 130 177 130 166 134 156 124 175 126 164 126 153 128 177 130 151 132 178 132 172 132 166 132 172 132 178 132 178 132 "/>
    <path id="Block5Jump18"
        fill="none"
        stroke="#000000"
		stroke-width="2px"
		d="M 199 135 L 207 132 199 135 207 132 199 135 188 146 209 144 185 142 204 142 211 140 194 140 184 138 211 136 184 134 204 134 211 132 194 132 185 130 210 130 199 134 189 124 208 126 186 128 210 130 184 132 194 132 211 132 205 132 199 132 205 132 211 132 211 132 "/>
    <path id="Block5Jump19"
        fill="none"
        stroke="#000000"
		stroke-width="2px"
		d="M 144 192 L 151 188 147 194 154 190 151 196 157 192 154 198 161 194 157 200 164 196 161 202 168 198 164 204 171 200 167 206 174 202 171 208 177 204 174 210 179 205 177 212 181 206 181 214 183 204 185 211 185 203 189 208 187 201 192 206 190 198 195 204 194 196 198 201 196 194 201 199 200 191 204 196 203 188 208 193 206 185 211 191 209 183 214 189 212 181 217 186 212 181 217 186 212 181 217 186 217 186 "/>
    <path id="Block5Jump20"
        fill="none"
        stroke="#000000"
		stroke-width="2px"
		d="M 84 822 L 90 825 84 822 79 820 101 830 114 836 128 844 130 849 134 861 135 889 143 886 130 884 145 882 125 879 147 877 134 877 121 875 149 873 117 871 144 871 150 868 134 868 113 866 124 866 151 864 114 864 108 861 144 861 153 859 134 859 105 857 124 857 153 855 114 855 102 853 144 853 154 850 134 850 97 848 124 848 154 846 114 846 94 843 104 843 144 843 154 841 134 841 91 839 124 839 153 837 114 837 88 835 104 835 144 835 151 832 134 832 94 832 84 830 124 830 149 828 114 828 80 825 104 825 144 823 134 823 94 823 77 821 84 821 124 821 141 821 112 822 83 817 104 817 137 819 114 819 76 819 82 819 88 819 82 819 76 819 76 819 "/>
    <path id="Block5Jump21"
        fill="none"
        stroke="#000000"
		stroke-width="2px"
		d="M 246 837 L 241 840 246 837 252 835 228 845 221 848 211 854 204 861 202 866 199 879 198 901 189 899 202 897 194 897 187 894 207 892 185 890 204 890 211 888 194 888 184 886 216 883 182 881 204 881 220 879 194 879 181 876 224 874 214 874 180 872 204 872 227 870 194 870 179 868 224 868 232 865 214 865 179 863 204 863 235 861 194 861 179 858 224 858 239 856 214 856 179 854 204 854 242 852 234 852 194 852 180 850 224 850 246 847 214 847 183 845 204 845 248 843 234 843 194 843 186 840 224 840 252 838 214 838 191 836 204 836 244 836 253 836 224 836 249 832 224 832 195 834 234 834 255 834 249 834 243 834 249 834 255 834 255 834 " />
    <path id="Block6Jump22"
        fill="none"
        stroke="#915FAC"
		stroke-width="2px"
		d="M 273 100 L 275 105 273 100 271 94 277 110 271 94 277 110 286 121 277 110 286 121 298 128 286 121 298 128 293 125 288 122 293 125 298 128 298 128 "/>
    <path id="Block6Jump23"
        fill="none"
        stroke="#915FAC"
		stroke-width="2px"
		d="M 283 96 L 287 101 283 96 279 92 290 104 279 92 290 104 303 111 290 104 303 111 298 109 293 106 298 109 303 111 303 111 "/>
    <path id="Block6Jump24"
        fill="none"
        stroke="#915FAC"
		stroke-width="2px"
		d="M 272 103 L 268 96 272 103 268 96 272 103 268 96 272 103 282 110 272 103 282 110 295 115 282 110 295 115 290 113 284 111 290 113 295 115 295 115 "/>
    <path id="Block6Jump25"
        fill="none"
        stroke="#915FAC"
		stroke-width="2px"
		d="M 279 101 L 278 92 279 101 278 92 279 101 278 92 279 101 285 111 279 101 285 111 295 120 285 111 295 120 290 116 286 112 290 116 295 120 295 120 "/>
    <path id="Block6Jump26"
        fill="none"
        stroke="#915FAC"
		stroke-width="2px"
		d="M 292 84 L 297 81 292 84 287 87 300 78 287 87 300 78 295 82 290 85 295 82 300 78 300 78 "/>
    <path id="Block6Jump27"
        fill="none"
        stroke="#915FAC"
		stroke-width="2px"
		d="M 259 104 L 261 109 259 104 257 98 262 113 257 98 262 113 270 124 262 113 270 124 282 131 270 124 282 131 277 128 272 125 277 128 282 131 282 131 "/>
    <path id="Block6Jump28"
        fill="none"
        stroke="#915FAC"
		stroke-width="2px"
		d="M 268 101 L 272 105 268 101 263 96 275 108 263 96 275 108 288 114 275 108 288 114 283 112 277 109 283 112 288 114 288 114 "/>
    <path id="Block6Jump29"
        fill="none"
        stroke="#915FAC"
		stroke-width="2px"
		d="M 257 106 L 253 99 257 106 253 99 257 106 253 99 257 106 267 113 257 106 267 113 280 118 267 113 280 118 274 116 269 114 274 116 280 118 280 118 "/>
    <path id="Block6Jump30"
        fill="none"
        stroke="#915FAC"
		stroke-width="2px"
		d="M 264 105 L 263 97 264 105 263 97 264 105 263 97 264 105 270 114 264 105 270 114 279 123 270 114 279 123 275 119 271 115 275 119 279 123 279 123 "/>
    <path id="Block6Jump31"
        fill="none"
        stroke="#915FAC"
		stroke-width="2px"
		d="M 294 94 L 286 89 294 94 286 89 294 94 286 89 294 94 304 97 294 94 304 97 294 94 304 97 294 94 304 97 304 97 "/>
    <path id="Block6Jump32"
        fill="none"
        stroke="#915FAC"
		stroke-width="2px"
		d="M 239 107 L 243 112 239 107 235 103 246 115 235 103 246 115 258 121 246 115 258 121 252 119 247 116 252 119 258 121 258 121 "/>
    <path id="Block6Jump33"
        fill="none"
        stroke="#915FAC"
		stroke-width="2px"
		d="M 227 113 L 222 106 227 113 222 106 227 113 222 106 227 113 237 120 227 113 237 120 250 125 237 120 250 125 244 123 239 121 244 123 250 125 250 125 "/>
    <path id="Block6Jump34"
        fill="none"
        stroke="#915FAC"
		stroke-width="2px"
		d="M 234 111 L 234 103 234 111 234 103 234 111 234 103 234 111 240 121 234 111 240 121 249 130 240 121 249 130 245 126 241 122 245 126 249 130 249 130 "/>
    <path id="Block6Jump35"
        fill="none"
        stroke="#915FAC"
		stroke-width="2px"
		d="M 264 101 L 257 98 264 101 257 98 264 101 257 98 264 101 274 104 264 101 274 104 264 101 274 104 264 101 274 104 274 104 "/>
    <path id="Block6Jump36"
        fill="none"
        stroke="#915FAC"
		stroke-width="2px"
		d="M 206 115 L 200 108 206 115 200 108 206 115 200 108 206 115 217 122 206 115 217 122 212 119 207 116 212 119 217 122 217 122 "/>
    <path id="Block6Jump37"
        fill="none"
        stroke="#915FAC"
		stroke-width="2px"
		d="M 186 115 L 181 108 186 115 181 108 186 115 181 108 186 115 197 121 186 115 197 121 209 126 197 121 209 126 203 124 198 122 203 124 209 126 209 126 "/>
    <path id="Block6Jump38"
        fill="none"
        stroke="#915FAC"
		stroke-width="2px"
		d="M 192 111 L 197 114 192 111 187 108 198 114 187 108 198 114 209 126 198 114 209 126 205 122 201 117 205 122 209 126 209 126 "/>
    <path id="Block6Jump39"
        fill="none"
        stroke="#915FAC"
		stroke-width="2px"
		d="M 248 107 L 240 102 248 107 240 102 248 107 240 102 248 107 258 110 248 107 258 110 248 107 258 110 248 107 258 110 258 110 " />
</svg>
