<?xml version="1.0" encoding="UTF-8" standalone="no"?>
<svg xmlns="http://www.w3.org/2000/svg" version="1.1" width="720" height="506">
    <path id="Block1Jump0"
        fill="none"
        stroke="#FEE3C5"
		stroke-width="2px"
		d="M 369 78 L 348 82 331 84 310 90 290 97 271 106 253 116 236 129 221 143 209 156 197 173 188 192 181 207 175 227 171 247 169 268 154 259 141 256 129 258 118 262 110 270 104 279 101 291 102 304 107 315 112 321 125 329 142 332 161 327 165 348 171 368 179 388 190 407 202 424 216 440 229 451 247 464 260 473 280 481 300 489 321 494 342 497 363 497 385 495 406 491 426 484 444 476 462 466 478 454 494 441 507 426 519 409 529 392 537 373 544 354 548 334 563 342 575 344 587 343 597 338 606 331 611 322 615 312 615 301 611 289 604 280 595 273 584 269 573 268 562 270 552 276 542 285 541 281 545 276 548 255 547 234 544 214 538 193 529 174 521 160 510 144 501 134 487 121 475 111 459 101 441 93 423 87 404 82 387 80 369 80 376 79 414 82 419 83 392 83 353 83 328 83 325 87 363 87 401 87 438 90 442 91 417 91 379 91 341 91 303 91 298 91 293 95 329 95 367 95 405 95 443 95 460 99 455 99 420 99 382 99 344 99 306 99 279 99 289 103 327 103 365 103 403 103 441 103 473 107 445 107 407 107 369 107 331 107 293 107 264 107 271 111 309 111 347 111 385 111 423 111 461 111 484 115 471 115 433 115 395 115 357 115 319 115 281 115 250 115 258 119 296 119 334 119 372 119 410 119 448 119 485 119 493 123 474 123 436 123 398 123 360 123 322 123 284 123 246 123 240 123 261 127 299 127 337 127 375 127 413 127 451 127 489 127 502 131 472 131 434 131 396 131 358 131 320 131 282 131 244 131 230 131 249 135 287 135 325 135 363 135 401 135 439 135 477 135 509 139 492 139 454 139 416 139 378 139 340 139 302 139 264 139 226 139 221 139 236 143 274 143 312 143 350 143 388 143 426 143 464 143 502 143 515 147 479 147 441 147 403 147 365 147 327 147 289 147 251 147 214 147 239 151 277 151 315 151 353 151 391 151 429 151 467 151 505 151 521 155 517 155 483 155 445 155 407 155 369 155 331 155 293 155 255 155 217 155 207 155 237 159 275 159 313 159 351 159 389 159 427 159 465 159 503 159 527 163 508 163 470 163 432 163 394 163 356 163 318 163 280 163 242 163 205 163 201 163 219 167 257 167 295 167 333 167 371 167 409 167 447 167 485 167 523 167 531 171 495 171 457 171 419 171 381 171 343 171 305 171 267 171 229 171 196 171 206 175 244 175 282 175 320 175 358 175 396 175 434 175 472 175 510 175 534 179 499 179 461 179 423 179 385 179 346 179 308 179 270 179 232 179 195 179 191 179 210 183 248 183 286 183 324 183 362 183 400 183 438 183 476 183 514 183 538 187 534 187 497 187 459 187 421 187 383 187 345 187 307 187 269 187 231 187 193 187 187 187 197 191 235 191 273 191 311 191 349 191 387 191 425 191 463 191 501 191 536 191 541 195 516 195 478 195 440 195 402 195 364 195 326 195 288 195 250 195 212 195 183 195 185 199 222 199 260 199 298 199 336 199 374 199 412 199 450 199 488 199 526 199 544 203 540 203 504 203 466 203 428 203 390 203 351 203 313 203 275 203 237 203 199 203 179 203 188 207 226 207 264 207 302 207 340 207 378 207 416 207 454 207 492 207 530 207 546 211 542 211 507 211 469 211 431 211 393 211 355 211 317 211 279 211 241 211 203 211 177 211 186 215 224 215 262 215 300 215 338 215 376 215 414 215 452 215 490 215 528 215 548 219 532 219 494 219 456 219 418 219 380 219 342 219 304 219 266 219 228 219 190 219 174 219 206 223 244 223 282 223 320 223 358 223 396 223 434 223 472 223 510 223 544 223 549 227 519 227 481 227 443 227 405 227 367 227 329 227 291 227 253 227 215 227 177 227 172 227 193 231 231 231 269 231 307 231 345 231 383 231 421 231 459 231 497 231 535 231 550 235 523 235 485 235 447 235 409 235 371 235 333 235 295 235 257 235 219 235 181 235 170 235 196 239 234 239 272 239 310 239 348 239 386 239 424 239 462 239 500 239 538 239 550 243 521 243 483 243 445 243 407 243 369 243 331 243 293 243 255 243 217 243 179 243 169 243 183 247 221 247 259 247 297 247 335 247 373 247 411 247 449 247 487 247 525 247 550 251 541 251 503 251 465 251 427 251 389 251 351 251 313 251 275 251 237 251 199 251 168 251 172 255 209 255 247 255 285 255 323 255 361 255 399 255 437 255 475 255 513 255 550 259 528 259 490 259 452 259 414 259 376 259 338 259 300 259 262 259 224 259 186 259 167 259 174 263 212 263 250 263 288 263 326 263 364 263 402 263 440 263 478 263 516 263 550 267 531 267 493 267 455 267 417 267 379 267 341 267 303 267 265 267 227 267 189 267 167 267 153 273 128 259 131 255 159 259 148 259 119 259 136 263 174 263 212 264 250 264 288 264 326 265 364 265 402 265 440 266 478 266 516 267 549 267 531 267 493 267 455 267 417 267 379 267 341 267 303 267 265 267 227 267 189 267 151 267 113 267 109 267 134 271 172 271 210 271 248 271 286 271 324 271 362 271 400 271 438 271 476 271 514 271 548 275 519 275 481 275 443 275 405 275 367 275 329 275 291 275 253 275 215 275 177 275 139 275 103 275 116 279 154 279 192 279 230 279 268 279 306 279 344 279 382 279 420 279 458 279 496 279 534 279 547 283 543 283 506 283 468 283 430 283 392 283 354 283 316 283 278 283 240 283 202 283 164 283 126 283 101 283 126 283 152 285 177 287 202 289 228 292 253 295 274 298 295 306 288 310 261 316 234 320 206 323 179 326 151 328 123 331 127 331 154 331 154 327 123 327 150 325 179 322 209 318 238 315 257 314 286 317 316 321 344 324 372 327 400 330 428 331 456 332 485 333 513 335 541 336 567 337 593 343 584 343 551 339 568 339 601 339 596 335 558 335 551 335 522 336 495 335 467 333 440 332 412 330 385 329 410 323 434 317 459 311 484 305 509 299 533 293 558 286 575 281 590 272 585 267 570 267 566 267 590 271 603 275 595 275 557 275 550 275 572 279 606 282 610 283 582 283 544 283 506 283 468 283 430 283 392 283 354 283 316 283 278 283 240 283 202 283 164 283 126 283 100 283 103 287 141 287 179 287 217 287 255 287 293 287 331 287 369 287 407 287 445 287 483 287 521 287 559 287 597 287 615 291 585 291 547 291 509 291 471 291 433 291 395 291 357 291 319 291 281 291 243 291 205 291 167 291 129 291 98 291 107 295 145 295 183 295 221 295 259 295 297 295 335 295 373 295 411 295 449 295 487 295 525 295 563 295 601 295 617 299 583 299 545 299 507 299 469 299 431 299 393 299 355 299 317 299 279 299 241 299 203 299 165 299 127 299 98 299 132 303 170 303 208 303 246 303 284 303 322 303 360 303 398 303 436 303 474 303 512 303 550 303 588 303 618 307 603 307 565 307 527 307 489 307 451 307 413 307 375 307 337 307 299 307 261 307 223 307 185 307 147 307 109 307 100 307 119 311 157 311 195 311 233 311 271 311 309 311 347 311 385 311 423 311 461 311 499 311 537 311 575 311 613 311 617 315 590 315 552 315 514 315 476 315 438 315 400 315 362 315 324 315 286 315 248 315 210 315 172 315 134 315 104 315 122 319 160 319 198 319 236 319 274 319 312 319 350 319 389 319 427 319 465 319 503 319 541 319 579 319 614 323 594 323 556 323 518 323 480 323 442 323 404 323 366 323 328 323 290 323 252 323 214 323 176 323 138 323 111 323 121 327 159 327 197 327 235 327 273 327 311 327 349 327 387 327 425 327 463 327 501 327 539 327 577 327 609 331 581 331 543 331 505 331 467 331 429 331 391 331 353 331 315 331 277 331 239 331 201 331 163 331 159 331 178 335 216 335 254 335 292 335 330 335 368 335 406 335 444 335 482 335 520 335 558 335 596 335 559 338 550 339 530 339 492 339 454 339 416 339 378 339 340 339 302 339 264 339 226 339 188 339 161 339 166 343 204 343 242 343 280 343 318 343 356 343 394 343 432 343 470 343 508 343 545 343 548 347 534 347 496 347 458 347 420 347 382 347 344 347 306 347 268 347 230 347 192 347 162 347 169 351 207 351 245 351 283 351 321 351 359 351 397 351 435 351 473 351 511 351 546 355 532 355 494 355 456 355 418 355 380 355 342 355 304 355 266 355 228 355 190 355 164 355 194 359 232 359 270 359 308 359 346 359 384 359 422 359 460 359 498 359 536 359 544 363 514 363 476 363 438 363 400 363 362 363 324 363 286 363 248 363 210 363 172 363 167 363 181 367 219 367 257 367 295 367 333 367 371 367 409 367 447 367 485 367 523 367 541 371 537 371 501 371 463 371 425 371 387 371 349 371 311 371 273 371 235 371 197 371 169 371 185 375 223 375 261 375 299 375 337 375 375 375 413 375 451 375 489 375 527 375 538 379 504 379 466 379 428 379 390 379 352 379 314 379 276 379 238 379 200 379 172 379 183 383 221 383 259 383 297 383 335 383 373 383 411 383 449 383 487 383 525 383 535 387 529 387 491 387 453 387 415 387 377 387 339 387 301 387 263 387 225 387 187 387 176 387 203 391 241 391 279 391 317 391 355 391 393 391 431 391 469 391 507 391 531 395 517 395 479 395 441 395 403 395 365 395 327 395 289 395 251 395 213 395 180 395 190 399 228 399 266 399 304 399 342 399 380 399 418 399 456 399 494 399 526 403 520 403 482 403 444 403 406 403 368 403 330 403 292 403 254 403 216 403 184 403 193 407 231 407 269 407 307 407 345 407 383 407 421 407 459 407 497 407 521 411 517 411 480 411 442 411 404 411 366 411 328 411 290 411 252 411 214 411 189 411 219 415 257 415 295 415 333 415 371 415 409 415 447 415 485 415 516 419 500 419 462 419 424 419 386 419 348 419 310 419 272 419 234 419 199 419 195 419 206 423 244 423 282 423 320 423 358 423 396 423 434 423 472 423 509 423 510 427 487 427 449 427 411 427 373 427 335 427 297 427 259 427 221 427 201 427 209 431 247 431 285 431 323 431 361 431 399 431 437 431 475 431 502 435 491 435 453 435 415 435 377 435 339 435 301 435 263 435 225 435 208 435 245 439 283 439 321 439 359 439 397 439 435 439 473 439 495 443 478 443 440 443 402 443 364 443 326 443 288 443 250 443 216 443 227 447 265 447 303 447 341 447 379 447 417 447 455 447 486 451 465 451 427 451 389 451 351 451 313 451 275 451 237 451 225 451 252 455 290 455 328 455 366 455 404 455 442 455 477 455 477 459 469 459 431 459 393 459 355 459 317 459 279 459 241 459 236 459 256 463 294 463 332 463 370 463 408 463 446 463 465 467 429 467 391 467 353 467 315 467 277 467 247 467 281 471 319 471 357 471 395 471 433 471 451 475 447 475 410 475 372 475 334 475 296 475 260 475 298 478 306 479 344 479 382 479 420 479 435 483 398 483 360 483 322 483 284 483 278 483 310 487 348 487 386 487 421 487 413 491 401 491 363 491 325 491 297 491 335 494 346 495 384 495 368 499 350 499 343 499 350 499 360 499 350 499 343 499 " />
    <path id="Block2Jump1"
        fill="none"
        stroke="#FDD9DE"
		stroke-width="2px"
		d="M 205 266 L 215 265 205 266 195 268 199 258 219 255 185 269 245 261 "/>
    <path id="Block2Jump9"
        fill="none"
        stroke="#FDD9DE"
		stroke-width="2px"
		d="M 193 315 L 251 309 210 323 240 320 230 321 220 322 230 321 240 320 "/>
    <path id="Block2Jump10"
        fill="none"
        stroke="#FDD9DE"
		stroke-width="2px"
		d="M 481 277 L 491 275 481 277 471 278 476 269 495 265 461 279 521 272 457 288 "/>
    <path id="Block2Jump17"
        fill="none"
        stroke="#FDD9DE"
		stroke-width="2px"
		d="M 469 327 L 526 320 487 335 516 331 506 333 496 334 506 333 516 331 " />
    <path id="Block3Jump18"
        fill="none"
        stroke="#B54C64"
		stroke-width="2px"
		d="M 568 221 L 589 233 607 247 623 264 638 282 647 294 657 306 692 332 701 299 688 330 697 298 684 329 694 297 680 328 691 296 675 326 688 295 671 324 684 293 667 322 681 292 663 320 678 290 659 318 675 289 655 316 672 287 651 314 670 285 647 311 667 283 644 308 664 281 640 306 661 279 636 303 659 277 633 300 656 275 630 297 653 272 628 294 650 268 625 291 647 265 622 288 645 262 620 285 642 258 617 282 640 255 615 278 637 251 613 275 634 248 610 272 631 244 608 269 628 241 605 266 625 238 602 263 622 235 599 260 619 232 596 257 616 230 593 255 612 227 590 253 609 225 587 250 606 222 584 249 602 220 581 247 598 217 578 245 594 215 575 244 590 213 572 243 585 211 569 241 581 210 566 240 577 208 562 239 572 207 559 238 568 205 556 237 563 204 552 237 559 203 549 236 554 203 549 204 545 236 554 203 547 212 540 194 532 175 524 158 514 141 516 138 534 154 553 169 572 183 592 196 613 207 636 212 658 220 678 232 696 248 702 266 695 277 720 261 693 274 718 257 691 271 715 253 689 268 713 250 686 264 710 246 684 262 707 242 681 259 704 239 679 256 701 235 676 253 698 232 674 250 695 229 671 248 691 226 668 245 688 223 665 243 685 220 662 240 681 217 659 238 678 214 656 235 674 211 653 233 670 208 650 231 666 206 647 229 662 203 643 227 659 201 640 226 654 199 636 224 650 197 633 223 646 196 629 223 641 195 625 222 637 194 621 221 632 193 617 221 628 192 614 220 623 191 610 219 619 190 606 218 614 189 602 217 610 188 598 216 606 187 594 215 603 186 589 213 599 184 585 211 596 182 581 209 592 181 577 207 589 179 573 205 585 177 569 203 582 176 565 201 578 174 560 199 575 172 557 196 571 170 553 194 567 168 549 192 564 166 545 190 560 164 541 188 556 162 537 185 553 159 533 183 549 157 530 181 546 155 526 178 542 153 522 176 539 150 518 173 535 148 515 171 532 146 511 168 528 143 516 141 502 129 488 117 474 105 479 100 500 113 523 124 546 132 571 135 596 137 620 145 642 157 662 172 679 190 694 212 681 216 707 203 679 213 705 199 677 209 702 195 675 206 700 191 673 203 697 187 671 200 695 183 669 196 692 179 667 193 689 175 664 190 686 172 662 188 683 168 659 185 680 165 656 182 677 161 654 179 673 158 651 177 670 155 648 174 666 152 645 172 663 149 642 170 659 146 639 167 655 143 636 165 651 141 633 163 647 138 629 161 643 136 626 159 639 134 623 158 635 132 619 156 631 130 615 155 627 128 611 154 623 127 607 153 618 126 603 152 614 125 599 151 609 124 595 151 605 123 591 150 600 122 587 150 596 122 583 150 591 121 579 149 586 121 575 149 582 121 570 149 577 120 566 149 572 120 562 148 568 120 558 148 563 119 554 147 559 119 550 147 554 118 545 146 550 118 541 145 547 117 537 144 543 116 532 143 539 115 528 142 536 114 523 140 532 113 519 139 528 111 514 137 525 110 510 135 521 109 506 134 518 107 502 132 514 105 497 129 510 104 493 127 507 102 489 125 503 100 485 123 500 98 481 120 496 96 477 118 493 93 473 115 489 91 469 112 486 89 465 110 482 86 501 96 481 90 461 84 482 73 505 68 529 70 550 82 572 90 595 86 611 77 645 78 627 59 642 81 624 61 638 84 622 64 634 87 619 66 630 90 616 68 626 92 613 69 621 95 610 71 617 97 607 73 612 99 603 74 607 100 600 75 603 101 597 76 598 103 594 77 592 103 591 77 587 104 588 77 582 104 585 78 577 103 582 77 572 102 579 76 567 100 576 75 562 98 573 74 558 96 570 73 554 94 566 70 551 92 562 68 548 90 558 65 544 88 554 63 541 86 549 61 537 84 545 58 534 82 541 57 530 81 536 55 526 80 532 54 523 79 527 53 519 79 522 53 515 79 517 53 512 79 512 53 508 79 507 53 504 79 503 53 501 80 498 54 497 80 493 55 493 81 488 55 489 82 483 57 486 83 479 58 482 84 474 59 478 85 469 61 474 87 465 62 471 88 460 64 467 90 456 66 464 92 451 69 460 94 447 71 416 89 424 111 430 135 433 158 451 173 447 188 459 167 445 186 457 166 441 184 455 165 437 180 452 163 433 177 450 160 430 173 448 158 426 169 446 156 424 164 444 153 421 160 442 150 419 155 441 147 418 151 441 143 417 146 440 139 417 141 441 135 417 136 441 131 418 131 441 127 418 125 442 123 418 120 442 119 418 117 441 114 417 113 440 109 416 110 438 104 414 106 436 99 413 103 434 94 411 99 432 89 409 96 430 84 407 92 427 80 428 86 404 85 380 83 374 89 378 108 374 128 373 148 378 167 389 183 380 188 402 169 377 185 400 166 374 181 397 164 371 177 396 161 369 173 394 158 366 169 392 155 364 164 391 152 362 160 390 149 361 155 388 146 359 150 387 143 358 146 387 140 357 141 386 137 357 136 386 134 357 130 386 131 358 125 387 129 359 120 387 126 360 115 388 124 361 112 389 119 362 109 391 114 363 106 392 109 363 103 392 104 363 99 392 99 363 96 392 94 362 93 391 89 362 89 390 84 361 86 389 79 360 83 387 74 358 79 386 69 374 77 354 83 334 89 313 95 326 89 321 108 313 126 302 143 299 163 303 182 288 191 305 187 309 193 301 207 323 184 297 204 321 182 294 200 319 180 291 196 318 178 288 191 317 177 286 186 316 174 284 181 315 172 283 176 315 170 282 171 315 168 282 166 314 166 282 160 315 164 283 155 315 162 285 149 315 161 287 144 316 159 289 141 319 156 291 139 322 152 293 136 325 149 295 134 327 145 298 131 329 141 300 128 331 137 301 125 333 133 302 122 334 129 303 119 335 124 304 116 336 120 304 113 336 115 304 110 337 111 304 106 337 106 317 95 295 106 271 110 285 97 261 103 236 102 213 92 190 83 171 99 155 118 131 126 108 124 75 100 58 126 78 102 62 128 81 103 66 130 84 105 70 133 87 106 75 135 90 107 79 136 93 109 84 138 97 109 89 139 100 110 93 141 103 111 98 141 106 111 103 142 110 112 108 143 113 112 112 143 116 112 117 143 119 112 123 143 121 112 128 142 124 111 133 141 127 111 138 140 130 110 143 139 132 110 147 137 135 109 152 135 137 107 156 132 139 105 160 128 141 103 163 125 144 100 166 122 147 96 168 120 150 93 170 117 153 89 172 114 157 85 175 112 160 82 177 109 163 78 179 106 167 75 181 104 171 73 184 101 175 70 187 99 180 69 189 98 185 67 191 98 191 67 192 98 197 67 193 98 203 68 195 98 208 70 196 99 212 72 199 101 215 74 203 103 218 76 207 106 221 78 211 108 225 80 215 111 228 82 219 113 231 84 223 116 234 87 227 118 238 88 232 119 241 90 236 120 244 90 241 121 248 90 245 121 251 91 250 122 254 91 255 121 257 90 259 121 260 90 264 121 263 90 269 120 266 89 273 119 270 88 278 118 273 87 282 117 276 86 287 115 278 85 291 113 282 83 295 111 284 100 267 111 249 123 232 134 229 144 239 133 249 122 235 140 210 139 186 145 167 159 151 178 129 190 105 189 80 188 58 198 39 214 26 231 21 211 32 223 28 230 12 227 41 241 14 223 43 238 16 219 44 235 18 215 46 232 21 211 48 229 24 207 50 226 27 203 52 224 30 200 54 221 33 196 56 219 36 193 58 217 40 190 61 214 44 187 63 212 47 184 66 210 51 181 69 209 56 179 71 207 60 176 74 206 64 174 77 204 69 172 79 203 73 171 82 202 78 170 85 201 83 169 88 201 88 169 91 201 92 169 94 202 97 169 97 202 102 170 100 202 107 171 103 203 110 171 107 203 113 172 112 204 116 172 117 205 118 172 122 205 121 173 127 205 123 173 132 204 126 173 137 204 129 172 142 202 131 172 147 200 133 171 151 198 136 169 155 195 139 166 158 192 141 162 161 189 144 159 164 186 146 155 166 183 149 151 169 179 151 147 171 176 154 144 173 172 157 141 176 169 160 138 178 165 163 135 181 162 167 133 184 160 171 130 186 159 176 129 189 158 181 127 192 158 186 126 194 157 191 125 197 157 196 125 200 157 201 124 202 157 206 124 205 157 211 125 208 157 216 126 211 158 221 127 213 158 225 128 216 159 218 147 209 161 200 176 191 190 189 193 174 212 153 226 129 229 105 232 86 249 71 268 49 279 25 284 5 284 7 296 0 303 6 288 5 273 0 303 8 273 4 304 12 274 9 304 15 274 14 305 18 274 18 305 22 274 23 305 25 274 28 304 28 273 33 304 32 273 38 303 35 272 42 302 38 271 47 301 41 270 52 299 45 269 56 297 47 268 61 296 50 267 65 293 53 265 69 291 55 264 74 288 58 262 78 285 60 260 81 282 62 257 84 278 63 255 87 274 65 252 90 270 66 249 92 266 68 247 95 261 70 242 96 259 72 238 97 257 75 233 98 255 79 229 99 252 82 225 101 250 86 222 102 249 90 219 104 247 95 217 105 246 100 215 108 245 105 214 110 244 109 213 114 244 113 213 118 244 117 213 123 245 121 214 128 245 125 214 132 245 129 215 137 246 134 215 141 246 138 215 146 246 142 215 150 245 145 215 155 244 148 214 159 242 151 212 164 240 154 211 168 238 156 209 172 235 159 207 176 232 161 205 180 229 163 203 184 225 165 201 188 221 167 198 191 218 169 196 194 213 171 193 197 209 172 190 199 205 185 205 180 222 175 240 177 231 180 222 177 231 175 240 " />
    <path id="Block4Jump19"
        fill="none"
        stroke="#F73866"
		stroke-width="2px"
		d="M 262 31 L 263 64 263 97 263 131 263 104 264 71 265 39 266 2 266 29 266 61 266 93 266 130 267 100 268 68 268 37 269 3 269 27 269 58 270 90 270 129 270 106 271 75 272 44 272 5 273 34 273 65 273 95 273 128 274 102 274 72 275 41 276 7 276 32 276 62 276 92 277 126 277 98 278 69 279 39 279 8 279 30 280 59 280 88 280 125 281 103 281 75 282 46 283 10 283 37 283 65 283 94 284 124 284 100 285 72 285 44 286 12 286 35 287 63 287 91 287 122 288 96 288 69 289 42 290 13 290 40 290 76 291 112 291 121 291 95 292 59 293 24 293 15 293 48 294 83 294 120 295 91 295 56 296 17 297 45 297 79 298 119 298 87 299 53 300 18 300 43 301 76 301 109 301 117 302 93 302 60 303 28 303 20 304 50 304 82 304 116 305 89 306 58 307 22 307 48 307 79 308 115 309 86 309 55 310 23 310 46 311 76 311 113 312 91 313 62 313 25 314 52 314 82 315 112 315 88 316 59 317 27 317 50 318 79 318 111 319 85 320 57 320 28 321 49 321 76 322 110 322 90 323 63 324 30 324 55 325 81 325 108 326 87 326 61 327 32 328 53 328 78 329 107 329 84 330 59 331 33 331 51 332 76 332 106 333 88 333 65 334 35 335 57 335 80 336 104 337 76 338 37 339 65 340 103 341 72 342 39 342 62 343 102 344 79 346 41 346 69 347 100 348 76 349 42 350 66 351 99 352 73 353 44 354 64 355 97 356 78 357 46 358 70 359 96 360 76 361 48 362 68 363 94 364 73 366 50 366 66 367 93 368 78 370 52 371 91 372 76 374 51 375 71 375 93 376 74 378 49 379 68 379 94 381 72 382 47 383 65 383 95 384 77 386 45 387 70 387 97 388 74 390 44 390 67 390 98 392 71 394 42 394 64 394 99 395 77 398 41 398 69 397 100 399 74 402 39 401 66 401 102 403 71 405 37 405 62 405 95 404 103 406 78 409 44 409 36 409 57 408 80 408 104 409 84 411 61 413 34 412 54 412 78 411 105 413 82 415 58 417 33 416 51 415 76 414 106 416 88 418 63 420 31 419 55 419 81 418 108 419 85 421 59 424 30 423 52 422 78 421 109 423 83 425 56 427 28 427 49 425 76 424 110 426 89 428 61 431 27 430 53 429 81 427 111 429 87 432 58 435 25 433 50 432 79 431 112 433 84 436 55 438 24 437 46 436 76 434 113 436 90 439 60 442 22 440 51 439 82 437 114 439 88 442 56 445 20 444 47 442 79 440 116 443 85 446 53 449 19 448 43 446 76 444 109 444 117 446 92 449 59 452 25 453 17 451 49 449 83 447 118 450 89 453 55 457 16 455 45 453 79 450 119 454 86 457 51 461 14 459 41 457 76 454 111 454 120 456 100 458 73 461 46 464 12 463 38 461 66 459 93 457 121 459 98 462 70 465 43 468 11 467 35 465 62 463 90 460 123 463 96 466 67 469 39 472 9 471 31 468 59 466 88 464 124 466 102 469 73 472 44 476 8 474 35 472 65 469 94 467 125 470 100 473 70 476 40 479 6 478 32 475 62 473 92 471 126 474 97 477 67 480 37 483 5 481 28 479 58 477 89 475 128 475 118 476 108 475 118 475 128 " />
    <path id="Block5Jump20"
        fill="none"
        stroke="#000000"
		stroke-width="2px"
		d="M 467 127 L 478 110 467 127 478 110 471 129 482 113 475 132 486 115 478 134 490 118 482 136 494 121 485 139 497 124 489 142 501 127 492 145 505 130 495 147 509 133 498 151 512 137 501 154 515 140 504 157 519 144 507 160 522 148 509 163 525 152 512 167 528 156 514 170 530 159 517 174 533 164 519 178 536 168 521 181 538 172 523 185 540 177 525 189 542 181 527 193 544 185 528 197 546 190 529 201 548 194 531 205 550 199 532 209 551 204 533 213 552 209 534 218 553 213 535 222 554 218 536 226 555 223 536 230 556 228 537 234 556 233 537 239 556 238 537 243 557 243 537 247 557 247 537 252 557 252 537 256 556 257 537 260 556 262 536 265 555 267 535 269 555 271 535 274 555 275 534 280 554 278 533 285 552 281 533 292 547 284 536 293 533 297 543 281 542 293 546 276 549 291 549 272 554 288 552 268 560 286 552 268 559 287 557 266 563 285 562 265 566 284 568 264 569 284 573 264 572 283 579 264 576 284 584 265 579 284 589 267 582 285 594 270 585 287 599 273 587 289 603 276 590 291 607 280 592 293 610 285 594 296 613 289 596 298 615 295 597 301 617 300 598 304 618 305 598 307 618 311 598 311 618 316 599 314 617 322 598 317 615 327 597 320 613 332 596 323 610 337 594 326 607 341 592 328 603 345 590 331 599 349 587 333 594 351 584 334 589 354 582 336 584 355 579 337 579 357 576 338 573 357 573 338 568 357 569 338 563 356 566 337 557 355 563 336 553 353 560 335 548 351 557 333 545 349 553 331 542 347 548 329 540 344 543 326 540 340 539 324 540 334 538 327 536 323 544 337 534 331 546 341 533 336 548 345 532 341 551 349 531 346 551 349 531 346 550 354 530 350 549 358 530 355 548 363 529 359 547 368 528 364 547 373 528 368 545 377 526 372 544 382 525 376 542 387 523 380 540 391 522 384 539 396 521 389 537 401 519 393 535 405 517 397 533 409 515 400 530 413 513 404 528 418 511 408 526 422 509 412 523 426 507 416 520 430 504 419 517 434 502 423 514 438 499 426 511 442 496 429 508 446 494 433 505 449 491 436 502 453 488 439 498 456 485 442 495 460 482 445 491 463 479 448 487 466 475 451 483 469 472 453 479 472 468 456 475 475 465 458 471 477 461 461 467 480 457 463 463 482 454 465 459 484 450 467 454 486 446 469 450 488 442 470 445 490 438 472 441 492 434 474 436 494 430 475 432 495 426 476 427 496 421 478 422 498 417 479 418 499 413 480 413 500 409 481 408 501 404 482 404 502 400 483 399 503 396 484 394 503 391 484 389 504 387 485 384 505 383 485 380 505 378 486 375 505 374 486 370 506 369 486 365 506 365 487 361 506 360 486 356 506 356 486 351 506 351 486 346 506 347 486 342 505 343 486 337 505 338 486 332 505 334 486 327 505 329 485 322 504 325 484 318 503 320 484 313 502 316 483 308 502 312 482 303 501 307 482 299 500 303 481 294 499 298 480 289 498 294 479 285 496 290 477 280 495 286 476 276 494 281 475 271 492 277 474 266 491 273 472 262 489 269 471 257 487 265 469 253 485 260 467 248 483 257 466 244 481 253 464 240 479 249 462 235 477 245 460 231 474 241 457 227 472 237 455 223 469 234 453 219 466 230 450 215 463 227 448 211 460 223 445 207 457 220 442 204 454 217 439 200 450 213 436 196 447 210 434 193 443 208 430 190 440 205 427 187 436 202 424 184 432 199 420 181 428 197 417 178 424 194 413 176 420 192 410 173 415 190 406 171 411 188 402 169 406 187 398 167 402 185 395 165 397 183 391 163 393 182 387 162 388 181 382 161 383 180 378 159 378 179 374 159 374 178 370 158 369 177 366 157 364 177 362 157 360 176 358 156 355 176 354 156 350 176 350 156 346 176 345 156 341 175 341 156 338 175 336 156 334 175 331 157 331 175 325 162 328 175 320 162 328 170 320 174 316 166 331 166 319 163 335 161 321 161 339 156 322 159 342 152 324 159 342 152 324 154 344 149 325 149 346 145 326 143 346 142 327 138 347 138 327 133 346 135 327 127 345 132 326 122 343 129 325 117 341 126 324 112 339 123 322 108 335 120 320 104 332 118 318 100 328 115 316 97 324 113 313 95 319 112 310 92 314 111 307 91 309 110 304 90 304 109 301 89 299 109 298 90 294 109 295 90 288 109 292 91 283 110 288 93 278 111 285 95 273 113 282 98 268 114 280 102 264 116 277 105 260 118 274 109 257 121 273 114 254 124 271 118 251 127 269 124 250 130 268 129 248 133 267 134 247 136 267 139 247 139 267 144 247 142 267 150 248 145 267 155 250 148 268 160 251 152 269 164 254 155 271 168 257 158 274 172 259 162 276 174 261 166 279 176 264 171 282 177 270 177 286 177 275 178 283 180 288 172 272 182 278 170 267 183 272 167 263 184 266 165 258 185 261 165 258 185 261 166 254 185 256 167 249 186 252 167 244 186 247 168 239 187 243 169 235 188 239 170 230 189 235 171 225 190 230 173 221 191 226 174 216 192 222 175 211 194 218 177 207 195 214 179 202 197 210 181 198 199 205 183 193 200 201 185 189 202 197 187 185 204 194 189 180 206 190 191 176 208 186 194 172 211 182 196 168 213 178 199 164 215 175 202 160 218 171 205 156 220 168 208 152 223 164 211 148 226 161 214 144 229 158 218 141 232 154 221 137 235 151 225 134 239 148 229 130 242 145 232 127 245 141 236 124 249 138 239 120 252 135 243 117 256 132 247 114 260 129 247 114 252 114 260 129 252 114 260 129 280 122 260 129 280 122 300 115 280 122 300 115 320 108 300 115 320 108 339 101 320 108 339 101 359 94 339 101 359 94 373 94 359 94 373 94 387 93 373 94 387 93 409 102 387 93 409 102 431 111 409 102 431 111 453 120 431 111 453 120 475 129 453 120 475 129 476 104 475 129 476 104 478 80 476 104 478 80 479 55 478 80 479 55 481 31 479 55 481 31 482 7 481 31 482 7 463 15 482 7 463 15 444 24 463 15 444 24 425 33 444 24 425 33 406 42 425 33 406 42 387 50 406 42 387 50 387 71 387 50 387 71 387 92 387 71 387 92 371 92 387 92 371 92 355 92 371 92 355 92 355 70 355 92 355 70 354 48 355 70 354 48 371 48 354 48 371 48 388 49 371 48 388 49 374 49 388 49 374 49 379 62 374 49 379 62 375 76 379 62 375 76 376 52 373 77 376 52 354 48 376 52 354 48 335 39 354 48 335 39 316 29 335 39 316 29 298 20 316 29 298 20 279 11 298 20 279 11 260 1 279 11 260 1 260 26 260 1 260 26 260 51 260 26 260 51 260 75 260 51 260 75 260 100 260 75 260 100 260 125 260 100 260 125 260 115 260 105 260 115 260 125 "/>
    <path id="Block5Jump21"
        fill="none"
        stroke="#000000"
		stroke-width="2px"
		d="M 452 244 L 462 244 452 244 448 244 452 244 464 244 460 246 450 245 446 247 470 247 460 249 445 251 450 251 472 251 468 253 448 253 445 254 469 255 473 255 460 257 445 258 450 258 472 259 468 260 451 260 448 262 470 262 460 264 452 266 466 265 459 266 452 266 459 266 466 265 "/>
    <path id="Block5Jump22"
        fill="none"
        stroke="#000000"
		stroke-width="2px"
		d="M 265 238 L 275 238 265 238 261 238 265 238 277 238 273 240 263 240 259 242 282 242 273 244 258 245 263 245 285 246 281 248 261 247 257 248 282 249 286 250 272 251 258 252 262 252 286 253 282 255 262 254 259 256 281 256 285 256 273 258 261 260 265 260 283 259 279 261 268 262 265 264 279 262 272 263 265 264 272 263 279 262 230 301 226 301 216 303 226 301 230 301 226 301 216 303 223 304 231 304 216 307 221 308 232 308 228 308 217 311 225 311 232 311 218 315 222 315 233 314 229 316 219 318 227 318 234 318 220 322 224 323 235 321 231 322 221 326 229 325 237 325 223 330 227 330 238 328 234 329 224 333 232 332 239 331 225 337 230 337 241 334 237 336 227 341 235 339 242 338 229 344 233 344 244 341 240 343 231 348 238 346 246 344 233 351 237 351 247 347 244 349 235 355 242 352 249 350 237 358 241 357 251 353 248 355 239 361 246 358 253 355 242 364 246 364 256 358 252 361 244 368 251 364 258 361 247 371 251 369 260 364 257 366 249 374 256 370 263 366 252 376 256 375 265 369 262 371 255 379 261 375 268 371 258 382 262 380 270 373 268 376 261 385 267 380 273 375 264 387 268 385 276 378 273 381 267 390 273 385 279 380 270 392 274 390 281 382 279 385 273 394 279 389 284 384 277 396 280 394 287 385 285 389 280 398 285 393 291 387 283 400 287 398 294 389 292 392 287 402 292 396 297 390 291 404 294 401 300 392 299 396 294 405 299 399 303 393 298 407 301 404 307 395 305 398 301 408 306 402 310 396 305 410 308 407 314 397 312 401 309 411 313 405 317 398 313 412 316 409 320 399 319 403 316 413 320 407 324 400 320 414 323 411 327 401 326 404 324 415 328 408 331 401 328 416 331 412 334 402 334 406 332 417 335 410 338 402 336 417 338 413 342 403 341 407 340 418 342 410 345 403 344 418 346 414 349 404 348 408 348 418 350 411 352 404 352 419 354 415 356 404 356 408 356 419 358 411 359 404 359 419 361 415 363 404 363 408 364 419 365 411 367 404 367 419 369 414 370 403 371 408 371 418 373 411 374 403 375 418 377 414 377 403 378 407 379 418 380 410 381 402 383 417 385 413 384 402 385 406 387 416 388 409 388 401 391 416 392 411 391 400 392 404 395 415 395 407 395 399 399 414 400 409 398 398 400 402 403 413 402 405 402 397 407 411 407 407 406 396 407 400 411 410 410 402 409 395 414 409 415 404 413 393 414 397 418 407 417 399 416 392 422 406 422 401 419 390 421 394 426 404 424 396 422 389 429 402 429 398 426 387 427 391 433 400 431 393 429 385 436 398 436 394 432 384 434 387 439 396 437 389 435 382 443 394 442 390 438 380 440 383 446 392 443 385 441 378 449 390 449 385 443 376 446 379 453 387 450 380 446 373 456 385 455 381 449 371 452 374 459 382 455 376 452 369 462 380 460 376 454 366 457 369 465 377 461 371 457 364 467 374 466 370 459 361 462 364 470 372 466 365 462 359 473 369 471 365 464 356 467 359 476 366 471 360 467 353 478 363 476 359 469 351 472 353 481 360 476 354 471 348 483 357 481 353 473 345 476 347 485 353 480 348 475 342 487 350 485 346 477 339 480 341 490 347 484 341 479 336 492 343 489 339 481 332 484 334 494 340 492 336 485 332 483 329 496 336 493 332 484 326 488 328 498 332 492 327 486 323 499 329 496 325 487 319 491 321 501 325 495 320 489 316 502 321 499 318 490 312 494 314 504 317 498 313 491 309 505 314 502 312 492 307 496 308 506 311 501 310 496 308 501 310 506 311 " />
</svg>
