<?xml version="1.0" encoding="UTF-8" standalone="no"?>
<svg xmlns="http://www.w3.org/2000/svg" version="1.1" width="538" height="491">
    <path id="Block1Jump0"
        fill="none"
        stroke="#FEE3C5"
		stroke-width="2px"
		d="M 282 53 L 260 57 244 60 223 66 204 72 184 81 166 92 149 105 134 119 122 133 110 151 101 169 94 185 88 206 84 226 82 247 67 238 54 235 42 236 31 241 23 249 17 258 14 269 14 282 18 293 23 299 34 308 51 313 63 311 74 307 78 328 84 349 92 369 102 388 115 406 129 422 145 437 162 449 181 460 201 469 221 475 243 479 264 481 286 480 307 477 328 472 348 464 368 454 385 442 402 428 417 412 430 395 441 376 450 357 457 336 461 315 476 323 488 325 500 324 510 319 519 312 524 303 528 293 528 281 524 269 517 259 508 252 497 248 486 247 475 250 466 255 455 265 454 261 458 256 461 235 460 213 457 192 451 172 443 153 435 137 423 121 414 111 400 97 389 88 372 77 357 70 339 63 322 58 302 56 282 55 302 55 333 59 323 59 285 59 247 59 240 59 251 63 289 63 327 63 356 67 343 67 305 67 266 67 228 67 211 67 238 71 276 71 314 71 352 71 373 75 368 75 330 75 292 75 254 75 216 75 192 75 204 79 242 79 280 79 318 79 356 79 385 83 371 83 333 83 295 83 257 83 219 83 181 83 177 83 202 87 240 87 278 87 316 87 354 87 392 90 397 91 393 91 358 91 320 91 282 91 244 91 206 91 168 91 164 91 184 95 222 95 260 95 298 95 336 95 374 95 406 99 384 99 346 99 308 99 270 99 232 99 194 99 157 99 153 99 171 103 209 103 247 103 285 103 323 103 361 103 399 103 414 107 387 107 349 107 311 107 273 107 235 107 197 107 159 107 143 107 174 111 212 111 250 111 288 111 326 111 364 111 402 111 422 115 385 115 347 115 309 115 271 115 233 115 195 115 157 115 135 115 162 119 200 119 238 119 276 119 314 119 352 119 390 119 423 122 427 123 405 123 367 123 329 123 291 123 253 123 215 123 177 123 139 123 128 123 149 127 187 127 225 127 263 127 301 127 339 127 377 127 415 127 433 131 429 131 392 131 354 131 316 131 278 131 240 131 202 131 164 131 126 131 121 131 152 135 190 135 228 135 266 135 304 135 342 135 380 135 418 135 439 139 434 139 396 139 358 139 320 139 282 139 244 139 206 139 168 139 130 139 115 139 150 143 188 143 226 143 264 143 302 143 340 143 378 143 416 143 443 147 421 147 383 147 345 147 307 147 269 147 231 147 193 147 155 147 117 147 110 147 132 151 170 151 208 151 246 151 284 151 322 151 360 151 398 151 436 151 447 155 442 155 408 155 370 155 332 155 294 155 256 155 218 155 180 155 142 155 104 155 119 159 157 159 195 159 233 159 271 159 309 159 347 159 385 159 423 159 450 163 446 163 412 163 374 163 336 163 298 163 259 163 221 163 183 163 145 163 107 163 101 163 123 167 161 167 199 167 237 167 275 167 313 167 351 167 389 167 427 167 454 171 448 171 410 171 372 171 334 171 296 171 258 171 220 171 182 171 144 171 106 171 97 171 110 175 148 175 186 175 224 175 262 175 300 175 338 175 376 175 414 175 451 175 456 179 429 179 391 179 353 179 315 179 277 179 239 179 201 179 163 179 125 179 93 179 97 183 135 183 173 183 211 183 249 183 287 183 325 183 363 183 401 183 439 183 458 187 454 187 417 187 379 187 341 187 303 187 264 187 226 187 188 187 150 187 112 187 90 187 101 191 139 191 177 191 215 191 253 191 291 191 329 191 367 191 405 191 443 191 460 195 456 195 420 195 382 195 344 195 306 195 268 195 230 195 192 195 154 195 116 195 88 195 99 199 137 199 175 199 213 199 251 199 289 199 327 199 365 199 403 199 441 199 461 203 445 203 407 203 369 203 331 203 293 203 255 203 217 203 179 203 141 203 103 203 86 203 119 207 157 207 195 207 233 207 271 207 309 207 347 207 385 207 423 207 458 207 463 211 432 211 394 211 356 211 318 211 280 211 242 211 204 211 166 211 128 211 90 211 84 211 106 215 144 215 182 215 220 215 258 215 296 215 334 215 372 215 410 215 448 215 463 219 436 219 398 219 360 219 322 219 284 219 246 219 208 219 170 219 132 219 94 219 82 219 109 223 147 223 185 223 223 223 261 223 299 223 337 223 375 223 413 223 451 223 463 227 434 227 396 227 358 227 320 227 282 227 244 227 206 227 168 227 130 227 92 227 81 227 96 231 134 231 172 231 210 231 248 231 286 231 324 231 362 231 400 231 438 231 463 235 454 235 416 235 378 235 340 235 302 235 264 235 226 235 188 235 150 235 112 235 81 235 84 239 122 239 160 239 198 239 236 239 274 239 312 239 350 239 388 239 426 239 463 243 441 243 403 243 365 243 327 243 289 243 251 243 213 243 175 243 137 243 99 243 80 243 87 247 125 247 163 247 201 247 239 247 277 247 315 247 353 247 391 247 429 247 433 247 463 247 432 245 403 246 374 248 345 249 316 250 286 251 257 252 228 251 199 250 169 249 140 248 111 246 82 245 53 244 59 241 64 235 40 235 46 239 80 243 61 243 25 243 49 247 87 247 125 247 163 247 201 247 239 247 277 247 315 247 353 247 391 247 429 247 461 251 444 251 406 251 368 251 330 251 292 251 254 251 216 251 178 251 140 251 102 251 64 251 26 251 18 251 47 255 85 255 123 255 161 255 199 255 237 255 275 255 313 255 351 255 389 255 427 255 459 259 432 259 394 259 356 259 318 259 280 259 242 259 204 259 166 259 128 259 90 259 52 259 14 259 29 263 67 263 105 263 143 263 181 263 219 263 257 263 295 263 333 263 371 263 409 263 447 263 451 263 459 263 427 264 398 268 369 271 340 275 310 278 281 282 252 285 222 288 193 292 164 295 134 299 105 303 76 306 47 311 52 315 56 315 71 311 34 311 34 307 51 307 71 307 101 305 129 301 157 297 186 294 214 298 242 302 268 305 295 309 322 311 349 312 376 313 402 314 429 315 456 317 477 318 497 321 497 327 470 323 481 323 509 323 509 319 471 319 463 315 494 315 515 315 488 317 461 316 434 315 406 314 379 313 352 312 325 311 298 310 325 302 352 296 380 289 407 282 435 275 462 268 489 261 474 252 477 247 502 247 511 251 482 251 467 251 466 255 503 255 521 259 508 259 470 259 458 259 420 259 382 260 344 260 306 260 268 261 230 261 192 261 154 262 116 262 78 262 40 263 29 263 67 263 105 263 143 263 181 263 219 263 257 263 295 263 333 263 371 263 409 263 447 263 485 263 520 263 526 267 495 267 457 267 419 267 381 267 343 267 305 267 267 267 229 267 191 267 153 267 115 267 77 267 39 267 11 267 16 271 54 271 92 271 130 271 168 271 206 271 244 271 282 271 320 271 358 271 396 271 434 271 472 271 510 271 529 275 498 275 460 275 422 275 384 275 346 275 308 275 270 275 232 275 194 275 156 275 118 275 80 275 42 275 11 275 20 279 58 279 96 279 134 279 172 279 210 279 248 279 286 279 324 279 362 279 400 279 438 279 476 279 514 279 531 283 496 283 458 283 420 283 382 283 344 283 306 283 268 283 230 283 192 283 154 283 116 283 78 283 40 283 12 283 45 287 83 287 121 287 159 287 197 287 235 287 273 287 311 287 349 287 387 287 425 287 463 287 501 287 530 291 516 291 478 291 440 291 402 291 364 291 326 291 288 291 250 291 212 291 174 291 136 291 98 291 60 291 22 291 14 291 32 295 70 295 108 295 146 295 184 295 222 295 260 295 298 295 336 295 374 295 412 295 450 295 488 295 526 295 529 299 503 299 465 299 427 299 389 299 351 299 313 299 275 299 237 299 199 299 161 299 123 299 85 299 47 299 19 299 35 303 73 303 111 303 149 303 187 303 225 303 263 303 302 303 340 303 378 303 416 303 454 303 492 303 526 307 507 307 469 307 431 307 393 307 355 307 317 307 279 307 241 307 203 307 165 307 127 307 89 307 51 307 29 307 67 309 105 311 110 311 148 311 186 311 224 311 262 311 300 311 338 311 376 311 414 311 452 311 490 311 519 315 494 315 456 315 418 315 380 315 342 315 304 315 266 315 228 315 190 315 152 315 114 315 77 315 73 315 91 319 129 319 167 319 205 319 243 319 281 319 319 319 357 319 395 319 433 319 462 323 443 323 405 323 367 323 329 323 291 323 253 323 215 323 177 323 139 323 101 323 74 323 79 327 117 327 155 327 193 327 231 327 269 327 307 327 345 327 383 327 421 327 457 327 461 331 447 331 409 331 371 331 333 331 295 331 257 331 219 331 181 331 143 331 105 331 76 331 82 335 120 335 158 335 196 335 234 335 272 335 310 335 348 335 386 335 424 335 459 339 445 339 407 339 369 339 331 339 293 339 255 339 217 339 179 339 141 339 103 339 78 339 107 343 145 343 183 343 221 343 259 343 297 343 335 343 373 343 411 343 449 343 456 347 427 347 389 347 351 347 313 347 275 347 237 347 199 347 161 347 123 347 85 347 81 347 94 351 132 351 170 351 208 351 246 351 284 351 322 351 360 351 398 351 436 351 453 355 449 355 414 355 376 355 338 355 300 355 262 355 224 355 186 355 148 355 110 355 83 355 98 359 136 359 174 359 212 359 250 359 288 359 326 359 364 359 402 359 440 359 450 363 417 363 379 363 341 363 303 363 265 363 227 363 189 363 151 363 113 363 86 363 96 367 134 367 172 367 210 367 248 367 286 367 324 367 362 367 400 367 438 367 447 371 442 371 404 371 366 371 328 371 290 371 252 371 214 371 176 371 138 371 100 371 90 371 116 375 154 375 192 375 230 375 268 375 306 375 344 375 382 375 420 375 443 379 430 379 392 379 354 379 316 379 278 379 240 379 202 379 164 379 126 379 94 379 103 383 141 383 179 383 217 383 255 383 293 383 331 383 369 383 407 383 438 387 433 387 395 387 357 387 319 387 281 387 243 387 205 387 167 387 129 387 99 387 106 391 144 391 182 391 220 391 258 391 296 391 334 391 372 391 410 391 433 395 429 395 393 395 355 395 317 395 279 395 241 395 203 395 165 395 127 395 103 395 132 399 170 399 208 399 246 399 284 399 322 399 360 399 398 399 428 403 413 403 375 403 337 403 299 403 261 403 223 403 185 403 147 403 109 403 119 407 157 407 195 407 233 407 271 407 309 407 347 407 385 407 421 407 421 411 400 411 362 411 324 411 286 411 248 411 210 411 172 411 134 411 115 411 122 415 160 415 198 415 236 415 274 415 312 415 350 415 388 415 414 419 404 419 366 419 328 419 290 419 252 419 214 419 176 419 138 419 122 419 158 423 196 423 234 423 272 423 310 423 348 423 386 423 407 427 391 427 353 427 315 427 277 427 239 427 201 427 163 427 130 427 140 431 178 431 216 431 254 431 292 431 330 431 368 431 398 435 378 435 340 435 302 435 264 435 226 435 188 435 150 435 139 435 165 439 203 439 241 439 279 439 317 439 355 439 389 443 382 443 344 443 306 443 268 443 230 443 192 443 154 443 148 443 169 447 207 447 245 447 283 447 321 447 359 447 377 451 342 451 304 451 266 451 228 451 190 451 160 451 194 455 232 455 270 455 308 455 346 455 363 459 359 459 323 459 285 459 247 459 209 459 173 459 185 463 219 463 257 463 295 463 333 463 347 467 311 467 273 467 235 467 197 467 189 467 223 471 261 471 299 471 333 471 326 475 314 475 276 475 238 475 211 475 249 478 259 479 297 479 280 483 263 483 256 483 263 483 273 483 263 483 256 483 " />
    <path id="Block2Jump1"
        fill="none"
        stroke="#FDD9DE"
		stroke-width="2px"
		d="M 109 244 L 119 242 129 241 119 242 109 244 114 234 133 231 99 245 159 237 95 253 "/>
    <path id="Block2Jump2"
        fill="none"
        stroke="#FDD9DE"
		stroke-width="2px"
		d="M 168 248 L "/>
    <path id="Block2Jump3"
        fill="none"
        stroke="#FDD9DE"
		stroke-width="2px"
		d="M 93 262 L "/>
    <path id="Block2Jump4"
        fill="none"
        stroke="#FDD9DE"
		stroke-width="2px"
		d="M 171 259 L "/>
    <path id="Block2Jump5"
        fill="none"
        stroke="#FDD9DE"
		stroke-width="2px"
		d="M 94 272 L "/>
    <path id="Block2Jump6"
        fill="none"
        stroke="#FDD9DE"
		stroke-width="2px"
		d="M 171 267 L "/>
    <path id="Block2Jump7"
        fill="none"
        stroke="#FDD9DE"
		stroke-width="2px"
		d="M 99 283 L "/>
    <path id="Block2Jump8"
        fill="none"
        stroke="#FDD9DE"
		stroke-width="2px"
		d="M 169 276 L 107 292 164 286 125 301 154 297 144 298 134 299 144 298 154 297 "/>
    <path id="Block2Jump9"
        fill="none"
        stroke="#FDD9DE"
		stroke-width="2px"
		d="M 384 254 L 394 252 404 251 394 252 384 254 389 244 408 241 374 255 434 247 370 263 "/>
    <path id="Block2Jump10"
        fill="none"
        stroke="#FDD9DE"
		stroke-width="2px"
		d="M 443 258 L "/>
    <path id="Block2Jump11"
        fill="none"
        stroke="#FDD9DE"
		stroke-width="2px"
		d="M 368 271 L "/>
    <path id="Block2Jump12"
        fill="none"
        stroke="#FDD9DE"
		stroke-width="2px"
		d="M 446 268 L "/>
    <path id="Block2Jump13"
        fill="none"
        stroke="#FDD9DE"
		stroke-width="2px"
		d="M 369 282 L "/>
    <path id="Block2Jump14"
        fill="none"
        stroke="#FDD9DE"
		stroke-width="2px"
		d="M 446 277 L "/>
    <path id="Block2Jump15"
        fill="none"
        stroke="#FDD9DE"
		stroke-width="2px"
		d="M 374 293 L "/>
    <path id="Block2Jump16"
        fill="none"
        stroke="#FDD9DE"
		stroke-width="2px"
		d="M 444 286 L 382 302 439 296 400 310 429 307 419 308 409 309 419 308 429 307 " />
    <path id="Block3Jump17"
        fill="none"
        stroke="#000000"
		stroke-width="2px"
		d="M 141 111 L 152 119 141 111 152 119 159 131 152 119 159 131 160 145 159 131 160 145 157 155 160 145 157 155 156 152 158 139 156 152 158 139 156 127 158 139 156 127 150 115 156 127 150 115 141 106 150 115 141 106 130 99 142 105 130 99 116 97 130 99 116 97 103 101 116 97 103 101 91 108 103 101 91 108 83 116 91 108 83 116 85 113 95 102 85 113 95 102 109 97 95 102 109 97 124 97 109 97 124 97 137 103 124 97 137 103 147 111 137 103 147 111 142 107 137 103 142 107 147 111 199 68 207 76 199 68 207 76 212 86 207 76 212 86 213 97 212 86 213 97 209 108 213 97 209 108 208 105 210 92 208 105 210 92 208 79 210 92 208 79 202 68 208 79 202 68 193 59 202 68 193 59 182 51 194 57 182 51 168 50 182 51 168 50 155 54 168 50 155 54 143 61 155 54 143 61 135 68 143 61 135 68 137 65 147 55 137 65 147 55 161 50 147 55 161 50 176 50 161 50 176 50 189 55 176 50 189 55 199 64 189 55 199 64 194 59 189 55 194 59 199 64 "/>
    <path id="Block3Jump18"
        fill="none"
        stroke="#000000"
		stroke-width="2px"
		d="M 289 52 L 289 63 289 52 289 63 283 73 289 63 283 73 274 79 283 73 274 79 275 75 286 68 275 75 286 68 290 56 286 68 290 56 291 42 290 56 291 42 290 30 291 42 290 30 285 17 292 29 285 17 275 8 285 17 275 8 262 3 275 8 262 3 249 2 262 3 249 2 238 3 249 2 238 3 241 1 255 0 241 1 255 0 270 4 255 0 270 4 282 13 270 4 282 13 290 25 282 13 290 25 292 40 290 25 292 40 291 52 292 40 291 52 291 46 292 40 291 46 291 52 "/>
    <path id="Block3Jump19"
        fill="none"
        stroke="#000000"
		stroke-width="2px"
		d="M 382 75 L 375 83 382 75 375 83 365 88 375 83 365 88 353 90 365 88 353 90 343 88 353 90 343 88 345 86 357 88 345 86 357 88 369 86 357 88 369 86 380 80 369 86 380 80 386 70 380 80 386 70 391 58 388 72 391 58 388 43 391 58 388 43 381 31 388 43 381 31 371 20 381 31 371 20 363 12 371 20 363 12 366 14 378 23 366 14 378 23 386 36 378 23 386 36 391 50 386 36 391 50 390 65 391 50 390 65 383 77 390 65 383 77 427 111 420 121 427 111 420 121 418 134 420 121 418 134 420 146 418 134 420 146 422 143 420 130 422 143 420 130 423 118 420 130 423 118 430 106 423 118 430 106 440 98 430 106 440 98 451 91 438 97 451 91 464 90 451 91 464 90 477 95 464 90 477 95 488 102 477 95 488 102 497 111 488 102 497 111 495 108 485 97 495 108 485 97 472 91 485 97 472 91 457 90 472 91 457 90 443 95 457 90 443 95 433 102 443 95 433 102 429 107 416 116 429 107 423 112 416 118 420 117 427 111 431 111 418 121 422 120 433 114 428 118 419 124 423 123 431 118 435 118 421 126 426 126 437 121 432 124 423 130 427 129 436 125 440 125 425 133 430 132 441 128 436 131 427 136 431 136 439 131 443 132 429 139 433 139 445 135 439 138 430 143 434 143 443 138 447 139 432 146 437 146 449 142 443 145 434 149 438 150 447 145 450 146 436 153 440 153 452 149 446 152 437 156 441 156 450 152 454 153 439 160 443 160 455 156 450 159 440 163 444 163 453 159 457 160 442 166 446 167 459 164 452 166 443 170 447 170 456 167 460 167 445 173 449 174 458 170 461 171 455 173 446 177 450 177 459 174 463 175 447 180 451 181 464 179 458 181 448 184 452 184 461 182 465 182 449 187 453 188 466 186 460 188 450 190 454 191 463 189 467 190 451 194 455 195 464 193 468 194 461 195 452 197 456 198 465 197 469 198 452 201 457 202 469 202 463 203 453 204 457 206 466 205 470 206 453 208 457 209 467 209 470 210 464 211 454 212 457 213 467 212 470 214 454 215 458 217 471 218 464 218 454 219 458 220 467 220 471 222 454 222 458 224 467 224 471 226 464 226 454 226 458 228 467 228 471 230 454 230 458 232 471 234 464 234 454 233 457 235 467 236 470 238 454 237 457 239 467 240 470 242 464 241 454 240 457 243 467 244 470 245 453 244 457 247 470 248 463 248 453 248 456 251 466 250 469 251 452 253 456 254 469 254 465 255 451 257 455 259 468 255 464 257 451 263 458 261 463 260 450 269 456 265 453 270 450 273 456 264 459 258 457 269 460 266 460 257 461 253 462 266 464 262 463 253 463 249 465 256 466 263 467 259 465 250 466 246 470 260 471 256 467 246 468 242 472 254 474 258 469 246 470 242 476 257 476 253 473 244 474 240 477 252 479 256 477 244 478 239 481 255 482 251 481 242 482 238 484 251 484 255 485 242 487 238 487 255 489 251 489 241 491 238 491 250 490 255 493 242 496 239 493 255 495 252 497 243 500 240 497 252 496 256 501 244 504 241 499 257 502 254 505 245 508 242 503 254 502 258 508 247 512 245 504 259 507 257 512 249 516 247 509 257 507 261 516 251 520 249 509 262 513 260 519 254 523 253 514 261 511 264 521 257 526 256 513 266 517 265 525 259 529 259 519 266 515 269 526 263 531 263 517 271 521 271 529 266 533 267 522 272 518 274 530 270 535 271 519 276 523 277 532 274 536 275 524 278 520 279 532 278 537 279 520 282 524 283 534 282 538 284 525 285 521 285 534 286 538 288 521 288 525 289 534 290 537 292 525 291 521 291 533 294 537 296 520 293 524 296 534 298 536 300 524 297 520 296 532 301 535 305 519 299 522 302 531 305 533 309 522 304 518 302 529 309 531 313 517 304 519 308 527 313 529 316 519 309 515 307 524 316 526 320 513 309 515 313 522 319 523 323 514 314 511 311 519 322 520 326 509 313 510 317 516 325 516 329 509 319 507 315 512 326 512 331 504 317 505 321 509 329 508 333 503 322 502 318 505 330 504 335 499 319 498 323 501 332 500 336 497 324 496 320 497 333 496 337 493 320 492 324 493 334 491 337 491 325 490 321 489 333 487 337 487 321 486 324 485 334 483 337 484 325 485 321 481 333 479 336 482 320 480 323 477 333 474 335 478 324 479 319 473 331 470 334 476 319 473 321 469 330 466 332 471 322 473 317 466 328 462 331 469 315 466 317 463 326 461 330 464 319 466 313 463 316 460 328 459 324 460 309 462 319 457 309 459 312 460 316 455 314 463 320 459 319 454 319 465 324 459 323 453 323 463 326 466 327 461 327 455 327 466 331 455 328 452 329 464 332 468 333 455 332 451 332 467 337 463 338 454 335 450 336 462 339 466 340 453 339 449 339 465 344 461 345 452 342 448 343 460 347 463 348 451 346 447 346 462 352 458 353 449 349 445 350 457 354 461 356 449 353 444 353 460 359 456 360 447 356 443 357 454 361 458 363 446 360 441 360 457 367 453 367 444 363 440 363 451 369 455 370 443 367 438 367 453 374 449 374 441 370 437 370 448 376 452 377 439 373 435 373 450 381 446 381 437 376 433 376 444 382 448 384 436 380 432 380 446 388 442 388 434 383 430 383 440 389 444 391 432 386 428 386 442 395 438 394 430 389 426 389 436 396 440 398 428 393 424 392 437 401 433 401 426 396 422 395 432 402 435 405 424 399 419 398 433 408 429 407 421 401 417 401 427 408 430 411 419 405 415 404 428 414 424 413 417 407 413 407 422 414 425 417 415 410 410 409 423 420 419 419 412 413 408 412 417 420 420 423 410 416 405 415 418 426 414 425 407 418 403 417 412 426 415 429 405 421 400 420 412 432 408 431 401 424 398 422 406 431 409 434 399 427 395 425 406 437 402 436 396 429 392 427 401 437 403 440 394 432 390 430 400 442 397 441 390 433 387 432 395 442 397 445 388 436 384 434 394 447 390 446 385 438 381 436 389 446 391 450 382 441 378 439 388 452 384 450 379 442 375 441 382 451 385 454 376 445 372 443 381 457 378 455 373 447 369 445 376 455 378 459 370 449 366 447 375 461 371 459 366 451 363 448 369 459 371 463 363 453 360 450 368 465 364 463 360 454 357 452 362 463 364 467 357 456 353 454 361 468 357 466 353 458 350 455 355 467 357 470 350 460 347 457 354 472 350 470 347 461 343 458 348 470 350 473 343 463 340 460 346 475 343 473 340 464 337 461 341 473 343 477 337 466 333 462 339 478 336 475 333 466 330 464 334 475 335 479 329 468 326 465 332 480 329 478 326 469 323 466 327 478 328 482 322 470 320 467 324 483 321 480 319 471 316 468 319 480 320 484 315 472 312 469 316 485 314 482 311 473 309 470 312 482 312 486 308 474 305 470 309 487 306 484 304 474 302 471 304 483 305 487 301 475 298 472 301 488 298 485 297 475 294 472 296 484 297 488 293 476 291 473 293 489 290 486 289 477 287 473 289 485 289 490 286 477 284 473 285 490 283 487 282 477 280 474 281 486 281 490 278 478 276 474 277 490 275 487 275 478 273 474 273 486 273 491 271 478 269 474 269 491 267 487 267 478 265 474 265 486 265 491 263 478 262 474 261 490 259 487 260 477 258 474 257 486 257 490 256 478 254 474 253 490 251 487 252 477 251 473 250 486 249 490 248 477 247 473 245 489 244 486 245 476 243 472 242 485 241 489 241 476 240 472 237 488 236 485 237 475 236 471 234 484 233 488 234 475 233 471 230 487 228 483 230 474 229 470 226 482 226 486 226 473 225 469 222 485 220 481 223 472 222 468 219 480 217 484 219 472 218 467 214 483 212 480 215 470 214 466 211 478 210 482 209 475 210 468 206 478 210 468 209 465 205 476 204 480 206 468 205 463 200 479 199 475 202 466 202 462 198 474 196 478 199 465 199 461 192 476 192 472 196 463 195 459 190 471 189 475 192 462 192 458 185 473 185 469 189 461 188 457 183 468 181 472 185 460 185 455 178 470 178 466 182 457 182 453 176 465 174 468 178 456 179 452 171 466 171 462 175 454 175 450 169 461 167 464 172 453 172 448 164 463 164 459 169 450 169 446 163 457 161 460 165 449 166 444 157 458 157 454 163 446 163 442 156 453 154 456 159 445 160 440 151 454 151 450 156 442 157 438 150 448 147 452 153 440 154 436 144 449 145 445 150 438 151 434 143 443 141 447 147 436 148 431 138 444 139 440 145 433 145 429 137 439 135 442 141 431 143 427 132 439 133 435 139 428 140 424 132 433 129 436 136 426 137 422 126 434 127 430 134 423 135 419 126 428 123 431 131 421 132 417 120 428 121 425 128 418 130 414 121 423 118 425 125 415 127 411 115 422 116 419 123 412 125 409 115 417 112 419 121 410 122 406 110 416 111 413 118 407 120 403 110 411 107 413 116 404 118 400 105 410 106 406 114 401 116 397 106 405 102 407 111 398 114 394 100 404 102 400 109 395 111 391 101 398 98 401 107 392 109 388 96 397 97 394 106 388 108 385 97 392 93 394 103 386 106 382 91 390 93 387 102 382 104 379 93 385 89 387 99 379 102 376 87 384 89 380 98 376 100 372 89 378 86 380 96 373 99 369 84 376 86 373 95 369 97 366 86 371 82 373 93 366 95 363 80 369 83 366 91 362 94 359 82 364 79 366 90 359 93 356 77 362 80 359 89 355 91 352 80 357 76 358 87 352 90 349 74 355 77 352 86 348 89 346 77 350 73 351 84 345 88 342 72 347 75 344 84 341 87 339 75 342 71 343 82 338 86 335 70 339 72 337 82 334 85 332 72 335 69 336 80 331 84 328 68 332 71 330 81 327 83 323 74 327 70 328 78 323 82 318 67 328 69 325 80 316 80 312 70 323 73 317 79 305 77 308 66 324 68 320 75 306 74 302 67 319 68 314 68 305 64 323 64 319 65 310 62 307 63 320 61 314 58 308 61 324 59 321 57 311 55 308 56 320 57 324 54 315 52 308 52 325 50 322 51 312 49 308 48 321 48 325 47 314 46 308 44 324 42 320 44 311 43 307 40 319 39 323 40 313 41 306 35 322 34 318 38 309 38 305 31 320 34 311 35 304 27 319 27 315 32 306 33 303 26 313 23 316 28 307 30 301 20 314 20 310 27 303 28 299 19 308 16 311 22 302 26 297 14 308 15 304 22 298 24 294 11 304 18 297 22 292 8 301 10 297 18 293 21 289 10 295 6 297 14 291 20 287 4 293 7 290 15 287 18 284 6 288 2 289 12 284 18 281 2 285 5 282 14 280 17 278 1 280 11 277 17 275 0 276 4 274 13 274 17 272 5 272 1 272 11 270 17 269 1 267 5 266 14 267 18 266 2 263 12 263 18 263 2 259 6 258 15 261 19 261 4 255 14 257 21 258 6 251 10 250 18 255 22 255 11 249 8 247 17 251 24 253 10 243 14 243 22 250 26 251 13 240 22 245 28 249 16 237 20 238 26 245 30 247 22 237 19 233 27 240 32 245 23 231 27 233 32 241 35 243 27 229 33 237 37 242 31 227 34 229 37 238 40 241 35 225 40 234 43 240 39 224 42 227 44 236 46 239 44 227 43 223 47 233 49 239 47 222 50 226 50 235 52 239 52 222 54 232 55 239 56 222 58 226 57 235 57 239 60 227 60 223 60 233 60 240 64 224 65 228 63 237 63 241 69 225 67 235 66 242 73 227 73 231 69 239 68 243 74 232 76 228 73 238 71 245 79 230 79 234 74 244 75 248 82 232 80 241 79 250 84 234 84 238 81 252 85 255 85 239 85 246 86 253 88 256 86 250 82 243 89 250 85 245 80 240 90 245 87 241 78 237 82 238 91 240 88 238 80 236 76 234 91 236 87 234 77 231 82 231 89 232 78 231 75 229 92 230 88 228 75 225 82 225 92 227 89 224 79 223 76 221 92 223 89 221 77 217 83 218 93 220 90 217 80 215 77 213 94 216 90 213 78 209 85 210 94 212 91 210 82 208 79 205 95 209 92 206 83 204 80 201 86 203 96 205 93 203 84 200 81 197 97 202 94 199 82 193 88 195 98 198 95 195 86 193 83 190 99 195 96 192 84 186 91 188 100 191 97 188 88 185 86 182 101 188 99 185 90 181 87 178 93 181 103 184 100 181 91 178 89 175 104 181 101 178 90 171 96 174 105 177 103 174 94 170 92 167 107 174 104 171 96 167 93 164 99 167 108 171 106 168 97 163 95 160 110 167 107 164 97 157 103 160 112 164 109 161 101 156 99 153 114 161 111 157 101 150 107 153 115 158 113 154 105 149 103 146 117 155 115 151 107 146 105 143 111 146 119 152 117 148 109 143 107 139 121 148 119 145 109 136 115 140 123 145 121 142 113 136 112 133 125 142 123 139 115 133 114 129 119 133 127 139 125 136 118 130 116 126 129 136 128 133 120 127 119 123 124 127 132 134 130 130 123 124 121 120 134 131 132 127 124 117 129 121 136 128 135 124 128 118 126 114 139 125 137 121 130 115 129 111 134 116 141 122 140 119 133 112 132 108 144 120 142 116 135 106 139 110 146 117 145 114 139 107 138 103 149 115 148 111 141 104 141 100 145 105 152 112 151 108 144 101 144 97 154 110 154 106 147 99 147 95 151 100 157 108 157 104 151 96 150 92 160 105 159 101 153 90 157 95 163 103 162 99 157 91 156 87 166 101 165 96 159 85 163 90 169 98 168 95 163 86 162 82 172 96 171 92 166 84 166 80 170 86 175 94 175 90 169 82 169 78 178 92 178 88 173 76 176 82 181 91 181 87 176 78 176 74 184 89 184 84 180 72 183 78 188 87 188 83 183 74 183 70 191 85 191 81 186 72 187 68 190 74 194 83 194 79 190 71 190 67 197 82 197 77 194 65 197 71 201 80 201 76 197 68 198 64 204 79 204 74 201 62 204 68 207 78 208 74 204 65 205 61 211 76 211 72 209 59 211 65 214 75 215 71 212 62 212 58 218 73 218 69 215 60 216 56 218 63 221 72 222 68 219 59 220 55 225 71 225 67 224 54 226 61 228 70 229 66 227 57 228 53 232 69 233 65 231 52 233 59 235 68 236 64 234 55 235 51 239 67 240 63 238 54 239 50 240 57 242 66 244 63 242 53 243 50 246 66 247 62 247 49 248 55 250 65 251 62 250 52 251 48 254 65 255 61 255 48 256 54 257 64 258 60 257 51 259 47 261 64 262 59 263 47 263 53 264 63 266 59 265 50 267 46 268 63 270 59 269 49 271 46 271 52 272 62 273 59 273 49 275 46 275 62 277 58 279 46 279 52 279 62 281 59 281 49 283 46 283 62 284 58 286 46 286 52 286 62 288 59 288 49 290 46 290 62 292 58 294 46 294 52 294 62 296 59 296 49 298 45 297 62 299 59 300 49 302 46 302 53 301 62 303 59 304 50 306 46 305 63 307 59 310 47 309 53 308 63 311 60 312 51 314 48 312 64 314 60 318 48 317 54 315 64 318 61 319 52 322 49 319 65 322 61 326 49 325 56 323 66 325 62 327 53 330 50 327 66 329 63 331 54 334 51 332 57 330 67 333 64 335 55 338 52 333 68 336 64 341 53 340 59 337 69 340 66 342 57 345 54 340 70 343 67 346 58 349 55 347 62 344 71 347 68 350 59 353 57 347 72 350 69 357 58 354 64 350 74 354 71 357 62 360 60 354 75 357 72 361 64 364 61 361 67 357 76 360 74 364 65 368 63 360 78 364 75 371 65 368 71 364 79 367 77 371 69 375 66 367 81 370 79 375 70 378 68 375 74 370 83 373 81 378 72 382 70 373 85 377 82 385 72 382 78 376 87 380 85 385 76 388 75 380 89 383 86 392 77 388 82 383 90 386 88 391 81 395 79 386 92 389 90 398 81 394 86 389 95 392 93 398 85 401 84 391 97 395 95 405 86 401 91 394 99 398 97 404 90 408 88 397 101 401 100 407 92 411 91 407 96 400 104 404 102 410 95 414 93 403 106 407 104 417 96 413 101 406 109 410 107 416 100 420 99 409 111 413 109 423 101 418 106 411 113 415 112 422 105 426 104 414 115 420 110 426 104 420 110 414 115 "/>
    <path id="Block3Jump20"
        fill="none"
        stroke="#000000"
		stroke-width="2px"
		d="M 361 216 L 365 216 375 216 365 216 361 216 365 216 377 216 373 218 363 217 359 219 382 220 373 221 358 223 363 223 384 223 381 225 361 225 358 226 381 227 386 227 373 229 358 230 362 230 385 231 382 232 362 232 359 234 381 234 385 234 373 236 361 238 365 238 383 237 379 239 368 239 365 242 379 240 372 241 365 242 372 241 379 240 "/>
    <path id="Block3Jump21"
        fill="none"
        stroke="#000000"
		stroke-width="2px"
		d="M 175 213 L 179 213 189 213 179 213 175 213 179 213 190 213 187 215 176 215 173 217 196 217 186 219 171 220 176 220 198 221 194 223 175 222 171 224 195 225 199 225 186 226 171 227 176 227 199 228 195 230 176 229 172 231 194 231 198 231 186 233 175 235 179 235 196 235 193 236 182 237 178 239 193 238 186 238 178 239 186 238 193 238 143 276 139 277 129 278 139 277 143 276 139 277 129 278 136 279 144 280 129 282 134 283 145 283 141 284 130 286 138 286 145 287 131 290 135 291 146 290 142 291 132 294 140 294 147 293 133 298 137 298 148 297 144 298 134 301 142 301 150 300 136 305 140 306 151 303 147 305 137 309 145 308 152 307 138 313 143 313 154 310 150 312 140 316 148 315 155 313 142 320 146 320 157 316 153 318 144 323 151 321 159 319 146 327 150 326 160 322 157 324 148 330 155 328 162 325 150 333 154 333 164 328 161 330 152 337 159 334 166 331 155 340 159 339 169 334 165 336 157 343 164 340 171 336 160 346 164 345 173 339 170 342 162 349 169 345 176 342 165 352 169 351 178 344 175 347 168 355 174 351 181 346 171 358 175 356 183 349 181 352 174 360 180 356 186 351 177 363 181 361 189 353 186 356 180 365 186 360 192 355 183 367 187 365 194 357 192 361 186 370 192 364 197 359 190 372 193 369 200 361 198 364 193 374 198 368 204 363 196 376 200 373 207 364 205 368 200 378 205 372 210 366 204 379 207 376 213 367 212 371 207 381 212 375 216 369 211 383 214 379 220 370 218 374 214 384 219 378 223 371 218 385 221 382 227 372 225 376 222 387 226 380 230 373 226 388 229 384 233 374 232 378 229 389 233 382 237 375 233 390 236 386 240 376 239 380 237 391 241 384 244 377 241 391 244 388 247 377 247 381 245 392 248 385 251 378 249 393 251 389 255 378 254 382 253 393 255 386 258 379 257 394 259 390 262 379 261 383 261 394 263 387 265 379 265 394 267 390 269 379 269 383 269 394 271 387 272 379 273 394 274 390 276 379 276 383 277 394 278 387 280 379 280 394 282 390 283 379 284 383 284 394 286 386 287 379 288 393 290 389 290 378 291 382 292 393 293 385 294 378 296 392 298 388 297 377 298 381 300 392 301 384 301 376 304 391 305 387 304 376 305 380 308 390 308 383 308 375 312 389 313 385 311 374 313 378 316 388 315 380 315 373 320 387 320 382 319 372 320 375 324 386 323 378 322 370 327 384 328 380 326 369 327 373 331 383 330 375 329 367 335 381 335 377 332 366 334 370 339 379 337 372 335 364 342 378 342 373 339 363 340 366 346 376 344 368 342 361 349 374 349 369 345 359 347 363 352 372 350 365 348 357 356 370 355 365 351 355 353 359 359 368 356 360 354 353 362 365 362 361 356 351 359 354 366 363 363 356 359 349 369 360 368 356 362 347 365 350 372 358 368 351 365 344 375 355 373 351 367 342 370 345 378 353 374 346 370 339 380 350 379 346 372 337 375 340 383 347 379 341 375 334 386 344 384 340 377 332 380 334 389 341 384 335 380 329 391 338 389 334 382 326 385 329 394 335 389 329 384 323 396 332 394 328 386 320 389 323 398 329 393 323 388 317 400 326 398 322 390 314 393 316 403 322 397 317 392 311 405 319 402 315 394 308 397 310 407 315 405 312 398 308 396 305 409 312 406 308 397 301 401 303 411 308 405 303 399 298 412 304 409 301 400 295 404 296 414 301 408 296 402 291 415 297 412 293 403 288 407 289 417 293 411 289 404 285 418 290 415 287 405 282 409 283 419 287 414 285 409 284 414 285 419 287 " />
</svg>
