<?xml version="1.0" encoding="UTF-8" standalone="no"?>
<svg xmlns="http://www.w3.org/2000/svg" version="1.1" width="528" height="470">
    <path id="Block1Jump0"
        fill="none"
        stroke="#FEE3C5"
		stroke-width="2px"
		d="M 252 124 L 233 131 214 138 195 145 176 152 157 158 138 165 143 149 147 132 147 120 146 110 137 102 122 104 111 120 101 137 92 154 86 171 81 190 78 209 75 229 60 219 48 216 36 218 25 223 16 230 10 239 7 250 8 263 12 274 16 280 28 289 45 294 57 293 68 288 71 309 77 330 85 350 96 369 108 387 122 403 138 418 155 431 174 442 194 450 215 457 236 461 257 462 279 462 300 458 321 453 341 445 361 435 379 423 395 409 410 394 423 376 434 358 443 338 450 317 455 296 469 305 481 307 493 305 504 300 512 293 517 285 521 274 521 262 517 250 510 240 501 233 490 229 479 229 469 231 459 236 448 246 447 242 452 236 457 223 457 209 454 196 449 186 429 178 409 170 389 162 369 154 349 146 329 138 308 131 287 124 267 118 245 113 224 109 202 107 181 104 159 103 137 104 169 103 219 107 223 107 181 107 131 107 117 107 157 111 207 111 257 115 266 116 226 116 176 116 126 116 111 116 152 120 202 120 252 120 295 124 291 124 242 124 192 124 142 124 105 124 118 128 168 128 218 128 268 128 316 132 320 133 301 133 251 133 201 133 151 133 104 133 100 133 112 137 162 137 212 137 262 137 312 137 343 141 338 141 288 141 238 141 188 141 138 141 96 141 107 145 157 145 207 145 257 145 307 145 357 149 364 150 333 150 283 150 233 150 183 150 133 150 92 150 123 154 173 154 223 154 273 154 323 154 371 154 385 158 349 158 299 158 249 158 199 158 149 158 99 158 88 158 132 162 182 162 232 162 282 162 332 162 382 162 407 167 394 167 344 167 294 167 244 167 194 167 144 167 94 167 84 167 120 171 170 171 220 171 270 171 320 171 370 171 419 175 428 175 388 175 338 175 288 175 238 175 188 175 138 175 88 175 82 175 114 179 164 179 214 179 264 179 314 179 364 179 414 179 449 184 404 184 354 184 304 184 254 184 204 184 154 184 104 184 80 184 82 188 130 188 180 188 230 188 280 188 330 188 380 188 430 188 455 192 413 192 363 192 313 192 263 192 213 192 163 192 113 192 77 192 125 196 175 196 225 196 275 196 325 196 375 196 425 196 459 201 451 201 401 201 351 201 301 201 251 201 201 201 151 201 101 201 76 201 120 205 170 205 220 205 270 205 320 205 370 205 420 205 460 209 446 209 396 209 346 209 296 209 245 209 195 209 145 209 95 209 75 209 86 213 136 213 186 213 236 213 286 213 336 213 386 213 436 213 460 218 412 218 362 218 312 218 262 218 212 218 162 218 112 218 74 218 95 222 145 222 195 222 245 222 295 222 345 222 395 222 445 222 459 226 455 226 406 226 356 226 306 226 256 226 206 226 156 226 106 226 73 226 60 234 46 225 62 218 59 218 30 218 45 222 95 222 145 223 195 223 245 224 295 225 345 225 395 226 445 226 459 226 455 226 406 226 356 226 306 226 256 226 206 226 156 226 106 226 56 226 16 226 32 230 82 230 132 230 182 230 232 230 282 230 332 230 382 230 432 230 455 235 451 235 401 235 351 235 301 235 251 235 201 235 151 235 101 235 51 235 10 235 27 239 77 239 127 239 177 239 227 239 277 239 327 239 377 239 427 239 454 243 417 243 367 243 317 243 267 243 217 243 167 243 117 243 67 243 17 243 7 243 33 244 58 246 83 248 109 250 134 253 159 256 181 260 201 267 194 272 169 278 143 282 117 285 90 287 64 289 50 291 36 294 59 294 45 290 40 290 36 290 26 291 56 287 85 284 114 280 143 277 162 275 192 279 221 282 250 286 279 289 308 292 337 293 366 294 395 296 424 297 453 298 480 299 488 301 494 307 470 307 461 303 480 303 504 303 489 299 480 299 461 299 456 300 428 298 401 297 374 295 346 294 319 292 291 291 318 284 346 277 373 270 400 264 428 257 455 250 482 242 472 238 465 230 482 230 508 235 501 235 457 235 477 239 516 243 467 243 417 243 367 243 317 243 267 243 217 243 167 243 117 243 67 243 17 243 6 243 43 248 93 248 143 248 193 248 243 248 293 248 343 248 393 248 443 248 493 248 521 252 476 252 426 252 376 252 326 252 276 252 226 252 176 252 126 252 76 252 26 252 4 252 37 256 87 256 137 256 187 256 237 256 288 256 338 256 388 256 438 256 488 256 523 260 513 260 463 260 413 260 363 260 313 260 263 260 213 260 163 260 113 260 63 260 13 260 4 260 32 265 82 265 132 265 182 265 232 265 282 265 332 265 382 265 432 265 482 265 524 269 508 269 458 269 408 269 358 269 308 269 258 269 208 269 158 269 108 269 58 269 10 269 6 269 48 273 98 273 148 273 198 273 248 273 298 273 348 273 398 273 448 273 498 273 523 277 474 277 424 277 374 277 324 277 274 277 224 277 174 277 124 277 74 277 24 277 10 277 57 282 107 282 157 282 207 282 257 282 307 282 357 282 407 282 457 282 507 282 520 286 516 286 469 286 419 286 369 286 319 286 269 286 219 286 169 286 119 286 69 286 19 286 45 290 95 290 145 290 195 290 245 290 295 290 345 290 395 290 445 290 495 290 514 294 510 294 463 294 413 294 363 294 313 294 263 294 213 294 163 294 113 294 66 294 89 299 139 299 189 299 239 299 289 299 339 299 389 299 439 299 489 299 456 303 430 303 380 303 330 303 280 303 230 303 180 303 130 303 80 303 67 303 105 307 155 307 205 307 255 307 305 307 355 307 405 307 454 311 439 311 389 311 339 311 289 311 238 311 188 311 138 311 88 311 69 311 100 316 150 316 200 316 250 316 300 316 350 316 400 316 449 316 452 320 426 320 376 320 326 320 276 320 226 320 176 320 126 320 76 320 71 320 95 324 145 324 195 324 245 324 295 324 345 324 395 324 445 324 449 328 421 328 371 328 321 328 271 328 221 328 171 328 121 328 74 328 111 333 161 333 211 333 261 333 311 333 361 333 411 333 446 337 437 337 387 337 337 337 287 337 237 337 187 337 137 337 87 337 76 337 120 341 170 341 220 341 270 341 320 341 370 341 420 341 443 345 431 345 381 345 331 345 281 345 231 345 181 345 131 345 84 345 80 345 107 350 157 350 207 350 257 350 307 350 357 350 407 350 439 354 426 354 376 354 326 354 276 354 226 354 176 354 126 354 84 354 102 358 152 358 202 358 252 358 302 358 352 358 402 358 435 362 392 362 342 362 292 362 242 362 192 362 142 362 92 362 88 362 118 367 168 367 218 367 268 367 318 367 368 367 418 367 430 371 401 371 351 371 301 371 251 371 201 371 151 371 101 371 93 371 113 375 163 375 213 375 263 375 313 375 363 375 413 375 424 379 389 379 339 379 289 379 239 379 189 379 139 379 99 379 107 384 157 384 207 384 257 384 307 384 357 384 407 384 418 388 383 388 333 388 283 388 233 388 183 388 133 388 105 388 123 392 173 392 223 392 273 392 323 392 373 392 411 396 399 396 349 396 299 396 249 396 199 396 149 396 112 396 132 401 182 401 232 401 282 401 332 401 382 401 403 405 394 405 344 405 294 405 244 405 194 405 144 405 120 405 166 409 170 409 220 409 270 409 320 409 370 409 395 413 389 413 339 413 289 413 239 413 189 413 139 413 128 413 164 418 214 418 265 418 315 418 365 418 385 422 355 422 305 422 255 422 205 422 155 422 139 422 181 426 231 426 281 426 331 426 373 430 364 430 314 430 264 430 214 430 164 430 150 430 175 435 225 435 275 435 325 435 360 439 351 439 301 439 251 439 201 439 163 439 213 443 220 443 270 443 320 443 343 447 296 447 246 447 196 447 180 447 230 451 236 452 286 452 320 456 312 456 262 456 212 456 202 456 245 460 295 460 274 464 256 464 249 464 256 464 267 464 256 464 249 464 " />
    <path id="Block2Jump1"
        fill="none"
        stroke="#FDD9DE"
		stroke-width="2px"
		d="M 103 225 L 112 224 122 222 112 224 103 225 107 216 126 212 93 226 152 219 88 235 "/>
    <path id="Block2Jump2"
        fill="none"
        stroke="#FDD9DE"
		stroke-width="2px"
		d="M 161 229 L "/>
    <path id="Block2Jump3"
        fill="none"
        stroke="#FDD9DE"
		stroke-width="2px"
		d="M 86 243 L "/>
    <path id="Block2Jump4"
        fill="none"
        stroke="#FDD9DE"
		stroke-width="2px"
		d="M 165 240 L "/>
    <path id="Block2Jump5"
        fill="none"
        stroke="#FDD9DE"
		stroke-width="2px"
		d="M 87 254 L "/>
    <path id="Block2Jump6"
        fill="none"
        stroke="#FDD9DE"
		stroke-width="2px"
		d="M 165 249 L "/>
    <path id="Block2Jump7"
        fill="none"
        stroke="#FDD9DE"
		stroke-width="2px"
		d="M 92 264 L "/>
    <path id="Block2Jump8"
        fill="none"
        stroke="#FDD9DE"
		stroke-width="2px"
		d="M 162 258 L 101 274 158 267 118 282 147 278 137 280 128 281 137 280 147 278 "/>
    <path id="Block2Jump9"
        fill="none"
        stroke="#FDD9DE"
		stroke-width="2px"
		d="M 378 235 L 388 234 397 232 388 234 378 235 382 225 401 222 368 236 427 229 363 245 "/>
    <path id="Block2Jump10"
        fill="none"
        stroke="#FDD9DE"
		stroke-width="2px"
		d="M 436 239 L "/>
    <path id="Block2Jump11"
        fill="none"
        stroke="#FDD9DE"
		stroke-width="2px"
		d="M 361 253 L "/>
    <path id="Block2Jump12"
        fill="none"
        stroke="#FDD9DE"
		stroke-width="2px"
		d="M 440 250 L "/>
    <path id="Block2Jump13"
        fill="none"
        stroke="#FDD9DE"
		stroke-width="2px"
		d="M 362 264 L "/>
    <path id="Block2Jump14"
        fill="none"
        stroke="#FDD9DE"
		stroke-width="2px"
		d="M 440 259 L "/>
    <path id="Block2Jump15"
        fill="none"
        stroke="#FDD9DE"
		stroke-width="2px"
		d="M 367 274 L "/>
    <path id="Block2Jump16"
        fill="none"
        stroke="#FDD9DE"
		stroke-width="2px"
		d="M 437 267 L 376 284 433 277 393 292 422 288 413 289 403 291 413 289 422 288 " />
    <path id="Block3Jump17"
        fill="none"
        stroke="#0B3D91"
		stroke-width="2px"
		d="M 276 1 L 289 18 302 35 315 52 328 68 342 85 355 101 369 117 383 133 397 150 411 166 425 182 439 198 454 212 458 213 462 193 464 176 463 157 460 138 456 122 449 105 440 88 428 73 418 61 403 48 388 38 371 28 377 20 377 13 373 8 366 6 360 8 356 13 355 22 336 13 324 8 303 3 282 2 261 5 248 9 232 17 215 29 199 43 183 57 168 72 188 80 208 89 227 97 247 105 267 113 288 119 309 125 329 132 349 139 369 148 387 159 406 170 423 183 440 197 456 211 457 197 461 157 462 147 458 127 449 126 445 166 428 187 429 174 433 134 436 94 437 84 421 103 417 143 400 167 401 151 405 112 408 72 410 54 393 80 389 120 371 149 373 129 377 89 380 49 382 34 368 28 363 24 361 15 363 7 369 6 368 18 365 58 361 98 357 137 357 142 342 136 345 106 349 66 352 26 353 21 337 35 333 75 329 115 313 127 313 123 317 83 321 44 324 8 308 12 305 52 301 92 301 96 298 122 279 111 260 100 241 89 222 79 203 68 184 57 182 78 197 72 217 28 213 64 211 90 226 92 229 55 248 9 245 47 241 86 240 102 257 78 261 38 262 28 264 5 279 2 277 29 273 69 269 109 269 113 285 101 289 61 293 21 293 17 294 3 308 2 299 1 296 2 300 3 320 5 332 8 300 5 268 2 295 6 333 10 342 13 330 12 290 8 253 5 280 9 319 13 352 18 319 15 279 11 245 8 249 10 289 14 329 18 333 18 351 20 346 25 356 34 356 28 366 20 359 8 361 4 370 5 378 8 374 8 357 6 360 8 377 10 380 12 376 12 354 10 375 14 381 16 369 15 352 14 359 16 381 20 359 18 352 18 312 15 272 12 249 10 289 14 329 18 369 21 379 24 374 24 334 20 294 16 254 13 237 11 259 15 299 19 339 23 376 28 338 24 299 21 259 17 231 15 254 19 293 22 333 26 373 30 384 33 368 31 328 28 288 24 248 20 225 18 238 21 278 25 318 29 358 32 393 38 358 34 318 31 278 27 238 23 220 22 248 26 288 30 328 34 367 37 401 42 372 40 332 36 293 32 253 29 216 25 219 27 257 31 297 35 337 38 377 42 406 47 377 44 337 40 297 37 257 33 217 29 211 29 214 31 252 35 292 38 332 42 372 46 408 51 412 51 406 51 367 47 327 43 287 40 247 36 210 33 206 32 237 37 277 41 317 45 356 48 396 52 417 56 396 54 356 50 316 47 277 43 237 39 202 36 207 38 246 42 286 46 326 49 366 53 406 57 422 60 411 59 371 56 331 52 291 48 251 45 211 41 197 40 216 43 256 47 296 51 336 54 376 58 415 62 426 65 415 64 375 60 336 56 296 53 256 49 216 45 193 43 211 47 251 51 291 54 330 58 370 62 410 65 429 69 405 67 365 63 325 59 285 56 245 52 206 48 189 47 196 49 235 53 275 57 315 60 355 64 395 68 433 73 395 70 355 66 315 62 275 59 235 55 195 51 186 51 205 54 245 58 285 62 325 65 364 69 404 73 437 78 409 75 369 72 329 68 290 64 250 60 210 57 182 54 215 59 255 63 294 67 334 70 374 74 414 78 440 82 414 80 374 76 334 72 294 69 254 65 215 61 178 58 209 63 249 66 289 70 329 74 369 78 409 81 442 86 403 83 364 79 324 75 284 72 244 68 204 64 174 62 194 65 234 69 274 73 314 76 353 80 393 84 433 87 445 91 433 89 393 86 353 82 313 78 274 75 234 71 194 67 170 65 204 70 243 74 283 78 323 81 363 85 403 89 442 92 447 95 408 91 368 87 328 84 288 80 248 76 208 73 171 69 167 69 173 71 213 75 253 79 293 83 333 86 373 90 412 94 450 99 412 96 372 92 333 88 293 85 253 81 213 77 173 73 164 73 204 78 208 79 248 82 288 86 327 90 367 93 407 97 447 101 452 103 442 102 402 99 362 95 322 91 282 88 243 84 203 80 176 78 193 81 232 85 272 89 312 92 352 96 392 100 432 103 454 108 431 105 392 102 352 98 312 94 272 91 232 87 192 83 188 83 202 86 242 90 282 94 322 97 362 101 401 105 441 108 456 112 446 111 406 107 366 103 326 100 287 96 247 92 207 89 200 88 212 91 252 95 291 98 331 102 371 106 411 110 451 113 457 116 451 115 411 112 371 108 331 104 291 100 251 97 212 93 246 98 286 102 326 106 366 109 406 113 445 117 459 120 440 118 400 115 361 111 321 107 281 104 241 100 224 98 234 101 271 105 311 108 350 112 390 116 430 119 460 124 430 121 390 118 350 114 310 110 271 107 235 103 275 109 280 109 320 113 360 117 400 121 440 124 462 128 445 127 405 123 365 119 325 116 285 112 248 109 286 114 290 114 330 118 370 122 409 125 449 129 463 132 449 131 409 127 369 124 330 120 290 116 263 114 285 118 324 122 364 125 404 129 444 133 464 137 439 134 399 131 359 127 319 123 282 120 309 124 349 128 389 132 429 135 434 136 463 139 448 147 438 161 435 172 438 186 445 201 455 213 457 216 462 217 457 214 452 212 462 213 459 210 450 210 447 207 463 209 460 206 445 205 442 203 460 204 464 205 460 202 437 198 465 201 438 196 432 194 443 195 465 197 443 193 426 189 439 190 466 193 434 188 421 185 425 185 463 189 467 189 463 187 424 183 416 180 434 182 467 185 440 180 409 176 445 179 467 181 445 177 409 174 401 171 440 175 467 177 435 172 398 167 394 166 426 169 463 173 467 173 463 171 426 167 386 161 396 162 436 166 467 169 441 165 401 161 379 157 406 159 446 163 467 165 446 161 407 157 371 152 402 155 442 159 468 161 437 156 397 152 361 147 387 150 427 153 463 157 467 157 431 152 427 151 387 148 350 142 358 143 397 146 437 150 466 153 442 149 403 145 363 141 337 137 368 140 408 143 448 147 466 149 448 145 408 141 368 138 332 134 320 131 324 132 363 135 403 139 443 143 465 145 438 140 398 137 359 133 319 129 301 125 309 126 349 130 389 134 428 137 464 141 429 135 389 132 349 128 309 124 305 124 292 123 285 119 266 110 247 102 228 96 209 92 190 88 171 86 159 86 140 93 123 102 106 111 89 121 71 129 82 136 92 143 106 127 118 119 130 112 148 107 168 107 188 109 207 111 227 113 247 115 267 118 287 122 268 112 250 102 231 92 212 83 194 74 175 64 156 55 137 47 117 41 98 38 79 36 66 37 55 43 43 56 38 74 38 85 46 100 59 114 73 128 94 135 98 136 93 119 55 106 42 94 38 84 51 88 88 101 126 114 136 110 122 97 84 84 46 71 40 61 44 55 79 67 117 80 155 93 193 106 208 111 228 113 248 115 267 118 264 114 226 101 188 88 150 75 113 62 75 49 71 48 55 42 61 39 60 45 65 46 75 41 85 37 108 45 146 58 184 71 187 72 197 75 215 85 233 94 251 104 269 113 287 122 296 127 297 124 292 127 294 122 288 126 290 120 284 125 286 118 283 121 280 124 283 116 279 120 276 124 279 114 276 118 272 123 276 112 272 117 268 122 272 110 268 116 264 121 265 118 269 108 263 117 260 121 265 106 262 109 256 120 262 104 258 107 252 119 253 115 258 102 251 115 248 119 254 100 251 103 244 118 251 98 248 101 240 118 242 112 247 96 240 112 236 118 244 94 240 98 232 117 233 113 240 92 237 97 228 117 230 109 236 91 228 108 223 116 233 89 229 94 219 116 221 112 229 87 225 93 215 115 219 105 226 85 217 104 211 115 222 84 218 90 207 114 209 108 218 82 214 89 203 114 208 101 215 80 206 100 199 114 200 110 211 78 206 86 195 113 198 104 208 76 202 85 191 113 196 97 204 75 194 96 187 112 188 108 200 73 195 82 183 112 187 101 197 71 191 81 179 111 185 93 193 69 183 92 174 111 177 104 189 67 184 78 170 111 175 97 186 66 180 77 166 110 174 89 182 64 172 88 162 110 165 100 177 66 179 62 172 75 158 110 164 93 175 60 168 73 155 107 154 110 162 85 171 59 160 85 149 110 154 96 166 61 168 57 161 71 149 107 145 111 152 89 164 55 157 69 144 107 140 112 151 81 161 53 149 81 135 114 143 93 156 55 157 51 150 67 137 105 131 115 141 85 153 50 146 65 133 103 126 118 127 114 140 77 150 48 138 77 125 115 120 121 131 89 144 51 146 46 138 63 125 101 115 125 117 119 130 81 142 45 134 61 121 99 109 128 115 111 128 73 139 43 126 73 113 111 103 135 107 123 120 85 133 47 135 42 127 59 114 97 101 135 96 143 105 115 118 77 131 41 123 58 110 95 97 133 91 146 92 142 104 107 117 70 127 40 115 69 102 107 90 141 87 144 96 119 109 81 122 43 123 39 115 55 102 93 89 131 84 141 94 111 107 73 119 38 112 54 99 92 86 129 80 139 92 103 105 66 115 37 104 65 91 103 77 137 84 115 97 77 110 40 111 36 104 51 91 89 78 127 74 134 83 107 96 69 107 36 100 50 87 88 74 125 70 131 81 100 94 62 103 35 92 61 79 99 67 128 73 111 86 73 98 38 99 35 93 47 80 85 67 122 64 124 71 103 84 65 95 34 89 46 76 84 64 119 61 121 70 96 83 58 91 34 81 57 68 95 58 118 62 107 75 69 87 33 81 43 68 81 55 115 60 99 73 62 83 33 78 42 65 80 52 112 58 92 71 54 79 32 70 53 57 91 48 109 50 103 63 65 75 33 70 39 57 77 45 105 49 95 62 58 70 33 66 38 53 76 42 101 47 88 60 50 66 34 58 49 45 87 40 97 52 61 61 35 47 70 46 73 37 92 38 88 50 54 56 38 42 72 35 86 36 82 49 46 50 41 47 46 35 80 36 70 40 58 42 54 40 58 37 67 40 58 42 54 " />
    <path id="Block4Jump18"
        fill="none"
        stroke="#000000"
		stroke-width="2px"
		d="M 90 144 L 103 131 119 120 136 113 154 109 178 112 201 115 225 118 248 121 272 123 295 126 318 131 340 138 362 148 382 158 402 171 421 185 439 200 456 216 457 219 464 196 466 172 466 148 461 125 453 102 441 81 426 62 409 46 390 32 373 22 385 46 394 69 400 94 403 118 402 143 399 168 401 149 398 168 401 149 398 168 401 149 403 131 401 149 403 131 401 149 403 131 402 112 403 131 402 112 403 131 402 112 399 93 402 112 399 93 402 112 399 93 395 75 399 93 395 75 399 93 395 75 389 57 395 75 389 57 395 75 389 57 382 39 389 57 382 39 389 57 382 39 374 22 382 39 374 22 382 39 374 22 352 16 330 28 311 44 294 62 279 82 265 102 273 87 263 103 273 87 263 103 273 87 284 72 273 87 284 72 273 87 284 72 296 58 284 72 296 58 284 72 296 58 309 45 296 58 309 45 296 58 309 45 324 33 309 45 324 33 309 45 324 33 340 23 324 33 340 23 324 33 340 23 357 15 340 23 357 15 340 23 357 15 334 6 309 2 284 1 259 5 236 13 214 26 195 42 179 60 192 69 179 62 192 69 179 62 192 69 205 75 192 69 205 75 192 69 205 75 218 82 205 75 218 82 205 75 218 82 231 89 218 82 231 89 218 82 231 89 244 96 231 89 244 96 231 89 244 96 257 104 244 96 257 104 244 96 257 104 270 111 257 104 270 111 257 104 270 111 282 119 270 111 282 119 270 111 282 119 295 126 282 119 295 126 282 119 295 126 291 124 278 122 291 124 278 122 291 124 278 122 265 121 278 122 265 121 278 122 265 121 251 120 265 121 251 120 265 121 251 120 238 118 251 120 238 118 251 120 238 118 224 117 238 118 224 117 238 118 224 117 211 116 224 117 211 116 224 117 211 116 197 114 211 116 197 114 211 116 197 114 182 112 197 114 182 112 197 114 182 112 168 110 182 112 168 110 182 112 168 110 153 110 168 110 153 110 168 110 153 110 138 112 153 110 138 112 153 110 138 112 123 117 138 112 123 117 138 112 123 117 110 124 123 117 110 124 123 117 110 124 99 134 110 124 99 134 110 124 99 134 90 148 99 134 90 148 99 134 90 148 80 138 90 148 80 138 90 148 80 138 70 129 80 138 70 129 80 138 70 129 60 120 70 129 60 120 70 129 60 120 51 111 60 120 51 111 60 120 51 111 41 100 51 111 41 100 51 111 41 100 35 86 41 100 35 86 41 100 35 86 35 71 35 86 35 71 35 86 35 71 40 56 35 71 40 56 35 71 40 56 51 46 40 56 51 46 40 56 51 46 65 39 51 46 65 39 51 46 65 39 79 36 65 39 79 36 65 39 79 36 94 36 79 36 94 36 79 36 94 36 109 39 94 36 109 39 94 36 109 39 123 42 109 39 123 42 109 39 123 42 138 46 123 42 138 46 123 42 138 46 152 51 138 46 152 51 138 46 152 51 166 57 152 51 166 57 152 51 166 57 179 63 166 57 179 63 166 57 179 63 178 59 188 48 178 59 188 48 178 59 188 48 198 39 188 48 198 39 188 48 198 39 209 30 198 39 209 30 198 39 209 30 221 22 209 30 221 22 209 30 221 22 233 15 221 22 233 15 221 22 233 15 246 9 233 15 246 9 233 15 246 9 260 5 246 9 260 5 246 9 260 5 274 2 260 5 274 2 260 5 274 2 288 1 274 2 288 1 274 2 288 1 303 1 288 1 303 1 288 1 303 1 317 2 303 1 317 2 303 1 317 2 331 5 317 2 331 5 317 2 331 5 344 9 331 5 344 9 331 5 344 9 356 14 344 9 356 14 344 9 356 14 359 0 355 13 359 0 355 13 359 0 372 2 359 0 372 2 359 0 372 2 379 13 372 2 379 13 372 2 379 13 375 23 379 13 375 23 379 13 375 23 388 30 375 22 388 30 375 22 388 30 400 38 388 30 400 38 388 30 400 38 411 47 400 38 411 47 400 38 411 47 421 58 411 47 421 58 411 47 421 58 431 69 421 58 431 69 421 58 431 69 439 81 431 69 439 81 431 69 439 81 447 93 439 81 447 93 439 81 447 93 453 106 447 93 453 106 447 93 453 106 458 120 453 106 458 120 453 106 458 120 462 134 458 120 462 134 458 120 462 134 464 149 462 134 464 149 462 134 464 149 465 163 464 149 465 163 464 149 465 163 465 178 465 163 465 178 465 163 465 178 464 193 465 178 464 193 465 178 464 193 461 207 464 193 461 207 464 193 461 207 457 219 461 207 457 219 461 207 457 219 464 218 448 216 464 218 448 216 464 218 447 221 464 222 447 225 464 227 446 230 464 230 445 236 463 234 445 242 462 237 444 249 457 240 451 244 447 249 444 253 457 232 455 241 459 228 461 238 462 226 465 234 461 224 468 240 467 223 471 239 472 222 474 239 477 221 478 238 483 222 481 239 488 222 485 239 493 224 488 240 499 225 492 241 503 228 495 243 508 231 498 245 512 234 501 247 516 238 503 250 519 243 505 252 522 247 507 255 524 253 508 259 526 258 510 262 527 263 510 265 528 268 510 269 527 274 510 273 526 279 510 276 526 285 509 280 523 290 508 283 521 295 506 286 518 299 504 289 514 303 502 292 511 307 500 294 506 310 497 296 501 313 493 298 496 315 490 299 491 317 487 301 485 318 483 301 479 319 479 302 474 318 476 301 468 317 472 301 463 316 468 300 463 312 461 296 460 314 452 292 458 313 449 299 456 315 446 306 458 320 443 312 456 323 441 316 454 328 439 321 452 332 437 325 450 336 435 329 448 341 433 333 446 345 430 337 443 349 428 341 441 353 426 346 439 358 424 350 437 362 422 354 434 366 420 358 432 370 417 362 430 375 415 366 427 379 413 370 424 383 410 373 422 387 408 377 419 391 405 381 416 395 403 384 413 399 400 388 410 402 397 391 406 406 394 394 403 410 391 398 400 413 388 401 396 416 385 404 392 420 381 407 388 423 378 410 385 426 374 412 381 429 371 415 377 432 367 418 373 434 363 420 369 437 360 423 364 440 356 425 360 442 352 427 356 444 348 429 351 446 344 431 347 449 340 433 343 451 336 435 338 453 332 437 334 454 327 439 329 456 323 440 325 458 319 442 320 460 315 443 315 461 310 445 311 462 306 446 306 463 302 447 301 465 298 448 296 465 293 449 292 466 289 450 287 467 284 450 282 468 280 451 277 468 275 451 272 469 271 452 267 469 266 452 263 469 262 452 258 470 257 453 253 470 253 453 248 470 249 453 243 469 244 452 238 469 240 452 234 468 235 452 229 468 231 451 224 467 227 450 219 466 222 450 214 465 218 449 210 464 214 448 205 463 209 447 200 462 205 446 195 461 201 444 191 459 196 443 186 457 192 441 182 455 188 440 177 454 184 438 173 452 180 436 169 449 176 434 164 447 172 432 160 445 168 430 156 442 164 428 151 440 160 426 147 437 157 423 143 434 153 420 139 431 149 418 136 428 146 415 132 426 142 412 128 423 139 410 124 419 136 407 121 416 132 403 117 412 129 400 114 409 126 397 110 405 123 394 107 402 120 391 104 398 117 387 101 394 115 384 98 390 112 380 95 386 109 376 92 382 107 373 90 378 104 369 87 373 102 365 85 369 100 361 83 364 99 357 81 360 97 354 79 355 95 349 78 351 94 345 76 346 92 341 75 342 91 337 73 337 90 332 72 332 88 328 71 328 87 324 70 323 86 319 68 319 85 315 67 314 84 310 66 310 82 306 65 306 81 301 68 303 80 294 68 300 78 287 64 300 75 278 64 298 69 280 64 295 63 283 62 302 57 285 56 303 53 286 51 304 50 287 45 303 46 286 40 303 43 286 35 301 40 285 30 300 36 284 25 297 33 282 20 294 30 280 16 291 27 278 12 287 25 276 9 283 23 273 6 278 21 270 3 273 19 267 2 268 19 264 1 262 18 260 0 257 18 257 1 252 18 253 1 246 18 249 3 241 19 246 5 236 20 243 7 231 22 240 10 226 24 237 14 222 26 234 18 219 29 232 23 215 32 229 27 213 35 228 33 210 38 226 38 209 42 225 44 208 45 225 49 207 49 224 55 208 52 225 60 209 56 226 65 211 60 227 70 212 64 229 71 218 70 232 73 219 74 234 74 224 75 231 77 234 69 222 79 227 66 217 80 221 66 213 78 215 64 212 81 215 65 208 81 211 66 203 82 206 67 198 83 202 68 194 84 197 69 189 85 193 70 184 87 188 71 179 88 184 73 174 89 179 74 170 90 175 76 165 92 170 78 160 94 166 79 155 95 161 81 151 97 156 83 146 99 152 84 141 100 147 92 144 84 141 92 144 100 147 "/>
    <path id="Block4Jump19"
        fill="none"
        stroke="#000000"
		stroke-width="2px"
		d="M 168 195 L 172 195 182 195 172 195 168 195 172 195 184 195 180 197 169 197 166 198 189 199 180 200 165 202 170 202 191 202 188 204 168 204 164 205 188 206 192 206 179 208 164 209 169 209 192 210 188 211 169 211 166 213 187 213 191 213 180 215 168 217 172 217 189 216 186 218 175 218 172 221 186 219 179 220 172 221 179 220 186 219 "/>
    <path id="Block4Jump20"
        fill="none"
        stroke="#000000"
		stroke-width="2px"
		d="M 355 197 L 359 197 369 197 359 197 355 197 359 197 370 197 367 199 356 199 352 201 375 201 366 203 351 204 356 204 378 205 374 207 354 206 351 208 375 208 379 209 366 210 351 211 356 211 379 212 375 214 356 213 352 215 374 215 378 215 366 217 354 219 358 219 376 218 372 220 361 221 358 223 373 222 365 222 358 223 365 222 373 222 411 273 404 268 413 269 404 268 411 273 404 268 413 269 401 264 398 263 408 270 411 273 396 266 398 270 407 274 409 277 398 272 394 270 405 277 408 280 393 273 395 276 404 280 406 284 395 278 391 276 401 284 404 287 390 280 392 283 400 287 402 291 391 285 388 283 397 290 400 294 386 286 388 289 396 294 398 297 388 291 384 289 394 297 396 301 382 292 384 296 392 301 394 304 384 298 380 295 390 304 392 308 379 299 381 302 388 307 390 311 380 304 376 302 385 310 388 314 374 305 376 308 384 314 386 317 376 310 372 308 381 316 383 320 370 311 372 314 379 320 381 324 371 316 368 314 377 322 379 327 366 317 367 320 375 326 376 330 367 322 364 320 372 329 374 333 361 322 363 326 370 332 371 336 362 328 359 325 367 335 369 339 357 328 358 332 365 338 366 342 357 334 354 331 362 340 364 345 352 334 353 337 360 344 361 348 352 339 349 336 357 346 358 350 347 339 348 343 354 349 355 353 347 344 344 341 351 351 352 356 342 344 343 347 349 355 349 359 342 349 340 346 345 356 346 362 337 348 338 352 343 361 343 365 337 354 334 351 338 360 340 367 332 353 332 357 336 365 336 369 330 357 329 354 331 364 332 370 325 355 325 359 329 367 328 371 324 359 322 356 324 367 324 372 319 356 318 360 321 369 320 373 317 361 316 357 317 369 316 374 312 358 311 362 313 371 312 374 310 362 309 358 309 371 308 375 305 359 304 363 305 372 304 376 302 364 302 359 302 372 300 376 298 360 297 364 298 373 296 377 295 364 295 360 294 373 292 377 291 361 289 364 290 374 288 377 288 365 287 361 286 373 284 377 284 361 282 365 282 374 280 377 280 365 280 361 278 373 276 377 277 361 275 365 275 374 272 377 273 365 273 361 271 373 269 377 269 361 267 364 267 374 265 377 265 365 266 361 263 373 261 377 262 360 260 364 259 373 257 376 258 364 258 360 255 372 253 376 255 360 253 363 251 372 249 375 251 363 251 359 248 371 245 375 248 359 245 362 244 371 241 374 243 362 244 358 240 369 237 373 241 357 238 360 236 369 233 372 236 360 237 356 232 368 229 371 234 355 231 358 229 367 226 370 229 358 230 355 225 366 222 369 227 353 224 356 221 365 218 368 222 356 223 352 218 363 214 367 220 351 217 354 214 363 211 365 215 354 216 350 210 361 207 364 213 349 210 351 207 360 203 363 208 351 209 347 203 358 200 361 206 346 203 349 199 357 196 360 201 348 203 344 196 355 193 358 199 343 196 346 192 354 189 357 194 345 196 342 189 352 186 355 192 340 189 343 185 351 182 354 187 342 189 339 182 349 179 352 186 337 182 340 178 348 175 350 181 339 182 336 175 346 171 348 179 334 176 336 171 345 168 347 174 336 176 332 169 342 165 345 173 331 170 333 165 341 161 342 168 332 170 329 162 338 158 340 167 327 164 329 158 336 154 338 162 328 165 325 156 333 151 335 162 323 159 325 152 331 148 332 157 324 160 321 150 328 146 329 158 318 154 319 147 325 143 326 152 318 156 316 145 322 140 323 153 313 150 314 142 319 138 320 148 313 152 310 141 315 136 316 150 308 146 308 138 313 134 313 144 307 148 305 137 309 132 309 146 302 142 302 134 306 130 306 141 300 145 299 133 302 128 302 143 296 139 295 131 299 127 298 138 294 142 292 131 295 126 294 141 289 137 289 128 291 124 290 136 287 140 286 128 287 123 286 139 283 135 282 126 284 123 282 135 280 139 279 127 280 122 278 138 276 134 275 125 276 121 274 134 273 138 273 126 272 121 270 137 269 134 268 124 268 121 266 133 266 137 266 126 264 121 262 129 262 137 259 133 259 121 258 124 260 134 261 137 263 121 262 129 262 137 263 129 262 121 262 " />
</svg>
