<?xml version="1.0" encoding="UTF-8" standalone="no"?>
<svg xmlns="http://www.w3.org/2000/svg" version="1.1" width="675" height="990">
    <path id="Block1Jump0"
        fill="none"
        stroke="#2584BB"
		stroke-width="2px"
		d="M 179 794 L 179 794 194 807 179 794 194 807 179 794 194 807 197 815 200 830 204 847 208 863 210 894 206 917 200 915 210 913 199 911 215 909 199 907 218 905 198 903 204 903 222 901 198 899 226 897 214 897 197 895 204 895 229 893 196 891 224 891 230 889 214 889 196 887 204 887 229 885 195 883 228 881 214 881 194 879 204 879 227 877 194 875 226 873 214 873 193 871 204 871 225 869 192 867 224 865 214 865 191 863 204 863 223 861 191 859 222 857 214 857 190 855 204 855 221 853 195 853 189 851 220 849 214 849 188 847 204 847 219 845 195 845 187 843 218 841 187 839 204 839 217 837 195 837 186 835 216 833 185 831 204 831 215 829 195 829 184 827 214 825 183 823 204 823 213 821 195 821 183 819 212 817 182 815 204 815 211 813 195 813 181 811 210 809 180 807 204 807 209 805 195 805 179 803 208 801 178 799 207 797 195 797 177 795 184 795 206 795 198 796 204 789 191 789 179 791 205 793 177 793 178 792 191 790 178 791 191 789 179 792 191 790 203 788 191 789 203 786 191 790 203 787 206 802 204 788 207 801 202 788 207 802 210 817 207 801 211 817 206 802 211 817 214 832 211 817 215 831 210 817 214 832 218 847 215 831 219 847 214 832 218 847 222 862 219 847 223 861 218 847 222 862 226 877 223 861 227 877 222 862 226 877 229 891 227 877 230 891 226 877 230 891 219 901 230 892 221 902 229 891 220 902 210 911 220 902 211 912 220 901 211 912 201 920 211 912 202 921 210 911 201 920 200 906 201 919 199 906 202 919 200 906 198 891 199 906 197 892 200 906 197 891 196 878 197 892 194 878 198 891 195 878 193 863 194 878 192 864 196 878 192 863 190 849 192 863 189 849 193 863 190 849 187 834 189 849 186 834 190 849 187 834 184 821 186 834 183 821 187 834 184 821 181 806 183 821 180 806 184 821 181 806 178 792 180 806 177 792 181 806 177 792 181 803 177 792 177 792 " />
    <path id="Block2Jump1"
        fill="none"
        stroke="#000000"
		stroke-width="2px"
		d="M 254 659 L 254 659 257 671 254 659 258 677 251 658 258 688 251 668 258 698 251 678 259 708 251 688 259 718 251 698 259 728 252 708 259 738 252 718 259 748 252 728 259 758 252 738 259 768 252 748 260 778 252 758 260 788 252 768 260 798 253 778 260 808 253 788 260 818 253 798 260 828 253 808 260 838 253 818 261 848 253 828 261 858 253 838 261 868 254 848 261 878 254 858 257 878 265 860 261 879 270 853 265 872 276 843 271 864 281 835 276 856 287 827 282 846 291 820 287 840 297 811 292 831 303 802 298 822 307 796 303 815 313 787 308 807 319 778 314 798 323 772 319 791 329 762 324 783 335 754 329 774 340 746 336 765 344 739 340 759 351 730 345 750 356 721 351 741 360 715 356 734 366 705 361 726 372 697 367 718 377 689 373 708 382 682 377 701 385 683 376 668 388 682 373 659 385 674 370 650 382 665 374 650 380 660 374 650 "/>
    <path id="Block2Jump2"
        fill="none"
        stroke="#000000"
		stroke-width="2px"
		d="M 296 336 L 296 336 298 348 296 336 299 356 292 336 299 366 292 345 295 367 293 355 295 367 295 367 " />
    <path id="Block3Jump3"
        fill="none"
        stroke="#E8A900"
		stroke-width="2px"
		d="M 239 539 L 239 539 242 549 239 539 242 549 239 539 242 549 236 568 230 587 223 607 214 625 208 630 216 633 234 642 254 647 277 647 294 644 297 623 300 606 312 592 317 593 329 610 335 630 336 639 357 641 378 640 399 634 413 624 418 619 407 600 398 580 388 560 379 542 374 539 360 541 340 547 319 552 299 554 278 554 258 551 242 546 256 570 266 587 289 574 299 571 307 569 315 568 332 571 344 572 360 582 365 603 374 628 381 645 397 626 416 604 404 581 391 556 375 575 359 594 343 613 330 628 352 613 367 598 357 578 349 577 346 572 335 544 319 563 303 582 287 602 271 621 255 640 246 651 231 631 215 610 231 591 247 572 263 553 267 548 267 577 266 589 264 601 261 611 252 616 227 614 214 612 230 632 247 652 256 626 260 609 262 602 279 584 292 572 303 569 321 569 327 568 348 581 362 593 368 604 384 612 409 620 420 624 404 605 388 586 372 567 356 547 349 540 322 551 292 550 308 569 324 588 340 607 356 626 373 645 368 619 366 596 348 579 337 571 327 569 315 569 309 568 299 572 279 589 265 613 286 628 299 636 283 617 267 598 251 579 234 558 257 575 262 581 276 582 299 570 325 570 336 571 351 574 361 571 364 562 369 553 379 530 384 522 371 524 386 526 359 528 372 528 388 530 382 530 348 532 390 534 362 534 333 536 372 536 392 538 382 538 342 538 314 540 352 540 394 542 362 542 322 542 295 544 332 544 372 544 395 546 382 546 342 546 302 546 295 548 312 548 352 548 395 548 372 562 362 571 373 595 382 611 389 635 394 650 382 650 342 650 327 648 372 648 405 646 362 646 326 644 352 644 392 644 412 642 382 642 342 642 325 640 332 640 372 640 412 640 417 638 402 638 362 638 323 636 352 636 392 636 421 634 382 634 342 634 322 632 332 632 372 632 412 632 425 630 402 630 362 630 321 628 352 628 392 628 427 626 382 626 342 626 320 624 332 624 372 624 412 624 430 622 402 622 362 622 319 620 352 620 392 620 431 618 422 618 382 618 342 618 318 616 332 616 372 616 412 616 429 614 402 614 362 614 322 614 316 612 352 612 392 612 427 610 382 610 342 610 315 608 332 608 372 608 412 608 425 606 402 606 362 606 322 606 314 604 352 604 392 604 423 602 382 602 342 602 313 600 332 600 372 600 412 600 421 598 402 598 362 598 322 598 313 596 352 596 392 596 420 596 404 600 378 600 371 596 358 595 343 572 331 569 306 568 296 572 282 579 276 583 272 596 271 622 279 646 284 658 262 658 234 656 252 656 292 656 299 654 282 654 242 654 224 652 232 652 272 652 305 650 262 650 222 650 216 648 252 648 292 648 306 646 282 646 242 646 210 644 232 644 272 644 306 642 262 642 222 642 205 640 212 640 252 640 292 640 307 638 282 638 242 638 200 636 232 636 272 636 308 634 302 634 262 634 222 634 195 632 212 632 252 632 292 632 308 630 282 630 242 630 202 630 197 628 232 628 272 628 309 626 302 626 262 626 222 626 199 624 212 624 252 624 292 624 309 622 282 622 242 622 202 620 232 620 272 620 310 618 302 618 262 618 222 618 204 616 212 616 252 616 292 616 311 614 282 614 242 614 206 612 232 612 272 612 311 610 302 610 262 610 222 610 208 608 252 608 292 608 312 606 282 606 242 606 209 604 232 604 272 604 313 602 302 602 262 602 222 602 211 600 252 600 292 600 313 600 363 599 403 598 421 598 402 598 362 598 322 598 282 598 242 598 213 596 232 596 272 596 312 596 352 596 392 596 419 594 382 594 342 594 313 594 262 594 222 594 214 592 252 592 292 592 313 592 332 592 372 592 412 592 417 590 402 590 362 590 313 590 282 590 242 590 216 588 232 588 272 588 313 588 352 588 392 588 416 586 382 586 342 586 313 586 262 586 222 586 217 584 252 584 292 584 313 584 332 584 372 584 413 582 402 582 362 582 313 582 282 582 242 582 219 580 232 580 272 580 313 580 352 580 392 580 411 578 382 578 342 578 313 578 262 578 220 576 252 576 292 576 313 576 332 576 372 576 409 574 402 574 362 574 313 574 282 574 242 574 221 572 232 572 272 572 295 572 320 572 352 572 392 572 408 570 382 570 328 570 289 570 262 570 222 568 252 568 292 568 334 568 372 568 406 566 362 566 322 566 282 566 242 566 224 564 232 564 272 564 312 564 352 564 392 564 403 562 382 562 342 562 302 562 262 562 225 560 252 560 292 560 332 560 372 560 402 558 362 558 322 558 282 558 242 558 226 556 232 556 272 556 312 556 352 556 392 556 400 554 382 554 342 554 302 554 262 554 227 552 252 552 292 552 332 552 372 552 398 550 362 550 322 550 282 550 242 550 228 548 272 548 312 548 352 548 396 546 382 546 342 546 302 546 262 546 229 544 252 544 279 542 242 542 230 540 257 538 231 536 246 534 232 532 239 530 233 530 234 529 230 541 235 529 232 542 233 529 231 541 226 556 232 542 228 556 230 541 227 556 222 570 228 556 224 570 226 556 223 570 218 583 224 570 219 583 222 570 219 583 213 595 219 583 215 596 218 583 214 595 208 608 215 596 209 609 213 595 208 609 201 621 209 609 203 621 208 608 202 621 195 631 203 622 197 631 201 621 196 631 205 640 197 631 206 639 196 632 206 640 216 648 206 639 217 647 205 640 217 647 227 654 217 647 228 652 216 648 228 653 239 658 228 652 240 656 228 654 240 657 253 660 240 656 253 658 239 658 253 659 265 660 253 659 265 659 253 660 265 660 278 659 265 659 278 658 265 660 278 658 292 656 278 658 292 655 278 659 292 656 304 652 292 655 303 651 292 656 304 652 306 638 303 651 305 638 304 651 306 638 309 624 305 638 308 623 306 638 308 623 311 609 308 623 310 608 309 624 311 609 313 596 310 608 312 596 311 609 313 596 316 609 314 596 317 609 312 597 317 609 320 623 317 609 321 622 316 609 321 623 324 636 321 622 325 636 320 623 324 636 328 649 325 636 329 649 324 636 328 649 342 652 329 648 342 651 329 650 342 651 356 653 342 651 356 652 342 652 356 653 371 654 356 652 371 652 356 653 371 653 385 652 371 652 384 651 371 654 385 652 397 649 384 651 397 648 385 652 397 648 408 644 397 648 408 643 397 649 408 643 418 637 408 643 417 636 408 644 418 636 425 629 417 636 424 628 418 637 425 628 431 619 424 628 430 618 425 628 430 619 425 606 430 618 424 607 431 618 424 606 419 594 424 607 418 594 425 606 418 594 413 581 418 594 411 582 419 594 412 581 406 569 411 582 405 569 413 581 406 569 401 557 405 569 399 557 406 569 400 557 395 544 400 557 393 545 401 557 394 545 388 532 393 545 387 532 395 544 388 532 383 520 387 532 381 521 388 532 382 520 368 525 381 521 369 526 381 520 368 526 354 530 369 526 355 531 368 525 355 530 340 534 355 531 340 536 354 530 340 535 326 538 340 536 326 539 340 534 326 538 312 540 326 539 312 542 326 538 312 541 298 542 312 542 298 543 312 540 298 542 284 542 298 543 284 544 298 542 284 543 270 541 284 543 270 542 284 542 270 542 257 538 270 542 256 539 271 541 257 539 245 533 256 539 244 535 257 538 245 534 235 527 244 535 234 529 245 533 234 528 245 533 234 528 "/>
    <path id="Block3Jump4"
        fill="none"
        stroke="#E8A900"
		stroke-width="2px"
		d="M 124 175 L 124 175 128 190 124 175 128 190 124 175 128 190 133 187 144 180 162 185 160 158 160 165 158 194 158 176 156 160 156 186 154 195 152 161 150 196 150 176 148 162 148 186 146 198 144 164 142 201 142 176 140 165 140 186 138 205 138 196 136 167 136 205 134 211 134 176 132 168 132 186 130 213 130 196 128 170 128 205 126 211 124 172 124 186 122 208 122 196 122 173 126 190 112 197 114 180 114 196 116 203 116 186 118 176 120 206 122 173 122 196 124 209 124 186 124 172 124 186 124 172 124 186 124 172 "/>
    <path id="Block3Jump5"
        fill="none"
        stroke="#E8A900"
		stroke-width="2px"
		d="M 407 138 L 407 138 409 146 407 138 409 146 407 138 409 146 402 147 395 150 395 159 414 152 440 153 454 158 471 151 469 173 467 147 467 156 465 178 465 165 463 143 463 176 461 183 461 146 459 141 459 156 457 187 457 165 455 139 455 176 453 190 453 146 451 138 451 156 449 194 449 165 447 137 447 176 445 197 445 186 445 146 443 136 443 156 441 175 441 165 439 136 437 171 437 146 435 135 435 156 433 169 431 135 429 167 429 146 427 135 427 156 425 166 423 135 421 166 421 146 419 135 419 156 417 165 415 136 413 166 413 146 411 136 409 146 409 136 409 146 409 136 409 146 409 136 409 136 " />
    <path id="Block4Jump6"
        fill="none"
        stroke="#FFC896"
		stroke-width="2px"
		d="M 281 154 L 281 154 297 148 281 154 297 148 281 154 297 148 315 148 334 156 355 158 378 157 399 154 408 163 413 171 433 179 435 189 430 197 417 202 413 206 404 225 396 246 387 266 375 285 361 301 343 313 321 321 300 324 279 323 257 320 237 313 218 304 201 290 187 272 177 254 169 234 162 226 146 219 146 206 157 200 163 195 167 173 172 169 186 167 202 171 213 172 234 170 256 164 283 154 295 178 305 197 331 204 359 206 354 218 355 224 380 234 403 242 387 261 371 281 355 300 337 321 325 296 316 272 330 261 342 245 353 221 361 203 379 192 396 173 410 156 394 175 378 194 362 213 346 232 330 251 314 271 298 290 282 309 267 327 244 317 217 308 233 289 249 270 265 251 281 232 298 212 314 193 330 174 348 153 323 149 299 146 289 144 273 163 257 183 241 202 225 221 209 240 193 259 181 274 186 267 193 257 174 240 169 232 154 228 170 209 186 190 205 167 202 197 200 210 218 210 240 209 256 229 273 249 290 268 295 285 271 285 266 310 262 326 246 307 230 287 214 268 198 249 182 230 166 211 172 179 190 162 206 181 222 200 238 219 254 238 270 258 286 277 302 296 318 315 327 326 318 300 313 285 333 272 347 257 359 235 369 210 374 195 379 193 387 188 393 189 416 202 423 206 407 187 391 168 378 153 348 157 333 155 309 147 304 142 320 161 336 180 352 199 368 219 384 238 398 255 384 275 370 298 353 279 337 260 321 241 305 222 289 202 273 183 257 164 253 159 267 183 271 189 276 186 297 178 308 177 333 184 359 187 381 185 387 186 397 164 406 139 416 141 389 143 417 145 399 145 372 147 409 147 417 147 398 167 390 180 386 185 361 187 335 184 312 178 300 176 280 185 257 193 232 198 205 199 192 192 197 167 200 157 179 157 164 159 189 159 207 161 199 161 161 163 169 163 207 165 179 165 161 167 189 167 207 167 203 193 202 200 225 199 250 195 266 190 271 195 272 221 272 247 272 273 278 293 274 319 271 335 309 335 327 333 299 333 251 331 289 331 329 331 339 329 319 329 279 329 238 327 269 327 309 327 347 325 339 325 299 325 259 325 228 323 249 323 289 323 329 323 354 321 319 321 279 321 239 321 219 319 229 319 269 319 309 319 349 319 360 317 339 317 299 317 259 317 219 317 212 315 249 315 289 315 329 315 365 313 359 313 319 313 279 313 239 313 207 311 229 311 269 311 309 311 349 311 370 309 339 309 299 309 259 309 219 309 201 307 209 307 249 307 289 307 329 307 369 307 374 305 359 305 319 305 279 305 239 305 196 303 229 303 269 303 309 303 349 303 378 301 339 301 299 301 259 301 219 301 192 299 209 299 249 299 289 299 329 299 369 299 381 297 359 297 319 297 279 297 239 297 199 297 188 295 229 295 269 295 309 295 349 295 385 293 379 293 339 293 299 293 259 293 219 293 184 291 209 291 249 291 289 291 329 291 369 291 388 289 359 289 319 289 279 289 239 289 199 289 182 287 189 287 229 287 269 287 309 287 349 287 390 285 379 285 339 285 299 285 259 285 219 285 178 283 209 283 249 283 289 283 329 283 369 283 393 281 359 281 319 281 279 281 239 281 199 281 176 279 189 279 229 279 269 279 309 279 349 279 389 279 395 277 379 277 339 277 299 277 259 277 219 277 179 277 173 275 209 275 249 275 289 275 329 275 369 275 398 273 359 273 319 273 279 273 239 273 199 273 171 271 189 271 229 271 269 271 309 271 349 271 389 271 400 269 379 269 339 269 299 269 259 269 219 269 179 269 169 267 209 267 249 267 289 267 329 267 369 267 402 265 359 265 319 265 279 265 239 265 199 265 167 263 189 263 229 263 269 263 309 263 349 263 389 263 404 261 379 261 339 261 299 261 259 261 219 261 179 261 165 259 209 259 249 259 289 259 329 259 369 259 406 257 399 257 359 257 319 257 279 257 239 257 199 257 163 255 189 255 229 255 269 255 309 255 349 255 389 255 408 253 379 253 339 253 299 253 259 253 219 253 179 253 162 251 169 251 209 251 249 251 289 251 329 251 369 251 409 249 399 249 359 249 319 249 279 249 239 249 199 249 160 247 189 247 229 247 269 247 309 247 349 247 389 247 411 245 379 245 339 245 299 245 259 245 219 245 179 245 159 243 169 243 209 243 249 243 289 243 329 243 369 243 412 241 399 241 359 241 319 241 279 241 239 241 199 241 157 239 189 239 229 239 269 239 309 239 349 239 389 239 414 237 379 237 339 237 299 237 259 237 219 237 179 237 151 235 169 235 209 235 249 235 289 235 329 235 369 235 409 235 415 233 399 233 359 233 319 233 279 233 239 233 199 233 158 233 140 231 157 231 189 231 229 231 269 231 309 231 349 231 389 231 417 229 379 229 339 229 299 229 259 229 219 229 179 229 156 229 136 227 156 227 209 227 249 227 289 227 329 227 369 227 409 227 418 225 399 225 359 225 319 225 279 225 239 225 199 225 155 225 134 223 155 223 189 223 229 223 269 223 309 223 349 223 389 223 419 221 379 221 339 221 299 221 259 221 219 221 179 221 154 221 132 219 154 219 209 219 249 219 289 219 329 219 369 219 409 219 420 217 399 217 359 217 319 217 279 217 239 217 199 217 154 217 132 215 153 215 189 215 229 215 269 215 309 215 349 215 389 215 421 213 379 213 339 213 299 213 259 213 219 213 179 213 153 213 132 211 153 211 169 211 209 211 249 211 289 211 329 211 369 211 418 211 435 209 418 209 399 209 359 209 319 209 279 209 239 209 199 209 153 209 133 207 153 207 189 207 229 207 269 207 309 207 349 207 389 207 418 207 439 205 418 205 379 205 339 205 299 205 259 205 219 205 179 205 153 205 133 203 153 203 169 203 209 203 249 203 289 203 329 203 369 203 418 203 443 201 418 201 399 201 359 201 319 201 279 201 239 201 199 201 153 201 135 199 154 199 189 199 229 199 269 199 309 199 349 199 389 199 418 199 446 197 418 197 379 197 339 197 299 197 259 197 219 197 179 197 154 197 140 195 154 195 209 195 249 195 289 195 329 195 369 195 418 195 447 193 439 193 418 193 399 193 359 193 319 193 279 193 239 193 199 193 155 193 147 191 155 191 189 191 229 191 269 191 309 191 349 191 389 191 418 191 447 189 418 189 379 189 339 189 299 189 259 189 219 189 179 189 153 187 169 187 209 187 249 187 289 187 329 187 369 187 418 187 448 185 439 185 417 185 399 185 359 185 319 185 279 185 239 185 199 185 159 185 153 183 189 183 229 183 269 183 309 183 349 183 389 183 417 183 447 181 417 181 379 181 339 181 299 181 259 181 219 181 179 181 154 179 169 179 209 179 249 179 289 179 329 179 369 179 417 179 447 177 439 177 417 177 399 177 359 177 319 177 279 177 239 177 199 177 159 177 154 175 189 175 229 175 269 175 309 175 349 175 389 175 417 175 445 173 417 173 379 173 339 173 299 173 259 173 219 173 179 173 154 171 169 171 209 171 249 171 289 171 329 171 369 171 417 171 442 169 417 169 399 169 359 169 319 169 279 169 239 169 199 169 155 167 189 167 229 167 269 167 309 167 349 167 389 167 417 167 436 165 417 165 379 165 339 165 299 165 259 165 219 165 179 165 158 163 169 163 209 163 249 163 289 163 329 163 369 163 417 163 422 161 399 161 359 161 319 161 279 161 239 161 214 159 229 159 269 159 309 159 349 159 389 159 419 157 379 157 339 157 299 157 259 157 231 157 244 155 289 155 329 155 369 155 409 155 418 153 399 153 359 153 319 153 279 153 252 151 269 151 309 151 349 151 389 151 418 149 379 149 339 149 299 149 259 149 264 147 289 147 329 147 350 145 319 145 279 145 269 145 298 145 316 145 286 137 326 139 289 139 278 141 299 141 338 143 309 143 274 143 274 144 284 140 274 143 283 138 275 144 283 139 294 136 283 138 294 135 283 140 294 136 305 136 294 135 305 134 294 136 305 135 316 137 305 134 316 136 305 136 316 137 327 141 316 136 328 140 315 137 327 140 338 144 328 140 338 143 327 141 338 144 350 146 338 143 350 145 338 144 350 146 364 147 350 145 364 145 350 146 364 146 376 146 364 145 376 145 364 147 376 145 389 144 376 145 389 143 376 146 389 144 403 141 389 143 402 140 389 144 402 141 414 138 402 140 414 137 403 141 414 137 416 149 415 138 417 149 414 138 417 149 418 161 417 149 420 161 416 149 419 161 430 164 420 161 430 162 420 162 430 163 437 167 430 163 438 166 430 164 438 167 441 170 438 166 442 169 437 167 442 170 444 174 442 170 445 173 441 170 444 174 445 178 445 173 447 178 444 174 446 178 446 183 447 178 447 183 445 178 447 183 446 190 447 183 447 191 446 183 446 191 442 199 447 191 444 199 446 190 443 199 436 206 444 199 438 207 443 199 437 206 431 210 437 207 432 211 437 206 431 210 426 211 431 211 426 213 431 210 426 212 420 211 426 213 420 213 426 211 420 212 416 225 421 213 417 226 420 212 417 225 411 239 417 226 413 239 416 225 412 239 406 252 413 239 407 253 411 239 407 252 400 265 407 253 401 266 406 252 401 265 394 277 401 266 395 277 400 265 394 277 386 288 395 277 388 289 394 276 387 288 378 299 387 289 379 299 386 288 378 299 369 308 379 299 370 309 378 299 369 308 359 316 370 309 360 317 369 308 359 317 348 323 359 317 349 324 359 316 348 324 336 328 349 324 337 330 348 323 337 329 324 332 337 330 324 334 336 328 324 333 311 335 324 334 312 336 324 332 311 335 299 336 311 336 299 337 311 335 299 337 285 335 299 337 285 337 299 336 285 336 271 334 285 337 271 335 285 335 271 334 257 331 271 335 257 333 271 334 257 332 244 328 257 332 243 329 257 331 244 328 231 323 243 329 230 324 244 328 231 323 219 317 230 324 218 318 231 323 218 318 207 310 218 318 207 311 219 317 207 310 197 302 206 311 196 303 207 310 197 302 188 292 196 303 187 293 197 302 187 293 180 283 187 293 179 284 188 292 180 283 173 272 179 284 172 273 180 283 173 272 167 260 172 272 166 261 173 272 166 260 162 248 166 261 161 248 167 260 161 248 158 235 161 248 157 235 162 248 157 235 147 233 156 236 147 234 157 234 147 234 141 230 147 234 140 231 147 233 140 230 137 227 140 231 137 228 141 230 137 227 135 223 136 228 134 224 138 227 135 223 134 218 134 224 133 219 135 223 133 219 134 213 133 219 132 213 134 219 133 213 135 205 132 213 133 204 134 213 134 205 139 198 134 204 138 197 135 205 138 197 146 193 138 197 145 192 139 198 146 192 154 190 146 192 153 189 146 193 154 190 155 178 153 189 154 178 154 189 155 178 157 166 154 178 155 166 155 178 156 166 165 160 156 165 164 159 157 166 164 160 172 157 164 159 172 155 164 160 172 156 180 155 172 155 180 154 172 157 180 154 189 155 180 154 189 154 180 155 189 154 198 157 189 154 198 156 189 155 198 157 206 161 198 156 207 160 198 157 207 160 219 160 207 160 219 158 208 161 219 159 232 158 219 158 232 157 219 160 232 157 245 157 232 157 245 155 232 158 245 156 251 153 246 155 250 152 246 156 250 153 261 149 250 152 260 148 250 153 260 149 274 145 260 148 273 144 261 149 274 144 262 149 274 144 274 144 " />
    <path id="Block5Jump7"
        fill="none"
        stroke="#000000"
		stroke-width="2px"
		d="M 324 173 L 324 173 329 171 322 169 328 168 321 166 327 164 320 162 326 160 319 158 325 156 318 154 324 152 317 150 322 148 315 146 321 145 314 142 320 140 313 138 319 137 "/>
    <path id="Block5Jump8"
        fill="none"
        stroke="#000000"
		stroke-width="2px"
		d="M 293 136 L 293 136 287 137 293 140 287 140 293 144 287 144 293 147 287 148 294 151 288 152 294 155 288 156 294 159 288 160 294 164 288 164 295 168 289 168 295 171 289 172 295 175 289 175 "/>
    <path id="Block5Jump9"
        fill="none"
        stroke="#000000"
		stroke-width="2px"
		d="M 247 183 L 247 183 253 185 249 179 254 182 250 176 256 179 252 172 258 175 254 168 260 171 256 165 261 167 257 161 263 164 259 158 265 160 261 155 266 157 262 151 268 154 264 148 269 150 265 145 271 147 "/>
    <path id="Block5Jump10"
        fill="none"
        stroke="#000000"
		stroke-width="2px"
		d="M 279 219 L 279 219 279 209 279 219 279 209 279 219 279 209 286 202 275 202 269 204 284 204 289 206 267 208 290 210 275 210 267 212 284 212 289 214 269 216 287 218 271 218 287 218 271 218 287 218 271 218 "/>
    <path id="Block5Jump11"
        fill="none"
        stroke="#000000"
		stroke-width="2px"
		d="M 303 219 L 303 219 303 208 303 219 303 208 303 219 303 208 295 202 313 204 293 206 314 208 304 208 292 210 314 212 292 214 313 216 304 216 295 218 311 218 295 218 311 218 295 218 311 218 "/>
    <path id="Block5Jump12"
        fill="none"
        stroke="#000000"
		stroke-width="2px"
		d="M 222 192 L 222 192 216 190 221 196 215 194 220 199 214 198 219 203 213 202 219 207 213 206 218 211 212 210 217 215 211 215 217 219 211 219 216 223 210 223 216 227 210 227 216 231 210 230 216 234 210 234 216 238 210 239 216 242 210 243 217 246 211 246 217 249 211 250 218 253 212 254 219 256 213 258 220 260 214 262 221 264 216 266 223 267 217 269 224 270 219 273 226 273 221 277 228 276 224 280 231 279 226 283 233 281 229 285 236 283 232 288 239 286 236 291 242 287 239 292 245 289 243 294 249 291 246 296 252 292 250 298 255 293 254 299 259 294 258 300 263 295 261 301 266 295 266 301 270 296 270 302 274 296 274 302 277 296 277 302 282 296 282 302 286 296 286 302 290 296 290 302 294 296 294 302 297 296 298 302 301 295 302 301 305 295 306 301 309 294 310 300 312 293 314 299 316 292 317 298 319 291 321 297 323 290 325 295 326 289 328 294 330 287 332 292 333 285 336 290 336 283 339 288 339 281 342 286 342 279 346 283 344 276 348 281 347 274 351 278 349 271 354 275 351 268 356 272 354 265 359 268 355 261 361 264 357 258 363 260 358 255 364 257 360 251 365 253 361 247 367 249 362 244 368 246 363 240 369 242 363 237 369 237 363 233 369 233 363 229 369 229 363 225 369 225 364 221 370 221 364 217 370 217 364 212 370 212 364 209 370 209 364 204 370 204 364 200 370 200 365 196 371 196 365 192 371 192 365 188 371 188 365 184 371 184 "/>
    <path id="Block5Jump13"
        fill="none"
        stroke="#000000"
		stroke-width="2px"
		d="M 203 183 L 203 183 202 189 206 184 205 190 210 184 209 190 213 185 212 191 217 186 216 192 221 187 220 193 225 188 223 193 229 188 227 194 233 189 231 195 236 190 235 196 240 191 238 196 "/>
    <path id="Block5Jump14"
        fill="none"
        stroke="#000000"
		stroke-width="2px"
		d="M 350 173 L 350 173 347 179 353 175 351 180 356 176 354 182 359 177 358 183 362 178 361 184 365 178 365 184 369 178 369 184 372 178 373 184 375 178 376 184 378 177 380 183 381 176 383 182 385 175 387 180 "/>
    <path id="Block5Jump15"
        fill="none"
        stroke="#000000"
		stroke-width="2px"
		d="M 124 501 L 124 501 131 492 124 501 135 487 125 505 144 480 134 498 150 475 140 492 158 468 147 486 166 461 155 480 173 455 163 473 181 448 171 466 187 443 177 461 195 436 185 454 203 430 192 448 210 423 200 441 218 416 207 435 225 410 216 427 231 404 222 422 240 397 229 416 247 390 237 409 254 384 244 402 262 377 252 395 267 372 258 390 276 364 266 382 277 367 270 377 277 367 "/>
    <path id="Block5Jump16"
        fill="none"
        stroke="#000000"
		stroke-width="2px"
		d="M 324 369 L 324 369 333 361 324 369 338 356 326 373 347 350 335 366 353 346 341 362 362 340 350 357 371 334 358 351 379 328 366 345 387 323 375 340 396 317 384 334 402 313 390 329 412 307 399 324 420 301 407 318 428 296 415 313 437 290 425 307 443 286 431 302 452 280 440 297 461 274 448 291 469 269 456 286 477 263 465 279 484 259 472 275 493 253 480 269 501 247 489 264 510 242 497 258 518 236 505 253 526 230 514 247 533 226 521 242 542 220 530 237 551 214 538 231 559 209 546 226 567 203 555 220 574 199 561 213 585 198 568 209 595 197 578 206 605 197 587 204 613 201 596 202 618 207 604 203 619 216 609 205 618 225 611 211 613 226 611 214 613 226 "/>
    <path id="Block5Jump17"
        fill="none"
        stroke="#000000"
		stroke-width="2px"
		d="M 565 244 L 565 244 566 232 565 244 567 226 568 246 570 216 571 237 572 207 575 226 575 208 589 204 575 208 597 210 583 206 599 221 588 209 599 232 590 216 597 241 591 224 593 241 592 229 593 241 "/>
    <path id="Block5Jump18"
        fill="none"
        stroke="#000000"
		stroke-width="2px"
		d="M 518 375 L 518 375 508 368 518 375 505 366 521 371 498 363 514 363 492 365 505 357 488 372 495 358 487 379 489 363 485 387 485 369 483 396 480 378 485 403 477 386 487 412 477 397 492 418 479 408 498 420 483 416 504 420 489 422 511 418 496 425 518 416 504 425 527 413 514 426 531 407 522 423 536 399 530 417 540 392 537 410 542 383 542 402 543 375 546 394 544 366 548 385 543 357 550 375 542 350 550 366 541 342 550 359 538 331 549 349 536 322 547 339 533 312 545 329 530 303 542 320 527 294 540 310 523 285 535 301 523 276 533 293 522 266 531 284 522 256 529 275 523 246 529 265 526 237 529 256 530 228 530 247 536 220 533 238 542 216 535 232 550 210 540 226 559 207 547 221 569 205 555 216 577 206 562 211 584 213 569 210 588 222 574 213 590 231 578 218 591 240 581 225 591 250 582 233 591 260 583 242 591 270 584 251 590 280 583 261 591 288 583 271 591 294 585 277 588 305 584 286 586 315 583 295 583 324 581 304 580 333 579 313 576 343 576 322 573 351 570 331 575 361 569 341 574 371 568 351 574 381 568 361 574 391 567 371 575 401 567 381 575 410 567 391 576 420 568 401 577 430 568 412 578 437 569 420 580 448 570 430 582 458 572 440 585 467 573 449 587 476 575 459 590 486 578 469 594 495 581 479 590 495 584 485 590 495 "/>
    <path id="Block5Jump19"
        fill="none"
        stroke="#000000"
		stroke-width="2px"
		d="M 21 190 L 21 190 15 201 21 190 14 204 17 187 11 212 12 194 9 220 7 201 7 229 4 211 7 236 2 218 7 246 1 227 7 255 0 236 7 265 0 246 8 274 0 256 9 284 0 265 10 293 1 275 12 303 2 284 13 313 4 294 15 322 5 305 17 330 6 313 19 341 8 323 21 350 10 332 23 360 12 342 26 369 14 352 28 379 17 362 30 387 19 370 33 397 21 380 35 407 24 389 38 417 26 400 39 425 28 408 42 435 30 418 44 445 33 427 47 455 35 437 49 464 38 447 52 474 40 456 54 484 42 466 56 494 45 476 59 503 47 486 61 513 50 496 63 521 52 504 66 531 54 514 68 541 56 523 70 551 59 534 67 551 62 540 67 551 67 551 " />
    <path id="Block6Jump20"
        fill="none"
        stroke="#FFD911"
		stroke-width="2px"
		d="M 286 15 L 286 15 306 17 286 15 306 17 286 15 306 17 327 15 346 13 366 14 382 21 387 28 396 47 405 65 413 83 425 101 436 118 438 125 430 128 410 131 389 138 369 141 349 141 329 137 312 130 290 129 271 135 253 147 234 150 212 151 192 147 176 146 155 148 158 138 169 120 181 101 190 83 200 64 211 45 222 32 239 19 250 13 257 12 278 16 286 16 279 43 274 65 300 66 326 64 347 62 353 71 364 93 379 101 392 105 409 115 446 130 427 122 421 98 415 74 399 94 383 113 366 132 356 145 331 140 306 135 300 133 316 114 332 95 348 76 364 57 380 38 391 25 368 17 340 8 324 27 308 46 292 65 276 84 260 104 244 123 227 142 217 155 188 147 176 146 152 154 147 160 163 140 180 121 196 102 212 83 228 64 244 45 260 25 273 10 262 35 256 54 282 55 307 56 312 59 294 76 274 92 250 102 236 110 215 115 205 140 145 159 156 148 170 138 192 150 200 154 184 135 167 114 179 93 193 68 209 87 225 106 241 125 257 144 261 148 279 133 296 129 315 135 299 116 283 97 267 78 251 58 235 39 222 25 241 45 252 60 264 71 284 55 311 56 342 52 341 27 339 8 355 27 371 46 387 65 403 85 419 104 435 123 444 133 424 112 404 128 387 143 371 124 355 104 338 85 322 66 306 47 290 28 275 10 261 33 255 42 265 45 291 46 317 46 342 42 364 39 369 14 372 3 347 3 315 5 357 5 379 7 367 7 327 7 315 9 337 9 379 11 347 11 315 11 321 37 324 45 350 41 363 43 374 67 385 90 386 109 379 110 383 135 387 151 367 151 326 149 357 149 404 147 387 147 347 147 319 145 337 145 377 145 415 143 407 143 367 143 327 143 305 141 317 141 357 141 397 141 428 139 387 139 347 139 303 137 337 137 377 137 417 137 428 135 407 135 367 135 327 135 303 133 317 133 357 133 397 133 428 133 420 117 437 125 453 137 471 151 462 149 469 147 453 145 466 143 437 141 464 139 435 137 461 135 447 135 435 133 460 133 437 125 424 118 407 112 393 106 370 111 356 111 339 109 314 101 288 100 262 108 245 118 229 121 215 121 203 120 186 127 170 139 163 144 158 146 149 153 137 164 121 173 139 171 124 169 137 169 151 167 126 165 157 165 164 163 147 163 129 161 137 161 176 159 167 159 131 157 157 157 181 155 147 155 134 153 181 151 167 151 135 151 158 146 178 132 189 126 203 121 198 146 194 161 217 161 255 159 247 159 207 159 182 157 197 157 237 157 265 155 227 155 187 155 147 155 134 153 177 153 217 153 257 153 270 151 247 151 207 151 167 151 136 149 157 149 197 149 237 149 277 147 267 147 227 147 187 147 147 147 139 145 177 145 217 145 257 145 286 143 247 143 207 143 167 143 141 141 157 141 197 141 237 141 277 141 296 139 267 139 227 139 187 139 144 137 177 137 217 137 257 137 297 137 337 137 377 137 417 137 461 135 447 135 407 135 367 135 327 135 287 135 247 135 207 135 167 135 146 133 157 133 197 133 237 133 277 133 317 133 357 133 397 133 437 133 459 131 427 131 387 131 347 131 307 131 267 131 227 131 187 131 148 129 177 129 217 129 257 129 297 129 337 129 377 129 417 129 457 127 447 127 407 127 367 127 327 127 287 127 247 127 207 127 167 127 151 125 157 125 197 125 237 125 277 125 317 125 357 125 397 125 437 125 454 123 427 123 387 123 347 123 307 123 267 123 227 123 187 123 154 121 177 121 217 121 257 121 297 121 337 121 377 121 417 121 452 119 407 119 367 119 327 119 287 119 247 119 207 119 167 119 156 117 197 117 237 117 277 117 317 117 357 117 397 117 437 117 449 115 427 115 387 115 347 115 307 115 267 115 227 115 187 115 158 113 177 113 217 113 257 113 297 113 337 113 377 113 417 113 447 111 407 111 367 111 327 111 287 111 247 111 207 111 167 111 161 109 197 109 237 109 277 109 317 109 357 109 397 109 437 109 444 107 427 107 387 107 347 107 307 107 267 107 227 107 163 105 177 105 215 105 257 105 297 105 337 105 377 105 417 105 442 103 407 103 367 103 327 103 287 103 228 103 207 103 166 101 197 101 238 101 277 101 317 101 357 101 397 101 439 99 427 99 387 99 360 99 307 99 267 99 241 99 187 99 168 97 177 97 217 97 244 97 297 97 337 97 355 97 364 97 417 97 436 95 407 95 366 95 350 95 327 95 287 95 248 95 207 95 170 93 197 93 252 93 277 93 317 93 345 93 368 93 397 93 434 91 427 91 371 91 339 91 307 91 256 91 227 91 187 91 172 89 217 89 261 89 297 89 332 89 373 89 417 89 431 87 407 87 376 87 323 87 287 87 268 87 247 87 207 87 174 85 197 85 237 85 276 85 311 85 357 85 379 85 397 85 428 83 383 83 347 83 307 83 267 83 227 83 187 83 177 81 217 81 257 81 297 81 337 81 387 81 417 81 426 79 392 79 367 79 327 79 287 79 247 79 207 79 178 77 197 77 237 77 277 77 317 77 357 77 399 77 424 75 411 75 387 75 347 75 307 75 267 75 227 75 187 75 181 73 217 73 257 73 297 73 337 73 377 73 417 73 422 71 407 71 367 71 327 71 287 71 247 71 207 71 183 69 197 69 237 69 277 69 317 69 357 69 397 69 420 67 387 67 347 67 307 67 267 67 227 67 185 65 217 65 257 65 297 65 337 65 377 65 418 63 407 63 367 63 327 63 287 63 247 63 207 63 187 61 197 61 237 61 277 61 317 61 357 61 397 61 416 59 387 59 347 59 307 59 267 59 227 59 189 57 217 57 257 57 297 57 337 57 377 57 414 55 407 55 367 55 327 55 287 55 247 55 207 55 192 53 237 53 277 53 317 53 357 53 397 53 412 51 387 51 347 51 307 51 267 51 227 51 194 49 217 49 257 49 297 49 337 49 377 49 411 47 367 47 327 47 287 47 247 47 207 47 196 45 237 45 277 45 317 45 357 45 397 45 409 43 387 43 347 43 307 43 267 43 227 43 198 41 217 41 257 41 297 41 337 41 377 41 407 39 367 39 327 39 287 39 247 39 207 39 200 37 237 37 277 37 317 37 357 37 397 37 405 35 387 35 347 35 307 35 267 35 227 35 202 33 217 33 257 33 297 33 337 33 377 33 403 31 367 31 327 31 287 31 247 31 206 29 237 29 277 29 317 29 357 29 401 27 387 27 347 27 307 27 267 27 227 27 210 25 217 25 257 25 297 25 337 25 377 25 400 23 367 23 327 23 287 23 247 23 214 21 237 21 277 21 317 21 357 21 398 19 387 19 347 19 307 19 267 19 227 19 219 17 257 17 297 17 337 17 377 17 395 15 367 15 327 15 287 15 247 15 224 13 237 13 277 13 317 13 357 13 391 11 347 11 307 11 267 11 230 9 257 9 297 9 337 9 377 9 384 7 367 7 327 7 287 7 247 7 239 5 277 5 295 5 288 4 301 6 289 3 301 4 288 4 301 5 314 6 301 5 314 4 301 6 314 5 327 3 314 4 327 2 314 6 327 3 340 2 327 2 339 0 327 3 340 1 354 2 340 0 354 0 340 2 354 1 367 3 354 1 367 2 354 2 367 3 379 6 367 2 380 5 367 3 379 6 389 11 380 5 389 10 379 6 389 11 394 16 389 10 395 15 388 11 394 16 397 21 395 15 398 20 394 16 398 21 399 27 398 21 400 26 397 21 400 26 405 39 400 26 406 39 399 27 405 39 411 53 406 39 413 52 405 39 412 52 418 66 413 52 419 66 411 53 418 66 424 79 419 66 426 79 418 66 425 79 432 92 425 79 434 91 424 79 433 92 441 104 434 91 442 104 432 92 441 104 448 117 442 104 450 116 441 104 449 117 456 130 450 116 457 129 448 117 457 129 464 142 457 129 465 142 456 130 465 142 471 155 465 142 473 154 464 142 472 154 461 147 471 154 461 148 471 153 461 148 451 143 461 148 450 144 461 147 450 143 439 140 450 144 438 141 451 143 439 141 427 140 438 141 427 141 439 140 427 140 414 142 427 141 415 143 426 140 414 143 403 146 415 143 404 147 414 142 403 146 390 149 404 147 390 150 403 146 390 150 376 151 390 150 376 153 390 149 376 152 363 152 376 152 363 153 376 151 363 153 349 152 363 153 349 153 363 152 349 152 336 150 349 153 336 151 349 152 336 151 325 147 336 151 324 148 336 150 324 147 314 142 324 148 313 143 325 147 314 142 302 140 313 143 302 141 314 142 302 140 291 140 302 141 291 142 302 140 291 141 280 143 291 142 281 145 291 140 281 144 270 149 281 145 270 151 280 144 270 150 260 156 270 150 261 157 270 149 260 157 248 159 261 158 248 161 260 156 248 160 234 161 248 161 234 163 248 159 234 162 220 162 234 163 220 164 234 161 220 163 206 161 220 163 206 163 220 162 206 162 194 160 206 163 194 161 207 162 194 160 181 156 194 161 181 157 194 160 181 157 169 160 181 158 169 161 180 156 169 161 157 164 169 161 157 165 169 160 157 165 144 168 157 165 145 169 157 164 144 169 132 172 145 169 132 173 144 168 132 172 120 175 132 173 121 177 132 172 121 176 129 164 121 175 128 163 122 175 128 163 137 151 128 163 136 150 129 164 136 150 144 139 136 150 143 138 137 151 144 139 152 126 143 138 151 125 144 139 152 126 160 113 151 125 159 113 152 126 159 113 167 101 159 113 166 100 160 113 167 101 174 89 166 100 173 88 167 101 173 88 181 76 173 88 180 75 174 89 181 75 188 62 180 75 187 62 181 76 188 62 195 49 187 62 194 49 188 62 195 49 202 37 194 49 201 36 195 49 202 37 210 27 201 36 209 26 202 37 210 26 220 18 209 26 219 17 210 27 220 17 231 11 219 17 230 9 220 18 230 10 241 6 230 9 240 5 231 11 241 5 252 4 241 5 252 2 241 6 252 3 262 4 252 2 262 3 252 4 262 4 272 5 263 3 272 3 263 5 272 4 287 4 272 3 287 3 272 5 287 4 275 4 287 4 287 4 " />
    <path id="Block7Jump21"
        fill="none"
        stroke="#2F7E20"
		stroke-width="2px"
		d="M 281 378 L 281 378 302 380 281 378 302 380 281 378 302 380 323 378 324 383 332 403 340 423 349 444 358 463 366 483 374 502 375 510 369 518 351 526 330 531 310 536 288 536 268 534 246 529 226 520 221 519 225 513 233 494 242 474 250 454 258 437 267 417 275 398 285 380 296 404 301 419 302 442 302 455 297 472 292 483 298 487 306 512 309 541 325 522 341 502 357 483 367 472 357 449 347 426 345 421 329 440 313 459 297 478 281 497 265 516 248 535 244 511 241 486 238 470 254 451 270 432 286 413 302 394 319 374 308 399 303 414 302 420 303 434 313 458 323 481 328 493 307 496 296 497 295 522 296 542 280 522 264 503 248 484 237 472 248 449 258 426 260 421 276 440 292 460 308 479 324 498 340 517 351 530 337 507 326 489 349 479 367 471 351 452 335 433 319 414 303 395 286 375 298 400 301 411 290 434 280 457 270 481 266 495 267 505 273 506 269 531 265 547 274 547 294 547 314 547 329 545 311 545 291 545 271 545 248 543 267 543 287 543 307 543 327 543 344 541 321 541 301 541 281 541 261 541 238 539 259 539 279 539 299 539 319 539 339 539 356 537 346 537 326 537 306 537 286 537 266 537 246 537 229 535 251 535 271 535 291 535 311 535 331 535 351 535 366 533 353 533 333 533 313 533 293 533 273 533 253 533 233 533 221 531 234 531 254 531 274 531 294 531 314 531 334 531 354 531 375 529 355 529 335 529 315 529 295 529 275 529 255 529 235 529 214 527 234 527 254 527 274 527 294 527 314 527 334 527 354 527 374 527 383 525 371 525 351 525 331 525 311 525 291 525 271 525 251 525 231 525 208 523 227 523 247 523 267 523 287 523 307 523 327 523 347 523 367 523 390 521 381 521 361 521 341 521 321 521 301 521 281 521 261 521 241 521 221 521 209 519 219 519 239 519 259 519 279 519 299 519 319 519 339 519 359 519 379 519 395 517 386 517 366 517 346 517 326 517 306 517 286 517 266 517 246 517 226 517 211 515 231 515 251 515 271 515 291 515 311 515 331 515 351 515 371 515 393 513 373 513 353 513 333 513 313 513 293 513 273 513 253 513 233 513 213 511 234 511 254 511 274 511 294 511 314 511 334 511 354 511 374 511 392 509 375 509 355 509 335 509 315 509 295 509 275 509 255 509 235 509 214 507 234 507 254 507 274 507 294 507 314 507 334 507 354 507 374 507 390 505 371 505 351 505 331 505 311 505 291 505 271 505 251 505 231 505 216 503 227 503 247 503 267 503 287 503 307 503 327 503 347 503 367 503 388 501 381 501 361 501 341 501 321 501 301 501 281 501 261 501 241 501 217 499 239 499 259 499 279 499 299 499 319 499 339 499 359 499 379 499 386 497 366 497 346 497 326 497 306 497 286 497 266 497 246 497 226 497 219 495 231 495 251 495 271 495 291 495 311 495 331 495 351 495 371 495 385 493 373 493 353 493 333 493 313 493 293 493 273 493 253 493 233 493 221 491 234 491 254 491 274 491 294 491 314 491 334 491 354 491 374 491 383 489 375 489 355 489 335 489 315 489 295 489 275 489 255 489 235 489 222 487 234 487 254 487 274 487 294 487 314 487 334 487 354 487 374 487 381 485 371 485 351 485 331 485 311 485 291 485 271 485 251 485 231 485 224 483 247 483 267 483 287 483 307 483 327 483 347 483 367 483 379 481 361 481 341 481 321 481 301 481 281 481 261 481 241 481 226 479 239 479 259 479 279 479 299 479 319 479 339 479 359 479 378 477 366 477 346 477 326 477 306 477 286 477 266 477 246 477 227 475 251 475 271 475 291 475 311 475 331 475 351 475 371 475 376 473 353 473 333 473 313 473 293 473 273 473 253 473 229 471 254 471 274 471 294 471 314 471 334 471 354 471 374 469 355 469 335 469 315 469 295 469 275 469 255 469 231 467 254 467 274 467 294 467 314 467 334 467 354 467 373 465 351 465 331 465 311 465 291 465 271 465 251 465 232 463 247 463 267 463 287 463 307 463 327 463 347 463 371 461 361 461 341 461 321 461 301 461 281 461 261 461 241 461 234 459 259 459 279 459 299 459 319 459 339 459 359 459 369 457 346 457 326 457 306 457 286 457 266 457 246 457 236 455 251 455 271 455 291 455 311 455 331 455 351 455 367 453 353 453 333 453 313 453 293 453 273 453 253 453 238 451 254 451 274 451 294 451 314 451 334 451 354 451 366 449 355 449 335 449 315 449 295 449 275 449 255 449 239 447 254 447 274 447 294 447 314 447 334 447 354 447 364 445 351 445 331 445 311 445 291 445 271 445 251 445 241 443 247 443 267 443 287 443 307 443 327 443 347 443 362 441 341 441 321 441 301 441 281 441 261 441 243 439 259 439 279 439 299 439 319 439 339 439 361 437 346 437 326 437 306 437 286 437 266 437 244 435 251 435 271 435 291 435 311 435 331 435 351 435 359 433 353 433 333 433 313 433 293 433 273 433 253 433 246 431 254 431 274 431 294 431 314 431 334 431 357 429 335 429 315 429 295 429 275 429 255 429 248 427 254 427 274 427 294 427 314 427 334 427 356 425 331 425 311 425 291 425 271 425 249 423 267 423 287 423 307 423 327 423 347 423 354 421 341 421 321 421 301 421 281 421 261 421 251 419 259 419 279 419 299 419 319 419 339 419 352 417 346 417 326 417 306 417 286 417 266 417 253 415 271 415 291 415 311 415 331 415 350 413 333 413 313 413 293 413 273 413 255 411 274 411 294 411 314 411 334 411 349 409 335 409 315 409 295 409 275 409 257 407 274 407 294 407 314 407 334 407 347 405 331 405 311 405 291 405 271 405 258 403 267 403 287 403 307 403 327 403 345 401 321 401 301 401 281 401 260 399 279 399 299 399 319 399 343 397 326 397 306 397 286 397 262 395 271 395 291 395 311 395 331 395 342 393 333 393 313 393 293 393 273 393 264 391 274 391 294 391 314 391 334 391 340 389 315 389 295 389 275 389 265 387 274 387 294 387 314 387 338 385 331 385 311 385 291 385 267 383 287 383 307 383 327 383 337 381 321 381 301 381 281 381 269 379 279 379 299 379 319 379 335 377 326 377 306 377 286 377 271 375 291 375 311 375 333 373 313 373 293 373 273 371 294 371 314 371 332 369 315 369 295 369 273 369 276 367 289 368 276 367 289 367 276 368 289 367 303 368 289 367 303 367 289 368 303 367 316 368 303 367 316 367 303 368 316 367 330 368 316 367 330 367 316 368 330 367 335 381 331 368 336 381 330 369 336 381 341 395 336 381 342 395 335 381 342 395 347 409 342 395 348 408 341 395 347 409 353 423 348 408 354 422 347 409 353 422 359 437 354 422 360 436 353 423 359 436 364 449 360 436 365 449 359 437 365 449 370 463 365 449 371 463 364 449 371 463 376 477 371 463 377 476 370 463 377 477 382 491 377 476 383 490 376 477 383 491 388 505 383 490 389 504 382 491 388 504 394 518 389 504 395 518 388 505 394 518 381 524 394 519 382 525 393 518 382 525 368 530 382 525 369 532 381 524 369 531 355 536 369 532 356 537 368 530 355 536 342 540 356 537 342 542 355 536 342 541 328 544 342 542 328 545 342 540 328 545 314 546 328 545 315 548 328 544 314 547 300 548 314 548 300 549 314 546 300 549 286 548 300 549 286 549 300 548 286 549 273 547 286 549 272 548 286 548 273 548 259 544 272 548 259 546 273 547 259 545 246 541 259 546 245 542 259 544 246 541 233 536 245 542 233 537 246 541 233 536 221 529 233 537 220 531 233 536 221 530 209 522 220 531 209 523 221 529 209 523 215 510 209 522 213 510 210 522 214 510 220 497 214 510 219 497 215 510 219 497 225 484 219 497 224 484 220 497 225 484 231 471 224 484 230 470 225 484 230 470 237 458 230 470 235 457 231 471 236 457 242 445 235 457 241 444 237 458 241 445 248 432 241 444 246 431 242 445 247 432 253 419 246 431 252 419 248 432 252 419 259 405 252 419 258 405 253 419 258 405 265 393 258 405 263 392 259 405 264 392 270 380 263 392 269 379 265 393 270 380 276 368 269 379 274 367 270 380 275 367 271 379 275 367 275 367 " />
    <path id="Block8Jump22"
        fill="none"
        stroke="#878787"
		stroke-width="2px"
		d="M 264 961 L 264 961 244 964 264 961 244 964 264 961 244 964 224 959 212 957 213 965 226 975 242 977 263 975 282 968 296 954 302 951 322 951 336 949 346 936 336 934 314 931 302 942 284 953 265 961 262 950 270 968 274 964 282 960 297 948 303 944 328 941 341 939 347 934 365 910 357 912 365 914 350 916 365 918 341 920 352 920 365 922 332 924 364 926 342 926 332 926 329 942 317 943 310 942 297 947 287 955 280 962 263 969 238 972 227 969 221 966 212 959 205 945 197 928 202 930 196 932 205 934 195 936 209 938 202 938 195 940 215 942 195 944 228 946 202 946 195 948 212 948 236 950 222 950 195 952 232 952 244 954 202 954 196 956 212 956 244 956 248 972 256 968 262 968 272 986 242 986 216 984 232 984 272 984 283 982 262 982 222 982 210 980 252 980 290 978 282 978 242 978 205 976 232 976 272 976 295 974 262 974 222 974 202 972 212 972 252 972 292 972 299 970 282 970 242 970 200 968 232 968 272 968 301 966 262 966 222 966 198 964 212 964 252 964 292 964 303 962 282 962 242 962 202 962 197 960 232 960 272 960 312 960 347 958 303 958 262 958 222 958 196 956 212 956 252 956 305 956 332 956 352 954 307 954 282 954 "/>
    <path id="Block8Jump23"
        fill="none"
        stroke="#878787"
		stroke-width="2px"
		d="M 195 954 L 233 952 245 952 272 952 309 952 355 950 342 950 310 950 261 948 292 948 311 948 332 948 358 946 312 946 282 946 272 944 312 944 352 944 360 942 342 942 313 942 280 940 292 940 313 940 332 940 362 938 313 938 287 936 312 936 352 936 363 934 342 934 312 934 293 932 312 932 332 932 364 930 311 930 299 928 311 928 352 928 364 926 342 926 310 926 305 924 332 924 365 924 324 922 308 922 324 922 308 922 324 922 308 922 "/>
    <path id="Block8Jump24"
        fill="none"
        stroke="#878787"
		stroke-width="2px"
		d="M 198 927 L 198 927 196 938 198 927 196 938 199 927 197 938 197 926 196 938 195 951 197 938 197 951 196 938 196 951 198 962 197 951 199 962 196 951 198 962 202 971 199 961 203 970 198 962 202 970 207 978 203 970 208 977 202 971 208 977 215 983 208 977 216 982 207 978 215 983 224 987 216 982 224 986 215 983 224 987 234 990 224 986 234 988 224 987 234 989 248 989 234 988 248 988 234 990 248 989 261 988 247 988 261 987 248 989 261 988 273 986 261 987 273 984 261 988 273 985 284 981 273 984 284 980 273 986 284 981 293 976 284 980 292 975 284 981 292 975 299 969 292 975 298 968 293 976 299 968 303 961 298 968 302 961 299 969 303 961 316 964 304 960 316 962 303 962 316 963 328 964 316 962 328 962 316 964 328 963 340 961 328 963 340 960 329 964 340 961 349 957 340 960 348 955 340 961 348 956 355 950 348 956 354 949 349 956 354 950 360 942 354 950 358 941 355 950 359 942 363 931 358 942 362 931 360 942 362 931 365 920 362 931 363 920 363 931 364 920 365 908 363 920 364 908 365 920 364 908 354 914 364 909 355 915 363 908 355 915 343 919 355 915 344 921 354 914 344 920 333 922 344 921 333 923 343 919 333 922 322 922 333 923 322 923 333 922 322 922 313 919 322 923 313 920 322 922 313 919 302 927 313 920 302 928 312 919 302 927 290 934 302 928 291 936 302 927 290 935 278 941 290 936 279 942 290 934 279 941 267 946 279 942 267 947 278 941 267 947 255 950 267 947 255 951 267 946 255 950 244 951 255 951 244 952 255 950 244 952 235 950 244 952 235 951 244 951 235 950 227 946 234 951 226 947 235 950 227 946 218 943 227 947 217 944 227 946 218 944 210 939 217 944 209 940 218 943 209 939 203 932 209 940 202 933 210 939 203 933 199 925 202 933 198 926 204 933 198 926 204 933 198 926 "/>
    <path id="Block8Jump25"
        fill="none"
        stroke="#878787"
		stroke-width="2px"
		d="M 553 748 L 553 748 555 752 560 759 577 765 597 763 607 761 615 769 627 786 640 801 642 810 627 819 609 821 590 816 581 814 562 825 540 829 538 820 546 802 553 783 555 758 570 781 575 790 563 768 553 752 572 768 591 784 610 800 629 816 635 821 614 803 597 792 581 812 567 828 547 812 539 805 563 804 571 794 580 789 597 790 612 801 622 803 652 796 652 805 650 820 648 790 646 824 646 796 644 787 644 805 642 826 642 816 640 782 638 828 638 796 636 778 636 805 634 830 634 816 632 773 632 786 632 826 630 832 630 796 628 767 628 805 626 833 626 816 626 776 624 760 624 786 624 826 622 834 622 796 620 752 620 765 620 805 618 834 618 816 618 776 616 740 616 746 616 786 616 826 614 835 614 796 614 756 612 741 612 765 612 805 610 835 610 816 610 776 608 743 608 786 608 826 606 834 606 796 606 756 604 746 604 765 604 805 602 834 602 816 602 776 600 748 600 786 600 826 598 833 598 796 598 756 596 749 596 765 596 805 594 831 594 816 594 776 592 751 592 786 590 830 590 796 588 752 588 765 588 805 586 828 586 816 586 776 584 752 584 786 582 827 582 796 580 752 580 765 580 805 578 830 578 816 578 776 576 752 576 786 576 826 574 833 574 796 574 756 572 751 572 765 572 805 570 835 570 816 570 776 568 750 568 786 568 826 566 837 566 796 566 756 564 748 564 765 564 805 562 839 562 816 562 776 560 745 560 786 560 826 558 840 558 796 558 756 556 742 556 765 556 805 554 841 554 816 554 776 552 738 552 746 552 786 552 826 550 841 550 796 550 756 548 744 548 765 548 805 548 841 549 819 544 823 516 831 518 837 520 826 522 838 524 819 526 839 528 811 528 826 530 840 530 816 532 803 534 841 536 793 536 826 538 842 538 816 540 779 540 805 542 842 542 836 542 796 544 764 544 786 544 826 546 842 546 816 546 776 548 744 548 765 548 805 550 841 550 796 550 756 550 735 550 737 557 745 551 737 558 744 550 738 557 744 564 750 558 744 565 748 557 745 564 749 572 753 565 748 573 752 564 750 572 752 580 754 573 752 580 753 572 753 580 753 589 753 580 753 589 752 580 754 589 753 598 750 589 752 598 749 589 753 598 750 607 746 598 749 606 745 598 750 607 745 615 740 606 745 615 739 607 746 615 740 618 752 616 740 620 751 615 741 619 751 624 763 620 751 626 763 619 752 625 763 631 774 625 763 632 773 624 764 632 774 640 784 632 773 641 783 631 774 640 784 648 793 641 783 649 792 640 784 648 792 653 801 649 792 654 800 648 793 653 800 654 806 654 800 655 806 652 801 655 806 654 811 655 806 655 811 654 806 654 811 652 815 655 811 653 816 654 811 652 816 649 819 653 816 650 820 652 815 649 820 643 823 650 820 644 824 649 819 644 824 636 828 644 825 637 829 643 823 636 828 626 831 636 829 627 832 636 828 626 832 614 833 626 832 614 834 626 831 614 834 603 832 614 834 603 834 614 833 603 833 592 829 603 834 592 830 603 832 592 830 584 824 592 830 583 826 592 829 583 825 573 832 583 826 574 833 582 825 573 832 561 837 574 833 562 838 573 831 562 838 550 840 562 838 550 841 561 837 550 840 538 840 550 841 538 841 550 840 538 841 525 838 538 841 525 839 538 840 525 838 515 833 525 839 514 835 526 838 514 834 522 825 514 833 521 824 515 834 521 824 529 813 521 824 527 813 522 825 528 813 534 801 527 813 533 801 529 813 534 801 538 789 533 801 537 789 534 801 538 789 542 777 537 789 541 776 538 789 542 776 546 763 541 776 544 763 542 777 545 763 548 749 544 763 547 749 546 763 548 749 550 737 547 749 549 736 548 749 550 736 548 748 550 736 550 736 " />
    <path id="Block9Jump26"
        fill="none"
        stroke="#B27624"
		stroke-width="2px"
		d="M 284 893 L 284 893 265 883 284 893 265 883 284 893 265 883 251 884 234 894 218 907 208 919 204 930 223 938 242 944 263 942 283 933 298 921 311 913 331 914 348 911 353 905 349 893 338 883 324 878 305 883 286 892 272 914 294 904 300 901 324 892 340 879 324 898 308 917 303 923 279 929 254 935 231 941 221 943 237 924 253 905 269 886 273 881 260 906 266 884 271 872 240 874 249 874 280 876 259 876 234 878 269 878 283 880 239 880 234 882 249 882 283 882 277 911 288 908 299 902 306 898 323 896 337 868 304 870 345 872 319 872 296 874 329 874 351 876 339 876 299 876 289 878 309 878 349 878 356 880 319 880 286 882 329 882 356 884 339 884 286 884 276 913 258 911 241 919 233 944 229 954 249 954 275 952 239 952 217 950 229 950 269 950 283 948 259 948 219 948 208 946 249 946 290 944 279 944 239 944 200 942 229 942 269 942 296 940 259 940 219 940 193 938 209 938 249 938 289 938 300 936 279 936 239 936 199 936 192 934 229 934 269 934 304 932 259 932 219 932 193 930 209 930 249 930 289 930 308 928 279 928 239 928 199 928 193 926 229 926 269 926 312 924 259 924 219 924 194 922 209 922 249 922 289 922 312 920 279 920 239 920 194 920 214 924 239 921 255 915 264 912 284 910 306 898 335 897 341 910 312 924 339 924 355 922 329 922 309 922 289 922 249 922 209 922 194 920 239 920 279 920 309 920 361 918 349 918 308 918 269 918 229 918 196 916 219 916 259 916 308 916 339 916 364 914 329 914 308 914 289 914 249 914 209 914 198 912 239 912 279 912 307 912 359 912 366 910 349 910 307 910 269 910 229 910 201 908 219 908 259 908 306 908 339 908 367 906 329 906 306 906 289 906 249 906 209 906 203 904 239 904 279 904 305 904 359 904 367 902 349 902 304 902 269 902 229 902 207 900 219 900 259 900 303 900 339 900 366 898 329 898 301 898 249 898 211 896 239 896 279 896 300 896 319 896 359 896 365 894 349 894 298 894 269 894 229 894 216 892 259 892 297 892 339 892 363 890 329 890 294 890 249 890 222 888 239 888 292 888 319 888 360 886 349 886 309 886 289 886 269 886 227 884 259 884 286 884 339 884 357 882 329 882 283 882 249 882 231 880 239 880 279 880 286 880 285 880 276 874 285 881 276 875 285 880 276 875 266 870 276 875 265 872 276 874 265 871 255 870 265 872 255 871 265 870 255 870 245 872 256 871 245 873 255 870 245 873 236 877 245 873 237 878 245 872 236 877 228 884 237 878 229 885 236 877 228 884 218 891 229 885 218 892 228 883 218 892 209 899 218 892 209 900 218 891 209 899 201 908 209 900 202 909 208 899 201 908 196 917 202 908 197 917 201 908 197 917 193 927 197 917 194 928 196 917 194 927 193 937 194 928 194 937 193 927 194 937 205 944 195 937 206 943 194 938 205 944 217 950 206 943 218 949 205 944 218 949 231 954 218 949 231 953 217 950 231 954 244 956 231 953 244 955 231 954 244 956 257 956 244 955 257 955 244 956 257 956 270 954 257 955 269 952 257 956 269 953 281 949 269 952 281 948 270 954 281 948 293 942 281 948 292 941 281 949 292 941 302 934 292 941 302 933 293 942 302 933 311 925 302 933 310 924 302 934 310 924 323 926 311 924 323 925 311 925 323 926 337 926 323 925 337 925 323 926 337 926 348 925 337 925 348 923 337 926 348 924 357 921 348 923 356 920 348 925 356 920 361 918 356 920 360 917 357 921 361 917 364 914 360 917 363 913 361 917 363 913 366 909 363 913 364 908 364 914 365 909 366 904 364 909 365 904 366 909 366 904 364 893 365 904 362 893 366 904 363 893 359 884 363 893 358 885 364 893 358 885 353 878 358 885 352 879 359 884 352 878 345 872 352 879 344 873 353 878 344 872 336 868 344 873 335 869 345 872 335 868 327 866 335 869 327 867 336 868 327 866 317 866 327 867 317 867 327 866 317 867 307 869 317 867 307 870 317 866 307 870 296 874 307 870 296 875 307 869 296 875 286 880 296 875 286 882 296 874 286 881 296 874 286 881 286 881 " />
    <path id="Block10Jump27"
        fill="none"
        stroke="#D8CAC6"
		stroke-width="2px"
		d="M 577 430 L 577 430 564 447 577 430 564 447 577 430 564 447 552 463 541 481 531 499 523 519 517 540 514 561 512 583 514 604 515 625 520 646 525 667 531 686 539 705 551 723 566 738 582 750 600 738 615 723 627 706 638 689 647 669 655 650 661 630 661 608 661 587 660 566 657 545 652 528 646 509 638 491 628 472 616 456 602 441 583 432 577 433 584 459 585 478 587 484 587 499 577 522 597 539 608 551 611 569 615 598 640 598 667 598 651 617 635 636 619 656 603 675 587 694 571 713 554 733 541 711 527 688 543 669 559 650 575 630 591 611 607 592 623 573 639 554 655 535 658 531 649 507 639 485 637 479 621 498 605 517 589 536 572 555 556 575 540 594 524 613 511 628 511 603 511 578 510 552 526 533 542 514 558 495 574 476 590 457 605 438 593 463 587 478 588 484 598 499 607 518 615 539 619 556 622 580 623 595 623 618 622 624 617 639 607 662 597 680 582 701 566 722 556 736 543 721 536 697 528 673 521 649 514 625 508 601 524 620 540 640 556 659 572 678 588 697 604 716 616 730 630 709 645 687 629 668 613 649 597 630 581 610 565 591 549 572 532 553 514 532 524 508 533 486 536 480 552 499 568 518 584 537 600 556 616 575 633 594 649 614 666 634 639 629 622 624 623 597 622 572 621 560 645 555 662 552 646 533 630 514 614 495 598 476 582 457 566 437 581 459 585 466 586 491 586 517 586 543 586 569 586 595 586 621 586 647 586 673 586 699 583 714 582 721 585 746 587 760 572 758 595 756 566 754 584 754 602 752 574 752 560 750 607 748 595 748 555 746 584 746 612 744 574 744 551 742 564 742 604 742 616 740 595 740 555 740 547 738 584 738 621 736 614 736 574 736 544 734 564 734 604 734 624 732 595 732 555 732 540 730 584 730 628 728 614 728 574 728 537 726 564 726 604 726 631 724 595 724 555 724 535 722 544 722 584 722 624 722 634 720 614 720 574 720 532 718 564 718 604 718 636 716 595 716 555 716 529 714 544 714 584 714 624 714 639 712 614 712 574 712 534 712 527 710 564 710 604 710 641 708 635 708 595 708 555 708 525 706 544 706 584 706 624 706 644 704 614 704 574 704 534 704 523 702 564 702 604 702 646 700 635 700 595 700 555 700 522 698 544 698 584 698 624 698 649 696 614 696 574 696 534 696 520 694 564 694 604 694 644 694 650 692 635 692 595 692 555 692 518 690 544 690 584 690 624 690 652 688 614 688 574 688 534 688 517 686 524 686 564 686 604 686 644 686 655 684 635 684 595 684 555 684 516 682 544 682 584 682 624 682 656 680 614 680 574 680 534 680 514 678 524 678 564 678 604 678 644 678 658 676 635 676 595 676 555 676 513 674 544 674 584 674 624 674 660 672 654 672 614 672 574 672 534 672 512 670 524 670 564 670 604 670 644 670 662 668 635 668 595 668 555 668 511 666 544 666 584 666 624 666 663 664 654 664 614 664 574 664 534 664 510 662 524 662 564 662 604 662 644 662 665 660 635 660 595 660 555 660 515 660 509 658 544 658 584 658 624 658 666 656 654 656 614 656 574 656 534 656 508 654 524 654 564 654 604 654 644 654 668 652 635 652 595 652 555 652 515 652 507 650 544 650 584 650 624 650 664 650 669 648 654 648 614 648 574 648 534 648 507 646 524 646 564 646 604 646 644 646 670 644 635 644 595 644 555 644 515 644 506 642 544 642 584 642 624 642 664 642 672 640 654 640 614 640 574 640 534 640 505 638 524 638 564 638 604 638 644 638 673 636 635 636 595 636 555 636 515 636 504 634 544 634 584 634 624 634 664 634 674 632 654 632 614 632 574 632 534 632 503 630 524 630 564 630 604 630 644 630 674 628 635 628 595 628 555 628 515 628 503 626 544 626 584 626 624 626 664 626 674 624 654 624 614 624 574 624 534 624 502 622 524 622 564 622 604 622 644 622 675 620 635 620 595 620 555 620 515 620 501 618 544 618 584 618 624 618 664 618 675 616 654 616 614 616 574 616 534 616 501 614 524 614 564 614 604 614 644 614 675 612 635 612 595 612 555 612 515 612 501 610 544 610 584 610 624 610 664 610 675 608 654 608 614 608 574 608 534 608 500 606 524 606 564 606 604 606 644 606 675 604 635 604 595 604 555 604 515 604 500 602 544 602 584 602 624 602 664 602 675 600 654 600 614 600 574 600 534 600 500 598 524 598 564 598 604 598 644 598 675 596 635 596 595 596 555 596 515 596 499 594 544 594 584 594 624 594 664 594 675 592 654 592 614 592 574 592 534 592 499 590 524 590 564 590 604 590 644 590 675 588 635 588 595 588 555 588 515 588 499 586 544 586 584 586 624 586 664 586 674 584 654 584 614 584 574 584 534 584 499 582 524 582 564 582 604 582 644 582 674 580 635 580 595 580 555 580 515 580 499 578 544 578 584 578 624 578 664 578 674 576 654 576 614 576 574 576 534 576 499 574 524 574 564 574 604 574 644 574 673 572 635 572 595 572 555 572 515 572 500 570 544 570 584 570 624 570 664 570 673 568 654 568 614 568 574 568 534 568 500 566 524 566 564 566 604 566 644 566 673 564 635 564 595 564 555 564 515 564 500 562 544 562 584 562 624 562 664 562 672 560 654 560 614 560 574 560 534 560 501 558 524 558 564 558 604 558 644 558 672 556 635 556 595 556 555 556 515 556 501 554 544 554 584 554 624 554 664 554 671 552 654 552 614 552 574 552 534 552 502 550 524 550 564 550 604 550 644 550 670 548 635 548 595 548 555 548 515 548 503 546 544 546 584 546 624 546 664 546 670 544 654 544 614 544 574 544 534 544 503 542 524 542 564 542 604 542 644 542 669 540 635 540 595 540 555 540 515 540 504 538 544 538 584 538 624 538 668 536 654 536 614 536 574 536 534 536 505 534 524 534 564 534 604 534 644 534 667 532 635 532 595 532 555 532 515 532 506 530 544 530 584 530 624 530 666 528 654 528 614 528 574 528 534 528 507 526 524 526 564 526 604 526 644 526 665 524 635 524 595 524 555 524 515 524 509 522 544 522 584 522 624 522 664 520 654 520 614 520 574 520 534 520 510 518 524 518 564 518 604 518 644 518 663 516 635 516 595 516 555 516 511 514 544 514 584 514 624 514 661 512 654 512 614 512 574 512 534 512 512 510 524 510 564 510 604 510 644 510 660 508 635 508 595 508 555 508 514 506 544 506 584 506 624 506 658 504 614 504 574 504 534 504 516 502 524 502 564 502 604 502 644 502 657 500 635 500 595 500 555 500 517 498 544 498 584 498 624 498 655 496 614 496 574 496 534 496 519 494 564 494 604 494 644 494 653 492 635 492 595 492 555 492 521 490 544 490 584 490 624 490 652 488 614 488 574 488 534 488 523 486 564 486 604 486 644 486 649 484 635 484 595 484 555 484 525 482 544 482 584 482 624 482 647 480 614 480 574 480 534 480 527 478 564 478 604 478 645 476 635 476 595 476 555 476 530 474 544 474 584 474 624 474 643 472 614 472 574 472 532 470 564 470 604 470 640 468 595 468 555 468 534 466 544 466 584 466 624 466 638 464 614 464 574 464 537 462 564 462 604 462 635 460 595 460 555 460 540 458 584 458 624 458 632 456 614 456 574 456 542 454 564 454 604 454 629 452 595 452 555 452 545 450 584 450 626 448 614 448 574 448 548 446 564 446 604 446 622 444 595 444 551 442 584 442 618 440 574 440 555 438 564 438 604 438 614 436 595 436 558 434 584 434 610 432 574 432 561 430 603 428 595 428 565 426 584 426 596 424 574 424 569 422 586 420 570 420 573 419 563 428 573 419 564 429 572 418 564 429 554 439 564 429 555 440 563 428 554 440 545 450 555 440 546 451 554 439 546 451 537 462 546 451 538 463 545 451 538 463 530 474 538 463 531 475 537 462 530 475 523 487 531 475 524 488 530 474 524 487 517 500 524 487 518 500 523 487 518 500 512 513 518 500 513 513 517 500 512 513 508 526 513 513 509 527 512 513 508 527 504 540 509 527 506 540 508 526 505 540 502 554 505 540 503 554 504 540 502 554 500 568 503 554 502 568 502 554 501 568 500 582 502 568 501 582 500 568 500 582 500 596 501 582 501 596 500 582 500 596 501 612 501 596 502 611 500 596 502 611 503 626 502 611 504 625 501 612 504 626 506 640 504 625 507 639 503 626 506 639 508 653 507 639 510 653 506 640 509 653 512 667 510 653 513 667 508 653 512 667 516 681 513 667 517 680 512 667 516 681 520 694 517 680 522 694 516 681 521 694 526 707 522 694 527 706 520 694 527 707 533 719 527 706 534 718 526 707 533 719 541 730 534 718 542 729 533 719 541 730 549 740 542 729 550 739 541 730 550 740 559 749 550 739 560 748 549 740 560 748 570 757 560 748 571 755 559 749 570 756 581 762 571 755 582 761 570 757 581 762 593 757 582 761 593 756 582 762 593 756 604 751 593 756 603 749 593 757 603 750 614 742 603 749 613 741 604 750 613 742 623 733 613 741 622 732 614 742 623 732 631 723 622 732 630 722 623 733 631 722 639 712 630 722 638 711 631 723 638 711 646 700 638 711 645 699 639 712 645 700 652 688 645 699 651 688 646 700 651 688 658 676 651 688 657 675 652 688 657 675 663 663 657 675 662 662 658 676 663 662 668 650 662 662 667 650 663 663 668 650 673 637 667 650 672 636 668 650 672 636 674 622 672 636 673 622 673 636 673 622 675 609 673 622 673 609 674 622 674 609 674 594 673 609 673 594 675 609 674 594 674 580 673 594 672 580 674 594 673 580 672 565 672 580 671 565 674 580 672 565 671 552 671 565 669 552 672 565 670 552 668 538 669 552 667 538 671 552 667 538 664 524 667 538 663 524 668 538 664 524 661 511 663 524 659 511 664 524 660 511 655 498 659 511 654 498 661 511 655 498 650 485 654 498 648 485 655 498 649 485 643 473 648 485 642 474 649 485 643 474 636 462 642 474 634 462 643 473 635 462 627 450 634 462 626 451 636 461 627 451 619 441 626 451 618 442 627 450 618 441 609 431 618 442 608 432 619 441 608 432 597 424 608 432 596 426 608 431 596 425 586 420 596 426 585 421 597 424 585 421 574 417 585 421 573 419 586 420 573 418 585 420 573 418 "/>
    <path id="Block10Jump28"
        fill="none"
        stroke="#D8CAC6"
		stroke-width="2px"
		d="M 151 704 L 151 704 149 709 153 731 159 751 164 773 171 794 151 802 132 802 118 786 109 772 107 756 114 737 127 722 144 711 156 696 143 719 139 731 136 742 134 751 133 763 141 774 135 787 128 810 124 820 125 826 132 836 110 834 124 834 133 832 111 830 135 828 112 826 124 826 136 824 113 822 138 820 114 818 124 818 139 816 115 814 140 812 134 812 116 810 124 810 140 810 141 781 136 791 126 804 115 818 124 818 139 816 115 814 140 814 115 812 134 812 169 810 124 810 116 808 155 808 175 806 144 806 116 804 134 804 174 804 180 802 164 802 124 802 114 800 155 800 184 798 144 798 109 796 134 796 174 796 183 794 164 794 124 794 106 792 115 792 155 792 182 790 144 790 102 788 134 788 174 788 181 786 164 786 124 786 100 784 115 784 155 784 180 782 144 782 104 782 98 780 134 780 174 780 179 778 164 778 124 778 96 776 115 776 155 776 178 774 144 774 104 774 95 772 134 772 177 770 164 770 124 770 94 768 115 768 155 768 176 766 144 766 104 766 94 764 134 764 175 762 164 762 124 762 94 760 115 760 155 760 174 758 144 758 104 758 95 756 134 756 173 754 164 754 124 754 95 752 115 752 155 752 172 750 144 750 104 750 96 748 134 748 171 746 164 746 124 746 97 744 115 744 155 744 170 742 144 742 104 742 99 740 134 740 169 738 124 738 100 736 115 736 155 736 168 734 144 734 102 732 134 732 167 730 124 730 105 728 115 728 155 728 166 726 144 726 107 724 134 724 165 722 124 722 111 720 155 720 164 718 144 718 115 716 134 716 163 714 120 712 155 712 162 710 144 710 124 708 134 708 161 706 130 704 155 704 160 702 144 702 138 700 159 698 148 696 158 696 157 695 160 709 158 695 161 709 156 695 160 709 164 724 161 709 165 724 160 709 164 724 167 739 165 724 169 739 164 724 168 739 171 754 169 739 173 754 167 739 172 754 175 769 173 754 176 769 171 754 176 769 179 785 176 769 180 784 175 769 179 784 182 798 180 784 184 798 179 785 183 798 173 806 183 799 174 807 182 798 173 806 164 811 173 807 164 812 173 806 164 812 155 814 164 812 155 815 164 811 155 814 147 813 155 815 147 815 155 814 147 814 140 810 147 815 140 812 148 813 140 811 134 825 140 812 135 826 139 811 135 826 129 839 135 826 130 840 134 825 130 839 120 837 129 840 120 838 129 839 120 837 111 834 120 838 110 836 120 837 111 835 114 824 110 834 113 824 111 834 114 824 117 812 113 824 115 812 114 824 116 812 118 802 116 812 117 802 117 812 117 802 109 794 116 802 108 795 117 801 108 794 102 786 108 794 101 786 109 794 102 786 98 777 101 786 97 778 103 786 98 778 96 768 97 778 95 769 99 778 96 768 96 758 95 768 95 758 96 768 95 758 98 748 95 758 96 748 96 758 97 748 101 738 97 748 100 737 98 748 101 738 107 728 100 737 106 727 101 738 106 727 115 718 106 727 114 717 107 728 114 718 124 710 114 717 123 709 115 718 124 709 134 704 123 709 133 702 124 710 133 703 145 698 133 702 145 697 134 704 145 698 157 695 145 697 156 693 145 698 157 694 145 698 157 694 157 694 " />
    <path id="Block11Jump29"
        fill="none"
        stroke="#FFFF00"
		stroke-width="2px"
		d="M 72 565 L 72 565 67 563 56 575 58 596 63 616 68 624 74 621 80 601 82 583 72 566 80 559 66 582 70 611 70 633 70 645 60 643 75 641 58 639 64 639 79 637 57 635 82 633 75 633 55 631 64 631 85 629 53 627 87 625 75 625 52 623 64 623 88 621 50 619 84 619 90 617 75 617 49 615 64 615 91 613 54 613 48 611 84 611 92 609 75 609 47 607 64 607 93 605 54 605 46 603 84 603 93 601 75 601 45 599 64 599 94 597 54 597 44 595 84 595 94 593 75 593 44 591 64 591 95 589 54 589 43 587 84 587 95 585 75 585 43 583 64 583 93 581 54 581 43 579 84 579 92 577 75 577 43 575 64 575 90 573 54 573 44 571 88 569 75 569 45 567 64 567 86 565 54 565 49 563 84 561 75 561 52 559 64 559 82 559 73 559 60 553 75 553 80 555 54 557 82 557 80 556 76 552 79 556 75 553 80 555 75 553 71 551 75 553 71 552 75 552 71 551 66 551 71 552 66 552 71 551 66 551 61 552 66 552 62 554 66 551 61 553 55 556 62 553 56 558 61 552 55 557 48 564 56 557 49 565 55 557 49 564 44 573 49 565 45 574 48 564 44 573 44 585 45 573 45 585 44 573 44 585 45 598 45 585 47 598 44 585 46 598 48 610 47 598 49 610 45 598 49 610 52 623 49 610 54 623 48 610 53 623 57 635 54 623 58 635 52 623 57 635 62 648 58 635 64 648 57 635 63 648 72 643 63 647 71 642 64 648 72 643 78 637 71 642 77 636 72 643 78 637 84 630 77 637 83 629 78 637 83 629 88 621 83 629 87 621 84 630 87 621 91 611 87 621 90 611 88 621 90 611 93 601 90 611 92 601 91 611 92 601 94 590 92 601 93 589 93 601 94 590 94 585 93 589 93 585 95 589 94 585 92 579 93 585 91 579 94 584 92 579 87 567 91 579 86 568 92 578 86 568 81 556 86 568 80 557 87 567 81 557 87 567 81 557 81 557 " />
    <path id="Block12Jump30"
        fill="none"
        stroke="#ED171F"
		stroke-width="2px"
		d="M 48 596 L 48 596 52 602 48 596 52 602 48 596 52 602 51 594 55 600 55 592 59 598 58 590 62 595 60 587 65 592 63 585 68 590 65 582 70 587 68 579 73 584 70 576 76 581 72 574 78 578 75 571 81 575 77 567 83 571 79 564 85 568 81 561 87 565 "/>
    <path id="Block12Jump31"
        fill="none"
        stroke="#ED171F"
		stroke-width="2px"
		d="M 95 584 L 95 584 89 581 94 587 87 585 92 591 86 588 90 595 84 592 88 599 82 595 86 602 81 598 84 605 78 601 81 608 76 603 79 611 74 606 76 614 71 608 72 617 68 611 69 619 65 613 64 621 61 614 61 622 58 616 57 624 55 617 54 625 52 618 54 625 52 618 "/>
    <path id="Block12Jump32"
        fill="none"
        stroke="#ED171F"
		stroke-width="2px"
		d="M 172 99 L 172 99 183 104 172 99 183 104 173 99 184 103 172 100 183 104 196 108 183 103 196 106 183 104 196 107 209 109 196 106 209 108 196 108 209 108 220 108 209 108 220 106 209 109 220 107 230 104 219 106 229 103 220 108 230 104 239 98 229 103 238 97 230 104 238 98 250 93 238 97 249 91 239 98 249 92 261 88 249 91 261 87 249 93 261 88 273 85 261 87 273 84 261 88 273 85 286 84 273 84 286 82 273 85 286 83 299 84 286 82 299 82 286 84 299 83 312 85 300 82 312 83 299 84 312 84 324 87 312 83 325 86 312 85 325 86 338 90 325 86 338 89 324 87 338 90 351 95 338 89 351 94 338 90 351 94 362 100 351 94 362 98 351 95 362 99 367 93 362 98 366 92 363 98 367 92 373 88 366 92 372 87 367 93 372 87 380 84 372 87 379 83 373 88 380 83 388 80 379 83 388 79 380 84 388 80 399 78 388 79 398 76 388 80 398 77 410 76 398 76 409 74 398 78 410 75 421 74 410 74 421 73 410 76 421 74 410 76 421 74 421 74 " />
    <path id="Block13Jump33"
        fill="none"
        stroke="#878787"
		stroke-width="2px"
		d="M 18 188 L 18 188 29 195 18 188 29 195 18 188 29 195 31 201 32 209 35 220 38 231 41 242 47 268 54 293 61 313 63 324 70 349 77 374 84 399 91 424 98 449 105 474 112 499 119 524 126 549 133 574 140 599 147 624 154 649 161 674 168 699 171 712 175 726 179 741 183 754 187 769 192 784 185 792 179 798 208 796 178 794 207 792 195 792 177 790 184 790 206 788 175 786 205 784 195 784 174 782 184 782 204 780 173 778 203 776 195 776 172 774 184 774 201 772 171 770 200 768 170 766 184 766 199 764 174 764 169 762 198 760 168 758 184 758 197 756 174 756 167 754 196 752 166 750 184 750 195 748 174 748 165 746 194 744 164 742 184 742 193 740 174 740 163 738 191 736 161 734 184 734 190 732 174 732 160 730 189 728 159 726 188 724 174 724 158 722 164 722 187 720 157 718 186 716 174 716 156 714 164 714 185 712 155 710 184 708 174 708 154 706 164 706 183 704 153 702 181 700 174 700 152 698 164 698 180 696 151 694 179 692 150 690 164 690 178 688 155 688 149 686 177 684 147 682 164 682 176 680 155 680 146 678 175 676 145 674 164 674 174 672 155 672 144 670 173 668 143 666 164 666 171 664 155 664 142 662 170 660 141 658 164 658 169 656 155 656 140 654 168 652 139 650 167 648 155 648 138 646 144 646 166 644 137 642 165 640 155 640 136 638 144 638 164 636 135 634 162 632 155 632 134 630 144 630 161 628 133 626 160 624 131 622 144 622 159 620 130 618 158 616 129 614 144 614 157 612 134 612 128 610 156 608 127 606 144 606 155 604 134 604 126 602 154 600 125 598 144 598 152 596 134 596 124 594 151 592 123 590 144 590 150 588 134 588 122 586 149 584 121 582 148 580 134 580 120 578 147 576 119 574 146 572 134 572 117 570 124 570 145 568 116 566 143 564 134 564 115 562 124 562 142 560 114 558 141 556 134 556 113 554 124 554 140 552 112 550 139 548 111 546 124 546 138 544 115 544 110 542 137 540 109 538 124 538 136 536 115 536 108 534 135 532 107 530 124 530 134 528 115 528 106 526 132 524 105 522 124 522 131 520 115 520 104 518 130 516 103 514 124 514 129 512 115 512 101 510 128 508 100 506 127 504 115 504 99 502 126 500 98 498 125 496 115 496 97 494 104 494 123 492 96 490 122 488 115 488 95 486 104 486 121 484 94 482 120 480 93 478 104 478 119 476 92 474 118 472 91 470 104 470 117 468 90 466 116 464 89 462 104 462 115 460 94 460 87 458 113 456 86 454 104 454 112 452 94 452 85 450 111 448 84 446 104 446 110 444 94 444 83 442 109 440 82 438 108 436 94 436 81 434 107 432 80 430 106 428 94 428 79 426 104 424 78 422 103 420 94 420 77 418 84 418 102 416 76 414 101 412 94 412 75 410 84 410 100 408 73 406 99 404 72 402 84 402 98 400 71 398 97 396 70 394 84 394 96 392 75 392 69 390 94 388 68 386 84 386 93 384 75 384 67 382 92 380 66 378 84 378 91 376 75 376 65 374 90 372 64 370 84 370 89 368 75 368 63 366 88 364 62 362 87 360 75 360 61 358 85 356 60 354 84 352 75 352 59 350 83 348 57 346 82 344 75 344 56 342 64 342 81 340 55 338 80 336 54 334 64 334 79 332 53 330 78 328 52 326 64 326 77 324 51 322 76 320 50 318 64 318 74 316 54 316 49 314 73 312 48 310 64 310 72 308 54 308 47 306 71 304 46 302 64 302 70 300 54 300 45 298 69 296 43 294 68 292 54 292 42 290 67 288 41 286 65 284 54 284 40 282 64 280 39 278 63 276 54 276 38 274 44 274 62 272 37 270 61 268 54 268 36 266 44 266 60 264 35 262 59 260 34 258 44 258 58 256 33 254 57 252 32 250 44 250 55 248 31 246 54 244 29 242 44 242 53 240 35 240 28 238 52 236 27 234 44 234 51 232 35 232 26 230 50 228 25 226 44 226 49 224 35 224 24 222 48 220 23 218 46 216 35 216 22 214 45 212 21 210 44 208 35 208 20 206 43 204 19 202 42 200 35 200 18 198 24 198 41 196 17 194 40 192 16 190 24 190 39 190 31 191 38 184 18 186 39 188 15 188 16 188 19 202 17 188 21 202 16 189 20 202 23 217 21 202 24 216 19 202 24 216 27 230 24 216 28 230 23 217 27 230 31 245 28 230 32 244 27 230 31 244 35 259 32 244 36 259 31 245 35 259 38 274 36 259 40 273 35 259 39 273 42 288 40 273 44 288 38 274 43 288 46 302 44 288 47 301 42 288 47 301 50 316 47 301 51 316 46 302 50 316 54 331 51 316 55 330 50 316 54 330 58 345 55 330 59 345 54 331 58 345 61 359 59 345 63 358 58 345 62 358 65 373 62 358 66 373 61 359 66 373 69 388 66 373 70 387 65 373 70 387 73 402 70 387 74 402 69 388 73 402 77 417 74 402 78 416 73 402 77 416 80 430 78 416 82 430 77 417 81 430 84 445 82 430 86 444 80 430 85 444 88 459 86 444 89 459 84 445 89 459 92 473 89 459 93 473 88 459 93 473 96 488 93 473 97 488 92 473 97 488 100 502 97 488 101 501 96 488 100 501 103 516 101 501 105 516 100 502 104 516 107 531 105 516 109 530 103 516 108 530 111 545 109 530 113 545 107 531 112 545 115 559 112 545 116 559 111 545 116 559 119 573 116 559 120 573 115 559 119 573 123 587 120 573 124 587 119 573 123 587 126 602 124 587 128 602 123 587 127 602 130 616 128 602 132 616 126 602 131 616 134 631 132 616 136 631 130 616 135 631 138 644 136 631 139 644 134 631 138 644 142 659 139 644 143 659 138 644 142 659 146 673 143 659 147 673 142 659 146 673 150 688 147 673 151 688 146 673 150 688 153 701 151 688 154 701 150 688 154 701 157 716 154 701 158 716 153 701 158 716 161 730 158 716 162 730 157 716 162 730 165 745 162 730 166 745 161 730 165 745 169 759 166 745 170 759 165 745 169 759 172 773 170 759 174 773 169 759 173 773 176 787 174 773 178 787 172 773 177 787 180 801 177 787 181 801 176 787 181 801 195 800 182 800 194 798 182 802 194 799 208 798 194 798 207 796 195 800 207 797 204 783 207 796 203 783 208 796 203 783 200 768 203 783 199 769 204 783 199 768 196 754 199 768 195 754 200 768 195 754 192 740 195 754 191 741 196 754 192 740 188 726 191 741 187 726 192 740 188 726 184 711 187 726 183 712 188 726 184 711 180 697 183 712 179 697 184 711 180 697 176 682 179 697 175 683 180 697 176 683 172 668 175 683 171 668 176 682 171 668 168 653 171 668 167 654 172 668 167 654 164 640 167 654 163 640 168 653 164 640 160 626 163 640 159 626 164 640 160 626 156 611 159 626 155 611 160 626 156 611 152 597 155 611 151 597 156 611 152 597 148 582 151 597 147 583 152 597 148 582 144 568 147 583 143 568 148 582 144 568 140 553 143 568 139 554 144 568 140 553 136 540 139 554 135 540 140 553 136 540 132 525 135 540 131 526 136 540 132 526 128 511 131 526 127 511 132 525 128 511 124 496 127 511 123 497 128 511 124 497 120 482 123 497 119 482 124 496 120 482 116 468 119 482 115 468 120 482 116 468 112 453 115 468 111 453 116 468 112 453 108 439 111 453 107 439 112 453 108 439 104 425 107 439 103 426 108 439 104 425 100 411 103 426 99 411 104 425 100 411 96 396 99 411 95 397 100 411 96 396 92 382 95 397 91 382 96 396 92 382 88 367 91 382 87 368 92 382 88 368 84 353 87 368 83 353 88 367 84 353 80 338 83 353 79 339 84 353 80 339 77 325 79 339 75 325 80 338 76 325 72 311 75 325 71 311 77 325 72 311 68 296 71 311 67 296 72 311 68 296 64 282 67 296 63 282 68 296 64 282 60 267 63 282 59 268 64 282 60 267 56 253 59 268 55 253 60 267 56 253 52 238 55 253 51 239 56 253 52 239 49 225 51 239 47 225 52 238 48 225 45 210 47 225 43 211 49 225 44 211 41 196 43 211 39 196 45 210 40 196 37 182 39 196 35 182 41 196 36 182 26 184 35 183 26 185 35 182 26 185 16 187 26 185 16 188 26 184 16 187 26 184 16 187 "/>
    <path id="Block13Jump34"
        fill="none"
        stroke="#878787"
		stroke-width="2px"
		d="M 574 581 L 574 581 573 594 574 581 573 594 574 581 573 594 568 613 563 632 560 642 567 647 584 651 604 648 622 640 629 638 622 631 612 613 602 595 598 584 580 585 588 611 595 587 597 580 603 585 604 611 605 635 606 653 587 636 567 620 563 617 591 625 585 632 572 637 540 643 542 649 544 639 546 652 548 633 548 645 550 654 550 636 552 624 554 656 556 611 556 645 558 658 558 636 560 594 560 626 562 660 562 616 564 584 564 605 564 645 566 660 566 636 566 596 566 584 589 605 591 622 598 629 614 635 638 633 636 645 634 627 632 648 632 626 630 620 630 636 628 651 628 645 626 613 624 653 624 626 622 605 622 636 620 655 620 645 620 605 618 598 618 616 616 657 616 626 614 590 614 596 614 636 612 659 612 645 612 605 610 582 610 616 610 656 608 661 608 626 608 586 606 574 606 596 606 636 604 662 604 645 604 605 602 572 602 616 602 656 600 663 600 626 600 586 598 572 598 596 598 636 596 664 596 645 596 605 594 572 594 616 594 656 592 664 592 626 592 586 590 572 590 596 590 636 588 664 588 645 588 605 586 572 586 616 586 656 584 664 584 626 584 586 582 572 582 596 582 636 580 664 580 645 580 605 578 572 578 616 578 656 576 664 576 626 576 586 574 572 574 596 574 636 572 663 572 645 572 605 570 572 570 616 570 656 568 662 568 626 568 586 566 572 566 596 566 636 564 661 564 645 564 605 564 572 564 574 561 588 565 575 563 588 563 574 562 588 559 601 562 588 560 601 561 588 559 601 555 615 560 601 556 615 559 601 556 615 551 627 556 615 552 627 555 615 552 627 546 637 552 628 547 638 551 627 546 638 542 642 547 638 543 643 546 637 542 642 538 644 543 643 538 646 542 642 538 645 548 653 539 645 549 652 538 646 548 652 560 659 549 652 560 657 548 653 560 658 572 663 560 657 572 661 560 659 572 662 584 664 572 661 584 663 572 663 584 663 596 663 584 663 596 662 584 664 596 663 608 660 595 662 608 659 596 663 608 660 620 655 607 659 619 654 608 660 620 654 631 648 619 654 630 647 620 655 631 648 642 640 630 647 641 639 631 648 641 640 634 626 640 639 632 627 641 638 633 627 626 614 632 627 625 614 634 626 626 614 619 600 625 614 618 601 626 614 618 600 612 587 618 601 611 588 619 600 612 587 606 573 611 588 604 574 612 587 605 573 591 573 604 574 591 574 604 573 591 573 578 573 591 574 578 574 591 573 578 573 564 573 578 574 564 574 578 573 564 573 576 573 564 573 564 573 " />
    <path id="Block14Jump35"
        fill="none"
        stroke="#000000"
		stroke-width="2px"
		d="M 140 703 L 140 703 132 694 140 703 128 690 143 702 124 682 139 695 119 672 134 686 117 665 130 679 113 655 126 670 111 647 123 663 109 636 120 653 109 628 118 645 109 617 116 635 109 610 116 628 111 599 116 618 113 591 116 610 117 581 118 600 120 574 120 593 124 574 107 568 126 572 99 562 118 568 93 554 111 563 88 546 104 557 85 537 99 550 83 528 94 542 82 520 92 536 82 509 90 527 83 500 89 518 85 490 89 509 87 480 90 500 90 471 92 491 94 473 76 468 95 470 67 462 86 466 61 456 79 462 54 449 72 457 49 441 65 450 46 434 60 445 42 424 55 438 41 414 51 430 41 404 49 422 42 395 48 412 44 387 48 405 47 377 49 397 51 368 52 387 54 361 54 380 59 351 57 371 63 353 45 348 64 351 37 341 55 346 32 335 49 342 27 327 42 337 23 318 37 331 21 309 32 323 21 301 30 317 22 290 29 308 25 280 28 300 28 271 30 290 31 264 31 283 35 254 34 274 39 256 36 267 39 256 "/>
    <path id="Block14Jump36"
        fill="none"
        stroke="#000000"
		stroke-width="2px"
		d="M 119 430 L 119 430 111 439 119 430 107 444 118 427 99 451 111 433 89 459 101 440 88 455 96 475 85 457 93 476 104 462 95 478 112 456 103 472 117 452 108 468 125 446 116 462 127 449 119 458 127 449 "/>
    <path id="Block14Jump37"
        fill="none"
        stroke="#000000"
		stroke-width="2px"
		d="M 94 478 L 94 478 101 488 94 478 102 490 91 479 104 497 93 485 101 499 111 484 105 501 116 478 109 495 123 471 116 488 128 466 121 483 131 468 124 478 131 468 "/>
    <path id="Block14Jump38"
        fill="none"
        stroke="#000000"
		stroke-width="2px"
		d="M 118 799 L 118 799 118 787 118 799 118 781 122 802 120 768 124 790 121 759 125 780 123 749 127 771 125 738 129 759 128 740 144 739 129 743 151 740 135 744 151 743 150 763 147 744 149 772 145 752 147 782 143 762 145 790 142 770 143 801 140 781 142 809 138 789 138 809 138 797 138 809 "/>
    <path id="Block14Jump39"
        fill="none"
        stroke="#000000"
		stroke-width="2px"
		d="M 567 504 L 567 504 567 496 567 504 567 496 567 504 567 496 559 487 576 489 564 489 556 491 578 493 556 495 578 497 564 497 556 499 577 501 558 503 575 503 558 503 575 503 558 503 575 503 "/>
    <path id="Block14Jump40"
        fill="none"
        stroke="#000000"
		stroke-width="2px"
		d="M 605 503 L 605 503 606 495 605 503 606 495 605 503 606 495 613 486 596 488 604 488 616 490 594 492 617 494 594 496 604 496 616 498 595 500 614 502 597 502 614 502 597 502 614 502 597 502 "/>
    <path id="Block14Jump41"
        fill="none"
        stroke="#000000"
		stroke-width="2px"
		d="M 551 512 L 551 512 546 516 553 514 549 518 555 516 551 521 558 518 555 523 561 520 558 525 564 521 561 527 566 522 566 528 568 522 569 528 571 521 574 526 573 520 577 524 575 518 579 521 576 515 582 518 578 512 583 515 "/>
    <path id="Block14Jump42"
        fill="none"
        stroke="#000000"
		stroke-width="2px"
		d="M 599 511 L 599 511 594 515 601 514 597 518 604 517 599 521 606 519 602 524 609 521 606 526 611 522 610 528 613 522 614 528 615 521 618 526 617 519 621 523 618 517 623 521 620 514 626 517 621 511 627 514 "/>
    <path id="Block14Jump43"
        fill="none"
        stroke="#000000"
		stroke-width="2px"
		d="M 548 572 L 548 572 560 570 548 572 566 568 547 575 577 568 557 575 587 568 567 575 597 568 577 575 607 568 587 575 617 568 597 575 627 568 608 575 627 572 615 574 627 572 "/>
    <path id="Block14Jump44"
        fill="none"
        stroke="#000000"
		stroke-width="2px"
		d="M 576 603 L 576 603 577 591 576 603 578 585 579 605 581 574 582 595 584 576 576 579 594 576 600 594 591 577 601 603 592 585 597 604 594 593 597 604 " />
</svg>
