<?xml version="1.0" encoding="UTF-8" standalone="no"?>
<svg xmlns="http://www.w3.org/2000/svg" version="1.1" width="908" height="808">
    <path id="Block1Jump0"
        fill="none"
        stroke="#2584BB"
		stroke-width="2px"
		d="M 93 162 L 93 162 80 163 93 162 80 163 93 162 80 163 66 165 53 167 41 171 29 178 19 187 14 200 15 213 22 224 33 232 45 237 59 239 72 240 86 239 99 236 112 232 123 226 134 218 144 209 152 198 157 186 159 172 159 166 159 180 155 192 149 204 139 214 129 222 117 229 105 234 92 238 78 239 65 240 52 238 39 235 27 229 18 219 14 206 16 193 24 182 35 174 47 169 60 166 73 163 87 162 94 162 105 161 104 165 102 158 100 166 98 158 96 166 94 158 93 167 90 158 89 167 86 158 85 167 82 158 82 168 78 158 78 168 73 158 74 168 69 159 71 169 65 159 67 170 61 160 64 171 57 160 60 172 53 161 57 172 49 162 54 174 45 163 51 175 42 164 48 176 38 165 45 178 34 166 42 179 30 167 40 181 26 169 38 183 22 171 36 185 19 173 34 186 15 175 33 188 12 178 31 190 9 181 30 192 6 184 29 194 4 188 29 196 2 191 28 198 1 195 28 200 1 199 27 202 0 203 27 204 1 207 27 206 1 211 27 208 2 215 27 210 5 219 28 212 7 223 28 214 9 226 29 216 13 229 30 218 16 232 31 220 19 234 33 222 23 236 34 224 27 238 37 226 31 239 39 227 35 240 42 229 39 241 45 230 43 242 47 231 47 243 50 232 51 244 54 234 55 244 57 234 59 244 60 234 63 244 64 235 67 245 67 235 71 244 71 235 75 244 75 235 79 244 78 235 83 244 82 235 87 243 86 234 91 242 89 233 95 241 93 233 99 241 97 232 103 240 100 231 107 238 103 230 111 237 107 228 115 236 110 227 118 234 114 225 122 232 117 223 126 231 120 222 129 229 123 220 133 227 126 218 136 224 129 215 139 222 131 213 143 220 133 210 146 217 136 208 149 215 138 205 152 212 140 203 155 209 141 200 157 206 143 198 160 203 144 195 162 199 145 192 164 196 146 190 166 192 146 187 168 188 147 184 169 185 147 181 170 181 147 179 171 177 147 176 171 172 147 173 171 168 147 171 171 164 146 168 170 160 146 166 170 156 145 164 169 153 144 162 156 155 143 136 128 120 111 102 96 85 86 65 88 43 102 25 122 12 143 6 166 6 185 15 192 34 177 52 156 58 134 61 145 59 159 58 172 54 183 48 192 37 193 25 187 15 175 8 162 6 148 6 135 8 122 12 110 18 99 27 91 37 86 50 86 63 90 76 98 87 106 98 115 107 125 117 134 127 144 136 152 148 145 137 135 128 126 118 116 108 107 99 99 89 91 78 86 65 86 52 90 39 98 28 108 19 120 13 133 9 146 6 159 6 172 8 185 13 192 23 192 36 184 47 173 54 160 57 145 59 135 63 132 59 139 63 135 56 143 64 139 55 147 64 144 55 151 63 148 54 155 63 152 54 160 63 156 53 164 62 159 52 168 61 162 51 172 60 166 50 176 59 169 49 180 58 171 47 184 56 174 45 188 54 176 43 191 52 177 42 195 49 179 40 198 46 180 38 201 43 180 36 203 40 185 35 204 36 181 33 205 32 181 31 205 28 181 29 204 24 184 27 203 20 181 26 201 16 181 25 198 13 180 23 195 10 179 21 192 7 178 19 188 6 176 18 184 4 175 16 179 3 172 15 175 2 170 14 171 1 167 13 167 1 164 12 163 1 160 11 159 0 157 11 155 1 154 11 151 1 150 11 147 1 147 11 142 2 143 11 138 2 140 12 134 3 136 13 131 4 133 13 127 5 130 14 123 6 126 15 119 8 123 17 115 9 120 19 111 11 117 21 108 13 114 22 104 14 112 24 101 17 110 26 98 19 108 28 94 21 106 31 91 24 104 33 88 27 102 35 85 30 101 38 83 33 99 40 80 37 99 43 78 40 98 46 77 44 97 48 75 48 97 51 74 52 97 53 74 56 97 56 73 60 97 58 74 64 98 61 74 68 98 63 75 72 99 65 76 76 100 68 78 80 101 70 80 84 103 72 82 87 104 75 84 90 106 77 86 94 108 80 89 97 110 82 91 100 112 85 94 103 114 87 97 106 116 90 99 109 119 93 102 112 121 95 105 115 124 98 108 118 127 101 110 120 129 103 113 123 132 106 116 126 134 109 119 129 137 111 121 131 140 114 124 134 143 117 127 136 146 120 129 139 148 123 132 141 151 126 134 144 154 129 136 146 157 132 137 149 159 135 139 151 161 138 141 154 164 142 142 157 165 145 143 159 167 149 144 161 168 152 157 157 146 161 157 157 168 152 "/>
    <path id="Block1Jump1"
        fill="none"
        stroke="#2584BB"
		stroke-width="2px"
		d="M 203 139 L 203 139 214 135 203 139 221 132 234 115 245 96 257 79 251 84 246 91 244 99 241 107 239 116 236 126 238 118 241 110 243 101 246 93 251 84 260 79 258 76 259 83 253 77 259 87 248 78 258 90 243 79 257 93 239 82 256 96 237 85 255 99 235 89 255 102 234 93 254 105 233 97 253 108 232 100 252 111 231 104 251 114 230 108 250 117 228 112 249 120 227 115 249 123 226 119 248 126 225 123 247 130 224 127 246 133 223 131 246 135 222 135 231 135 216 135 201 137 211 135 217 136 211 135 201 136 202 139 203 131 206 140 207 130 209 140 211 130 212 141 216 130 216 141 220 130 219 141 224 131 222 141 228 131 225 142 244 135 261 135 263 133 253 135 245 135 236 135 232 140 229 148 227 156 224 164 222 173 220 181 217 189 215 198 213 206 211 214 210 223 213 231 220 236 228 236 236 233 243 229 250 223 256 217 262 211 267 205 272 198 277 191 283 184 278 190 273 197 268 204 262 210 256 217 250 223 244 228 237 233 229 236 221 236 213 232 210 224 211 216 212 208 214 200 217 191 219 183 222 174 224 166 226 158 229 149 231 141 235 136 243 135 254 135 263 132 262 138 259 130 259 140 255 130 257 140 251 130 254 140 246 130 252 141 241 129 249 141 236 129 246 141 230 129 243 141 224 129 242 144 222 132 242 147 220 136 241 150 219 140 240 152 218 144 239 155 217 148 238 158 216 152 237 162 215 156 237 165 213 160 236 168 212 164 235 172 211 168 233 175 210 172 232 179 209 175 231 183 208 179 230 186 207 183 229 190 206 187 228 193 205 191 227 197 204 195 226 201 202 199 225 204 201 203 224 207 201 206 223 211 200 210 223 213 199 214 222 216 199 219 222 218 198 223 217 220 199 226 221 221 200 230 221 223 202 234 221 224 204 237 216 229 208 240 222 227 212 242 223 228 216 243 225 229 221 243 226 230 225 243 229 230 230 242 231 230 234 240 234 229 238 238 236 228 241 235 239 226 245 233 242 224 248 231 245 222 252 228 247 220 255 225 250 217 257 222 252 215 260 219 254 212 263 216 257 210 266 213 259 207 268 210 262 204 271 207 264 201 273 204 267 198 276 200 269 195 278 197 272 192 281 194 274 189 283 191 276 185 286 188 278 182 288 184 281 179 290 181 283 176 292 178 285 173 290 174 303 151 304 147 299 153 305 152 296 156 304 156 295 159 303 160 293 162 301 164 291 165 299 168 289 168 297 171 287 170 295 175 285 173 293 178 285 173 293 178 285 173 293 178 "/>
    <path id="Block1Jump2"
        fill="none"
        stroke="#2584BB"
		stroke-width="2px"
		d="M 293 177 L 293 177 303 177 293 177 303 177 312 151 319 127 312 127 317 134 314 143 312 151 309 160 306 169 303 178 300 186 297 195 294 204 291 213 290 222 292 231 299 235 308 234 316 229 323 223 330 217 336 210 342 203 348 195 353 188 359 181 364 173 369 166 364 173 359 181 353 189 347 196 342 203 336 211 329 217 323 224 316 229 308 234 299 235 291 230 290 221 292 212 294 204 297 195 300 186 303 177 306 168 309 160 312 151 315 142 317 134 311 127 328 124 308 129 331 128 307 131 330 132 305 134 329 136 305 137 327 140 304 140 326 144 303 142 325 147 301 146 323 151 300 149 322 155 299 153 321 159 298 156 320 163 297 160 318 167 296 163 317 170 295 167 316 174 293 171 314 178 292 175 313 181 291 178 312 185 290 182 311 188 288 186 310 192 287 189 308 196 286 193 307 199 285 197 306 203 284 201 305 206 282 205 304 210 281 209 303 212 280 212 302 215 279 217 298 217 278 221 302 219 278 225 301 220 279 229 301 222 279 233 294 226 281 237 301 224 284 240 302 225 288 242 303 226 293 242 302 230 298 243 305 228 303 241 308 228 307 240 310 227 312 238 313 226 316 235 315 224 320 232 318 222 323 229 320 219 327 226 323 218 330 223 325 215 333 220 327 213 336 217 330 210 338 214 332 208 341 211 335 205 343 208 337 202 346 205 339 199 348 202 342 196 351 199 344 193 353 196 347 190 355 193 349 187 358 189 351 184 360 186 354 180 362 184 356 177 364 181 359 174 366 178 361 170 368 175 364 166 370 172 367 162 372 169 370 158 375 168 373 154 377 168 377 154 383 159 392 140 406 124 397 132 392 139 388 148 384 156 382 165 380 175 377 183 374 192 371 201 369 210 367 218 368 227 374 234 383 235 391 231 398 225 405 219 414 209 408 215 401 222 394 228 387 233 378 235 370 231 367 222 368 213 370 205 373 196 376 187 379 178 381 169 383 160 387 152 390 143 397 131 407 125 404 123 407 130 398 124 405 134 393 125 404 138 389 126 403 141 386 129 402 143 383 132 401 146 381 135 400 149 379 139 399 153 378 142 398 156 376 146 397 159 374 149 396 163 372 153 394 166 372 157 393 170 371 161 392 173 371 165 391 177 370 169 390 180 369 173 388 184 368 177 387 187 366 180 386 191 365 184 385 194 364 188 384 198 363 192 382 201 361 196 381 205 360 199 381 207 359 203 380 210 358 207 379 213 357 211 379 215 356 215 378 217 355 219 374 219 355 223 378 220 356 227 378 222 357 231 378 223 359 235 373 229 362 238 379 225 365 241 380 226 369 242 381 227 373 243 383 228 378 242 385 228 382 241 388 227 387 239 391 225 391 236 393 223 395 233 396 221 399 230 398 219 402 228 401 216 405 225 403 214 408 222 405 211 411 219 408 209 414 216 410 206 416 213 413 203 419 210 415 200 421 207 417 197 424 204 421 200 433 184 446 166 455 148 456 144 451 150 458 149 449 154 457 153 447 156 455 157 445 159 453 161 443 162 451 165 441 165 449 168 439 168 447 172 437 171 445 175 435 174 443 178 433 177 441 182 430 180 438 185 428 183 436 188 426 186 433 191 424 189 431 195 422 192 429 198 420 194 426 201 418 197 424 204 418 197 424 204 418 197 424 204 "/>
    <path id="Block1Jump3"
        fill="none"
        stroke="#2584BB"
		stroke-width="2px"
		d="M 424 202 L 424 202 428 193 424 202 428 193 449 193 458 171 464 146 470 123 476 98 483 74 490 51 499 29 506 33 498 33 494 42 490 51 487 61 484 70 482 79 479 89 476 98 474 108 471 118 469 127 466 137 464 145 467 135 469 126 472 116 474 107 477 97 479 87 482 78 485 69 488 59 491 50 494 41 498 32 506 34 505 19 504 34 501 20 501 35 497 23 500 38 495 28 499 42 493 32 498 45 491 37 497 47 489 40 496 50 487 44 496 54 485 48 495 57 484 52 494 61 482 56 493 64 481 60 492 68 479 63 491 72 478 67 490 76 476 71 489 79 475 75 489 83 474 79 488 87 472 82 487 91 471 86 486 94 470 90 485 98 469 94 484 102 467 97 484 106 466 101 483 110 465 105 482 114 464 109 481 118 463 113 480 122 462 117 479 126 460 121 478 129 459 125 478 132 458 129 477 136 457 133 476 139 456 136 475 142 455 140 475 144 454 144 474 147 453 149 474 149 453 153 475 152 453 156 462 157 457 178 446 196 427 193 429 188 433 198 430 187 421 197 434 187 422 202 436 189 425 205 439 190 429 207 441 192 432 209 443 193 436 211 446 194 440 212 448 194 443 214 447 215 442 235 436 257 432 279 429 300 431 321 434 323 448 310 457 290 460 267 458 245 456 225 457 242 459 252 460 262 460 272 459 282 457 291 453 301 448 309 443 317 436 324 431 326 429 316 429 306 429 296 430 286 432 276 434 266 436 257 439 247 441 238 445 228 447 220 444 230 441 239 438 248 436 258 434 267 432 277 430 287 429 297 429 307 429 316 431 326 439 321 446 313 451 305 455 296 458 286 460 277 460 267 460 257 458 247 457 241 456 232 456 224 451 237 458 230 452 240 460 235 453 243 461 239 453 245 462 244 454 248 463 248 454 251 464 252 455 254 464 256 455 258 465 259 455 261 465 263 455 264 465 268 455 267 465 272 455 271 465 276 455 275 464 280 454 278 464 284 454 282 463 288 453 285 462 292 452 289 461 295 451 292 460 299 450 295 458 303 448 298 457 307 447 301 455 311 445 303 452 314 444 305 451 318 442 307 448 321 441 309 445 325 440 310 442 328 439 315 438 331 437 313 434 335 436 315 430 337 434 316 427 332 432 317 425 325 433 313 425 319 433 309 424 314 434 307 424 309 434 304 424 304 434 301 424 300 434 298 424 296 435 296 424 293 435 293 424 288 436 289 425 284 437 286 425 280 437 282 425 276 438 279 426 272 439 275 427 268 440 271 427 265 441 268 428 261 442 264 428 257 443 260 429 253 445 257 430 249 446 253 431 245 447 249 431 241 448 246 432 237 450 242 433 233 451 239 434 230 452 235 435 226 454 232 436 222 455 228 437 218 456 224 438 214 455 220 438 210 455 217 439 207 456 214 448 208 454 187 460 165 475 150 489 133 500 113 508 92 512 69 512 47 510 24 512 4 511 14 510 24 510 34 512 44 512 53 512 64 511 74 510 83 507 93 504 103 500 112 496 121 491 130 486 138 479 146 471 152 463 157 459 166 457 176 455 186 452 195 451 209 460 213 469 217 479 218 489 217 498 214 507 209 514 203 522 195 528 188 534 180 540 172 545 164 551 154 546 163 540 171 534 179 528 187 522 195 515 202 508 209 499 214 490 217 480 218 470 217 461 214 450 206 452 196 455 186 457 177 459 167 462 158 470 152 479 147 485 139 490 130 496 122 500 113 504 104 507 94 510 84 511 75 512 65 512 54 512 45 510 35 510 25 511 13 512 3 514 5 509 6 516 9 506 10 517 12 503 13 518 15 501 17 519 19 500 21 520 23 499 25 520 26 500 29 520 30 500 33 520 33 501 37 520 37 502 41 520 41 503 45 520 45 504 49 520 48 505 52 520 53 505 56 520 57 506 60 520 61 506 64 519 65 506 68 518 69 506 71 518 73 505 75 517 76 505 79 516 80 505 83 515 84 504 86 514 88 503 90 513 92 502 93 511 96 502 96 510 99 500 100 509 103 499 103 507 107 498 107 506 111 496 110 504 114 495 114 502 118 493 117 501 121 491 121 499 125 489 124 497 128 487 127 495 132 485 131 493 135 483 134 490 139 481 137 488 142 478 140 486 145 476 143 484 148 473 146 482 151 468 147 479 154 462 149 477 157 457 150 474 160 452 151 471 163 451 156 470 165 450 160 469 168 449 164 469 171 448 167 468 174 447 171 467 178 446 175 467 181 445 179 466 184 444 183 465 187 444 187 465 190 443 191 464 192 442 195 463 194 441 199 463 196 440 204 462 199 439 208 461 201 438 212 461 203 443 214 461 205 448 216 463 206 452 218 465 207 456 220 467 208 460 222 469 209 464 223 471 210 468 225 473 211 472 225 476 211 477 225 479 211 481 225 481 212 485 225 484 212 489 224 487 211 493 222 490 211 497 221 494 211 500 220 496 209 503 217 499 208 507 215 502 206 510 213 505 205 513 210 508 202 516 207 511 200 519 204 513 198 522 201 516 195 525 198 519 192 527 195 521 189 530 192 523 186 532 189 526 183 535 186 528 180 537 183 530 177 540 180 533 174 542 176 535 171 544 173 537 169 546 170 539 166 549 167 541 163 551 163 543 160 553 160 545 157 555 156 547 154 556 152 549 151 556 148 551 149 556 144 552 148 "/>
    <path id="Block1Jump4"
        fill="none"
        stroke="#2584BB"
		stroke-width="2px"
		d="M 553 148 L 553 148 562 146 553 148 562 146 568 122 575 98 581 73 589 50 597 29 604 33 596 33 592 42 588 51 585 61 582 70 580 79 577 89 574 98 572 108 569 118 567 127 564 137 562 145 565 135 567 126 570 116 572 107 575 97 577 87 580 78 583 69 586 59 589 50 592 41 596 32 604 34 603 19 602 34 599 20 599 35 595 23 598 38 593 28 597 42 591 32 596 45 589 37 595 47 587 40 594 50 585 44 594 54 583 48 593 57 582 52 592 61 580 56 591 64 579 60 590 68 577 63 589 72 576 67 588 76 574 71 587 79 573 75 587 83 572 79 586 87 570 82 585 91 569 86 584 94 568 90 583 98 567 94 582 102 565 97 582 106 564 101 581 110 563 105 580 114 562 109 579 118 561 113 578 122 560 117 577 126 558 121 576 129 557 125 576 132 556 129 575 136 555 133 574 139 554 136 573 142 553 140 573 144 552 144 572 147 551 149 572 149 551 153 573 152 551 156 560 157 555 178 544 196 525 193 527 188 531 198 528 187 519 197 532 187 520 202 534 189 523 205 537 190 527 207 539 192 530 209 541 193 534 211 544 194 538 212 546 194 541 214 545 215 540 235 534 257 530 279 527 300 529 321 532 323 546 310 555 290 558 267 556 245 554 225 555 242 557 252 558 262 558 272 557 282 555 291 551 301 546 309 541 317 529 326 527 316 527 306 527 296 528 286 530 276 532 266 534 257 537 247 539 238 543 229 545 220 542 230 539 239 537 248 534 258 532 267 530 277 528 287 527 297 527 307 527 316 529 326 536 321 543 314 549 306 553 297 556 287 558 278 558 268 558 258 556 248 555 241 554 232 554 224 549 237 556 230 550 240 558 235 551 243 559 239 551 245 560 244 552 248 561 248 552 251 562 252 553 254 562 256 553 258 563 259 553 261 563 263 553 264 563 268 553 268 563 272 553 271 563 276 553 275 562 280 552 278 562 284 552 282 561 288 551 285 560 292 550 289 559 296 549 292 558 299 548 295 556 303 546 298 555 307 545 300 553 311 543 303 550 314 542 305 549 318 540 307 546 321 539 309 543 325 538 310 540 328 537 315 536 332 535 313 532 335 534 315 528 337 532 316 525 332 530 317 523 325 531 313 523 319 531 309 522 313 532 307 522 309 532 304 522 304 532 301 522 300 532 298 522 296 533 296 522 292 533 293 522 288 534 289 523 284 535 286 523 280 535 282 523 276 536 279 524 272 537 275 525 268 538 271 525 264 539 267 526 260 540 264 526 256 541 260 527 252 543 257 528 249 544 253 529 245 545 249 530 241 546 246 530 237 548 242 531 233 549 239 532 229 550 235 533 226 552 232 534 222 553 228 535 218 554 224 536 214 553 220 536 210 553 217 537 206 555 214 575 218 598 214 615 200 630 183 644 163 653 144 654 149 647 151 654 153 647 152 653 157 645 154 651 160 643 157 649 163 641 160 647 167 639 162 644 170 637 165 642 173 636 168 640 176 634 170 635 175 622 193 606 209 585 218 564 214 553 194 556 172 569 155 584 137 596 117 605 95 610 72 610 49 608 25 610 4 609 14 608 24 608 34 610 44 610 53 610 64 609 74 608 83 605 93 602 103 598 112 594 121 589 130 584 138 577 146 569 152 561 157 557 166 555 176 553 186 550 195 549 209 558 213 567 217 577 218 587 217 597 214 605 209 613 202 620 195 626 187 630 182 624 190 618 197 611 204 603 210 594 215 585 218 575 218 565 216 556 212 547 207 550 197 552 187 555 178 557 168 559 158 567 153 576 148 582 140 588 132 593 123 597 115 601 106 605 96 607 86 609 77 610 67 611 56 610 47 609 37 608 27 609 13 610 3 612 5 607 6 614 9 604 10 615 12 601 13 616 15 599 17 617 19 598 21 618 23 597 25 618 26 598 29 618 30 598 33 618 33 599 37 618 37 600 41 618 41 601 45 618 45 602 49 618 48 603 52 618 53 603 56 618 57 604 60 618 61 604 64 617 65 604 68 616 69 604 71 616 73 603 75 615 76 603 79 614 80 603 83 613 84 602 86 612 88 601 90 611 92 600 93 609 96 599 97 608 100 598 100 607 104 597 104 605 107 596 107 604 111 594 111 602 115 592 114 600 118 591 118 598 122 589 121 597 125 587 124 594 129 585 127 593 132 583 131 591 135 581 134 588 139 579 137 586 142 576 140 584 145 574 143 582 148 571 146 580 151 565 148 577 154 559 149 574 157 554 150 571 160 550 152 569 163 549 156 567 165 548 160 567 168 547 164 566 171 546 168 566 175 545 172 565 178 544 176 565 181 543 180 564 185 542 184 563 188 541 188 563 190 540 192 562 192 540 196 561 194 539 199 561 196 538 204 560 199 536 208 559 201 537 212 559 203 542 215 560 205 547 217 562 206 551 219 564 208 555 221 566 208 559 222 567 209 563 224 570 210 567 225 572 211 571 225 574 211 575 225 577 211 579 225 580 212 583 225 583 212 587 223 586 211 591 222 589 211 595 221 592 210 599 219 595 209 602 217 598 208 606 214 601 206 609 212 604 204 612 210 606 202 614 207 609 200 617 204 612 197 620 201 614 195 623 198 617 192 625 195 619 189 628 192 622 186 631 189 624 183 633 186 627 180 636 182 629 177 638 179 631 173 640 177 634 170 "/>
    <path id="Block1Jump5"
        fill="none"
        stroke="#2584BB"
		stroke-width="2px"
		d="M 634 173 L 634 173 643 178 634 173 643 178 639 196 627 200 640 189 642 180 645 171 650 163 654 155 660 147 666 141 673 135 680 130 689 127 698 126 707 130 712 138 714 147 712 156 707 164 701 171 695 178 687 184 680 189 671 193 663 197 654 199 644 201 638 204 640 214 643 222 648 230 656 235 665 237 674 238 684 236 693 233 701 230 709 225 716 219 723 214 730 207 723 214 716 219 709 225 701 230 693 233 684 236 674 238 665 237 656 235 648 230 643 222 640 214 642 202 651 199 661 198 669 194 678 190 685 185 693 179 700 173 706 166 711 158 713 149 713 140 709 132 701 127 692 126 683 129 675 133 667 139 661 146 655 153 650 161 646 170 643 178 640 189 633 195 626 200 651 195 627 196 651 193 627 192 652 191 628 188 652 189 629 184 653 187 630 180 653 184 631 176 654 181 633 172 655 178 634 168 655 176 636 165 657 173 639 161 658 170 641 158 659 167 643 154 660 164 645 151 661 161 648 148 663 158 651 145 665 155 653 142 666 152 657 139 668 150 660 137 670 147 663 134 672 144 666 132 674 141 670 130 677 139 673 128 679 137 677 126 682 135 681 124 684 134 684 123 687 132 689 122 690 132 693 121 692 131 697 121 695 131 701 122 697 132 705 122 699 133 709 124 700 134 713 126 702 136 717 128 702 138 720 132 706 138 722 135 703 141 724 139 703 143 724 143 703 145 725 147 703 147 724 151 703 149 723 155 702 151 721 159 702 154 719 162 701 156 717 166 700 159 714 169 698 161 711 172 697 164 708 175 696 166 705 178 694 169 702 180 692 171 699 183 689 174 695 185 687 176 692 187 685 179 689 189 682 181 685 191 679 183 682 193 676 185 678 195 673 187 675 197 669 189 671 198 665 191 668 199 661 193 665 200 657 194 662 202 652 196 658 203 644 196 655 204 638 197 651 205 629 199 651 207 626 202 651 209 627 207 651 211 627 211 648 213 628 215 652 214 629 219 652 216 630 223 653 218 633 226 653 219 635 230 654 221 638 233 655 223 641 235 657 225 644 238 658 226 648 240 660 228 652 242 662 229 656 243 665 230 660 243 668 231 664 243 670 232 668 244 673 232 673 244 677 232 677 243 680 232 681 242 683 231 685 241 687 230 689 240 690 229 692 238 693 228 696 237 697 227 700 235 700 225 703 233 703 223 707 231 706 221 710 229 709 219 714 227 712 217 717 224 715 215 720 222 718 212 723 219 721 210 727 217 723 207 730 214 726 205 732 211 729 202 735 209 732 199 738 206 734 197 741 203 738 199 751 183 763 167 771 149 767 153 773 152 765 155 772 156 764 158 771 160 762 161 769 164 760 164 767 167 757 167 765 171 755 170 763 174 753 173 761 178 751 176 758 181 748 179 756 185 746 182 753 188 744 185 751 191 741 188 748 194 739 191 746 197 736 194 743 200 734 196 741 203 "/>
    <path id="Block1Jump6"
        fill="none"
        stroke="#2584BB"
		stroke-width="2px"
		d="M 742 201 L 742 201 752 205 742 201 752 205 756 227 773 236 792 225 806 207 816 189 822 193 813 195 807 205 800 214 793 223 785 231 774 236 763 234 755 227 752 215 752 204 755 193 759 182 764 171 771 162 778 153 786 145 795 137 805 131 816 128 823 128 812 129 801 133 792 140 783 147 775 156 769 165 762 174 758 185 754 196 752 208 753 219 757 230 767 236 778 235 788 229 796 220 803 211 810 201 813 194 823 194 821 180 820 195 817 181 817 197 813 185 815 200 811 190 813 203 809 194 811 206 806 198 809 209 804 202 807 212 802 205 805 215 799 208 803 219 797 212 800 222 795 215 798 225 792 218 795 228 790 221 792 231 787 223 789 234 785 225 786 237 783 227 782 239 780 228 778 241 778 230 774 242 775 230 770 243 773 230 765 242 771 229 762 242 769 229 758 240 767 228 754 238 766 226 751 236 765 225 748 233 765 223 745 230 764 221 744 226 764 219 742 222 764 217 741 218 764 215 741 214 764 212 740 210 764 210 740 206 764 207 740 202 765 204 741 198 766 202 742 194 766 199 743 190 767 197 744 186 768 194 745 183 769 191 747 179 770 188 748 175 772 185 750 172 773 182 752 168 774 179 754 165 776 177 756 161 777 174 759 158 779 171 761 155 781 168 763 152 782 166 766 149 784 163 769 146 786 160 772 144 788 158 775 141 790 155 778 138 792 152 782 136 794 150 785 134 796 147 788 131 799 145 792 129 801 142 796 128 803 140 800 127 806 139 804 125 809 137 807 124 811 135 811 123 814 134 815 123 816 133 819 123 819 133 823 123 822 133 827 124 825 134 831 126 828 136 835 127 830 138 846 120 853 97 859 73 865 50 871 26 865 26 869 35 866 47 863 57 860 68 857 79 854 91 851 102 848 114 844 129 847 118 850 107 853 96 856 84 859 73 862 62 865 51 868 40 869 35 864 26 880 24 860 29 882 28 859 31 881 32 858 34 880 36 857 38 879 40 856 41 878 44 855 44 877 48 854 48 876 52 853 52 875 56 852 55 874 60 851 59 873 64 850 63 872 67 849 67 871 71 848 70 870 75 847 74 869 79 846 78 868 83 845 82 867 87 844 85 866 91 844 89 865 95 843 93 864 98 842 97 863 102 841 100 862 106 840 104 861 110 839 108 860 114 838 111 858 118 837 114 857 122 836 117 856 126 835 121 855 129 835 124 854 133 834 127 853 137 832 129 851 141 831 131 850 144 842 139 836 159 829 178 827 196 823 215 828 233 832 235 852 225 867 208 882 189 895 171 905 152 901 161 895 171 888 181 881 190 874 199 867 208 860 217 852 225 843 232 832 236 824 234 821 226 822 215 825 204 827 192 829 181 832 169 836 158 840 144 837 155 834 166 830 177 827 188 826 200 823 211 821 222 823 233 831 236 842 234 851 226 859 218 866 209 873 200 880 191 887 182 894 172 901 161 904 152 907 148 902 155 908 154 899 158 907 158 897 161 906 162 895 164 904 166 893 167 901 169 891 169 899 173 889 172 897 176 887 175 895 179 884 178 892 183 882 181 890 186 880 184 888 189 878 187 885 192 875 190 883 195 873 193 880 199 871 196 878 202 868 199 875 205 866 202 873 208 863 205 870 211 861 208 868 214 859 210 865 217 857 213 863 220 855 216 860 223 852 218 857 226 850 221 854 229 848 223 851 232 846 225 847 235 843 227 843 238 841 228 839 240 839 230 834 242 837 230 829 242 835 230 824 242 833 229 820 242 829 230 816 239 831 226 813 236 831 225 811 233 831 223 810 229 831 221 810 225 831 218 810 220 832 216 811 216 833 213 811 212 834 209 812 208 835 206 814 204 836 202 815 200 837 199 816 197 838 195 816 193 838 192 816 189 839 188 815 185 840 185 815 181 841 182 817 177 842 178 819 173 843 175 820 169 844 172 822 166 845 168 823 162 846 165 824 158 847 162 826 154 847 159 827 151 848 156 828 147 849 152 830 143 850 149 830 139 851 146 831 135 852 143 832 131 852 140 834 128 "/>
    <path id="Block1Jump7"
        fill="none"
        stroke="#2584BB"
		stroke-width="2px"
		d="M 338 424 L 338 424 336 432 338 424 336 432 338 424 336 432 333 441 331 450 328 459 326 468 323 477 321 486 319 495 317 504 318 513 323 520 332 523 340 521 348 516 355 510 361 503 367 496 373 489 378 481 383 473 388 465 392 458 387 466 382 474 377 482 372 490 367 497 361 504 355 511 348 516 340 521 331 523 323 520 318 512 317 503 319 494 321 485 323 477 326 468 328 459 331 450 333 441 336 432 338 423 331 416 350 413 329 418 351 416 328 420 350 421 326 423 349 425 326 427 348 429 325 430 347 432 324 433 346 436 323 437 345 440 322 440 344 444 321 443 343 448 320 447 342 452 319 451 341 456 318 455 339 460 317 458 338 464 316 462 337 467 315 466 336 471 314 469 335 475 313 473 334 478 312 477 333 482 311 481 332 486 310 484 331 489 309 488 330 492 308 492 330 496 307 496 329 498 307 500 329 501 306 504 328 504 306 509 324 506 306 513 328 507 308 517 329 509 309 521 329 510 311 524 324 515 314 527 330 512 318 529 331 513 322 530 332 515 327 531 333 515 331 530 335 516 336 529 338 516 340 527 340 515 344 525 343 514 348 522 345 512 351 519 348 510 354 517 350 508 358 514 353 506 360 511 355 504 363 508 358 501 366 505 360 498 368 502 362 496 371 499 364 493 373 495 366 490 375 492 369 487 378 489 371 484 380 486 373 480 382 483 375 477 384 479 378 474 386 476 380 470 388 473 382 466 390 470 384 463 391 467 387 459 393 464 389 454 395 461 392 449 398 461 395 445 400 460 399 445 406 450 414 430 427 414 420 420 414 428 411 436 408 445 405 454 405 463 402 472 400 480 398 489 397 498 396 507 398 516 405 523 414 525 423 522 431 518 438 513 445 506 452 500 457 495 451 501 444 507 437 513 429 519 421 523 412 525 403 522 398 515 396 506 397 497 398 488 400 479 403 470 405 461 406 452 408 443 411 435 415 426 420 420 429 415 427 412 428 419 422 413 427 423 417 414 427 426 412 415 426 429 408 417 425 432 405 420 424 435 403 424 423 438 401 427 422 441 400 431 422 443 398 435 421 447 396 438 420 450 395 442 419 454 393 446 418 457 393 450 417 461 394 454 415 465 394 458 414 469 393 463 413 472 392 466 412 476 392 470 411 479 391 474 410 483 390 478 410 486 389 482 409 490 388 486 408 493 387 490 408 496 386 494 408 499 386 498 407 502 385 502 407 504 385 506 407 506 385 510 403 509 386 514 407 510 387 518 408 511 389 522 408 513 392 525 407 516 395 528 410 515 399 530 411 516 403 531 413 517 407 531 415 518 412 531 418 518 416 530 420 518 420 529 423 517 424 527 426 516 428 525 429 514 432 522 432 512 435 520 434 510 439 518 437 508 442 515 440 506 445 512 443 503 448 510 446 500 451 507 449 497 453 504 451 494 456 502 454 491 459 499 457 488 461 497 461 485 464 494 464 484 467 494 463 487 468 468 474 450 480 432 485 413 483 423 480 432 477 440 474 449 472 458 469 467 467 475 465 484 466 492 469 500 476 506 485 507 493 504 500 498 507 492 513 485 519 478 523 472 518 479 512 487 506 493 499 499 492 505 483 507 474 505 468 498 465 490 466 481 468 472 470 463 473 454 475 445 478 437 481 428 483 423 486 413 483 414 489 417 480 417 490 421 477 419 490 426 475 422 490 430 472 425 490 434 470 428 490 438 468 431 489 442 466 435 489 446 465 438 487 450 463 442 486 454 462 446 485 457 461 450 483 461 460 454 482 465 459 458 480 468 459 462 478 472 458 466 476 475 458 470 475 478 458 475 473 481 459 479 471 484 459 483 469 486 459 487 470 489 460 491 471 492 462 495 471 494 463 499 472 497 465 503 474 499 468 506 476 500 471 509 478 502 475 510 480 502 479 512 483 502 483 512 486 502 487 511 489 501 491 510 491 499 495 508 494 498 498 506 497 495 501 503 500 493 505 500 502 491 508 498 505 488 511 495 507 485 513 492 509 482 516 489 512 480 519 485 514 477 521 482 516 473 523 479 519 470 526 476 521 467 528 473 524 464 531 469 526 461 533 467 530 463 543 438 540 440 544 445 537 443 544 447 536 446 542 451 533 450 540 454 531 452 539 457 530 455 537 460 527 458 535 464 526 461 533 466 526 461 533 466 526 461 533 466 "/>
    <path id="Block1Jump8"
        fill="none"
        stroke="#2584BB"
		stroke-width="2px"
		d="M 534 465 L 534 465 542 471 534 465 542 471 534 493 534 516 553 523 573 509 589 492 603 474 617 455 627 435 623 446 618 453 613 460 608 467 603 474 598 480 593 487 587 494 581 501 575 507 569 512 562 518 555 522 546 524 538 522 533 515 531 507 533 498 535 490 538 482 540 474 543 466 546 458 548 450 551 442 554 434 557 421 555 430 552 438 550 446 547 454 544 462 542 470 539 478 536 487 534 495 532 504 532 512 535 520 543 524 552 523 559 520 566 515 573 509 579 503 585 497 591 490 596 483 601 477 606 470 611 463 616 456 623 446 627 434 625 438 628 439 622 441 627 444 620 444 626 448 618 446 624 451 616 449 622 455 614 452 620 459 612 455 618 462 610 458 615 465 607 461 613 469 605 464 611 472 603 467 608 475 601 470 606 478 598 473 603 482 596 476 601 485 593 479 598 488 591 482 596 491 589 485 593 494 586 488 590 497 584 491 588 500 582 494 585 503 579 496 582 506 577 499 579 509 574 502 576 512 571 505 573 515 569 507 570 517 566 509 567 520 564 511 563 522 561 513 559 524 558 515 555 526 555 517 551 528 553 518 547 529 550 518 542 530 548 518 537 529 546 517 533 528 542 518 529 526 544 515 525 524 543 513 523 520 542 512 521 517 539 511 521 513 542 509 520 508 542 507 521 504 543 505 521 500 544 502 522 496 544 500 523 492 545 497 524 489 546 494 525 485 547 491 527 481 548 487 528 477 549 484 529 473 550 480 530 469 551 476 532 466 553 472 533 462 554 469 534 458 555 465 535 454 556 461 536 451 557 457 537 447 559 454 539 444 560 450 540 440 561 446 541 437 562 442 542 433 564 438 543 430 565 434 544 428 566 431 545 425 567 427 546 422 569 423 546 420 570 418 547 419 571 414 551 415 563 413 551 415 563 413 551 415 563 413 "/>
    <path id="Block1Jump9"
        fill="none"
        stroke="#2584BB"
		stroke-width="2px"
		d="M 572 383 L 572 383 573 373 572 383 573 373 560 367 561 363 568 370 575 373 568 370 562 362 557 371 567 356 559 378 570 358 562 380 573 360 566 382 576 361 570 384 579 363 574 385 581 364 578 384 584 368 582 379 584 368 582 379 584 368 582 379 "/>
    <path id="Block1Jump10"
        fill="none"
        stroke="#2584BB"
		stroke-width="2px"
		d="M 611 420 L 611 420 610 425 630 423 650 423 668 427 659 423 668 428 670 425 663 428 669 418 659 428 665 418 655 428 660 418 652 429 656 418 648 428 652 417 645 427 648 417 629 423 608 425 618 423 624 424 618 423 608 424 609 428 610 419 613 429 614 418 616 429 618 418 619 429 623 418 623 429 627 419 626 429 631 419 629 429 635 419 632 430 640 423 646 403 652 383 664 367 658 372 653 379 651 387 648 395 646 403 644 411 641 420 639 428 636 436 634 444 632 452 629 460 627 468 625 476 622 484 620 492 618 500 617 509 619 517 625 523 633 524 641 522 649 518 655 512 661 506 667 500 673 494 678 487 684 480 689 474 696 463 691 470 686 477 681 484 676 490 670 497 664 503 659 510 652 515 645 520 638 523 629 524 622 521 617 514 617 505 619 497 621 489 623 480 626 472 628 464 630 456 633 448 635 440 637 432 640 424 642 416 645 408 647 400 649 392 652 383 658 372 667 367 665 364 666 371 660 365 665 375 654 366 665 378 650 367 664 381 646 370 663 384 644 373 662 387 642 377 661 390 641 381 661 393 640 385 660 397 639 389 659 400 638 393 658 404 636 396 657 407 635 400 656 411 634 404 655 415 633 408 653 419 632 412 652 423 630 416 651 426 629 419 650 430 628 423 649 434 627 427 648 438 625 431 647 441 624 435 646 445 623 438 645 449 622 442 643 453 621 446 642 457 620 450 641 461 619 454 640 464 618 458 639 468 617 461 638 472 615 465 637 476 614 469 636 479 613 473 635 483 612 477 634 487 611 481 633 490 610 485 632 493 609 488 631 497 608 492 630 500 607 496 630 502 606 500 629 504 606 504 629 507 605 509 624 509 606 513 628 510 606 517 628 511 608 520 628 513 610 524 624 518 613 527 630 515 617 529 631 516 621 530 632 518 626 531 634 518 630 531 637 518 635 530 639 517 639 529 642 516 643 527 645 515 647 525 647 513 650 522 650 511 654 519 653 508 657 517 655 506 660 514 658 504 663 511 660 501 666 508 663 499 669 505 665 496 672 502 667 493 674 499 670 490 677 496 672 487 679 493 675 484 682 490 677 481 684 487 680 478 687 484 682 475 689 480 684 472 691 477 687 468 694 474 689 465 696 471 691 462 698 467 693 459 701 464 696 455 703 461 698 453 705 458 702 454 710 438 711 435 706 441 712 439 704 443 711 443 703 445 711 447 701 448 709 451 699 450 707 454 698 452 705 457 698 452 705 457 698 452 705 457 "/>
    <path id="Block1Jump11"
        fill="none"
        stroke="#2584BB"
		stroke-width="2px"
		d="M 705 456 L 705 456 714 461 705 456 714 461 710 476 718 488 733 469 747 450 762 434 782 420 795 426 795 446 788 466 781 487 778 507 791 520 811 510 827 493 842 475 856 456 864 438 860 449 853 459 846 469 838 479 831 489 823 498 814 507 805 515 795 521 783 522 777 514 777 502 780 490 784 478 788 467 792 455 796 443 798 431 794 422 786 419 775 423 765 431 757 439 749 449 741 459 734 468 727 478 722 487 728 477 735 467 742 457 750 448 758 438 766 430 776 422 787 419 795 423 798 432 796 444 792 455 788 467 784 479 780 490 777 502 777 514 783 522 796 521 806 514 815 506 823 497 831 488 839 478 847 469 854 459 860 449 865 437 863 440 866 442 860 443 865 446 858 446 864 450 856 449 862 454 853 452 859 458 851 455 857 461 849 458 855 464 847 461 853 468 845 464 850 471 842 467 848 474 840 470 845 478 838 473 843 481 835 476 840 484 833 479 837 487 831 482 835 490 828 485 832 493 826 488 830 496 823 490 827 499 821 493 824 502 819 496 822 505 816 498 819 509 814 501 816 512 811 503 813 515 809 506 810 517 806 508 806 520 804 510 802 523 801 512 798 526 799 513 794 528 797 514 789 530 794 515 784 530 791 517 780 530 791 514 775 529 789 514 772 527 788 513 769 524 782 515 767 520 787 510 765 516 787 509 765 512 788 507 765 508 788 505 765 504 789 503 766 500 789 500 767 496 790 498 768 492 790 496 769 488 791 492 770 484 792 489 772 480 793 486 773 476 795 483 774 473 796 479 776 469 797 476 777 465 798 472 778 461 800 468 779 458 801 464 780 455 802 461 782 451 804 457 782 448 805 453 783 446 806 449 784 443 807 445 785 440 808 441 786 438 809 437 786 436 810 433 786 434 809 429 791 431 808 425 787 431 807 421 787 430 804 418 786 428 801 415 787 425 797 413 783 427 792 413 782 426 788 412 779 427 783 413 777 427 778 415 774 429 774 417 772 431 770 420 769 433 767 423 767 435 763 426 765 437 760 429 762 440 757 432 760 442 754 435 758 445 752 438 755 448 749 441 753 451 747 445 751 454 744 448 748 457 742 451 746 460 739 454 743 463 737 457 741 467 734 460 739 470 732 464 736 473 730 466 734 477 728 469 732 480 726 472 729 484 724 475 726 488 722 478 724 493 720 481 721 498 718 484 718 502 715 485 714 502 713 485 713 465 719 441 732 425 748 410 762 391 773 371 780 350 783 326 774 310 759 328 748 349 740 372 733 394 726 418 715 420 729 408 732 396 736 384 739 373 744 361 748 350 753 339 759 328 765 318 773 308 779 306 783 318 783 330 782 342 779 354 775 365 770 376 764 387 758 397 750 407 743 416 735 421 744 415 751 406 758 396 765 386 771 375 776 364 779 352 782 340 783 328 783 316 778 305 768 313 761 323 755 334 750 345 745 357 741 368 737 380 733 391 729 408 719 416 714 420 738 418 715 415 739 415 716 411 739 411 718 407 740 408 719 403 740 405 720 400 741 402 722 396 741 399 723 392 742 396 725 388 743 392 726 384 744 389 727 380 745 385 729 377 746 382 731 373 746 378 732 369 747 374 734 366 748 371 735 362 749 367 737 358 750 363 739 355 752 360 740 351 753 356 742 347 754 352 744 344 755 349 746 340 756 346 748 336 757 343 750 333 758 340 752 329 759 337 754 325 760 335 757 321 761 333 760 317 763 330 763 312 764 324 768 307 766 324 773 302 767 321 780 296 769 319 786 293 772 314 789 297 771 318 790 301 771 319 792 305 772 320 793 310 776 319 794 314 773 323 794 318 773 325 793 323 773 328 793 327 773 330 793 331 774 333 792 335 774 336 791 339 773 339 790 343 773 342 789 347 773 345 788 351 773 349 786 355 772 352 784 359 771 355 783 363 771 359 781 366 770 362 779 370 769 366 777 373 767 369 775 377 766 373 774 381 765 376 772 384 763 380 769 388 761 383 767 391 759 387 765 394 757 390 763 397 755 393 761 400 753 397 759 403 750 400 756 406 748 404 754 410 745 407 752 413 742 410 749 416 739 414 747 419 735 418 743 422 727 418 741 426 723 418 738 429 719 419 735 432 714 419 724 426 717 448 711 470 706 493 700 514 687 528 696 520 702 509 706 497 708 485 710 473 714 461 717 450 721 435 718 446 715 458 711 470 708 482 707 494 703 506 696 520 686 527 689 529 686 522 694 528 687 518 699 527 688 514 704 526 689 511 707 523 689 508 709 520 690 505 711 517 691 502 713 513 692 499 715 509 693 496 717 506 693 493 718 503 694 490 719 499 695 486 719 494 696 483 719 490 697 479 719 486 698 475 720 482 699 472 721 479 700 468 722 475 701 464 723 471 702 461 724 467 703 457 725 463 704 453 726 460 705 450 727 456 706 446 728 452 707 442 729 449 708 438 730 446 709 434 730 443 711 430 731 439 712 427 732 437 713 423 733 434 714 419 735 432 "/>
    <path id="Block1Jump12"
        fill="none"
        stroke="#2584BB"
		stroke-width="2px"
		d="M 160 600 L 160 600 144 598 160 600 144 598 160 600 144 598 128 597 113 596 97 596 81 597 66 599 51 604 36 611 23 620 14 633 10 649 13 664 23 677 35 686 50 692 65 696 81 698 97 699 112 699 128 699 144 697 159 695 170 693 155 696 139 698 123 699 107 699 92 699 76 698 60 695 45 690 31 684 19 673 12 660 11 644 16 629 26 617 39 608 54 603 70 599 85 597 101 596 117 596 132 597 148 599 160 600 172 600 170 598 171 605 166 597 166 605 162 596 162 605 158 596 157 604 155 595 153 604 152 595 149 603 148 594 145 603 144 594 141 602 141 593 137 602 137 593 133 602 133 592 129 601 130 592 125 601 126 592 122 601 122 592 118 601 118 591 114 601 114 591 110 600 109 591 106 600 105 591 102 600 101 591 98 600 97 592 95 601 93 592 91 601 89 592 87 601 85 592 83 602 81 592 79 602 77 593 76 603 73 593 72 603 69 594 68 604 65 594 65 605 61 595 61 606 57 596 58 608 53 597 55 609 50 598 52 610 46 599 48 612 42 600 45 613 38 602 42 615 35 604 39 616 31 606 37 618 27 608 34 620 24 610 32 623 20 612 30 625 17 615 28 627 14 618 27 629 11 621 25 632 9 624 24 634 6 627 23 637 5 631 22 639 3 635 21 642 2 638 21 645 1 643 21 647 0 647 21 650 0 651 21 652 1 655 21 655 1 658 21 657 2 662 22 660 4 666 23 662 5 670 24 664 7 673 26 667 10 676 27 669 13 679 29 671 16 682 31 673 19 685 33 675 22 687 35 677 26 689 38 679 30 691 41 681 33 693 43 682 37 695 47 684 41 696 50 685 45 697 53 686 49 698 56 688 53 699 60 689 57 700 63 690 61 701 66 691 64 701 70 691 68 702 74 692 72 703 78 693 76 703 81 693 80 703 85 693 84 704 89 694 88 704 92 694 92 704 96 694 96 704 100 695 100 704 104 695 104 704 108 695 108 704 112 695 112 704 115 695 116 704 119 695 120 704 123 694 124 704 127 694 128 703 131 694 132 703 135 694 136 703 139 693 140 702 143 693 143 702 147 692 147 702 151 692 151 701 155 691 154 701 159 690 158 700 163 690 162 699 167 689 166 699 172 688 169 698 176 687 173 697 180 687 177 697 184 688 180 698 186 698 177 723 168 744 154 763 131 762 107 761 85 768 73 785 77 779 78 788 94 791 110 791 126 788 140 781 145 777 132 785 117 790 101 791 85 790 78 788 78 779 62 783 79 781 64 787 80 783 68 790 83 785 73 791 86 786 78 793 89 787 83 794 92 787 87 795 94 787 91 795 98 787 95 795 101 787 99 796 105 787 104 796 108 787 108 796 111 787 112 795 115 786 116 795 118 785 120 794 121 784 124 793 124 783 128 792 127 782 131 790 131 781 135 789 133 779 139 787 136 777 142 785 139 775 146 783 141 773 149 781 143 771 152 778 145 768 155 775 146 765 157 772 155 766 168 744 177 722 186 701 202 685 223 676 243 665 263 650 279 635 294 617 305 595 303 573 286 559 263 563 244 576 228 593 217 613 208 633 199 655 193 677 182 677 196 667 201 652 206 637 212 622 219 608 227 595 237 582 248 571 262 563 277 559 293 561 303 570 306 582 304 598 297 612 288 625 278 637 266 648 254 657 241 666 227 674 212 680 197 683 190 686 185 701 180 716 174 731 167 746 159 760 167 746 174 732 179 717 185 702 190 687 194 683 210 682 224 675 238 668 251 659 264 649 276 639 286 627 296 614 303 601 306 585 303 571 296 563 282 559 266 561 252 569 240 579 230 591 222 604 214 618 208 632 202 647 196 667 181 677 205 679 182 673 206 675 183 669 207 672 184 665 207 669 185 661 208 666 186 657 209 663 187 654 210 660 189 650 211 656 190 646 213 653 191 642 214 649 193 638 215 646 194 635 216 643 196 631 217 639 198 627 219 636 199 624 220 632 201 620 221 629 203 616 223 625 204 613 224 622 206 609 226 619 208 606 227 615 210 602 229 612 213 599 231 609 215 596 232 606 217 592 234 603 220 589 236 599 222 586 238 597 225 583 239 594 227 580 241 591 230 577 243 588 233 574 245 585 236 572 247 583 239 569 249 581 242 567 252 578 246 565 254 576 249 563 257 574 253 561 259 572 257 559 262 570 261 558 265 568 264 557 268 567 268 556 270 565 272 555 273 564 277 555 277 564 281 555 280 563 285 555 283 563 289 556 286 564 293 557 289 564 297 558 292 565 300 561 294 567 304 563 296 569 306 566 298 572 309 570 299 574 311 573 300 577 311 577 300 580 312 581 301 583 312 586 300 586 312 590 299 589 312 594 299 592 311 598 297 595 310 602 296 598 309 605 295 601 307 609 293 604 306 613 292 606 304 616 290 609 301 620 288 612 299 623 286 615 297 626 284 618 294 630 282 621 292 633 280 624 289 636 278 626 286 638 275 629 283 641 273 632 280 644 270 634 277 647 268 637 274 649 265 639 271 652 262 642 268 654 260 644 264 657 257 647 261 659 254 649 258 661 251 652 254 663 248 654 251 666 245 657 248 668 242 659 244 670 239 661 241 672 235 664 237 674 232 666 234 675 229 668 230 677 225 670 227 679 221 672 223 680 218 673 220 682 214 675 217 683 210 677 214 684 206 679 210 686 199 678 206 688 193 677 202 690 186 677 200 693 181 677 199 696 180 682 198 699 179 685 197 701 177 689 196 704 176 693 195 708 174 697 193 711 173 701 192 714 172 705 191 717 171 709 189 721 170 713 188 724 168 716 186 728 167 720 184 731 166 724 183 735 165 728 181 739 163 732 179 742 162 735 177 746 161 739 175 749 159 743 173 753 158 746 171 756 157 750 168 759 155 754 166 763 153 757 163 766 151 761 161 769 149 764 160 773 148 768 128 762 107 761 87 767 68 776 48 776 57 777 68 776 82 770 97 763 112 761 128 762 144 766 158 772 173 778 188 784 203 788 218 792 234 796 249 798 265 798 280 795 294 788 298 781 291 790 276 796 260 798 244 797 229 795 213 791 198 787 183 782 168 776 154 770 139 764 124 761 108 761 92 765 78 772 63 777 56 777 49 775 46 777 52 772 49 781 55 771 52 783 57 769 56 785 59 768 60 787 62 766 65 788 65 765 68 787 68 764 72 787 71 763 76 786 75 762 80 784 78 761 83 781 82 759 87 778 86 759 90 775 90 758 93 773 93 757 96 771 98 757 100 769 102 756 103 768 106 756 107 767 110 756 110 766 114 756 114 765 118 756 118 765 122 757 121 765 126 757 125 765 130 758 129 766 134 759 132 767 138 759 136 768 142 761 139 769 145 762 143 771 149 763 146 772 153 764 150 774 157 765 153 776 161 767 157 778 164 768 161 779 168 770 164 780 172 771 168 782 176 773 172 784 179 774 175 785 183 775 178 787 186 776 182 788 190 777 186 790 194 778 189 792 197 779 193 793 201 780 197 794 205 781 201 796 209 782 205 797 212 783 208 798 216 783 212 800 220 784 216 801 223 785 220 802 227 785 224 803 231 786 228 804 234 786 232 805 238 787 236 806 242 787 239 807 245 787 243 807 249 788 247 808 252 788 251 808 256 788 256 808 259 788 260 808 262 788 264 808 266 788 268 807 269 788 272 807 271 788 275 806 274 788 279 805 277 788 283 804 280 787 286 802 283 786 290 800 285 786 293 797 288 784 296 794 290 783 299 791 292 781 301 787 294 779 303 784 295 776 304 779 296 773 304 775 296 771 304 772 292 755 275 748 254 749 237 756 241 756 234 752 244 755 238 750 247 755 242 748 250 754 246 747 253 753 250 745 256 753 254 745 259 753 258 744 262 752 262 744 266 752 266 743 269 752 270 743 272 752 274 744 275 753 278 744 278 754 282 745 282 754 286 746 284 756 289 749 287 757 293 751 289 759 296 753 292 761 299 756 293 763 301 759 294 765 302 763 295 768 304 767 296 770 304 771 "/>
    <path id="Block1Jump13"
        fill="none"
        stroke="#2584BB"
		stroke-width="2px"
		d="M 329 767 L 329 767 340 767 329 767 340 767 352 788 373 794 395 786 412 770 416 775 405 777 398 784 390 789 382 793 373 795 363 794 355 790 348 784 343 776 340 767 339 758 340 748 342 739 345 731 349 722 354 714 359 707 365 700 372 694 379 688 387 684 396 681 406 681 414 684 421 690 427 698 430 707 428 716 426 724 424 733 421 742 419 751 418 761 422 769 429 774 438 773 446 768 453 761 459 754 465 747 471 740 476 732 482 725 487 717 491 711 486 719 481 727 475 734 469 742 463 749 457 756 451 763 444 769 436 774 427 774 421 767 418 758 419 749 422 740 424 732 427 723 429 714 429 704 425 696 420 688 412 683 403 681 394 682 385 685 377 689 370 695 363 702 357 709 352 717 348 725 344 733 341 742 340 751 340 761 341 770 344 779 350 786 357 791 366 794 375 794 384 792 392 788 399 782 405 777 417 776 408 762 414 779 405 765 411 781 403 769 408 784 400 772 405 786 398 775 402 788 395 778 399 791 392 780 395 793 390 783 392 795 387 785 388 796 384 787 384 797 381 788 380 798 378 789 376 799 375 790 372 799 372 790 368 799 369 790 364 799 367 789 360 799 364 788 356 798 362 787 352 796 360 785 348 795 358 783 344 793 357 781 341 790 356 779 338 787 355 777 335 784 354 774 333 781 353 772 331 777 353 770 329 773 353 768 328 769 352 765 327 765 352 762 327 761 352 760 326 757 352 757 326 754 353 755 327 750 353 752 327 746 353 750 328 742 354 747 329 738 354 744 330 734 355 741 332 730 356 738 333 726 357 736 335 723 358 733 337 719 359 730 339 716 360 727 342 713 361 724 344 709 363 721 347 706 364 718 349 703 366 715 352 700 367 712 355 697 369 709 358 695 371 706 361 692 373 704 365 690 375 701 368 688 377 699 371 685 379 696 374 683 382 694 378 682 384 692 382 680 387 690 386 679 389 688 390 678 392 687 394 677 395 686 398 676 398 686 402 676 401 685 406 676 404 686 410 677 407 686 414 678 409 687 418 680 412 689 422 682 414 691 425 685 416 693 428 687 417 695 431 691 418 698 433 694 419 700 435 698 420 702 437 701 421 705 438 705 421 707 439 709 420 709 439 713 418 712 440 717 417 714 440 721 416 716 440 725 414 719 439 729 413 722 439 733 411 725 438 737 410 729 437 741 408 733 436 744 407 736 435 747 406 740 434 750 406 744 432 753 405 748 431 755 405 753 426 757 406 757 429 758 407 761 429 760 409 765 428 761 411 768 426 764 413 772 429 764 415 775 430 765 418 778 431 766 421 780 431 769 425 782 434 767 429 782 436 767 434 781 438 767 438 780 440 766 442 777 443 764 446 775 445 762 449 771 448 760 452 768 450 757 455 765 453 755 458 762 455 752 461 759 457 749 463 756 460 747 466 753 462 744 469 750 464 741 471 747 467 738 473 743 469 735 476 740 471 732 478 737 474 729 480 734 476 726 483 731 478 723 485 728 480 719 488 724 483 716 490 721 485 713 492 718 488 710 494 714 490 706 496 711 492 703 497 707 495 700 497 704 "/>
    <path id="Block1Jump14"
        fill="none"
        stroke="#2584BB"
		stroke-width="2px"
		d="M 493 705 L 493 705 502 704 493 705 502 704 506 682 499 683 504 691 503 700 502 709 501 718 500 727 499 737 498 746 498 755 498 764 500 773 503 782 509 788 518 791 527 788 535 784 541 778 550 767 544 774 538 781 530 787 522 790 513 790 505 785 501 777 499 768 498 759 498 750 499 741 499 732 500 723 501 714 502 705 504 696 504 690 499 683 513 680 495 686 516 683 493 688 516 687 493 691 516 691 492 695 515 695 492 698 515 699 491 701 514 703 491 705 514 707 490 709 513 711 490 713 512 715 489 717 512 719 489 721 511 723 489 725 511 727 488 728 511 730 488 732 510 734 488 736 510 738 487 740 510 741 487 744 510 745 487 748 509 749 487 752 509 752 487 756 509 755 487 760 509 759 487 764 509 762 488 769 510 764 489 773 510 767 489 777 510 770 490 781 507 774 492 784 511 774 494 788 512 776 496 791 513 777 499 794 511 781 503 796 514 780 507 798 516 781 511 798 517 782 515 798 519 783 520 797 521 783 523 796 523 783 527 794 525 783 531 792 528 782 535 790 531 780 538 787 533 778 541 784 536 776 544 782 539 774 547 778 542 771 549 775 544 767 552 772 547 764 554 769 549 760 557 766 552 757 560 765 555 755 557 764 577 774 596 760 611 743 625 724 634 705 632 707 637 708 630 709 636 712 628 712 635 716 627 714 633 719 625 716 631 722 623 719 629 726 621 721 627 729 620 724 625 731 618 725 621 729 607 747 592 764 574 774 559 761 561 740 569 720 579 700 587 682 584 690 580 698 576 706 572 715 568 723 564 731 561 740 559 749 557 758 561 766 567 772 576 774 585 770 592 765 598 758 604 751 610 744 616 737 610 744 604 751 598 758 592 765 585 770 576 774 567 772 561 766 557 758 559 749 561 740 564 731 568 723 572 715 576 706 580 698 584 689 585 682 588 680 582 684 591 684 579 686 591 688 577 688 591 692 574 691 590 696 572 693 589 701 569 695 589 705 567 698 588 709 564 702 586 712 562 705 585 716 560 708 584 720 558 712 582 723 556 715 581 727 554 719 579 731 553 723 578 734 552 727 576 737 551 731 574 740 550 735 573 743 550 739 571 745 550 743 569 748 550 748 567 751 551 752 565 753 551 756 564 756 552 760 563 758 553 764 564 760 556 767 565 762 558 771 566 764 561 774 568 766 564 776 570 768 568 778 572 769 572 779 574 769 577 778 577 769 581 778 579 768 585 776 582 766 588 774 584 764 592 771 587 762 595 768 590 760 598 765 592 757 601 762 595 754 604 759 597 752 606 756 599 749 609 753 602 746 611 750 604 744 614 747 606 741 616 743 609 738 619 740 611 735 621 737 614 731 623 734 616 728 625 731 618 726 625 731 618 726 625 731 618 726 "/>
    <path id="Block1Jump15"
        fill="none"
        stroke="#2584BB"
		stroke-width="2px"
		d="M 620 727 L 620 727 628 732 620 727 628 732 623 752 612 756 625 744 627 735 630 726 634 718 639 710 644 703 651 696 657 690 665 685 674 682 683 681 691 685 697 693 699 702 697 711 692 719 686 726 680 733 672 738 665 744 656 748 648 752 637 754 646 752 655 749 663 745 671 740 678 734 685 727 691 720 696 712 698 704 698 694 693 686 685 682 675 681 667 684 659 689 651 695 645 702 640 709 635 717 631 725 628 734 625 744 618 750 611 756 636 750 612 752 636 748 612 747 637 746 613 743 637 743 613 739 638 741 615 735 638 739 616 731 639 736 618 728 640 733 619 724 640 731 621 720 642 728 623 717 643 725 625 714 644 722 627 710 645 719 630 707 646 716 632 704 648 714 635 701 649 711 638 698 651 708 641 695 653 705 644 692 655 702 647 690 657 700 650 687 659 697 654 685 661 695 657 683 663 693 661 681 666 691 665 679 668 689 669 678 671 687 673 677 674 687 677 676 677 686 681 676 679 686 685 676 681 687 689 677 683 688 693 679 685 689 697 680 686 690 700 683 687 692 704 685 690 692 706 689 688 696 708 693 688 697 709 696 688 699 709 701 688 701 709 705 688 703 708 709 687 705 707 713 687 708 705 716 686 710 703 720 685 713 700 723 684 715 697 726 682 718 694 729 681 720 691 732 679 723 688 735 677 726 685 737 675 728 681 739 673 731 678 742 670 733 674 744 668 735 671 746 665 737 667 748 662 739 664 750 660 741 660 751 657 742 656 753 655 744 652 755 652 745 648 756 650 746 643 758 648 747 637 760 645 748 632 760 642 751 626 759 643 749 619 757 639 751 611 756 636 750 612 752 636 748 634 751 623 759 631 781 653 793 676 789 698 776 716 761 732 743 747 723 757 703 752 714 747 722 742 730 737 737 731 744 725 752 719 758 712 765 705 771 698 777 690 782 682 786 674 790 665 792 655 793 646 792 638 788 631 782 626 774 624 766 627 775 631 782 638 788 647 792 656 793 665 792 674 790 683 786 691 782 698 776 706 771 713 764 719 758 725 751 731 744 737 737 742 729 748 722 752 713 758 703 754 704 758 707 752 708 757 711 750 710 755 715 748 713 754 719 746 717 752 723 744 720 750 726 742 723 748 729 740 725 745 733 738 728 743 736 736 731 741 739 733 734 738 742 731 737 736 746 729 740 733 749 726 743 731 752 724 746 728 755 721 749 725 758 719 752 723 761 716 754 720 764 714 757 717 767 711 760 714 769 708 762 711 772 706 765 708 774 703 767 705 777 700 769 702 779 697 772 699 782 694 774 696 784 691 776 692 786 688 778 689 788 685 780 685 790 681 781 681 792 678 783 678 793 675 784 674 795 672 785 670 796 668 786 666 797 665 787 662 798 662 787 658 798 659 787 654 799 656 787 650 799 653 786 646 799 650 786 642 798 648 784 638 797 646 783 634 795 644 782 630 794 642 780 627 791 641 778 623 789 639 776 621 785 638 774 618 782 638 773 616 779 637 771 615 775 637 769 613 771 632 768 612 767 636 765 612 763 636 763 611 759 636 762 611 756 636 760 " />
</svg>
