<?xml version="1.0" encoding="UTF-8" standalone="no"?>
<svg xmlns="http://www.w3.org/2000/svg" version="1.1" width="911" height="779">
    <path id="Block1Jump0"
        fill="none"
        stroke="#F64A8A"
		stroke-width="2px"
		d="M 4 74 L 7 75 4 74 8 76 19 65 32 62 41 65 48 72 48 81 44 89 39 92 33 91 29 85 32 80 39 80 38 79 37 81 33 77 34 81 29 79 33 83 26 83 33 85 25 86 33 86 28 90 33 88 31 92 36 90 35 93 39 90 39 93 42 90 43 92 43 88 47 89 44 86 49 86 45 82 51 83 45 81 51 79 46 77 52 75 45 74 50 71 44 72 48 67 43 70 45 65 41 68 42 63 38 66 38 62 35 64 34 61 31 64 30 61 28 64 26 62 24 65 21 62 21 67 18 64 19 69 14 66 17 71 10 68 15 74 7 70 14 76 4 73 13 79 3 77 12 81 1 81 12 83 0 85 13 85 0 89 13 88 1 93 14 89 2 97 14 91 4 100 16 93 7 103 18 95 10 105 20 97 14 108 22 99 17 110 25 101 21 111 28 103 24 113 31 105 28 114 35 107 31 116 38 109 35 118 42 111 38 119 45 113 42 121 49 115 45 122 52 117 49 125 55 120 52 126 58 122 55 128 61 125 57 131 64 128 58 133 66 132 59 135 67 135 60 138 68 139 61 142 68 143 61 145 67 147 61 148 66 151 60 151 64 155 58 155 62 159 57 158 60 162 56 163 47 172 32 177 20 175 10 167 6 155 7 145 13 134 25 130 34 133 39 140 37 150 33 155 23 155 21 149 23 147 28 146 29 147 24 145 26 148 20 147 24 150 18 151 25 153 20 155 25 154 24 157 27 154 28 157 30 154 32 156 33 153 36 154 34 151 39 151 35 148 41 148 36 145 42 144 36 141 42 140 35 139 41 136 35 138 39 133 33 136 35 131 31 134 33 129 28 132 29 128 23 132 24 128 21 132 19 129 18 133 15 131 16 135 12 133 14 137 9 136 13 141 6 139 12 144 4 142 11 147 2 146 11 149 1 150 11 152 1 154 11 155 2 158 11 157 3 162 11 160 5 165 12 162 7 169 14 165 10 171 15 168 13 174 18 171 16 176 20 172 20 178 23 174 23 178 27 175 27 179 30 176 31 179 34 175 35 178 37 175 39 177 40 174 43 176 44 172 47 174 46 170 50 172 50 168 52 169 52 166 56 166 54 163 59 163 56 160 58 161 56 160 "/>
    <path id="Block1Jump1"
        fill="none"
        stroke="#F64A8A"
		stroke-width="2px"
		d="M 87 99 L 87 99 86 102 87 99 84 108 88 113 91 114 96 110 92 106 93 105 92 107 97 108 94 110 96 113 92 111 93 115 91 111 89 117 89 111 86 115 88 110 83 111 86 109 83 107 86 106 84 103 87 103 86 100 90 102 89 96 93 100 92 94 95 100 97 94 96 100 100 95 99 100 103 98 101 101 105 102 103 105 106 106 104 108 106 110 103 112 106 114 101 116 105 118 99 119 103 122 97 122 101 125 95 125 99 129 92 128 97 133 90 131 96 136 87 135 95 139 86 138 94 142 84 142 94 145 83 146 93 148 83 150 94 152 84 154 94 155 85 158 95 158 86 162 95 161 89 166 96 164 92 169 98 167 94 172 100 169 97 174 103 171 100 176 105 173 104 178 107 174 108 179 110 175 113 179 114 176 117 179 118 176 121 178 122 175 125 177 125 174 128 175 129 171 131 172 132 168 134 169 135 163 137 166 138 158 140 156 139 140 137 124 136 108 135 105 129 104 121 103 121 105 123 102 124 105 126 101 127 104 129 101 132 103 149 99 150 100 147 98 146 101 143 99 142 103 139 100 138 103 135 100 133 104 131 101 129 104 141 105 130 108 141 108 131 112 141 112 132 116 141 116 133 120 141 119 133 124 142 123 134 128 142 127 134 132 142 131 135 136 142 135 136 140 142 139 136 144 142 143 137 149 143 147 137 153 143 151 138 157 143 156 138 162 143 161 138 168 143 166 139 173 144 171 139 178 144 175 140 184 145 178 145 182 149 177 150 181 152 176 154 180 155 175 156 177 155 175 "/>
    <path id="Block1Jump2"
        fill="none"
        stroke="#F64A8A"
		stroke-width="2px"
		d="M 179 99 L 179 99 182 99 179 99 195 96 204 99 204 83 207 78 213 76 219 78 221 84 220 87 217 89 213 88 213 87 217 90 217 87 222 88 218 85 224 84 218 83 224 80 218 81 221 77 216 78 216 75 213 77 211 75 209 78 207 77 208 81 204 79 206 83 201 82 206 85 200 86 206 88 200 90 206 91 201 93 206 94 203 97 206 97 206 101 205 102 207 99 203 100 202 98 200 98 198 96 196 98 194 95 191 98 190 95 188 98 186 96 185 99 182 98 183 101 178 100 180 103 176 102 177 106 173 105 175 109 170 108 174 112 168 111 173 115 166 114 172 118 164 118 172 121 163 122 171 124 162 126 171 127 162 130 172 130 163 134 172 133 164 138 172 136 166 142 174 139 168 145 174 142 171 148 176 145 174 150 179 148 178 152 181 150 182 153 185 152 194 152 200 149 209 136 211 127 210 117 199 106 189 107 184 114 186 120 191 123 196 120 197 116 195 114 191 116 193 116 197 113 195 116 199 116 195 118 198 121 195 120 194 123 192 122 189 124 189 121 186 123 188 119 184 120 187 117 182 117 187 115 182 113 187 113 184 109 187 111 188 106 189 109 192 105 193 106 196 105 197 107 199 105 201 110 203 108 203 112 207 110 204 114 210 112 205 116 213 116 206 119 214 119 207 121 215 123 207 124 215 127 207 128 215 131 206 131 213 135 206 135 211 139 204 138 209 142 203 142 207 145 201 144 204 147 200 145 200 150 198 147 197 152 195 150 193 154 191 151 188 154 186 152 184 154 187 156 183 158 186 160 183 162 186 164 182 167 185 168 182 171 184 172 181 176 183 179 180 184 181 184 179 181 183 182 180 177 186 181 183 174 189 179 187 173 192 178 190 171 195 176 193 169 199 174 198 167 203 173 201 165 206 172 205 163 210 171 208 162 213 171 212 161 214 171 216 160 216 171 220 160 218 170 225 160 220 170 229 162 222 171 232 165 224 171 233 168 227 173 235 172 229 175 235 176 229 179 235 180 229 182 235 184 228 185 234 188 227 188 231 191 225 192 229 195 223 195 226 198 220 200 212 205 200 209 184 208 175 204 168 194 168 184 173 176 178 172 178 173 176 173 176 176 172 175 174 179 169 178 173 182 166 181 172 185 164 184 172 187 163 188 172 189 163 192 172 191 164 196 172 194 166 199 174 197 169 202 176 201 172 204 179 204 176 207 183 206 180 209 187 207 186 210 193 208 193 210 196 208 197 210 200 208 202 210 204 207 206 209 207 206 210 207 210 204 214 206 213 202 218 204 217 200 221 202 219 199 224 199 222 196 224 197 222 196 "/>
    <path id="Block1Jump3"
        fill="none"
        stroke="#F64A8A"
		stroke-width="2px"
		d="M 248 109 L 248 109 248 112 248 109 245 127 246 130 252 134 261 132 267 124 266 118 257 116 254 121 255 124 260 123 259 124 258 123 253 124 256 122 252 120 256 120 253 117 256 118 257 114 259 117 261 114 261 119 265 115 263 120 269 117 264 121 270 121 265 122 269 125 264 125 267 128 263 127 264 131 261 129 260 133 258 132 257 134 255 133 252 135 251 132 249 134 249 130 245 131 249 128 243 128 248 125 242 123 248 122 243 119 248 119 245 115 249 115 246 111 250 111 249 108 252 108 251 105 255 105 254 102 257 103 257 99 260 102 261 97 264 101 266 95 268 101 270 95 270 101 274 96 273 103 278 97 274 105 281 98 276 106 284 102 276 109 286 105 277 111 288 109 278 114 289 113 278 116 289 117 278 119 290 121 279 122 289 125 279 125 289 129 278 128 288 132 278 132 286 136 277 135 284 139 276 138 283 143 276 142 281 146 274 145 279 149 272 149 270 151 257 152 249 156 245 162 248 171 256 173 268 167 268 165 265 170 264 168 262 172 260 171 259 174 257 171 256 175 254 170 251 176 252 169 248 175 252 168 244 173 251 167 241 170 250 165 240 167 250 164 239 163 250 162 241 159 251 161 243 156 251 159 246 153 253 158 250 151 254 156 254 150 257 154 258 150 260 153 262 150 264 153 266 150 267 152 270 149 271 152 278 151 271 151 276 154 270 154 275 158 270 158 273 162 269 162 272 165 268 166 271 169 267 170 271 173 267 174 271 176 267 178 271 180 269 180 271 180 "/>
    <path id="Block1Jump4"
        fill="none"
        stroke="#F64A8A"
		stroke-width="2px"
		d="M 292 109 L 292 109 295 109 292 109 295 111 296 108 299 110 299 106 303 109 303 105 306 107 307 104 309 105 310 102 313 104 314 100 316 102 318 96 318 99 318 96 "/>
    <path id="Block1Jump5"
        fill="none"
        stroke="#F64A8A"
		stroke-width="2px"
		d="M 318 101 L 318 101 316 103 318 101 305 109 317 105 305 111 317 109 306 113 317 113 307 116 318 117 308 118 318 121 329 105 338 101 347 104 353 111 353 120 346 130 340 132 334 130 331 125 333 119 338 116 342 116 343 122 340 125 346 121 341 121 344 117 340 118 341 114 339 117 337 114 336 118 333 116 335 121 330 118 334 122 328 121 334 124 328 125 334 126 329 129 336 128 333 132 338 130 337 134 340 131 342 133 343 130 346 132 346 129 349 129 349 127 352 127 350 122 354 123 351 120 354 119 352 117 355 115 351 114 355 111 350 111 354 107 348 109 352 103 347 108 349 101 344 107 346 98 342 106 342 97 340 106 338 97 337 106 334 98 335 106 331 100 333 107 328 103 330 108 326 105 327 110 323 108 326 113 321 111 324 116 320 115 322 118 318 119 320 121 309 121 319 124 310 125 318 127 310 129 318 131 311 133 319 134 312 137 319 138 313 140 319 142 314 144 319 145 314 147 319 149 315 151 319 153 315 155 320 157 316 159 320 160 316 163 320 164 316 167 321 168 317 171 321 172 317 175 309 179 303 181 305 177 307 181 308 177 311 180 312 177 315 180 316 175 319 179 320 174 323 177 323 173 326 176 327 172 330 174 331 170 334 173 335 169 337 171 338 167 341 170 341 168 341 170 "/>
    <path id="Block1Jump6"
        fill="none"
        stroke="#F64A8A"
		stroke-width="2px"
		d="M 359 0 L 359 0 "/>
    <path id="Block1Jump7"
        fill="none"
        stroke="#F64A8A"
		stroke-width="2px"
		d="M 437 66 L 437 66 439 67 437 66 439 67 452 57 465 58 475 65 477 71 475 77 471 82 465 82 462 80 462 74 467 71 461 72 464 75 459 74 464 76 458 77 464 78 460 81 464 80 464 84 466 81 468 84 469 81 472 82 471 78 475 80 472 76 478 77 473 74 481 74 473 72 482 70 472 69 480 66 471 67 477 63 470 64 474 60 469 63 470 58 466 61 467 56 464 59 462 55 461 59 459 55 458 58 456 56 454 58 452 56 450 60 448 58 447 62 444 60 445 64 441 62 443 67 438 65 442 69 435 68 441 72 433 71 441 74 430 75 440 77 430 80 441 80 430 84 441 83 431 88 441 86 433 91 442 89 435 95 444 93 437 98 445 96 440 101 447 98 443 104 449 101 447 106 452 104 449 108 455 106 453 110 457 108 457 111 460 109 461 113 463 110 465 114 475 114 475 116 473 111 472 117 470 111 468 117 467 110 465 117 463 114 461 117 459 115 458 118 455 115 454 119 451 116 450 119 447 117 446 121 443 119 443 122 440 120 440 124 436 122 437 126 432 124 434 129 429 126 433 132 426 129 432 135 424 133 431 138 422 136 430 141 420 140 430 143 418 143 431 145 418 147 431 148 418 151 431 150 419 155 432 153 421 159 433 155 424 162 434 158 427 165 436 160 430 168 438 162 433 170 440 165 436 172 443 167 440 174 445 169 443 175 448 171 446 176 451 173 450 177 455 174 455 178 458 175 460 178 461 176 464 179 465 176 468 179 469 176 471 178 474 176 475 178 478 174 479 177 481 172 483 175 484 170 487 173 485 168 490 170 487 165 493 167 489 162 495 165 490 160 497 161 491 157 500 158 496 156 498 147 494 135 487 128 482 126 485 127 482 126 "/>
    <path id="Block1Jump8"
        fill="none"
        stroke="#F64A8A"
		stroke-width="2px"
		d="M 485 125 L 485 125 487 123 485 125 487 122 501 119 514 117 528 114 528 120 526 110 524 120 522 111 520 120 518 113 516 120 514 114 512 121 510 115 508 121 505 116 503 122 501 117 499 123 497 118 495 123 493 119 491 124 489 120 487 125 485 121 477 125 471 126 457 134 453 143 455 149 463 154 471 148 470 141 469 140 473 143 469 144 473 148 469 145 471 151 468 148 469 152 466 151 465 155 463 152 460 155 460 151 456 153 459 148 453 150 458 146 450 147 458 144 449 143 458 142 450 139 457 140 452 135 458 137 455 132 460 134 459 130 464 132 463 128 466 131 467 127 469 129 471 125 472 127 475 123 477 126 479 122 481 126 483 121 485 125 481 127 488 127 485 130 493 129 487 133 496 131 488 136 499 134 490 139 501 137 491 141 503 141 491 144 503 145 492 147 503 149 492 150 503 152 492 153 501 156 491 155 494 156 491 155 "/>
    <path id="Block1Jump9"
        fill="none"
        stroke="#F64A8A"
		stroke-width="2px"
		d="M 519 0 L 519 0 "/>
    <path id="Block1Jump10"
        fill="none"
        stroke="#F64A8A"
		stroke-width="2px"
		d="M 583 74 L 583 74 586 75 583 74 588 76 591 71 602 64 611 62 618 63 627 72 627 84 621 91 612 91 608 85 611 80 618 80 618 79 617 81 613 77 614 80 608 79 612 83 606 82 612 84 605 86 612 86 606 89 612 87 609 92 614 90 613 93 617 91 617 94 620 90 622 93 622 88 626 90 624 86 628 87 625 83 630 83 625 81 631 79 625 77 631 75 625 74 630 71 624 72 628 68 623 70 625 65 621 68 622 63 619 66 619 62 615 65 615 61 612 64 611 61 609 64 607 61 605 65 603 62 602 66 599 63 599 68 595 65 597 70 592 67 595 72 589 69 594 75 586 71 592 77 583 74 592 80 581 78 592 82 580 82 592 84 579 86 592 86 580 90 592 88 580 94 594 90 582 97 594 92 584 101 596 94 587 104 597 96 590 106 600 98 593 108 602 100 597 110 604 101 601 111 607 103 604 113 611 105 608 114 614 107 611 116 618 110 614 118 621 112 618 119 625 113 621 121 628 115 625 123 632 118 628 125 635 120 632 127 638 123 634 129 640 125 636 131 643 128 638 134 645 132 639 135 646 136 640 139 647 140 640 143 647 144 640 145 646 148 640 148 645 151 639 151 643 155 638 155 641 159 637 158 639 162 631 168 618 176 602 176 589 167 585 151 589 139 595 132 604 130 610 131 616 135 618 144 616 150 612 155 603 155 600 149 607 146 608 147 604 145 606 148 600 146 604 150 598 149 604 151 598 153 604 153 601 156 605 154 605 157 608 155 609 157 611 153 613 155 613 152 616 153 614 150 619 149 615 146 621 146 615 143 621 142 615 140 621 138 614 138 619 134 613 136 616 131 611 134 612 130 608 132 609 128 603 131 604 128 600 132 599 129 599 132 595 130 596 134 592 133 593 137 589 135 592 140 586 138 591 143 584 141 591 146 582 145 590 149 581 149 590 152 581 153 590 154 581 157 590 157 582 161 590 159 584 164 591 162 586 168 592 164 589 171 594 167 592 173 596 170 595 176 599 172 598 177 602 173 602 178 606 175 606 179 609 176 610 179 612 175 614 179 615 175 618 177 619 174 622 176 622 173 625 175 626 171 629 172 629 168 631 169 631 166 635 167 634 163 638 164 636 160 638 161 636 160 "/>
    <path id="Block1Jump11"
        fill="none"
        stroke="#F64A8A"
		stroke-width="2px"
		d="M 653 103 L 653 103 656 103 653 103 656 106 657 102 659 105 661 101 662 104 666 99 666 104 671 98 669 103 675 103 677 98 682 94 674 98 681 98 671 101 680 103 669 105 679 107 669 108 679 111 668 112 678 115 668 116 678 119 668 120 677 123 667 124 677 127 667 128 676 131 667 132 676 135 667 136 676 139 667 140 675 143 667 144 675 147 667 148 675 151 667 152 674 155 674 158 681 165 693 168 703 167 716 158 724 144 724 125 715 112 707 106 694 106 686 116 686 125 691 129 700 126 702 120 700 117 694 116 695 114 695 117 700 114 697 118 703 117 698 119 704 121 699 122 703 124 698 125 699 127 696 128 696 130 694 128 692 131 691 127 687 130 690 125 684 127 689 123 682 123 688 121 682 118 688 118 684 115 689 116 687 111 691 113 689 109 692 110 692 106 695 108 696 105 699 106 701 104 703 106 705 104 706 108 709 105 709 110 713 107 711 112 716 108 713 114 719 110 715 117 722 112 715 119 724 115 717 122 726 119 718 125 728 122 718 128 729 126 719 130 730 130 719 134 731 134 719 136 731 138 719 139 730 142 719 141 729 146 718 143 728 150 717 147 726 153 717 150 723 156 715 153 720 159 713 155 717 162 712 157 713 164 709 160 710 166 706 162 706 168 704 164 702 169 700 166 698 170 696 167 694 170 693 167 690 170 689 166 686 169 686 165 683 168 683 163 680 166 679 161 677 164 676 157 674 161 674 158 674 161 "/>
    <path id="Block1Jump12"
        fill="none"
        stroke="#F64A8A"
		stroke-width="2px"
		d="M 674 155 L 674 155 672 157 674 155 667 156 674 159 667 160 674 163 667 164 673 167 667 168 673 171 668 172 672 175 668 176 672 178 668 179 672 182 668 183 672 186 668 187 672 190 668 191 672 193 668 195 672 197 668 199 673 201 669 203 673 205 669 207 667 209 656 209 656 208 658 211 660 208 662 211 664 207 665 210 667 207 669 210 671 207 673 210 675 207 677 210 679 206 680 210 682 205 684 209 685 204 686 207 685 204 "/>
    <path id="Block1Jump13"
        fill="none"
        stroke="#F64A8A"
		stroke-width="2px"
		d="M 743 76 L 743 76 745 74 743 76 754 70 761 70 768 77 766 76 766 73 764 74 763 70 761 73 759 68 758 72 756 67 755 72 752 68 752 73 749 70 750 74 746 73 747 76 743 76 746 79 742 80 745 82 742 85 745 85 744 88 747 87 747 90 749 89 750 93 752 91 754 93 756 92 758 93 763 89 763 82 758 79 752 81 753 84 758 84 757 85 756 84 755 87 754 84 751 84 753 82 752 80 755 80 756 78 757 80 760 78 760 81 763 80 761 84 766 84 761 86 764 88 761 88 762 91 759 90 758 93 758 92 758 93 "/>
    <path id="Block1Jump14"
        fill="none"
        stroke="#F64A8A"
		stroke-width="2px"
		d="M 748 102 L 748 102 746 104 748 102 746 104 740 105 742 102 744 105 745 102 747 106 748 102 754 104 767 101 767 103 765 99 763 104 761 100 759 105 757 101 756 105 754 102 753 105 750 102 749 106 759 107 749 110 759 111 750 113 759 115 750 117 759 119 750 121 759 123 750 125 758 127 751 129 758 131 751 133 758 135 751 137 758 139 751 141 758 143 752 145 757 147 752 149 757 151 752 153 757 155 752 157 757 159 752 161 757 162 752 165 756 166 752 169 756 170 752 173 756 174 752 177 741 179 741 177 743 182 745 177 747 181 749 177 751 179 753 177 755 179 758 176 760 179 762 175 764 179 766 175 768 179 770 174 772 179 774 174 774 177 774 174 "/>
    <path id="Block1Jump15"
        fill="none"
        stroke="#F64A8A"
		stroke-width="2px"
		d="M 788 110 L 788 110 791 111 788 110 792 112 803 101 818 96 830 100 836 108 833 117 829 121 819 122 814 114 817 109 823 108 825 110 824 114 822 114 828 112 823 111 827 109 823 109 823 107 820 109 819 107 819 110 815 108 817 111 812 111 816 114 812 115 817 116 813 119 817 117 815 121 819 120 819 123 822 121 823 124 824 121 827 123 827 120 831 122 829 118 834 120 830 116 837 117 832 113 839 114 832 111 839 109 832 109 838 105 832 107 835 102 830 104 832 99 828 101 829 97 826 100 825 96 823 98 821 95 819 97 817 95 815 98 813 96 811 98 809 97 808 100 805 98 806 102 802 100 803 104 798 102 801 107 795 104 799 109 791 107 797 112 789 109 796 116 787 113 795 119 784 116 793 122 782 120 792 125 781 124 791 127 780 127 791 131 779 131 791 134 779 135 791 138 780 139 791 141 780 143 792 143 781 147 792 146 782 151 793 150 784 155 794 152 786 158 795 156 788 162 796 159 790 165 797 162 793 168 799 165 796 170 801 167 799 172 803 169 803 174 806 171 807 175 809 173 811 176 813 173 814 176 816 173 819 175 819 172 823 175 822 170 826 174 824 166 825 169 824 166 "/>
    <path id="Block1Jump16"
        fill="none"
        stroke="#F64A8A"
		stroke-width="2px"
		d="M 858 118 L 858 118 861 119 858 118 861 119 871 107 882 102 892 103 900 108 907 119 903 131 899 136 887 138 878 137 871 135 868 129 870 123 875 120 881 122 881 127 876 129 878 131 878 128 882 129 879 126 885 125 879 124 883 121 878 122 879 119 875 121 874 119 873 122 870 121 871 125 867 123 871 127 866 127 871 128 866 131 871 130 867 134 872 132 871 137 874 134 874 138 877 135 878 139 880 136 882 139 884 137 886 140 888 137 890 139 892 137 894 138 895 136 898 137 898 134 902 135 900 131 906 133 901 128 908 130 902 126 910 126 902 123 911 122 902 121 911 118 902 119 910 114 900 116 907 111 900 114 904 108 898 111 901 105 896 108 898 103 894 107 894 102 891 105 890 101 888 104 886 101 885 103 883 101 881 104 879 101 877 105 875 103 874 107 871 105 872 109 868 107 870 112 865 110 868 115 861 113 866 117 859 116 865 121 857 120 864 124 854 123 863 127 853 127 862 131 852 130 862 134 850 134 862 137 850 138 862 140 850 142 862 143 850 146 862 146 851 150 862 149 852 154 863 152 854 158 864 156 856 161 865 159 858 164 866 162 861 167 868 165 864 171 870 168 867 173 873 170 871 175 875 172 874 177 878 174 878 178 881 175 882 179 884 176 886 179 888 176 890 179 891 176 894 178 895 175 898 177 897 173 901 175 900 172 904 172 902 169 906 169 903 157 891 153 886 156 884 162 886 165 892 165 894 163 894 159 893 159 897 163 892 161 895 167 891 163 891 168 889 163 887 167 887 163 884 164 886 161 883 160 886 158 884 156 887 156 886 153 890 155 890 151 892 155 894 150 895 156 898 150 897 157 901 152 900 158 904 155 901 159 907 159 903 162 907 163 903 165 906 167 903 167 905 168 903 167 "/>
    <path id="Block1Jump17"
        fill="none"
        stroke="#F64A8A"
		stroke-width="2px"
		d="M 329 319 L 329 319 329 322 329 319 326 338 330 343 336 345 347 338 347 329 341 326 336 329 336 334 341 334 340 335 339 334 335 335 337 333 333 332 337 331 334 328 338 329 337 325 339 328 341 325 343 329 346 325 344 330 350 327 345 331 351 330 346 333 351 335 345 335 348 339 344 338 345 341 342 340 342 344 339 343 338 345 336 344 334 346 333 343 331 345 331 341 327 343 330 339 324 340 329 336 323 336 329 334 324 332 329 332 325 328 330 328 326 325 330 325 328 321 332 321 330 318 333 318 333 316 336 315 336 313 338 314 339 310 342 313 342 308 345 312 346 306 349 311 350 305 351 312 354 306 353 313 359 307 355 314 362 309 357 317 365 312 358 319 367 315 359 322 369 318 359 324 370 322 360 326 371 326 360 329 371 331 360 332 371 335 360 335 370 339 360 339 369 343 359 342 367 346 359 345 366 350 358 349 364 354 357 352 362 357 355 356 360 360 354 360 342 362 338 362 328 369 326 372 327 378 334 384 341 383 349 378 349 376 347 381 345 379 344 383 341 381 340 385 338 382 337 386 335 381 333 387 333 379 329 386 333 378 325 384 332 377 323 381 332 376 321 377 332 374 321 372 332 373 322 369 332 371 325 366 333 370 329 364 334 368 332 362 337 366 336 361 339 364 340 360 342 364 344 360 346 364 348 360 349 363 352 360 353 363 359 362 353 362 358 366 352 366 356 369 351 370 355 372 350 373 353 375 349 377 353 379 349 381 353 383 349 385 352 387 349 389 352 391 351 391 352 391 "/>
    <path id="Block1Jump18"
        fill="none"
        stroke="#F64A8A"
		stroke-width="2px"
		d="M 378 315 L 378 315 380 313 378 315 379 311 382 314 383 310 385 313 387 309 393 309 401 304 399 307 397 306 395 309 393 307 391 311 389 308 387 313 401 308 388 316 401 312 388 319 400 317 389 322 400 321 389 325 400 325 390 328 400 329 390 330 400 333 391 333 397 335 396 352 396 369 395 386 394 386 391 388 382 387 382 385 384 388 386 385 387 389 389 386 390 389 392 386 394 389 407 385 406 383 406 387 402 384 402 388 399 385 398 389 394 388 394 386 396 389 397 386 394 384 397 382 394 380 398 378 394 376 398 374 394 372 398 371 394 369 399 367 393 365 399 363 393 361 399 359 393 357 399 355 393 353 399 352 393 349 400 348 392 345 400 345 392 341 400 341 392 337 401 338 391 333 394 334 391 333 "/>
    <path id="Block1Jump19"
        fill="none"
        stroke="#F64A8A"
		stroke-width="2px"
		d="M 402 336 L 402 336 402 334 402 336 400 334 404 332 402 330 405 329 403 327 407 326 406 323 410 323 408 320 412 320 410 317 415 317 414 314 417 316 417 312 421 314 421 311 424 313 425 310 427 313 430 310 431 315 434 311 434 317 438 313 437 319 441 315 439 321 445 318 441 324 448 321 443 328 451 323 444 330 453 327 445 333 455 330 446 336 456 334 446 339 457 338 447 343 458 342 446 345 458 346 446 348 458 350 446 351 457 354 446 355 456 358 445 358 456 362 445 361 454 365 444 364 452 369 444 368 451 372 443 372 448 377 442 376 445 380 441 379 443 383 440 383 438 386 429 388 421 383 421 373 426 370 432 371 434 374 433 377 427 377 429 379 431 376 433 378 431 375 436 374 431 373 435 371 431 372 432 368 429 371 427 368 426 372 423 369 423 375 419 372 423 377 417 376 423 378 417 380 423 380 419 383 424 383 423 387 426 385 426 389 429 386 430 390 433 386 434 389 435 386 438 387 438 383 442 384 440 381 442 382 440 381 "/>
    <path id="Block1Jump20"
        fill="none"
        stroke="#F64A8A"
		stroke-width="2px"
		d="M 514 266 L 514 266 517 265 514 266 516 263 518 266 519 262 521 266 522 262 525 264 542 261 542 262 540 260 538 263 536 261 534 263 523 264 523 266 524 262 527 265 529 262 532 265 534 261 536 264 523 268 535 268 523 272 535 272 522 276 534 277 522 280 533 281 522 284 532 285 522 288 532 289 521 292 531 293 521 296 531 297 521 300 530 301 521 304 530 305 520 308 529 310 520 313 529 314 520 317 528 318 520 321 528 322 520 325 527 326 520 329 515 326 510 321 501 319 494 321 483 332 478 347 479 363 485 375 494 382 504 384 512 380 516 371 513 362 505 358 497 363 497 369 502 372 505 371 506 366 508 366 504 367 509 370 503 370 506 373 503 370 501 375 503 370 499 374 499 369 496 370 497 366 495 366 499 364 497 361 500 362 499 357 502 361 502 355 504 361 506 355 506 361 510 356 508 362 513 358 510 364 515 362 512 365 516 365 514 368 517 369 514 372 517 373 513 376 515 377 512 378 513 381 510 380 509 383 507 382 505 385 503 383 501 385 499 383 497 385 496 381 493 384 494 380 490 382 491 377 486 381 490 375 483 378 489 373 481 375 487 370 478 372 486 368 476 369 485 364 474 365 484 361 473 362 484 358 472 358 484 355 472 354 484 352 472 350 483 349 472 347 484 346 473 343 484 343 475 339 484 340 477 335 486 337 479 331 487 334 482 328 489 331 485 326 490 328 488 323 493 325 491 321 495 323 495 319 498 322 499 318 500 321 503 317 503 321 508 319 506 322 511 321 510 323 514 323 513 326 516 326 516 330 518 328 519 334 523 334 523 331 520 329 527 330 519 333 527 334 519 337 526 338 519 341 526 342 519 345 526 346 519 349 526 351 519 353 525 355 520 357 525 359 520 361 525 363 520 365 525 367 520 369 525 371 520 373 525 375 521 377 526 378 522 381 527 382 524 385 528 384 526 388 530 386 529 390 531 389 529 390 "/>
    <path id="Block1Jump21"
        fill="none"
        stroke="#F64A8A"
		stroke-width="2px"
		d="M 541 211 L 541 211 "/>
    <path id="Block1Jump22"
        fill="none"
        stroke="#F64A8A"
		stroke-width="2px"
		d="M 78 460 L 78 460 81 461 78 460 80 465 82 460 83 464 86 460 87 464 89 461 104 460 118 459 131 457 143 455 143 467 143 478 145 478 141 476 145 474 141 473 146 469 141 470 146 464 141 466 147 458 142 462 148 451 140 460 143 452 135 460 137 453 130 461 131 455 125 461 126 455 120 461 121 456 115 461 116 457 111 462 111 457 106 462 106 458 102 462 101 458 98 463 97 459 93 463 92 459 89 464 88 460 88 462 88 460 "/>
    <path id="Block1Jump23"
        fill="none"
        stroke="#F64A8A"
		stroke-width="2px"
		d="M 103 462 L 103 462 102 465 103 462 87 466 103 466 88 470 103 470 89 473 104 474 90 477 104 478 91 481 104 482 92 485 104 486 93 489 105 490 93 493 105 493 94 496 105 497 94 500 106 501 95 504 106 505 96 508 106 508 96 511 106 512 97 514 106 516 108 518 124 516 140 514 143 513 144 516 142 510 141 516 138 511 137 517 134 512 133 518 131 513 130 519 127 514 126 519 123 514 122 519 119 515 118 519 115 515 114 519 111 516 110 520 108 516 106 520 106 518 106 520 "/>
    <path id="Block1Jump24"
        fill="none"
        stroke="#F64A8A"
		stroke-width="2px"
		d="M 106 516 L 106 516 103 517 106 516 97 518 106 519 97 522 106 523 97 526 106 528 98 530 106 532 98 534 106 536 99 538 106 540 99 542 106 544 99 546 106 548 100 551 106 553 100 555 106 557 101 559 106 561 101 563 99 565 92 566 91 564 93 568 95 564 97 567 99 563 101 567 103 563 105 566 107 563 109 566 111 563 113 567 115 563 117 567 119 563 121 568 123 563 125 568 127 563 129 568 130 563 133 569 134 563 137 569 138 563 141 569 141 563 145 569 145 563 149 569 149 563 153 568 152 562 156 566 156 561 159 563 165 548 164 542 157 536 150 535 143 542 143 548 147 552 151 551 152 548 149 544 149 545 151 545 151 548 153 548 150 548 152 552 149 549 147 555 147 549 144 553 146 548 141 550 144 547 141 545 144 543 143 541 146 540 145 537 148 538 148 535 150 538 151 533 153 538 155 532 154 538 159 533 157 540 162 534 158 541 166 537 160 542 167 540 160 543 168 544 161 546 168 548 162 548 166 552 161 551 165 556 160 555 163 559 159 558 160 562 157 560 158 562 157 560 "/>
    <path id="Block1Jump25"
        fill="none"
        stroke="#F64A8A"
		stroke-width="2px"
		d="M 160 505 L 160 505 162 503 160 505 161 500 164 504 164 499 167 503 167 498 173 498 188 488 190 490 185 488 186 492 182 490 183 494 179 492 179 496 176 494 176 498 172 496 172 500 169 497 169 502 182 497 171 505 183 501 173 508 185 505 175 511 186 508 177 514 187 512 179 518 189 516 181 521 190 519 182 525 191 523 184 529 193 527 186 532 194 530 187 535 196 534 189 539 197 538 191 542 198 541 193 546 199 545 194 550 200 549 196 554 201 552 198 557 203 556 199 561 204 560 201 565 205 564 202 569 207 567 206 562 210 564 209 559 212 561 211 556 215 558 214 553 217 555 219 549 229 533 233 523 236 512 235 499 231 491 224 485 217 485 209 489 204 497 205 506 209 511 216 511 221 508 224 502 221 496 218 495 215 497 215 502 216 502 212 499 217 499 214 495 218 498 217 493 219 498 221 494 221 499 224 498 222 501 225 502 222 504 224 507 220 506 222 510 218 507 218 513 215 508 215 514 213 508 211 515 211 508 207 514 209 507 204 511 208 505 202 507 207 503 201 503 207 501 202 499 206 498 203 495 207 494 204 491 209 492 207 488 211 490 210 485 214 489 213 483 217 488 217 483 219 488 221 482 222 488 225 482 224 489 228 484 226 490 231 487 228 491 234 490 230 494 236 493 232 497 236 497 233 500 237 501 234 503 238 506 234 508 237 510 234 512 237 514 233 516 236 517 232 519 235 521 231 523 234 525 230 526 233 529 228 530 231 533 227 533 229 537 225 536 227 540 223 540 225 543 221 543 223 547 219 546 221 550 217 549 218 553 215 552 216 554 215 552 "/>
    <path id="Block1Jump26"
        fill="none"
        stroke="#F64A8A"
		stroke-width="2px"
		d="M 258 507 L 258 507 260 509 258 507 261 509 271 496 280 492 289 492 297 496 306 505 306 515 299 525 287 528 274 526 269 522 268 516 275 509 281 511 281 517 276 519 276 518 279 520 278 517 283 518 279 515 285 514 279 514 283 511 279 512 279 509 276 511 274 508 273 512 270 510 271 514 267 513 271 516 266 516 271 518 266 520 271 520 268 524 272 522 271 526 275 523 275 528 277 525 279 528 281 526 283 529 285 527 287 529 289 527 291 529 293 526 295 528 296 525 299 527 298 523 302 525 300 520 305 522 302 518 309 519 302 515 310 516 302 513 311 512 302 510 312 508 302 509 310 504 301 506 308 501 300 503 305 498 298 501 302 496 297 498 299 493 294 496 295 492 291 494 291 491 288 493 286 490 285 493 283 490 281 493 279 491 277 494 275 493 275 495 271 495 272 498 268 497 270 501 265 499 268 504 262 502 267 507 259 505 265 510 257 509 264 513 254 512 263 516 253 516 262 520 252 519 262 523 250 523 262 526 250 527 262 529 250 531 262 531 250 535 262 534 251 539 262 537 252 543 263 541 254 547 264 544 256 550 265 547 258 554 266 550 261 557 267 553 263 559 269 556 266 561 272 558 270 564 275 561 273 565 277 563 277 567 280 564 281 569 283 565 285 569 287 566 289 569 290 565 293 568 294 564 298 567 297 562 302 564 301 560 304 561 302 558 306 558 303 547 297 543 288 543 284 548 284 552 289 555 292 555 294 549 293 548 297 552 292 550 295 556 291 553 291 558 290 553 287 556 287 552 284 554 286 551 283 550 285 548 284 546 287 546 286 542 289 545 290 540 292 545 293 539 295 545 297 540 297 546 301 542 300 547 304 545 301 549 307 548 303 551 307 552 303 554 306 556 303 557 305 558 303 557 "/>
    <path id="Block1Jump27"
        fill="none"
        stroke="#F64A8A"
		stroke-width="2px"
		d="M 313 498 L 313 498 316 498 313 498 315 500 317 497 319 499 321 496 323 498 324 495 327 496 328 493 331 494 332 491 334 492 335 488 337 491 339 485 339 488 339 485 "/>
    <path id="Block1Jump28"
        fill="none"
        stroke="#F64A8A"
		stroke-width="2px"
		d="M 339 490 L 339 490 337 492 339 490 325 498 338 495 326 501 338 498 327 503 338 502 328 506 339 506 329 508 339 510 347 497 355 492 365 491 374 500 373 513 367 520 354 520 352 511 356 506 362 506 364 512 361 514 367 509 362 510 365 506 361 507 361 504 358 507 357 504 357 508 353 506 356 510 350 509 355 513 348 512 355 515 349 517 356 516 351 520 357 518 354 522 359 520 359 523 362 520 364 522 364 519 368 521 367 517 371 518 370 514 373 515 372 511 375 511 372 508 376 507 372 505 376 503 372 503 376 499 370 500 374 495 369 498 372 491 366 497 369 489 364 496 365 487 362 495 361 486 360 495 357 487 358 495 353 489 354 496 350 490 352 497 347 493 349 499 345 497 346 501 343 500 345 504 341 504 343 507 340 508 341 510 329 511 340 513 330 515 339 517 331 519 339 520 332 523 340 524 333 526 340 527 333 530 340 531 334 534 340 535 335 538 340 539 335 542 341 543 336 546 341 546 336 549 341 550 337 553 341 554 337 557 342 558 338 561 342 562 338 565 336 567 326 569 324 571 326 566 328 570 330 566 332 569 334 566 336 568 337 565 340 568 341 564 344 566 345 562 348 565 349 561 352 564 352 560 356 562 356 558 359 561 359 556 362 559 362 557 362 559 "/>
    <path id="Block1Jump29"
        fill="none"
        stroke="#F64A8A"
		stroke-width="2px"
		d="M 370 491 L 370 491 373 491 370 491 373 493 374 490 376 492 378 488 380 491 382 487 383 490 387 485 385 493 392 482 387 496 395 485 388 499 397 489 390 501 399 493 391 503 401 497 392 506 402 501 394 508 404 505 395 511 405 509 397 513 406 513 398 517 407 515 400 520 408 518 402 524 409 521 404 528 411 525 405 531 412 528 407 536 413 533 409 540 414 537 410 544 415 541 412 549 416 545 424 531 430 520 435 508 440 493 439 484 431 479 425 481 422 486 425 492 431 491 431 489 429 494 427 490 425 494 425 490 422 491 424 488 420 487 424 486 421 484 424 484 423 480 425 483 427 476 427 482 431 476 429 482 436 477 432 482 439 480 434 484 441 483 436 486 442 487 437 489 443 490 438 493 441 495 437 497 441 498 436 500 440 502 435 503 438 506 434 507 436 510 433 510 434 513 431 513 433 517 430 517 431 520 428 520 430 524 426 524 428 527 424 527 426 530 422 531 424 534 420 534 423 537 419 538 421 541 417 542 420 544 416 545 418 548 414 548 417 552 413 552 415 555 411 555 414 559 410 559 413 563 408 563 411 566 407 566 410 570 406 570 409 574 405 574 408 578 396 591 390 593 381 590 378 585 379 579 384 575 391 575 393 577 391 583 386 585 386 584 389 586 388 583 392 585 390 581 396 582 390 579 396 578 390 576 392 574 387 576 386 574 384 577 381 576 381 579 378 578 380 582 375 581 380 584 375 585 380 585 376 589 381 587 380 592 383 589 384 593 387 592 388 594 391 592 393 594 394 591 397 592 396 589 401 590 398 586 404 587 400 583 406 584 402 579 407 580 404 576 406 577 404 576 "/>
    <path id="Block1Jump30"
        fill="none"
        stroke="#F64A8A"
		stroke-width="2px"
		d="M 478 462 L 478 462 476 464 478 462 463 467 478 466 464 470 477 470 464 474 477 475 464 477 477 479 464 481 476 483 464 484 475 487 482 487 497 483 500 486 497 481 496 486 493 482 492 487 489 483 488 487 486 484 485 488 482 485 481 489 479 486 477 490 475 487 464 487 475 490 464 490 462 493 449 496 449 494 451 497 453 493 455 496 458 492 460 495 462 491 464 494 469 495 470 492 475 492 464 492 475 495 464 496 474 499 464 500 473 503 464 504 472 507 463 508 471 511 463 511 471 514 463 515 470 518 463 519 469 522 462 523 469 526 462 527 468 530 461 531 468 533 461 535 467 537 461 539 467 541 461 543 466 544 461 547 467 548 461 551 467 552 462 555 468 555 464 558 469 559 467 562 472 562 470 564 475 564 474 566 478 565 478 567 481 566 482 568 484 565 486 567 487 564 490 565 489 562 493 562 490 559 495 559 494 544 490 539 481 539 478 548 484 550 487 545 486 545 487 547 484 548 485 551 483 549 479 551 482 548 476 549 480 547 475 544 481 544 477 540 481 542 480 538 484 540 484 536 486 539 488 537 488 541 492 538 490 542 495 541 491 545 498 544 492 548 498 548 492 551 497 552 492 554 496 557 491 557 493 558 491 557 "/>
    <path id="Block1Jump31"
        fill="none"
        stroke="#F64A8A"
		stroke-width="2px"
		d="M 489 442 L 489 442 492 442 489 442 491 445 492 442 494 445 496 441 498 444 499 441 501 444 510 441 524 439 524 437 522 440 520 438 518 441 516 439 514 442 513 439 511 443 509 440 507 443 505 440 503 444 501 441 501 443 501 441 "/>
    <path id="Block1Jump32"
        fill="none"
        stroke="#F64A8A"
		stroke-width="2px"
		d="M 514 442 L 514 442 512 444 514 442 501 446 515 446 502 449 515 450 503 453 516 454 504 456 516 457 504 460 516 461 505 464 517 465 506 467 517 469 507 471 517 473 507 475 517 476 508 479 517 480 509 483 517 484 509 487 518 488 510 491 518 491 510 494 518 495 511 498 518 499 511 502 519 503 512 505 519 507 512 509 515 509 516 526 517 543 518 560 518 569 516 569 514 571 502 571 502 569 505 574 506 569 509 573 510 569 512 573 514 569 516 572 533 571 533 569 530 573 529 569 526 572 525 569 522 572 520 569 518 572 516 569 520 567 516 565 520 563 516 561 520 559 516 557 520 555 516 553 520 552 516 549 520 548 515 545 520 544 515 541 519 540 515 538 519 536 514 534 519 533 514 530 519 529 513 526 519 525 513 522 519 521 512 519 519 517 512 515 519 513 512 511 519 509 520 512 520 508 523 508 522 505 525 506 525 501 528 503 528 498 530 501 531 495 534 499 535 494 538 499 539 492 541 499 543 492 544 499 547 493 546 500 550 493 548 502 554 495 550 504 558 497 552 505 561 500 554 507 563 502 555 509 566 506 555 512 567 509 556 514 568 513 557 518 569 517 557 520 568 521 558 523 568 525 558 526 566 529 558 530 565 533 557 533 564 537 556 537 561 541 555 541 559 544 554 544 558 548 552 548 555 551 551 552 554 554 550 556 553 558 549 560 553 561 549 564 553 564 551 568 555 566 552 571 558 569 555 575 560 570 558 576 563 570 563 576 566 570 567 574 568 569 571 567 571 558 569 555 563 555 561 558 562 563 561 563 562 562 559 561 563 556 559 557 565 555 564 553 565 555 568 554 568 557 572 555 569 560 574 559 570 563 573 564 570 565 572 568 569 568 569 572 569 571 569 572 "/>
    <path id="Block1Jump33"
        fill="none"
        stroke="#F64A8A"
		stroke-width="2px"
		d="M 585 465 L 585 465 588 464 585 465 596 459 606 461 610 466 608 465 608 462 606 463 605 459 603 462 601 458 599 461 597 457 597 462 594 458 594 463 590 460 591 464 587 462 589 466 585 466 587 469 584 470 586 472 584 474 587 475 586 477 589 477 589 480 591 479 592 482 594 481 596 483 598 481 600 482 605 478 605 472 600 468 594 471 595 474 600 474 599 475 598 473 597 477 596 473 594 474 595 472 595 469 597 470 598 467 600 469 602 467 602 470 605 470 603 473 608 473 603 475 606 477 603 477 604 480 601 480 600 482 600 482 600 482 "/>
    <path id="Block1Jump34"
        fill="none"
        stroke="#F64A8A"
		stroke-width="2px"
		d="M 590 492 L 590 492 588 493 590 492 582 494 584 491 586 494 587 492 589 495 590 492 602 492 609 490 609 492 607 489 605 493 603 490 601 494 600 491 598 494 596 492 595 495 592 492 591 495 601 496 591 499 601 500 592 502 601 504 592 506 601 508 592 510 601 512 592 514 600 516 593 517 600 520 593 521 600 524 593 525 600 528 593 529 600 532 594 533 599 536 594 537 599 540 594 541 599 544 594 546 599 547 594 550 599 551 594 554 598 555 594 558 598 559 594 562 598 563 594 566 588 568 583 569 583 566 585 571 587 566 589 570 591 566 593 569 595 566 597 569 600 565 602 569 604 565 606 569 608 565 610 569 612 564 614 568 616 564 616 566 616 564 "/>
    <path id="Block1Jump35"
        fill="none"
        stroke="#F64A8A"
		stroke-width="2px"
		d="M 617 493 L 617 493 620 492 617 493 618 490 621 493 621 489 624 492 625 488 628 489 637 485 640 482 637 485 635 484 634 488 631 486 630 490 627 487 626 492 639 486 627 495 639 491 627 498 639 495 628 501 639 499 628 504 639 504 628 506 638 508 629 509 638 512 629 512 635 514 635 531 634 548 634 565 632 565 621 566 621 564 622 567 625 565 627 568 630 565 632 568 641 565 645 564 645 562 644 566 641 563 640 567 638 564 636 568 632 566 632 565 635 568 636 565 632 563 636 561 632 559 636 557 632 555 636 553 632 551 637 550 632 548 637 546 632 544 637 542 632 540 638 538 632 536 638 534 632 532 638 531 631 528 639 527 631 524 639 524 630 520 639 520 630 516 640 517 629 512 632 513 629 512 "/>
    <path id="Block1Jump36"
        fill="none"
        stroke="#F64A8A"
		stroke-width="2px"
		d="M 641 515 L 641 515 640 513 641 515 639 512 642 511 641 509 644 508 642 505 646 504 644 502 648 502 647 499 650 499 649 495 653 497 652 493 656 495 656 491 659 493 660 489 662 492 664 489 666 492 668 489 669 493 672 490 672 494 675 491 674 496 679 493 677 499 682 495 679 502 685 498 681 505 688 501 682 508 691 504 683 511 693 507 684 513 694 511 685 516 696 514 685 520 696 518 685 522 697 522 685 525 697 526 685 528 696 530 684 531 696 534 684 534 695 538 684 537 693 542 684 541 692 546 683 544 691 549 683 548 689 552 682 552 687 555 681 555 684 558 679 558 682 562 676 564 671 567 665 566 659 559 660 552 665 548 671 550 671 555 666 556 666 555 668 558 668 555 672 557 669 553 675 554 669 552 674 550 669 551 671 548 668 550 667 547 664 550 663 548 663 553 660 550 662 555 657 552 662 556 655 556 662 557 657 560 662 560 659 563 663 562 661 566 665 564 665 568 668 565 669 569 671 565 673 567 674 564 677 565 677 562 680 563 678 560 680 561 678 560 "/>
    <path id="Block1Jump37"
        fill="none"
        stroke="#F64A8A"
		stroke-width="2px"
		d="M 726 489 L 726 489 729 488 726 489 739 486 751 488 751 472 757 466 764 466 768 470 767 477 761 478 760 477 764 480 763 477 768 478 765 475 771 474 766 473 771 470 765 470 768 466 763 467 764 465 759 467 758 464 757 468 754 466 755 470 751 468 754 472 749 471 753 475 747 475 753 477 748 479 753 480 748 483 753 483 750 486 754 486 753 491 752 492 755 488 750 490 749 487 747 488 745 486 743 488 741 485 738 487 737 485 735 487 733 486 732 489 729 488 730 490 725 489 727 493 722 492 724 495 720 494 722 499 717 497 721 502 715 501 720 504 713 504 719 508 711 508 719 511 711 512 718 514 710 516 718 517 710 520 719 521 710 524 719 523 712 528 720 526 713 531 721 529 716 535 722 532 718 538 724 535 722 540 726 538 725 542 728 540 729 543 732 541 735 543 747 538 756 525 759 513 754 502 746 496 737 496 732 501 732 507 735 512 741 511 744 509 743 503 739 506 743 502 742 505 746 505 743 506 746 509 742 509 742 512 740 511 738 514 738 511 734 512 735 508 731 510 734 506 729 506 734 504 729 502 734 503 731 499 734 500 734 496 736 498 738 494 739 496 742 494 743 496 745 495 747 498 750 496 749 500 754 498 751 503 757 501 752 505 759 504 753 508 761 508 754 510 762 512 755 513 762 516 754 516 762 520 754 520 761 524 754 524 760 528 752 528 757 531 750 531 754 534 749 533 751 537 747 535 748 539 745 537 744 541 742 540 740 543 738 541 735 544 733 541 731 544 734 546 730 548 733 549 730 552 733 553 729 557 732 557 729 561 732 561 728 565 730 568 727 573 728 574 727 570 731 572 728 565 734 570 732 563 736 568 735 561 740 567 739 559 743 566 742 558 747 564 745 556 751 563 749 555 754 561 753 553 757 561 756 551 760 560 760 551 762 560 764 550 764 560 768 549 766 560 772 549 767 560 776 551 768 560 779 554 772 561 781 558 774 563 782 561 776 565 783 566 776 568 782 570 777 572 782 574 776 575 780 577 774 579 778 581 773 581 776 584 770 584 773 587 763 592 753 597 737 599 725 595 716 586 716 571 725 562 726 563 723 562 723 565 720 564 721 568 717 567 720 571 714 569 719 574 711 574 719 577 710 578 719 578 711 581 719 581 712 585 719 583 713 589 721 586 716 592 723 590 720 594 726 593 723 596 729 595 728 598 734 597 734 599 739 598 739 600 743 597 744 599 746 597 748 599 750 596 752 598 754 596 757 597 757 594 761 596 760 592 764 594 763 591 768 591 766 588 771 588 769 586 771 587 769 586 "/>
    <path id="Block1Jump38"
        fill="none"
        stroke="#F64A8A"
		stroke-width="2px"
		d="M 780 389 L 780 389 "/>
    <path id="Block1Jump39"
        fill="none"
        stroke="#F64A8A"
		stroke-width="2px"
		d="M 292 665 L 292 665 295 666 292 665 294 669 297 665 297 669 302 665 301 669 307 665 305 669 311 665 309 669 320 664 314 669 328 664 315 672 318 675 319 691 320 707 321 723 321 736 320 749 314 767 307 773 297 775 288 771 281 761 281 752 286 744 292 742 301 744 302 750 300 753 293 753 292 750 293 755 294 752 296 755 297 753 300 754 300 750 303 752 300 747 305 748 297 745 304 744 297 745 301 741 296 744 296 740 293 743 291 741 289 743 286 743 287 745 282 746 285 749 280 749 284 752 278 753 284 755 277 757 284 758 277 761 285 762 279 765 287 766 282 768 288 769 286 772 291 771 289 774 294 773 294 776 297 773 298 776 301 772 302 777 304 771 306 776 307 770 310 775 308 768 313 773 310 766 316 770 312 763 318 766 314 761 319 763 315 757 320 759 316 754 321 755 317 751 322 751 317 747 323 747 318 744 323 743 318 740 323 739 319 737 323 735 319 733 323 731 319 729 323 727 319 725 323 723 319 721 323 719 319 717 323 715 319 713 323 711 318 708 323 707 318 704 323 703 318 700 322 699 317 696 322 696 317 691 322 691 316 686 322 687 316 680 321 683 315 675 321 679 326 677 323 671 329 666 316 673 330 670 319 676 332 674 321 679 333 677 323 683 335 680 326 686 336 684 328 690 338 687 330 693 340 691 331 696 342 694 333 699 344 698 335 702 345 701 337 706 347 704 340 709 348 708 341 712 350 712 343 716 352 715 345 719 354 719 347 723 356 722 349 726 358 726 351 730 360 729 354 733 363 733 355 737 364 737 357 740 366 740 359 744 368 744 361 748 370 747 363 751 372 751 374 754 374 737 374 721 374 704 374 687 377 674 386 665 398 662 405 663 410 667 410 673 406 678 397 680 391 677 391 671 394 669 396 670 390 669 395 671 387 673 394 672 388 677 394 675 392 680 395 677 395 681 397 678 400 681 401 678 403 680 404 677 407 679 407 673 410 678 407 670 413 675 406 668 415 671 406 667 414 667 406 667 412 664 406 667 408 662 404 666 404 661 402 665 399 661 398 665 395 661 394 664 391 662 391 664 387 663 387 666 384 665 384 668 381 667 382 670 378 670 380 674 375 673 379 677 373 677 378 680 373 681 377 684 372 685 377 687 372 689 376 692 372 693 376 696 372 697 375 700 371 701 375 703 371 705 375 707 371 709 375 711 372 713 375 715 372 717 375 719 372 721 375 723 372 725 375 727 372 729 375 731 372 733 375 735 372 737 375 739 372 741 376 743 372 746 376 747 372 749 376 752 372 750 376 757 374 755 376 757 "/>
    <path id="Block1Jump40"
        fill="none"
        stroke="#F64A8A"
		stroke-width="2px"
		d="M 372 751 L 372 751 371 754 372 751 365 755 374 755 367 759 376 759 369 762 377 763 370 766 378 767 372 770 378 771 374 773 379 775 377 775 379 775 "/>
    <path id="Block1Jump41"
        fill="none"
        stroke="#F64A8A"
		stroke-width="2px"
		d="M 419 674 L 419 674 421 672 419 674 427 669 436 669 441 672 443 675 444 675 442 674 442 671 439 672 439 668 436 671 436 666 433 670 432 666 431 671 428 666 427 671 424 668 425 673 421 671 423 675 419 674 421 678 418 678 420 680 418 682 421 684 420 686 423 686 423 689 425 689 426 691 429 690 430 692 432 689 434 691 439 684 439 681 434 677 430 677 428 683 433 683 433 684 431 682 431 685 430 682 427 683 429 681 427 679 430 679 431 677 433 678 435 676 435 679 439 678 436 681 441 682 437 683 441 686 436 687 438 689 435 688 434 691 434 690 434 691 "/>
    <path id="Block1Jump42"
        fill="none"
        stroke="#F64A8A"
		stroke-width="2px"
		d="M 424 700 L 424 700 422 702 424 700 415 703 417 700 419 703 420 700 422 704 424 700 426 702 443 699 443 701 441 698 439 702 437 699 436 703 433 700 432 703 429 700 428 704 426 700 424 704 435 705 424 708 435 709 425 711 434 713 425 715 434 717 425 719 434 721 425 723 433 725 426 726 433 729 426 730 433 733 426 734 433 737 427 738 433 741 427 742 433 745 427 746 433 749 428 750 433 752 428 754 433 756 428 759 432 760 428 763 432 764 428 767 432 768 428 771 431 772 428 775 422 777 417 778 417 775 419 779 421 775 423 778 425 775 427 778 429 775 431 777 434 774 436 777 438 774 440 777 442 774 444 777 446 773 448 777 450 772 450 775 450 772 "/>
    <path id="Block1Jump43"
        fill="none"
        stroke="#F64A8A"
		stroke-width="2px"
		d="M 464 708 L 464 708 466 710 464 708 468 711 474 703 484 696 494 694 503 697 510 703 511 712 504 719 498 721 490 716 490 709 499 706 501 709 499 712 498 712 503 710 499 708 502 706 497 707 497 705 495 708 493 705 493 709 490 708 492 711 488 711 492 713 488 715 493 715 490 719 494 717 493 721 497 719 498 722 500 719 502 722 502 718 506 721 504 717 509 718 506 715 512 716 507 712 514 712 507 710 515 708 508 707 514 704 507 706 512 701 506 703 509 698 504 699 505 697 502 698 501 695 499 696 497 694 495 695 493 693 491 696 489 694 488 697 485 695 484 698 481 696 482 700 477 698 479 702 473 700 476 705 470 702 474 708 467 705 473 711 464 708 471 714 462 711 470 717 460 714 469 720 458 718 468 723 457 722 467 726 456 725 467 729 456 729 467 732 455 733 467 735 456 737 467 738 456 741 468 741 457 745 468 744 458 749 469 747 459 753 469 751 461 756 471 754 463 759 472 757 466 763 473 760 468 765 475 763 472 768 476 765 475 770 479 768 479 772 481 770 482 773 484 771 486 774 488 772 489 774 491 771 494 773 494 770 498 773 497 768 501 772 500 765 501 768 500 765 "/>
    <path id="Block1Jump44"
        fill="none"
        stroke="#F64A8A"
		stroke-width="2px"
		d="M 533 716 L 533 716 536 717 533 716 537 717 544 707 552 702 564 700 571 703 580 711 582 723 579 730 569 736 553 736 545 731 545 722 550 718 556 720 558 723 557 726 551 728 551 727 554 729 554 725 559 726 555 724 561 722 555 722 557 719 553 720 553 717 550 719 549 717 548 721 545 719 547 723 542 722 546 725 541 726 546 727 541 730 547 729 543 733 548 731 547 735 551 732 551 737 554 733 555 737 557 735 558 738 560 736 563 738 565 736 567 738 569 735 571 737 572 734 574 736 574 732 578 733 576 729 582 731 577 727 584 728 577 724 586 725 578 722 587 721 577 719 587 717 577 718 586 713 577 716 584 710 575 712 581 707 574 710 578 704 572 707 574 702 570 705 570 701 567 703 567 700 564 702 563 699 561 701 559 699 557 702 554 700 554 703 551 701 550 705 547 704 548 707 544 706 546 710 540 708 543 713 537 711 542 716 535 714 540 719 532 717 539 722 530 721 539 725 529 724 538 728 527 728 538 732 526 732 538 735 525 736 538 737 525 740 537 740 526 744 538 744 527 748 538 746 528 752 538 750 530 756 540 753 531 759 540 757 534 762 541 759 536 766 543 762 539 768 545 765 542 770 547 767 545 772 549 769 549 774 553 771 554 776 556 773 557 777 560 774 561 778 563 775 566 778 567 774 569 777 570 773 573 775 573 771 577 773 575 770 580 770 577 767 582 767 578 755 570 751 561 754 560 760 562 763 568 764 570 758 569 757 572 761 568 759 570 765 567 761 567 767 565 762 563 765 563 761 560 763 561 760 558 759 561 757 559 755 563 755 561 752 565 754 564 750 568 754 569 748 571 754 573 749 573 755 576 751 575 756 580 754 577 758 582 757 578 760 583 761 579 763 582 765 578 766 580 767 578 766 "/>
    <path id="Block1Jump45"
        fill="none"
        stroke="#F64A8A"
		stroke-width="2px"
		d="M 606 667 L 606 667 608 669 606 667 623 666 606 671 622 670 606 674 621 674 607 678 620 678 607 681 619 682 607 685 619 686 607 689 618 690 608 692 618 694 608 695 617 698 608 699 617 702 608 703 616 706 608 707 615 710 608 711 614 714 608 715 614 717 607 718 614 721 607 722 613 725 607 726 613 729 607 730 613 733 607 734 613 737 607 738 612 741 607 742 612 745 607 746 610 747 607 746 "/>
    <path id="Block1Jump46"
        fill="none"
        stroke="#F64A8A"
		stroke-width="2px"
		d="M 610 755 L 610 755 608 757 610 755 601 760 599 766 601 772 602 772 599 770 601 768 597 767 601 766 597 763 602 763 599 760 603 761 601 758 605 759 605 756 607 758 609 755 610 758 613 755 613 760 617 757 615 761 620 759 616 764 622 763 618 766 623 767 618 769 623 772 617 770 621 775 618 774 612 776 607 773 607 767 613 767 614 771 613 765 611 768 612 764 610 768 608 763 608 768 605 766 607 769 605 770 607 771 606 774 610 773 608 777 611 773 613 779 613 773 616 779 615 772 620 776 617 771 619 773 617 771 " />
</svg>
