<?xml version="1.0" encoding="UTF-8" standalone="no"?>
<svg xmlns="http://www.w3.org/2000/svg" version="1.1" width="460" height="297">
    <path id="Block1Jump0"
        fill="none"
        stroke="#FEBA35"
		stroke-width="2px"
		d="M 130 123 L 124 128 130 123 137 117 124 128 113 143 109 156 109 174 111 193 113 212 111 227 105 238 92 252 78 262 63 266 46 266 30 261 16 251 5 236 1 222 0 209 4 194 13 181 25 174 39 171 53 172 65 178 72 187 76 198 75 210 70 222 61 231 50 235 38 236 50 235 61 231 70 222 75 210 76 198 72 187 65 178 53 172 39 171 25 174 13 181 4 194 0 209 1 222 5 236 16 251 30 261 46 266 63 266 78 262 92 252 105 238 111 227 113 212 111 193 109 174 109 156 113 143 124 128 137 117 154 115 169 128 187 137 206 140 225 143 242 154 253 165 260 178 261 192 258 207 249 224 240 233 230 236 220 234 211 227 208 218 210 203 216 189 229 177 246 166 262 161 279 160 297 162 315 169 329 180 341 194 347 209 348 223 342 239 334 252 324 259 313 261 301 258 291 250 283 237 279 224 279 208 284 189 294 174 307 160 324 151 343 145 358 144 377 148 396 152 412 153 429 149 444 140 453 129 459 115 460 103 457 92 450 83 441 77 430 75 441 77 450 84 457 92 460 103 459 115 453 129 444 140 429 149 412 153 396 152 377 148 358 144 342 145 324 151 307 160 294 173 284 189 279 208 279 224 283 237 291 250 301 258 313 261 324 259 334 252 343 239 348 222 347 209 340 194 328 180 315 169 297 162 279 160 262 161 245 167 228 177 216 190 209 205 208 219 212 228 221 234 232 236 242 232 250 222 259 204 261 190 259 176 252 164 240 153 222 143 204 140 187 136 169 127 154 115 162 121 169 127 162 121 154 115 154 115 " />
    <path id="Block2Jump1"
        fill="none"
        stroke="#4B6BAF"
		stroke-width="2px"
		d="M 109 105 L 119 106 126 99 119 106 102 104 84 103 66 102 67 114 68 126 42 77 79 123 52 82 91 119 63 86 103 117 75 90 118 116 90 93 133 116 106 95 150 115 126 99 150 115 140 100 146 84 150 76 158 72 140 100 162 50 138 81 165 37 137 66 167 23 136 50 165 16 133 39 162 9 131 29 159 2 144 10 128 19 159 2 149 1 136 1 124 0 111 0 "/>
    <path id="Block2Jump6"
        fill="none"
        stroke="#4B6BAF"
		stroke-width="2px"
		d="M 117 12 L 178 11 119 16 177 14 120 20 175 18 122 23 174 21 123 27 172 25 125 31 171 30 126 35 169 34 128 39 168 38 129 43 167 42 130 47 166 46 131 51 165 51 132 55 164 55 133 59 163 59 134 64 163 64 134 68 162 68 135 73 162 73 135 77 162 77 135 82 162 82 135 86 162 86 148 91 148 95 163 99 134 99 162 95 134 95 162 90 135 91 162 86 159 98 173 105 180 107 196 108 212 108 228 109 229 98 230 87 248 131 218 89 238 129 206 91 227 126 194 93 215 123 182 94 201 121 171 96 188 119 159 98 173 116 159 98 155 123 148 136 144 142 138 147 155 123 136 167 156 136 134 190 157 150 "/>
    <path id="Block2Jump7"
        fill="none"
        stroke="#4B6BAF"
		stroke-width="2px"
		d="M 159 167 L "/>
    <path id="Block2Jump8"
        fill="none"
        stroke="#4B6BAF"
		stroke-width="2px"
		d="M 160 183 L "/>
    <path id="Block2Jump9"
        fill="none"
        stroke="#4B6BAF"
		stroke-width="2px"
		d="M 163 202 L "/>
    <path id="Block2Jump10"
        fill="none"
        stroke="#4B6BAF"
		stroke-width="2px"
		d="M 165 218 L "/>
    <path id="Block2Jump11"
        fill="none"
        stroke="#4B6BAF"
		stroke-width="2px"
		d="M 167 232 L 126 280 168 245 114 296 128 287 142 278 156 268 170 259 114 296 123 291 131 285 123 291 114 296 145 296 152 296 159 296 152 296 145 296 159 296 173 296 187 296 "/>
    <path id="Block2Jump23"
        fill="none"
        stroke="#4B6BAF"
		stroke-width="2px"
		d="M 116 274 L 178 270 117 271 176 267 118 267 175 263 118 263 174 259 119 259 173 255 120 256 172 252 121 252 171 248 122 248 171 244 123 244 170 240 123 240 169 236 124 236 169 232 125 232 168 228 125 228 168 224 126 224 167 220 127 220 167 216 127 216 166 211 128 212 166 207 128 208 166 203 129 204 165 199 129 200 165 195 130 195 165 190 130 191 164 186 130 187 164 182 131 183 164 178 131 179 164 173 131 174 163 169 132 170 163 165 132 166 163 161 132 161 163 156 132 157 162 152 133 152 162 148 133 148 162 144 133 143 162 139 133 139 162 135 133 135 162 131 133 130 162 126 133 126 162 122 133 121 162 118 133 117 162 118 150 119 145 108 129 107 112 107 96 107 79 107 63 107 47 107 45 124 43 140 "/>
    <path id="Block2Jump27"
        fill="none"
        stroke="#4B6BAF"
		stroke-width="2px"
		d="M 50 76 L 54 136 54 78 57 135 57 79 61 134 61 81 64 132 64 82 68 131 68 84 72 130 72 85 76 129 75 86 80 128 79 86 84 127 83 87 88 126 87 88 92 125 91 89 96 124 96 89 101 123 100 90 105 122 104 90 109 122 108 91 114 121 113 92 118 121 117 93 122 120 122 93 127 120 126 94 132 120 131 94 136 119 135 95 141 119 140 95 145 119 145 96 150 119 149 96 149 122 153 108 169 107 185 107 201 106 216 106 232 106 248 105 250 88 252 71 "/>
    <path id="Block2Jump30"
        fill="none"
        stroke="#4B6BAF"
		stroke-width="2px"
		d="M 244 76 L 244 136 241 78 241 134 237 79 238 133 233 81 234 131 229 83 231 130 226 84 227 128 222 85 223 127 218 86 219 126 214 87 215 125 210 88 211 124 205 89 207 123 201 90 202 123 197 91 198 122 193 91 194 122 188 92 189 121 184 92 185 121 180 93 180 120 175 93 176 120 171 94 171 120 166 94 167 120 162 94 162 121 158 94 158 121 153 94 153 121 149 94 149 122 149 112 149 102 149 112 149 122 149 122 " />
    <path id="Block3Jump31"
        fill="none"
        stroke="#686AB0"
		stroke-width="2px"
		d="M 177 116 L 167 117 158 118 177 116 158 118 177 116 197 117 177 116 197 117 216 121 197 117 216 121 235 127 216 121 235 127 252 136 235 127 252 136 252 121 252 136 252 121 252 106 252 121 252 106 252 90 252 106 252 90 252 75 252 90 252 75 234 84 252 75 234 84 216 91 234 84 216 91 196 96 216 91 196 96 177 98 196 96 177 98 157 98 177 98 157 98 157 81 157 98 157 81 159 64 157 81 159 64 161 48 159 64 161 48 166 32 161 48 166 32 172 16 166 32 172 16 179 1 172 16 179 1 163 1 179 1 163 1 147 1 163 1 147 1 132 1 147 1 132 1 116 0 132 1 116 0 124 15 116 0 124 15 130 31 124 15 130 31 135 48 130 31 135 48 138 64 135 48 138 64 139 81 138 64 139 81 138 98 139 81 138 98 119 97 138 98 119 97 99 95 119 97 99 95 80 90 99 95 80 90 62 84 80 90 62 84 44 76 62 84 44 76 44 91 44 76 44 91 43 107 44 91 43 107 43 122 43 107 43 122 43 138 43 122 43 138 61 129 43 138 61 129 80 123 61 129 80 123 99 119 80 123 99 119 119 117 99 119 119 117 139 118 119 117 139 118 138 136 139 118 138 136 137 154 138 136 137 154 136 172 137 154 136 172 135 190 136 172 135 190 133 208 135 190 133 208 131 226 133 208 131 226 128 244 131 226 128 244 124 262 128 244 124 262 119 279 124 262 119 279 114 297 119 279 114 297 131 296 114 297 131 296 148 296 131 296 148 296 165 296 148 296 165 296 182 296 165 296 182 296 176 279 182 296 176 279 170 262 176 279 170 262 166 244 170 262 166 244 163 227 166 244 163 227 161 209 163 227 161 209 160 191 161 209 160 191 159 173 160 191 159 173 158 155 159 173 158 155 157 137 158 155 157 137 156 119 157 137 156 119 157 128 157 137 157 128 156 119 156 119 " />
</svg>
