<?xml version="1.0" encoding="UTF-8" standalone="no"?>
<svg xmlns="http://www.w3.org/2000/svg" version="1.1" width="906" height="1306">
    <path id="Block1Jump0"
        fill="none"
        stroke="#D8CAC6"
		stroke-width="2px"
		d="M 483 738 L 474 737 480 745 482 733 501 745 539 756 578 762 617 765 631 766 624 768 575 774 525 781 542 775 559 769 577 763 594 757 611 751 572 743 553 750 534 756 516 763 497 769 478 776 459 782 401 781 419 775 438 769 456 762 474 756 493 750 511 743 530 737 491 741 452 744 413 746 374 747 335 747 296 746 257 741 218 734 195 726 177 732 160 738 142 744 125 750 107 756 90 762 72 768 120 773 137 767 154 761 171 755 188 749 205 743 222 738 239 732 256 726 318 725 299 732 281 738 262 745 244 751 225 757 207 764 188 770 170 777 224 779 243 773 261 766 280 760 299 753 317 747 336 740 354 734 373 728 427 730 409 736 391 743 373 749 355 755 337 761 319 767 301 774 283 780 342 780 360 774 377 768 394 762 412 756 429 750 447 744 464 738 481 732 504 728 517 740 548 751 580 756 619 753 634 749 637 759 630 749 635 763 637 769 625 748 633 770 621 747 625 759 629 770 616 745 623 767 625 772 611 745 615 755 621 773 607 743 614 763 617 773 609 757 602 742 605 752 613 774 598 742 604 759 609 775 600 754 593 740 596 748 602 767 605 775 598 761 589 740 594 755 601 777 593 757 584 738 586 744 592 763 597 777 588 757 579 738 584 752 591 771 593 777 587 765 575 737 583 759 589 779 579 754 571 736 575 748 581 767 585 779 577 761 566 736 573 756 579 775 569 750 561 734 565 744 571 763 577 780 567 758 557 734 563 752 570 771 573 781 566 765 559 746 552 733 555 741 562 760 569 781 558 754 548 733 553 748 560 767 565 782 556 762 544 732 545 737 552 756 558 775 561 782 554 769 548 750 539 731 544 745 550 764 557 783 546 758 535 731 542 752 549 771 553 783 545 766 538 747 530 730 534 741 541 760 547 779 536 754 526 730 532 749 539 768 544 784 535 762 528 743 522 730 524 737 531 756 537 775 540 784 533 769 527 751 517 730 523 745 529 764 536 784 525 758 513 729 515 734 521 753 528 771 532 785 524 766 517 747 508 728 513 741 519 760 526 779 528 785 522 773 515 755 504 728 511 749 518 768 524 785 514 762 507 743 500 727 503 738 510 756 516 775 520 786 512 770 506 751 495 728 502 745 508 764 516 786 504 758 498 740 491 727 493 734 500 753 507 772 512 786 502 766 496 747 487 726 492 741 498 760 505 779 507 786 501 774 494 755 482 727 490 749 497 768 503 786 493 762 486 743 478 726 482 738 489 757 495 776 499 787 491 770 485 751 474 727 480 745 487 764 494 783 483 759 476 740 470 726 472 734 479 753 485 772 490 786 481 766 475 747 465 725 471 742 477 761 484 780 486 787 480 774 473 755 461 726 469 749 476 768 482 787 472 763 465 744 457 725 461 738 468 757 474 776 478 787 470 770 463 751 452 725 459 746 466 765 474 787 462 759 455 740 448 725 451 734 458 753 464 772 470 787 460 767 454 748 444 724 450 742 456 761 463 780 465 787 459 774 452 755 446 736 439 725 442 731 448 750 455 769 461 787 451 763 444 744 435 724 440 738 446 757 453 776 457 787 449 770 442 752 431 724 438 746 445 765 452 787 441 759 434 740 426 724 430 735 437 754 443 772 448 786 439 767 433 748 422 723 429 742 435 761 442 780 444 787 438 774 431 756 425 737 418 724 420 731 427 750 434 769 440 787 429 763 423 744 414 723 419 739 425 757 432 776 435 786 428 771 421 752 409 723 417 746 424 765 431 787 420 759 413 741 405 723 409 735 416 754 422 773 427 786 418 767 412 748 401 723 408 743 414 761 421 780 423 787 416 775 410 756 403 737 396 723 399 731 406 750 412 769 418 786 408 763 402 744 392 722 398 739 404 758 411 776 414 786 407 771 400 752 388 722 390 728 396 746 403 765 410 786 399 760 392 741 383 722 388 735 395 754 401 773 406 786 397 767 391 748 379 722 386 743 393 762 399 780 402 786 389 756 382 737 375 722 378 731 385 750 391 769 397 786 387 763 381 745 370 721 377 739 383 758 390 777 393 786 386 771 379 752 373 733 366 721 369 728 375 747 382 765 389 786 378 760 371 741 362 721 367 735 374 754 380 773 384 786 376 767 369 748 358 721 365 743 372 762 378 781 368 756 361 737 353 721 357 732 364 750 370 769 376 786 366 764 360 745 349 720 356 739 362 758 369 777 372 786 365 771 358 752 352 734 345 720 347 728 354 747 361 766 367 786 356 760 350 741 340 720 346 735 352 754 359 773 363 786 355 768 348 749 336 720 344 743 351 762 357 781 347 756 340 737 332 720 336 732 343 751 349 770 355 786 345 764 339 745 328 720 335 739 341 758 348 777 350 785 344 772 337 753 330 734 323 719 326 728 333 747 339 766 346 786 335 760 329 741 319 720 325 736 331 755 338 774 342 785 334 768 327 749 315 719 317 724 323 743 330 762 336 781 326 757 319 738 311 719 315 732 322 751 328 770 334 786 324 764 317 745 307 720 313 740 320 759 327 778 329 785 322 772 316 753 309 734 302 719 305 728 312 747 318 766 325 785 314 761 308 742 298 720 304 736 310 755 317 774 321 785 313 768 306 749 294 720 296 725 302 744 309 763 315 781 305 757 298 738 290 719 294 732 300 751 307 770 312 785 303 764 296 746 285 720 292 740 299 759 305 778 308 785 301 772 295 753 288 734 281 719 284 729 291 748 297 766 304 785 293 761 287 742 277 720 283 736 289 755 296 774 299 785 292 768 285 750 279 731 273 720 275 725 281 744 288 763 295 785 283 757 277 738 268 719 273 733 279 751 286 770 291 785 282 765 275 746 264 720 271 740 278 759 284 778 287 785 280 772 274 753 267 735 260 720 263 729 270 748 276 767 282 784 272 761 266 742 256 719 262 736 268 755 275 774 278 785 271 769 264 750 252 720 253 725 260 744 266 763 274 784 262 757 256 738 247 720 252 733 258 752 265 771 270 784 261 765 254 746 243 720 250 740 257 759 263 778 266 785 259 773 253 754 246 735 239 720 242 729 249 748 255 767 261 784 251 761 245 742 234 719 240 737 247 756 254 775 257 785 249 769 243 750 230 720 232 725 239 744 245 763 253 784 241 758 235 739 226 720 231 733 237 752 244 771 248 784 240 765 233 746 222 720 229 741 236 760 242 779 244 784 238 773 232 754 225 735 218 720 221 729 228 748 234 767 240 784 230 762 223 743 214 720 219 737 226 756 232 775 236 784 228 769 222 750 215 731 209 720 211 726 218 745 224 764 231 784 220 758 214 739 205 720 210 733 216 752 223 771 227 784 219 765 212 747 201 719 208 741 215 760 221 779 223 784 211 754 204 735 197 720 200 730 206 749 213 767 219 784 209 762 202 743 192 720 198 737 205 756 211 775 214 784 207 769 201 751 194 732 188 720 190 726 197 745 203 764 210 783 199 758 193 739 184 720 189 734 195 752 202 771 206 783 198 766 191 747 180 720 187 741 193 760 200 779 189 754 183 736 175 720 179 730 185 749 192 768 197 783 188 762 181 743 171 720 177 737 184 756 190 775 193 782 186 770 180 751 167 720 169 726 176 745 182 764 189 783 178 758 172 739 163 721 167 734 174 753 181 771 184 782 176 766 170 747 159 721 166 741 172 760 180 782 168 755 162 736 155 722 158 730 164 749 171 768 176 782 167 762 160 743 151 722 156 738 163 757 169 775 171 781 165 770 159 751 147 722 155 745 161 764 167 782 157 758 150 740 142 723 146 734 153 753 159 772 163 781 155 766 149 747 139 724 145 742 151 760 158 781 147 755 141 736 135 724 137 730 143 749 150 768 154 780 146 762 139 743 130 725 135 738 142 757 148 776 138 751 127 726 133 745 140 764 145 780 136 759 129 740 123 726 125 734 132 753 138 772 141 779 134 766 128 747 119 728 124 742 130 761 137 780 126 755 115 729 122 749 129 768 132 779 125 763 118 744 111 729 114 738 121 757 128 778 116 751 107 731 112 746 119 765 123 778 115 759 103 732 111 753 117 772 119 778 113 767 107 748 100 733 103 742 109 761 115 778 105 755 96 735 101 750 108 769 111 777 104 763 92 736 99 757 106 776 95 752 88 737 91 746 98 765 102 776 94 759 87 738 83 750 67 759 56 760 62 772 56 755 67 772 60 752 71 773 67 761 63 750 75 773 69 754 67 748 73 759 80 774 77 765 70 747 84 775 78 758 74 744 82 763 89 775 87 769 80 750 77 742 84 756 93 776 88 761 81 741 97 775 90 754 85 739 94 763 89 754 87 744 " />
    <path id="Block2Jump0"
        fill="none"
        stroke="#FE370F"
		stroke-width="2px"
		d="M 87 744 L 64 741 73 745 70 737 66 746 75 742 83 740 120 727 159 721 198 718 237 717 276 717 315 717 354 718 393 719 432 721 471 724 510 727 549 732 588 738 627 745 666 753 684 757 668 752 652 748 634 747 636 741 617 745 619 737 600 742 603 734 584 739 586 731 568 737 569 728 553 734 553 727 536 732 536 725 519 730 519 724 502 728 502 723 485 724 468 723 451 722 434 721 417 720 400 719 383 718 366 717 349 719 348 714 331 719 331 714 314 719 314 713 297 719 297 713 280 719 280 712 263 719 263 712 247 719 246 711 230 719 230 711 213 719 212 712 196 720 196 713 179 720 179 714 162 722 162 716 145 721 128 723 113 726 97 730 83 740 82 735 47 754 23 764 36 756 37 764 52 747 54 763 68 740 68 746 82 735 83 740 87 748 78 746 42 762 24 772 24 755 26 773 26 753 31 773 29 751 35 773 32 749 39 773 35 747 43 773 39 745 47 773 42 743 51 773 46 741 54 772 50 739 58 771 54 737 61 766 58 735 63 761 62 733 66 756 66 732 70 753 70 730 74 751 73 729 78 750 76 728 83 749 78 727 87 748 80 726 91 746 82 725 94 744 85 724 98 740 87 723 101 739 91 722 104 738 95 721 107 737 100 720 111 737 104 718 114 736 108 717 117 736 112 716 120 736 116 715 123 735 120 714 126 735 124 713 130 734 128 713 134 734 132 712 138 733 136 711 142 733 140 710 146 732 144 710 150 732 148 709 153 731 152 708 157 731 156 708 161 731 160 707 165 730 164 707 169 730 168 706 173 730 172 706 177 730 176 705 181 729 180 705 185 729 184 705 189 729 188 704 193 729 192 704 197 729 196 704 201 728 200 703 205 728 204 703 209 728 208 703 213 728 212 703 217 728 216 703 221 728 220 702 225 728 224 702 229 728 228 702 233 728 232 702 237 728 236 702 241 728 240 702 244 728 244 702 248 728 248 702 252 728 252 702 256 728 256 702 260 728 260 703 264 728 264 703 268 728 268 703 272 728 272 703 276 728 276 703 280 728 280 703 284 728 284 703 288 728 288 703 292 728 292 703 296 728 296 704 300 728 300 704 304 728 304 704 308 728 308 704 312 728 312 704 316 728 316 704 320 728 320 704 324 728 324 704 328 728 328 705 332 728 332 705 337 728 336 705 341 728 340 705 345 728 344 705 349 728 348 705 353 729 352 705 357 729 356 706 361 729 360 706 365 729 364 706 369 729 368 706 373 729 372 706 377 729 376 707 381 729 380 707 385 730 384 707 389 730 389 707 393 730 393 707 397 730 397 707 401 730 401 708 405 730 405 708 409 731 409 708 413 731 413 708 417 731 417 709 421 731 421 709 425 731 425 709 429 732 429 709 433 732 433 709 437 732 437 710 442 732 441 710 446 732 445 710 450 733 449 710 454 733 452 711 458 733 456 711 462 733 460 711 466 734 464 711 470 734 468 712 474 734 472 712 478 735 476 712 482 735 480 712 486 735 485 713 490 736 489 713 494 736 493 713 498 736 497 713 502 737 501 714 506 737 505 714 510 738 509 714 514 738 513 715 518 739 517 715 522 739 521 715 525 740 525 716 529 740 529 716 533 741 533 716 537 741 537 716 541 742 541 717 545 742 545 717 548 743 549 717 552 743 554 718 555 744 558 718 559 744 562 719 562 745 566 719 566 745 570 719 569 746 574 720 573 747 578 721 576 747 582 721 580 748 586 722 584 748 590 722 587 749 594 723 591 749 598 724 595 750 602 724 598 751 606 725 602 751 610 726 606 752 614 727 610 752 618 728 614 753 622 729 618 754 626 729 622 754 630 730 626 755 634 731 630 756 638 732 634 756 642 733 638 757 646 735 642 758 650 736 646 758 654 737 650 759 657 738 654 759 661 739 658 760 664 740 662 761 668 742 666 761 671 743 670 762 675 744 675 763 678 745 679 763 681 747 683 764 681 747 679 763 683 754 678 759 678 759 "/>
    <path id="Block2Jump1"
        fill="none"
        stroke="#FE370F"
		stroke-width="2px"
		d="M 604 735 L "/>
    <path id="Block2Jump2"
        fill="none"
        stroke="#FE370F"
		stroke-width="2px"
		d="M 530 712 L "/>
    <path id="Block2Jump3"
        fill="none"
        stroke="#FE370F"
		stroke-width="2px"
		d="M 456 687 L "/>
    <path id="Block2Jump4"
        fill="none"
        stroke="#FE370F"
		stroke-width="2px"
		d="M 381 664 L "/>
    <path id="Block2Jump5"
        fill="none"
        stroke="#FE370F"
		stroke-width="2px"
		d="M 307 639 L "/>
    <path id="Block2Jump6"
        fill="none"
        stroke="#FE370F"
		stroke-width="2px"
		d="M 233 616 L "/>
    <path id="Block2Jump7"
        fill="none"
        stroke="#FE370F"
		stroke-width="2px"
		d="M 158 591 L 162 600 166 592 157 596 166 599 177 604 141 589 108 568 78 542 53 511 34 477 22 439 21 400 30 362 47 327 72 296 99 272 132 251 167 234 202 216 235 194 242 189 267 159 278 130 277 103 270 84 253 59 225 36 219 33 190 23 154 22 123 30 108 39 93 52 80 79 80 109 92 134 114 154 141 164 166 161 178 155 189 140 193 132 189 120 174 96 157 80 150 78 163 85 189 97 179 100 169 103 183 107 211 117 201 119 190 121 214 140 196 136 203 161 189 148 182 172 175 158 157 177 153 163 132 175 133 163 109 168 114 159 90 154 101 144 76 134 91 126 67 112 85 108 62 89 72 89 82 88 66 65 85 70 78 44 92 54 96 28 106 40 119 18 124 30 143 13 145 25 167 10 166 23 191 10 188 25 215 16 210 30 236 28 229 39 255 43 245 52 272 60 260 69 285 81 272 88 294 103 279 106 297 127 280 125 291 150 274 144 279 171 263 161 263 190 249 179 243 205 233 195 222 218 215 207 200 228 195 216 177 238 171 224 156 248 148 232 134 259 125 243 113 269 104 256 92 282 84 272 75 297 66 288 59 313 51 307 46 332 37 328 36 354 26 350 29 376 17 372 25 398 10 396 24 420 9 420 27 441 13 444 34 460 20 467 44 481 31 489 56 500 44 510 71 518 57 531 87 536 74 550 103 554 93 565 120 568 113 580 140 578 133 594 159 590 156 602 177 604 182 613 172 596 177 613 171 593 172 613 169 590 168 613 168 588 163 613 166 586 159 612 164 584 155 611 162 582 151 610 159 580 147 609 157 578 143 608 154 576 139 606 151 574 135 605 148 573 131 603 145 571 128 601 142 570 124 599 139 568 121 597 136 567 117 595 133 565 114 592 130 563 111 590 127 562 107 587 125 560 104 585 122 558 101 582 119 556 98 580 117 554 94 577 114 552 91 575 111 550 88 572 109 547 85 570 106 545 81 567 104 542 78 565 101 539 75 562 99 537 72 560 96 534 69 557 94 531 65 555 92 528 62 552 89 525 59 549 87 522 56 546 84 519 54 543 82 516 52 540 79 514 50 536 77 511 48 533 74 508 45 529 72 505 43 526 70 502 41 522 67 499 39 519 65 496 36 515 63 494 34 512 61 491 32 509 59 488 30 505 57 485 27 502 56 482 25 498 54 480 23 495 52 477 21 491 50 473 19 487 49 470 18 484 47 467 16 480 46 464 14 476 44 461 13 472 43 458 11 469 41 454 10 465 40 451 9 461 39 449 7 457 38 446 6 453 37 443 5 449 36 440 4 445 36 437 3 441 35 435 2 436 34 432 1 432 34 429 1 428 34 426 0 424 33 423 0 420 33 420 0 416 33 416 0 412 33 413 0 408 33 410 0 404 33 407 1 399 34 403 1 395 34 400 2 391 34 397 3 387 35 393 4 383 36 390 5 379 36 387 6 376 37 383 8 372 38 380 9 368 39 376 10 364 39 373 12 360 40 370 14 356 41 366 15 353 43 363 17 349 44 360 18 345 45 356 20 341 46 353 22 338 48 350 24 334 49 347 26 331 51 343 28 327 53 340 29 323 54 337 31 320 56 333 34 316 58 330 36 313 60 328 38 309 62 325 40 306 64 322 43 303 66 319 45 299 68 317 48 296 70 314 50 293 72 312 53 290 75 309 56 287 77 307 58 283 79 304 61 281 82 302 64 278 85 300 67 275 87 298 70 272 90 296 73 269 93 293 76 267 95 291 79 264 98 289 83 261 101 287 86 259 104 285 89 256 107 283 92 254 111 281 95 252 114 279 99 249 117 277 102 247 120 275 105 245 124 274 109 242 127 272 112 240 130 270 116 238 134 269 119 236 137 267 123 234 141 265 126 232 144 264 130 230 148 262 133 229 151 260 137 227 155 259 141 225 158 257 145 224 162 256 148 222 165 254 152 221 168 252 156 219 171 251 160 218 175 249 164 217 178 248 168 216 181 246 172 214 184 245 176 213 187 244 180 212 190 242 183 211 194 240 187 210 198 239 190 208 201 237 193 207 205 235 197 206 209 234 200 204 213 232 203 203 216 230 206 201 220 229 209 200 224 227 212 198 227 225 215 197 231 223 217 195 235 221 220 193 238 219 222 192 242 217 225 190 246 215 227 188 249 212 229 186 253 210 232 184 256 207 234 182 259 205 237 179 263 202 239 177 266 200 242 175 269 197 244 172 272 194 246 169 275 191 249 166 278 188 251 163 280 185 253 161 283 182 255 158 285 179 256 156 287 175 258 153 290 172 260 151 292 168 261 148 294 165 263 145 296 161 264 143 297 157 266 141 299 153 267 138 301 149 268 136 302 145 269 133 303 141 269 130 304 137 270 128 305 133 271 125 305 129 271 122 306 125 294 101 276 66 248 38 214 19 183 13 147 15 106 31 87 48 75 72 75 100 88 132 91 137 108 155 130 164 158 163 174 159 191 148 195 134 190 122 161 95 140 72 159 78 141 76 163 78 142 81 168 80 144 86 172 81 146 90 177 83 148 93 181 85 151 97 185 87 154 100 190 89 158 103 195 92 161 106 199 95 165 108 203 98 169 111 207 102 172 113 211 105 176 116 214 108 179 120 217 112 182 123 220 115 185 126 223 119 187 128 224 123 194 130 224 127 188 132 224 132 193 133 223 136 187 134 223 140 192 137 222 145 186 136 221 149 191 140 219 153 185 139 217 157 189 143 215 160 183 141 213 164 186 146 210 167 181 143 206 170 183 149 203 173 178 145 199 175 180 151 195 177 176 147 191 179 173 149 187 180 169 150 184 181 166 151 180 182 162 152 176 183 159 153 171 184 156 154 167 185 153 154 163 185 150 154 159 185 147 155 154 185 144 155 150 185 142 155 146 185 139 155 141 185 136 154 137 184 134 154 133 184 132 154 129 183 129 153 124 182 127 153 120 181 125 152 116 180 122 152 112 179 120 151 108 177 118 150 104 176 116 149 100 174 115 147 96 172 113 145 93 169 111 143 90 167 109 141 86 164 108 138 84 161 106 136 81 158 104 133 78 155 103 131 76 151 102 128 73 148 101 125 71 144 99 123 69 141 98 120 67 137 97 118 65 133 96 115 64 129 96 113 62 125 95 110 61 121 94 107 59 118 94 105 58 114 93 102 57 110 93 99 56 106 92 97 55 101 92 94 54 97 91 91 54 93 91 88 53 89 91 86 53 85 91 83 53 81 92 81 54 77 92 78 55 72 92 76 56 68 93 73 57 64 94 71 58 60 94 69 60 56 95 67 62 53 96 65 64 49 97 63 66 45 98 61 69 42 99 59 71 38 101 58 74 35 103 55 77 32 105 53 80 29 107 51 83 27 109 49 86 24 111 48 90 22 113 46 93 19 115 45 97 17 118 43 101 15 120 42 105 14 123 41 109 12 126 39 113 11 128 38 117 10 131 37 121 8 134 36 125 7 136 36 129 6 139 35 133 5 143 34 137 4 146 34 141 4 149 33 145 3 152 33 149 2 155 32 153 2 158 32 157 1 161 32 162 1 164 32 166 1 168 32 170 0 171 32 174 0 174 32 178 0 178 33 182 0 181 33 186 0 185 33 190 1 188 34 195 1 191 34 199 2 195 35 203 3 198 36 207 4 201 37 210 5 204 38 214 6 208 39 218 8 211 40 222 9 214 41 226 11 217 43 229 13 219 44 233 15 222 45 236 18 224 47 240 20 226 48 243 22 229 50 247 25 231 52 250 27 233 53 253 30 235 55 257 33 238 57 260 35 240 59 263 38 242 61 266 41 244 64 269 44 246 66 272 47 249 69 275 50 251 72 277 53 253 75 280 56 255 77 282 59 257 80 285 63 259 83 287 66 261 86 289 70 262 89 291 73 264 92 293 77 265 94 295 81 266 96 297 84 267 99 298 88 268 101 300 92 269 104 301 96 270 106 302 100 270 109 304 104 271 112 304 108 271 114 305 112 271 117 306 117 271 120 306 121 271 122 306 125 281 124 291 123 302 123 302 123 "/>
    <path id="Block2Jump8"
        fill="none"
        stroke="#FE370F"
		stroke-width="2px"
		d="M 372 133 L 366 125 364 134 373 128 359 126 377 91 402 60 428 41 459 32 494 35 526 50 533 55 557 79 574 111 579 146 572 177 555 204 526 231 493 253 457 269 421 285 385 300 350 319 317 341 311 346 284 375 266 410 261 445 267 477 284 512 303 541 327 572 353 605 343 587 330 592 329 567 313 576 313 547 298 556 298 527 284 536 282 508 271 516 269 489 259 495 262 470 249 473 259 449 242 448 261 426 243 424 267 406 250 401 276 388 262 380 288 371 277 361 305 354 295 344 322 339 314 329 341 326 335 316 362 314 357 305 384 303 380 294 408 295 402 284 432 286 426 275 456 277 449 266 479 268 473 257 503 258 496 247 525 247 515 235 546 232 533 221 565 216 550 205 580 196 565 186 588 173 575 168 592 150 578 149 592 126 577 129 585 102 570 107 572 81 560 87 557 63 548 71 540 45 533 56 520 32 514 45 497 24 494 38 473 21 473 34 448 21 450 34 425 28 431 40 405 42 414 52 388 59 401 67 373 79 391 85 363 102 374 104 385 106 360 126 371 127 381 127 385 155 393 177 387 179 396 195 414 207 436 204 463 203 468 201 490 188 495 190 510 172 512 166 507 165 500 138 507 130 497 123 492 128 482 120 458 107 476 114 481 105 493 124 503 114 510 135 520 130 510 154 525 154 508 171 523 177 498 184 505 191 513 198 484 195 493 211 466 202 470 218 449 205 447 221 430 205 423 219 408 201 401 210 393 188 384 194 386 168 371 173 382 148 363 150 382 127 371 127 360 126 351 121 356 129 369 166 388 196 412 211 441 215 479 207 498 197 512 182 520 162 518 137 511 125 493 110 465 101 446 98 453 114 450 97 455 116 455 96 456 114 460 96 458 117 464 96 460 118 469 95 462 119 473 96 465 119 477 96 467 120 482 96 470 121 486 97 473 123 490 98 475 124 494 100 478 125 498 101 480 126 502 103 482 128 506 105 484 129 509 107 486 130 513 110 489 132 516 113 491 133 519 115 494 134 522 118 496 136 525 122 499 137 527 125 501 139 529 129 502 141 531 133 502 144 532 137 501 147 533 141 501 149 533 146 501 151 533 150 501 154 534 154 501 156 534 159 501 158 533 163 501 160 533 167 501 162 533 171 501 164 532 176 500 166 531 180 499 168 530 184 498 169 529 188 497 171 527 192 496 173 526 196 495 174 524 200 493 176 521 203 492 178 518 206 490 180 515 209 488 181 511 211 486 182 508 214 485 184 504 216 483 185 500 218 481 186 496 220 479 187 493 221 476 189 489 223 473 190 485 224 470 191 481 225 468 192 476 226 466 193 472 227 464 193 468 228 462 194 464 228 460 194 460 229 458 194 455 229 456 195 451 230 454 195 447 230 452 196 442 230 450 196 438 230 447 196 434 230 445 197 430 229 442 197 425 229 439 197 421 228 436 197 417 227 433 197 413 226 429 197 409 224 426 197 405 223 422 197 401 221 419 196 398 219 415 196 394 216 414 193 391 214 412 191 388 211 410 190 385 208 408 188 382 205 406 187 379 202 403 186 376 198 401 184 374 195 400 181 372 192 398 177 369 188 397 174 367 185 396 171 365 181 395 168 364 177 394 165 362 173 393 162 360 170 393 159 359 166 392 156 358 162 392 154 356 158 391 151 355 154 391 148 354 150 391 145 353 146 390 142 352 142 390 139 352 137 390 136 351 133 390 133 351 129 390 130 351 125 391 127 351 121 391 124 351 117 391 120 351 113 392 117 352 109 392 114 353 105 393 111 354 101 394 107 355 97 394 104 356 93 395 101 358 89 396 98 360 85 397 95 362 82 398 92 364 78 399 89 366 74 401 87 369 71 402 84 371 67 403 82 374 64 404 79 376 60 406 77 379 57 407 74 381 54 409 72 384 50 411 70 387 47 412 67 390 44 414 65 393 41 416 63 396 38 418 61 399 36 420 59 402 33 422 57 405 30 424 55 408 27 426 53 412 25 428 52 415 23 431 50 419 21 433 49 423 19 436 48 427 18 439 46 431 16 441 46 435 15 444 45 439 14 446 44 443 13 449 44 447 13 452 43 451 12 455 43 455 12 459 42 459 12 462 42 464 12 465 42 468 12 468 43 472 12 472 43 476 12 475 43 480 13 478 44 484 13 481 44 488 14 484 45 492 14 487 46 496 15 491 46 500 16 494 47 504 17 497 48 508 18 499 49 512 19 502 50 516 21 505 51 520 22 508 52 524 24 511 53 528 26 514 55 531 28 517 56 535 30 520 58 538 32 522 60 541 35 525 62 545 37 528 64 548 40 530 66 551 43 532 67 554 46 534 69 557 49 537 71 560 52 539 73 563 55 540 76 565 58 542 78 568 62 544 80 571 65 546 82 573 68 548 85 576 71 549 87 578 75 551 89 581 78 552 92 583 82 554 94 585 85 555 97 588 89 557 100 590 92 558 103 592 96 560 106 594 100 561 109 595 104 562 113 597 107 564 116 598 111 565 119 599 115 566 123 600 119 567 126 600 123 568 130 601 127 568 133 601 131 569 136 602 136 569 139 602 140 569 141 602 144 569 144 602 148 569 147 601 152 569 149 601 157 569 152 571 162 559 192 533 222 501 244 466 262 435 274 399 289 363 306 329 326 298 351 270 379 252 413 247 442 252 473 268 509 289 542 312 574 344 603 364 608 339 602 362 603 335 601 360 598 332 600 357 594 328 599 355 591 325 597 353 587 322 595 351 583 319 593 349 580 316 591 346 576 313 589 344 573 310 586 342 569 308 584 339 566 305 581 337 563 303 578 335 559 301 575 332 556 298 572 330 553 296 568 327 550 294 565 325 547 292 562 322 543 289 559 319 540 287 556 317 537 285 552 314 534 283 549 312 531 280 546 309 528 278 543 307 524 276 540 304 521 274 537 302 518 271 534 299 515 269 530 297 512 267 527 294 509 265 524 291 505 263 521 289 502 261 518 286 499 259 514 284 497 257 511 282 494 255 507 281 491 253 503 279 488 251 500 278 486 249 496 276 483 248 492 275 480 246 488 274 478 244 484 273 475 243 480 272 472 241 476 271 470 240 472 271 467 238 468 270 464 237 464 270 461 236 460 269 458 235 456 269 455 234 452 269 452 233 448 268 448 233 444 268 445 233 440 269 442 233 436 269 438 233 431 269 435 233 427 270 431 233 423 270 428 234 419 271 425 235 415 271 422 236 411 272 419 238 407 273 416 239 404 274 413 241 400 275 410 242 396 276 407 244 392 277 405 246 388 278 402 249 385 279 400 251 381 281 397 253 378 282 395 255 374 284 392 257 371 285 390 260 367 287 387 262 364 289 385 265 361 291 382 268 358 293 380 270 355 295 377 273 352 297 375 276 349 300 372 279 346 303 369 282 343 305 366 285 341 308 364 288 338 310 361 291 335 313 359 294 333 316 356 298 330 318 354 301 328 321 352 304 325 323 350 307 323 326 347 311 321 329 345 314 318 332 343 318 316 335 341 321 314 338 339 325 312 341 337 328 310 344 335 332 308 347 333 335 306 350 331 339 304 353 330 342 302 356 328 346 300 359 326 350 298 362 324 353 297 366 322 357 295 369 320 361 293 373 319 364 291 376 317 368 290 380 315 371 288 383 314 375 287 387 312 378 285 391 311 381 284 395 309 385 282 399 308 388 281 402 306 392 279 406 305 396 277 410 304 399 276 414 302 403 274 418 301 407 273 422 300 410 271 426 298 414 270 429 297 418 268 433 295 422 267 437 294 425 266 441 293 429 264 445 291 433 263 449 290 436 261 452 288 440 260 456 287 444 259 460 285 448 258 464 284 451 256 468 282 455 255 471 281 459 254 475 279 463 252 479 278 467 250 482 276 470 249 486 275 474 247 490 273 478 246 494 271 481 244 497 270 485 242 501 268 488 240 505 267 492 239 509 265 495 237 512 263 498 235 516 261 501 234 520 260 503 232 524 258 506 230 527 256 509 228 531 254 512 227 535 251 515 225 538 249 517 223 542 247 520 221 545 244 523 219 548 242 526 216 552 239 528 214 555 237 531 212 558 234 534 209 561 231 536 207 564 229 539 204 567 226 541 201 570 223 544 199 573 220 546 196 576 217 549 193 578 214 551 190 581 211 554 186 583 207 556 184 585 204 558 181 587 200 560 178 589 197 561 175 591 193 563 172 593 189 564 170 594 185 565 167 595 181 566 165 597 177 567 162 598 173 568 159 599 169 568 157 599 165 569 154 600 161 569 152 601 157 579 154 589 154 597 156 597 156 "/>
    <path id="Block2Jump9"
        fill="none"
        stroke="#FE370F"
		stroke-width="2px"
		d="M 636 168 L 675 181 673 171 668 179 678 177 669 172 664 169 687 137 715 110 748 92 781 88 810 91 838 104 863 127 878 155 883 189 876 219 857 249 827 275 792 294 755 306 717 316 678 323 639 331 601 342 565 357 532 379 507 405 488 440 478 478 478 517 485 556 501 592 514 613 507 612 503 598 494 608 494 581 481 588 487 561 472 566 481 539 466 542 477 517 462 518 477 495 461 493 479 474 464 469 484 451 470 445 492 429 481 423 503 408 495 402 517 390 509 382 534 375 526 365 554 363 547 352 574 354 569 341 597 347 592 331 621 340 616 325 645 336 641 321 670 331 666 318 694 327 691 314 719 322 716 310 744 317 740 305 768 311 765 300 792 304 787 293 815 295 807 283 837 283 828 270 856 269 846 257 874 252 860 241 889 232 880 227 871 222 897 209 879 203 897 185 881 184 893 162 879 165 885 139 872 145 874 117 861 127 857 100 847 112 837 88 830 102 813 81 810 97 789 77 788 94 765 75 766 85 767 95 741 81 748 100 720 93 730 109 701 107 714 121 685 126 700 137 673 147 688 155 664 169 683 173 687 191 681 193 690 213 700 215 730 230 757 227 760 233 783 223 787 211 783 200 777 200 770 170 786 173 776 189 789 195 802 202 782 212 792 220 801 228 773 226 782 242 755 231 759 248 736 232 734 248 717 229 711 244 700 220 690 233 689 206 675 214 684 190 666 193 683 173 664 169 655 167 672 203 681 217 701 233 731 240 767 239 787 231 797 214 795 191 785 163 759 162 790 166 760 164 792 170 765 166 795 175 761 167 798 180 762 170 803 186 763 172 810 193 765 176 811 197 766 180 811 201 767 183 811 206 768 186 810 211 769 189 810 215 770 192 810 220 771 196 810 225 773 200 810 230 774 203 808 233 775 207 805 237 776 210 802 240 778 214 799 242 775 215 796 245 773 216 792 247 771 217 788 249 769 218 785 251 767 219 780 252 765 220 776 254 763 220 772 255 760 221 768 256 758 221 764 256 755 222 760 257 753 222 756 257 750 223 751 258 748 223 747 258 745 223 743 258 743 223 739 258 740 223 735 257 737 223 730 257 735 223 726 256 732 222 722 256 729 222 718 255 727 222 714 254 724 221 710 253 722 221 706 251 719 220 702 250 717 219 698 248 714 218 694 246 712 217 691 244 710 216 687 242 708 214 684 239 706 213 681 236 704 211 678 233 702 210 675 230 701 208 672 227 699 206 670 223 698 204 668 220 697 202 666 216 696 200 664 212 695 198 662 208 694 196 660 205 694 194 659 201 693 192 658 196 693 190 656 192 692 187 656 188 692 185 655 184 692 183 655 180 692 181 655 176 692 178 655 171 692 176 655 167 692 174 656 163 692 172 657 159 693 170 659 155 693 167 660 151 694 165 663 147 695 163 665 144 696 160 667 140 697 157 669 137 699 155 671 133 700 152 673 129 702 149 675 126 704 147 677 122 706 144 679 119 708 141 681 115 710 139 684 112 712 136 686 109 715 134 689 106 717 132 692 103 719 130 695 100 721 128 698 97 723 126 701 95 725 124 704 92 728 122 708 90 730 120 711 87 732 118 715 85 735 116 718 83 737 115 722 81 740 113 726 79 742 112 729 77 745 110 733 75 748 109 737 73 750 108 740 71 753 107 744 69 755 107 748 67 758 106 752 66 761 105 756 66 763 105 760 66 766 105 764 66 769 104 769 66 771 104 773 66 774 104 777 67 777 103 781 67 780 103 785 67 784 103 789 68 787 103 793 68 791 103 797 69 794 104 802 70 797 104 806 70 801 104 810 71 804 105 814 72 807 105 818 73 810 106 822 74 813 106 826 75 817 107 830 76 820 108 834 77 823 109 838 78 825 110 841 80 827 111 845 82 830 112 849 84 832 113 853 86 834 115 856 88 837 116 860 90 839 118 863 93 841 119 866 95 843 121 869 98 845 123 872 101 847 125 875 104 850 127 878 107 851 130 880 111 853 132 882 114 855 134 885 118 856 136 887 121 858 139 889 125 860 141 890 129 861 144 892 132 863 147 894 136 864 150 895 140 865 153 897 144 867 156 898 148 868 159 899 152 869 162 900 156 870 165 901 160 870 168 902 164 871 170 903 168 871 173 904 172 872 176 905 176 872 178 905 181 872 181 906 185 872 183 906 189 872 185 906 193 872 188 906 198 872 190 906 202 871 193 906 206 871 196 905 210 870 198 905 214 870 201 904 218 869 204 903 222 868 207 901 226 867 210 900 230 865 213 898 234 864 216 896 238 863 219 894 241 861 222 892 245 860 224 889 248 858 227 887 251 856 230 884 254 855 233 881 257 853 235 878 260 851 238 876 263 849 240 873 266 847 243 870 269 845 245 867 272 843 247 864 275 840 249 860 277 838 251 857 280 835 254 854 282 833 256 851 285 830 258 847 287 828 260 844 289 825 262 840 291 822 264 837 294 819 266 833 296 816 268 830 298 812 270 826 299 809 272 823 301 806 274 819 303 802 276 815 305 799 277 811 306 796 279 808 308 793 280 804 309 790 282 800 311 786 283 796 312 783 284 792 314 780 285 788 315 777 286 784 316 774 288 780 317 771 289 776 319 767 290 772 320 764 291 768 320 761 292 764 321 757 292 761 322 753 293 757 323 749 294 753 324 745 295 749 325 741 296 745 325 737 297 741 326 733 297 737 327 730 298 734 328 726 299 730 329 722 300 726 330 718 300 722 330 714 301 718 331 710 302 714 332 706 303 710 333 702 303 706 334 698 304 702 334 694 305 698 335 690 305 694 336 686 306 690 337 682 306 686 337 678 307 682 338 674 308 678 339 670 308 674 340 666 309 670 340 662 309 666 341 658 310 662 342 654 311 658 343 650 311 654 343 646 312 650 344 642 312 646 345 638 313 643 346 634 313 639 346 630 314 635 347 626 314 631 347 622 315 627 348 618 316 623 349 614 316 619 350 610 317 615 351 607 318 612 352 603 319 608 353 599 320 604 354 595 321 601 355 591 322 597 356 587 324 593 357 583 325 590 358 580 326 587 359 576 328 583 361 572 330 580 362 569 332 577 363 565 334 574 364 561 335 570 366 558 337 567 367 554 339 564 368 550 341 561 370 547 343 558 371 543 345 554 373 539 346 551 375 536 348 548 377 532 350 545 378 529 352 542 380 525 355 540 382 522 357 537 384 519 360 534 386 516 363 532 388 513 365 529 391 510 368 527 393 507 371 524 395 504 374 522 398 501 377 520 400 499 380 517 403 496 384 515 406 494 387 513 408 492 391 512 411 489 394 510 413 487 398 508 416 485 401 506 419 483 405 505 423 480 408 503 427 478 411 501 430 476 414 500 433 474 418 499 436 472 421 497 439 470 425 496 443 468 428 495 446 466 432 494 450 464 436 493 453 463 440 492 456 461 443 491 460 460 447 491 463 459 451 490 467 458 455 489 470 457 459 489 474 456 463 488 477 455 467 488 480 454 471 487 483 454 476 487 486 453 480 487 489 453 484 486 492 453 488 486 495 452 492 486 498 452 496 486 501 452 500 486 505 452 504 486 508 452 509 486 511 452 513 486 515 453 517 487 518 453 521 487 522 453 525 487 525 454 529 488 529 455 533 488 532 455 537 489 535 456 541 490 538 457 545 490 541 458 549 491 544 459 553 492 547 460 557 493 551 461 561 494 554 462 565 495 558 464 569 496 561 465 573 497 565 466 577 499 567 468 580 500 570 469 584 501 573 471 588 502 576 472 592 503 578 474 596 504 581 476 599 505 583 478 603 507 586 481 606 508 588 483 610 509 591 486 613 510 593 489 616 511 595 493 618 513 598 496 621 514 600 500 623 515 602 504 625 516 604 508 627 517 606 512 629 512 618 514 608 512 625 512 625 "/>
    <path id="Block2Jump10"
        fill="none"
        stroke="#FE370F"
		stroke-width="2px"
		d="M 517 704 L "/>
    <path id="Block2Jump11"
        fill="none"
        stroke="#FE370F"
		stroke-width="2px"
		d="M 522 783 L "/>
    <path id="Block2Jump12"
        fill="none"
        stroke="#FE370F"
		stroke-width="2px"
		d="M 527 862 L "/>
    <path id="Block2Jump13"
        fill="none"
        stroke="#FE370F"
		stroke-width="2px"
		d="M 532 941 L "/>
    <path id="Block2Jump14"
        fill="none"
        stroke="#FE370F"
		stroke-width="2px"
		d="M 537 1020 L "/>
    <path id="Block2Jump15"
        fill="none"
        stroke="#FE370F"
		stroke-width="2px"
		d="M 543 1100 L "/>
    <path id="Block2Jump16"
        fill="none"
        stroke="#FE370F"
		stroke-width="2px"
		d="M 477 1101 L "/>
    <path id="Block2Jump17"
        fill="none"
        stroke="#FE370F"
		stroke-width="2px"
		d="M 410 1103 L "/>
    <path id="Block2Jump18"
        fill="none"
        stroke="#FE370F"
		stroke-width="2px"
		d="M 343 1104 L "/>
    <path id="Block2Jump19"
        fill="none"
        stroke="#FE370F"
		stroke-width="2px"
		d="M 276 1106 L "/>
    <path id="Block2Jump20"
        fill="none"
        stroke="#FE370F"
		stroke-width="2px"
		d="M 209 1107 L "/>
    <path id="Block2Jump21"
        fill="none"
        stroke="#FE370F"
		stroke-width="2px"
		d="M 142 1109 L 98 1121 67 1139 43 1165 45 1178 66 1202 96 1222 139 1240 184 1251 195 1252 239 1259 284 1263 328 1266 372 1267 417 1268 461 1268 506 1267 550 1259 594 1249 638 1236 663 1222 691 1192 694 1187 700 1169 694 1150 673 1127 644 1109 600 1102 555 1100 543 1100 555 1100 600 1102 644 1109 673 1127 694 1150 700 1169 694 1187 691 1192 663 1222 638 1236 594 1249 550 1259 506 1267 461 1268 417 1268 372 1267 328 1266 284 1263 239 1259 195 1252 184 1251 139 1240 96 1222 66 1202 45 1178 43 1165 67 1139 98 1121 142 1109 142 1109 " />
    <path id="Block3Jump21"
        fill="none"
        stroke="#2584BB"
		stroke-width="2px"
		d="M 142 1109 L "/>
    <path id="Block3Jump22"
        fill="none"
        stroke="#2584BB"
		stroke-width="2px"
		d="M 208 1108 L "/>
    <path id="Block3Jump23"
        fill="none"
        stroke="#2584BB"
		stroke-width="2px"
		d="M 275 1107 L "/>
    <path id="Block3Jump24"
        fill="none"
        stroke="#2584BB"
		stroke-width="2px"
		d="M 342 1105 L "/>
    <path id="Block3Jump25"
        fill="none"
        stroke="#2584BB"
		stroke-width="2px"
		d="M 409 1103 L "/>
    <path id="Block3Jump26"
        fill="none"
        stroke="#2584BB"
		stroke-width="2px"
		d="M 476 1102 L "/>
    <path id="Block3Jump27"
        fill="none"
        stroke="#2584BB"
		stroke-width="2px"
		d="M 543 1100 L "/>
    <path id="Block3Jump28"
        fill="none"
        stroke="#2584BB"
		stroke-width="2px"
		d="M 477 1101 L "/>
    <path id="Block3Jump29"
        fill="none"
        stroke="#2584BB"
		stroke-width="2px"
		d="M 410 1103 L "/>
    <path id="Block3Jump30"
        fill="none"
        stroke="#2584BB"
		stroke-width="2px"
		d="M 343 1104 L "/>
    <path id="Block3Jump31"
        fill="none"
        stroke="#2584BB"
		stroke-width="2px"
		d="M 276 1106 L "/>
    <path id="Block3Jump32"
        fill="none"
        stroke="#2584BB"
		stroke-width="2px"
		d="M 209 1107 L "/>
    <path id="Block3Jump33"
        fill="none"
        stroke="#2584BB"
		stroke-width="2px"
		d="M 142 1109 L 98 1121 67 1139 43 1165 45 1178 66 1202 96 1222 139 1240 184 1251 195 1252 239 1259 284 1263 328 1266 372 1267 417 1268 461 1268 506 1267 550 1259 594 1249 638 1236 663 1222 691 1192 694 1187 700 1169 694 1150 673 1127 644 1109 600 1102 555 1100 543 1100 555 1100 600 1102 644 1109 673 1127 694 1150 700 1169 694 1187 691 1192 663 1222 638 1236 594 1249 550 1259 506 1267 461 1268 417 1268 372 1267 328 1266 284 1263 239 1259 195 1252 184 1251 139 1240 96 1222 66 1202 45 1178 43 1165 67 1139 98 1121 142 1109 142 1109 " />
    <path id="Block4Jump33"
        fill="none"
        stroke="#2584BB"
		stroke-width="2px"
		d="M 142 1109 L 174 1098 145 1095 115 1103 90 1119 72 1140 65 1158 65 1187 73 1206 84 1221 109 1239 138 1251 167 1260 196 1266 226 1271 255 1275 284 1277 314 1278 343 1279 372 1280 402 1280 431 1279 460 1278 490 1277 519 1273 548 1268 578 1260 607 1251 636 1239 663 1220 682 1194 687 1168 682 1149 679 1143 664 1124 636 1109 606 1101 581 1100 556 1104 541 1105 540 1088 539 1071 566 1104 569 1071 595 1106 599 1073 625 1111 627 1095 629 1078 653 1120 658 1087 674 1133 685 1104 691 1154 699 1142 708 1131 695 1172 707 1172 719 1172 688 1189 703 1213 669 1209 675 1224 680 1239 648 1227 654 1258 620 1235 624 1268 591 1243 595 1276 562 1250 564 1266 565 1283 534 1256 535 1273 536 1289 505 1261 505 1278 506 1295 475 1262 475 1279 476 1296 445 1262 445 1279 446 1296 415 1262 415 1278 416 1295 385 1261 385 1278 386 1295 355 1260 355 1277 355 1294 326 1260 325 1293 296 1259 295 1292 267 1257 265 1290 237 1252 235 1286 208 1249 207 1265 206 1282 179 1244 176 1277 151 1237 146 1269 123 1228 117 1259 97 1217 89 1248 74 1201 62 1229 52 1181 37 1206 63 1152 48 1152 34 1151 50 1146 84 1134 70 1122 57 1110 72 1115 101 1125 97 1109 93 1093 125 1118 122 1085 153 1111 151 1078 181 1108 181 1074 182 1105 153 1109 123 1115 94 1121 83 1126 59 1151 48 1174 49 1183 60 1195 86 1216 114 1231 142 1242 172 1251 201 1257 230 1261 260 1266 289 1269 318 1271 348 1272 377 1273 406 1275 436 1276 465 1277 494 1278 524 1275 553 1269 582 1261 612 1253 641 1244 664 1231 688 1206 700 1191 707 1165 702 1150 674 1120 648 1107 619 1100 590 1096 560 1095 545 1094 537 1108 541 1116 538 1100 540 1107 540 1099 537 1061 541 1106 541 1061 541 1115 544 1061 543 1115 547 1062 546 1115 550 1061 549 1115 553 1061 552 1115 556 1061 555 1114 559 1061 558 1114 562 1061 561 1114 565 1061 564 1114 568 1061 567 1114 572 1061 570 1114 575 1061 573 1114 578 1061 576 1114 581 1061 579 1115 584 1061 582 1115 587 1062 585 1115 590 1062 588 1115 593 1062 591 1115 596 1062 594 1116 599 1063 597 1116 602 1063 600 1117 605 1063 603 1117 608 1064 605 1117 611 1064 608 1118 614 1065 611 1119 617 1065 614 1119 620 1066 617 1120 623 1067 620 1120 626 1067 623 1121 629 1068 626 1122 632 1069 629 1123 635 1069 632 1123 638 1070 635 1124 641 1071 638 1125 644 1072 640 1126 647 1072 643 1127 650 1073 646 1128 653 1074 649 1129 656 1075 651 1129 659 1077 653 1130 662 1078 655 1131 665 1079 657 1132 668 1081 659 1133 671 1082 661 1134 674 1084 663 1135 677 1086 665 1137 680 1088 667 1138 683 1090 668 1140 685 1092 670 1141 688 1095 672 1143 691 1097 673 1144 693 1100 675 1146 696 1102 677 1148 698 1105 678 1150 701 1108 680 1152 703 1111 681 1154 706 1114 683 1156 708 1117 684 1158 710 1120 685 1160 713 1124 687 1162 715 1127 688 1164 717 1130 698 1156 719 1134 695 1162 721 1138 690 1167 722 1143 700 1162 723 1147 695 1166 724 1152 689 1170 725 1157 700 1168 725 1162 695 1171 726 1167 689 1172 726 1171 694 1174 725 1176 688 1174 724 1181 694 1177 723 1186 687 1176 722 1190 692 1180 721 1195 686 1177 719 1199 691 1182 717 1203 685 1179 716 1207 690 1185 714 1211 684 1180 711 1215 688 1187 709 1219 683 1182 707 1222 682 1184 704 1225 680 1186 702 1228 678 1188 700 1231 676 1190 697 1234 674 1192 695 1236 673 1194 692 1239 671 1196 689 1242 669 1198 687 1244 667 1199 684 1247 665 1201 682 1249 663 1203 679 1252 661 1205 676 1254 659 1207 674 1256 657 1208 671 1258 655 1210 668 1260 653 1212 665 1262 651 1213 662 1264 649 1215 659 1266 647 1217 656 1268 645 1218 654 1269 642 1219 651 1270 639 1220 648 1271 636 1220 645 1272 633 1221 642 1273 630 1222 639 1274 628 1223 636 1275 625 1224 633 1276 622 1224 630 1276 619 1225 627 1277 616 1226 624 1278 613 1227 621 1279 610 1228 618 1280 608 1228 615 1281 605 1229 612 1282 602 1230 609 1282 599 1231 606 1283 596 1231 603 1284 593 1232 600 1285 591 1233 597 1286 588 1234 594 1286 585 1234 591 1287 582 1235 588 1288 579 1236 585 1289 576 1236 582 1289 573 1237 579 1290 571 1238 576 1291 568 1238 573 1292 565 1239 570 1292 562 1240 567 1293 559 1240 564 1294 556 1241 561 1294 553 1242 558 1295 550 1242 555 1296 547 1243 552 1296 544 1243 549 1297 542 1244 545 1298 539 1245 542 1298 536 1245 539 1299 533 1246 536 1299 530 1246 533 1300 527 1247 530 1301 524 1248 527 1301 521 1248 524 1302 518 1249 521 1302 515 1249 518 1303 512 1250 515 1303 510 1250 512 1304 507 1251 509 1305 504 1251 506 1305 501 1252 503 1306 498 1252 500 1306 495 1252 497 1306 492 1252 494 1306 489 1252 491 1306 486 1252 488 1306 483 1252 484 1306 480 1252 481 1306 477 1252 478 1306 474 1252 475 1306 471 1252 472 1306 468 1252 469 1306 465 1252 466 1306 462 1252 463 1306 459 1252 460 1306 456 1252 457 1306 453 1252 454 1306 450 1252 451 1306 447 1252 448 1306 444 1252 445 1306 441 1252 442 1306 438 1252 439 1306 435 1252 436 1306 432 1252 433 1305 429 1252 430 1305 426 1252 427 1305 423 1252 424 1305 420 1252 421 1305 417 1252 417 1305 414 1251 414 1305 411 1251 411 1305 408 1251 408 1305 405 1251 405 1305 402 1251 402 1305 399 1251 399 1305 396 1251 396 1305 393 1251 393 1305 390 1251 390 1305 387 1251 387 1305 384 1251 384 1305 381 1251 381 1305 378 1251 378 1305 375 1251 375 1305 372 1251 372 1304 369 1251 369 1304 366 1251 366 1304 363 1250 363 1304 360 1250 360 1304 357 1250 357 1304 354 1250 354 1304 351 1250 351 1304 348 1250 348 1304 345 1250 345 1304 342 1250 342 1304 339 1250 339 1304 336 1250 336 1304 333 1250 333 1304 330 1250 330 1304 327 1250 326 1304 324 1250 323 1303 321 1250 320 1303 318 1250 317 1303 315 1250 314 1303 312 1250 311 1303 309 1250 308 1303 306 1249 305 1303 303 1249 302 1303 300 1249 299 1302 298 1249 296 1302 295 1249 293 1302 292 1249 290 1302 289 1248 287 1302 286 1248 284 1301 283 1248 281 1301 280 1248 278 1301 277 1247 275 1301 274 1247 272 1300 271 1247 269 1300 268 1247 266 1300 265 1246 263 1299 262 1246 260 1299 259 1246 257 1299 256 1245 254 1298 253 1245 251 1298 250 1244 248 1298 248 1244 245 1297 245 1243 242 1297 242 1243 239 1296 239 1243 236 1296 236 1242 233 1296 233 1242 230 1295 230 1241 226 1295 227 1241 223 1294 224 1240 220 1294 221 1240 217 1293 218 1239 214 1293 215 1239 211 1293 212 1239 208 1292 209 1239 205 1292 207 1238 202 1292 204 1238 199 1291 201 1238 196 1291 198 1237 193 1290 195 1237 190 1290 192 1236 187 1289 189 1236 184 1289 186 1235 181 1288 183 1235 178 1288 180 1234 175 1287 178 1234 172 1286 175 1233 169 1286 172 1232 165 1285 169 1232 162 1284 166 1231 159 1283 163 1230 156 1283 160 1230 153 1282 157 1229 150 1281 155 1228 147 1280 152 1227 144 1279 149 1226 141 1278 146 1225 139 1277 143 1225 136 1276 141 1224 133 1275 138 1223 130 1274 135 1222 127 1273 132 1221 124 1272 129 1220 121 1271 127 1219 118 1270 124 1218 115 1269 121 1217 112 1268 118 1216 109 1267 116 1215 106 1266 114 1214 103 1265 111 1213 100 1264 109 1212 97 1262 106 1211 94 1261 104 1210 91 1259 102 1208 88 1258 99 1207 85 1256 97 1206 82 1255 95 1205 79 1253 92 1203 76 1251 90 1202 74 1249 88 1200 71 1247 85 1199 68 1245 83 1197 65 1243 81 1195 63 1241 79 1194 60 1239 77 1192 57 1237 75 1190 54 1235 72 1188 52 1232 70 1187 49 1230 68 1185 46 1227 66 1183 44 1225 64 1181 41 1222 62 1179 39 1220 60 1177 36 1217 58 1175 34 1214 56 1173 31 1212 54 1171 29 1209 53 1167 27 1204 55 1165 27 1198 56 1164 26 1193 58 1162 25 1187 60 1161 25 1182 61 1159 25 1177 63 1158 25 1172 64 1157 25 1167 66 1155 25 1162 68 1154 26 1157 69 1152 27 1152 71 1151 28 1147 73 1150 29 1143 74 1148 30 1138 76 1147 32 1134 78 1146 34 1129 80 1145 36 1125 81 1144 38 1121 83 1142 40 1118 85 1141 43 1114 86 1141 46 1111 88 1140 48 1108 90 1139 51 1105 91 1138 55 1102 87 1131 58 1099 94 1137 61 1097 90 1130 64 1095 97 1136 68 1093 93 1128 71 1091 99 1136 74 1090 96 1127 78 1088 101 1135 81 1087 99 1127 84 1086 103 1135 88 1085 102 1126 91 1084 105 1135 94 1083 104 1126 97 1082 107 1134 101 1081 110 1133 104 1080 112 1132 107 1079 115 1131 110 1078 118 1130 113 1077 121 1129 116 1076 124 1128 119 1075 126 1127 122 1075 129 1127 125 1074 132 1126 128 1073 135 1125 131 1072 138 1124 134 1072 140 1124 137 1071 143 1123 140 1070 146 1122 143 1070 149 1122 146 1069 152 1121 149 1069 155 1121 152 1068 157 1120 155 1068 160 1120 158 1067 163 1119 161 1067 166 1119 164 1066 169 1119 167 1066 171 1119 170 1065 174 1118 173 1065 177 1118 176 1065 180 1118 179 1064 182 1118 182 1064 202 1080 213 1083 253 1083 293 1083 333 1083 373 1083 413 1083 453 1083 493 1083 533 1083 547 1081 575 1053 599 1028 612 1031 620 1035 659 1027 698 1020 736 1009 771 992 801 967 822 936 830 909 829 886 827 879 812 859 805 854 784 846 749 847 711 858 703 861 686 870 724 863 715 836 706 809 720 824 747 854 746 833 745 811 744 790 752 811 770 851 774 831 779 811 783 790 787 812 795 857 804 839 812 820 821 801 816 822 806 864 821 851 837 838 852 825 839 842 813 875 834 869 855 863 876 857 855 869 813 892 835 894 857 895 879 896 855 901 807 911 829 918 850 926 871 934 847 932 797 929 816 942 834 955 853 968 828 961 779 947 795 964 811 981 827 998 804 986 758 963 770 982 782 1001 794 1020 775 1006 737 978 747 1005 758 1033 742 1018 710 987 714 1012 719 1037 706 1022 680 990 680 1013 680 1036 641 1000 642 1017 642 1034 620 1035 616 1027 624 1041 618 1023 626 1042 621 1018 628 1042 625 1014 630 1042 628 1009 633 1042 631 1004 636 1043 635 999 638 1043 639 994 641 1043 643 989 644 1043 646 984 647 1043 650 980 650 1043 655 979 "/>
    <path id="Block4Jump34"
        fill="none"
        stroke="#2584BB"
		stroke-width="2px"
		d="M 653 1044 L 659 980 "/>
    <path id="Block4Jump35"
        fill="none"
        stroke="#2584BB"
		stroke-width="2px"
		d="M 656 1044 L 663 980 "/>
    <path id="Block4Jump36"
        fill="none"
        stroke="#2584BB"
		stroke-width="2px"
		d="M 660 1044 L 667 981 663 1044 671 981 667 1044 674 981 "/>
    <path id="Block4Jump37"
        fill="none"
        stroke="#2584BB"
		stroke-width="2px"
		d="M 671 1045 L 677 981 "/>
    <path id="Block4Jump38"
        fill="none"
        stroke="#2584BB"
		stroke-width="2px"
		d="M 675 1045 L 681 981 "/>
    <path id="Block4Jump39"
        fill="none"
        stroke="#2584BB"
		stroke-width="2px"
		d="M 679 1045 L 684 981 "/>
    <path id="Block4Jump40"
        fill="none"
        stroke="#2584BB"
		stroke-width="2px"
		d="M 683 1045 L 687 981 "/>
    <path id="Block4Jump41"
        fill="none"
        stroke="#2584BB"
		stroke-width="2px"
		d="M 688 1046 L "/>
    <path id="Block4Jump42"
        fill="none"
        stroke="#2584BB"
		stroke-width="2px"
		d="M 690 981 L "/>
    <path id="Block4Jump43"
        fill="none"
        stroke="#2584BB"
		stroke-width="2px"
		d="M 692 1046 L "/>
    <path id="Block4Jump44"
        fill="none"
        stroke="#2584BB"
		stroke-width="2px"
		d="M 693 981 L "/>
    <path id="Block4Jump45"
        fill="none"
        stroke="#2584BB"
		stroke-width="2px"
		d="M 696 1046 L "/>
    <path id="Block4Jump46"
        fill="none"
        stroke="#2584BB"
		stroke-width="2px"
		d="M 696 981 L "/>
    <path id="Block4Jump47"
        fill="none"
        stroke="#2584BB"
		stroke-width="2px"
		d="M 700 1046 L "/>
    <path id="Block4Jump48"
        fill="none"
        stroke="#2584BB"
		stroke-width="2px"
		d="M 698 980 L "/>
    <path id="Block4Jump49"
        fill="none"
        stroke="#2584BB"
		stroke-width="2px"
		d="M 704 1046 L "/>
    <path id="Block4Jump50"
        fill="none"
        stroke="#2584BB"
		stroke-width="2px"
		d="M 701 980 L "/>
    <path id="Block4Jump51"
        fill="none"
        stroke="#2584BB"
		stroke-width="2px"
		d="M 708 1046 L "/>
    <path id="Block4Jump52"
        fill="none"
        stroke="#2584BB"
		stroke-width="2px"
		d="M 703 979 L "/>
    <path id="Block4Jump53"
        fill="none"
        stroke="#2584BB"
		stroke-width="2px"
		d="M 712 1046 L "/>
    <path id="Block4Jump54"
        fill="none"
        stroke="#2584BB"
		stroke-width="2px"
		d="M 706 979 L "/>
    <path id="Block4Jump55"
        fill="none"
        stroke="#2584BB"
		stroke-width="2px"
		d="M 716 1046 L "/>
    <path id="Block4Jump56"
        fill="none"
        stroke="#2584BB"
		stroke-width="2px"
		d="M 709 978 L "/>
    <path id="Block4Jump57"
        fill="none"
        stroke="#2584BB"
		stroke-width="2px"
		d="M 720 1046 L "/>
    <path id="Block4Jump58"
        fill="none"
        stroke="#2584BB"
		stroke-width="2px"
		d="M 712 977 L "/>
    <path id="Block4Jump59"
        fill="none"
        stroke="#2584BB"
		stroke-width="2px"
		d="M 725 1046 L "/>
    <path id="Block4Jump60"
        fill="none"
        stroke="#2584BB"
		stroke-width="2px"
		d="M 715 977 L "/>
    <path id="Block4Jump61"
        fill="none"
        stroke="#2584BB"
		stroke-width="2px"
		d="M 729 1046 L "/>
    <path id="Block4Jump62"
        fill="none"
        stroke="#2584BB"
		stroke-width="2px"
		d="M 718 976 L "/>
    <path id="Block4Jump63"
        fill="none"
        stroke="#2584BB"
		stroke-width="2px"
		d="M 733 1045 L "/>
    <path id="Block4Jump64"
        fill="none"
        stroke="#2584BB"
		stroke-width="2px"
		d="M 720 975 L "/>
    <path id="Block4Jump65"
        fill="none"
        stroke="#2584BB"
		stroke-width="2px"
		d="M 737 1045 L "/>
    <path id="Block4Jump66"
        fill="none"
        stroke="#2584BB"
		stroke-width="2px"
		d="M 722 974 L "/>
    <path id="Block4Jump67"
        fill="none"
        stroke="#2584BB"
		stroke-width="2px"
		d="M 741 1045 L "/>
    <path id="Block4Jump68"
        fill="none"
        stroke="#2584BB"
		stroke-width="2px"
		d="M 725 973 L "/>
    <path id="Block4Jump69"
        fill="none"
        stroke="#2584BB"
		stroke-width="2px"
		d="M 745 1044 L "/>
    <path id="Block4Jump70"
        fill="none"
        stroke="#2584BB"
		stroke-width="2px"
		d="M 727 972 L "/>
    <path id="Block4Jump71"
        fill="none"
        stroke="#2584BB"
		stroke-width="2px"
		d="M 749 1043 L "/>
    <path id="Block4Jump72"
        fill="none"
        stroke="#2584BB"
		stroke-width="2px"
		d="M 729 971 L "/>
    <path id="Block4Jump73"
        fill="none"
        stroke="#2584BB"
		stroke-width="2px"
		d="M 753 1043 L "/>
    <path id="Block4Jump74"
        fill="none"
        stroke="#2584BB"
		stroke-width="2px"
		d="M 732 970 L "/>
    <path id="Block4Jump75"
        fill="none"
        stroke="#2584BB"
		stroke-width="2px"
		d="M 757 1042 L "/>
    <path id="Block4Jump76"
        fill="none"
        stroke="#2584BB"
		stroke-width="2px"
		d="M 734 969 L "/>
    <path id="Block4Jump77"
        fill="none"
        stroke="#2584BB"
		stroke-width="2px"
		d="M 761 1041 L "/>
    <path id="Block4Jump78"
        fill="none"
        stroke="#2584BB"
		stroke-width="2px"
		d="M 736 968 L "/>
    <path id="Block4Jump79"
        fill="none"
        stroke="#2584BB"
		stroke-width="2px"
		d="M 765 1040 L "/>
    <path id="Block4Jump80"
        fill="none"
        stroke="#2584BB"
		stroke-width="2px"
		d="M 739 967 L "/>
    <path id="Block4Jump81"
        fill="none"
        stroke="#2584BB"
		stroke-width="2px"
		d="M 769 1039 L "/>
    <path id="Block4Jump82"
        fill="none"
        stroke="#2584BB"
		stroke-width="2px"
		d="M 741 965 L "/>
    <path id="Block4Jump83"
        fill="none"
        stroke="#2584BB"
		stroke-width="2px"
		d="M 773 1038 L "/>
    <path id="Block4Jump84"
        fill="none"
        stroke="#2584BB"
		stroke-width="2px"
		d="M 743 964 L "/>
    <path id="Block4Jump85"
        fill="none"
        stroke="#2584BB"
		stroke-width="2px"
		d="M 760 1000 L 777 1037 "/>
    <path id="Block4Jump86"
        fill="none"
        stroke="#2584BB"
		stroke-width="2px"
		d="M 761 1000 L 745 963 "/>
    <path id="Block4Jump87"
        fill="none"
        stroke="#2584BB"
		stroke-width="2px"
		d="M 763 999 L 781 1035 "/>
    <path id="Block4Jump88"
        fill="none"
        stroke="#2584BB"
		stroke-width="2px"
		d="M 764 998 L 747 961 "/>
    <path id="Block4Jump89"
        fill="none"
        stroke="#2584BB"
		stroke-width="2px"
		d="M 766 997 L 785 1034 "/>
    <path id="Block4Jump90"
        fill="none"
        stroke="#2584BB"
		stroke-width="2px"
		d="M 767 997 L 749 960 "/>
    <path id="Block4Jump91"
        fill="none"
        stroke="#2584BB"
		stroke-width="2px"
		d="M 769 996 L 789 1032 "/>
    <path id="Block4Jump92"
        fill="none"
        stroke="#2584BB"
		stroke-width="2px"
		d="M 770 995 L 750 958 "/>
    <path id="Block4Jump93"
        fill="none"
        stroke="#2584BB"
		stroke-width="2px"
		d="M 771 994 L 793 1031 "/>
    <path id="Block4Jump94"
        fill="none"
        stroke="#2584BB"
		stroke-width="2px"
		d="M 773 994 L 752 957 "/>
    <path id="Block4Jump95"
        fill="none"
        stroke="#2584BB"
		stroke-width="2px"
		d="M 774 993 L 797 1029 "/>
    <path id="Block4Jump96"
        fill="none"
        stroke="#2584BB"
		stroke-width="2px"
		d="M 776 992 L 754 955 "/>
    <path id="Block4Jump97"
        fill="none"
        stroke="#2584BB"
		stroke-width="2px"
		d="M 777 991 L 800 1027 "/>
    <path id="Block4Jump98"
        fill="none"
        stroke="#2584BB"
		stroke-width="2px"
		d="M 778 991 L 756 954 "/>
    <path id="Block4Jump99"
        fill="none"
        stroke="#2584BB"
		stroke-width="2px"
		d="M 780 989 L 804 1025 "/>
    <path id="Block4Jump100"
        fill="none"
        stroke="#2584BB"
		stroke-width="2px"
		d="M 781 989 L 758 952 "/>
    <path id="Block4Jump101"
        fill="none"
        stroke="#2584BB"
		stroke-width="2px"
		d="M 782 987 L 807 1023 "/>
    <path id="Block4Jump102"
        fill="none"
        stroke="#2584BB"
		stroke-width="2px"
		d="M 784 987 L 760 951 "/>
    <path id="Block4Jump103"
        fill="none"
        stroke="#2584BB"
		stroke-width="2px"
		d="M 785 986 L 811 1021 "/>
    <path id="Block4Jump104"
        fill="none"
        stroke="#2584BB"
		stroke-width="2px"
		d="M 787 985 L 762 949 "/>
    <path id="Block4Jump105"
        fill="none"
        stroke="#2584BB"
		stroke-width="2px"
		d="M 788 984 L 814 1019 "/>
    <path id="Block4Jump106"
        fill="none"
        stroke="#2584BB"
		stroke-width="2px"
		d="M 789 984 L 764 948 "/>
    <path id="Block4Jump107"
        fill="none"
        stroke="#2584BB"
		stroke-width="2px"
		d="M 791 982 L 818 1016 "/>
    <path id="Block4Jump108"
        fill="none"
        stroke="#2584BB"
		stroke-width="2px"
		d="M 792 981 L 766 946 "/>
    <path id="Block4Jump109"
        fill="none"
        stroke="#2584BB"
		stroke-width="2px"
		d="M 793 980 L 821 1014 "/>
    <path id="Block4Jump110"
        fill="none"
        stroke="#2584BB"
		stroke-width="2px"
		d="M 795 979 L 768 944 "/>
    <path id="Block4Jump111"
        fill="none"
        stroke="#2584BB"
		stroke-width="2px"
		d="M 796 978 L 824 1012 "/>
    <path id="Block4Jump112"
        fill="none"
        stroke="#2584BB"
		stroke-width="2px"
		d="M 797 978 L 770 943 "/>
    <path id="Block4Jump113"
        fill="none"
        stroke="#2584BB"
		stroke-width="2px"
		d="M 798 976 L 827 1009 "/>
    <path id="Block4Jump114"
        fill="none"
        stroke="#2584BB"
		stroke-width="2px"
		d="M 800 975 L 772 941 "/>
    <path id="Block4Jump115"
        fill="none"
        stroke="#2584BB"
		stroke-width="2px"
		d="M 801 973 L 831 1006 "/>
    <path id="Block4Jump116"
        fill="none"
        stroke="#2584BB"
		stroke-width="2px"
		d="M 803 973 L 774 940 "/>
    <path id="Block4Jump117"
        fill="none"
        stroke="#2584BB"
		stroke-width="2px"
		d="M 804 972 L 834 1004 "/>
    <path id="Block4Jump118"
        fill="none"
        stroke="#2584BB"
		stroke-width="2px"
		d="M 805 971 L 776 938 "/>
    <path id="Block4Jump119"
        fill="none"
        stroke="#2584BB"
		stroke-width="2px"
		d="M 806 969 L 837 1001 "/>
    <path id="Block4Jump120"
        fill="none"
        stroke="#2584BB"
		stroke-width="2px"
		d="M 808 969 L 778 936 "/>
    <path id="Block4Jump121"
        fill="none"
        stroke="#2584BB"
		stroke-width="2px"
		d="M 808 967 L 839 998 "/>
    <path id="Block4Jump122"
        fill="none"
        stroke="#2584BB"
		stroke-width="2px"
		d="M 810 967 L 780 935 "/>
    <path id="Block4Jump123"
        fill="none"
        stroke="#2584BB"
		stroke-width="2px"
		d="M 811 965 L 842 995 "/>
    <path id="Block4Jump124"
        fill="none"
        stroke="#2584BB"
		stroke-width="2px"
		d="M 812 964 L 781 933 "/>
    <path id="Block4Jump125"
        fill="none"
        stroke="#2584BB"
		stroke-width="2px"
		d="M 813 962 L 845 992 "/>
    <path id="Block4Jump126"
        fill="none"
        stroke="#2584BB"
		stroke-width="2px"
		d="M 814 962 L 783 932 "/>
    <path id="Block4Jump127"
        fill="none"
        stroke="#2584BB"
		stroke-width="2px"
		d="M 815 960 L 848 989 "/>
    <path id="Block4Jump128"
        fill="none"
        stroke="#2584BB"
		stroke-width="2px"
		d="M 817 960 L 785 930 "/>
    <path id="Block4Jump129"
        fill="none"
        stroke="#2584BB"
		stroke-width="2px"
		d="M 818 958 L 851 986 "/>
    <path id="Block4Jump130"
        fill="none"
        stroke="#2584BB"
		stroke-width="2px"
		d="M 819 957 L 786 928 "/>
    <path id="Block4Jump131"
        fill="none"
        stroke="#2584BB"
		stroke-width="2px"
		d="M 819 955 L 853 983 "/>
    <path id="Block4Jump132"
        fill="none"
        stroke="#2584BB"
		stroke-width="2px"
		d="M 821 955 L 788 927 "/>
    <path id="Block4Jump133"
        fill="none"
        stroke="#2584BB"
		stroke-width="2px"
		d="M 822 953 L 856 979 "/>
    <path id="Block4Jump134"
        fill="none"
        stroke="#2584BB"
		stroke-width="2px"
		d="M 823 952 L 789 925 "/>
    <path id="Block4Jump135"
        fill="none"
        stroke="#2584BB"
		stroke-width="2px"
		d="M 823 950 L 858 976 "/>
    <path id="Block4Jump136"
        fill="none"
        stroke="#2584BB"
		stroke-width="2px"
		d="M 824 950 L 790 923 "/>
    <path id="Block4Jump137"
        fill="none"
        stroke="#2584BB"
		stroke-width="2px"
		d="M 825 948 L 861 973 "/>
    <path id="Block4Jump138"
        fill="none"
        stroke="#2584BB"
		stroke-width="2px"
		d="M 827 947 L 792 921 "/>
    <path id="Block4Jump139"
        fill="none"
        stroke="#2584BB"
		stroke-width="2px"
		d="M 827 945 L 863 969 806 928 865 966 "/>
    <path id="Block4Jump140"
        fill="none"
        stroke="#2584BB"
		stroke-width="2px"
		d="M 830 942 L 794 917 "/>
    <path id="Block4Jump141"
        fill="none"
        stroke="#2584BB"
		stroke-width="2px"
		d="M 831 940 L 868 963 808 924 870 959 "/>
    <path id="Block4Jump142"
        fill="none"
        stroke="#2584BB"
		stroke-width="2px"
		d="M 833 937 L 795 915 "/>
    <path id="Block4Jump143"
        fill="none"
        stroke="#2584BB"
		stroke-width="2px"
		d="M 833 935 L 872 955 810 920 "/>
    <path id="Block4Jump144"
        fill="none"
        stroke="#2584BB"
		stroke-width="2px"
		d="M 874 952 L "/>
    <path id="Block4Jump145"
        fill="none"
        stroke="#2584BB"
		stroke-width="2px"
		d="M 836 932 L 797 912 "/>
    <path id="Block4Jump146"
        fill="none"
        stroke="#2584BB"
		stroke-width="2px"
		d="M 836 930 L 875 948 812 916 "/>
    <path id="Block4Jump147"
        fill="none"
        stroke="#2584BB"
		stroke-width="2px"
		d="M 877 944 L "/>
    <path id="Block4Jump148"
        fill="none"
        stroke="#2584BB"
		stroke-width="2px"
		d="M 838 927 L 798 909 "/>
    <path id="Block4Jump149"
        fill="none"
        stroke="#2584BB"
		stroke-width="2px"
		d="M 838 924 L 879 940 "/>
    <path id="Block4Jump150"
        fill="none"
        stroke="#2584BB"
		stroke-width="2px"
		d="M 814 912 L "/>
    <path id="Block4Jump151"
        fill="none"
        stroke="#2584BB"
		stroke-width="2px"
		d="M 880 936 L "/>
    <path id="Block4Jump152"
        fill="none"
        stroke="#2584BB"
		stroke-width="2px"
		d="M 840 921 L 800 906 "/>
    <path id="Block4Jump153"
        fill="none"
        stroke="#2584BB"
		stroke-width="2px"
		d="M 840 919 L 881 933 "/>
    <path id="Block4Jump154"
        fill="none"
        stroke="#2584BB"
		stroke-width="2px"
		d="M 815 909 L "/>
    <path id="Block4Jump155"
        fill="none"
        stroke="#2584BB"
		stroke-width="2px"
		d="M 882 929 L "/>
    <path id="Block4Jump156"
        fill="none"
        stroke="#2584BB"
		stroke-width="2px"
		d="M 842 916 L 801 903 "/>
    <path id="Block4Jump157"
        fill="none"
        stroke="#2584BB"
		stroke-width="2px"
		d="M 842 914 L 883 925 "/>
    <path id="Block4Jump158"
        fill="none"
        stroke="#2584BB"
		stroke-width="2px"
		d="M 816 905 L "/>
    <path id="Block4Jump159"
        fill="none"
        stroke="#2584BB"
		stroke-width="2px"
		d="M 884 921 L "/>
    <path id="Block4Jump160"
        fill="none"
        stroke="#2584BB"
		stroke-width="2px"
		d="M 843 911 L 802 900 "/>
    <path id="Block4Jump161"
        fill="none"
        stroke="#2584BB"
		stroke-width="2px"
		d="M 843 908 L 885 917 "/>
    <path id="Block4Jump162"
        fill="none"
        stroke="#2584BB"
		stroke-width="2px"
		d="M 817 901 L "/>
    <path id="Block4Jump163"
        fill="none"
        stroke="#2584BB"
		stroke-width="2px"
		d="M 886 912 L "/>
    <path id="Block4Jump164"
        fill="none"
        stroke="#2584BB"
		stroke-width="2px"
		d="M 845 904 L 803 896 "/>
    <path id="Block4Jump165"
        fill="none"
        stroke="#2584BB"
		stroke-width="2px"
		d="M 845 902 L 887 908 "/>
    <path id="Block4Jump166"
        fill="none"
        stroke="#2584BB"
		stroke-width="2px"
		d="M 818 897 L "/>
    <path id="Block4Jump167"
        fill="none"
        stroke="#2584BB"
		stroke-width="2px"
		d="M 887 904 L "/>
    <path id="Block4Jump168"
        fill="none"
        stroke="#2584BB"
		stroke-width="2px"
		d="M 846 899 L 804 893 "/>
    <path id="Block4Jump169"
        fill="none"
        stroke="#2584BB"
		stroke-width="2px"
		d="M 846 896 L 888 900 "/>
    <path id="Block4Jump170"
        fill="none"
        stroke="#2584BB"
		stroke-width="2px"
		d="M 819 893 L "/>
    <path id="Block4Jump171"
        fill="none"
        stroke="#2584BB"
		stroke-width="2px"
		d="M 888 896 L "/>
    <path id="Block4Jump172"
        fill="none"
        stroke="#2584BB"
		stroke-width="2px"
		d="M 846 893 L 804 890 "/>
    <path id="Block4Jump173"
        fill="none"
        stroke="#2584BB"
		stroke-width="2px"
		d="M 846 891 L 888 892 "/>
    <path id="Block4Jump174"
        fill="none"
        stroke="#2584BB"
		stroke-width="2px"
		d="M 820 889 L "/>
    <path id="Block4Jump175"
        fill="none"
        stroke="#2584BB"
		stroke-width="2px"
		d="M 888 888 L "/>
    <path id="Block4Jump176"
        fill="none"
        stroke="#2584BB"
		stroke-width="2px"
		d="M 847 888 L 805 888 "/>
    <path id="Block4Jump177"
        fill="none"
        stroke="#2584BB"
		stroke-width="2px"
		d="M 846 886 L 888 884 "/>
    <path id="Block4Jump178"
        fill="none"
        stroke="#2584BB"
		stroke-width="2px"
		d="M 820 885 L "/>
    <path id="Block4Jump179"
        fill="none"
        stroke="#2584BB"
		stroke-width="2px"
		d="M 888 879 L "/>
    <path id="Block4Jump180"
        fill="none"
        stroke="#2584BB"
		stroke-width="2px"
		d="M 847 882 L 805 885 "/>
    <path id="Block4Jump181"
        fill="none"
        stroke="#2584BB"
		stroke-width="2px"
		d="M 846 880 L 888 875 "/>
    <path id="Block4Jump182"
        fill="none"
        stroke="#2584BB"
		stroke-width="2px"
		d="M 820 881 L "/>
    <path id="Block4Jump183"
        fill="none"
        stroke="#2584BB"
		stroke-width="2px"
		d="M 888 871 L "/>
    <path id="Block4Jump184"
        fill="none"
        stroke="#2584BB"
		stroke-width="2px"
		d="M 847 876 L 805 882 "/>
    <path id="Block4Jump185"
        fill="none"
        stroke="#2584BB"
		stroke-width="2px"
		d="M 846 875 L 887 867 "/>
    <path id="Block4Jump186"
        fill="none"
        stroke="#2584BB"
		stroke-width="2px"
		d="M 819 877 L "/>
    <path id="Block4Jump187"
        fill="none"
        stroke="#2584BB"
		stroke-width="2px"
		d="M 887 863 L "/>
    <path id="Block4Jump188"
        fill="none"
        stroke="#2584BB"
		stroke-width="2px"
		d="M 846 871 L 804 879 "/>
    <path id="Block4Jump189"
        fill="none"
        stroke="#2584BB"
		stroke-width="2px"
		d="M 845 869 L 886 859 830 870 885 855 "/>
    <path id="Block4Jump190"
        fill="none"
        stroke="#2584BB"
		stroke-width="2px"
		d="M 818 872 L "/>
    <path id="Block4Jump191"
        fill="none"
        stroke="#2584BB"
		stroke-width="2px"
		d="M 883 851 L "/>
    <path id="Block4Jump192"
        fill="none"
        stroke="#2584BB"
		stroke-width="2px"
		d="M 843 863 L 803 876 "/>
    <path id="Block4Jump193"
        fill="none"
        stroke="#2584BB"
		stroke-width="2px"
		d="M 842 862 L 882 847 828 865 880 843 816 868 878 839 "/>
    <path id="Block4Jump194"
        fill="none"
        stroke="#2584BB"
		stroke-width="2px"
		d="M 840 856 L 802 874 "/>
    <path id="Block4Jump195"
        fill="none"
        stroke="#2584BB"
		stroke-width="2px"
		d="M 839 855 L 876 836 825 860 874 832 814 864 871 829 "/>
    <path id="Block4Jump196"
        fill="none"
        stroke="#2584BB"
		stroke-width="2px"
		d="M 836 850 L 801 872 "/>
    <path id="Block4Jump197"
        fill="none"
        stroke="#2584BB"
		stroke-width="2px"
		d="M 834 849 L 868 826 821 856 865 823 811 862 861 821 799 870 858 818 817 852 855 815 807 859 851 812 797 868 848 810 812 848 845 807 804 856 842 805 795 867 "/>
    <path id="Block4Jump198"
        fill="none"
        stroke="#2584BB"
		stroke-width="2px"
		d="M 838 802 L 801 854 835 799 "/>
    <path id="Block4Jump199"
        fill="none"
        stroke="#2584BB"
		stroke-width="2px"
		d="M 793 866 L "/>
    <path id="Block4Jump200"
        fill="none"
        stroke="#2584BB"
		stroke-width="2px"
		d="M 832 797 L 799 853 828 795 "/>
    <path id="Block4Jump201"
        fill="none"
        stroke="#2584BB"
		stroke-width="2px"
		d="M 791 865 L "/>
    <path id="Block4Jump202"
        fill="none"
        stroke="#2584BB"
		stroke-width="2px"
		d="M 824 793 L "/>
    <path id="Block4Jump203"
        fill="none"
        stroke="#2584BB"
		stroke-width="2px"
		d="M 788 864 L "/>
    <path id="Block4Jump204"
        fill="none"
        stroke="#2584BB"
		stroke-width="2px"
		d="M 804 828 L 821 791 "/>
    <path id="Block4Jump205"
        fill="none"
        stroke="#2584BB"
		stroke-width="2px"
		d="M 804 827 L 786 863 "/>
    <path id="Block4Jump206"
        fill="none"
        stroke="#2584BB"
		stroke-width="2px"
		d="M 817 790 L "/>
    <path id="Block4Jump207"
        fill="none"
        stroke="#2584BB"
		stroke-width="2px"
		d="M 800 826 L 783 863 "/>
    <path id="Block4Jump208"
        fill="none"
        stroke="#2584BB"
		stroke-width="2px"
		d="M 798 826 L 813 788 "/>
    <path id="Block4Jump209"
        fill="none"
        stroke="#2584BB"
		stroke-width="2px"
		d="M 797 825 L 781 862 "/>
    <path id="Block4Jump210"
        fill="none"
        stroke="#2584BB"
		stroke-width="2px"
		d="M 795 825 L 809 787 "/>
    <path id="Block4Jump211"
        fill="none"
        stroke="#2584BB"
		stroke-width="2px"
		d="M 794 824 L 779 862 "/>
    <path id="Block4Jump212"
        fill="none"
        stroke="#2584BB"
		stroke-width="2px"
		d="M 792 824 L 805 786 "/>
    <path id="Block4Jump213"
        fill="none"
        stroke="#2584BB"
		stroke-width="2px"
		d="M 791 823 L 776 861 "/>
    <path id="Block4Jump214"
        fill="none"
        stroke="#2584BB"
		stroke-width="2px"
		d="M 788 823 L 801 785 "/>
    <path id="Block4Jump215"
        fill="none"
        stroke="#2584BB"
		stroke-width="2px"
		d="M 788 823 L 774 861 "/>
    <path id="Block4Jump216"
        fill="none"
        stroke="#2584BB"
		stroke-width="2px"
		d="M 785 823 L 797 784 "/>
    <path id="Block4Jump217"
        fill="none"
        stroke="#2584BB"
		stroke-width="2px"
		d="M 785 822 L 772 861 "/>
    <path id="Block4Jump218"
        fill="none"
        stroke="#2584BB"
		stroke-width="2px"
		d="M 782 822 L 793 783 774 846 789 782 "/>
    <path id="Block4Jump219"
        fill="none"
        stroke="#2584BB"
		stroke-width="2px"
		d="M 779 821 L 768 860 "/>
    <path id="Block4Jump220"
        fill="none"
        stroke="#2584BB"
		stroke-width="2px"
		d="M 776 821 L 785 781 "/>
    <path id="Block4Jump221"
        fill="none"
        stroke="#2584BB"
		stroke-width="2px"
		d="M 769 846 L "/>
    <path id="Block4Jump222"
        fill="none"
        stroke="#2584BB"
		stroke-width="2px"
		d="M 781 781 L "/>
    <path id="Block4Jump223"
        fill="none"
        stroke="#2584BB"
		stroke-width="2px"
		d="M 773 820 L 764 860 "/>
    <path id="Block4Jump224"
        fill="none"
        stroke="#2584BB"
		stroke-width="2px"
		d="M 770 820 L 777 780 "/>
    <path id="Block4Jump225"
        fill="none"
        stroke="#2584BB"
		stroke-width="2px"
		d="M 764 846 L "/>
    <path id="Block4Jump226"
        fill="none"
        stroke="#2584BB"
		stroke-width="2px"
		d="M 773 780 L "/>
    <path id="Block4Jump227"
        fill="none"
        stroke="#2584BB"
		stroke-width="2px"
		d="M 767 820 L 760 860 "/>
    <path id="Block4Jump228"
        fill="none"
        stroke="#2584BB"
		stroke-width="2px"
		d="M 764 820 L 768 780 "/>
    <path id="Block4Jump229"
        fill="none"
        stroke="#2584BB"
		stroke-width="2px"
		d="M 759 846 L "/>
    <path id="Block4Jump230"
        fill="none"
        stroke="#2584BB"
		stroke-width="2px"
		d="M 764 780 L "/>
    <path id="Block4Jump231"
        fill="none"
        stroke="#2584BB"
		stroke-width="2px"
		d="M 760 820 L 756 861 "/>
    <path id="Block4Jump232"
        fill="none"
        stroke="#2584BB"
		stroke-width="2px"
		d="M 758 821 L 760 780 "/>
    <path id="Block4Jump233"
        fill="none"
        stroke="#2584BB"
		stroke-width="2px"
		d="M 754 847 L "/>
    <path id="Block4Jump234"
        fill="none"
        stroke="#2584BB"
		stroke-width="2px"
		d="M 756 780 L "/>
    <path id="Block4Jump235"
        fill="none"
        stroke="#2584BB"
		stroke-width="2px"
		d="M 754 821 L 752 862 "/>
    <path id="Block4Jump236"
        fill="none"
        stroke="#2584BB"
		stroke-width="2px"
		d="M 752 821 L 752 780 "/>
    <path id="Block4Jump237"
        fill="none"
        stroke="#2584BB"
		stroke-width="2px"
		d="M 751 821 L 750 862 "/>
    <path id="Block4Jump238"
        fill="none"
        stroke="#2584BB"
		stroke-width="2px"
		d="M 749 822 L 748 781 "/>
    <path id="Block4Jump239"
        fill="none"
        stroke="#2584BB"
		stroke-width="2px"
		d="M 747 848 L "/>
    <path id="Block4Jump240"
        fill="none"
        stroke="#2584BB"
		stroke-width="2px"
		d="M 744 781 L "/>
    <path id="Block4Jump241"
        fill="none"
        stroke="#2584BB"
		stroke-width="2px"
		d="M 745 822 L 746 863 "/>
    <path id="Block4Jump242"
        fill="none"
        stroke="#2584BB"
		stroke-width="2px"
		d="M 743 823 L 740 782 "/>
    <path id="Block4Jump243"
        fill="none"
        stroke="#2584BB"
		stroke-width="2px"
		d="M 742 823 L 744 864 "/>
    <path id="Block4Jump244"
        fill="none"
        stroke="#2584BB"
		stroke-width="2px"
		d="M 740 824 L 735 783 "/>
    <path id="Block4Jump245"
        fill="none"
        stroke="#2584BB"
		stroke-width="2px"
		d="M 740 850 L "/>
    <path id="Block4Jump246"
        fill="none"
        stroke="#2584BB"
		stroke-width="2px"
		d="M 731 784 L "/>
    <path id="Block4Jump247"
        fill="none"
        stroke="#2584BB"
		stroke-width="2px"
		d="M 735 825 L 740 866 "/>
    <path id="Block4Jump248"
        fill="none"
        stroke="#2584BB"
		stroke-width="2px"
		d="M 734 826 L 727 785 "/>
    <path id="Block4Jump249"
        fill="none"
        stroke="#2584BB"
		stroke-width="2px"
		d="M 736 852 L "/>
    <path id="Block4Jump250"
        fill="none"
        stroke="#2584BB"
		stroke-width="2px"
		d="M 723 786 L "/>
    <path id="Block4Jump251"
        fill="none"
        stroke="#2584BB"
		stroke-width="2px"
		d="M 729 827 L 736 868 "/>
    <path id="Block4Jump252"
        fill="none"
        stroke="#2584BB"
		stroke-width="2px"
		d="M 728 828 L 719 788 "/>
    <path id="Block4Jump253"
        fill="none"
        stroke="#2584BB"
		stroke-width="2px"
		d="M 726 828 L 734 869 "/>
    <path id="Block4Jump254"
        fill="none"
        stroke="#2584BB"
		stroke-width="2px"
		d="M 725 830 L 716 790 "/>
    <path id="Block4Jump255"
        fill="none"
        stroke="#2584BB"
		stroke-width="2px"
		d="M 724 830 L 732 870 "/>
    <path id="Block4Jump256"
        fill="none"
        stroke="#2584BB"
		stroke-width="2px"
		d="M 722 831 L 712 792 "/>
    <path id="Block4Jump257"
        fill="none"
        stroke="#2584BB"
		stroke-width="2px"
		d="M 721 831 L 730 871 "/>
    <path id="Block4Jump258"
        fill="none"
        stroke="#2584BB"
		stroke-width="2px"
		d="M 708 795 L "/>
    <path id="Block4Jump259"
        fill="none"
        stroke="#2584BB"
		stroke-width="2px"
		d="M 728 871 L "/>
    <path id="Block4Jump260"
        fill="none"
        stroke="#2584BB"
		stroke-width="2px"
		d="M 705 798 L "/>
    <path id="Block4Jump261"
        fill="none"
        stroke="#2584BB"
		stroke-width="2px"
		d="M 726 872 L "/>
    <path id="Block4Jump262"
        fill="none"
        stroke="#2584BB"
		stroke-width="2px"
		d="M 702 802 L "/>
    <path id="Block4Jump263"
        fill="none"
        stroke="#2584BB"
		stroke-width="2px"
		d="M 724 873 L "/>
    <path id="Block4Jump264"
        fill="none"
        stroke="#2584BB"
		stroke-width="2px"
		d="M 699 805 L "/>
    <path id="Block4Jump265"
        fill="none"
        stroke="#2584BB"
		stroke-width="2px"
		d="M 721 874 L "/>
    <path id="Block4Jump266"
        fill="none"
        stroke="#2584BB"
		stroke-width="2px"
		d="M 696 809 L "/>
    <path id="Block4Jump267"
        fill="none"
        stroke="#2584BB"
		stroke-width="2px"
		d="M 718 874 L 693 814 715 875 691 819 711 875 689 824 708 876 687 830 704 876 685 836 701 876 684 842 697 877 683 850 690 876 681 864 693 876 682 857 697 877 682 849 693 867 687 859 684 850 684 855 678 855 659 848 647 906 624 961 593 1012 562 1049 517 1087 476 1110 433 1122 374 1124 315 1122 256 1116 251 1115 200 1084 163 1049 128 1002 100 949 88 920 68 864 53 807 69 806 128 810 187 814 246 816 305 816 364 816 423 814 482 812 541 808 600 801 659 796 600 801 541 808 482 812 423 814 364 816 305 816 246 816 187 814 128 810 69 806 53 807 68 864 88 920 100 949 128 1002 163 1049 200 1084 251 1115 256 1116 315 1122 374 1124 433 1122 476 1110 517 1087 562 1049 593 1012 624 961 647 906 659 848 659 796 659 848 659 848 " />
    <path id="Block5Jump267"
        fill="none"
        stroke="#2584BB"
		stroke-width="2px"
		d="M 659 848 L 647 906 624 961 593 1012 562 1049 517 1087 476 1110 433 1122 374 1124 315 1122 256 1116 251 1115 200 1084 163 1049 128 1002 100 949 88 920 68 864 53 807 69 806 128 810 187 814 246 816 305 816 364 816 423 814 482 812 541 808 600 801 659 796 600 801 541 808 482 812 423 814 364 816 305 816 246 816 187 814 128 810 69 806 53 807 68 864 88 920 100 949 128 1002 163 1049 200 1084 251 1115 256 1116 315 1122 374 1124 433 1122 476 1110 517 1087 562 1049 593 1012 624 961 647 906 659 848 659 796 659 848 659 848 " />
    <path id="Block6Jump267"
        fill="none"
        stroke="#2584BB"
		stroke-width="2px"
		d="M 659 848 L 681 868 666 904 650 940 632 975 611 1008 586 1038 559 1067 528 1091 493 1110 456 1124 417 1131 378 1134 339 1134 300 1130 262 1121 226 1105 193 1084 164 1057 139 1027 115 993 97 958 80 922 68 885 62 848 63 836 76 814 96 805 135 799 174 799 213 800 252 801 291 801 330 800 369 799 408 798 447 796 486 794 525 791 564 787 603 781 642 775 682 766 668 783 654 801 643 771 640 786 637 802 604 775 605 790 606 805 564 780 565 795 566 810 525 785 526 800 528 815 485 786 487 802 488 817 446 788 447 803 448 818 406 789 407 804 408 819 367 790 367 805 368 820 327 791 328 806 328 821 288 791 288 806 288 821 248 791 248 821 208 789 208 804 208 819 169 787 168 802 168 817 129 785 129 800 128 815 89 782 89 797 88 812 72 800 38 777 52 794 65 812 29 815 48 826 66 837 39 856 56 859 73 861 51 892 66 888 81 884 65 929 92 917 81 965 107 952 98 1001 112 994 125 986 120 1034 144 1017 145 1065 167 1045 173 1093 192 1071 205 1117 213 1104 221 1092 238 1139 246 1124 255 1110 276 1143 281 1114 315 1146 319 1117 355 1148 356 1118 395 1148 394 1118 434 1146 430 1116 472 1137 463 1109 509 1122 495 1097 542 1100 533 1087 524 1075 571 1074 551 1052 599 1045 576 1026 622 1013 597 997 643 980 616 966 659 944 631 933 672 906 643 899 681 867 652 863 657 827 654 808 669 794 683 779 655 827 670 827 685 828 652 863 681 867 692 857 680 843 667 809 655 802 688 758 648 812 688 762 655 805 689 767 647 814 690 773 655 809 691 778 647 817 691 783 654 813 692 788 647 819 692 793 654 816 693 797 646 821 693 802 654 819 693 806 646 823 694 811 654 822 694 815 646 825 694 820 654 825 694 824 646 826 694 828 646 830 694 833 646 833 694 837 646 837 693 841 645 840 693 845 645 844 693 849 645 847 692 853 644 851 692 857 644 854 691 861 643 858 691 865 643 862 690 869 642 865 689 873 641 869 688 877 641 872 688 881 640 876 687 885 639 879 686 889 638 883 685 893 637 886 684 897 636 890 683 901 635 893 682 905 634 897 680 909 633 900 679 912 632 903 678 916 631 907 677 920 630 910 675 924 628 914 674 928 627 917 673 932 626 920 671 936 625 924 670 940 624 927 669 943 623 930 667 947 621 934 666 951 620 937 664 955 619 940 663 959 617 943 661 962 616 947 659 966 614 950 658 970 613 953 656 973 611 956 654 977 609 959 652 981 608 963 650 984 606 966 648 988 604 969 646 992 602 972 644 995 601 975 642 999 599 978 640 1002 597 981 638 1006 595 984 636 1009 593 987 634 1013 591 990 631 1016 589 993 629 1019 587 996 627 1023 585 999 624 1026 583 1002 622 1029 581 1004 620 1033 579 1007 617 1036 577 1010 615 1039 575 1013 612 1042 573 1016 610 1046 570 1019 607 1049 568 1021 605 1052 566 1024 602 1055 564 1027 599 1058 561 1029 596 1061 559 1032 594 1064 556 1034 591 1067 554 1037 588 1070 551 1039 585 1073 549 1041 582 1076 546 1044 579 1079 544 1046 576 1081 541 1049 573 1084 539 1051 570 1087 536 1053 567 1090 533 1056 564 1092 531 1058 561 1095 528 1060 558 1098 525 1062 555 1100 523 1065 552 1103 520 1067 548 1106 517 1069 545 1108 514 1071 542 1111 512 1073 539 1113 509 1075 535 1116 506 1078 532 1118 503 1080 529 1120 500 1082 525 1123 497 1084 522 1125 494 1086 519 1127 491 1089 515 1130 488 1090 511 1131 485 1091 508 1133 482 1092 504 1135 480 1094 500 1136 477 1095 496 1138 473 1096 492 1139 470 1097 489 1141 467 1098 485 1142 464 1099 481 1144 461 1100 477 1145 458 1101 473 1146 455 1102 469 1147 452 1103 465 1148 449 1103 461 1149 446 1104 457 1150 443 1105 453 1151 439 1105 449 1152 436 1106 445 1153 433 1107 441 1154 430 1107 437 1154 427 1107 433 1155 424 1108 429 1155 420 1108 425 1156 417 1108 421 1156 414 1109 416 1157 410 1109 412 1157 406 1109 408 1157 403 1109 404 1157 399 1109 400 1157 395 1109 396 1157 391 1109 392 1157 387 1109 388 1157 384 1109 384 1157 380 1109 380 1157 376 1109 375 1157 372 1109 371 1157 369 1109 367 1157 365 1109 363 1157 361 1109 359 1157 357 1109 355 1157 353 1109 351 1157 350 1109 347 1157 346 1109 343 1157 342 1109 339 1157 338 1109 334 1156 335 1109 330 1156 331 1108 326 1156 327 1108 322 1156 323 1108 318 1156 320 1108 314 1155 316 1108 310 1155 312 1107 306 1155 308 1107 302 1154 305 1107 298 1154 301 1107 294 1154 297 1106 290 1153 293 1106 286 1153 290 1106 281 1153 286 1105 277 1152 282 1105 273 1152 278 1104 269 1151 275 1104 265 1151 271 1104 261 1151 269 1104 257 1150 268 1103 253 1149 266 1103 248 1149 264 1103 244 1148 263 1103 240 1147 261 1103 235 1147 259 1102 231 1146 257 1102 226 1145 255 1102 222 1145 253 1102 217 1144 252 1101 214 1140 252 1099 213 1135 251 1098 212 1131 247 1096 209 1130 243 1094 207 1129 239 1092 206 1127 236 1090 204 1126 232 1087 202 1125 228 1085 200 1125 224 1083 199 1124 221 1081 197 1123 217 1079 196 1122 214 1076 193 1120 212 1075 189 1118 210 1073 186 1115 208 1071 183 1112 206 1070 179 1110 204 1068 176 1107 202 1067 173 1105 200 1065 170 1102 198 1063 166 1099 195 1061 163 1097 192 1058 161 1094 190 1056 158 1091 187 1053 155 1088 185 1051 152 1085 182 1048 149 1082 180 1046 146 1079 178 1043 143 1076 175 1040 141 1073 173 1038 138 1070 170 1035 135 1067 168 1032 133 1064 166 1030 130 1061 164 1027 127 1058 161 1024 125 1055 159 1022 122 1051 157 1019 120 1048 155 1016 117 1045 153 1013 115 1042 151 1010 112 1039 149 1007 110 1035 147 1005 107 1032 145 1002 105 1029 143 999 103 1025 141 996 100 1022 139 993 98 1018 137 990 96 1015 135 987 94 1011 134 984 92 1008 132 981 90 1004 130 978 88 1000 129 974 86 997 127 971 85 993 125 968 83 990 123 964 81 986 121 961 79 982 120 957 77 979 118 954 75 975 116 950 74 971 114 947 72 968 113 943 70 964 111 940 68 960 110 936 67 957 108 933 65 953 107 929 64 949 105 926 62 946 104 922 60 942 102 919 59 938 101 915 57 934 100 912 56 931 98 908 54 927 97 905 53 923 96 901 51 919 95 898 50 915 94 894 49 911 92 890 47 908 91 887 46 904 91 885 45 900 90 883 43 896 89 881 42 892 88 879 40 888 87 877 39 884 87 875 37 880 86 873 36 875 85 871 35 871 84 869 33 867 83 867 32 863 82 865 31 858 82 863 30 854 81 861 29 850 80 858 28 845 79 856 26 841 78 854 25 836 77 851 24 831 77 849 24 826 76 846 23 821 75 844 22 816 74 841 21 811 73 839 20 806 72 836 20 801 72 833 19 795 71 830 19 790 70 827 18 784 69 824 18 778 68 821 17 772 59 810 20 769 69 819 26 769 64 810 32 770 72 819 38 770 68 811 43 770 75 819 48 771 72 811 53 771 77 820 58 771 76 812 63 771 79 820 68 772 79 812 72 772 81 820 76 772 82 812 81 772 84 821 85 773 88 821 89 773 92 821 93 773 96 822 97 774 100 822 101 774 104 822 105 774 108 822 109 774 112 823 114 775 116 823 118 775 121 823 122 775 125 823 126 775 129 824 130 776 133 824 134 776 137 824 138 776 141 824 142 776 145 825 146 777 149 825 150 777 153 825 154 777 157 825 158 777 161 826 162 778 161 826 177 816 216 816 255 815 294 813 333 811 372 808 411 805 450 805 489 806 528 806 567 803 606 801 650 799 649 808 688 758 647 808 682 759 651 800 677 759 644 809 672 759 646 801 667 760 641 809 662 760 642 801 658 760 638 810 653 761 639 802 648 761 636 811 644 762 635 803 640 762 633 811 635 763 632 803 631 763 629 812 627 764 625 812 623 764 621 813 619 765 617 813 615 765 613 813 611 765 609 814 607 766 605 814 603 766 601 815 599 767 597 815 595 767 593 816 591 768 589 816 587 768 585 817 583 769 581 817 579 769 577 817 575 770 573 818 571 770 570 818 567 770 566 819 563 771 562 819 559 771 558 820 555 772 554 820 551 772 550 821 547 773 546 821 543 774 542 822 539 774 538 823 535 775 534 823 531 775 531 824 526 776 526 824 522 776 522 824 518 776 518 824 514 776 514 824 510 776 510 825 506 777 506 825 502 777 502 825 498 777 498 825 494 777 494 825 490 777 490 825 486 777 486 826 482 778 482 826 478 778 478 826 474 778 473 826 470 778 469 826 466 778 465 826 462 778 461 827 458 779 457 827 454 779 453 827 450 779 449 827 446 779 445 827 442 779 441 827 438 779 437 827 434 779 433 827 430 780 429 828 426 780 425 828 422 780 421 828 418 780 416 828 414 780 412 828 410 780 408 828 406 780 404 828 402 780 400 828 398 780 396 828 394 780 392 829 390 781 388 829 386 781 384 829 382 781 380 829 378 781 376 829 374 781 372 829 370 781 368 829 366 781 363 829 362 781 359 829 358 781 355 829 354 781 351 829 350 781 347 829 346 781 343 829 342 781 339 829 338 781 335 829 334 781 331 830 329 782 327 830 325 782 323 830 321 782 319 830 317 782 315 830 313 782 311 830 309 782 306 830 305 782 302 830 301 782 298 830 297 782 294 830 293 782 290 830 289 782 286 830 285 782 282 830 281 782 278 830 277 782 274 830 273 782 270 830 269 782 266 830 265 782 262 830 261 782 258 830 257 782 254 830 253 782 249 830 249 782 245 830 245 782 241 829 241 781 237 829 238 781 233 829 234 781 229 829 230 781 225 829 226 781 221 829 222 781 217 828 218 780 213 828 214 780 209 828 210 780 205 828 206 780 201 828 202 780 197 827 198 779 193 827 194 779 189 827 190 779 185 827 186 779 181 827 182 779 177 826 178 778 173 826 174 778 169 826 170 778 165 826 166 778 161 826 162 778 162 816 161 806 163 796 161 788 163 798 161 808 162 792 " />
</svg>
