<?xml version="1.0" encoding="UTF-8" standalone="no"?>
<svg xmlns="http://www.w3.org/2000/svg" version="1.1" width="902" height="870">
    <path id="Block1Jump1"
        fill="none"
        stroke="#0B3D91"
		stroke-width="2px"
		d="M 487 763 L 497 760 457 766 415 773 414 769 375 775 336 781 297 787 290 789 253 775 234 768 199 749 192 745 160 720 141 701 110 704 116 673 102 645 96 616 91 586 89 556 88 526 81 496 62 469 46 442 33 414 24 385 19 355 16 325 18 294 24 263 40 230 61 195 88 165 93 159 126 137 146 123 185 115 196 113 236 107 259 104 271 132 273 162 287 190 290 192 329 186 364 180 399 172 408 140 395 112 395 110 420 104 417 82 445 75 485 69 505 66 533 59 541 50 562 44 602 39 606 69 607 71 582 77 602 104 601 135 626 161 632 170 600 177 580 179 543 164 527 158 493 137 487 134 451 110 419 106 445 101 464 100 458 101 426 109 433 107 467 103 446 107 430 112 459 107 471 107 434 113 435 115 447 113 475 110 460 113 440 118 473 113 480 113 448 119 444 122 461 119 484 117 474 118 449 125 489 120 462 125 452 128 475 124 494 123 488 124 457 132 463 131 499 126 476 130 462 135 489 130 504 129 502 130 466 138 477 136 511 132 490 136 470 141 503 136 517 135 478 142 476 145 491 142 522 138 505 141 480 148 518 141 528 141 492 148 485 151 506 147 534 144 519 147 491 154 493 154 532 147 540 147 507 153 495 157 520 153 545 151 533 153 501 160 508 159 546 152 550 154 521 159 505 164 534 159 558 156 547 158 509 165 511 167 522 165 563 160 535 165 518 170 548 164 568 163 561 164 523 171 523 173 536 170 576 165 549 170 530 176 562 170 583 168 575 170 537 176 535 179 550 176 590 171 563 176 543 181 577 175 602 173 590 175 551 182 548 185 564 182 603 175 614 173 600 177 637 201 639 215 600 224 567 228 533 218 523 217 496 224 481 257 469 266 490 260 486 261 469 262 473 261 494 255 470 257 485 255 496 251 472 255 470 253 498 246 484 249 473 249 500 242 496 243 474 244 483 243 501 238 477 240 495 237 503 233 482 237 479 235 505 229 494 231 483 231 507 224 506 224 486 226 493 225 506 223 523 217 489 193 450 183 417 175 431 173 469 166 475 167 444 172 429 177 457 172 480 170 470 172 436 180 445 178 485 173 458 178 443 183 471 178 490 176 484 178 446 184 447 186 459 184 496 180 472 184 452 189 486 183 503 182 499 183 460 190 458 192 473 190 507 186 487 189 462 196 500 189 513 189 474 196 468 199 488 195 517 192 501 195 474 202 475 201 514 195 524 195 489 201 478 205 502 201 531 198 515 201 485 208 490 207 528 200 535 201 503 207 491 211 516 206 542 204 529 206 497 214 504 213 542 206 548 207 517 212 494 219 530 212 554 210 543 212 505 219 489 224 518 218 556 212 557 211 533 218 531 224 507 222 531 218 563 214 544 218 515 225 519 224 558 217 570 217 532 224 524 227 545 224 575 220 559 223 533 230 572 223 581 223 546 230 542 232 560 229 594 223 600 224 596 255 593 286 598 316 611 344 614 362 582 369 550 373 529 365 507 367 471 349 461 344 425 326 416 322 395 311 375 313 341 292 335 289 306 264 287 237 272 229 244 232 246 226 284 217 293 209 253 215 237 217 227 188 222 163 189 167 172 172 143 200 134 209 111 243 96 277 89 308 89 339 96 368 101 389 119 388 133 384 147 351 164 317 183 283 206 249 241 235 231 236 191 246 206 243 231 241 219 243 188 250 193 249 225 246 207 249 185 255 220 249 222 250 195 255 182 259 208 255 219 255 182 261 179 264 196 261 216 259 209 261 176 269 183 267 212 264 197 267 172 273 210 267 210 269 185 273 170 278 198 273 208 273 172 279 167 282 186 279 205 278 199 279 164 287 173 285 202 282 187 285 161 291 200 285 199 287 174 291 159 296 188 291 197 291 162 297 156 300 176 297 195 296 189 297 154 305 163 303 191 300 177 303 151 309 190 303 189 305 164 309 149 314 178 309 186 309 152 315 146 318 166 315 184 314 179 315 144 323 153 321 180 318 167 321 141 327 178 323 154 327 140 332 168 327 177 327 142 333 137 336 155 333 174 332 169 333 135 341 143 339 171 336 157 339 133 345 170 339 170 341 144 345 131 350 158 345 168 345 132 351 129 354 145 351 165 350 159 351 126 358 133 357 163 354 146 357 125 363 160 357 160 359 134 363 124 367 148 363 159 363 122 371 135 369 156 367 149 369 119 376 123 375 154 372 136 375 118 380 150 375 153 376 124 381 117 384 138 381 150 381 116 387 119 388 120 418 122 438 127 436 119 435 121 435 128 431 115 432 129 427 120 429 111 428 132 422 108 425 119 423 134 418 105 421 131 417 135 414 117 417 101 418 104 417 136 409 130 411 100 414 116 411 139 405 103 411 97 410 129 405 141 401 115 405 95 407 102 405 141 399 143 396 127 399 94 403 114 399 145 392 140 393 101 399 92 399 126 393 147 387 113 393 89 395 100 394 139 387 149 383 125 387 89 393 101 389 108 382 115 387 112 387 87 390 99 388 116 383 86 386 111 381 115 379 98 382 84 382 85 382 114 375 110 376 82 378 97 376 112 371 84 376 82 374 109 370 112 367 96 370 80 371 83 370 110 363 108 364 79 367 95 364 109 359 82 364 78 363 107 358 108 356 94 358 78 359 81 358 107 352 106 352 77 355 93 352 106 348 80 352 76 351 105 344 92 346 76 347 79 347 104 340 76 343 91 340 103 336 78 341 75 339 103 332 90 334 76 335 77 335 102 328 76 331 89 329 101 324 76 327 101 322 101 320 88 323 76 323 101 316 100 316 77 318 87 317 101 312 77 314 99 311 101 308 86 311 77 310 102 304 98 305 79 306 85 305 102 300 79 302 97 299 103 296 83 299 79 298 104 291 96 293 79 294 82 293 105 287 81 289 95 287 107 283 81 287 81 285 107 281 108 278 94 281 82 281 111 274 106 275 83 277 92 275 112 270 84 273 105 269 114 265 91 269 85 268 116 261 104 263 86 264 90 263 120 256 116 257 88 260 102 257 122 252 89 257 90 255 115 251 125 247 101 251 91 251 127 243 114 245 94 246 100 245 132 238 126 239 96 242 113 239 135 233 99 239 99 237 125 233 137 229 111 233 101 233 137 227 140 224 124 227 104 228 110 227 144 219 136 221 107 224 123 221 148 215 109 221 109 219 135 215 151 210 121 215 112 215 147 209 154 205 134 209 116 210 120 209 159 200 146 203 119 205 133 203 164 195 158 197 123 201 145 197 168 191 132 197 126 196 157 191 173 186 144 191 129 191 130 191 169 184 179 181 156 185 134 187 143 185 181 178 187 175 168 179 137 182 155 179 197 169 180 172 142 179 141 177 167 173 203 166 189 167 213 134 229 133 213 136 189 142 226 136 230 137 201 142 175 149 176 149 214 142 230 141 227 142 189 148 167 154 202 148 231 145 215 148 177 155 160 160 190 154 228 148 232 149 203 154 165 161 154 165 178 160 216 154 232 153 229 153 191 160 153 167 148 170 166 167 204 160 234 157 217 160 179 166 144 175 154 173 192 166 230 159 234 159 222 163 218 170 209 165 235 163 218 166 211 169 232 165 236 167 213 173 219 171 237 170 233 171 213 177 238 174 220 177 213 181 234 177 240 178 214 185 221 183 242 182 235 183 213 189 242 186 223 189 213 193 236 189 245 189 213 197 224 195 247 193 237 195 212 201 249 197 225 201 212 205 238 201 252 200 251 200 212 207 211 210 226 207 255 204 239 207 210 214 214 213 252 206 258 207 227 213 207 218 240 213 266 210 253 212 215 219 206 223 228 219 266 212 267 212 293 209 327 201 287 202 264 202 277 200 316 193 354 186 392 180 404 180 367 186 329 193 290 200 266 206 304 199 342 192 380 186 395 185 393 185 355 192 317 199 278 206 267 210 291 205 330 199 368 192 386 191 381 192 343 198 305 205 268 212 293 209 284 217 324 212 330 211 351 211 320 217 307 217 345 210 364 205 332 211 295 217 284 217 244 221 204 225 241 218 279 212 318 205 356 198 376 197 369 198 331 205 292 211 254 218 216 225 202 229 229 225 267 218 306 211 344 204 368 202 357 204 319 211 280 218 242 224 204 231 201 232 246 226 270 226 293 217 255 224 217 231 197 236 230 231 268 224 294 221 281 223 243 230 205 237 194 241 218 237 256 230 295 223 296 223 272 229 271 235 248 233 269 230 298 227 282 229 258 236 296 229 303 230 270 236 265 239 283 235 305 233 297 235 270 242 271 241 309 237 284 241 275 245 298 241 311 241 278 249 286 247 313 244 299 247 281 252 312 247 314 248 287 253 284 256 300 253 316 252 313 252 287 259 288 259 318 256 301 259 288 263 314 258 320 259 290 267 302 265 323 263 315 264 292 270 327 266 303 270 293 274 316 270 333 269 329 270 294 278 304 276 341 272 317 276 296 282 330 276 349 274 343 276 305 282 296 286 318 282 358 277 331 282 297 290 306 288 344 281 365 280 358 281 319 288 298 294 332 288 370 283 345 287 307 294 306 296 320 294 359 287 375 286 372 287 333 294 321 298 346 293 377 290 360 293 330 300 334 299 373 293 381 293 348 299 337 303 361 299 385 297 374 299 343 306 349 305 387 300 362 305 347 309 375 304 390 304 388 304 353 312 363 311 393 307 376 310 358 316 389 310 393 309 395 311 410 306 400 306 414 304 426 303 394 309 395 311 423 312 432 305 402 310 364 317 362 319 377 316 415 310 438 307 428 309 390 316 367 322 403 316 445 310 416 315 378 322 373 325 391 322 430 315 450 314 443 315 404 322 381 328 417 321 455 317 431 321 392 328 391 330 405 328 444 321 460 320 457 320 418 327 400 333 432 327 463 323 445 327 406 333 409 335 420 333 458 326 467 327 433 333 418 337 446 333 472 330 459 332 424 341 434 339 472 332 475 333 447 338 429 344 460 338 479 337 473 338 435 345 435 347 448 344 486 340 461 344 439 350 474 344 494 342 487 344 449 350 443 353 462 350 500 343 514 343 475 350 446 357 450 356 488 349 527 345 502 349 463 356 450 360 476 356 515 349 534 348 528 349 489 355 452 364 464 362 503 355 540 350 516 355 477 362 454 368 490 361 529 354 545 354 542 354 504 361 465 368 457 371 478 367 517 361 551 357 530 360 492 367 459 375 466 374 505 367 543 360 554 358 529 365 526 371 501 370 518 367 559 361 531 366 510 372 544 366 566 364 557 366 519 373 516 375 532 372 573 367 545 372 522 378 558 372 580 368 582 369 604 394 571 402 554 409 565 407 581 402 550 406 577 401 591 398 604 394 631 391 662 416 658 447 645 480 629 514 618 532 651 528 672 522 707 502 718 496 756 487 796 481 813 479 853 502 870 530 870 544 849 550 825 552 808 547 768 553 759 554 719 563 688 589 674 601 647 631 642 637 615 667 610 673 583 703 578 709 548 733 509 741 489 745 450 754 411 763 372 772 366 775 378 773 417 766 455 759 493 753 532 746 570 739 574 736 557 739 519 746 480 753 442 760 404 767 385 768 390 767 429 760 467 753 506 746 544 740 580 731 569 733 531 740 492 747 454 754 416 760 396 762 402 761 441 754 479 747 518 740 556 734 584 729 548 733 578 721 586 726 581 727 543 734 520 736 530 734 568 727 592 721 555 728 531 730 542 728 580 721 597 716 567 721 538 724 554 722 592 715 602 711 579 715 543 719 566 716 606 706 591 709 553 716 550 714 578 709 609 702 604 703 565 710 555 709 590 703 614 697 577 703 559 705 564 704 602 697 617 692 589 697 564 700 576 697 615 691 621 688 601 691 569 695 588 691 624 683 614 685 575 692 573 690 600 685 628 678 626 679 587 685 578 685 612 679 632 673 599 679 582 680 586 679 625 673 636 669 611 673 586 675 598 673 637 667 639 664 624 667 592 670 610 667 644 659 636 661 597 667 597 665 623 661 649 654 648 654 609 661 601 661 635 655 652 650 621 655 606 656 608 655 647 648 656 645 634 649 610 651 620 649 659 640 646 643 613 646 633 643 665 635 658 636 619 643 617 642 645 637 668 631 631 637 620 637 657 630 672 626 644 631 624 632 630 631 669 624 677 621 656 625 628 627 643 625 682 616 668 618 632 623 655 619 686 611 680 612 642 619 635 618 667 612 691 606 654 613 641 613 679 606 696 601 666 607 646 608 653 607 691 600 700 596 678 600 651 603 665 601 705 592 690 594 656 598 677 594 710 587 702 588 664 595 660 593 689 588 714 582 676 589 667 588 701 582 720 577 688 582 671 583 675 583 713 576 727 571 700 576 676 578 687 576 725 570 733 566 712 570 680 574 699 570 744 560 724 564 686 571 686 568 711 564 749 557 752 557 759 554 751 535 758 533 787 530 772 533 733 540 720 544 746 540 785 533 803 532 798 532 759 539 721 546 710 550 734 546 773 539 812 534 786 539 747 545 709 552 702 555 722 552 761 545 799 538 820 537 812 538 774 545 735 552 694 561 710 558 748 551 787 545 826 540 800 544 762 551 723 558 689 566 698 564 736 558 775 551 813 544 829 541 808 547 804 552 783 551 788 550 826 544 836 544 801 550 793 554 814 550 844 547 827 550 801 556 802 556 840 549 849 548 849 550 874 576 891 603 894 607 899 604 884 605 900 600 889 602 877 602 900 596 872 599 888 596 902 591 875 596 867 595 900 590 901 587 887 590 862 592 874 590 901 583 899 584 859 589 886 584 901 579 873 584 854 586 860 585 898 578 901 575 885 578 849 582 872 578 899 571 897 572 859 579 846 579 884 572 898 568 871 572 840 576 858 573 896 566 898 564 883 566 845 573 835 573 870 566 896 560 895 560 857 567 830 570 844 567 882 560 895 556 869 561 830 567 825 566 856 561 894 554 895 552 881 554 843 561 819 563 829 561 868 555 893 548 855 555 816 562 812 560 841 555 880 548 892 544 867 549 828 556 805 558 815 556 854 549 892 542 870 544 863 539 850 548 879 543 890 539 866 543 854 543 890 535 878 537 854 539 865 537 889 531 853 535 877 531 887 527 864 531 851 531 887 523 876 525 850 527 863 525 885 519 849 525 847 524 875 519 883 515 862 519 845 520 848 520 882 512 874 513 844 516 860 513 879 508 847 514 841 513 873 507 876 504 859 507 839 509 846 508 874 501 872 501 836 505 858 501 871 497 845 502 833 502 867 494 857 496 829 498 844 496 864 490 831 496 825 495 856 490 859 487 843 490 820 492 830 490 855 484 815 489 842 484 851 481 829 484 807 486 816 485 845 477 841 478 795 484 828 478 840 474 815 479 786 484 756 487 741 471 760 468 801 463 773 468 735 475 715 480 748 474 786 467 814 465 800 467 761 474 723 481 699 487 736 480 774 474 813 467 824 467 787 473 749 480 711 487 689 493 724 487 762 480 801 473 831 470 814 473 775 480 737 486 699 493 680 498 712 493 750 486 788 479 827 473 837 473 802 479 763 486 725 493 686 499 677 501 718 496 680 509 672 504 700 499 738 492 753 492 751 492 713 499 674 506 666 509 687 505 726 498 738 498 701 505 662 512 658 515 675 511 714 505 725 505 689 511 650 520 663 518 702 511 715 511 676 517 640 526 651 524 690 517 707 516 703 517 664 524 638 528 651 528 621 554 607 566 580 595 573 603 544 638 517 667 511 674 484 704 478 711 450 739 441 748 481 744 495 742 466 747 428 754 405 756 415 754 453 748 473 742 440 748 413 751 427 748 465 741 471 738 452 742 419 745 439 742 477 733 464 736 426 742 426 740 451 736 481 728 476 729 438 736 432 735 463 730 487 723 450 730 437 730 475 723 493 718 462 724 443 725 449 724 487 717 496 714 474 718 447 720 461 718 501 709 486 711 453 715 473 712 505 704 498 705 460 712 459 710 485 705 509 699 472 706 463 705 497 699 515 694 484 700 467 700 471 700 509 693 518 689 496 693 472 696 483 694 523 685 508 687 476 691 495 687 527 680 520 681 482 688 481 686 507 681 532 675 494 681 486 681 519 675 536 670 506 675 491 676 493 676 532 669 540 665 518 669 496 671 505 669 543 661 530 663 501 666 517 663 548 656 543 657 504 663 506 661 529 657 553 651 516 657 511 656 542 651 556 646 528 651 515 651 554 645 559 642 540 645 520 646 527 645 563 637 553 639 524 642 539 639 567 632 565 632 526 639 528 637 552 633 571 627 538 633 531 632 564 627 575 623 551 627 535 628 537 627 576 620 578 618 563 621 540 623 549 621 582 613 575 614 544 618 562 615 585 609 548 615 547 613 574 609 589 604 561 609 550 609 586 602 593 599 573 603 555 604 559 603 598 594 585 596 558 599 572 597 602 589 597 590 562 594 584 591 607 584 571 591 565 590 596 584 612 579 583 585 569 585 570 585 608 578 617 574 595 578 572 580 582 579 620 572 624 569 607 572 575 576 594 573 631 564 619 566 581 573 578 571 606 566 640 558 631 560 593 567 581 567 618 560 650 552 643 554 605 560 584 562 592 561 630 554 659 547 655 547 617 554 587 557 604 555 642 548 669 541 667 541 629 548 591 555 589 553 616 548 654 542 678 535 641 542 603 549 593 548 628 542 666 535 686 530 653 536 615 542 595 544 602 543 640 536 678 529 695 524 665 529 627 536 598 539 614 537 652 530 691 523 703 519 677 523 639 530 601 537 600 537 618 532 632 523 637 528 626 530 602 533 613 531 639 524 638 524 605 528 625 524 641 519 612 525 607 523 637 518 644 515 624 518 610 519 611 519 648 510 636 512 613 514 623 513 650 506 648 506 616 510 635 506 651 501 622 507 618 505 647 500 655 497 634 500 621 501 657 492 646 494 622 496 633 495 658 488 625 492 645 488 659 484 632 489 626 488 657 482 662 479 644 482 629 483 631 483 664 475 656 476 631 479 643 477 665 471 633 474 655 470 666 466 642 471 635 470 668 462 654 464 637 465 641 465 669 458 666 458 638 461 653 459 671 453 640 457 665 452 672 449 652 453 642 452 674 445 664 446 643 448 651 447 676 440 644 444 663 441 677 436 650 441 645 440 675 434 678 432 662 435 646 435 649 435 679 428 674 428 646 431 661 429 679 423 648 429 646 427 673 423 679 419 660 423 647 423 680 415 672 417 646 419 659 417 678 411 644 415 671 411 677 408 658 411 643 412 644 411 675 404 670 405 639 408 657 405 673 400 643 405 634 405 669 399 670 397 656 399 629 402 642 399 668 393 629 400 622 399 655 393 664 390 641 394 612 397 628 394 661 386 653 387 615 394 601 397 604 394 572 394 549 404 564 401 602 394 640 388 659 382 627 388 589 395 550 401 546 400 576 395 614 388 652 381 655 379 639 382 601 389 562 395 542 397 549 396 588 389 626 382 652 375 651 376 613 382 575 389 540 393 561 389 600 383 638 376 650 372 625 376 587 383 548 390 536 390 574 383 612 376 647 368 637 370 599 377 560 383 532 386 547 384 586 377 624 370 644 365 611 370 572 377 534 384 529 383 559 378 598 371 636 364 642 361 623 364 585 371 546 378 524 380 533 378 571 371 610 365 640 359 614 362 626 354 639 357 635 358 597 365 601 362 622 358 636 354 609 359 603 358 634 352 634 350 621 352 600 354 608 353 631 347 598 350 620 347 628 343 607 347 596 347 626 339 619 341 594 343 606 341 623 336 591 339 618 335 621 332 605 335 590 336 592 335 620 328 617 329 588 332 604 329 618 325 590 329 586 328 616 323 615 321 603 323 584 324 589 324 614 317 584 320 602 317 613 313 588 318 583 316 611 309 600 311 581 313 587 312 611 306 581 309 599 305 610 302 586 306 581 305 609 298 598 300 580 301 585 300 609 294 580 297 597 294 608 290 584 294 580 293 608 286 596 288 579 289 583 288 608 282 580 285 595 282 608 278 582 282 580 281 608 274 594 276 580 276 581 276 608 269 606 270 580 272 593 270 609 265 581 268 605 264 609 261 592 264 581 264 609 257 604 258 581 260 591 258 610 253 582 256 603 252 612 248 590 252 582 252 615 246 630 241 602 246 583 247 589 246 627 240 640 235 614 240 577 244 601 240 640 233 644 231 626 234 588 240 570 242 575 241 613 234 648 226 638 228 600 234 562 239 587 235 625 228 651 221 612 228 574 235 555 236 561 235 599 228 637 222 653 217 624 222 586 229 546 234 573 229 611 222 650 215 654 215 639 215 647 208 655 212 636 216 624 216 655 208 649 210 624 212 635 210 656 204 621 208 647 204 656 200 634 204 619 205 621 204 656 196 646 198 608 202 633 198 657 192 620 198 594 201 607 199 645 192 656 188 632 192 594 199 586 198 619 192 654 184 644 186 606 193 577 196 593 193 631 186 654 180 618 186 580 193 569 193 605 187 643 180 652 176 630 180 592 187 563 190 579 187 617 181 650 173 642 174 604 181 565 188 555 187 591 181 629 174 648 169 616 175 578 181 552 186 591 178 632 170 635 163 647 167 641 168 617 170 628 168 644 164 615 167 640 162 642 160 627 163 611 163 614 163 639 156 608 160 626 157 636 153 613 157 604 156 633 149 625 151 600 153 612 151 630 146 599 151 596 150 624 145 627 142 611 145 593 146 598 145 624 139 623 139 589 143 610 139 620 135 597 139 586 139 618 132 609 133 584 136 596 134 614 128 581 132 608 127 611 125 594 128 579 128 581 128 608 121 607 121 578 125 593 122 606 118 580 122 576 121 604 114 592 116 574 117 579 116 604 110 574 113 591 110 630 103 631 101 617 103 578 110 572 109 603 104 630 97 629 97 590 104 569 106 577 104 616 98 629 93 602 98 568 102 589 98 628 91 628 89 615 92 576 98 565 98 601 92 628 85 627 85 588 92 561 95 575 92 613 86 627 81 600 86 562 93 557 92 587 86 625 78 612 80 574 87 552 88 561 87 599 80 625 74 586 80 544 86 573 81 611 74 624 70 598 74 560 81 540 84 579 76 607 71 597 66 590 74 623 66 610 68 589 70 597 68 622 62 590 66 609 62 622 58 596 62 589 62 621 54 608 56 588 58 595 56 620 50 588 54 607 50 620 46 594 51 587 50 619 42 606 44 587 46 593 45 618 38 586 42 605 38 618 36 578 42 562 44 587 9 589 1 606 0 586 3 577 7 599 3 610 3 574 9 563 13 587 9 611 7 600 9 562 16 548 20 575 15 612 11 588 15 549 22 534 27 563 22 601 15 613 15 576 21 537 28 522 33 550 28 589 21 614 19 602 21 564 27 525 34 510 39 538 34 577 27 615 23 590 27 552 34 513 40 507 44 526 40 565 33 603 27 616 26 578 33 539 40 506 48 514 46 553 40 591 33 617 30 604 33 566 39 527 46 507 52 540 46 579 39 618 34 592 39 554 46 515 52 507 54 541 50 519 58 507 56 528 52 567 45 564 48 541 52 507 60 516 58 556 53 529 58 507 64 543 58 558 55 519 63 505 66 534 83 547 81 585 74 584 73 572 75 534 82 507 84 520 82 559 75 579 69 546 75 507 82 490 83 494 82 533 76 571 69 575 66 558 69 519 76 479 81 506 76 545 69 569 63 531 70 493 76 470 79 480 77 518 70 557 63 564 60 544 64 505 70 467 77 461 76 492 71 530 64 560 57 556 57 517 64 479 71 452 76 445 75 441 53 463 51 449 54 429 59 463 53 473 54 437 60 420 65 450 60 479 57 464 59 425 66 410 71 438 66 477 59 485 60 452 66 413 72 400 77 426 72 465 65 493 62 478 65 439 72 401 78 392 82 414 78 453 71 491 65 501 65 466 71 427 78 390 85 417 82 400 91 388 87 402 84 440 78 446 79 415 84 386 91 390 91 428 84 448 82 442 84 403 90 384 96 416 90 451 86 429 90 391 97 382 100 404 96 443 89 454 90 417 96 380 105 392 102 430 96 457 93 444 95 405 102 380 109 418 102 457 95 460 97 431 102 393 108 379 111 395 110 388 117 379 113 406 108 411 109 381 115 379 117 394 114 413 113 407 114 379 121 382 120 415 117 395 120 380 125 408 120 418 120 383 126 380 129 396 126 419 124 409 126 382 133 384 132 423 127 397 132 383 137 410 132 426 131 424 131 385 138 384 140 398 138 429 134 411 138 386 144 425 137 433 138 399 144 389 148 412 143 435 141 426 143 387 150 380 153 400 150 440 145 414 149 374 158 388 156 427 149 445 148 440 149 401 156 367 164 376 162 415 155 448 151 428 155 389 162 361 169 364 168 402 162 441 155 453 155 416 161 377 168 353 174 390 168 429 161 458 158 442 161 403 167 365 174 342 180 378 174 417 167 455 160 463 161 430 167 391 174 353 180 335 184 364 180 325 188 286 196 264 200 302 193 341 187 379 180 418 173 456 166 466 163 443 167 405 173 366 180 328 187 289 194 264 198 290 192 293 185 318 187 315 187 276 194 263 194 301 187 307 184 288 188 262 190 275 188 301 181 300 182 261 187 287 182 298 178 274 182 261 182 295 174 286 176 260 178 273 176 292 171 260 175 285 170 290 167 272 170 259 171 289 163 284 164 259 166 271 164 287 159 258 163 283 158 287 156 270 158 259 158 286 152 282 152 258 154 269 153 286 147 258 150 281 146 286 144 268 147 259 146 286 139 280 140 258 142 267 141 285 135 257 138 279 135 285 131 266 135 259 134 286 127 278 129 259 130 265 129 286 123 259 126 277 123 286 119 264 123 259 122 287 115 276 117 259 118 263 117 287 111 260 114 275 111 286 107 262 111 260 109 286 103 274 105 252 107 261 105 287 99 286 99 247 106 233 108 196 113 226 87 232 82 230 82 192 89 163 96 166 95 205 89 243 82 257 81 256 82 218 88 180 95 147 103 154 102 193 95 231 88 272 83 244 88 206 95 167 101 135 109 142 108 181 101 219 94 257 88 285 85 271 87 232 94 194 101 155 108 127 115 130 114 168 107 207 101 245 94 284 87 288 88 258 93 220 100 182 107 143 114 117 120 118 120 156 114 195 107 233 100 272 93 288 92 285 93 246 100 208 106 170 113 131 120 108 126 144 120 183 113 221 106 259 99 287 96 273 99 234 106 196 113 157 119 119 126 104 129 146 123 114 146 89 164 63 194 58 200 37 234 24 267 16 299 16 329 20 359 25 388 34 417 47 445 65 473 82 500 89 530 89 560 92 590 96 620 104 649 119 677 110 704 93 710 97 739 127 765 162 789 202 812 239 827 255 833 294 842 309 846 325 845 362 837 359 807 395 790 431 773 440 770 431 772 392 779 354 785 316 792 277 799 279 801 290 799 329 792 367 785 406 778 426 777 419 778 380 785 342 792 304 798 289 803 317 798 355 791 394 785 416 783 407 784 368 791 330 798 301 805 305 804 343 797 381 791 405 789 395 790 356 797 318 804 317 806 331 804 369 797 396 794 382 797 344 803 330 808 357 803 388 800 370 803 334 811 345 809 379 805 358 809 338 815 371 809 369 811 346 815 342 818 359 815 369 815 343 822 347 821 371 819 360 821 345 826 372 823 348 827 347 829 361 827 373 827 348 833 349 833 374 831 362 833 350 837 375 835 350 839 325 845 360 864 369 868 380 868 358 870 369 868 379 864 355 868 346 868 379 860 368 862 335 866 354 862 379 856 341 863 324 864 328 863 367 856 378 852 353 857 313 862 340 857 378 848 366 850 327 857 302 860 314 857 352 851 378 844 339 851 301 858 292 857 326 851 364 844 377 840 351 845 313 852 280 855 300 852 338 845 375 836 363 839 325 845 287 852 276 854 309 846 303 841 346 840 312 846 273 852 267 851 299 846 323 840 286 846 259 849 272 846 311 840 313 837 298 840 259 847 251 846 285 840 305 835 271 841 243 843 258 841 297 834 297 832 283 834 245 841 234 841 270 835 290 829 257 835 226 838 244 835 282 828 281 827 269 829 231 836 219 836 256 829 275 824 243 829 211 833 230 830 268 823 267 821 255 823 217 830 204 830 242 823 259 818 229 824 198 827 216 824 254 817 252 816 241 818 203 824 191 824 228 818 244 813 215 818 185 821 201 818 240 812 237 810 227 812 188 819 179 818 214 812 229 807 200 812 173 815 187 813 222 805 213 806 174 813 169 812 199 807 217 801 186 807 163 809 173 807 211 800 210 799 198 801 159 806 185 801 204 796 172 801 153 803 159 802 197 795 198 793 184 795 149 799 171 795 192 790 158 796 145 796 183 789 188 786 170 789 140 793 157 790 182 783 144 790 135 789 169 784 176 780 156 784 131 786 143 784 172 777 168 778 129 784 127 783 155 778 166 774 142 778 123 780 128 778 162 771 154 772 118 776 141 772 158 767 127 773 113 773 114 773 153 766 152 764 139 766 110 770 126 767 148 761 113 767 105 766 138 760 143 758 125 761 101 763 112 761 137 755 98 760 124 755 134 751 111 755 93 756 98 755 129 748 123 749 90 753 110 749 125 744 97 749 87 749 122 743 121 741 109 743 83 746 96 744 116 738 83 744 80 742 108 737 113 735 95 738 78 739 82 738 109 731 107 731 75 735 94 732 105 728 81 732 72 731 102 724 93 726 70 728 80 726 99 721 68 724 92 720 99 717 79 720 65 721 106 711 91 714 65 717 78 714 122 704 103 708 64 715 63 715 102 706 110 704 116 673 102 645 96 616 91 586 89 556 88 526 81 496 62 469 46 442 33 414 24 385 19 355 16 325 18 294 24 263 40 230 61 195 88 165 93 159 129 143 165 127 191 115 171 119 132 126 96 134 107 132 145 126 169 123 158 125 120 132 90 139 95 139 133 132 158 129 146 132 108 138 85 144 121 138 147 135 134 138 96 144 80 149 109 144 138 141 122 144 84 151 75 154 97 150 131 146 110 150 71 159 85 157 123 150 125 152 98 156 67 164 73 163 111 156 117 157 86 163 64 168 99 162 111 162 74 169 58 173 87 168 105 167 100 168 62 175 55 178 75 175 101 172 88 174 52 183 63 181 95 177 76 181 48 188 51 187 89 180 90 182 64 187 44 192 77 186 86 187 52 193 41 197 65 193 83 191 78 192 39 201 53 199 80 196 66 199 36 206 41 205 75 201 54 205 32 211 67 204 72 206 42 211 30 215 55 211 69 210 68 210 29 217 27 220 43 217 67 215 56 217 25 224 30 223 63 219 44 223 22 229 57 222 61 224 32 229 20 233 45 229 58 228 19 237 33 235 56 233 46 235 17 242 20 241 52 237 34 241 15 246 47 240 50 242 22 247 14 250 35 247 48 246 13 255 23 253 46 251 36 253 10 259 43 255 24 259 9 263 37 258 41 260 11 265 9 267 25 265 40 264 38 264 8 272 13 271 38 268 26 271 6 276 36 273 14 277 5 280 27 277 35 277 5 284 15 283 35 281 28 282 3 289 33 285 16 289 3 293 29 288 33 290 4 295 3 297 17 295 33 294 30 294 2 301 5 301 32 298 18 300 1 305 31 302 6 307 0 310 19 306 31 306 1 314 7 313 31 310 20 312 1 318 30 314 8 318 1 322 21 318 31 318 1 326 9 324 31 322 22 324 2 330 31 326 10 330 1 334 23 330 32 330 2 338 11 336 33 334 24 336 2 342 33 338 12 342 2 346 25 342 33 342 3 350 13 348 34 346 26 348 3 354 35 350 14 354 3 358 27 354 35 354 4 362 15 360 36 358 28 360 5 366 37 362 16 366 5 370 29 365 37 366 5 374 17 372 39 370 30 371 6 378 40 374 18 378 7 382 31 377 40 378 7 386 19 383 41 382 32 383 8 389 43 385 20 389 9 393 33 389 44 389 9 397 21 395 44 393 34 395 11 401 46 397 22 401 12 405 35 401 47 401 13 409 23 407 48 405 36 407 14 413 49 409 24 413 16 417 38 413 51 412 18 420 25 419 52 416 39 419 18 424 52 418 53 420 26 425 21 428 40 425 55 424 53 424 23 432 28 431 56 428 41 430 24 435 54 430 58 431 29 437 26 439 42 436 60 435 55 436 28 443 30 443 62 439 43 442 30 446 56 442 64 443 32 450 44 448 66 446 57 448 34 454 68 450 45 454 35 458 58 454 71 453 38 461 46 460 74 457 59 460 41 465 72 459 75 461 47 466 43 469 60 466 78 464 73 465 45 472 48 472 81 468 61 471 49 476 74 471 83 472 51 479 62 477 86 475 75 477 54 483 89 479 63 483 57 486 76 483 90 483 89 483 59 490 64 489 93 486 77 489 61 494 91 489 95 490 65 495 64 497 78 495 96 494 92 495 65 501 66 501 98 497 79 501 67 505 93 500 99 501 68 509 80 507 101 505 94 506 69 513 101 509 82 513 71 516 95 512 102 513 72 520 83 518 104 517 96 518 72 524 104 521 84 524 72 528 97 524 104 525 73 532 85 530 105 529 98 530 74 536 105 533 86 536 73 540 99 536 105 537 74 542 73 545 87 542 106 541 100 542 74 548 75 548 106 545 88 548 73 553 101 548 105 549 76 554 73 557 89 554 106 553 102 554 73 561 77 560 106 557 90 560 73 565 103 560 105 561 78 566 73 569 91 566 106 565 104 565 74 573 79 572 106 569 92 572 74 577 105 571 106 573 80 578 74 581 93 578 107 577 106 577 75 585 81 584 107 581 94 583 76 589 108 585 82 590 76 593 95 589 108 589 77 597 83 596 109 593 96 595 78 601 110 597 84 601 77 605 97 601 110 601 78 609 85 607 111 605 98 607 79 613 112 609 86 613 80 616 99 613 112 613 80 620 87 619 113 617 100 619 81 624 115 620 88 625 81 628 101 625 115 624 114 625 81 632 89 631 116 628 102 631 82 636 116 630 118 632 90 637 83 640 103 637 119 636 117 636 83 644 91 643 120 640 104 643 84 648 118 642 122 644 92 649 85 652 105 648 124 647 119 648 86 656 93 655 125 651 107 654 87 660 120 654 127 655 94 661 89 664 108 660 129 659 121 660 91 667 95 666 130 662 109 666 93 671 122 666 133 666 97 672 96 675 110 672 136 670 123 672 99 678 136 672 138 673 111 678 101 682 124 678 141 677 137 677 104 685 112 684 144 680 125 684 90 692 100 690 138 683 147 684 113 690 66 700 88 696 126 690 150 687 139 689 101 696 62 703 60 705 75 703 114 696 154 691 127 695 89 702 61 709 63 709 102 702 140 695 157 694 153 695 115 702 76 708 63 713 90 708 128 701 159 696 141 701 136 708 123 704 141 701 162 699 154 701 126 708 129 707 166 703 142 707 129 711 155 707 170 706 169 706 131 715 143 713 173 710 156 713 135 718 170 712 178 713 144 719 139 722 157 719 180 716 171 718 142 725 145 725 185 720 158 724 145 729 172 724 189 723 185 724 150 732 160 730 193 726 173 730 153 735 186 730 198 730 161 736 157 739 174 736 202 733 187 736 162 742 200 735 206 736 175 742 166 745 188 742 211 740 201 741 170 749 176 748 216 743 189 747 175 752 202 747 221 746 215 747 179 755 190 753 227 749 203 753 185 758 216 753 233 752 229 753 191 759 189 762 204 759 238 755 217 759 195 765 230 758 245 758 244 758 205 765 202 768 218 765 252 761 232 764 206 771 245 764 260 763 258 764 219 771 213 774 233 770 267 766 246 770 219 777 220 776 259 770 275 769 272 769 234 776 225 780 247 776 283 772 260 776 231 783 235 782 273 775 291 774 286 775 248 782 238 785 261 781 302 776 274 781 243 789 249 788 287 781 311 779 300 781 262 787 251 791 275 787 314 780 319 781 288 787 258 794 263 793 301 787 322 783 362 777 402 771 414 769 375 777 340 784 300 790 261 796 276 793 315 786 353 779 391 773 430 766 468 759 507 752 545 746 562 745 558 745 520 752 481 759 443 766 405 772 366 779 328 786 289 793 271 798 302 792 341 786 379 779 418 772 456 765 495 759 533 752 559 747 520 755 497 760 525 755 554 750 546 752 508 758 469 765 445 771 482 765 521 758 547 753 523 762 497 764 525 763 522 764 483 771 463 772 470 771 509 764 543 756 534 758 496 765 457 771 450 772 448 773 448 765 448 771 448 767 448 773 "/>
    <path id="Block1Jump2"
        fill="none"
        stroke="#0B3D91"
		stroke-width="2px"
		d="M 434 255 L 415 228 414 225 407 228 416 226 423 227 406 232 430 230 417 232 406 236 430 232 434 233 406 240 418 238 438 237 431 238 407 244 442 240 419 244 409 248 432 244 445 243 411 251 420 250 448 247 433 250 414 255 446 249 451 251 421 256 417 259 434 255 452 254 447 255 419 262 422 262 454 258 435 261 423 266 448 261 455 262 426 269 436 267 454 266 450 267 427 273 454 270 437 273 431 276 451 273 453 275 434 280 438 279 453 279 452 279 436 284 451 283 440 285 439 285 439 277 439 283 439 279 439 285 "/>
    <path id="Block1Jump3"
        fill="none"
        stroke="#0B3D91"
		stroke-width="2px"
		d="M 530 301 L 536 302 515 303 532 300 535 298 519 301 499 304 502 297 512 300 478 279 472 276 504 273 475 278 461 282 488 278 512 275 501 277 463 284 461 286 476 284 515 277 518 278 489 283 462 290 464 290 502 283 522 282 516 283 477 290 465 294 490 289 525 285 503 289 472 297 478 296 517 289 529 289 491 295 480 299 504 295 531 292 518 295 487 302 492 301 531 294 534 296 506 301 492 303 496 305 496 297 496 303 496 299 496 305 "/>
    <path id="Block1Jump4"
        fill="none"
        stroke="#0B3D91"
		stroke-width="2px"
		d="M 463 492 L 484 476 501 467 487 471 501 471 490 473 469 479 500 475 478 479 432 489 452 486 491 479 497 480 466 485 427 492 410 497 440 492 479 485 496 484 492 485 454 491 415 498 399 503 428 498 467 491 493 489 480 491 441 498 403 504 393 508 416 504 455 497 489 493 468 497 429 504 390 513 404 510 442 504 481 497 486 498 456 503 417 510 390 517 392 517 430 510 469 503 480 503 443 509 405 516 392 521 418 516 457 509 470 509 431 516 394 522 397 524 397 516 397 522 397 518 397 524 436 587 435 585 443 586 414 589 443 582 434 583 399 589 405 582 417 584 393 558 357 534 331 532 333 532 368 528 346 532 330 537 359 531 384 529 372 531 334 538 332 540 347 538 385 531 394 531 360 537 334 544 335 544 373 537 404 534 386 537 348 544 337 547 361 543 399 537 410 537 374 543 340 551 349 549 387 543 416 540 400 542 362 549 344 554 375 549 414 542 422 543 388 549 350 555 348 558 363 555 402 548 426 546 415 548 376 555 352 561 389 555 428 550 403 554 364 561 357 564 377 561 416 554 432 553 429 554 390 560 361 568 365 567 404 560 434 557 417 560 378 567 367 571 392 566 430 560 435 561 405 566 371 574 379 573 418 566 438 564 431 565 393 572 376 577 406 572 439 568 419 572 380 578 382 580 394 578 432 571 440 572 407 578 385 584 420 578 441 576 433 577 395 584 390 587 408 584 442 580 421 583 393 588 397 590 397 582 397 588 397 584 397 590 "/>
    <path id="Block1Jump5"
        fill="none"
        stroke="#0B3D91"
		stroke-width="2px"
		d="M 378 682 L 376 683 379 682 383 679 365 682 357 684 361 677 369 680 365 650 362 620 357 596 351 600 361 600 346 605 364 604 352 606 344 609 365 605 367 607 346 613 353 611 371 610 366 611 348 616 373 614 354 617 349 620 367 617 375 618 350 624 355 623 377 621 368 623 352 628 379 625 356 629 351 632 369 629 379 629 352 636 357 635 380 633 370 635 351 640 381 637 358 641 351 644 371 641 380 641 350 649 359 647 380 645 372 647 350 653 380 649 360 653 351 657 373 653 380 653 349 661 361 659 379 658 374 658 349 665 380 662 362 665 350 669 375 664 380 666 350 673 363 671 380 670 376 670 352 677 381 674 364 676 354 680 377 676 382 677 356 682 359 685 359 677 359 683 359 679 359 685 "/>
    <path id="Block1Jump6"
        fill="none"
        stroke="#0B3D91"
		stroke-width="2px"
		d="M 300 599 L 309 567 328 543 310 548 329 547 321 549 303 554 330 551 309 555 297 559 322 554 331 555 297 561 293 564 310 561 330 559 323 560 288 569 298 567 331 563 311 567 286 573 324 566 331 567 299 573 284 577 312 572 331 571 325 572 287 579 281 582 300 579 330 575 313 578 279 586 288 585 327 578 330 580 301 585 277 591 314 584 330 584 328 584 289 591 276 595 302 590 329 588 315 590 277 597 274 599 290 597 328 592 303 596 272 604 278 603 316 596 328 596 291 603 272 608 304 602 326 600 318 602 279 609 271 612 292 608 324 605 305 608 269 617 280 615 319 608 323 609 293 614 268 621 306 614 321 614 320 614 281 621 268 625 294 620 317 618 308 620 269 627 267 629 282 626 313 623 295 626 268 633 270 633 305 629 283 632 269 635 271 636 271 628 271 634 271 630 271 636 "/>
    <path id="Block1Jump7"
        fill="none"
        stroke="#0B3D91"
		stroke-width="2px"
		d="M 214 578 L 237 561 210 562 223 559 261 552 277 552 275 552 236 559 199 568 211 565 249 559 272 557 262 558 224 565 192 573 199 572 237 565 269 561 250 565 212 571 188 578 225 571 264 564 266 566 238 571 200 578 183 582 213 577 251 571 262 571 226 577 188 584 181 587 201 583 239 577 255 576 252 576 214 583 180 591 189 590 227 583 240 583 202 589 178 596 201 594 190 596 176 600 186 600 178 602 177 602 179 603 179 595 179 601 179 597 179 603 "/>
    <path id="Block1Jump8"
        fill="none"
        stroke="#0B3D91"
		stroke-width="2px"
		d="M 271 512 L 260 507 238 481 228 476 242 474 252 474 219 482 230 480 262 476 243 480 212 487 218 486 256 479 269 479 231 486 207 492 244 486 274 482 257 485 219 492 205 497 232 492 271 485 279 486 245 492 207 498 204 501 220 498 258 491 283 489 272 491 233 498 208 504 246 498 285 491 288 492 259 497 221 504 213 508 234 504 273 497 293 495 286 497 247 503 218 511 222 510 261 503 295 499 274 503 235 510 224 514 248 509 287 503 299 502 262 509 230 517 236 516 275 509 303 506 288 508 249 515 237 519 263 515 301 508 305 509 276 515 247 522 251 521 289 514 309 513 302 514 264 521 256 524 277 521 311 517 290 520 269 526 303 520 313 520 278 526 280 528 291 526 316 524 304 526 294 530 316 528 299 531 304 532 304 524 304 530 304 526 304 532 303 483 301 453 296 423 289 394 297 374 278 380 286 378 298 378 277 384 299 382 287 384 275 388 301 386 274 393 288 390 301 390 275 396 276 396 303 394 289 396 275 401 302 396 305 397 277 402 275 405 290 402 306 401 303 402 276 408 278 408 307 405 291 408 277 412 304 408 309 409 279 414 277 416 292 414 309 413 305 413 278 420 280 420 311 417 293 420 279 424 306 419 313 420 281 426 280 428 294 426 313 424 308 425 280 432 282 432 314 428 295 431 282 436 309 431 316 432 283 438 283 440 296 437 316 436 310 437 283 444 284 444 317 440 297 443 284 448 311 443 318 444 285 450 285 452 299 449 319 448 312 449 285 456 286 455 318 452 300 455 287 459 313 455 318 456 288 463 301 461 318 460 314 461 288 467 317 464 302 467 290 471 315 467 316 468 291 475 303 473 315 473 293 479 312 477 304 479 293 483 310 482 298 484 296 484 296 476 296 482 296 478 296 484 330 523 358 488 370 455 376 430 368 431 359 435 381 431 386 432 354 440 369 437 391 435 382 437 350 444 357 443 393 439 370 443 347 449 383 443 396 442 358 449 344 453 371 449 398 446 384 448 346 455 342 458 359 455 397 448 399 450 372 455 340 462 347 461 385 454 398 454 360 461 338 467 373 461 398 458 386 460 348 467 336 471 361 467 396 463 374 467 335 475 349 473 387 466 394 467 362 473 334 480 337 479 375 472 393 471 388 472 350 479 332 484 363 479 391 476 376 478 338 485 331 488 351 485 388 480 364 485 331 492 339 491 377 484 383 485 352 491 330 497 365 490 379 490 378 490 340 497 329 501 353 497 375 495 366 496 329 505 341 503 370 500 354 503 329 509 363 505 342 509 328 513 355 508 354 511 330 515 328 517 343 515 344 516 328 521 331 521 332 523 328 523 329 524 329 516 329 522 329 518 329 524 328 524 " />
</svg>
