<?xml version="1.0" encoding="UTF-8" standalone="no"?>
<svg xmlns="http://www.w3.org/2000/svg" version="1.1" width="394" height="470">
    <path id="Block1Jump0"
        fill="none"
        stroke="#B27624"
		stroke-width="2px"
		d="M 248 341 L 244 339 266 349 262 356 259 381 257 406 273 427 280 436 294 448 309 444 292 430 293 413 298 389 315 365 330 346 352 336 369 342 376 364 376 377 371 385 371 381 377 381 372 377 380 378 371 374 381 374 369 372 383 370 368 370 384 365 379 366 367 368 385 361 366 367 386 356 378 359 367 364 387 351 364 364 387 346 377 353 366 360 386 342 362 361 381 342 385 338 375 347 364 356 383 334 361 359 377 336 380 331 371 343 362 354 378 328 365 345 372 330 374 325 368 338 359 356 363 346 371 323 360 352 368 321 364 331 360 341 364 319 358 356 360 317 359 330 357 356 357 338 356 315 357 348 357 354 352 314 353 327 355 351 352 336 348 315 351 340 344 315 347 326 356 357 347 335 340 316 349 344 353 358 337 317 340 326 351 360 341 337 333 319 343 347 348 361 329 321 332 329 345 362 334 340 326 323 337 349 343 363 323 325 326 332 340 365 328 344 319 327 331 352 338 366 316 330 319 336 335 367 322 347 313 332 326 356 333 368 310 335 313 340 331 369 317 350 307 337 321 358 329 370 304 340 327 371 311 354 301 343 316 362 325 372 298 346 323 373 306 358 296 350 312 365 322 375 295 353 321 377 301 363 293 357 308 369 319 379 291 361 318 382 296 368 289 364 304 374 318 384 312 381 288 368 317 386 292 375 286 372 300 380 316 388 309 385 284 375 315 390 289 381 283 379 297 385 314 392 307 390 281 383 314 395 286 388 280 387 294 391 313 397 304 395 280 391 312 399 280 395 290 398 311 403 303 402 279 399 310 407 278 403 290 406 310 411 302 410 277 407 309 415 282 412 276 411 288 414 309 420 301 419 276 415 309 424 281 421 275 420 287 423 309 428 300 427 275 424 309 432 280 429 275 428 287 431 309 436 299 435 274 432 310 441 274 436 287 439 309 444 310 456 320 456 339 446 349 423 357 407 356 411 350 409 356 415 349 412 355 419 348 416 354 423 346 420 353 427 345 424 351 431 344 427 349 434 343 430 347 438 342 433 345 442 341 437 343 446 339 440 341 450 337 442 338 453 334 445 334 456 331 446 331 459 329 447 327 461 326 448 325 454 323 463 323 449 319 465 320 448 315 466 318 447 310 467 316 445 306 468 312 451 314 444 304 463 302 468 309 451 312 443 297 468 311 441 297 461 293 467 303 451 310 440 306 445 289 465 309 438 290 459 286 463 297 449 307 437 300 443 283 460 305 435 284 454 280 458 292 445 303 433 296 439 277 455 301 431 278 449 273 453 287 440 298 429 290 435 270 450 296 426 273 444 267 448 282 435 294 424 286 429 264 445 292 422 268 438 260 443 277 430 290 420 282 425 257 440 287 418 264 432 254 438 273 424 285 415 278 419 251 435 283 413 258 426 249 431 269 419 281 411 275 414 247 428 278 409 255 420 244 425 265 413 277 406 271 409 242 422 277 404 251 414 240 418 261 409 276 402 267 405 238 414 276 401 248 408 237 411 258 404 276 399 265 401 235 407 276 397 244 402 234 403 256 399 276 396 263 397 233 399 275 394 242 395 231 395 254 393 275 392 261 392 230 391 275 391 241 388 229 387 252 388 275 389 261 387 228 383 276 388 241 381 228 379 252 382 271 385 255 371 260 360 276 340 281 334 292 344 266 332 291 348 282 344 259 333 274 342 290 352 262 338 253 334 289 356 278 351 248 337 269 349 288 360 258 346 244 339 250 342 286 363 275 358 241 342 266 356 285 367 255 353 238 345 247 350 283 371 271 365 236 348 262 362 282 373 252 360 234 352 243 356 281 375 270 370 233 355 260 367 281 377 250 366 231 359 241 363 280 379 268 375 230 363 259 374 279 381 249 372 229 367 239 371 271 382 229 371 258 379 277 385 248 379 229 375 238 377 271 385 228 379 258 385 276 388 248 385 228 383 232 384 227 383 232 383 228 383 222 387 224 382 223 387 225 383 217 406 225 418 227 412 221 419 227 407 214 420 215 416 227 404 204 421 226 399 218 405 201 422 210 410 226 394 201 416 196 422 221 393 226 388 213 399 191 422 204 405 225 383 196 410 185 422 215 388 225 378 207 393 180 421 198 399 225 372 191 405 176 419 209 382 224 367 201 388 172 418 193 393 220 365 225 360 212 371 185 399 167 417 176 405 204 376 228 352 196 382 168 410 163 415 177 393 198 377 174 402 162 414 165 407 195 378 185 385 161 408 176 391 195 372 168 396 161 403 188 373 200 360 179 379 161 398 171 385 199 356 190 362 161 392 182 368 202 347 174 374 160 387 193 351 205 338 185 357 160 381 177 362 206 332 168 368 160 376 188 345 204 328 179 351 160 371 171 356 198 328 203 323 190 334 159 365 182 340 203 318 174 345 159 360 193 323 203 312 185 328 159 354 176 334 202 307 168 340 158 350 188 317 202 302 179 323 157 345 171 328 198 300 202 296 191 306 162 334 155 341 182 311 201 291 174 317 153 338 165 323 194 294 201 286 185 300 157 328 151 334 176 306 199 282 168 312 149 331 165 310 181 291 188 283 163 288 151 289 130 302 108 314 111 292 97 272 105 267 90 281 112 266 103 275 92 289 115 266 91 295 100 286 121 265 108 280 91 298 117 275 125 267 97 297 91 303 106 292 128 269 114 286 92 308 123 280 130 273 103 303 93 313 111 297 131 277 120 292 94 317 100 315 126 288 109 308 100 320 116 303 108 318 115 310 115 317 123 309 139 292 131 303 118 316 140 297 166 271 148 292 124 316 157 286 178 264 165 281 137 309 130 316 146 297 164 280 185 258 197 242 192 228 186 234 197 222 182 240 170 252 190 235 202 222 171 257 165 263 179 252 208 222 188 246 172 262 196 241 214 222 204 235 179 261 163 280 157 286 139 303 127 316 157 286 185 258 212 229 216 225 194 252 165 281 137 309 130 316 146 303 174 275 201 246 219 228 209 241 182 269 154 297 134 317 162 292 191 263 221 232 198 258 171 286 143 314 138 319 151 308 179 280 207 252 224 235 188 274 159 303 141 321 168 297 196 269 226 238 204 263 176 292 148 320 144 324 157 314 185 286 212 258 229 241 193 280 165 308 146 327 174 303 201 275 232 244 209 269 182 297 154 326 149 331 162 320 191 291 218 263 234 247 226 258 225 261 237 250 216 264 214 273 232 290 250 308 260 318 278 324 275 325 278 316 274 320 264 327 278 314 257 329 276 310 269 314 253 330 260 320 275 305 252 325 245 332 227 347 209 365 203 372 215 360 243 331 273 301 235 337 207 364 226 343 255 314 272 297 246 320 218 348 210 356 238 325 266 297 270 293 257 303 229 331 211 349 249 309 268 290 241 314 212 343 232 320 260 292 265 287 252 297 224 325 213 336 243 303 262 284 235 309 214 330 226 314 255 286 259 282 246 292 214 323 238 297 256 279 229 303 214 318 249 280 253 276 240 286 211 315 232 292 251 273 224 297 211 310 215 303 246 272 235 280 211 304 226 286 242 270 218 291 210 297 237 269 229 275 210 294 221 280 233 268 212 286 208 290 225 267 207 285 215 275 223 267 223 264 204 283 207 278 202 282 226 258 236 248 234 254 238 249 228 261 239 251 234 262 242 253 239 262 246 255 244 262 249 258 249 263 252 260 252 265 255 263 256 268 259 265 259 270 262 267 262 273 266 269 264 276 269 271 266 280 273 273 273 279 276 275 276 281 280 277 278 286 284 279 279 290 288 281 280 294 286 289 298 277 294 283 281 296 303 277 308 274 283 300 292 294 310 276 300 289 284 305 308 286 287 308 301 305 309 328 318 316 304 330 314 317 318 313 306 323 295 333 297 328 317 308 291 328 308 311 317 303 300 317 290 324 316 298 311 300 289 322 303 306 314 294 294 312 288 318 312 291 306 294 287 313 297 300 308 286 285 309 285 307 309 282 304 284 308 281 305 285 309 282 311 282 "/>
    <path id="Block1Jump1"
        fill="none"
        stroke="#B27624"
		stroke-width="2px"
		d="M 324 186 L 324 186 319 187 323 185 319 187 325 185 319 187 326 181 315 186 325 176 311 184 317 178 323 170 309 184 321 166 303 183 311 173 320 164 303 178 298 183 317 158 292 183 305 167 316 156 297 173 287 183 289 178 315 152 308 156 281 183 300 162 314 148 291 167 277 181 283 173 311 145 319 137 302 156 298 161 318 144 321 146 318 146 315 146 320 141 315 144 319 139 291 167 276 183 311 145 319 137 303 150 274 179 270 183 294 156 318 132 286 161 265 182 277 167 305 139 320 124 297 145 269 173 261 181 288 150 317 121 340 104 361 126 350 143 336 148 335 132 325 125 331 122 325 128 338 120 334 125 325 137 341 120 324 143 331 136 345 122 340 130 324 149 347 126 328 147 324 152 337 142 348 131 324 160 348 136 334 153 326 161 342 147 351 139 371 118 356 138 350 145 360 164 353 168 363 158 343 172 362 153 368 147 354 159 340 172 345 165 373 137 365 142 334 173 357 147 374 130 348 153 331 170 368 130 373 125 359 136 329 167 351 142 372 121 342 147 326 163 362 125 371 116 360 120 350 134 354 130 369 112 351 130 365 114 369 110 356 119 351 124 366 104 350 120 359 108 366 101 351 113 347 117 363 96 344 115 354 102 362 94 345 108 337 116 337 113 359 91 324 120 348 96 356 88 339 107 326 116 344 98 355 87 340 102 311 131 283 159 259 183 274 164 303 136 331 108 353 86 332 102 313 119 292 130 311 113 319 97 313 92 309 84 297 71 272 74 263 74 240 92 223 105 218 107 224 104 221 107 242 89 246 86 259 70 228 72 223 75 205 89 209 85 233 61 218 80 210 88 226 74 238 62 235 68 219 84 240 63 251 58 256 44 265 21 261 14 256 10 260 9 259 16 263 12 261 20 266 15 262 24 268 18 265 27 270 22 253 38 246 40 238 37 246 21 238 29 218 51 248 21 226 46 221 51 235 40 252 23 243 34 226 51 252 28 255 25 233 53 240 46 259 27 269 20 249 40 234 54 257 34 270 22 266 28 238 56 246 51 272 25 255 45 241 59 234 69 219 84 235 68 263 39 273 29 243 63 222 84 251 57 276 32 260 51 232 79 226 85 240 74 269 46 280 35 249 68 230 87 257 63 283 37 266 57 238 85 231 92 246 80 274 51 286 39 255 74 230 99 263 68 289 42 272 62 243 91 232 102 226 108 231 108 224 107 235 96 263 68 290 42 272 62 243 91 226 108 252 85 280 57 293 44 279 65 269 76 250 92 235 105 260 79 288 51 294 45 269 74 238 105 277 68 298 48 286 62 257 91 243 105 266 85 294 57 301 50 274 80 248 106 283 74 303 53 291 68 263 96 251 108 271 91 300 62 305 57 280 85 255 110 289 79 307 61 302 76 287 83 297 73 308 62 305 68 293 83 310 66 296 86 303 80 314 71 297 88 316 75 299 92 308 85 317 77 305 94 319 80 305 100 314 91 324 84 305 103 332 81 311 102 303 110 320 96 335 81 328 91 305 117 338 84 318 98 304 120 283 135 271 145 290 129 291 119 279 97 270 104 253 118 246 111 250 117 251 115 251 120 254 117 254 122 257 120 275 102 286 85 266 101 257 113 276 95 286 85 270 103 252 121 250 124 243 122 230 118 219 115 205 120 219 110 210 118 222 112 217 117 225 114 222 117 229 116 227 118 233 118 231 120 238 119 235 121 242 120 240 123 247 121 243 125 252 122 247 127 255 125 251 129 254 124 249 128 265 112 288 88 276 106 291 92 283 102 278 107 293 97 280 110 294 102 289 108 284 116 295 104 287 118 296 109 286 124 297 113 289 127 299 117 279 132 259 151 267 140 262 129 265 114 259 120 252 130 265 117 256 132 266 122 258 135 268 126 260 139 271 128 260 145 275 130 258 152 267 143 280 131 276 137 260 154 242 165 235 169 222 171 213 167 208 146 200 156 209 148 201 162 211 151 201 167 213 155 203 170 216 158 206 174 219 160 211 171 207 175 219 166 223 162 212 179 228 162 216 180 225 171 234 162 233 166 221 181 241 161 230 178 252 155 239 171 234 176 247 166 255 158 234 176 239 171 267 143 282 128 298 115 283 130 254 159 238 175 263 153 291 125 300 116 321 101 338 81 328 91 300 119 272 147 243 176 280 141 308 113 337 85 341 81 326 101 309 119 295 135 276 152 258 168 236 186 223 191 214 191 200 188 183 169 178 145 163 130 155 109 173 91 182 83 162 85 139 95 116 105 107 107 101 112 121 96 137 81 154 63 161 52 152 36 142 29 127 39 123 42 113 52 117 48 123 42 127 39 135 27 115 41 101 64 113 78 123 73 131 57 126 48 133 44 124 53 137 45 125 57 121 61 134 51 140 48 121 67 141 52 131 62 124 69 141 52 127 73 124 78 130 80 136 72 117 91 139 63 128 74 109 93 120 79 140 59 111 85 105 91 131 62 141 52 123 68 103 88 119 66 100 85 111 71 117 65 103 77 97 82 113 61 95 79 106 65 111 60 97 71 92 76 109 53 91 72 100 60 108 52 90 69 105 49 113 39 101 25 97 29 90 36 106 23 116 16 88 44 94 40 121 13 103 34 87 50 111 29 127 13 91 51 87 55 100 46 132 14 108 40 88 60 117 35 137 15 125 29 97 57 89 65 106 51 134 23 141 16 114 45 90 69 123 40 146 17 142 29 126 39 131 34 148 17 140 28 130 38 148 23 153 20 135 39 157 23 145 34 138 41 154 28 160 25 142 43 163 28 151 40 145 46 160 34 166 30 147 50 169 33 157 45 147 55 165 40 172 36 143 64 154 57 173 37 162 51 148 66 132 85 111 106 100 116 114 102 143 74 171 46 179 38 151 68 123 96 99 120 131 91 159 63 187 35 168 57 140 85 111 113 98 126 120 108 148 80 177 51 195 33 185 46 157 74 129 102 98 133 108 125 137 96 165 68 194 40 202 31 174 62 145 91 117 119 97 139 125 113 154 85 182 57 208 30 191 51 162 79 134 107 103 138 143 102 171 74 198 45 215 28 206 40 179 68 151 96 123 124 105 142 131 119 159 91 188 62 215 34 220 29 196 57 168 85 140 113 111 142 108 145 105 148 122 130 140 113 157 95 170 82 187 64 204 46 221 28 225 21 215 17 219 16 215 20 225 16 217 23 230 16 220 27 204 46 188 64 170 82 150 102 132 119 114 136 105 145 131 119 159 91 188 62 215 34 232 17 223 29 196 57 168 85 140 113 111 142 105 148 120 136 148 108 176 80 204 51 232 23 237 18 212 45 185 74 157 102 128 130 105 154 137 124 165 96 193 68 220 40 241 19 229 34 201 63 174 91 145 119 117 147 104 160 125 142 154 113 182 85 207 59 191 79 162 108 134 136 109 161 143 130 171 102 198 74 212 60 179 96 151 125 122 153 115 160 131 147 159 119 187 91 217 60 196 85 168 113 140 141 115 166 148 136 177 108 204 80 223 61 212 74 185 102 157 130 128 159 118 169 137 153 165 125 193 97 221 68 228 61 201 91 174 119 145 147 124 169 147 152 166 136 184 115 201 93 182 113 154 142 127 169 162 136 191 108 201 97 171 130 142 159 132 169 151 153 179 125 202 101 187 119 159 147 138 169 168 142 196 114 205 104 177 136 148 165 143 170 157 158 185 130 209 105 193 125 165 153 148 170 174 147 201 119 214 106 182 142 153 171 163 164 191 136 204 122 171 158 157 172 179 153 202 129 188 147 162 174 196 142 203 134 176 164 166 175 185 159 204 138 193 153 169 177 201 147 206 142 182 170 173 179 194 164 177 181 196 168 188 176 182 184 196 170 185 187 197 173 193 181 186 188 201 178 189 191 204 181 198 187 195 193 206 182 200 194 209 184 206 193 213 186 211 194 218 187 216 194 223 188 221 195 231 186 226 196 241 180 262 165 280 149 297 134 314 115 330 96 343 81 317 108 289 136 260 164 232 193 269 159 297 131 326 102 346 82 334 96 305 125 277 153 249 181 243 187 286 147 314 119 342 91 349 84 322 113 294 141 266 170 251 184 255 181 251 184 254 180 251 184 "/>
    <path id="Block1Jump2"
        fill="none"
        stroke="#B27624"
		stroke-width="2px"
		d="M 236 110 L 231 111 232 109 236 110 "/>
    <path id="Block1Jump3"
        fill="none"
        stroke="#B27624"
		stroke-width="2px"
		d="M 224 53 L 224 53 225 58 220 56 225 54 "/>
    <path id="Block1Jump4"
        fill="none"
        stroke="#B27624"
		stroke-width="2px"
		d="M 161 268 L 161 268 158 264 162 267 159 264 161 266 162 268 157 264 158 271 153 265 156 270 152 269 156 272 149 271 154 275 147 273 151 278 144 274 148 281 142 275 144 281 139 275 140 281 136 281 141 282 136 282 141 281 136 281 121 323 125 321 121 324 126 322 121 325 127 322 106 329 120 326 133 324 107 333 138 327 112 335 108 336 122 333 142 330 133 333 108 340 144 333 115 342 109 344 125 341 145 337 135 340 111 348 146 341 117 349 111 351 127 348 148 345 137 347 112 353 149 348 113 356 128 354 151 352 138 354 114 358 152 356 115 361 129 361 153 360 139 361 116 364 149 364 155 364 117 366 129 367 156 368 139 368 118 369 149 371 157 372 118 372 129 373 157 376 139 375 118 374 149 379 157 380 119 377 129 379 156 384 139 382 119 380 148 386 156 388 119 383 128 385 156 392 138 389 119 385 147 394 155 396 118 388 127 391 155 400 136 395 116 390 145 401 154 404 114 392 125 397 154 408 134 401 113 394 143 407 153 412 111 396 124 402 151 415 132 407 110 398 140 414 149 419 108 400 121 407 147 422 129 413 107 402 137 421 145 426 110 407 105 404 118 413 143 429 126 419 104 406 133 427 141 433 107 411 102 408 115 418 139 436 123 424 101 409 129 433 136 439 104 415 99 411 112 422 133 441 119 429 98 413 124 438 130 444 101 419 96 415 108 427 127 447 114 435 95 416 119 444 124 450 97 423 93 419 103 431 121 453 109 440 91 422 113 449 118 455 95 429 99 435 113 456 104 444 89 424 109 457 91 430 91 445 86 447 71 448 50 435 45 432 47 436 50 432 48 440 54 433 51 444 58 434 53 447 60 435 56 450 63 436 59 453 65 437 63 447 62 455 67 438 66 457 69 438 70 451 70 459 72 437 73 461 75 436 76 449 77 462 77 457 77 436 81 463 79 435 82 449 85 462 80 434 89 461 83 438 82 433 89 449 93 460 86 438 84 431 97 459 85 430 95 448 101 458 90 437 86 429 105 458 87 427 100 445 109 457 95 436 91 430 113 456 109 451 89 424 91 426 107 418 106 411 104 397 99 372 82 349 67 330 43 324 23 333 14 355 21 379 23 378 18 376 23 374 14 373 23 370 11 370 23 366 15 366 9 366 22 363 7 362 22 361 14 359 6 358 22 359 6 354 21 356 14 353 6 350 23 354 6 346 25 352 16 347 6 342 26 350 6 337 28 349 19 342 7 333 12 336 29 347 8 329 31 346 22 337 10 325 16 330 32 345 12 322 34 344 26 333 15 319 20 325 36 343 18 316 37 343 30 330 21 314 25 321 39 342 25 312 38 337 41 342 35 327 28 310 31 317 41 338 32 309 42 335 44 341 40 324 36 307 44 337 40 306 41 314 46 341 45 323 44 305 47 333 48 304 48 313 49 341 51 322 52 304 50 332 56 305 55 313 51 342 55 322 59 306 54 332 63 307 61 313 53 343 61 323 67 308 57 334 71 310 68 316 55 344 66 325 75 311 61 335 56 344 78 313 74 319 58 345 71 328 82 315 66 337 60 346 85 317 80 323 62 347 76 332 88 320 70 340 63 348 90 323 86 327 65 350 81 336 93 326 74 344 67 351 95 330 69 353 86 341 98 333 79 349 71 355 100 336 73 358 90 347 103 339 83 354 75 360 105 342 101 345 77 363 94 353 107 345 86 359 78 365 109 349 80 368 98 359 110 353 90 365 82 370 111 357 83 373 102 365 112 361 93 371 84 376 113 365 85 379 106 372 114 369 96 377 86 382 115 373 86 385 109 379 116 377 99 384 87 389 117 381 87 392 111 386 118 385 102 390 88 395 93 394 119 389 88 398 114 394 119 393 104 397 89 401 95 400 120 397 89 404 115 402 121 401 105 404 90 407 96 407 121 405 90 410 117 409 122 409 106 411 90 413 97 413 123 412 90 416 117 416 123 416 107 417 91 419 99 420 108 421 91 422 91 426 92 421 92 426 91 421 91 426 " />
    <path id="Block2Jump5"
        fill="none"
        stroke="#000000"
		stroke-width="2px"
		d="M 160 263 L 155 264 159 262 155 264 163 262 157 262 167 258 160 258 171 254 163 254 174 250 167 250 176 246 171 246 178 242 175 242 177 240 190 194 204 194 192 192 185 188 174 182 160 176 143 170 118 169 111 162 116 156 116 158 107 162 115 162 107 166 115 166 108 165 103 162 99 148 105 138 100 145 93 138 96 120 106 102 102 92 86 72 84 52 90 32 110 18 116 12 143 14 160 20 173 34 187 32 210 28 214 14 231 16 247 20 254 18 253 8 262 10 270 18 275 28 295 43 299 46 313 67 323 82 318 84 328 82 318 82 329 78 350 82 363 92 370 104 376 128 369 152 363 164 348 174 343 178 347 180 337 178 350 178 328 178 323 190 334 204 329 218 333 216 330 216 337 212 322 212 342 208 321 208 333 206 345 206 320 202 347 202 347 200 320 200 335 202 350 204 350 210 345 216 348 214 348 210 352 210 348 206 355 206 354 204 348 204 331 198 320 202 348 200 319 200 333 198 345 198 317 194 337 194 316 190 329 190 323 188 316 188 329 184 325 184 331 180 325 180 332 176 324 176 324 174 332 174 328 172 322 160 323 146 321 132 322 126 328 120 341 116 348 122 349 136 348 134 351 130 347 130 351 126 346 126 351 122 346 122 348 118 346 118 341 114 346 116 336 116 350 120 326 120 331 122 320 124 326 124 319 128 325 128 318 132 325 132 318 136 325 136 320 140 324 140 321 144 324 144 314 148 324 148 316 152 324 152 318 156 323 156 319 160 325 160 321 164 327 164 322 168 330 168 323 172 332 172 324 176 332 176 353 176 323 174 356 174 341 172 361 170 349 170 365 166 358 166 368 162 361 162 370 158 363 158 372 154 365 154 373 150 367 150 375 146 369 146 377 142 371 142 379 138 372 138 380 134 374 134 379 130 373 130 379 126 373 126 379 122 372 122 378 118 371 118 376 114 370 114 374 110 369 110 373 106 367 106 372 102 366 102 370 98 364 98 367 94 361 94 364 90 358 90 361 86 353 86 357 82 344 82 326 77 317 80 343 80 356 80 333 78 316 78 323 76 326 74 315 74 319 70 314 70 317 66 312 66 315 62 310 62 312 58 307 58 309 54 305 54 306 50 301 50 303 46 296 46 298 42 290 42 292 38 285 38 286 34 279 34 280 30 274 30 275 26 272 26 274 22 271 22 272 18 268 18 269 14 265 14 266 10 260 10 263 8 260 8 243 0 250 2 243 6 260 6 263 8 245 8 258 12 249 12 258 16 250 16 258 20 249 20 249 22 258 22 257 26 262 24 254 24 259 20 244 20 238 18 243 16 227 16 235 14 207 14 214 16 200 18 215 18 200 22 217 22 199 26 219 26 203 28 197 28 196 32 183 32 185 36 183 36 178 38 172 36 185 36 191 34 170 34 175 30 165 30 174 26 161 26 164 24 173 24 153 20 168 20 143 16 160 16 133 12 144 12 151 10 133 10 117 10 151 10 124 12 112 12 116 16 107 16 109 20 97 20 102 24 91 24 96 28 89 28 92 32 88 32 90 36 86 36 88 40 84 40 87 44 82 44 87 48 80 48 88 52 80 52 88 56 81 56 88 60 81 60 89 64 81 64 90 68 81 68 91 72 81 72 92 76 88 76 99 80 90 80 99 84 92 84 100 88 94 88 105 92 96 92 105 96 99 96 108 99 117 92 127 86 133 80 141 68 145 54 138 42 127 44 117 56 119 66 116 64 120 64 112 60 122 60 111 56 123 56 111 52 125 52 120 48 127 48 122 44 131 44 125 40 131 40 135 40 124 42 141 42 138 46 145 46 141 50 147 50 143 54 147 54 141 58 145 58 139 62 142 62 138 66 148 66 136 70 144 70 134 74 141 74 132 78 137 78 129 82 133 82 124 86 129 86 117 90 125 90 123 92 113 92 107 99 98 94 119 96 99 96 114 100 101 100 110 104 99 104 105 108 97 108 101 112 93 112 100 116 91 116 99 120 92 120 99 124 93 124 98 128 93 128 98 132 91 132 97 136 90 136 89 138 97 138 100 145 105 140 94 142 105 142 94 146 105 146 94 150 105 150 93 154 105 154 97 158 104 158 101 162 104 162 102 166 104 166 108 168 119 172 107 176 103 180 101 188 102 206 110 230 112 236 119 252 129 266 137 274 134 282 139 285 152 280 169 262 175 264 166 264 170 268 161 268 165 272 157 272 161 276 153 276 157 280 149 280 152 284 149 284 130 295 124 298 117 310 113 308 119 308 115 304 123 304 118 300 126 300 120 296 131 296 123 292 139 292 134 290 125 290 149 286 128 286 144 284 152 284 149 280 155 280 155 278 151 278 131 278 140 266 159 244 174 232 171 234 169 238 164 238 165 242 158 242 162 246 156 246 156 248 160 248 150 244 156 234 170 224 165 226 164 230 158 230 158 234 153 234 154 238 150 238 153 242 148 242 146 244 154 244 162 246 144 248 160 248 143 252 157 252 141 256 153 256 140 260 149 260 139 264 146 264 138 268 142 268 142 270 138 270 128 270 141 270 136 280 131 278 137 278 131 274 143 274 128 270 134 270 142 268 127 268 132 266 118 262 97 266 87 288 87 312 92 320 117 322 133 322 143 328 147 334 152 346 158 370 158 397 152 422 137 442 124 454 97 464 91 465 75 462 56 454 50 446 45 432 46 434 45 438 48 438 46 442 50 442 47 446 52 446 49 450 56 450 52 454 61 454 55 458 67 458 63 462 77 462 72 464 77 464 90 468 104 466 81 466 72 464 108 464 113 462 104 462 95 460 117 460 113 456 126 456 122 452 130 452 126 448 134 448 130 444 138 444 134 440 142 440 139 436 145 436 142 432 147 432 144 428 150 428 146 424 154 424 156 422 147 422 154 420 178 420 148 420 166 416 151 416 162 412 153 412 161 408 154 408 161 404 154 404 161 400 155 400 161 396 155 396 161 392 156 392 161 388 156 388 161 384 156 384 160 380 157 380 160 376 157 376 160 372 157 372 160 368 156 368 159 364 155 364 159 360 153 360 159 356 152 356 158 352 151 352 157 348 149 348 156 344 148 344 154 340 146 340 152 336 145 336 150 332 143 332 147 328 140 328 143 324 132 324 134 322 141 322 126 318 136 318 113 318 103 322 109 346 115 371 118 386 118 384 119 380 117 380 118 376 116 376 118 372 115 372 118 368 114 368 117 364 113 364 115 360 112 360 113 356 111 356 112 352 110 352 111 348 109 348 109 344 106 344 108 340 103 340 107 336 100 336 107 332 97 332 106 328 94 328 113 324 104 324 90 322 117 322 108 318 117 318 122 318 128 318 133 316 108 318 136 318 104 320 88 320 79 310 65 306 53 302 42 304 19 312 9 322 3 342 5 362 12 372 19 380 41 392 51 398 40 398 45 406 50 410 46 408 50 408 43 404 47 404 39 406 43 430 52 428 42 428 48 424 41 424 44 420 40 420 42 416 39 416 41 412 38 412 42 408 36 408 36 406 43 406 47 404 34 402 45 402 33 398 47 398 33 394 47 394 26 378 24 370 23 362 27 352 36 344 51 346 69 356 78 368 86 390 88 412 87 424 79 434 68 438 57 432 48 432 61 432 66 438 76 436 62 436 74 434 80 434 85 430 80 430 88 426 84 426 90 422 86 422 90 418 86 418 90 414 86 414 90 410 86 410 89 406 86 406 89 402 86 402 88 398 85 398 88 394 85 394 87 390 84 390 86 386 84 386 86 382 82 382 84 378 81 378 83 374 78 374 81 370 76 370 79 366 74 366 76 362 71 362 73 358 68 358 70 354 64 354 66 350 58 350 59 346 47 346 51 342 47 342 40 342 55 344 34 344 30 346 34 348 28 348 30 352 25 352 27 356 22 356 25 360 22 360 24 364 25 368 23 368 26 372 23 372 28 376 23 376 29 380 23 380 23 382 29 382 33 382 34 390 49 396 30 394 47 394 26 390 43 390 22 386 38 386 19 382 33 382 31 380 17 380 14 376 18 376 11 372 13 372 8 368 10 368 5 364 7 364 2 360 7 360 0 356 6 356 0 352 6 352 0 348 6 348 0 344 6 344 0 340 6 340 1 336 6 336 2 332 7 332 3 328 8 328 5 324 10 324 7 320 14 320 10 316 18 316 14 312 25 312 20 308 34 308 29 304 48 304 42 300 44 300 48 301 44 300 35 302 55 302 64 304 59 306 70 306 72 310 82 310 80 314 82 314 89 316 95 318 84 316 93 316 76 312 92 312 88 305 83 310 91 308 84 308 91 304 85 304 91 300 85 300 91 296 84 296 92 292 83 292 92 288 82 288 92 284 83 284 92 280 85 280 94 276 87 276 97 272 89 272 101 268 91 268 81 266 109 266 121 259 129 264 86 264 114 262 127 260 118 260 124 256 117 256 122 252 116 252 119 248 115 248 117 244 113 244 115 240 112 240 113 236 111 236 111 232 109 232 110 228 108 228 108 224 105 220 105 216 103 216 105 212 102 212 104 208 100 208 104 204 100 204 100 202 104 202 81 204 68 206 59 208 69 220 83 234 86 250 88 256 88 254 83 250 89 250 83 246 89 246 78 250 70 258 64 266 71 264 61 264 71 260 66 260 73 256 70 256 77 252 73 252 75 250 80 250 84 243 89 248 78 246 89 246 80 242 89 242 81 238 89 238 81 234 85 234 77 230 81 230 73 226 77 226 69 222 73 222 65 218 69 218 61 214 64 214 58 210 63 210 54 206 78 206 96 202 104 204 64 204 59 204 94 202 104 200 99 200 103 196 98 196 103 192 98 192 103 188 99 188 103 184 99 184 105 180 101 180 110 176 105 176 129 172 109 172 115 168 109 168 115 168 109 166 115 164 102 166 115 166 109 170 145 170 142 172 145 172 166 178 188 189 197 196 184 202 167 204 156 220 142 228 128 234 132 252 130 250 135 246 126 246 136 242 124 242 136 238 122 238 137 234 120 234 137 230 120 230 133 232 144 234 137 234 132 229 119 232 146 232 119 230 147 230 134 228 118 228 136 226 148 226 142 218 140 214 130 210 139 206 138 200 142 196 132 198 143 198 133 202 145 202 130 206 147 206 130 210 147 210 130 209 117 206 117 194 129 190 154 192 164 192 154 200 159 198 153 198 166 194 153 194 176 190 151 190 151 188 164 188 176 189 151 188 126 192 118 188 113 180 120 182 113 182 121 186 112 186 124 190 111 190 111 192 124 192 146 188 156 186 162 186 149 186 136 186 136 178 130 180 139 180 130 184 141 184 130 188 142 188 142 190 130 190 134 188 164 188 176 190 164 190 124 190 111 190 116 192 110 192 142 194 109 194 116 201 123 196 111 198 121 198 111 202 120 202 112 206 121 206 112 210 121 210 112 210 129 212 121 216 128 226 116 224 126 224 115 220 126 220 114 216 127 216 114 212 127 212 113 212 130 210 148 208 112 210 148 210 124 212 113 212 134 214 146 214 136 218 147 218 149 226 136 226 144 224 152 222 138 222 137 220 161 220 152 218 167 216 154 216 167 212 157 212 166 208 160 208 168 204 163 204 168 202 166 202 184 201 191 204 197 216 192 220 186 222 191 224 184 234 186 232 184 228 192 228 186 224 196 224 191 222 197 222 180 220 198 220 203 220 199 220 204 214 208 210 205 200 210 202 205 202 212 206 205 206 210 210 205 210 207 214 201 214 205 218 201 218 190 214 185 218 194 218 206 216 190 216 195 214 199 212 195 212 199 208 191 208 198 204 184 204 166 202 174 202 198 200 193 200 204 196 190 196 196 192 190 192 170 180 157 172 149 174 161 174 163 178 168 178 171 182 176 182 179 186 184 186 185 190 192 190 189 194 217 194 215 198 217 198 212 196 220 196 226 196 241 190 256 184 281 186 306 184 273 184 255 184 250 187 256 186 244 188 249 188 233 192 239 192 222 196 231 196 223 200 229 200 229 206 229 204 223 200 229 200 224 198 230 198 215 198 219 206 230 214 248 226 243 224 247 224 237 220 245 220 232 216 242 216 229 212 232 212 229 212 219 210 223 200 217 202 222 202 218 206 221 206 218 210 220 210 232 212 218 212 227 214 214 216 222 216 209 220 222 220 216 224 224 224 218 228 226 228 221 232 228 232 225 236 232 236 228 240 236 240 232 244 240 244 236 248 245 248 241 252 251 252 246 256 257 256 252 260 264 260 258 264 264 264 275 260 274 252 281 254 273 254 281 258 270 258 268 260 282 260 277 262 285 262 273 262 255 262 283 264 290 264 302 264 301 250 291 248 283 244 279 240 271 238 263 234 264 222 274 218 264 214 265 204 259 204 269 206 259 206 269 210 259 210 273 214 252 214 273 218 256 218 274 219 287 214 282 208 291 210 282 210 291 214 282 214 273 219 254 216 283 216 292 218 256 218 296 222 273 222 259 222 268 226 258 226 268 230 257 230 271 234 255 234 263 236 271 236 271 238 255 238 271 237 282 234 289 230 279 232 288 232 277 236 287 236 277 236 271 238 261 242 256 248 260 246 254 246 267 242 254 242 267 238 254 238 261 237 255 236 263 236 287 236 273 238 254 240 287 240 272 242 292 244 274 244 291 250 306 244 305 228 297 226 310 222 311 214 306 206 282 202 286 200 261 198 243 202 247 210 241 208 246 208 238 204 247 204 239 200 248 200 248 198 240 198 264 202 289 198 309 198 305 190 298 186 283 186 293 186 307 186 298 188 309 190 300 190 310 194 304 194 312 198 306 198 312 202 306 202 281 198 267 198 264 194 269 192 263 194 258 194 285 194 282 188 290 190 282 190 291 194 280 194 255 194 249 196 273 196 292 196 283 198 240 198 245 199 239 200 253 200 293 200 312 200 287 200 259 202 283 202 313 202 308 204 314 204 303 204 282 206 315 206 310 211 296 208 316 210 303 210 316 214 307 214 317 218 307 218 316 222 306 222 296 228 280 224 315 224 293 226 280 226 303 228 314 228 307 235 301 232 296 230 313 232 301 232 312 236 303 236 311 240 304 240 310 244 303 244 291 250 274 246 309 246 283 248 274 248 293 250 308 250 297 254 308 254 297 258 307 258 296 262 306 262 293 266 310 266 303 268 293 268 316 268 293 270 287 272 291 280 281 278 296 278 283 276 278 276 303 272 271 272 293 270 303 270 283 268 271 268 264 268 261 266 293 266 313 266 303 268 264 268 273 270 318 272 305 272 318 272 325 272 305 272 332 276 338 276 343 278 332 276 312 276 316 280 320 305 321 314 346 316 363 316 382 328 388 340 386 364 388 362 386 358 393 358 386 354 393 354 386 350 392 350 387 346 392 346 387 342 391 342 384 338 390 338 382 334 389 334 379 330 388 330 375 326 387 326 370 322 383 322 363 318 375 318 359 314 367 314 363 312 359 312 334 312 329 316 306 334 295 338 278 332 282 330 273 307 264 280 244 266 238 262 227 262 233 262 247 262 243 264 225 266 252 266 236 270 257 270 253 274 262 274 256 278 266 278 260 282 269 282 269 284 261 284 273 280 276 280 271 280 279 305 283 320 280 326 257 332 245 336 238 342 230 354 226 376 230 401 228 422 243 426 250 438 263 448 287 468 312 470 319 466 333 460 341 452 350 436 358 418 358 406 370 384 368 372 363 364 357 359 347 366 324 376 319 386 313 406 310 426 311 436 318 446 332 444 322 444 321 448 332 446 317 446 312 442 316 442 310 438 313 438 309 434 312 434 308 430 312 430 308 426 312 426 308 422 312 422 309 418 313 418 310 414 313 414 310 410 314 410 311 406 314 406 312 402 315 402 313 398 316 398 314 394 318 394 316 390 319 390 317 386 320 386 319 382 322 382 320 378 325 378 322 374 331 374 329 370 339 370 337 366 353 366 345 362 353 362 345 362 360 358 350 360 361 360 341 364 364 364 367 368 364 368 370 372 367 372 370 376 368 376 372 380 368 380 373 384 367 384 373 388 367 388 375 384 382 376 382 370 382 372 383 376 380 376 381 380 378 380 378 384 374 384 375 388 353 402 348 408 345 416 340 436 341 434 343 430 341 430 345 426 341 426 346 422 342 422 347 418 342 418 347 414 342 414 342 412 347 412 343 414 338 416 341 416 348 414 340 412 349 412 344 408 350 408 348 404 350 404 358 404 366 394 372 386 367 386 375 388 366 388 371 392 363 392 370 396 358 396 368 400 353 400 366 404 348 404 353 406 365 406 359 413 352 408 364 410 355 410 362 414 357 414 360 418 356 418 358 422 354 422 357 426 352 426 355 430 351 430 353 434 349 434 352 438 347 438 350 442 345 442 348 446 343 446 346 450 340 450 342 454 337 454 338 458 332 458 333 462 326 462 327 466 316 466 317 470 288 470 317 470 303 468 284 468 281 466 287 464 278 464 282 460 273 460 277 456 269 456 272 452 265 452 267 448 259 448 262 444 253 444 257 440 248 440 252 436 245 436 249 432 242 432 246 428 239 428 213 426 245 426 203 424 168 424 194 422 233 422 242 422 232 417 216 420 241 420 233 418 228 416 239 416 228 412 237 412 228 408 235 408 228 404 233 404 227 400 232 400 227 396 231 396 227 392 230 392 226 388 230 388 225 384 229 384 225 380 229 380 224 376 229 376 224 372 229 372 224 368 229 368 225 364 230 364 225 360 231 360 227 356 232 356 228 352 234 352 230 348 236 348 233 344 239 344 236 340 243 340 240 336 249 336 245 332 261 332 260 328 281 326 284 322 282 316 279 304 274 292 260 282 277 284 261 284 273 286 278 286 267 290 280 290 270 294 281 294 273 298 282 298 274 302 283 302 275 306 284 306 276 310 285 310 277 314 286 314 279 318 287 318 280 322 288 322 269 326 290 326 283 328 260 328 292 332 272 332 278 334 292 334 272 332 295 332 293 352 283 372 280 380 277 406 277 404 278 400 279 396 276 396 280 392 274 392 280 388 275 388 281 384 277 384 282 380 278 380 283 376 280 376 285 372 282 372 287 368 284 368 289 364 286 364 291 360 288 360 293 356 290 356 295 352 291 352 298 348 292 348 300 344 292 344 303 340 288 340 308 336 282 336 293 334 310 334 302 332 315 330 307 330 321 326 310 326 328 322 314 322 323 320 331 320 317 316 341 316 333 314 327 314 341 313 363 312 350 312 363 312 367 314 353 314 317 314 321 307 325 312 317 310 325 310 317 306 324 306 317 302 323 302 317 298 324 298 313 294 328 294 310 290 325 290 308 286 322 286 316 282 319 282 312 278 316 278 315 276 310 276 313 274 343 274 338 270 342 270 336 266 340 266 335 262 339 262 334 258 338 258 333 254 336 254 333 250 335 250 332 246 334 246 333 244 331 242 331 247 331 242 332 247 332 242 329 238 332 238 329 241 329 238 "/>
    <path id="Block2Jump6"
        fill="none"
        stroke="#000000"
		stroke-width="2px"
		d="M 329 232 L 329 232 328 237 328 232 328 237 330 227 339 220 337 218 337 223 334 221 335 226 330 223 332 229 327 226 331 232 324 229 330 234 324 233 328 237 324 236 328 238 323 236 328 237 324 236 322 247 322 242 323 247 323 242 323 266 317 266 323 266 327 264 314 262 327 262 314 258 328 258 313 254 328 254 313 250 327 250 316 246 326 246 321 242 323 242 318 241 323 241 318 242 323 242 311 184 313 187 309 186 312 184 "/>
    <path id="Block2Jump7"
        fill="none"
        stroke="#000000"
		stroke-width="2px"
		d="M 252 147 L 252 147 257 149 252 148 257 150 241 144 247 159 235 139 231 134 243 148 250 157 232 132 254 154 239 137 234 131 250 145 257 151 235 129 259 147 242 133 260 142 239 130 259 137 251 134 246 132 256 132 237 129 250 128 242 128 245 125 239 127 241 123 237 128 237 122 233 127 233 121 230 127 230 119 227 127 226 118 224 127 222 117 222 127 218 117 219 127 214 117 216 126 210 118 214 127 206 120 211 127 203 123 212 129 202 127 210 130 202 131 212 132 203 135 210 133 204 138 212 134 206 142 214 136 208 146 217 136 210 150 220 136 213 154 222 136 224 148 235 141 247 159 240 148 230 134 234 141 243 160 232 142 239 161 236 153 228 135 231 145 235 162 228 143 231 162 227 135 227 149 227 162 225 142 223 161 224 136 221 151 219 160 222 139 215 157 222 136 213 154 217 144 220 136 210 150 213 146 210 150 212 145 210 150 197 155 201 155 197 156 201 156 199 156 195 158 201 159 194 162 201 163 195 166 201 165 196 170 202 167 197 173 203 170 200 177 205 172 202 180 207 174 205 182 209 177 214 182 224 184 235 180 242 174 238 175 240 181 235 176 236 183 231 177 232 185 227 179 228 186 223 181 225 187 220 181 221 188 217 181 217 187 214 180 213 186 211 178 209 184 209 177 205 182 207 174 202 180 205 176 202 180 205 176 202 180 182 208 181 215 177 209 185 212 179 214 "/>
    <path id="Block2Jump8"
        fill="none"
        stroke="#000000"
		stroke-width="2px"
		d="M 181 225 L 181 225 176 232 172 225 178 231 174 231 "/>
    <path id="Block2Jump9"
        fill="none"
        stroke="#000000"
		stroke-width="2px"
		d="M 239 233 L 239 233 233 233 239 224 237 237 235 224 239 233 "/>
    <path id="Block2Jump10"
        fill="none"
        stroke="#000000"
		stroke-width="2px"
		d="M 202 287 L 202 287 202 282 203 286 203 282 206 307 209 332 204 358 198 373 192 377 197 377 194 374 201 375 196 370 203 371 197 368 205 368 199 365 207 365 200 362 209 361 199 358 210 357 199 354 211 353 200 351 211 349 202 348 212 345 203 345 212 341 204 341 213 337 205 338 213 333 208 334 214 329 206 333 214 324 209 329 215 318 205 330 212 317 203 326 211 315 203 321 211 311 203 316 211 307 203 311 211 304 202 307 211 301 202 303 210 297 202 299 209 293 202 295 208 289 201 291 207 286 201 287 204 282 201 283 206 282 201 283 205 281 201 283 "/>
    <path id="Block2Jump11"
        fill="none"
        stroke="#000000"
		stroke-width="2px"
		d="M 106 255 L 111 256 106 256 111 257 104 256 93 245 100 248 93 243 98 252 107 258 96 255 101 259 111 257 110 253 108 249 106 246 105 240 103 242 105 236 101 239 103 232 99 235 102 228 97 232 100 224 95 230 99 219 91 229 97 214 89 229 93 214 86 228 82 218 75 214 77 211 77 221 81 212 80 224 85 213 84 226 89 213 86 228 93 214 89 229 97 214 93 217 96 213 94 218 97 214 "/>
    <path id="Block2Jump12"
        fill="none"
        stroke="#000000"
		stroke-width="2px"
		d="M 208 103 L 203 103 208 102 203 102 216 102 223 84 214 86 228 86 223 88 209 88 231 92 201 92 213 94 231 94 223 96 201 96 229 100 202 100 213 102 227 102 211 106 217 106 211 106 217 106 212 105 217 105 212 106 217 106 220 112 217 108 221 111 218 108 222 113 222 108 226 115 226 109 230 116 230 109 234 118 234 110 237 119 238 109 239 119 242 108 242 120 246 109 244 121 248 114 249 121 250 118 253 122 255 118 245 108 237 109 234 105 234 107 238 105 237 111 242 105 241 111 246 105 244 111 249 107 247 112 253 109 249 114 256 111 253 116 257 117 252 114 257 116 252 115 257 117 270 115 265 115 270 114 265 114 274 114 277 128 270 128 285 126 268 126 287 122 273 122 265 120 287 120 265 116 287 116 273 114 265 114 280 110 268 110 279 108 273 107 278 107 274 108 279 108 288 83 295 98 285 83 296 96 293 95 288 83 "/>
    <path id="Block2Jump13"
        fill="none"
        stroke="#000000"
		stroke-width="2px"
		d="M 235 58 L 235 58 240 59 235 59 240 60 226 58 231 56 238 56 225 56 215 56 225 52 212 54 221 54 210 58 220 58 210 58 208 58 240 58 211 60 240 60 235 59 240 59 235 60 240 60 " />
    <path id="Block3Jump14"
        fill="none"
        stroke="#0B3D91"
		stroke-width="2px"
		d="M 259 185 L 263 183 259 186 264 184 241 195 235 197 233 203 236 208 246 214 252 205 259 205 259 212 259 201 256 212 255 200 253 212 251 201 251 213 247 203 250 214 246 209 248 215 244 213 246 214 238 208 225 210 224 201 222 202 226 204 220 208 229 207 224 211 228 209 228 211 231 208 243 215 232 204 245 212 238 208 233 203 235 197 252 191 267 188 282 189 282 185 278 195 278 185 274 195 274 185 270 193 271 185 266 192 267 185 263 193 263 185 259 194 259 185 256 194 255 186 253 195 251 187 250 196 247 188 246 197 244 190 243 197 240 191 240 198 236 193 239 200 232 195 238 201 230 198 237 203 229 202 238 205 229 206 239 207 232 210 242 209 236 212 245 210 239 214 248 211 243 217 251 213 244 219 254 216 246 222 257 219 247 225 259 222 248 228 257 227 248 232 256 232 249 235 255 237 249 239 254 242 249 242 253 246 250 246 253 250 250 250 252 250 243 230 240 223 228 220 228 226 233 237 233 232 230 234 232 228 227 230 233 226 224 225 230 224 222 221 231 223 223 216 232 221 228 214 233 224 234 217 236 224 238 220 239 224 241 223 239 228 244 225 239 233 248 227 238 238 249 230 239 242 250 234 242 245 251 237 245 248 252 241 248 250 253 245 251 253 254 249 255 255 256 248 258 257 257 252 263 259 257 248 268 260 259 247 271 258 260 246 273 254 262 244 274 249 264 243 269 241 274 245 264 243 274 249 262 244 273 254 269 249 273 253 269 250 273 254 284 258 281 254 285 257 282 254 287 259 295 252 297 258 290 250 296 262 284 250 292 264 282 254 284 262 282 259 284 262 281 256 289 264 286 259 289 263 285 260 289 264 281 272 282 267 288 271 280 270 "/>
    <path id="Block3Jump15"
        fill="none"
        stroke="#0B3D91"
		stroke-width="2px"
		d="M 308 263 L 308 263 304 260 309 262 305 260 314 266 306 259 314 262 307 255 314 258 308 251 313 253 309 248 313 249 310 244 316 246 311 240 320 243 312 236 322 239 313 232 323 235 314 228 324 232 315 225 325 228 316 221 326 225 318 217 327 222 325 216 330 214 326 212 329 218 321 214 327 222 318 217 326 225 316 221 321 222 324 222 336 216 348 206 347 204 347 211 344 207 344 214 341 209 341 216 337 212 337 218 334 215 334 221 331 217 331 223 328 220 328 226 325 222 325 228 322 225 321 230 319 227 324 222 318 223 324 218 317 219 323 214 316 215 322 210 315 212 321 206 314 208 316 199 312 188 309 189 317 191 310 192 318 194 311 196 319 198 312 200 321 202 313 204 321 206 314 208 322 210 315 212 320 211 315 212 319 210 315 212 302 215 306 213 302 216 307 214 295 221 292 218 295 221 303 210 307 217 299 208 300 213 307 219 291 209 305 223 291 214 295 218 299 223 296 218 299 222 295 219 299 223 292 234 294 229 293 234 295 230 291 240 287 236 296 245 296 237 303 235 299 231 303 235 304 239 292 229 303 241 288 231 302 245 299 245 287 233 289 237 286 233 290 236 287 233 274 227 279 230 274 228 279 231 273 228 270 234 275 235 268 228 278 233 272 227 268 223 280 229 273 222 280 223 281 225 278 222 282 225 279 222 276 211 280 214 275 212 280 215 273 211 277 215 269 208 274 209 269 205 274 210 282 215 271 204 282 209 275 202 278 203 282 207 279 202 282 206 278 203 282 207 291 193 294 197 290 194 294 198 291 195 298 199 290 191 304 200 292 188 304 194 298 188 295 187 304 194 298 188 294 187 306 199 303 194 306 198 302 195 306 199 325 199 335 197 332 205 325 195 335 201 "/>
    <path id="Block3Jump16"
        fill="none"
        stroke="#0B3D91"
		stroke-width="2px"
		d="M 330 263 L 330 263 334 259 331 263 335 260 324 272 339 274 335 273 337 268 330 270 335 260 328 272 329 262 324 272 326 264 320 271 323 265 317 269 316 272 316 268 317 273 317 268 "/>
    <path id="Block3Jump17"
        fill="none"
        stroke="#0B3D91"
		stroke-width="2px"
		d="M 216 208 L 218 212 215 208 218 213 212 200 203 195 207 195 206 198 212 196 208 201 215 198 210 202 217 201 211 204 218 205 212 206 218 209 211 208 218 213 209 212 214 217 205 215 209 220 204 219 204 223 205 218 205 223 204 218 204 223 192 209 195 213 191 210 195 214 186 205 193 215 181 203 178 202 191 216 184 214 187 217 180 216 183 219 173 216 174 207 179 206 173 203 177 207 177 210 170 203 172 209 168 204 181 220 166 205 177 221 171 215 167 214 175 222 165 218 171 224 161 220 167 225 157 221 163 227 152 222 159 229 150 225 156 232 148 229 153 234 146 233 150 237 142 234 148 241 136 235 146 244 136 240 144 248 135 245 143 252 135 250 141 256 133 254 139 260 131 256 139 263 126 248 118 236 109 213 107 197 109 182 118 176 123 182 128 175 136 174 141 180 170 184 180 196 157 204 151 205 150 195 147 192 153 198 151 213 146 216 152 219 146 213 154 216 148 210 156 212 143 199 159 209 154 204 145 192 160 208 162 200 155 200 163 205 157 199 166 202 161 197 171 201 164 195 176 201 169 193 182 201 175 194 186 199 177 191 179 189 188 198 190 201 188 197 193 201 182 190 172 182 190 201 176 192 185 201 165 181 151 178 145 187 140 181 145 187 151 178 173 189 157 176 170 189 150 174 160 184 142 172 154 184 148 181 138 171 148 186 133 171 145 187 140 181 130 174 123 185 120 181 127 188 127 177 137 179 128 172 133 177 123 173 130 180 118 174 130 186 129 188 116 174 115 179 111 176 113 183 108 177 112 187 105 180 110 191 103 184 110 197 103 190 112 204 103 196 112 210 104 202 115 218 104 208 118 227 105 215 121 236 114 229 109 227 123 241 111 232 126 246 140 260 131 255 117 243 138 265 119 250 137 266 132 262 135 267 125 257 120 249 138 267 135 262 138 266 134 263 138 267 146 270 141 269 146 269 142 269 147 270 144 266 150 267 147 263 153 265 149 260 156 262 152 257 159 259 154 255 161 257 157 252 164 254 160 249 166 252 162 246 169 249 165 242 171 246 168 239 173 243 171 237 171 242 170 237 172 241 171 237 171 231 168 235 170 230 168 235 173 228 171 232 167 228 168 235 164 230 166 238 161 232 163 240 158 235 159 243 156 237 156 245 153 241 155 245 152 241 156 245 153 241 132 222 136 225 132 222 136 226 126 218 129 228 126 221 133 228 127 216 136 226 131 215 138 222 134 218 131 215 138 222 129 215 132 218 128 215 132 218 129 215 129 203 127 208 128 203 127 208 131 195 132 199 128 195 132 205 123 196 129 207 120 199 123 207 120 204 123 207 120 204 122 208 119 204 123 207 120 204 101 208 102 213 100 209 102 214 99 205 99 216 95 205 95 215 91 205 90 213 86 206 85 212 82 206 81 212 77 206 75 210 72 206 72 210 68 206 76 212 62 207 75 215 63 211 76 217 68 217 77 221 72 221 80 223 76 225 83 225 79 228 86 227 82 231 90 228 84 233 93 231 88 235 95 234 88 237 93 239 89 239 93 243 89 242 93 247 89 246 92 251 89 250 91 255 88 254 88 258 86 260 85 262 94 254 94 245 99 250 91 248 97 253 90 252 96 255 88 255 95 259 87 258 92 262 85 262 78 255 84 247 83 251 80 250 82 253 76 252 81 254 73 257 79 257 71 262 84 253 71 268 85 255 78 266 87 257 84 264 90 258 88 263 93 258 93 263 97 258 97 262 101 259 101 262 105 258 105 261 108 258 109 261 111 259 113 261 111 257 118 261 111 254 119 257 111 247 113 245 111 250 116 248 111 252 118 252 111 254 119 257 111 257 118 261 114 257 118 260 113 258 118 261 " />
    <path id="Block4Jump18"
        fill="none"
        stroke="#000000"
		stroke-width="2px"
		d="M 393 341 L "/>
    <path id="Block4Jump19"
        fill="none"
        stroke="#000000"
		stroke-width="2px"
		d="M 393 341 L 388 335 392 334 393 341 "/>
    <path id="Block4Jump20"
        fill="none"
        stroke="#000000"
		stroke-width="2px"
		d="M 393 364 L 393 364 393 359 394 364 394 359 394 366 390 361 393 370 387 363 390 373 385 367 388 376 384 372 386 376 383 372 387 375 384 372 " />
    <path id="Block5Jump21"
        fill="none"
        stroke="#FFC896"
		stroke-width="2px"
		d="M 366 371 L 368 375 365 371 368 376 362 366 368 375 356 366 368 381 350 367 367 385 352 370 366 389 347 367 363 392 349 373 360 394 344 368 358 396 340 369 356 398 337 371 353 400 333 373 351 401 329 375 349 403 326 377 347 405 324 380 345 407 321 384 343 409 319 387 341 411 318 391 331 407 317 395 339 413 316 400 336 413 315 404 330 412 314 408 337 414 314 412 329 415 313 416 336 416 313 420 343 419 319 421 343 423 313 422 342 427 319 424 341 431 313 425 339 435 318 428 337 438 312 427 322 445 316 442 331 444 312 436 335 441 312 432 337 438 312 427 339 435 318 428 322 430 317 428 322 429 318 428 "/>
    <path id="Block5Jump22"
        fill="none"
        stroke="#FFC896"
		stroke-width="2px"
		d="M 81 414 L 81 414 86 417 81 415 86 418 70 410 59 410 53 405 47 404 49 398 48 406 53 399 51 409 56 402 54 411 59 404 57 414 62 407 59 410 68 419 57 422 49 417 43 406 46 408 42 416 50 410 44 420 51 412 47 423 51 418 50 426 53 413 53 429 54 416 57 431 57 421 62 432 54 413 67 433 62 422 71 433 57 414 76 433 59 415 80 431 65 418 83 428 53 411 85 424 60 412 86 420 53 408 86 416 60 408 86 412 52 406 86 408 60 405 86 404 52 404 85 400 60 401 85 396 52 402 85 392 60 397 84 388 52 399 83 384 51 398 82 380 49 396 80 377 48 395 78 373 47 394 76 370 45 392 74 366 43 391 72 363 42 389 69 360 40 388 67 357 38 386 64 354 37 385 61 352 39 362 31 353 24 363 34 348 25 369 41 345 27 374 45 346 29 378 50 347 32 381 53 348 35 383 57 350 37 385 61 352 38 386 64 354 60 357 63 353 60 357 64 354 " />
    <path id="Block6Jump23"
        fill="none"
        stroke="#000000"
		stroke-width="2px"
		d="M 299 111 L "/>
    <path id="Block6Jump24"
        fill="none"
        stroke="#000000"
		stroke-width="2px"
		d="M 299 111 L 298 116 298 111 298 116 300 101 305 92 297 93 305 96 295 96 305 101 295 100 305 103 295 104 304 104 296 108 304 108 297 112 303 112 298 116 302 113 298 116 301 112 298 116 " />
    <path id="Block7Jump25"
        fill="none"
        stroke="#0E1F7C"
		stroke-width="2px"
		d="M 324 242 L 323 237 325 241 324 237 334 264 334 260 332 261 334 256 329 257 333 252 327 254 332 248 326 251 330 244 324 247 330 243 323 244 329 241 321 240 325 241 320 240 325 240 321 240 "/>
    <path id="Block7Jump26"
        fill="none"
        stroke="#0E1F7C"
		stroke-width="2px"
		d="M 205 212 L 199 208 205 198 199 214 200 198 "/>
    <path id="Block7Jump27"
        fill="none"
        stroke="#0E1F7C"
		stroke-width="2px"
		d="M 183 225 L 183 225 186 221 184 226 187 222 181 231 174 236 178 239 176 232 181 236 178 229 183 233 180 226 185 229 182 225 186 224 180 224 180 222 175 225 171 224 176 224 171 225 175 223 171 225 112 239 114 243 111 239 114 244 105 229 101 215 97 220 103 217 99 223 104 221 100 227 106 225 102 231 108 228 103 234 109 232 105 238 111 236 106 242 112 239 112 244 109 245 112 242 109 246 113 243 " />
</svg>
