<?xml version="1.0" encoding="UTF-8" standalone="no"?>
<svg xmlns="http://www.w3.org/2000/svg" version="1.1" width="237" height="176">
    <path id="Block1Jump0"
        fill="none"
        stroke="#ED171F"
		stroke-width="2px"
		d="M 170 108 L 170 108 173 99 170 108 173 99 170 108 173 99 183 81 197 73 213 76 220 85 225 92 213 110 200 127 189 144 182 151 176 151 157 141 139 132 120 121 115 117 116 105 125 93 139 90 159 98 169 110 167 99 176 126 188 114 193 109 204 85 217 64 199 64 181 66 208 66 223 68 176 70 188 70 227 72 199 72 172 74 208 74 230 76 218 76 178 76 169 78 188 78 232 80 199 80 167 82 208 82 235 84 218 84 178 84 166 86 188 86 228 86 237 88 199 88 165 90 208 90 237 92 218 92 178 92 165 94 188 94 228 94 236 94 208 94 200 94 191 111 182 121 172 127 155 121 145 117 145 108 151 80 119 82 128 82 158 84 138 84 113 86 148 86 162 88 119 88 110 90 128 90 165 92 138 92 107 94 148 94 165 96 159 96 119 96 107 96 133 108 143 114 157 122 176 128 182 152 189 176 183 174 190 172 179 170 191 168 175 166 188 166 193 164 178 164 169 162 194 160 164 158 188 158 196 156 178 156 156 154 168 154 198 152 159 152 147 150 188 150 201 148 178 148 140 146 168 146 203 144 159 144 131 142 148 142 188 142 207 140 178 140 138 140 123 138 168 138 209 136 199 136 159 136 115 134 148 134 188 134 213 132 178 132 138 132 109 130 128 130 168 130 208 130 216 128 199 128 159 128 119 128 104 126 148 126 188 126 218 124 178 124 138 124 103 122 128 122 168 122 208 122 221 120 199 120 159 120 119 120 103 118 148 118 188 118 224 116 218 116 178 116 138 116 102 114 128 114 168 114 208 114 227 112 199 112 159 112 119 112 102 110 108 110 148 110 188 110 230 108 218 108 178 108 138 108 102 106 128 106 168 106 208 106 232 104 199 104 159 104 119 104 103 102 148 102 188 102 228 102 234 100 218 100 178 100 138 100 104 98 128 98 168 98 208 98 236 96 199 96 159 96 119 96 106 94 148 94 188 94 228 94 237 92 218 92 178 92 165 92 178 92 165 92 178 92 165 92 "/>
    <path id="Block1Jump1"
        fill="none"
        stroke="#ED171F"
		stroke-width="2px"
		d="M 67 44 L 67 44 67 44 77 25 67 44 77 25 67 44 77 25 84 15 95 10 111 13 117 18 122 29 111 46 99 63 86 80 81 87 74 86 56 76 37 67 19 58 13 54 14 41 20 32 32 27 43 28 62 37 67 46 65 35 74 62 86 50 91 45 102 21 115 0 79 2 88 2 121 4 98 4 74 6 108 6 125 8 119 8 79 8 70 10 88 10 128 12 98 12 67 14 108 14 130 16 119 16 79 16 65 18 88 18 128 18 133 20 98 20 64 22 108 22 135 24 119 24 79 24 63 26 88 26 128 26 135 28 98 28 63 30 108 30 134 30 106 30 98 30 89 47 80 57 70 63 53 57 43 53 43 44 49 16 39 16 17 18 48 18 56 20 18 20 11 22 28 22 60 24 39 24 8 26 48 26 63 28 18 28 5 30 28 30 63 32 39 32 5 32 31 44 41 50 55 58 74 64 80 88 87 112 81 110 88 108 77 106 89 104 79 104 73 102 91 100 67 98 92 96 79 96 62 94 68 94 94 92 54 90 88 90 96 88 79 88 45 86 68 86 99 84 58 84 38 82 48 82 88 82 101 80 79 80 39 80 29 78 68 78 105 76 98 76 58 76 21 74 48 74 88 74 107 72 79 72 39 72 13 70 28 70 68 70 111 68 98 68 58 68 18 68 7 66 48 66 88 66 114 64 79 64 39 64 2 62 28 62 68 62 108 62 116 60 98 60 58 60 18 60 1 58 8 58 48 58 88 58 119 56 79 56 39 56 1 54 28 54 68 54 108 54 122 52 98 52 58 52 18 52 0 50 8 50 48 50 88 50 125 48 119 48 79 48 39 48 0 46 28 46 68 46 108 46 128 44 98 44 58 44 18 44 0 42 8 42 48 42 88 42 130 40 119 40 79 40 39 40 1 38 28 38 68 38 108 38 132 36 98 36 58 36 18 36 2 34 8 34 48 34 88 34 128 34 134 32 119 32 79 32 39 32 4 30 28 30 68 30 108 30 135 28 98 28 63 28 75 28 87 28 75 28 63 28 " />
</svg>
