<?xml version="1.0" encoding="UTF-8" standalone="no"?>
<svg xmlns="http://www.w3.org/2000/svg" version="1.1" width="653" height="1782">
    <path id="Block1Jump0"
        fill="none"
        stroke="#0B3D91"
		stroke-width="2px"
		d="M 11 1781 L 11 1781 8 1780 0 1768 0 1767 0 1766 12 1782 4 1748 4 1751 4 1752 3 1771 8 1730 7 1732 0 1756 1 1744 4 1722 0 1752 3 1721 14 1739 12 1702 6 1717 25 1696 21 1697 18 1700 17 1696 17 1695 17 1694 18 1693 18 1680 19 1683 20 1686 28 1664 27 1664 26 1665 35 1659 39 1659 26 1664 40 1653 38 1641 39 1659 53 1631 45 1638 44 1638 38 1647 56 1632 66 1627 45 1635 46 1633 66 1627 57 1629 45 1634 67 1627 67 1638 54 1658 45 1677 35 1696 28 1716 24 1736 21 1755 33 1769 33 1768 32 1752 28 1772 28 1748 23 1773 24 1747 22 1773 23 1747 22 1748 12 1766 12 1768 14 1750 19 1773 21 1740 33 1744 28 1721 36 1733 29 1720 36 1732 39 1714 39 1715 31 1736 38 1711 26 1735 33 1708 24 1734 31 1707 24 1734 29 1708 17 1727 17 1729 22 1710 21 1733 37 1701 22 1734 47 1696 48 1695 55 1680 42 1696 51 1675 38 1697 48 1672 35 1696 47 1671 35 1696 46 1671 29 1690 39 1672 32 1694 52 1663 33 1695 47 1673 61 1652 62 1651 64 1665 64 1664 73 1649 56 1664 71 1644 52 1663 69 1640 51 1663 68 1638 48 1650 56 1641 50 1655 60 1639 51 1659 61 1645 74 1628 94 1620 111 1602 115 1591 115 1592 117 1602 109 1595 116 1611 108 1598 113 1617 104 1600 111 1623 98 1603 107 1628 95 1605 102 1632 91 1607 98 1634 86 1607 95 1635 84 1607 91 1637 81 1607 84 1637 78 1607 80 1637 76 1607 73 1638 75 1607 70 1636 71 1604 65 1633 67 1603 60 1631 66 1603 55 1628 64 1602 52 1624 61 1598 47 1619 58 1595 43 1614 55 1592 40 1609 52 1589 37 1602 51 1586 36 1597 49 1582 34 1593 48 1579 33 1587 47 1572 32 1581 46 1567 32 1574 47 1562 32 1568 47 1557 32 1562 48 1552 34 1556 48 1549 36 1549 50 1544 38 1543 52 1539 39 1539 53 1535 41 1533 55 1531 45 1527 60 1526 49 1523 62 1523 52 1518 66 1519 54 1515 69 1515 60 1509 74 1511 63 1506 77 1507 67 1501 81 1504 72 1497 86 1501 76 1494 93 1498 80 1492 95 1496 85 1489 96 1495 80 1513 73 1532 75 1552 92 1570 111 1566 120 1559 109 1574 112 1561 101 1579 108 1561 96 1580 102 1560 90 1580 98 1560 85 1579 95 1558 81 1577 91 1555 78 1576 88 1554 74 1574 86 1551 70 1571 86 1548 67 1566 85 1545 66 1562 84 1543 65 1557 83 1539 64 1552 83 1533 64 1546 82 1529 64 1542 84 1524 65 1536 85 1520 66 1530 87 1513 71 1523 90 1507 74 1518 92 1502 79 1511 93 1501 79 1510 93 1500 85 1489 91 1498 94 1486 96 1496 100 1483 102 1493 101 1483 102 1493 103 1493 118 1483 138 1483 159 1489 175 1505 177 1524 165 1543 151 1545 166 1546 154 1543 171 1546 155 1541 175 1543 159 1537 179 1540 159 1534 185 1536 159 1532 188 1533 161 1530 190 1528 162 1528 191 1524 162 1523 192 1521 162 1521 192 1516 162 1520 191 1511 162 1517 192 1507 162 1514 188 1503 161 1512 188 1502 160 1510 186 1499 159 1508 183 1494 158 1507 179 1490 154 1503 175 1488 153 1501 171 1485 151 1500 168 1484 149 1499 163 1481 146 1498 158 1479 143 1495 153 1478 139 1494 146 1475 135 1493 141 1476 131 1492 136 1476 127 1492 130 1476 121 1492 124 1477 116 1492 117 1478 112 1492 112 1479 106 1493 107 1481 103 1493 101 1484 100 1484 90 1476 69 1481 49 1478 29 1466 20 1446 22 1426 35 1408 53 1395 60 1395 48 1394 55 1399 40 1396 52 1401 34 1398 48 1404 28 1401 45 1407 24 1404 43 1410 20 1407 41 1413 18 1408 39 1417 15 1413 38 1419 14 1417 38 1424 12 1422 37 1426 10 1426 35 1428 8 1430 35 1432 7 1436 34 1434 7 1441 35 1437 9 1446 37 1442 10 1450 36 1445 11 1456 37 1448 12 1458 38 1450 12 1458 40 1452 15 1463 41 1457 18 1466 43 1458 22 1471 43 1460 25 1474 47 1463 28 1476 49 1463 34 1479 50 1465 38 1482 52 1466 42 1484 54 1467 46 1486 58 1469 51 1487 61 1472 57 1487 66 1472 62 1487 69 1472 69 1486 74 1473 74 1487 78 1474 80 1486 83 1472 85 1484 88 1471 90 1482 94 1470 97 1480 99 1468 101 1477 103 1466 106 1475 107 1465 112 1471 113 1461 116 1469 116 1458 120 1466 120 1453 123 1462 122 1450 128 1458 126 1446 132 1454 130 1440 135 1450 132 1436 138 1445 134 1431 141 1440 136 1427 144 1435 139 1420 146 1428 140 1415 147 1424 142 1410 150 1419 144 1404 152 1414 146 1398 154 1408 146 1395 155 1403 146 1394 133 1411 115 1424 95 1426 82 1411 95 1396 80 1405 95 1400 76 1411 96 1403 75 1416 96 1407 75 1420 97 1410 76 1425 98 1411 78 1429 99 1413 81 1433 101 1414 84 1436 102 1415 86 1437 104 1416 92 1438 107 1417 96 1439 110 1418 101 1440 115 1417 106 1438 118 1415 110 1437 121 1413 116 1434 125 1411 119 1432 129 1409 124 1428 135 1406 131 1422 139 1400 134 1417 142 1398 139 1408 143 1397 152 1393 155 1402 145 1393 155 1397 146 1389 156 1393 146 1386 156 1389 146 1381 156 1388 146 1380 164 1369 170 1353 174 1369 166 1355 173 1374 165 1357 172 1377 160 1352 169 1381 158 1351 169 1381 157 1350 154 1358 153 1350 146 1356 149 1350 141 1352 147 1346 138 1346 146 1345 138 1345 146 1345 146 1343 139 1337 146 1341 145 1331 151 1339 151 1330 153 1339 157 1331 156 1340 163 1335 156 1340 156 1341 167 1343 167 1342 157 1343 166 1347 156 1348 165 1351 155 1349 155 1350 162 1366 165 1386 159 1359 160 1387 154 1361 155 1389 152 1362 153 1389 147 1362 151 1389 145 1363 147 1387 142 1363 141 1384 140 1364 137 1382 138 1362 133 1378 134 1362 129 1376 131 1361 123 1376 129 1358 118 1376 126 1357 113 1375 123 1355 109 1373 120 1352 106 1368 119 1350 104 1365 117 1347 103 1362 117 1348 103 1362 116 1348 104 1361 115 1344 103 1354 113 1340 105 1348 111 1337 105 1347 111 1337 111 1336 121 1328 135 1349 137 1351 137 1350 119 1342 136 1346 112 1335 134 1341 109 1329 133 1336 108 1325 135 1333 109 1320 137 1331 109 1314 139 1327 110 1313 139 1324 112 1311 140 1322 113 1308 142 1318 117 1305 144 1317 124 1303 145 1315 130 1303 146 1314 134 1300 149 1313 136 1298 152 1310 139 1294 157 1309 143 1291 161 1305 147 1289 149 1287 137 1270 122 1249 102 1244 83 1255 82 1275 77 1264 85 1272 76 1257 86 1271 77 1251 90 1267 80 1246 94 1263 84 1241 96 1262 86 1239 98 1259 86 1238 101 1259 88 1238 102 1258 94 1236 105 1257 98 1236 108 1257 103 1236 110 1257 107 1236 112 1257 113 1236 115 1258 117 1237 119 1258 121 1240 123 1261 126 1243 126 1263 131 1249 131 1267 134 1253 134 1271 137 1258 137 1275 140 1264 141 1280 144 1271 141 1280 145 1272 145 1273 151 1291 159 1306 159 1305 145 1291 163 1305 149 1288 166 1305 154 1288 167 1317 157 1288 167 1318 169 1308 159 1327 174 1305 161 1327 180 1305 164 1329 165 1328 185 1331 199 1327 219 1315 233 1297 234 1278 222 1259 201 1263 199 1267 210 1258 202 1268 216 1256 205 1269 222 1255 207 1269 227 1255 213 1272 231 1256 215 1274 235 1259 216 1275 238 1262 218 1277 240 1265 219 1279 241 1266 220 1282 242 1269 220 1283 244 1273 221 1284 245 1277 222 1287 245 1282 222 1291 245 1286 221 1293 244 1291 221 1298 243 1294 220 1301 240 1298 219 1304 238 1303 216 1308 235 1307 214 1312 232 1310 211 1318 227 1315 203 1323 221 1319 203 1324 217 1321 202 1325 199 1330 220 1330 238 1317 256 1306 274 1298 294 1293 314 1297 335 1301 351 1318 363 1335 366 1353 364 1373 347 1391 327 1396 309 1384 303 1365 305 1346 298 1350 307 1347 296 1355 307 1351 294 1362 308 1354 292 1368 308 1358 293 1373 311 1363 293 1381 311 1365 294 1385 313 1368 295 1389 316 1369 299 1393 317 1371 301 1395 319 1373 304 1398 320 1374 308 1401 323 1375 312 1403 324 1375 315 1405 328 1376 317 1405 329 1376 320 1406 331 1376 327 1407 333 1376 332 1407 335 1376 337 1407 337 1377 342 1406 340 1377 345 1406 341 1375 350 1403 342 1376 355 1400 344 1375 359 1398 346 1375 363 1396 347 1374 365 1391 348 1372 368 1385 350 1371 370 1381 351 1370 372 1376 352 1368 373 1372 355 1364 374 1365 356 1363 375 1360 358 1359 375 1355 358 1356 374 1350 359 1352 373 1345 359 1349 372 1338 359 1345 370 1334 358 1341 367 1327 357 1336 363 1322 355 1332 361 1318 354 1329 358 1314 351 1324 353 1310 347 1319 347 1305 344 1316 344 1302 339 1313 340 1301 335 1310 336 1298 331 1307 330 1294 324 1304 323 1293 319 1302 318 1292 314 1301 312 1290 309 1300 306 1289 303 1299 300 1290 298 1299 294 1290 293 1300 288 1291 287 1301 282 1293 282 1301 277 1293 276 1302 272 1295 270 1304 265 1297 264 1307 258 1299 257 1309 256 1300 255 1310 255 1300 266 1284 273 1263 269 1244 266 1225 251 1211 233 1198 213 1198 194 1212 185 1231 192 1250 192 1249 183 1239 193 1244 180 1232 193 1240 179 1226 194 1236 179 1220 196 1232 179 1214 197 1229 182 1208 199 1227 184 1204 201 1224 185 1200 203 1223 190 1196 205 1220 192 1193 206 1218 194 1191 209 1217 195 1191 213 1215 202 1187 215 1214 205 1187 217 1213 210 1186 218 1212 215 1185 221 1211 221 1185 225 1211 226 1186 228 1210 231 1186 231 1211 236 1188 233 1210 241 1190 234 1211 245 1191 236 1210 248 1195 238 1212 248 1195 239 1214 252 1197 241 1214 255 1200 243 1214 261 1206 247 1218 264 1209 249 1219 268 1213 251 1221 270 1218 254 1224 271 1222 257 1230 274 1226 260 1233 276 1232 262 1236 278 1237 263 1240 279 1243 265 1245 280 1248 265 1249 280 1254 266 1255 279 1260 265 1260 278 1266 265 1266 278 1272 264 1271 276 1278 264 1276 275 1284 263 1280 272 1289 261 1285 269 1293 258 1292 266 1296 256 1294 262 1302 252 1299 260 1306 249 1305 255 1311 246 1308 251 1315 241 1312 247 1317 236 1315 241 1322 232 1318 237 1325 228 1320 231 1328 221 1322 226 1331 217 1324 220 1332 211 1326 215 1333 205 1327 209 1335 199 1328 201 1336 192 1329 196 1336 188 1329 192 1336 187 1329 190 1335 189 1335 201 1348 218 1361 229 1380 228 1400 212 1408 199 1398 205 1409 203 1398 211 1413 204 1400 215 1415 207 1399 219 1416 209 1399 224 1416 212 1398 227 1416 213 1398 229 1415 215 1397 232 1413 217 1396 234 1412 218 1394 236 1409 219 1391 238 1406 219 1389 239 1401 220 1388 241 1397 221 1382 239 1391 219 1378 238 1386 219 1374 237 1381 218 1370 233 1375 215 1366 230 1370 209 1356 225 1365 205 1351 221 1362 205 1350 224 1356 242 1367 259 1380 268 1399 266 1418 270 1438 260 1458 247 1476 227 1485 206 1480 191 1463 188 1443 188 1432 184 1445 191 1437 184 1452 192 1441 184 1459 193 1446 185 1465 196 1450 186 1469 198 1453 187 1472 200 1455 192 1478 204 1458 195 1482 206 1459 197 1484 209 1460 201 1487 212 1462 205 1490 216 1464 211 1492 218 1464 216 1493 221 1464 219 1493 223 1464 225 1494 224 1464 223 1494 227 1464 227 1493 228 1463 232 1493 230 1463 236 1493 231 1463 239 1492 234 1462 245 1489 237 1461 249 1487 239 1460 253 1484 241 1460 256 1482 243 1459 259 1478 246 1456 264 1473 246 1454 266 1469 250 1451 270 1466 252 1450 272 1462 254 1447 273 1456 256 1443 275 1452 257 1439 274 1452 257 1439 275 1452 256 1439 276 1447 259 1436 278 1440 260 1432 277 1435 261 1428 278 1429 261 1422 278 1424 261 1418 278 1419 262 1414 278 1415 261 1410 277 1408 260 1406 273 1402 259 1399 271 1396 257 1396 269 1391 254 1391 266 1386 252 1386 261 1380 248 1380 256 1373 244 1375 252 1368 240 1372 248 1365 234 1367 244 1361 229 1364 240 1359 225 1360 233 1354 222 1358 229 1352 214 1354 222 1350 207 1352 217 1348 201 1351 211 1345 197 1351 204 1344 196 1351 186 1369 172 1382 185 1379 175 1378 192 1375 177 1374 196 1373 179 1371 200 1368 180 1367 203 1363 181 1364 205 1359 180 1361 204 1355 181 1356 206 1350 180 1352 203 1348 180 1350 203 1346 178 1348 201 1340 176 1344 198 1336 173 1339 192 1334 173 1339 192 1330 173 1338 192 1323 172 1336 192 1316 170 1335 191 1311 170 1334 189 1310 168 1332 188 1309 166 1331 184 1306 165 1330 181 1305 180 1304 170 1295 174 1305 162 1290 173 1305 158 1288 169 1305 158 1288 169 1305 159 1287 151 1285 159 1282 150 1281 159 1276 146 1277 156 1270 145 1271 155 1266 144 1266 153 1261 141 1260 152 1257 139 1255 149 1252 137 1252 147 1249 136 1247 145 1245 133 1243 143 1239 130 1239 139 1236 126 1236 134 1231 122 1231 132 1227 118 1228 128 1222 112 1225 124 1218 109 1222 119 1214 107 1219 115 1211 102 1217 111 1208 101 1217 107 1205 100 1215 87 1206 67 1204 47 1209 27 1219 20 1238 22 1258 26 1278 34 1297 46 1316 52 1336 49 1355 29 1362 11 1353 11 1352 21 1366 16 1352 27 1369 20 1351 32 1371 24 1351 39 1371 26 1351 42 1370 28 1349 45 1369 31 1346 47 1367 33 1345 51 1364 34 1343 53 1361 35 1341 55 1358 37 1340 60 1353 38 1336 60 1349 38 1332 61 1344 38 1329 60 1340 38 1326 60 1335 38 1320 58 1329 38 1316 56 1322 37 1312 52 1316 35 1307 49 1311 33 1300 44 1304 31 1297 40 1298 39 1296 25 1285 39 1283 59 1286 74 1284 59 1292 67 1283 51 1293 63 1282 44 1292 59 1281 40 1291 54 1278 32 1289 51 1276 27 1286 47 1273 23 1284 46 1271 19 1282 45 1268 17 1278 44 1266 13 1274 41 1262 11 1270 41 1259 9 1265 40 1257 8 1263 39 1255 7 1261 39 1253 6 1255 38 1251 6 1250 38 1247 5 1246 39 1244 6 1243 39 1242 8 1238 40 1240 10 1234 40 1239 11 1230 41 1236 13 1226 42 1234 15 1222 43 1232 17 1219 46 1228 23 1214 47 1227 26 1212 48 1226 29 1209 49 1224 34 1206 52 1222 39 1203 56 1218 42 1200 59 1216 46 1199 62 1215 51 1198 64 1214 56 1196 67 1214 62 1196 71 1212 66 1196 75 1212 71 1196 79 1213 76 1196 81 1213 82 1196 84 1212 87 1198 90 1212 92 1199 93 1214 96 1201 96 1214 100 1203 101 1217 105 1206 106 1206 103 1186 92 1168 80 1149 78 1128 86 1110 106 1104 122 1111 116 1102 118 1112 110 1099 116 1113 105 1097 113 1113 100 1097 111 1113 96 1096 109 1113 91 1096 105 1115 86 1097 103 1116 81 1099 101 1118 78 1101 99 1119 77 1102 98 1121 75 1105 96 1122 72 1106 94 1124 71 1110 94 1126 69 1115 92 1130 68 1119 91 1133 67 1123 91 1136 67 1127 91 1140 66 1132 91 1144 67 1135 91 1148 68 1140 91 1154 69 1145 93 1159 73 1151 95 1165 75 1157 97 1171 78 1163 101 1178 85 1169 102 1179 112 1195 132 1199 153 1197 173 1189 185 1173 183 1153 170 1135 166 1133 182 1139 169 1139 190 1146 170 1143 193 1151 173 1148 196 1157 173 1153 196 1162 173 1157 196 1167 173 1160 196 1171 173 1163 197 1176 172 1167 196 1180 170 1169 194 1183 169 1171 194 1184 168 1173 191 1187 168 1175 188 1190 164 1178 184 1195 162 1178 181 1197 161 1180 177 1201 159 1181 171 1203 157 1182 168 1205 154 1184 165 1206 150 1185 159 1207 145 1187 154 1208 142 1188 149 1209 139 1188 142 1209 135 1189 139 1209 132 1189 133 1208 129 1189 127 1207 123 1189 122 1205 119 1189 115 1204 114 1187 109 1201 109 1187 105 1200 105 1185 101 1198 102 1185 96 1195 98 1182 92 1192 94 1180 87 1189 90 1178 84 1186 84 1174 79 1184 81 1171 75 1181 78 1167 71 1176 73 1164 67 1173 71 1160 64 1169 68 1156 60 1164 64 1150 57 1159 61 1146 54 1155 60 1144 52 1151 60 1142 49 1145 59 1138 46 1139 57 1133 44 1134 54 1127 42 1130 53 1123 41 1123 51 1119 38 1120 50 1116 36 1114 49 1112 34 1110 49 1107 34 1104 48 1102 34 1098 49 1098 34 1094 49 1093 32 1089 49 1090 32 1082 50 1086 32 1078 50 1082 33 1073 51 1077 33 1068 52 1074 34 1064 53 1071 35 1060 54 1066 37 1054 55 1063 39 1051 57 1061 40 1047 60 1057 42 1043 61 1055 44 1038 64 1052 47 1034 65 1049 50 1030 67 1047 53 1028 71 1043 54 1026 72 1042 55 1025 75 1040 60 1021 77 1039 64 1017 80 1036 67 1013 82 1035 72 1012 73 1012 91 1011 77 995 65 974 53 955 49 936 43 916 40 896 38 876 49 888 "/>
    <path id="Block1Jump1"
        fill="none"
        stroke="#0B3D91"
		stroke-width="2px"
		d="M 265 873 L 265 873 276 862 261 851 276 864 275 861 275 860 272 847 260 863 260 861 270 838 274 852 276 848 286 838 281 839 262 850 261 849 287 838 272 844 262 850 288 837 275 826 275 836 275 837 285 829 287 846 287 849 283 838 278 851 281 846 287 838 276 851 288 838 276 853 281 855 279 861 287 851 277 867 296 885 301 890 301 889 299 863 304 869 304 870 310 876 316 861 313 861 303 871 304 868 318 851 319 864 322 851 313 863 322 852 325 851 313 860 312 863 325 851 325 850 312 838 325 851 324 850 321 835 318 837 315 847 318 827 319 826 317 838 317 836 323 826 320 828 312 838 311 838 322 822 312 814 327 827 330 814 316 826 337 814 312 826 338 813 324 802 324 814 336 805 335 826 336 827 330 814 324 826 332 817 337 814 324 827 324 828 339 839 339 838 324 826 324 830 328 841 335 830 331 842 331 851 333 838 325 851 332 842 338 838 339 838 338 853 345 858 344 859 343 857 341 858 348 875 351 878 351 877 336 864 353 866 342 870 339 873 362 871 349 870 363 865 359 865 349 876 349 877 359 859 349 851 362 864 359 847 353 858 351 864 355 839 357 839 359 855 363 839 357 844 353 852 363 839 351 852 363 839 371 858 370 874 375 878 375 877 372 874 361 864 372 863 361 875 361 852 362 855 371 868 367 865 361 858 375 857 361 863 375 854 361 864 371 846 361 840 367 846 375 852 371 835 364 851 364 847 368 828 369 834 373 842 374 828 365 839 366 835 367 835 374 828 362 839 375 826 362 815 376 828 370 811 365 824 366 814 370 802 369 802 368 815 374 802 363 815 362 815 373 799 370 798 363 799 375 790 375 803 376 804 376 803 381 809 388 815 387 810 385 805 377 817 378 816 380 815 379 821 381 827 388 816 373 827 374 828 389 840 389 839 379 832 379 831 374 827 376 841 385 828 382 839 382 840 382 851 377 836 374 845 374 846 374 852 383 840 374 852 375 849 388 840 374 853 382 859 381 856 380 857 376 860 385 877 374 866 384 867 379 871 398 855 394 841 413 828 424 829 424 828 412 816 426 818 413 827 435 824 431 822 423 817 425 812 428 808 426 825 423 814 426 813 427 812 437 812 418 806 411 804 433 807 412 820 424 810 412 827 414 821 423 804 412 827 399 815 397 824 398 827 408 820 407 834 408 840 407 828 399 843 399 847 407 834 412 828 400 852 387 839 385 852 398 842 397 865 391 855 390 851 385 864 399 852 385 864 387 866 400 878 400 877 387 864 397 865 402 866 390 875 393 874 412 873 405 871 404 871 399 870 413 866 398 877 398 878 409 860 400 852 412 865 414 860 416 856 402 861 417 865 418 852 416 855 413 865 422 853 423 853 413 870 423 879 423 878 412 865 426 868 414 875 435 873 423 871 436 867 429 871 423 877 423 878 440 862 441 843 435 841 449 854 443 854 438 855 444 845 444 844 446 844 450 859 434 859 440 856 450 855 434 864 434 865 450 865 461 867 461 866 448 853 452 851 457 850 448 864 447 863 455 841 458 856 459 846 461 841 452 853 461 841 455 845 449 853 461 839 448 829 461 841 457 824 452 836 448 823 461 822 448 827 455 821 461 817 461 816 464 834 473 842 473 841 461 829 477 833 475 833 474 833 461 840 486 834 472 830 496 829 472 840 497 829 483 834 472 840 498 828 490 821 490 822 492 826 499 831 499 830 504 835 511 842 509 837 508 833 496 840 497 837 498 835 484 830 498 830 490 834 485 840 498 829 486 845 498 855 498 854 494 850 493 850 492 849 485 841 480 852 496 842 480 844 471 847 490 851 475 853 472 854 484 846 487 845 472 854 473 852 487 842 472 852 461 841 473 854 468 856 463 858 465 853 473 843 473 860 463 850 468 851 473 853 459 861 473 853 465 858 459 864 473 855 479 859 479 862 482 856 472 864 488 879 502 896 512 891 516 895 517 895 518 895 525 903 524 898 523 893 508 901 509 899 511 898 497 893 512 891 510 892 499 901 512 891 501 899 502 897 493 881 513 868 525 866 536 878 535 873 534 868 531 869 520 876 522 874 524 873 521 872 510 872 525 867 511 876 510 878 510 877 497 866 512 879 494 877 511 870 486 878 510 866 485 879 490 886 494 880 485 880 472 865 477 869 486 878 470 876 483 869 477 868 461 870 472 873 467 873 460 877 473 867 473 866 455 874 447 865 461 878 448 875 463 866 448 869 462 874 449 885 461 870 450 890 461 867 450 890 438 882 439 885 441 884 457 898 462 904 462 903 448 891 464 894 459 895 451 899 466 903 467 891 462 899 461 903 469 892 472 891 473 891 475 906 486 917 486 916 477 907 476 906 475 906 472 903 476 919 476 917 483 906 484 910 487 923 472 922 479 918 487 918 472 927 472 928 490 919 489 921 490 927 496 916 498 930 499 931 499 930 511 943 510 932 500 934 493 938 496 938 499 938 490 936 484 936 499 930 495 950 494 948 499 930 497 952 498 952 484 942 483 953 495 944 484 942 473 942 478 952 482 940 473 952 485 940 472 952 482 935 480 936 475 937 486 928 471 927 472 912 461 903 473 915 468 917 464 919 472 905 468 915 466 929 464 926 465 916 471 935 472 938 468 922 464 926 458 939 457 938 469 928 453 928 454 929 464 938 463 937 453 920 452 919 447 940 451 930 459 916 459 928 455 918 449 905 452 923 450 922 448 921 447 921 448 920 462 909 449 927 459 907 462 904 449 927 435 916 449 916 437 925 436 915 435 906 450 911 434 915 433 914 450 904 434 915 434 913 423 903 436 915 435 912 434 899 430 902 424 915 427 892 429 890 433 905 432 902 437 889 433 892 428 902 437 889 424 902 436 889 423 877 437 891 420 886 436 880 412 884 419 885 426 886 411 891 419 885 425 881 419 885 411 891 426 879 410 891 424 904 424 903 411 891 415 905 424 891 416 915 411 902 412 926 413 920 423 903 412 926 399 915 412 915 403 923 402 922 402 904 403 909 404 914 409 902 399 914 411 902 398 914 411 897 399 891 409 898 409 899 412 902 409 887 402 898 398 884 412 884 398 889 402 885 412 879 412 878 393 886 387 878 395 885 400 890 395 891 391 893 400 880 397 885 393 902 390 888 387 894 387 902 397 891 387 902 393 894 399 891 387 904 400 916 400 915 387 902 388 908 390 918 400 901 394 918 392 927 390 912 385 927 392 918 397 914 385 927 399 914 385 927 376 943 372 954 368 957 371 960 375 964 375 963 374 962 373 961 366 951 366 967 367 962 369 957 368 975 369 970 371 965 367 969 361 975 373 965 361 975 362 977 374 989 374 988 361 976 379 976 361 984 388 976 361 987 389 975 373 963 388 965 382 968 376 974 376 956 376 950 383 964 389 951 380 957 374 964 389 951 388 951 403 941 417 958 430 957 425 952 425 963 435 950 437 966 437 965 450 977 449 972 448 967 443 967 431 974 433 973 436 972 432 970 431 970 423 970 435 965 423 977 422 976 411 964 414 967 415 968 416 968 425 977 420 960 415 972 413 967 411 958 414 956 424 957 411 963 424 952 424 951 406 962 399 951 412 964 409 948 402 958 402 961 398 946 412 946 398 951 404 947 412 942 412 941 395 948 388 939 400 951 382 948 392 944 397 943 379 939 378 945 379 946 381 951 387 939 375 951 374 951 385 935 373 927 388 939 385 930 385 925 375 939 374 937 379 915 384 929 387 919 389 915 379 926 389 915 382 918 374 926 389 913 374 902 389 914 388 914 384 898 375 913 380 889 384 904 384 897 389 890 378 901 389 890 381 894 374 901 389 888 374 878 389 890 371 886 384 880 368 883 362 885 369 884 376 884 370 885 362 889 368 884 376 879 376 878 364 893 374 903 374 902 362 890 366 906 373 890 374 890 366 913 364 900 362 912 373 902 367 906 362 912 374 902 362 913 374 928 374 927 362 915 359 918 357 922 372 915 360 914 356 915 366 924 363 919 361 915 364 926 362 915 349 927 348 924 350 901 359 914 357 903 358 897 355 908 358 890 354 901 358 893 363 889 351 901 363 889 364 887 357 884 350 886 360 879 341 895 346 911 351 915 351 914 336 901 337 900 348 898 336 913 335 912 344 890 348 903 348 897 351 890 341 901 351 890 345 894 338 901 351 888 337 878 346 886 347 886 351 890 333 885 351 879 324 884 341 887 324 889 327 886 338 880 324 889 338 877 324 887 313 877 325 889 324 888 309 885 316 881 325 879 306 878 303 880 316 886 314 884 304 881 314 888 305 882 299 889 313 876 299 878 287 880 304 886 278 897 271 903 297 881 298 880 302 879 282 895 262 911 279 896 279 895 302 877 261 912 273 908 269 907 265 907 272 901 289 901 304 918 317 917 316 916 317 923 323 913 323 926 334 934 333 933 333 931 332 935 339 940 339 939 351 950 350 939 343 944 337 953 350 939 341 953 338 962 324 951 338 951 327 961 324 942 338 947 325 948 325 949 324 950 338 940 324 950 323 949 311 938 323 948 325 950 321 939 320 934 316 947 311 933 324 932 311 938 324 927 324 926 307 936 299 925 312 939 310 923 302 935 299 917 300 918 309 919 313 921 299 925 313 914 313 913 298 910 295 907 289 910 301 900 285 896 281 893 284 890 274 899 291 884 284 871 276 863 288 875 272 873 288 864 269 868 261 870 278 873 261 875 276 866 261 875 276 864 261 875 260 876 "/>
    <path id="Block1Jump2"
        fill="none"
        stroke="#0B3D91"
		stroke-width="2px"
		d="M 186 857 L 195 854 201 837 201 838 190 855 198 833 186 855 196 830 185 856 195 830 177 845 185 832 178 851 190 830 183 854 194 831 184 855 194 831 195 831 205 813 220 812 223 807 206 821 220 802 203 821 218 797 200 821 218 796 197 809 196 810 196 809 204 796 196 816 212 794 198 820 216 795 198 820 217 796 218 796 233 781 245 782 247 780 229 792 246 776 226 790 245 771 224 790 245 770 224 790 245 769 225 775 220 777 220 776 233 767 220 783 238 768 222 787 243 769 223 788 243 769 244 770 262 755 268 763 276 757 256 767 276 752 252 765 276 747 250 764 276 746 255 749 249 752 249 751 264 742 248 757 270 743 249 763 274 745 275 746 293 736 298 735 292 748 308 738 287 747 309 734 284 744 309 730 283 743 309 729 289 729 283 729 299 723 281 735 304 723 282 740 308 728 282 741 308 728 309 729 329 723 336 722 327 733 344 727 321 732 346 722 319 729 347 719 318 727 346 718 318 727 346 717 325 715 320 715 338 710 317 720 343 713 317 725 345 717 345 718 363 715 372 714 362 722 381 719 359 720 383 716 356 718 383 712 355 717 383 711 363 705 359 704 378 702 356 710 381 706 355 714 384 710 355 715 384 710 384 711 405 711 401 720 417 720 396 717 422 716 394 711 423 711 423 710 403 702 400 701 416 700 396 706 422 705 394 710 423 709 394 710 423 710 423 711 443 712 441 723 454 725 454 724 434 719 460 721 432 715 462 717 431 713 462 716 441 703 440 703 457 706 434 707 461 710 432 711 462 715 462 716 482 720 481 732 490 734 471 724 495 732 470 720 498 727 470 719 498 726 470 719 498 725 480 712 479 712 495 716 475 713 499 720 472 716 498 725 471 717 498 726 498 727 518 735 515 746 524 751 524 750 507 737 529 749 507 733 533 745 507 731 533 743 516 723 516 724 534 733 512 726 535 738 508 729 534 743 533 744 551 758 548 768 553 772 553 771 540 756 559 770 541 752 563 768 540 750 565 768 553 748 553 746 567 755 547 746 567 761 543 747 566 766 542 748 565 767 565 768 578 782 579 795 581 797 581 796 569 780 586 796 571 776 590 795 571 774 591 794 583 775 583 773 595 782 577 771 594 788 572 773 592 793 592 795 602 812 599 825 601 827 601 826 594 809 607 827 595 806 612 826 596 802 613 826 611 806 611 802 619 816 604 802 617 821 599 802 613 825 598 802 613 825 612 825 619 843 622 851 610 844 615 860 611 840 620 862 615 837 625 863 616 835 626 862 616 835 627 862 629 842 630 837 630 838 635 854 624 835 631 858 618 835 627 862 616 836 627 862 626 862 630 882 617 882 618 894 622 875 624 899 627 873 624 899 630 873 626 900 630 873 627 901 639 882 640 879 640 880 639 893 636 875 635 898 631 872 629 900 630 872 629 900 628 901 625 920 613 916 610 930 619 912 612 934 622 911 615 937 627 911 616 938 627 911 617 938 636 921 629 935 634 915 622 939 629 911 618 939 628 911 617 939 616 939 605 958 596 952 593 960 604 947 594 967 608 947 597 970 612 948 598 969 618 959 607 972 619 952 602 973 614 948 598 971 613 948 598 971 597 971 581 990 575 979 567 989 584 977 568 994 587 978 570 998 590 978 571 999 590 978 571 999 591 992 593 992 582 1002 594 985 577 1003 592 980 573 1001 592 979 572 1001 571 1000 553 1011 546 1004 539 1012 557 1003 539 1017 561 1005 540 1021 563 1005 540 1022 563 1005 540 1022 560 1018 566 1018 549 1028 567 1011 545 1027 565 1007 541 1024 565 1006 541 1024 540 1023 520 1034 518 1022 507 1030 528 1023 504 1035 531 1026 507 1040 532 1027 507 1041 527 1041 533 1041 514 1048 534 1034 509 1045 533 1029 507 1042 507 1041 487 1047 488 1037 470 1044 494 1039 468 1049 497 1043 468 1052 468 1053 488 1056 494 1057 475 1061 498 1051 472 1059 498 1046 468 1054 498 1045 468 1054 468 1053 449 1057 447 1046 435 1049 435 1048 457 1049 430 1053 460 1053 430 1057 460 1054 430 1058 451 1063 455 1065 437 1066 458 1061 432 1063 460 1056 430 1060 460 1055 430 1059 430 1058 410 1059 410 1047 398 1049 398 1048 419 1052 394 1053 420 1057 392 1057 419 1058 392 1058 412 1068 415 1069 397 1067 419 1064 393 1063 420 1061 392 1060 420 1060 392 1059 392 1057 371 1057 375 1045 359 1044 381 1050 355 1047 381 1053 353 1051 381 1056 353 1052 373 1065 374 1065 355 1063 378 1063 353 1058 381 1059 353 1054 381 1058 353 1053 353 1051 333 1045 329 1033 323 1033 345 1043 319 1035 344 1046 317 1038 344 1049 316 1039 344 1049 315 1041 334 1058 334 1057 316 1050 340 1056 314 1045 343 1052 315 1041 343 1051 315 1041 316 1039 296 1032 301 1020 291 1017 306 1029 285 1017 308 1033 281 1022 307 1035 280 1024 296 1043 296 1042 280 1034 302 1042 280 1029 305 1038 280 1025 306 1037 281 1024 281 1022 261 1011 266 1000 259 996 275 1009 253 998 273 1014 249 999 273 1016 249 1000 260 1019 261 1022 247 1010 266 1021 246 1006 271 1018 247 1002 272 1018 248 1001 248 999 231 984 240 976 232 971 246 987 227 970 243 991 223 972 242 992 222 973 230 993 231 996 219 982 237 996 218 977 241 994 221 974 222 972 211 955 213 944 211 941 220 959 204 939 218 963 199 941 217 964 198 942 201 961 202 964 194 951 210 966 195 946 215 965 198 942 199 940 189 921 198 915 195 908 199 928 190 905 196 930 186 905 195 931 185 906 182 925 182 930 177 912 189 932 179 907 193 930 183 905 194 931 184 905 185 904 183 886 193 882 194 873 190 891 190 869 185 893 185 867 182 893 181 867 177 891 176 869 173 889 175 870 171 882 171 881 159 874 170 858 159 870 159 872 164 836 163 835 163 836 163 837 164 838 164 839 164 840 164 841 164 842 164 843 168 853 177 821 171 825 167 833 184 817 180 817 170 826 170 825 185 813 184 802 186 817 191 800 192 799 198 786 184 805 211 775 190 792 212 769 191 789 212 768 207 782 223 756 216 761 213 766 236 754 239 753 228 755 245 736 242 739 240 742 253 732 260 729 257 729 255 729 263 726 274 725 273 725 273 722 284 714 280 716 276 719 282 714 290 711 277 717 297 710 309 713 291 710 322 699 311 707 305 714 333 701 341 698 313 703 347 701 329 696 347 701 332 694 347 701 359 690 347 701 362 695 362 694 363 693 364 693 365 692 378 689 358 690 390 689 397 689 372 687 370 688 401 686 395 685 394 686 372 687 402 685 387 695 417 685 404 686 409 686 410 687 434 693 420 689 454 689 436 692 436 691 437 691 469 699 469 698 468 698 467 697 466 697 465 696 464 696 464 695 463 694 462 694 461 693 460 693 459 692 458 692 458 691 457 691 456 690 471 702 457 690 460 693 461 693 462 694 463 694 464 695 464 696 465 696 466 697 467 697 471 702 485 696 470 703 477 704 478 703 503 706 496 703 483 698 508 708 519 713 495 701 497 702 525 712 510 706 498 702 526 712 509 716 509 715 530 718 540 720 528 715 549 732 551 733 542 726 563 736 563 737 570 739 556 734 579 755 573 743 593 762 594 762 578 759 579 759 580 759 605 773 595 764 598 770 611 789 604 778 605 779 626 801 625 800 613 792 628 820 627 810 628 804 627 825 626 820 630 807 629 810 627 825 642 834 627 824 637 838 647 852 639 830 642 850 646 870 646 843 649 863 652 877 648 852 648 848 653 877 641 863 640 863 651 896 653 881 652 880 651 881 643 914 645 904 646 903 647 902 648 900 645 920 645 921 645 934 647 918 632 948 645 939 643 939 629 949 644 940 629 949 631 967 629 949 616 981 628 965 631 962 620 973 604 994 614 983 626 975 607 993 602 1000 624 979 602 1001 607 984 607 985 603 990 592 1012 602 1003 592 1006 578 1015 582 1014 586 1014 577 1021 572 1029 574 1027 576 1025 559 1036 558 1039 559 1038 561 1038 545 1039 560 1039 541 1042 536 1054 546 1039 544 1040 543 1040 517 1060 533 1052 534 1052 535 1051 536 1051 540 1051 500 1064 528 1059 497 1069 499 1067 500 1067 501 1067 502 1066 503 1066 504 1066 525 1060 496 1070 510 1058 500 1062 499 1062 498 1063 481 1074 493 1071 463 1072 474 1070 443 1081 447 1078 448 1078 449 1078 450 1078 451 1078 452 1078 453 1077 454 1077 459 1077 427 1076 442 1083 423 1081 422 1081 421 1081 420 1082 419 1082 418 1082 417 1082 414 1082 413 1083 427 1074 396 1082 397 1081 411 1083 380 1076 383 1076 394 1079 361 1079 378 1077 346 1068 348 1070 357 1078 356 1078 344 1065 356 1078 348 1070 344 1065 327 1071 327 1070 343 1066 346 1066 322 1062 311 1062 333 1069 312 1060 297 1054 318 1066 302 1060 292 1056 312 1063 315 1064 291 1056 306 1053 276 1048 275 1048 287 1054 263 1034 271 1039 273 1041 255 1033 245 1029 257 1034 235 1012 241 1026 238 1024 238 1023 237 1023 237 1022 220 1005 219 1005 236 1008 216 997 207 992 217 1003 204 978 206 982 209 986 202 981 202 980 190 971 194 973 198 975 182 956 182 958 183 960 184 944 182 959 184 940 175 937 174 937 163 921 166 927 164 921 170 900 170 899 162 890 160 888 159 886 159 881 160 877 159 879 158 882 160 871 "/>
    <path id="Block1Jump3"
        fill="none"
        stroke="#0B3D91"
		stroke-width="2px"
		d="M 40 882 L 40 882 42 862 45 842 50 822 56 803 66 783 78 765 90 750 76 769 68 763 59 776 76 761 62 780 81 763 66 784 67 784 86 773 75 785 84 765 60 789 83 764 50 792 49 793 43 809 56 790 46 815 60 790 51 817 62 791 52 817 69 799 60 816 67 794 55 817 64 791 52 818 51 818 46 836 38 831 35 847 45 827 38 851 48 826 43 854 49 827 43 854 44 854 56 834 58 832 58 833 52 852 54 828 47 853 45 845 45 854 43 850 45 854 43 851 41 869 31 869 32 887 38 865 37 890 43 864 41 891 44 864 41 891 42 891 50 872 51 869 51 870 48 888 45 865 41 899 44 864 35 910 34 911 39 930 37 906 44 932 41 903 48 930 43 903 49 930 52 910 53 905 53 906 56 926 47 903 52 930 43 903 49 930 41 904 49 930 49 931 54 950 45 951 53 968 46 946 58 971 50 944 62 969 52 943 63 969 64 969 61 949 61 944 69 962 54 943 69 980 53 943 63 966 72 990 60 985 71 1001 61 980 77 1002 66 977 81 1000 82 1000 76 980 76 976 86 993 70 974 84 998 68 975 83 999 82 1001 93 1014 113 1023 133 1037 140 1056 140 1057 140 1044 135 1053 139 1037 132 1048 137 1031 128 1044 133 1026 125 1042 130 1022 123 1039 128 1019 120 1038 124 1015 116 1036 120 1012 113 1035 116 1010 110 1034 110 1008 109 1033 106 1008 106 1033 101 1006 102 1032 96 1006 98 1031 92 1006 95 1032 92 1006 93 1032 86 1006 91 1033 81 1008 86 1035 77 1009 84 1035 73 1010 72 1010 58 1006 74 1011 62 999 61 998 60 998 51 989 60 1007 47 975 51 995 45 981 36 962 42 969 43 969 53 982 46 960 41 941 40 948 42 974 41 941 33 956 24 930 39 939 24 909 24 923 33 898 21 913 33 898 19 887 17 883 32 899 31 893 23 863 20 886 20 875 21 874 26 848 22 859 21 859 19 871 22 844 23 843 20 867 22 842 32 857 32 856 28 843 27 827 25 829 23 838 32 822 37 812 36 812 32 824 33 798 35 795 36 809 47 783 49 783 36 792 37 789 51 768 52 780 52 776 64 754 53 764 61 758 76 750 69 751 57 756 76 750 93 739 112 731 126 715 128 703 128 704 132 719 124 707 130 727 120 710 128 733 116 714 125 738 112 717 122 742 109 719 119 744 105 720 114 748 103 720 111 749 101 720 109 750 97 721 104 751 94 721 100 751 91 721 94 751 90 720 88 751 88 720 84 750 86 719 79 749 82 719 75 747 79 718 72 745 78 716 69 743 75 715 65 739 72 713 61 735 71 712 58 731 69 709 55 728 67 706 52 724 64 702 50 720 61 698 47 716 59 695 45 712 58 694 43 703 59 690 41 697 56 685 40 689 56 679 40 684 55 676 40 678 55 671 41 671 55 666 42 665 56 661 43 661 57 655 45 654 59 651 48 648 60 646 51 643 63 644 53 637 64 642 55 631 66 638 60 624 71 631 65 619 74 628 70 614 78 623 75 610 83 618 81 605 88 615 85 602 93 611 90 600 97 608 96 597 101 606 103 594 107 604 107 592 110 603 111 603 95 618 84 637 80 657 90 677 110 681 125 669 117 685 119 671 108 690 115 672 100 693 111 672 93 693 106 671 87 690 104 670 82 688 100 667 78 685 97 663 75 682 95 661 73 680 94 658 72 678 93 654 70 672 91 649 70 665 91 645 69 661 92 639 70 655 92 634 71 649 93 629 73 640 96 623 78 631 99 617 85 622 99 617 87 620 88 618 108 604 108 594 111 593 126 594 146 593 167 600 183 617 183 637 166 654 156 656 174 656 160 652 181 653 163 649 186 650 166 644 188 646 166 640 192 642 166 636 195 637 166 633 196 633 166 630 196 630 166 626 196 627 166 624 197 622 165 620 196 617 165 618 196 613 163 614 196 610 159 611 192 604 158 611 188 601 157 609 185 598 154 607 180 594 151 606 176 592 150 603 172 590 147 604 166 588 144 603 162 587 143 603 154 584 154 585 139 603 146 585 133 602 139 585 130 602 134 585 129 601 128 600 126 586 124 601 119 588 119 601 112 590 115 603 111 590 115 603 110 589 99 576 78 583 58 580 38 569 27 549 27 530 40 510 58 496 66 496 54 495 61 500 47 497 58 502 41 498 53 506 35 501 50 509 31 504 49 513 27 508 48 515 23 512 44 520 21 516 44 523 19 521 44 526 17 526 43 528 15 530 41 531 14 534 41 536 14 539 41 537 14 544 42 541 16 549 43 544 16 553 42 546 17 557 45 550 18 558 46 553 19 560 48 554 23 564 48 558 25 568 49 558 29 573 49 561 32 576 52 563 36 579 55 564 40 581 56 566 44 584 58 567 47 585 60 568 53 588 64 571 58 589 67 574 63 589 71 573 68 589 75 574 75 588 78 574 80 589 84 576 86 588 90 574 92 586 95 572 98 583 100 572 103 581 104 570 108 579 109 568 114 576 113 566 121 572 118 563 124 568 122 558 126 566 125 555 132 562 129 550 135 558 132 547 139 554 135 542 142 550 138 538 144 546 141 533 149 541 142 529 152 535 145 522 154 530 146 517 155 525 150 512 157 521 151 506 159 515 152 501 160 510 154 496 161 503 154 495 139 514 120 525 100 527 90 510 102 497 86 506 102 501 82 513 102 504 81 518 102 508 81 523 103 511 82 527 104 513 84 531 106 515 88 535 107 516 94 539 109 517 95 539 110 518 99 540 114 519 103 541 118 519 108 542 121 519 113 540 124 517 118 538 129 514 124 535 132 512 128 532 138 509 133 527 143 505 138 522 149 499 142 515 150 499 145 510 151 498 159 494 161 502 152 494 162 497 153 490 162 495 153 488 162 491 153 483 162 489 153 482 170 471 177 455 181 471 173 457 180 476 171 458 177 480 166 454 175 483 164 451 175 483 163 450 160 460 159 450 153 458 157 451 147 454 154 447 145 447 154 446 144 446 154 446 153 444 146 438 154 442 151 432 156 440 157 431 158 440 163 432 160 440 168 435 162 440 169 435 162 440 162 441 173 444 173 443 163 444 173 449 162 447 171 453 162 449 162 450 169 466 170 486 171 488 166 461 166 489 162 462 161 489 160 463 159 490 157 464 158 489 155 464 154 489 150 465 147 486 146 466 142 483 145 464 140 480 142 463 135 478 139 463 129 478 136 462 125 478 133 458 120 476 130 457 116 475 126 454 114 472 125 451 112 469 124 448 109 464 124 449 109 464 124 449 110 463 121 445 109 456 120 442 111 449 118 438 111 448 118 438 117 437 128 430 141 450 143 452 143 451 125 443 143 447 119 436 140 443 116 431 139 437 114 426 142 434 115 422 143 431 116 417 144 431 116 415 145 428 117 415 145 426 119 412 146 423 122 407 151 419 127 406 152 417 133 404 154 416 137 404 155 415 141 401 156 413 143 400 160 411 146 396 166 408 150 392 168 407 154 390 155 388 143 372 130 352 110 345 92 356 90 375 83 366 92 374 82 358 95 370 84 352 99 366 86 347 101 365 91 343 103 362 93 341 107 361 94 340 109 360 98 339 112 359 102 337 114 358 107 336 118 359 112 336 120 360 117 337 123 360 121 338 126 361 127 340 130 362 131 344 133 365 136 349 137 369 139 353 140 372 141 356 144 376 146 364 147 381 150 371 147 381 152 374 157 392 165 408 165 407 152 392 169 407 156 389 174 406 161 388 173 418 163 389 173 419 175 410 165 428 182 407 167 429 186 407 170 431 187 407 170 431 171 430 191 431 206 429 226 417 240 398 240 378 228 360 207 365 205 369 216 360 209 370 223 358 213 371 228 357 215 371 233 357 219 374 237 358 221 375 241 361 223 376 245 363 224 378 246 367 226 379 247 368 227 383 248 369 227 384 250 374 227 385 251 377 228 388 252 381 228 391 252 385 227 394 251 391 227 398 250 395 227 403 247 399 225 406 244 403 223 410 242 407 220 414 240 410 217 419 234 416 211 424 228 420 210 426 224 423 209 427 206 431 227 431 245 417 262 406 281 400 301 393 321 400 342 404 358 420 370 434 372 454 370 474 354 491 334 497 316 488 310 468 311 448 305 451 313 448 302 457 314 452 300 463 314 458 299 469 315 461 299 474 317 464 299 481 317 467 300 486 319 468 303 490 322 471 305 494 324 472 308 497 325 475 312 500 328 476 315 502 330 476 319 505 332 477 321 506 334 478 323 506 335 478 329 507 338 478 333 508 340 478 338 508 341 478 343 508 344 479 348 506 346 479 353 506 347 477 357 503 348 478 361 501 352 476 365 498 353 476 369 496 355 474 372 490 356 473 374 487 358 471 377 483 359 470 378 478 360 468 379 474 362 466 381 469 363 464 381 462 364 461 381 457 364 456 381 452 366 453 380 446 365 449 378 440 364 443 377 435 364 440 374 430 363 435 370 424 362 432 367 420 359 427 364 416 356 424 360 412 352 420 354 406 349 417 350 404 344 413 346 401 340 410 340 398 335 407 333 394 330 405 327 393 324 403 321 392 318 402 316 391 312 401 310 391 308 401 305 391 302 401 297 391 297 401 292 392 291 402 287 393 286 403 282 395 279 405 275 397 274 408 270 399 269 409 264 401 261 412 262 401 261 412 261 401 273 385 279 365 276 346 273 326 257 312 240 300 220 300 200 312 192 331 199 352 199 351 189 340 199 346 186 332 199 342 185 326 200 338 185 320 202 333 186 314 203 330 188 310 205 327 190 305 207 326 192 301 210 323 195 299 212 321 199 295 213 319 200 292 215 318 201 292 219 316 205 290 221 315 210 289 223 314 215 288 225 314 220 287 227 314 224 287 231 313 230 288 234 311 235 288 237 313 241 289 239 312 245 290 241 313 249 292 242 312 253 295 244 314 254 297 245 315 258 299 247 315 261 302 251 316 265 305 254 319 269 309 256 320 274 314 258 322 276 317 261 325 277 322 264 331 280 326 268 334 282 331 269 338 284 337 271 342 285 342 272 347 286 349 272 351 287 354 273 357 286 360 272 362 284 366 272 368 284 371 272 373 283 378 271 376 282 384 270 381 279 389 268 386 277 393 264 392 274 398 263 396 271 401 259 400 268 406 256 404 264 410 253 410 259 415 248 414 255 419 244 416 251 421 240 418 247 425 235 421 241 428 229 423 235 431 225 425 230 431 219 428 225 433 213 428 218 435 207 429 212 436 201 431 206 436 195 431 201 436 193 431 197 436 196 436 209 449 225 464 237 483 233 502 217 508 206 499 212 510 210 499 217 515 212 501 221 517 214 500 226 518 217 499 231 518 219 499 234 518 219 499 235 517 223 497 238 515 224 495 240 513 225 493 244 509 226 490 244 505 227 489 245 501 227 486 247 497 226 482 245 491 226 478 244 486 224 473 242 481 222 469 239 476 217 461 235 470 213 452 228 464 212 451 231 458 249 470 265 483 274 501 273 520 276 540 268 559 253 576 235 586 215 583 199 565 195 546 195 534 190 546 197 539 190 552 198 543 190 560 200 547 191 566 202 551 192 570 205 554 194 574 209 557 198 580 212 558 200 583 213 559 203 586 215 561 209 591 218 563 212 592 221 564 217 594 223 565 222 594 225 565 227 594 227 565 231 596 229 565 230 596 231 565 235 595 233 565 239 595 234 564 242 595 236 564 248 593 240 563 252 590 243 562 256 588 245 561 259 586 249 559 263 583 251 558 266 579 253 555 272 575 254 554 273 571 256 552 276 567 260 548 278 563 262 546 280 557 262 543 280 553 264 541 280 554 264 541 282 549 265 538 284 544 268 534 283 539 268 530 284 534 268 524 284 528 268 519 284 522 269 515 284 518 268 512 283 511 268 507 281 505 265 500 279 499 263 496 276 492 261 492 273 488 259 489 268 482 255 484 264 477 252 479 258 470 247 475 255 466 243 471 251 463 237 467 246 460 233 463 241 457 229 460 236 454 220 456 229 451 215 454 223 448 209 452 218 446 203 452 211 445 202 452 192 471 178 484 192 480 181 480 199 476 183 476 203 474 185 472 206 470 186 469 210 465 187 466 212 461 187 461 212 457 187 458 213 451 186 454 210 449 186 451 210 447 184 447 209 443 183 444 205 437 180 440 199 435 180 440 198 431 180 439 197 427 178 437 199 420 177 436 198 415 176 435 197 413 174 433 196 411 173 431 191 408 171 431 187 407 186 406 176 397 181 406 168 390 179 406 164 388 175 406 164 388 175 406 165 388 175 406 166 387 157 386 166 383 156 382 165 376 154 377 163 372 152 372 161 367 150 367 160 362 146 360 157 357 145 357 155 353 143 353 154 349 142 349 152 344 139 345 149 339 135 340 144 335 132 336 141 331 129 332 135 325 124 328 133 321 120 326 129 317 116 322 124 315 113 320 120 312 107 318 116 309 107 318 113 307 106 317 95 307 74 306 54 310 35 320 26 339 29 359 34 378 41 399 52 418 58 437 55 458 35 464 18 454 27 467 23 454 34 470 26 453 39 472 31 453 45 472 34 452 49 471 35 449 52 471 37 448 53 470 39 446 57 466 40 444 59 463 41 442 62 459 43 440 65 456 44 438 67 450 45 435 67 445 45 431 66 441 45 428 66 436 45 424 64 431 45 420 62 424 43 414 58 418 42 411 55 413 41 405 51 407 38 400 47 401 38 399 46 400 45 398 33 384 47 384 67 387 80 384 65 392 74 384 57 393 69 382 51 392 64 381 46 391 60 379 41 390 58 377 35 388 53 374 31 385 53 372 26 384 52 371 24 380 50 368 19 375 49 365 17 372 48 363 15 368 47 360 14 365 46 358 14 364 45 357 12 359 45 353 12 355 45 351 11 349 44 348 12 345 45 345 13 341 45 344 15 337 46 342 17 333 46 340 19 328 49 336 21 324 49 333 23 320 50 331 26 318 53 329 31 315 53 328 35 311 54 327 38 310 57 324 42 307 60 321 46 304 63 318 50 302 65 317 54 301 69 316 60 299 71 316 64 298 73 315 69 297 76 314 74 297 81 314 78 297 85 314 84 298 87 314 90 298 93 314 95 300 96 314 99 301 100 315 103 303 103 316 107 305 107 317 111 307 112 308 110 289 98 271 87 252 85 232 92 212 111 204 128 212 122 203 124 213 116 200 122 213 112 199 120 213 106 198 117 213 102 197 115 213 97 197 111 216 93 199 109 217 87 201 107 218 84 202 106 220 83 203 104 222 81 205 102 224 79 207 101 226 76 213 100 228 75 219 98 232 75 220 98 235 73 227 98 238 73 230 97 244 72 234 97 248 74 239 98 253 75 244 98 257 79 250 100 262 79 256 102 269 83 262 106 276 88 267 108 280 93 270 108 281 118 296 138 300 159 300 179 291 191 274 190 255 177 237 173 235 188 240 175 241 196 247 177 245 199 253 178 248 202 257 180 254 202 260 180 258 203 266 180 260 203 270 179 263 203 275 179 266 203 280 178 268 201 283 175 272 200 285 174 274 200 286 174 276 196 291 172 278 192 294 170 279 189 298 169 280 185 301 167 282 181 304 165 283 177 305 161 286 174 307 158 287 168 308 155 287 163 309 150 290 158 310 146 290 153 310 143 291 146 310 141 291 142 310 137 291 137 309 132 292 132 308 128 291 126 306 123 290 120 305 117 289 114 303 113 288 109 301 109 287 106 298 106 284 102 297 103 283 98 294 99 281 94 291 94 277 90 288 91 274 85 285 87 272 80 281 84 268 77 277 79 263 73 273 76 259 70 269 73 255 66 264 70 251 63 259 67 247 60 254 67 245 57 251 66 244 55 246 65 240 52 240 62 233 50 236 60 229 48 230 59 224 47 225 57 220 44 220 56 217 42 215 55 211 41 209 55 207 41 206 55 202 40 200 56 199 40 195 56 195 39 191 56 190 38 185 56 187 38 180 56 183 39 175 57 179 38 170 59 174 40 166 60 171 41 159 60 168 43 155 61 165 45 152 64 160 46 148 66 157 48 144 67 156 50 140 70 152 53 136 71 150 56 133 75 146 59 129 77 144 60 127 79 144 61 127 81 142 65 123 83 140 70 119 87 138 73 115 90 137 78 113 79 114 97 115 85 96 72 80 61 60 56 40 49 21 49 11 39 13 45 31 45 30 42 8 49 33 46 5 53 32 48 5 54 31 48 5 55 31 57 12 58 8 62 27 52 5 57 30 47 6 55 31 46 6 55 31 54 32 59 52 50 54 50 53 58 70 52 46 64 73 57 44 68 71 69 69 67 50 67 45 75 64 60 43 75 81 58 43 68 68 78 91 78 92 66 86 77 102 67 82 83 103 72 79 87 101 88 100 82 82 82 78 93 94 75 76 90 99 73 77 88 100 87 100 96 116 116 124 136 138 145 155 146 159 146 158 146 145 141 154 145 139 138 150 143 133 136 147 140 129 132 144 137 125 129 141 134 121 124 138 131 117 121 138 126 114 119 137 122 112 116 135 116 109 115 135 112 109 111 134 107 108 107 134 102 108 104 133 98 108 101 134 97 107 98 134 92 108 96 135 86 109 94 135 82 112 91 136 79 113 78 113 64 108 79 113 57 90 57 93 58 94 58 95 59 96 59 97 65 109 53 77 56 94 50 83 49 83 49 82 48 81 47 80 47 79 46 79 46 78 45 77 41 65 58 84 45 43 47 75 45 59 46 42 47 75 46 41 38 57 29 31 43 40 29 11 29 25 38 0 26 15 38 0 37 0 "/>
    <path id="Block1Jump4"
        fill="none"
        stroke="#0B3D91"
		stroke-width="2px"
		d="M 329 891 L 329 891 318 893 " />
</svg>
