<?xml version="1.0" encoding="UTF-8" standalone="no"?>
<svg xmlns="http://www.w3.org/2000/svg" version="1.1" width="1218" height="640">
    <path id="Block1Jump0"
        fill="none"
        stroke="#2584BB"
		stroke-width="2px"
		d="M 1143 80 L 1139 77 1136 74 1132 76 1128 79 1123 81 1118 84 1116 89 1123 125 1122 141 1116 162 1135 162 1154 162 1169 154 1168 162 1184 162 1209 161 1209 134 1203 128 1182 112 1161 95 1151 89 1116 89 1122 84 1127 89 1114 93 1120 116 1120 139 1114 162 1122 167 1150 163 1178 159 1177 165 1183 166 1205 165 1208 167 1218 164 1183 167 1174 167 1204 163 1218 160 1193 163 1164 167 1157 167 1183 162 1213 158 1218 156 1203 157 1173 162 1158 164 1152 164 1144 168 1153 167 1164 163 1143 166 1122 168 1115 168 1133 165 1163 161 1192 157 1218 152 1212 152 1182 156 1153 160 1123 164 1105 166 1113 164 1143 160 1172 155 1202 151 1218 148 1192 151 1162 155 1132 159 1106 162 1122 159 1152 154 1182 150 1211 146 1218 144 1201 145 1171 150 1142 154 1112 158 1108 157 1131 153 1161 149 1191 145 1218 140 1210 140 1181 144 1151 148 1121 152 1109 153 1141 148 1171 144 1200 139 1218 136 1190 139 1160 143 1131 147 1111 149 1120 147 1150 143 1180 138 1210 134 1218 132 1199 133 1170 138 1140 142 1112 145 1130 141 1159 137 1189 133 1215 128 1209 128 1179 132 1149 137 1120 141 1113 141 1139 136 1169 132 1199 128 1211 125 1188 127 1159 131 1129 136 1113 136 1119 134 1148 130 1178 126 1207 121 1198 121 1168 125 1138 129 1113 132 1128 129 1158 125 1187 121 1203 118 1177 120 1148 124 1118 128 1113 128 1138 124 1167 120 1199 114 1187 115 1157 119 1127 123 1113 124 1147 119 1176 115 1195 111 1166 114 1137 118 1113 120 1126 117 1156 113 1186 109 1191 107 1176 108 1146 112 1113 116 1136 112 1166 108 1187 104 1155 107 1125 111 1112 112 1145 106 1175 102 1182 100 1165 102 1135 106 1112 108 1125 105 1154 101 1178 97 1144 100 1111 104 1134 100 1164 96 1174 93 1154 96 1124 100 1110 101 1114 99 1143 95 1169 90 1163 90 1133 94 1109 97 1123 94 1153 90 1164 87 1143 89 1113 93 1107 93 1132 88 1156 84 1122 88 1106 89 1112 87 1136 84 1129 84 1105 86 1122 84 1136 74 1135 74 1154 73 1175 58 1194 40 1208 22 1209 6 1185 6 1161 6 1137 6 1113 5 1088 5 1064 5 1039 5 1059 19 1079 36 1096 55 1109 74 1135 74 1163 75 1131 79 1118 80 1110 80 1121 78 1150 74 1171 70 1140 74 1111 78 1101 78 1130 73 1160 68 1178 65 1150 68 1120 72 1099 74 1110 71 1140 67 1169 63 1184 60 1159 63 1129 67 1097 70 1119 66 1149 62 1179 58 1189 55 1168 57 1139 62 1109 66 1094 67 1099 65 1129 61 1158 57 1188 53 1194 50 1178 52 1148 56 1118 60 1091 63 1108 59 1138 55 1168 51 1199 46 1187 47 1158 51 1128 55 1098 59 1088 59 1117 54 1147 50 1177 46 1203 41 1196 41 1167 45 1137 50 1107 54 1085 56 1097 53 1127 49 1157 45 1186 41 1207 37 1176 40 1146 44 1117 48 1082 52 1107 47 1136 43 1166 39 1196 35 1211 32 1186 35 1156 39 1126 43 1097 47 1079 49 1086 47 1116 43 1146 39 1175 34 1205 30 1215 27 1195 29 1165 33 1135 37 1106 42 1075 45 1096 41 1125 37 1155 33 1185 28 1217 23 1204 24 1174 28 1145 32 1115 36 1085 40 1072 41 1105 36 1135 32 1164 28 1194 23 1218 19 1184 23 1154 27 1125 31 1095 35 1068 38 1084 35 1114 30 1144 26 1174 22 1203 18 1218 15 1193 17 1163 22 1134 26 1104 30 1074 34 1065 34 1094 30 1124 25 1153 21 1183 17 1213 13 1218 11 1202 12 1173 16 1143 21 1113 25 1084 29 1061 31 1074 28 1103 24 1133 20 1163 16 1192 12 1218 7 1212 7 1182 11 1153 15 1123 19 1093 23 1063 27 1056 27 1083 23 1112 19 1142 15 1172 11 1202 6 1218 3 1192 6 1162 10 1132 14 1102 18 1073 22 1052 24 1063 21 1092 17 1122 13 1152 9 1181 5 1214 0 1207 0 1171 4 1141 8 1112 13 1082 17 1048 21 1072 16 1102 12 1131 8 1161 3 1185 0 1178 0 1151 3 1121 7 1091 11 1062 15 1043 17 1051 15 1081 11 1111 6 1140 2 1156 0 1149 0 1130 2 1101 6 1071 10 1039 14 1061 10 1091 5 1120 1 1128 0 1121 0 1080 5 1050 9 1034 10 1040 9 1070 4 1099 0 1092 0 1060 4 1030 7 1050 3 1070 0 1063 0 1040 2 1026 3 1041 0 1025 3 1020 4 1018 5 1027 28 1038 51 1046 73 1050 98 1048 125 1041 148 1027 158 1049 144 1058 135 1063 120 1063 102 1055 77 1045 54 1030 31 1014 6 1018 5 1024 4 1018 7 1025 29 1035 51 1043 74 1047 98 1046 121 1040 144 1034 154 1031 163 1020 164 1040 159 1031 159 1021 159 1048 153 1040 153 1026 155 1056 148 1050 148 1029 150 1040 148 1062 143 1032 146 1049 142 1066 139 1039 142 1034 141 1058 137 1069 134 1048 136 1035 137 1071 130 1058 131 1037 133 1048 130 1073 126 1067 126 1038 129 1057 125 1073 122 1047 125 1039 125 1066 120 1074 118 1056 120 1039 121 1046 119 1074 114 1065 114 1040 116 1055 113 1074 110 1045 112 1040 112 1064 108 1074 106 1054 107 1040 108 1073 102 1063 102 1040 104 1053 101 1072 98 1040 100 1063 96 1072 94 1053 95 1040 96 1071 90 1062 90 1040 92 1052 89 1070 86 1039 88 1061 84 1068 82 1051 83 1039 84 1067 78 1060 78 1038 80 1050 77 1066 74 1037 76 1058 73 1064 71 1049 72 1036 73 1063 67 1035 69 1048 66 1061 63 1038 65 1033 65 1059 59 1047 60 1032 61 1037 59 1057 55 1030 57 1046 54 1055 52 1036 53 1029 53 1053 48 1046 48 1027 50 1036 47 1050 44 1025 46 1048 41 1035 42 1024 42 1046 37 1022 38 1034 35 1043 33 1020 34 1041 29 1033 30 1019 31 1023 29 1038 26 1017 27 1036 22 1022 23 1015 23 1034 18 1014 19 1020 17 1031 15 1012 15 1029 11 1020 11 1011 11 1027 7 1009 8 1017 5 1024 3 1008 4 1022 1 1004 3 1018 5 997 6 994 14 980 37 967 59 955 84 951 111 953 125 962 139 987 160 979 148 972 125 970 100 973 76 981 53 988 30 997 6 1008 3 998 6 991 25 984 44 978 68 975 76 972 99 974 123 981 146 990 161 994 162 982 163 991 161 998 159 976 160 995 155 971 156 980 155 993 152 966 153 990 148 979 149 962 150 969 148 988 144 957 146 978 142 987 140 968 142 954 143 958 141 985 136 977 136 951 139 967 136 984 133 957 136 948 136 977 131 983 129 967 130 946 132 957 129 982 125 976 125 944 128 966 124 981 121 956 123 943 124 975 119 981 117 965 118 942 120 955 117 980 113 974 113 941 116 964 112 980 109 954 111 941 112 973 107 980 105 963 106 941 108 953 105 980 101 972 101 941 104 962 100 980 97 952 100 942 100 972 95 981 93 962 94 943 96 952 94 981 89 971 89 944 92 960 88 982 84 950 88 945 88 970 83 982 80 960 82 946 83 983 76 969 77 948 79 959 76 984 72 979 72 950 75 968 71 986 68 958 71 952 70 977 66 987 63 967 65 954 66 988 59 977 60 956 62 967 59 990 55 959 57 976 54 991 51 966 53 961 53 985 49 993 46 975 48 963 49 994 42 985 42 966 44 975 42 996 38 969 40 984 37 997 34 971 35 993 32 999 29 983 30 974 31 1000 25 992 25 977 26 982 24 1002 21 980 22 991 20 1003 17 983 18 1005 12 990 13 986 13 1006 8 1000 8 989 9 1008 4 992 4 999 2 1008 1 999 2 993 3 987 1 997 6 977 5 965 12 945 28 927 46 912 67 908 74 897 74 891 80 882 84 876 89 868 91 848 104 830 119 815 136 799 135 807 131 803 130 799 135 794 128 776 110 754 94 746 89 714 89 723 120 723 137 718 162 739 162 759 161 774 152 770 163 799 161 799 135 807 130 799 129 792 124 776 108 756 94 735 86 720 84 708 85 703 87 718 86 742 84 749 84 728 87 705 91 739 87 756 86 749 88 719 92 706 95 729 93 761 89 739 93 708 99 720 98 750 94 766 92 760 94 730 98 709 102 740 99 771 96 750 100 720 104 711 106 731 104 760 100 776 99 771 101 741 105 712 110 721 110 751 106 780 102 761 106 731 110 712 114 742 111 772 107 784 106 752 112 722 116 713 118 732 116 762 112 788 109 772 112 743 117 713 122 723 122 753 117 783 113 792 113 763 118 733 122 713 126 744 123 773 119 796 116 783 119 754 123 724 127 713 130 734 128 764 124 793 120 799 120 774 125 744 129 713 134 725 133 754 129 784 125 802 124 794 126 765 130 735 134 713 138 745 134 775 130 805 127 785 131 755 135 726 139 713 141 736 140 765 136 795 132 808 131 776 136 746 140 712 146 726 145 756 141 786 137 809 135 796 138 766 142 736 146 712 150 718 153 715 165 720 167 740 164 760 161 781 158 780 166 789 167 809 163 780 166 766 167 759 167 770 166 799 161 809 159 789 161 761 164 779 160 809 156 809 154 783 158 756 162 766 164 759 165 735 168 727 168 749 165 770 162 790 158 809 154 798 156 769 160 739 164 710 167 729 163 759 159 788 155 809 151 778 154 749 158 719 162 708 163 738 158 768 154 798 150 809 147 788 149 758 153 728 157 709 159 718 157 748 153 777 148 809 143 797 144 767 148 737 152 711 155 727 152 757 147 787 143 809 139 777 143 747 147 717 151 712 150 736 146 766 142 796 138 809 135 786 137 756 141 726 145 712 146 746 140 776 136 808 131 795 132 765 136 736 140 713 143 736 140 765 136 795 132 807 130 799 135 799 161 815 161 814 144 815 136 830 119 848 104 868 91 876 89 875 89 867 91 846 106 827 122 815 134 815 161 849 162 848 154 862 161 898 159 893 137 893 113 900 89 875 89 886 84 891 87 902 91 896 115 896 139 902 162 898 165 910 162 867 166 857 167 871 165 900 160 909 158 890 160 860 164 852 164 880 159 908 155 907 153 887 156 866 159 845 162 850 168 860 165 831 167 850 163 859 162 859 160 883 157 907 153 899 154 870 158 840 163 809 166 830 163 859 158 889 154 906 151 879 154 849 158 820 162 805 163 810 161 839 157 869 153 899 149 905 147 888 148 859 152 829 157 805 159 819 156 849 152 878 148 904 143 898 143 868 147 838 151 805 155 828 151 858 146 887 142 903 139 877 142 848 146 818 150 805 151 838 145 867 141 897 137 903 135 887 136 857 141 827 145 805 147 817 144 847 140 877 136 903 131 896 131 866 135 837 139 805 143 826 139 856 135 886 130 903 127 876 130 846 134 816 138 805 139 836 134 866 129 895 125 903 123 885 124 855 128 825 132 806 134 815 132 845 128 875 124 903 119 895 119 865 123 835 127 808 130 825 127 854 123 884 119 903 115 874 118 844 122 812 125 834 121 864 117 894 113 903 110 883 112 853 116 824 121 817 120 843 115 873 111 904 106 893 107 863 111 833 115 822 116 853 111 882 106 906 102 872 106 843 110 828 111 862 105 892 101 907 98 882 100 852 104 834 106 842 104 872 100 901 96 909 94 891 96 862 100 840 101 851 99 881 94 910 89 900 90 871 94 847 96 861 93 890 89 911 85 880 88 854 91 870 88 900 84 893 84 862 87 886 84 897 74 908 74 912 67 927 46 945 28 965 12 977 5 997 6 976 5 949 5 922 5 895 6 868 6 842 6 815 6 815 24 818 32 836 51 855 66 872 74 897 74 908 74 917 60 933 40 952 23 976 5 991 1 966 2 945 3 931 3 917 3 902 3 888 3 874 3 859 3 845 3 821 2 822 0 816 1 805 4 827 1 843 0 850 0 837 2 805 8 818 7 848 3 872 0 879 0 858 3 828 8 805 12 838 8 868 4 901 0 908 0 878 4 849 9 819 13 805 16 829 14 859 9 888 5 930 0 937 0 928 1 899 6 869 10 839 14 805 20 820 19 850 15 879 10 909 6 939 2 958 0 965 0 949 2 919 7 889 11 860 15 830 19 805 24 810 24 840 20 870 16 899 12 929 7 959 3 986 0 969 4 940 8 910 12 880 17 850 21 821 25 805 28 831 25 860 21 890 17 920 13 950 8 979 4 988 3 960 10 930 14 900 18 871 22 841 26 811 30 807 32 822 31 851 27 881 22 911 18 940 14 970 10 981 9 950 15 921 19 891 23 861 28 832 32 809 35 842 32 871 28 901 23 931 19 960 15 975 14 956 20 940 35 935 37 920 56 909 71 915 76 908 77 884 80 876 80 899 77 918 73 888 76 864 78 878 75 908 71 921 68 898 70 868 75 857 75 888 70 917 66 924 64 907 65 877 70 851 72 867 68 897 64 928 59 916 60 887 64 857 68 845 69 876 63 906 59 931 55 926 55 896 59 866 63 840 65 856 62 886 58 916 54 934 50 905 53 876 57 846 62 836 62 865 57 895 53 925 49 939 45 915 48 885 52 855 57 831 59 845 56 875 52 904 47 934 43 943 41 924 43 894 47 865 51 835 55 827 55 855 50 884 46 914 42 948 36 933 37 904 42 874 46 844 50 823 52 834 49 864 45 894 41 923 37 954 31 943 32 913 36 883 40 854 44 820 48 843 44 873 40 903 36 932 31 960 26 952 26 922 30 893 34 863 39 833 43 816 44 823 43 853 39 883 34 912 30 942 26 966 21 961 21 932 25 902 29 872 34 843 38 813 41 832 37 862 33 892 29 922 25 951 21 972 17 941 20 911 24 882 28 852 32 822 36 811 37 842 32 871 28 901 23 931 19 960 15 978 12 950 15 921 19 891 23 861 28 832 32 808 34 822 31 851 27 881 22 911 18 940 14 970 10 984 7 960 10 930 14 900 18 871 22 841 26 811 30 806 31 803 30 815 24 798 26 798 6 772 6 746 6 719 6 693 5 666 5 640 5 659 20 677 35 694 53 706 74 730 74 749 73 770 61 786 43 798 26 807 30 793 34 780 53 763 69 761 75 737 78 718 80 711 80 727 78 757 73 769 70 746 72 717 77 699 78 707 76 736 72 766 68 777 65 756 67 726 72 696 75 716 71 746 67 775 63 783 60 765 62 736 66 706 70 694 71 725 65 755 61 787 56 775 57 745 61 715 65 692 67 705 64 735 60 764 56 791 51 784 51 754 55 724 59 695 63 689 63 714 59 744 55 774 51 795 46 764 50 734 54 704 58 687 60 694 58 724 54 753 49 783 45 799 42 773 45 743 49 713 53 684 56 703 52 733 48 763 44 793 40 802 37 782 39 752 43 723 47 693 51 681 52 713 47 742 43 772 39 805 33 792 34 762 38 732 42 703 47 678 49 692 46 722 42 752 38 781 34 807 29 801 29 771 33 741 37 712 41 682 45 675 45 702 40 731 36 761 32 791 28 808 25 781 28 751 32 721 36 691 40 671 42 681 39 711 35 741 31 770 27 800 23 808 20 790 22 760 26 731 30 701 34 667 38 690 34 720 29 750 25 780 21 808 16 799 16 769 21 740 25 710 29 680 34 664 35 670 33 700 29 730 24 759 20 789 16 808 12 779 15 749 19 719 24 690 28 660 31 680 27 709 23 739 19 769 15 798 10 808 8 788 10 759 14 729 19 699 23 670 27 656 28 659 26 689 22 719 18 748 14 778 9 808 4 798 4 768 9 738 13 708 17 679 21 651 24 669 20 698 16 728 12 758 8 787 4 804 0 777 3 747 8 718 12 688 16 658 21 647 21 678 15 708 11 737 7 767 3 786 0 779 0 757 2 727 6 697 10 668 15 643 17 657 15 687 10 717 6 746 2 757 0 750 0 736 1 707 5 677 10 647 14 639 14 667 9 697 5 728 0 721 0 686 4 657 8 635 10 646 8 676 3 699 0 692 0 666 3 636 7 630 7 656 2 671 0 664 0 646 1 627 3 634 1 642 0 634 1 626 3 621 4 617 5 625 25 635 46 643 67 649 91 648 119 642 144 629 163 628 159 649 146 659 134 664 121 663 96 653 73 641 50 628 28 616 6 617 5 625 4 619 7 631 28 642 48 654 69 664 90 667 114 661 136 644 151 635 162 627 164 619 164 642 158 637 158 622 159 651 153 647 153 626 154 636 152 658 148 630 150 646 147 663 143 636 146 632 146 655 142 667 139 645 141 633 141 664 136 670 134 654 135 635 137 644 135 672 130 664 130 636 133 654 130 673 126 643 129 637 129 663 124 673 122 653 124 638 125 674 118 662 119 638 121 652 118 674 114 639 116 661 112 674 109 651 111 639 112 674 105 660 106 639 108 650 105 674 101 639 104 659 100 673 97 649 99 639 100 673 93 658 95 639 96 648 94 671 90 639 92 658 89 670 86 648 88 639 88 669 82 657 82 638 84 647 82 667 78 637 80 656 76 665 74 646 76 636 76 663 71 655 71 635 73 645 70 661 67 633 69 654 65 659 63 644 64 632 65 657 59 630 61 643 58 655 56 629 57 653 52 642 52 627 53 632 51 651 48 626 50 641 46 649 44 631 46 624 46 647 41 641 41 622 42 631 40 645 37 621 38 642 33 630 34 619 34 640 29 617 31 629 28 638 26 616 27 636 22 628 22 614 23 618 21 634 18 613 19 627 16 631 14 616 15 611 15 629 11 610 11 616 10 627 7 608 8 625 3 615 4 607 4 623 0 607 3 602 3 615 6 596 6 593 13 581 35 568 57 557 80 551 102 552 122 561 139 588 159 587 162 578 150 571 126 569 101 572 76 580 52 587 29 596 6 606 3 599 6 589 27 583 51 575 74 572 97 573 121 579 144 585 165 597 163 579 163 597 159 587 159 574 160 577 158 594 155 568 157 586 153 591 151 576 153 564 153 589 148 559 150 575 147 587 144 565 146 555 146 585 140 574 141 553 143 564 140 584 136 550 139 573 134 583 132 563 134 548 135 553 133 582 129 573 129 546 132 563 129 581 125 552 128 544 128 572 123 580 121 562 122 542 124 551 122 580 117 571 117 541 120 561 116 579 113 550 116 541 116 570 111 579 109 560 110 541 112 550 110 579 105 569 105 541 108 559 105 579 101 549 104 541 104 568 99 579 97 558 99 541 100 548 98 579 93 568 93 542 96 557 93 580 88 543 92 566 87 581 84 557 86 545 87 576 82 581 80 566 81 546 83 556 81 583 76 575 76 548 79 565 76 584 72 555 75 550 74 574 70 585 67 564 69 552 70 586 63 573 64 554 66 563 64 588 59 583 59 556 61 573 58 589 55 563 57 559 57 582 53 590 51 572 52 561 53 592 46 581 46 564 48 571 46 593 42 566 44 581 41 595 38 569 39 589 36 596 34 579 35 571 35 598 29 589 29 574 31 579 29 599 25 576 26 588 24 601 21 579 22 602 17 587 18 581 17 604 12 597 12 584 13 605 8 587 9 596 7 606 4 590 4 607 1 591 3 585 1 596 6 575 5 559 17 539 35 522 53 516 62 511 68 505 74 480 74 489 80 484 83 480 74 469 72 449 61 438 54 424 40 415 28 412 18 412 6 397 6 397 25 393 33 377 51 360 66 347 73 328 74 304 75 309 89 334 89 342 90 362 105 380 123 397 141 397 161 412 161 412 142 406 135 401 136 396 140 378 120 359 101 343 89 309 89 318 124 318 138 312 162 338 162 357 161 372 154 369 163 397 161 396 140 405 136 394 135 377 117 359 100 340 86 332 86 314 86 315 84 299 87 324 85 337 84 344 84 334 85 304 89 300 91 315 90 345 86 352 85 325 90 301 95 335 91 357 89 345 92 316 96 303 99 326 97 355 93 361 92 336 97 304 102 316 101 346 97 365 96 356 98 326 102 305 106 337 103 369 99 347 103 317 107 306 110 327 108 357 104 373 103 367 105 337 109 307 114 318 113 348 109 377 106 358 110 328 114 308 118 338 115 368 111 380 110 349 115 319 119 308 122 329 120 359 116 384 113 369 116 339 121 308 126 320 125 350 121 379 117 388 117 360 122 330 126 308 130 340 127 370 123 391 120 380 123 350 127 321 131 308 134 331 132 360 128 395 124 371 128 341 132 308 138 321 137 351 133 381 129 398 128 391 130 361 134 331 138 307 142 312 142 342 138 371 134 401 131 382 135 352 139 322 143 307 146 332 144 362 140 392 136 403 134 372 140 343 145 313 149 306 151 323 149 353 145 383 141 407 139 393 142 363 146 333 150 305 155 314 155 343 151 373 147 407 143 400 147 407 164 396 165 375 167 366 167 386 165 407 161 375 164 359 165 365 163 395 159 407 157 385 159 360 162 365 164 330 168 322 168 355 163 370 161 389 157 407 154 375 159 345 163 315 167 305 167 335 162 365 158 394 154 407 151 384 153 354 157 325 161 302 163 314 160 344 156 374 152 407 147 394 148 364 152 334 156 303 159 324 155 354 151 383 147 407 143 373 147 343 151 314 155 305 155 333 150 363 146 393 142 407 139 383 141 353 145 323 149 306 151 313 149 343 145 372 141 405 136 412 142 412 161 397 161 397 141 380 123 362 105 342 90 334 89 309 89 304 75 328 74 347 73 360 66 377 51 393 33 397 25 397 6 412 6 412 18 415 28 424 40 438 54 449 61 469 72 480 74 476 89 463 93 443 109 425 126 412 140 412 161 448 163 446 156 459 162 479 162 500 163 492 136 492 115 501 88 476 89 488 83 489 92 501 92 497 102 494 125 498 149 510 165 487 168 479 168 497 165 510 162 487 165 460 167 477 164 509 158 496 159 466 163 449 165 456 163 486 159 507 156 507 154 486 157 465 160 443 163 438 167 458 164 419 167 446 162 476 158 507 153 495 153 465 158 436 162 403 165 426 161 455 157 485 153 505 149 475 152 445 156 416 160 403 161 435 156 465 151 494 147 504 145 484 147 455 151 425 155 403 157 415 154 444 150 474 146 503 141 494 141 464 145 434 150 403 153 424 149 454 145 483 141 502 137 473 140 444 144 414 148 403 149 433 144 463 140 493 135 502 133 483 135 453 139 423 143 403 145 413 143 443 138 472 134 501 129 492 129 462 134 432 138 403 141 422 137 452 133 482 129 501 125 472 128 442 133 412 137 405 136 432 132 461 127 491 123 502 121 481 123 451 127 421 131 409 132 441 127 471 122 502 117 490 118 460 122 431 126 413 127 421 125 450 121 480 117 503 113 470 117 440 121 418 123 430 120 460 116 489 112 504 109 479 111 450 115 422 118 439 115 469 110 499 106 505 104 488 105 459 109 427 113 449 109 478 105 506 100 498 100 468 105 439 109 432 108 458 104 488 100 507 96 478 99 448 103 437 104 468 99 497 95 509 92 487 94 457 98 442 99 477 93 510 87 496 88 467 92 448 94 456 92 486 88 506 84 476 87 456 89 465 87 488 83 480 74 505 74 511 68 516 62 522 53 539 35 559 17 575 5 596 6 575 5 552 5 529 5 506 5 483 6 460 6 437 6 412 6 412 18 415 27 431 46 451 62 473 74 499 74 508 74 517 60 533 41 552 23 575 5 589 1 564 2 543 3 529 3 515 3 500 3 486 3 472 3 457 3 443 3 419 2 420 0 403 4 441 0 448 0 443 1 414 5 403 8 424 6 454 1 470 0 477 0 464 2 434 6 403 12 415 11 444 7 474 3 499 0 506 0 484 3 455 7 425 12 403 16 435 12 465 8 494 4 528 0 535 0 505 4 475 9 445 13 415 17 403 20 426 18 456 13 485 9 515 5 556 0 563 0 555 1 525 5 495 10 466 14 436 18 404 24 416 23 446 19 476 15 505 10 535 6 565 2 584 0 575 3 546 7 516 11 486 15 456 20 427 24 404 27 437 24 466 20 496 16 526 12 556 7 586 4 566 9 536 13 506 17 477 21 447 25 417 29 407 32 428 30 457 26 487 22 517 17 546 13 576 9 580 9 556 13 527 17 497 21 467 26 438 30 409 35 420 37 437 55 448 61 465 73 489 78 503 80 515 77 482 80 474 80 504 75 519 72 494 75 464 78 484 74 514 70 522 68 504 70 474 74 457 75 464 73 494 68 525 63 513 64 483 68 451 72 473 68 503 63 528 59 522 59 493 63 463 67 446 68 453 67 482 62 512 58 532 54 502 57 472 62 440 65 462 61 492 57 522 53 536 50 511 53 482 57 452 61 435 62 442 60 471 56 501 51 531 47 540 45 521 47 491 51 461 55 431 58 451 55 481 51 511 47 545 40 530 41 500 46 471 50 441 54 427 55 431 53 461 49 490 45 520 41 549 36 539 36 510 40 480 44 450 48 423 51 440 48 470 44 500 40 529 35 555 31 549 31 519 35 489 39 460 43 430 48 419 48 449 43 479 38 509 34 538 30 560 26 528 30 499 34 469 38 439 42 416 44 429 41 459 37 489 33 518 29 548 25 566 21 538 24 508 28 478 33 449 37 419 41 413 41 438 36 468 32 498 28 528 24 557 20 572 16 547 19 517 23 488 27 458 31 428 36 410 37 418 35 448 31 477 27 507 22 537 18 567 14 577 11 556 13 527 17 497 21 467 26 438 30 408 33 428 30 457 26 487 22 517 17 546 13 576 9 583 7 566 9 536 13 506 17 477 21 447 25 417 29 406 30 437 24 466 20 496 16 526 12 556 7 587 3 556 7 526 12 496 16 466 20 437 24 401 29 397 25 397 27 397 6 374 6 351 6 328 6 305 5 281 5 258 5 233 5 252 20 271 36 287 54 301 74 325 74 348 73 368 59 386 42 397 27 405 29 396 32 380 50 366 61 347 76 356 76 326 80 319 80 343 77 363 72 333 76 300 79 323 75 352 71 371 67 342 70 313 74 293 76 302 74 332 70 362 66 377 62 352 65 322 69 290 72 312 69 342 64 371 60 382 57 361 59 331 64 301 68 287 69 291 67 321 63 351 59 380 55 387 53 370 54 341 58 311 62 284 65 301 62 330 57 360 53 391 48 380 49 350 53 320 57 291 62 282 62 310 57 340 53 370 48 395 43 389 43 359 47 329 52 300 56 279 58 290 55 319 51 349 47 379 43 399 39 369 42 339 46 309 50 275 54 299 50 329 46 358 42 388 38 402 34 378 37 348 41 319 45 289 50 272 51 279 49 308 45 338 40 368 36 398 32 405 30 387 32 357 36 328 40 298 44 269 47 288 43 318 39 347 35 377 31 407 26 397 26 367 31 337 35 308 39 278 43 266 44 297 38 327 34 357 30 386 26 407 22 376 25 347 29 317 34 287 38 262 40 277 37 307 33 336 29 366 25 396 21 407 18 386 20 356 24 326 28 296 32 267 36 259 36 286 32 316 28 346 24 376 19 407 14 395 15 365 19 336 23 306 27 276 31 255 33 266 30 296 26 325 22 355 18 385 14 407 10 375 13 345 17 315 21 285 25 251 29 275 25 305 21 335 17 365 13 394 9 407 6 384 8 354 12 324 16 295 21 265 25 247 26 255 24 285 20 314 16 344 12 374 8 407 2 393 3 364 7 334 11 304 15 275 19 242 22 264 19 294 14 324 10 353 6 383 1 393 0 386 0 373 1 343 5 313 9 284 14 254 18 238 19 244 17 274 13 303 9 333 4 365 0 358 0 323 4 293 8 263 13 234 16 253 12 283 8 313 3 336 0 329 0 303 3 273 7 243 11 230 12 262 6 292 2 307 0 300 0 282 2 252 6 226 9 242 5 272 1 278 0 271 0 232 5 222 5 250 0 243 0 219 3 214 3 213 7 213 6 223 30 232 53 242 77 245 102 243 129 235 154 225 165 229 156 250 142 256 132 258 117 255 94 247 70 234 47 221 26 213 6 218 3 212 6 214 11 221 34 230 55 238 77 242 100 241 123 236 146 229 165 215 166 235 160 224 161 218 161 244 155 233 156 222 156 251 150 242 150 225 152 232 150 257 145 251 145 228 148 242 145 261 141 229 143 251 140 265 136 241 138 231 139 260 134 266 132 250 133 232 135 240 133 267 128 260 128 233 131 249 128 268 124 239 127 234 127 259 122 268 120 248 122 234 123 268 116 258 116 235 118 247 116 268 112 235 114 257 110 268 108 247 110 235 110 267 104 256 104 235 106 246 104 267 100 235 102 255 98 266 96 245 98 235 98 265 92 255 92 234 94 244 92 264 88 234 90 254 86 263 84 243 86 233 86 262 80 253 80 232 82 242 80 260 76 231 79 252 75 259 73 242 74 230 75 257 69 251 69 229 71 241 68 256 65 227 67 254 61 240 62 226 63 230 61 252 57 224 59 239 56 250 54 229 55 223 55 247 50 238 50 221 52 228 50 245 46 220 48 237 45 243 43 227 44 218 44 241 39 217 40 227 38 238 35 215 36 236 31 226 32 214 33 234 28 212 29 225 26 231 24 211 25 229 20 209 21 213 19 227 17 208 17 224 13 213 13 206 13 222 9 205 10 211 8 220 5 204 6 217 2 203 3 198 3 196 6 184 26 173 44 161 64 151 84 146 108 147 126 155 138 184 161 177 157 168 134 165 107 167 81 174 55 183 30 192 6 196 6 202 3 195 6 187 27 183 36 176 59 173 67 168 90 168 115 172 138 181 159 191 164 175 165 183 163 192 161 170 162 189 157 183 157 164 158 172 156 186 153 159 155 184 150 172 151 155 152 161 150 183 146 151 148 171 144 181 142 161 144 148 145 180 138 170 138 145 141 160 138 179 134 150 137 142 137 169 132 178 130 159 132 140 134 149 132 177 127 169 127 138 130 158 126 176 123 148 126 137 126 168 121 176 119 157 120 136 122 147 120 175 115 167 115 136 118 156 114 175 111 146 114 136 114 166 109 175 107 156 108 136 110 145 108 175 102 165 103 136 106 155 102 175 98 145 102 136 102 164 97 175 94 154 96 137 98 144 96 176 90 163 91 138 94 153 91 176 86 140 89 163 85 177 82 152 84 141 85 172 80 178 78 162 79 143 81 151 79 179 74 171 74 145 76 161 73 181 69 151 72 147 72 170 68 182 65 160 67 149 68 183 61 169 62 152 63 159 61 184 57 179 57 154 59 169 56 186 53 157 55 177 50 187 48 168 50 159 50 189 44 177 45 162 46 167 44 190 40 165 41 176 39 191 36 167 37 186 34 192 31 175 33 170 32 194 27 185 27 173 28 196 23 175 24 184 22 197 19 178 19 193 16 199 14 181 15 200 10 192 10 183 10 202 6 186 6 191 4 203 2 187 3 183 1 192 6 172 5 145 5 118 5 91 5 64 6 37 6 10 6 10 33 14 41 30 57 49 70 60 74 83 74 103 74 113 59 130 39 149 21 172 5 187 1 162 2 141 3 127 3 113 3 98 3 84 3 69 3 55 3 41 3 26 3 18 0 0 4 10 3 39 0 46 0 20 4 0 8 30 5 68 0 75 0 70 1 40 5 11 9 0 12 21 10 50 6 80 1 97 0 104 0 90 2 61 6 31 11 0 16 11 15 41 11 71 7 100 3 126 0 133 0 111 3 81 7 51 12 21 16 0 20 32 16 62 12 91 8 121 4 154 0 161 0 131 4 101 9 72 13 42 17 12 21 0 24 22 22 52 18 82 13 111 9 141 5 171 1 182 0 181 2 152 6 122 10 92 14 62 18 33 22 0 28 13 27 43 23 72 19 102 15 132 10 162 6 184 4 172 7 142 11 112 16 83 20 53 24 23 28 0 32 34 28 63 24 93 20 123 16 152 12 178 9 162 12 133 16 103 20 73 25 44 29 14 33 1 36 24 34 54 30 83 26 113 21 143 17 172 14 153 17 123 22 94 26 64 30 34 34 3 40 15 39 44 35 74 31 104 27 134 23 165 19 144 23 114 27 84 31 55 36 25 40 5 44 35 41 65 36 95 32 124 28 154 24 159 24 134 28 105 32 75 36 45 41 16 45 8 47 26 46 55 42 85 37 115 33 145 29 153 29 125 34 95 38 66 42 36 46 11 51 46 47 76 43 106 39 135 35 147 34 116 39 86 44 56 48 27 52 14 54 37 52 67 48 96 44 126 39 142 38 136 41 106 45 77 49 47 53 18 58 27 58 57 54 87 49 116 45 138 43 127 45 97 50 67 54 38 59 22 61 48 59 77 55 107 51 134 48 117 51 88 55 58 59 26 65 39 64 68 60 98 56 130 52 108 56 78 60 49 64 31 68 59 65 88 61 118 57 126 57 99 62 69 66 36 71 49 70 79 66 109 62 122 61 89 67 60 71 42 75 70 72 100 68 119 66 110 68 80 72 48 78 60 77 90 73 116 69 101 76 101 80 112 77 80 80 72 80 81 79 114 73 101 74 71 78 58 80 60 84 71 89 51 90 34 108 17 128 10 140 10 163 44 163 43 153 58 163 94 163 87 130 90 104 96 89 71 89 43 87 52 88 86 84 93 84 62 88 38 92 43 93 72 89 102 85 107 85 82 89 53 93 33 97 63 94 92 90 106 89 73 95 43 99 28 102 53 99 83 95 104 93 93 95 64 100 34 104 24 106 44 105 74 100 103 97 84 101 54 105 20 111 35 110 64 106 94 102 101 102 75 107 45 111 16 116 25 116 55 111 85 107 100 106 65 112 36 116 13 120 46 116 76 112 99 110 86 113 56 117 26 122 9 125 36 122 66 118 98 114 76 118 47 122 17 127 6 129 27 127 57 123 86 118 97 118 67 124 37 128 4 134 18 133 48 129 77 125 97 123 87 125 58 129 28 133 2 138 8 138 38 134 68 130 97 127 78 131 48 135 19 138 0 142 29 139 59 135 88 131 97 131 69 136 39 140 9 144 0 146 20 144 49 140 79 136 98 134 89 136 59 141 30 145 0 150 10 150 40 145 69 141 99 138 80 142 50 146 20 150 0 154 30 151 60 146 90 142 100 142 70 147 40 151 11 155 0 158 21 156 51 152 81 148 100 146 91 148 61 152 31 157 0 162 12 161 41 157 71 153 101 150 81 154 52 158 22 162 0 165 7 168 12 167 42 164 54 162 54 160 78 157 102 153 92 154 62 159 32 163 0 167 22 165 44 163 36 168 55 165 33 165 44 163 72 159 103 156 82 160 53 164 48 166 63 165 92 161 103 160 73 165 59 168 83 166 104 164 93 166 79 168 86 168 99 167 101 167 93 168 102 168 93 168 93 168 " />
</svg>
