<?xml version="1.0" encoding="UTF-8" standalone="no"?>
<svg xmlns="http://www.w3.org/2000/svg" version="1.1" width="664" height="950">
    <path id="Block1Jump0"
        fill="none"
        stroke="#FFC864"
		stroke-width="2px"
		d="M 645 21 L 645 23 645 21 645 41 645 62 645 82 644 103 644 123 644 144 644 164 644 184 644 205 643 225 643 246 643 266 643 286 643 307 643 327 642 348 642 368 642 389 642 409 642 429 642 450 641 470 641 491 641 511 641 531 641 552 641 572 640 593 640 613 640 634 640 654 636 673 632 691 628 710 624 728 618 743 611 759 605 774 598 789 589 802 580 816 570 829 561 842 549 852 537 863 525 873 513 883 498 889 483 896 468 902 453 908 436 913 420 917 403 922 386 926 368 927 349 929 331 930 312 931 296 930 281 929 265 927 249 926 231 922 212 917 194 913 180 907 165 901 151 895 137 884 122 873 108 862 98 851 88 840 78 829 68 816 57 802 47 789 41 774 35 759 29 744 26 727 23 711 20 694 24 678 28 661 36 654 44 646 54 643 64 639 75 642 85 644 91 655 97 666 101 680 104 693 112 710 120 727 128 743 136 760 148 768 158 779 172 789 186 799 204 807 221 814 240 820 259 825 277 826 295 826 312 827 330 827 330 806 330 786 330 765 330 744 329 724 329 703 329 682 329 662 329 641 329 620 329 600 329 579 329 558 329 538 328 517 328 496 328 476 328 455 328 434 328 414 328 393 328 372 328 352 328 331 327 310 327 290 327 269 327 248 327 228 327 207 327 186 327 166 327 145 327 124 326 104 326 83 326 62 326 42 326 21 346 21 366 21 386 21 406 21 426 21 446 21 466 21 486 21 505 21 525 21 545 21 565 21 585 21 605 21 625 21 645 21 643 21 645 21 " />
    <path id="Block2Jump1"
        fill="none"
        stroke="#FFC896"
		stroke-width="2px"
		d="M 641 24 L 641 27 641 24 641 45 641 66 641 87 640 108 640 129 640 150 640 171 640 192 640 213 639 234 639 255 639 276 639 297 639 318 639 339 638 359 638 380 638 401 638 422 638 443 638 464 637 485 637 506 637 527 637 548 637 569 637 590 636 611 636 632 636 653 632 671 628 690 624 708 620 726 614 741 608 757 601 772 595 787 586 800 577 814 567 827 558 840 542 853 526 867 510 880 491 888 471 896 452 904 435 909 419 913 402 918 385 922 367 923 349 925 330 926 312 927 291 925 271 924 250 922 232 918 213 913 195 909 181 903 167 898 153 892 139 881 125 870 111 859 101 848 91 838 81 827 71 814 60 800 50 787 44 772 39 758 33 743 30 727 26 710 23 694 28 679 32 664 46 649 64 643 83 647 88 657 93 667 97 681 100 694 108 711 116 729 124 746 132 763 146 771 156 782 170 792 184 802 202 810 219 818 239 823 258 828 277 829 296 830 315 830 334 831 334 810 334 790 334 769 334 748 333 728 333 707 333 686 333 665 333 645 333 624 333 603 333 583 333 562 333 541 332 521 332 500 332 479 332 459 332 438 332 417 332 396 332 376 332 355 332 334 331 314 331 293 331 272 331 252 331 231 331 210 331 190 331 169 331 148 331 127 330 107 330 86 330 65 330 45 330 24 351 24 371 24 392 24 413 24 434 24 454 24 475 24 496 24 517 24 537 24 558 24 579 24 600 24 620 24 641 24 639 24 641 24 " />
    <path id="Block3Jump2"
        fill="none"
        stroke="#FFC8C8"
		stroke-width="2px"
		d="M 638 21 L 637 23 638 21 635 31 645 28 645 52 630 58 644 67 644 89 629 97 644 104 644 128 629 134 644 143 644 165 629 173 644 180 644 204 629 211 644 219 644 241 628 249 643 256 643 280 628 287 643 295 643 317 628 325 643 332 642 356 627 363 642 371 642 393 627 401 642 408 641 432 626 439 641 447 641 469 626 477 641 484 641 508 626 515 641 523 641 546 626 553 641 561 641 584 626 591 641 599 640 622 625 629 640 637 638 660 623 664 635 675 631 697 614 701 628 712 621 734 605 735 615 748 606 769 589 770 600 783 589 802 571 800 580 814 567 834 550 831 557 845 540 860 524 853 528 870 510 883 498 873 496 889 475 899 462 887 461 905 440 911 428 899 425 915 403 921 391 908 388 925 365 927 357 913 350 928 327 930 318 915 312 931 289 929 283 914 274 928 251 926 248 910 236 923 215 917 211 901 200 914 178 906 177 889 164 901 144 890 148 874 132 881 114 867 119 852 103 856 87 840 93 824 78 828 63 810 71 795 54 798 47 789 43 779 54 766 38 765 29 743 42 733 26 728 22 706 35 695 20 691 26 669 41 669 33 656 44 646 57 641 65 654 72 640 78 643 76 656 89 651 96 663 99 676 87 686 103 690 109 703 114 716 103 728 120 729 132 753 124 771 142 764 151 770 157 777 154 795 169 786 185 798 186 816 199 804 218 813 221 830 232 817 251 822 255 839 267 825 287 826 294 842 302 827 322 827 340 838 330 819 330 796 345 789 330 781 330 758 345 750 329 743 329 719 344 712 329 704 329 681 344 673 329 666 329 643 344 635 329 627 329 604 344 597 329 589 328 566 343 558 328 551 328 527 343 520 328 512 328 489 343 481 328 474 328 451 343 443 328 436 327 412 343 405 327 397 327 374 343 366 327 359 327 335 343 328 327 320 327 297 343 289 327 282 327 259 342 251 327 244 327 220 342 213 327 205 327 182 342 174 327 167 327 143 342 136 327 128 327 105 341 97 326 90 326 67 341 59 326 52 326 28 337 31 334 21 354 21 361 36 369 21 389 21 397 36 404 21 425 21 432 36 440 21 460 21 468 36 475 21 496 21 504 36 511 21 532 21 539 36 547 21 567 21 574 36 582 21 602 21 610 36 617 21 638 21 635 31 645 28 645 52 630 58 644 67 644 89 629 97 644 104 644 128 629 134 644 143 644 165 629 173 644 180 644 204 629 211 644 219 644 241 628 249 643 256 643 280 628 287 643 295 643 317 628 325 643 332 642 356 627 363 642 371 642 393 627 401 642 408 641 432 626 439 641 447 641 469 626 477 641 484 641 508 626 515 641 523 641 546 626 553 641 561 641 564 641 562 641 564 " />
    <path id="Block4Jump2"
        fill="none"
        stroke="#F64A8A"
		stroke-width="2px"
		d="M 641 564 L 641 562 641 564 641 545 641 525 641 506 642 486 642 467 642 448 642 428 642 409 642 389 642 370 643 351 643 331 643 312 643 293 643 273 643 254 643 234 644 215 644 196 644 176 644 157 644 137 644 118 644 99 645 79 645 60 645 40 645 21 655 12 664 2 626 43 664 8 626 49 664 14 626 54 664 20 626 60 664 27 626 66 664 33 626 71 664 39 626 77 664 45 626 83 664 50 626 88 664 56 626 94 664 62 626 99 663 68 625 105 663 74 625 110 663 80 625 115 663 86 625 121 663 91 625 126 663 97 625 132 663 103 625 137 663 108 625 142 663 114 625 147 663 120 625 153 663 125 625 158 663 131 625 163 663 136 625 168 663 142 625 173 663 147 625 178 663 153 625 183 663 158 625 189 663 164 625 194 663 169 625 199 663 174 625 204 663 180 625 209 663 185 625 214 663 190 625 218 663 195 625 223 662 201 624 228 662 206 624 233 662 211 624 238 662 216 624 243 662 221 624 248 662 227 624 252 662 232 624 257 662 237 624 262 662 242 624 267 662 247 624 271 662 252 624 276 662 257 624 281 662 262 624 285 662 267 624 290 662 272 624 295 662 277 624 299 662 282 624 304 662 287 624 308 662 292 624 313 662 297 624 318 662 301 624 322 662 306 624 327 662 311 624 331 662 316 624 336 662 321 624 340 662 325 624 345 661 330 623 349 661 335 623 353 661 340 623 358 661 344 623 362 661 349 623 367 661 354 623 371 661 358 623 375 661 363 623 380 661 368 623 384 661 372 623 388 661 377 623 393 661 382 623 397 661 386 623 401 661 391 623 406 661 396 623 410 661 400 623 414 661 405 623 418 661 409 623 423 661 414 623 427 661 418 623 431 661 423 623 435 661 427 623 440 661 432 623 444 661 436 623 448 661 441 623 452 661 445 623 456 661 450 623 461 661 454 623 465 661 459 623 469 660 463 622 473 660 468 622 477 660 472 622 481 660 476 622 486 660 481 622 490 660 485 622 494 660 490 622 498 660 494 622 502 660 499 622 506 660 503 622 510 660 507 622 514 660 512 622 518 660 516 622 523 660 520 622 527 660 525 622 531 660 529 622 535 660 534 622 539 660 538 622 543 660 542 622 547 660 547 622 551 660 551 622 555 660 555 622 559 660 560 622 563 660 564 622 567 660 568 622 571 660 573 622 575 660 577 622 580 660 582 622 584 660 586 622 588 660 590 621 592 659 595 621 596 659 599 621 600 659 603 621 604 659 608 621 608 659 612 621 612 659 616 621 616 659 621 621 620 659 625 621 624 659 629 621 628 659 634 621 632 659 638 621 636 659 643 621 641 659 647 621 645 659 651 621 649 659 656 621 653 659 660 620 657 658 664 619 661 657 668 618 665 656 673 618 668 655 677 617 672 654 681 616 676 653 685 615 680 652 690 614 684 651 694 613 688 650 698 612 692 649 702 611 696 648 707 611 700 647 711 610 704 646 715 609 708 646 720 608 711 645 724 607 715 644 728 606 719 643 732 605 722 641 736 604 725 640 740 603 729 638 744 601 732 636 748 600 736 634 752 598 740 633 756 597 743 631 760 595 747 629 764 594 751 627 768 592 754 626 772 590 758 624 776 589 761 622 780 587 765 620 784 586 769 619 788 584 772 617 792 583 776 615 796 581 780 613 800 579 783 611 804 577 786 608 807 575 789 606 811 573 792 603 815 570 796 601 818 568 799 598 822 566 802 596 825 564 805 593 829 562 808 591 832 559 811 588 836 557 815 586 839 555 818 583 843 553 821 581 846 551 824 578 850 548 827 575 854 546 830 573 857 543 833 570 860 541 836 566 863 538 838 563 865 535 840 559 868 532 843 556 871 529 845 553 874 526 847 549 877 524 850 546 879 521 852 543 882 518 854 539 885 515 857 536 888 512 859 533 890 509 861 529 893 507 863 526 896 504 866 522 899 501 868 519 901 497 870 515 903 494 871 511 904 490 872 507 906 487 874 503 908 483 875 498 909 480 877 494 911 476 878 490 913 473 879 486 914 469 881 482 916 466 882 478 918 462 884 474 919 459 885 470 921 455 886 466 923 452 888 462 924 448 889 458 926 444 890 454 927 440 891 450 928 436 892 445 929 432 893 441 930 429 894 437 931 425 896 433 932 421 897 429 933 417 898 424 934 413 899 420 935 410 900 416 937 406 901 412 938 402 902 408 939 398 903 403 940 394 904 399 941 390 906 395 942 386 907 391 943 383 908 386 944 379 908 382 944 375 908 378 945 370 909 373 945 366 909 369 945 362 909 365 946 358 909 360 946 354 909 356 946 350 910 352 947 346 910 347 947 342 910 343 947 338 910 339 948 334 911 334 948 330 911 330 948 326 911 326 949 322 911 321 949 318 911 317 949 314 912 313 950 310 912 308 950 306 912 304 950 302 911 300 949 298 911 295 949 295 911 291 948 291 910 287 948 287 910 282 947 283 910 278 947 279 909 274 947 275 909 269 946 271 909 265 946 267 908 261 945 263 908 256 945 259 908 252 944 256 907 248 944 252 907 243 943 248 906 239 942 244 905 235 941 240 904 231 940 236 903 226 939 233 902 222 938 229 901 218 937 225 900 214 936 221 900 209 935 217 899 205 934 213 898 201 934 209 897 197 933 205 896 192 932 201 895 189 930 197 893 185 929 194 892 181 927 190 891 177 926 187 889 173 924 184 888 169 923 181 887 165 921 177 886 161 920 174 884 157 918 171 883 152 917 168 882 148 915 164 880 144 914 161 879 140 912 158 877 137 909 156 875 133 906 153 873 130 904 150 871 127 901 147 868 123 898 144 866 120 895 141 864 117 893 138 861 113 890 135 859 110 887 132 857 106 884 129 855 103 882 126 852 100 879 123 850 96 876 120 848 93 873 117 845 90 870 115 843 87 867 112 839 84 864 110 836 81 860 107 833 78 857 104 830 75 854 102 827 73 851 99 824 70 847 96 821 67 844 94 818 64 841 91 815 61 838 89 813 58 834 87 810 56 831 85 807 53 827 82 804 50 824 80 801 48 820 78 798 45 817 75 795 42 814 73 792 39 810 71 789 37 807 68 786 34 803 66 783 31 800 64 780 29 796 62 777 27 792 61 773 26 788 60 770 24 784 58 767 23 780 57 763 21 776 56 760 20 772 54 756 19 767 53 753 17 763 52 750 16 759 51 746 14 755 49 743 13 751 48 739 11 747 47 736 10 743 46 733 9 738 46 729 8 734 45 726 8 730 44 722 7 726 44 719 6 721 43 715 5 717 43 712 4 713 42 708 3 708 42 705 2 704 41 702 1 700 40 698 0 695 40 695 1 691 41 692 1 687 41 690 2 683 41 688 3 678 42 685 4 674 42 683 6 670 43 681 7 666 43 678 8 662 44 676 9 657 44 673 10 653 45 671 13 649 46 670 16 646 48 669 19 643 49 667 22 640 50 666 25 637 52 665 29 634 53 664 32 631 54 663 35 628 56 662 39 627 57 661 43 625 58 661 47 624 60 660 52 623 61 659 56 621 62 659 60 620 64 658 64 619 65 658 69 620 66 658 73 621 67 659 77 622 68 659 81 623 69 660 86 624 70 660 90 625 71 660 95 626 72 661 99 628 73 662 101 632 74 663 103 636 75 664 105 640 76 665 107 644 77 667 109 648 78 669 111 652 79 670 113 656 80 672 114 660 81 675 115 664 82 679 117 668 83 684 118 673 84 688 119 677 85 692 120 681 86 696 121 685 87 700 123 689 88 704 124 693 90 708 125 696 92 712 127 699 94 716 128 702 95 720 130 706 97 724 131 709 99 728 133 712 101 732 134 715 103 736 136 718 105 740 137 722 107 744 139 725 108 748 140 728 110 752 142 731 112 756 144 734 114 760 145 738 116 764 147 741 118 768 149 744 120 772 151 746 124 774 153 748 128 777 155 750 131 779 158 752 135 782 161 754 139 784 164 757 141 788 168 761 144 791 171 764 146 795 174 766 150 798 176 768 153 800 179 770 157 803 182 772 161 805 185 775 164 807 188 777 168 810 191 779 171 812 193 781 175 815 197 783 179 817 200 784 183 818 203 786 187 820 206 787 191 822 209 788 195 824 212 790 199 826 215 791 203 828 218 792 207 829 221 794 211 831 224 795 215 833 228 797 219 834 232 798 223 835 235 799 227 836 239 800 232 837 243 801 236 838 246 802 240 839 250 803 244 840 253 803 248 841 257 804 253 842 260 805 257 843 264 806 261 844 267 806 266 844 271 806 270 844 274 807 274 845 277 807 279 845 280 807 283 845 284 807 287 845 287 807 292 845 290 807 296 846 293 808 300 846 297 808 305 846 300 808 309 846 301 808 314 846 303 808 319 846 304 808 323 846 305 808 328 846 307 808 334 846 308 808 339 846 309 808 345 846 311 808 349 844 311 803 349 838 311 797 349 832 311 791 349 825 311 784 349 819 311 778 349 813 311 772 349 807 311 766 349 801 311 760 349 795 311 753 349 788 311 747 349 782 311 741 349 776 311 735 349 770 311 729 349 764 311 722 349 757 311 716 349 751 311 710 349 745 310 704 348 739 310 698 348 733 310 691 348 727 310 685 348 720 310 679 348 714 310 673 348 708 310 667 348 702 310 661 348 696 310 654 348 689 310 648 348 683 310 642 348 677 310 636 348 671 310 630 348 665 310 623 348 658 310 617 348 652 310 611 348 646 310 605 348 640 310 598 348 634 310 592 348 627 310 586 348 621 310 580 348 615 310 574 348 609 310 567 348 603 310 561 348 596 310 555 348 590 310 549 348 584 310 543 348 578 310 536 348 572 310 530 348 565 310 524 348 559 310 518 348 553 310 512 348 547 310 505 347 541 309 499 347 534 309 493 347 528 309 487 347 522 309 480 347 516 309 474 347 510 309 468 347 503 309 462 347 497 309 456 347 491 309 449 347 485 309 443 347 479 309 437 347 472 309 431 347 466 309 425 347 460 309 418 347 454 309 412 347 447 309 406 347 441 309 400 347 435 309 393 347 429 309 387 347 423 309 381 347 416 309 375 347 410 309 368 347 404 309 362 347 398 309 356 347 391 309 350 347 385 309 344 347 379 309 337 347 373 309 331 347 367 309 325 347 360 309 319 347 354 309 312 347 348 309 306 346 342 308 300 346 335 308 294 346 329 308 287 346 323 308 281 346 317 308 275 346 311 308 269 346 304 308 263 346 298 308 256 346 292 308 250 346 286 308 244 346 279 308 238 346 273 308 231 346 267 308 225 346 261 308 219 346 254 308 213 346 248 308 206 346 242 308 200 346 236 308 194 346 229 308 188 346 223 308 181 346 217 308 175 346 211 308 169 346 205 308 163 346 198 308 156 346 192 308 150 346 186 308 144 346 180 308 138 346 173 308 131 346 167 308 125 346 161 308 119 346 155 308 113 346 148 308 106 345 142 307 100 345 136 307 94 345 130 307 88 345 123 307 81 345 117 307 75 345 111 307 69 345 105 307 63 345 98 307 56 345 92 307 50 345 86 307 44 345 80 307 37 345 73 307 31 345 67 307 25 345 61 307 19 345 55 307 12 345 48 307 6 345 43 309 2 349 40 313 0 353 40 319 0 358 40 325 0 362 40 331 0 367 40 336 0 371 40 342 0 375 40 347 0 379 40 353 0 384 40 358 0 388 40 363 0 392 40 369 0 396 40 374 0 400 40 379 0 404 40 384 0 408 40 389 0 412 40 394 0 415 40 398 0 419 40 403 1 423 40 408 1 427 40 413 1 430 40 417 1 434 40 422 1 437 40 427 1 441 40 431 1 445 40 436 1 448 40 440 1 452 40 445 1 455 40 449 1 459 40 453 1 462 40 458 1 466 40 462 1 469 40 467 1 472 40 471 1 476 40 475 1 479 40 480 1 483 40 484 1 486 40 488 1 490 40 493 1 493 40 497 1 496 40 502 1 500 40 506 1 503 40 510 1 507 40 515 1 510 40 519 1 514 40 524 1 517 40 528 1 521 40 532 1 524 40 537 1 528 40 541 1 531 40 546 1 535 40 551 1 539 40 555 1 542 40 560 1 546 40 565 1 550 40 569 1 554 40 574 1 558 40 579 2 561 40 584 2 565 40 589 2 569 40 594 2 573 40 599 2 577 40 604 2 581 40 609 2 586 40 615 2 590 40 620 2 594 40 626 2 598 40 631 2 603 40 637 2 607 40 642 2 612 40 648 2 617 40 654 2 621 40 660 2 626 40 628 38 626 40 " />
    <path id="Block5Jump3"
        fill="none"
        stroke="#70BC1F"
		stroke-width="2px"
		d="M 549 617 L 547 615 549 617 528 583 508 548 487 514 466 479 485 447 505 415 524 382 543 350 523 319 504 289 484 258 464 227 481 198 498 169 515 139 532 110 504 110 476 110 460 139 443 169 427 198 410 227 429 257 447 287 466 317 484 347 465 380 445 413 426 446 406 479 425 511 445 544 464 576 483 608 462 640 442 671 421 703 400 734 419 763 437 793 456 822 481 810 505 798 488 768 471 737 491 707 510 677 530 647 549 617 524 642 499 666 474 691 449 715 451 751 454 786 456 822 438 792 419 762 445 789 471 815 485 808 458 781 431 754 404 727 413 714 442 743 470 772 499 801 505 798 489 769 466 746 444 724 421 701 430 688 452 710 474 732 482 719 460 698 438 676 446 663 468 685 490 707 498 694 477 672 455 650 464 637 486 659 507 681 516 668 494 646 472 624 480 612 502 634 524 655 532 643 508 619 483 594 459 570 444 544 428 517 456 545 485 574 513 602 541 630 549 617 529 586 508 554 488 523 467 491 447 460 466 429 484 397 503 366 492 337 481 307 470 278 459 244 447 210 468 185 490 160 511 135 532 110 510 110 524 124 516 137 489 110 476 110 473 116 491 133 508 150 501 164 483 147 465 129 458 143 475 160 492 177 485 191 467 174 449 156 442 170 460 187 477 204 470 218 452 201 434 183 427 197 453 223 478 248 497 277 515 306 491 282 467 258 443 234 419 210 411 224 437 250 463 276 489 301 515 327 541 353 533 367 509 343 485 319 461 295 437 271 455 299 472 327 499 354 525 380 517 393 498 375 479 356 471 369 490 388 509 407 501 420 482 401 463 382 455 396 474 415 493 433 486 447 467 428 447 409 440 423 459 442 477 460 470 473 451 455 431 436 424 449 454 479 484 509 500 536 516 563 491 538 466 513 441 488 416 463 408 475 436 503 464 532 493 560 521 589 549 617 558 617 531 589 504 561 477 532 450 504 456 471 463 439 469 406 479 379 488 351 498 324 483 299 467 275 452 250 465 211 477 171 474 137 471 103 458 126 445 149 466 118 476 103 473 108 453 141 432 174 427 182 439 164 461 132 482 103 469 122 447 155 425 187 419 196 432 177 456 146 479 115 487 103 463 136 440 168 417 200 414 204 425 190 449 160 473 129 493 103 480 119 457 150 433 181 411 209 417 203 441 173 466 142 491 112 498 103 474 133 449 163 425 194 409 213 433 185 459 156 484 126 504 103 492 117 467 147 442 176 416 206 408 216 425 197 451 168 477 139 503 111 510 103 485 131 459 159 433 188 407 218 415 209 442 180 469 152 496 124 516 103 505 115 478 144 451 172 424 200 405 220 433 192 461 165 488 137 516 110 523 103 497 129 471 157 444 186 417 214 402 229 426 206 453 178 481 151 509 123 529 103 517 115 490 143 463 171 436 199 409 227 403 232 417 218 445 191 473 164 501 136 529 109 535 104 510 128 483 156 455 184 428 212 405 235 409 231 437 204 465 177 493 150 521 123 541 104 530 114 503 142 475 170 447 197 420 225 407 238 429 217 457 190 485 163 514 136 540 110 523 128 495 155 467 183 440 211 412 238 409 241 421 230 449 203 478 176 506 149 532 124 515 141 487 169 460 196 432 224 411 245 413 243 442 216 470 190 498 163 524 138 508 155 480 182 452 210 425 237 414 248 434 230 462 203 491 176 517 152 500 168 472 196 445 223 416 252 426 243 454 216 483 190 509 166 492 182 465 209 437 237 418 256 447 229 475 203 501 179 485 195 457 223 429 250 420 259 439 243 468 216 493 193 477 209 449 236 423 263 431 256 460 230 485 206 469 222 442 250 425 267 452 243 479 219 461 235 433 262 426 269 443 255 474 229 453 249 429 273 434 268 464 242 477 232 474 235 446 262 431 276 456 255 479 235 466 248 438 276 433 280 447 268 477 242 481 239 458 262 436 284 439 281 469 255 483 242 478 248 451 275 438 288 460 268 486 246 470 261 443 289 440 292 452 281 481 255 488 249 463 275 443 296 445 294 473 268 490 253 483 260 456 289 445 300 465 281 492 257 476 274 448 304 458 294 486 268 495 260 468 288 450 307 479 281 497 264 488 274 461 302 453 311 471 294 500 268 481 288 455 315 463 308 492 281 502 272 474 302 457 319 484 294 505 276 494 287 467 315 460 323 476 308 507 279 487 301 462 327 468 321 497 294 509 283 506 286 479 315 465 331 489 308 512 287 499 300 472 329 467 335 482 321 510 294 514 291 492 314 469 339 474 334 503 308 517 295 512 300 485 328 472 342 495 321 519 298 505 314 478 342 473 347 487 334 515 307 521 302 497 327 471 356 465 361 480 348 508 320 523 306 517 312 490 341 464 370 457 376 472 361 500 334 525 309 509 326 483 355 456 383 448 392 465 375 493 347 520 320 528 313 502 340 476 368 449 397 439 407 458 389 486 361 513 333 530 316 522 325 495 353 469 382 442 410 430 423 451 402 478 375 506 347 533 320 515 339 488 367 461 396 434 424 421 438 443 416 471 388 499 361 526 333 535 324 508 353 481 381 454 409 427 437 412 453 436 429 464 402 491 374 519 347 538 328 528 338 501 366 474 394 447 423 420 451 404 467 429 443 456 415 484 388 512 360 541 331 520 352 493 380 466 408 439 436 412 464 398 478 421 456 448 428 476 401 504 374 532 346 542 336 513 365 486 393 458 421 431 449 404 477 398 482 412 468 440 441 468 414 496 387 524 360 545 340 533 351 506 379 478 407 451 434 423 462 400 485 404 481 432 454 460 427 489 400 517 373 545 346 547 344 526 365 498 392 470 420 443 448 415 475 402 488 424 467 452 440 481 413 509 386 537 359 549 347 546 351 518 378 490 406 463 433 435 461 407 488 404 492 416 480 444 453 473 426 501 399 529 373 549 354 538 365 511 392 483 419 455 447 427 474 406 495 437 466 465 440 493 413 522 386 544 364 531 378 503 405 475 433 448 460 420 488 409 499 429 480 457 453 486 426 514 399 535 379 523 391 495 419 468 446 440 474 411 502 421 493 450 466 478 440 506 413 526 394 515 405 488 432 460 460 433 487 414 506 442 480 470 453 499 426 517 409 508 418 480 446 453 473 425 501 416 510 434 493 463 466 491 440 508 424 500 432 473 459 445 487 418 514 427 506 455 480 484 453 499 439 493 445 465 473 438 501 420 518 447 493 476 467 489 454 485 459 458 487 430 514 423 522 440 507 468 480 480 469 478 472 450 500 424 525 431 519 460 493 478 478 470 486 441 512 425 527 451 505 478 483 462 499 433 526 428 531 443 518 473 493 480 487 454 512 430 535 435 531 464 506 482 490 474 498 446 526 432 539 456 518 484 494 466 512 438 539 435 543 448 531 477 506 486 497 458 525 437 547 440 544 469 518 488 501 478 511 451 539 439 551 461 531 490 504 471 525 442 555 453 544 481 518 492 508 463 538 444 559 473 531 494 511 483 524 456 552 446 562 466 544 494 518 497 515 476 537 448 566 458 557 486 531 499 519 496 523 468 551 451 569 479 544 502 523 488 537 461 565 453 573 470 557 499 531 504 527 481 550 455 577 462 570 491 544 506 531 501 536 473 564 457 580 483 557 509 535 493 550 466 577 459 584 475 570 504 544 511 539 486 564 461 587 467 583 496 557 513 542 506 550 478 577 464 592 488 570 515 545 498 563 471 591 466 596 480 583 509 557 517 549 490 576 468 600 472 596 500 570 519 552 510 562 483 590 470 604 492 583 521 555 502 575 476 604 470 610 485 596 512 568 522 558 495 589 469 617 463 624 478 609 505 582 525 562 514 574 488 602 461 631 450 643 470 623 498 595 527 566 507 587 480 616 454 644 438 661 463 636 491 609 518 581 530 570 527 573 500 601 473 629 446 658 427 678 455 650 483 622 511 595 532 574 520 587 493 615 466 643 439 671 416 695 420 691 448 663 476 636 503 608 531 581 534 578 512 600 485 628 458 656 431 684 406 710 412 704 440 676 468 649 496 622 524 594 537 582 532 586 505 614 478 642 450 670 423 697 396 725 405 717 432 690 460 662 488 635 516 608 539 585 525 600 498 627 470 655 443 683 416 711 392 735 397 730 425 703 453 676 481 648 509 621 537 594 542 589 518 613 490 641 463 669 436 697 408 724 394 739 417 716 445 689 473 662 501 635 529 607 544 593 538 599 510 627 483 655 456 683 428 710 401 738 396 743 410 730 438 703 466 675 494 648 521 621 546 597 530 613 503 641 476 668 448 696 421 724 399 747 402 743 430 716 458 689 486 662 514 634 542 607 548 601 523 626 496 654 468 682 441 710 414 738 401 751 423 730 451 702 478 675 506 648 534 620 550 604 543 612 516 640 488 668 461 696 434 724 407 752 404 754 415 743 443 716 471 688 499 661 527 634 553 608 536 626 508 654 481 682 454 709 427 737 406 758 436 729 464 702 491 675 519 647 547 620 555 612 528 639 501 667 474 695 447 723 419 751 409 762 428 743 456 715 484 688 512 661 539 633 557 616 558 617 537 646 516 675 495 705 474 734 453 763 484 782 515 801 505 807 498 811 513 797 484 818 503 800 510 793 493 807 472 823 482 814 508 790 502 795 472 820 463 828 490 801 506 786 481 808 455 831 471 815 498 787 503 782 489 795 460 821 451 829 478 801 501 778 497 782 468 808 449 826 459 816 486 788 499 774 476 795 447 822 466 802 493 774 497 770 484 782 455 809 445 819 473 788 495 766 491 769 463 796 443 815 454 803 480 775 492 761 471 782 443 809 440 812 461 789 487 761 490 757 478 769 450 796 438 808 442 804 468 776 488 753 486 756 458 783 436 805 449 791 475 762 486 749 465 770 438 797 434 801 455 777 481 748 484 745 473 756 445 784 432 798 436 792 462 763 482 741 453 770 429 794 443 778 469 749 480 736 460 757 433 785 427 791 451 765 477 736 489 723 468 744 440 772 424 787 431 780 458 752 485 723 496 713 476 731 448 758 422 784 439 766 466 738 493 711 504 700 484 719 456 745 427 772 419 780 446 753 474 725 501 697 514 685 492 705 464 732 435 759 417 776 426 767 454 739 481 712 509 684 523 670 500 692 471 719 443 746 415 772 434 753 462 726 489 699 517 671 532 656 508 679 479 706 451 732 422 759 413 768 415 766 441 740 469 713 497 685 525 658 541 643 516 666 487 693 459 719 430 746 410 764 421 754 449 727 477 700 505 672 533 645 550 630 524 653 495 680 467 706 438 732 408 760 429 740 457 713 485 686 513 659 542 633 558 617 556 619 558 617 539 647 519 677 500 707 480 737 498 770 516 802 485 817 453 832 432 799 412 767 391 734 412 703 433 671 453 640 474 608 455 576 436 544 416 511 397 479 417 446 436 413 456 380 475 347 457 317 438 287 420 257 401 227 419 196 436 165 454 134 471 103 508 103 544 103 527 134 509 165 492 196 474 227 494 258 513 289 533 319 552 350 533 382 514 415 494 447 475 479 496 514 517 548 537 583 558 617 537 583 517 548 496 514 475 479 494 447 514 415 533 382 552 350 533 319 513 289 494 258 474 227 492 196 509 165 527 134 544 103 508 103 471 103 454 134 436 165 419 196 401 227 420 257 438 287 457 317 475 347 456 380 436 413 417 446 397 479 416 511 436 544 455 576 474 608 453 640 433 671 412 703 391 734 412 767 432 799 453 832 485 817 516 802 498 770 480 737 500 707 519 677 539 647 558 617 556 619 558 617 " />
</svg>
