<?xml version="1.0" encoding="UTF-8" standalone="no"?>
<svg xmlns="http://www.w3.org/2000/svg" version="1.1" width="833" height="967">
    <path id="Block1Jump0"
        fill="none"
        stroke="#FFC864"
		stroke-width="2px"
		d="M 809 928 L 806 928 809 928 789 928 769 928 749 928 729 928 709 928 690 928 670 928 650 928 630 928 610 928 590 928 570 928 567 908 563 888 560 868 556 849 553 829 550 809 546 789 543 769 540 749 536 729 533 710 529 690 526 670 523 650 519 630 516 610 513 590 509 571 506 551 502 531 499 511 490 530 482 549 473 568 464 587 455 606 447 625 438 644 429 663 420 682 412 702 403 721 394 740 385 759 377 778 368 797 359 816 350 835 342 854 333 873 325 854 317 835 310 816 302 797 294 779 286 760 278 741 271 722 263 703 255 684 247 665 239 646 232 627 224 608 216 590 208 571 200 552 193 533 185 514 177 495 173 515 169 536 165 556 161 577 157 597 153 618 149 638 145 658 141 679 137 699 132 720 128 740 124 761 120 781 116 801 112 822 108 842 104 863 100 883 96 904 92 924 82 936 71 948 55 946 38 944 24 930 22 918 19 905 22 886 24 868 27 849 30 828 34 808 37 787 41 766 44 746 48 725 51 704 55 684 58 663 61 642 65 622 68 601 72 580 75 560 79 539 82 518 85 498 89 477 92 456 96 436 99 415 103 395 106 374 110 353 113 333 116 312 120 291 123 271 127 250 130 229 134 209 137 188 140 167 144 147 147 126 151 105 154 85 158 64 161 43 165 23 168 2 177 20 186 38 196 56 205 74 214 93 223 111 232 129 242 147 251 165 260 183 269 201 278 219 288 238 297 256 306 274 315 292 324 310 333 328 343 346 352 364 361 382 370 401 379 419 389 437 398 455 407 473 416 455 425 437 435 419 444 400 453 382 462 364 471 346 481 328 490 310 499 291 508 273 517 255 527 237 536 219 545 201 554 183 563 164 572 146 582 128 591 110 600 92 609 74 618 55 628 37 637 19 646 1 650 22 653 42 657 63 660 83 664 104 668 125 671 145 675 166 679 186 682 207 686 228 689 248 693 269 697 289 700 310 704 331 708 351 711 372 715 392 718 413 722 434 726 454 729 475 733 495 737 516 740 537 744 557 747 578 751 598 755 619 758 640 762 660 766 681 769 701 773 722 776 743 780 763 784 784 787 804 791 825 795 846 798 866 802 887 805 907 809 928 805 907 802 887 798 866 795 846 791 825 787 804 784 784 780 763 776 743 773 722 769 701 766 681 762 660 758 640 755 619 751 598 747 578 744 557 740 537 737 516 733 495 729 475 726 454 722 434 718 413 715 392 711 372 708 351 704 331 700 310 697 289 693 269 689 248 686 228 682 207 679 186 675 166 671 145 668 125 664 104 660 83 657 63 653 42 650 22 646 1 637 19 628 37 618 55 609 74 600 92 591 110 582 128 572 146 563 164 554 183 545 201 536 219 527 237 517 255 508 273 499 291 490 310 481 328 471 346 462 364 453 382 444 400 435 419 425 437 416 455 407 473 398 455 389 437 379 419 370 401 361 382 352 364 343 346 333 328 324 310 315 292 306 274 297 256 288 238 278 219 269 201 260 183 251 165 242 147 232 129 223 111 214 93 205 74 196 56 186 38 177 20 168 2 165 22 161 43 158 63 154 84 151 104 148 125 144 145 141 165 137 186 134 206 131 227 127 247 124 267 120 288 117 308 114 329 110 349 107 370 103 390 100 410 97 431 93 451 90 472 87 492 83 512 80 533 76 553 73 574 70 594 66 615 63 635 59 655 56 676 53 696 49 717 46 737 42 757 39 778 36 798 32 819 29 839 25 860 22 880 21 893 19 905 22 918 24 930 38 944 55 946 71 948 82 936 92 924 96 904 100 883 104 863 108 842 112 822 116 801 120 781 124 761 128 740 132 720 137 699 141 679 145 658 149 638 153 618 157 597 161 577 165 556 169 536 173 515 177 495 185 514 193 533 200 552 208 571 216 590 224 608 232 627 239 646 247 665 255 684 263 703 271 722 278 741 286 760 294 779 302 797 310 816 317 835 325 854 333 873 342 854 350 835 359 816 368 797 377 778 385 759 394 740 403 721 412 702 420 682 429 663 438 644 447 625 455 606 464 587 473 568 482 549 490 530 499 511 502 531 506 551 509 571 513 590 516 610 519 630 523 650 526 670 529 690 533 710 536 729 540 749 543 769 546 789 550 809 553 829 556 849 560 868 563 888 567 908 570 928 590 928 610 928 630 928 650 928 670 928 690 928 709 928 729 928 749 928 769 928 789 928 809 928 806 928 809 928 " />
    <path id="Block2Jump1"
        fill="none"
        stroke="#FFC8C8"
		stroke-width="2px"
		d="M 811 928 L 810 926 811 928 807 907 804 887 800 866 797 846 793 825 789 805 786 784 782 763 778 743 775 722 771 702 768 681 764 660 760 640 757 619 753 599 749 578 746 558 742 537 739 516 735 496 731 475 728 455 724 434 720 414 717 393 713 372 710 352 706 331 702 311 699 290 695 270 691 249 688 228 684 208 681 187 677 167 673 146 670 125 666 105 662 84 659 64 655 43 652 23 648 2 639 20 630 38 620 56 611 75 602 93 593 111 584 129 574 147 565 165 556 184 547 202 538 220 529 238 519 256 510 274 501 292 492 311 483 329 473 347 464 365 455 383 446 401 437 420 427 438 418 456 409 474 400 456 391 438 381 420 372 402 363 383 354 365 345 347 335 329 326 311 317 293 308 275 299 257 290 239 280 220 271 202 262 184 253 166 244 148 234 130 225 112 216 94 207 75 198 57 188 39 179 21 170 3 167 23 163 44 160 64 156 85 153 105 150 125 146 146 143 166 139 187 136 207 133 227 129 248 126 268 122 289 119 309 116 329 112 350 109 370 105 391 102 411 99 431 95 452 92 472 89 492 85 513 82 533 78 554 75 574 72 594 68 615 65 635 61 656 58 676 55 696 51 717 48 737 44 758 41 778 38 798 34 819 31 839 27 860 24 880 23 893 21 906 24 919 26 931 40 945 57 947 73 949 84 937 95 925 99 905 103 884 107 864 111 843 115 823 119 802 123 782 127 762 131 741 135 721 140 700 144 680 148 659 152 639 156 619 160 598 164 578 168 557 172 537 176 516 180 496 188 515 196 534 203 553 211 572 219 591 227 609 234 628 242 647 250 666 258 685 265 704 273 723 281 742 289 761 296 780 304 798 312 817 320 836 327 855 335 874 344 855 352 836 361 817 370 798 379 779 387 760 396 741 405 722 414 703 422 683 431 664 440 645 449 626 457 607 466 588 475 569 484 550 492 531 501 512 504 532 508 552 511 571 515 591 518 611 521 631 525 651 528 670 531 690 535 710 538 730 542 750 545 770 548 789 552 809 555 829 558 849 562 869 565 888 569 908 572 928 592 928 612 928 632 928 651 928 671 928 691 928 711 928 731 928 751 928 770 928 790 928 810 928 790 928 770 928 751 928 731 928 711 928 691 928 671 928 651 928 632 928 612 928 592 928 572 928 569 908 565 888 562 869 558 849 555 829 552 809 548 789 545 770 542 750 538 730 535 710 531 690 528 670 525 651 521 631 518 611 515 591 511 571 508 552 504 532 501 512 492 531 484 550 475 569 466 588 457 607 449 626 440 645 431 664 422 683 414 703 405 722 396 741 387 760 379 779 370 798 361 817 352 836 344 855 335 874 327 855 320 836 312 817 304 798 296 780 289 761 281 742 273 723 265 704 258 685 250 666 242 647 234 628 227 609 219 591 211 572 203 553 196 534 188 515 180 496 176 516 172 537 168 557 164 578 160 598 156 619 152 639 148 659 144 680 140 700 135 721 131 741 127 762 123 782 119 802 115 823 111 843 107 864 103 884 99 905 95 925 84 937 73 949 57 947 40 945 26 931 24 919 21 906 24 887 26 869 29 850 32 829 36 809 39 788 43 767 46 747 50 726 53 705 57 685 60 664 63 643 67 623 70 602 74 581 77 561 81 540 84 519 87 499 91 478 94 457 98 437 101 416 105 396 108 375 112 354 115 334 118 313 122 292 125 272 129 251 132 230 136 210 139 189 142 168 146 148 149 127 153 106 156 86 160 65 163 44 167 24 170 3 179 21 188 39 198 57 207 75 216 94 225 112 234 130 244 148 253 166 262 184 271 202 280 220 290 239 299 257 308 275 317 293 326 311 335 329 345 347 354 365 363 383 372 402 381 420 391 438 400 456 409 474 418 456 427 438 437 420 446 401 455 383 464 365 473 347 483 329 492 311 501 292 510 274 519 256 529 238 538 220 547 202 556 184 565 165 574 147 584 129 593 111 602 93 611 75 620 56 630 38 639 20 648 2 652 23 655 43 659 64 662 84 666 105 670 125 673 146 677 167 681 187 684 208 688 228 691 249 695 270 699 290 702 311 706 331 710 352 713 372 717 393 720 414 724 434 728 455 731 475 735 496 739 516 742 537 746 558 749 578 753 599 757 619 760 640 764 660 768 681 771 702 775 722 778 743 782 763 786 784 789 805 793 825 797 846 800 866 804 887 807 907 811 928 810 928 811 928 810 928 " />
    <path id="Block3Jump2"
        fill="none"
        stroke="#70BC1F"
		stroke-width="2px"
		d="M 707 662 L 706 661 687 636 669 611 650 586 631 561 644 533 657 506 669 478 682 450 664 428 647 406 629 383 611 361 622 336 632 310 643 285 653 259 632 262 610 265 598 295 585 325 575 344 567 365 584 387 601 409 618 430 635 452 623 481 610 510 598 539 585 568 603 592 620 615 638 639 655 662 642 690 630 718 617 745 604 773 619 795 635 816 650 838 665 859 692 856 718 852 703 831 688 810 673 789 658 768 670 742 683 715 695 689 707 662 690 685 674 707 657 730 640 752 646 779 653 806 659 832 665 859 681 857 664 842 648 827 631 812 618 792 605 771 628 792 650 813 673 834 695 855 711 853 691 835 671 816 650 798 630 779 610 761 615 749 632 765 649 781 666 797 684 812 700 828 684 805 667 781 644 760 620 738 625 727 643 744 661 760 667 749 649 733 631 716 636 705 654 721 672 737 677 727 659 711 641 694 646 682 664 699 682 716 688 704 670 688 652 671 656 662 649 652 671 673 692 693 698 682 676 662 654 642 632 621 610 601 598 585 585 568 586 563 609 584 633 606 656 627 680 649 703 670 707 662 689 639 671 616 652 593 634 570 616 547 628 520 640 494 652 467 637 441 621 414 612 392 604 370 595 348 610 326 624 303 639 281 653 258 649 270 638 261 624 263 644 282 639 294 625 280 610 266 605 278 620 292 635 305 630 317 615 304 599 290 595 301 610 315 625 328 620 340 605 326 589 312 585 323 600 337 615 351 611 361 619 371 600 353 580 335 575 347 598 368 620 388 643 409 665 429 682 450 679 458 657 438 635 418 614 398 592 378 570 358 567 365 584 387 607 408 629 428 652 449 674 469 669 480 648 461 627 441 635 452 631 462 647 477 663 491 659 502 643 488 627 473 621 484 637 499 653 513 649 525 633 510 617 495 612 507 628 522 643 536 638 548 622 534 606 519 601 530 617 545 633 559 631 561 646 581 661 600 639 580 618 561 596 541 591 552 612 572 634 591 655 611 677 630 698 650 707 662 713 661 691 642 668 623 646 603 623 584 624 556 624 527 625 499 631 477 638 455 644 433 630 416 617 398 603 381 611 349 618 317 612 288 606 259 608 259 599 278 588 304 591 298 605 271 611 258 609 264 595 291 582 317 578 326 587 310 601 284 615 258 605 276 591 303 577 329 573 337 582 322 597 296 612 270 619 257 616 262 601 288 587 314 572 341 570 344 576 333 592 307 607 282 622 257 612 274 597 300 581 326 568 348 571 344 587 319 603 294 618 268 626 256 623 261 607 286 591 312 576 337 567 351 581 330 597 305 614 280 630 256 619 273 603 298 587 324 571 349 564 360 576 342 592 317 609 292 626 267 634 255 630 260 614 285 598 310 582 336 566 361 562 367 571 354 588 329 604 304 621 279 637 255 626 272 610 297 593 322 577 348 564 368 566 365 582 341 599 316 616 291 633 266 641 254 638 259 621 284 605 309 588 334 572 359 565 370 577 352 594 328 611 303 628 278 645 254 633 271 617 296 600 321 583 346 566 372 572 364 589 339 606 314 623 290 640 265 648 253 645 258 628 283 612 308 595 333 578 358 567 374 583 351 601 326 618 302 635 277 652 253 640 270 624 295 607 320 590 344 573 369 568 375 578 362 595 338 613 313 630 289 648 264 656 252 653 257 636 282 618 307 601 331 584 356 569 377 572 373 590 349 607 325 625 301 642 276 660 252 648 269 631 294 613 319 596 343 579 368 571 379 584 361 602 336 619 312 637 288 654 263 661 253 659 256 642 281 625 306 608 330 591 355 573 381 579 373 597 348 614 324 631 299 649 275 659 260 654 268 637 293 620 317 603 342 586 367 575 383 591 360 609 336 626 311 644 287 654 273 649 280 632 305 615 329 598 354 581 379 576 385 586 372 604 347 621 323 639 299 649 285 644 292 627 316 610 341 593 366 578 387 581 383 598 359 616 335 634 311 644 296 639 304 622 328 605 353 588 378 579 390 593 371 611 347 629 323 639 308 634 316 617 340 600 365 582 389 581 392 588 382 606 358 624 334 635 320 629 328 612 352 595 377 582 394 600 370 618 346 630 331 624 339 607 364 589 388 584 396 595 382 613 358 625 342 619 351 602 376 586 399 590 393 608 370 621 352 614 363 597 388 588 401 603 381 619 360 609 375 591 400 589 402 597 393 615 369 621 363 603 387 591 404 610 381 622 366 616 374 598 399 593 406 604 392 624 368 611 386 595 408 598 404 617 381 626 370 623 374 605 398 596 411 612 392 628 372 618 386 600 410 598 413 606 404 625 380 630 374 613 398 600 415 619 392 632 377 625 386 608 410 602 418 613 403 634 379 620 397 603 420 608 415 627 392 635 382 633 385 615 409 605 422 621 403 637 384 627 397 609 421 607 424 615 414 634 391 638 386 622 409 608 427 628 403 640 388 634 396 616 420 610 429 622 414 641 389 628 408 612 432 617 425 635 402 643 391 640 395 623 420 614 434 629 413 644 393 635 407 619 432 615 437 624 425 642 401 646 396 630 418 617 438 636 412 647 398 642 406 625 430 618 439 631 424 649 400 637 418 620 442 625 435 643 411 650 402 649 405 632 430 622 444 638 423 652 404 644 417 627 442 624 447 632 434 649 410 652 404 638 428 625 449 627 446 644 421 654 406 649 414 633 440 627 451 639 433 656 408 645 427 629 452 626 456 634 445 650 420 657 410 655 413 640 438 624 463 629 457 646 432 659 412 651 425 634 450 621 471 623 468 640 443 657 419 660 414 646 437 630 462 615 484 618 480 635 455 652 431 662 416 658 424 641 449 625 474 608 499 613 492 630 467 648 442 664 418 653 436 637 461 620 486 604 511 602 514 609 504 626 479 643 454 660 430 666 420 665 423 648 448 632 473 615 498 599 523 595 529 604 516 621 491 638 466 655 441 668 422 660 434 643 460 627 485 611 510 594 535 589 544 599 528 616 503 633 478 650 453 666 428 669 425 655 446 639 472 622 497 606 522 590 547 582 559 595 540 612 515 628 490 645 465 662 440 671 427 666 433 650 458 634 483 617 508 601 534 584 559 580 565 589 552 606 527 623 502 640 477 657 452 672 429 662 445 645 470 629 495 612 520 595 545 579 569 584 563 601 538 618 513 635 489 652 464 669 439 674 432 657 457 640 482 624 507 607 532 590 557 581 571 595 550 613 525 630 501 647 476 664 451 676 434 669 444 652 469 635 494 619 519 602 544 585 569 582 573 590 561 607 537 625 512 642 488 659 463 678 436 664 456 647 481 631 506 614 531 597 555 583 575 585 573 602 549 619 524 637 500 654 475 671 451 680 439 676 443 659 468 642 493 626 518 609 542 592 567 585 577 597 560 614 536 632 511 649 487 666 462 681 441 672 455 655 480 638 505 621 530 603 554 586 579 592 572 609 547 626 523 644 499 661 474 679 450 683 443 667 467 650 492 633 517 616 541 599 566 588 581 604 559 621 535 639 511 656 486 674 462 685 445 679 455 662 479 645 504 628 529 611 553 593 578 590 583 599 571 616 547 634 522 651 498 669 474 688 448 674 467 657 491 640 516 623 541 606 565 591 586 594 583 611 558 629 534 646 510 664 485 681 461 688 452 669 479 652 503 635 528 618 553 601 577 593 588 606 570 623 546 641 521 658 497 676 473 682 464 680 466 664 490 647 515 630 540 613 565 595 591 601 582 618 558 636 533 653 509 670 484 677 476 659 502 642 527 625 552 608 576 597 593 613 570 631 545 648 521 665 496 671 488 669 491 654 514 637 539 620 564 603 589 598 596 608 581 626 557 643 532 660 508 665 502 648 526 632 551 615 576 600 598 603 593 621 569 638 544 655 520 658 516 643 537 627 562 610 587 601 600 615 580 633 556 651 530 638 549 622 574 605 599 603 602 610 592 628 568 645 544 633 561 616 586 604 604 606 602 622 580 641 555 628 573 610 597 605 605 616 591 635 567 640 560 623 585 606 607 610 602 629 579 642 564 635 572 617 596 608 609 623 590 642 566 630 584 612 608 610 612 617 601 635 577 643 567 641 571 624 595 611 614 630 589 644 568 635 582 619 607 614 616 625 600 642 576 646 570 631 594 616 618 620 612 637 588 647 572 642 581 626 606 617 621 632 600 649 575 638 593 622 619 619 624 627 612 644 587 651 577 649 580 634 605 621 626 623 624 640 599 653 580 645 592 629 618 623 629 635 611 652 586 654 582 641 604 624 631 630 623 647 598 656 584 652 591 636 616 626 633 642 610 658 587 648 603 632 629 628 635 637 622 654 597 660 589 658 592 643 615 629 637 632 633 649 609 662 592 655 602 639 627 631 639 644 621 664 594 650 614 633 641 639 632 657 608 665 597 662 601 646 626 634 644 652 620 667 599 658 613 641 638 636 646 647 632 664 608 669 602 653 625 638 648 641 643 659 619 671 604 665 613 648 638 640 650 654 631 672 606 660 625 643 650 641 653 649 643 666 618 674 608 671 611 655 637 643 655 661 630 675 610 666 623 651 649 645 658 656 642 673 617 677 611 662 635 646 661 651 654 668 629 678 614 673 622 657 647 646 667 647 665 663 641 680 616 669 634 653 659 642 677 659 653 675 628 681 619 680 621 664 646 648 671 636 691 638 688 654 665 671 640 683 621 676 633 660 658 643 683 630 704 632 701 649 677 666 652 683 627 685 624 671 645 655 670 638 695 624 716 627 713 644 688 661 664 678 639 687 626 683 632 666 657 650 682 633 707 617 731 622 725 639 700 656 675 673 651 689 628 678 644 662 669 645 694 628 719 611 745 617 737 634 712 651 687 668 663 685 638 691 631 674 656 657 681 640 706 624 731 607 756 605 758 612 749 629 724 646 699 663 675 681 650 692 633 686 643 669 668 652 693 635 718 619 743 602 768 599 772 607 760 624 736 641 711 658 686 675 662 693 635 680 655 663 679 647 704 630 729 613 754 598 777 601 772 619 747 636 723 653 698 670 673 687 649 695 637 692 642 675 666 658 691 641 716 624 741 607 766 599 778 613 759 630 734 647 710 665 685 682 661 697 640 687 654 670 678 653 703 636 727 618 752 600 779 606 770 624 745 642 721 659 697 677 672 694 648 699 642 682 665 665 690 648 715 631 739 613 764 602 781 619 757 636 733 654 708 671 684 689 659 700 644 694 652 677 677 660 702 643 727 626 751 609 776 604 783 614 769 631 744 649 720 666 696 683 671 702 645 689 664 672 689 655 714 638 738 621 763 605 785 609 781 626 756 643 732 661 707 678 683 695 658 703 647 700 651 684 676 667 701 650 726 633 750 616 775 607 788 621 768 638 744 656 719 673 695 690 670 705 649 695 663 678 688 662 713 645 738 628 762 611 787 609 790 616 780 633 755 651 731 668 706 685 682 702 657 706 651 690 675 673 700 657 725 640 749 623 774 610 794 612 792 628 767 646 743 663 718 680 694 697 669 708 653 702 662 685 687 669 712 652 737 635 761 618 786 612 796 624 779 641 755 658 730 675 705 692 681 710 656 697 674 681 699 664 724 647 749 630 773 614 798 619 791 636 767 653 742 670 717 687 693 704 668 711 658 709 661 693 686 676 711 659 736 642 761 626 786 616 800 631 779 648 754 665 729 682 705 700 680 713 661 702 683 692 705 681 727 669 749 658 771 646 793 667 809 687 825 708 841 728 857 725 852 726 857 723 849 723 858 723 848 720 858 722 846 716 859 720 844 713 859 717 847 718 842 712 855 710 859 717 840 715 842 707 860 710 850 715 838 705 857 703 860 714 836 709 845 700 861 704 852 712 834 698 859 696 861 707 839 711 832 702 847 693 862 697 854 709 831 707 835 689 862 701 841 708 830 695 848 686 862 690 855 706 827 700 836 682 863 694 843 705 824 688 849 678 863 682 856 698 830 703 822 692 837 674 864 687 844 701 819 697 825 680 850 670 865 675 857 691 832 700 817 685 838 668 863 666 866 680 845 696 820 699 815 691 827 673 851 663 865 668 858 684 833 697 813 678 839 661 863 672 846 689 821 695 810 683 827 666 852 660 861 677 834 694 807 688 816 671 840 659 859 666 847 682 822 692 805 676 828 659 853 657 857 670 835 686 810 690 803 681 817 664 841 655 855 659 848 675 823 689 801 686 805 669 829 653 853 663 836 679 811 687 798 674 818 657 842 651 850 668 824 685 796 678 806 662 830 650 848 656 837 672 812 683 794 666 819 648 846 661 825 676 800 681 791 671 807 655 832 647 843 650 839 665 813 679 789 676 795 659 820 645 841 654 827 669 801 678 786 664 808 648 833 644 839 658 814 673 788 676 783 668 796 652 821 642 836 647 828 662 802 674 780 672 783 656 809 640 834 651 816 666 790 673 778 661 797 645 822 639 831 655 803 671 776 665 785 649 810 637 829 644 817 659 791 669 774 653 798 637 823 635 826 648 805 663 779 667 772 658 786 641 811 633 824 637 818 652 792 666 769 663 774 646 799 631 821 641 806 657 780 667 763 651 787 634 812 630 819 645 794 661 769 672 751 656 775 639 800 628 816 634 807 650 782 667 757 677 740 661 764 644 788 626 814 638 795 655 770 672 745 683 728 666 752 649 776 632 801 624 812 626 808 643 783 660 758 677 733 688 717 671 740 654 765 636 789 621 810 631 796 648 771 665 746 682 722 692 706 677 728 659 753 642 777 624 802 619 808 636 784 653 759 670 735 688 710 697 697 682 717 665 741 647 765 629 790 618 805 624 797 641 772 659 748 676 723 693 699 701 688 688 706 670 730 652 754 634 778 616 803 629 785 647 760 664 736 682 712 699 688 705 679 694 694 676 718 658 742 640 766 622 790 614 800 617 797 634 773 652 749 670 725 688 700 705 676 708 673 700 683 682 707 664 731 646 755 634 770 640 762 658 737 675 713 693 689 711 664 713 661 701 688 689 714 676 741 664 767 680 790 696 812 712 835 728 857 696 862 663 866 647 843 630 820 614 797 597 774 610 746 623 719 636 691 649 663 631 640 614 616 596 593 578 569 591 540 604 512 616 483 629 454 612 432 595 410 577 387 560 365 572 339 583 312 595 286 606 259 635 255 663 251 652 278 641 306 629 333 618 360 636 382 653 405 671 427 688 449 679 472 669 494 659 516 648 538 638 560 657 585 676 611 694 636 713 661 694 636 676 611 657 585 638 560 648 538 659 516 669 494 679 472 688 449 671 427 653 405 636 382 618 360 629 333 641 306 652 278 663 251 635 255 606 259 595 286 583 312 572 339 560 365 577 387 595 410 612 432 629 454 616 483 604 512 591 540 578 569 596 593 614 616 631 640 649 663 636 691 623 719 610 746 597 774 614 797 630 820 647 843 663 866 696 862 728 857 712 835 696 812 680 790 664 767 676 741 689 714 701 688 713 661 " />
    <path id="Block4Jump3"
        fill="none"
        stroke="#F64A8A"
		stroke-width="2px"
		d="M 786 909 L 786 907 786 909 832 945 784 909 831 939 783 903 830 933 782 897 829 926 781 891 828 920 780 885 827 914 779 879 825 908 778 873 824 902 777 866 823 896 776 860 822 889 775 854 821 883 774 848 820 877 773 842 819 871 772 836 818 865 771 830 817 859 770 824 816 853 769 818 815 847 768 812 813 840 767 806 812 834 766 800 811 828 765 794 810 822 764 788 809 816 763 782 808 810 762 776 807 804 761 771 806 798 760 765 805 792 759 759 804 786 758 753 803 780 757 747 802 774 756 741 801 768 755 735 799 762 754 729 798 756 753 723 797 750 751 717 796 744 750 711 795 738 749 705 794 732 748 700 793 726 747 694 792 720 746 688 791 714 745 682 790 708 744 676 789 702 743 670 788 696 742 664 787 690 741 659 786 684 740 653 785 678 739 647 784 672 738 641 782 666 737 635 781 660 736 629 780 654 735 624 779 649 734 618 778 643 733 612 777 637 732 606 776 631 731 600 775 625 730 595 774 619 729 589 773 613 728 583 772 607 727 577 771 602 726 572 770 596 725 566 769 590 724 560 768 584 724 555 767 578 723 550 766 573 722 544 765 567 721 539 764 561 720 533 763 556 719 528 762 550 718 523 761 544 717 517 760 539 716 512 760 533 715 507 759 528 714 501 758 522 713 496 757 517 712 491 756 511 712 486 755 506 711 481 754 500 710 475 753 495 709 470 753 490 708 465 752 484 707 460 751 479 706 454 750 473 705 449 749 468 704 444 748 462 703 439 747 457 703 433 746 452 702 428 745 446 701 423 744 441 700 418 743 436 699 413 742 430 698 407 741 425 697 402 740 420 696 397 739 414 695 392 738 409 694 387 737 404 693 382 736 398 693 377 735 393 692 371 734 388 691 366 733 383 690 361 732 377 689 356 732 372 688 351 731 367 687 346 730 362 686 341 729 356 685 336 728 351 684 331 727 346 684 326 726 341 683 321 725 336 682 316 724 331 681 311 723 325 680 306 722 320 679 301 721 315 678 296 720 310 677 291 719 305 677 286 719 300 676 281 718 295 675 276 717 289 674 271 716 284 673 266 715 279 672 261 714 274 671 256 713 269 670 251 712 264 670 246 711 259 669 242 710 254 668 237 709 249 667 232 709 244 666 227 708 239 665 222 707 234 664 217 706 229 664 212 705 224 663 208 704 219 662 203 703 214 661 198 702 209 660 193 701 204 659 188 701 199 658 183 700 194 658 179 699 189 657 174 698 184 656 169 697 179 655 164 696 174 654 159 695 170 653 155 694 165 653 150 693 160 652 145 693 155 651 140 692 150 650 136 691 145 649 131 690 140 648 126 689 135 648 122 688 131 647 117 687 126 646 112 687 121 645 107 686 116 644 103 685 111 643 98 684 106 643 94 683 102 642 89 682 97 641 84 682 92 640 80 681 87 639 75 680 83 638 70 679 78 637 66 678 73 637 61 678 68 636 57 677 64 635 52 676 59 634 48 675 54 633 43 674 49 632 39 674 45 631 34 673 40 631 30 672 35 630 25 671 31 629 21 670 26 628 16 670 21 627 12 669 17 626 7 668 12 626 3 667 7 625 0 666 9 623 4 663 13 620 8 661 17 618 12 659 21 616 16 657 25 614 21 655 29 612 25 653 33 610 29 651 37 608 33 649 42 606 37 647 46 604 42 645 50 602 46 642 54 600 50 640 58 598 54 638 62 596 58 636 66 593 62 634 70 591 67 632 74 589 71 630 79 587 75 628 83 585 79 626 87 583 83 623 91 581 88 621 95 579 92 619 99 577 96 617 103 575 100 615 108 573 105 613 112 570 109 611 116 568 113 609 120 566 117 606 124 564 121 604 128 562 126 602 132 560 130 600 137 558 134 598 141 556 138 596 145 554 143 594 149 551 147 592 153 549 151 589 158 547 155 587 162 545 160 585 166 543 164 583 170 541 168 581 174 539 172 579 178 537 177 577 183 534 181 574 187 532 185 572 191 530 189 570 195 528 194 568 200 526 198 566 204 523 202 564 208 521 207 562 212 519 211 560 216 517 215 557 221 515 219 555 225 513 224 553 229 510 228 551 233 508 232 549 238 506 236 547 242 504 241 545 246 502 245 542 250 499 249 540 255 497 254 538 259 495 258 536 263 493 262 534 267 491 267 532 272 488 271 529 276 486 275 527 280 484 280 525 284 482 284 523 288 480 288 521 293 478 292 519 297 475 297 517 301 473 301 514 306 471 305 512 310 469 310 510 314 467 314 508 318 464 319 506 323 462 323 503 327 460 327 501 331 458 332 499 335 456 336 497 340 453 340 495 344 451 345 493 348 449 349 490 353 447 353 488 357 445 358 486 361 442 362 484 366 440 367 482 370 438 371 479 374 436 375 477 379 433 380 475 383 431 384 473 387 429 389 471 391 427 393 468 396 425 397 466 400 422 402 464 405 420 406 462 409 418 411 460 413 416 415 457 418 413 420 455 422 411 424 453 426 409 428 451 431 407 433 449 435 404 437 447 439 402 442 444 444 400 446 442 448 398 451 440 453 396 455 438 457 394 459 436 462 392 464 434 466 390 468 432 471 387 473 430 475 385 477 428 477 383 474 426 473 381 470 423 469 378 465 421 464 376 461 419 460 374 457 417 455 372 452 415 451 370 448 412 446 368 444 410 442 365 439 408 437 363 435 406 433 361 430 404 428 359 426 401 424 357 422 399 419 355 417 397 415 353 413 395 411 350 409 393 406 348 404 391 402 346 400 388 397 344 396 386 393 342 391 384 388 340 387 382 384 338 383 380 380 335 378 378 375 333 374 375 371 331 370 373 366 329 365 371 362 327 361 369 358 325 357 367 353 323 352 365 349 321 348 362 344 319 344 360 340 316 339 358 336 314 335 356 331 312 331 354 327 310 327 352 323 308 322 350 318 306 318 347 314 304 314 345 310 302 309 343 305 300 305 341 301 298 301 339 297 295 297 337 292 293 292 335 288 291 288 332 284 289 284 330 279 287 280 328 275 285 275 326 271 283 271 324 266 281 267 322 262 279 263 320 258 277 258 318 253 275 254 316 249 272 250 313 245 270 246 311 240 268 241 309 236 266 237 307 232 264 233 305 228 262 229 303 223 260 224 300 219 257 220 298 215 255 216 296 210 253 212 294 206 251 208 292 202 249 203 290 198 247 199 288 193 245 195 286 189 242 191 283 185 240 186 281 180 238 182 279 176 236 178 277 172 234 174 275 168 232 170 273 163 230 165 271 159 228 161 268 155 225 157 266 151 223 153 264 146 221 149 262 142 219 144 260 138 217 140 258 134 215 136 255 129 213 132 253 125 211 128 251 121 208 124 249 117 206 119 247 113 204 115 245 108 202 111 243 104 200 107 240 100 198 103 238 96 196 99 236 91 194 95 234 87 192 90 232 83 189 86 230 79 187 82 228 75 185 78 225 70 183 74 223 66 181 70 221 62 179 66 219 58 177 62 217 54 175 57 215 49 173 53 213 45 171 49 210 41 168 45 208 37 166 41 206 33 164 37 204 29 162 33 201 25 160 29 199 20 157 25 197 16 155 21 195 12 153 17 192 8 151 13 190 4 149 9 188 0 148 10 187 5 147 14 186 10 146 19 186 14 145 23 185 19 145 28 184 24 144 32 183 28 143 37 183 33 142 42 182 37 141 46 181 42 141 51 180 47 140 55 180 51 139 60 179 56 138 64 178 60 138 69 177 65 137 73 177 70 136 78 176 74 135 82 175 79 135 87 174 84 134 92 174 88 133 96 173 93 132 101 172 97 132 105 171 102 131 110 170 106 130 114 170 111 129 119 169 116 129 123 168 120 128 128 167 125 127 132 167 129 126 137 166 134 126 141 165 139 125 146 164 143 124 150 164 148 123 155 163 152 123 159 162 157 122 164 161 161 121 168 161 166 120 173 160 170 120 177 159 175 119 182 158 180 118 186 158 184 117 191 157 189 117 195 156 193 116 200 155 198 115 204 155 202 114 209 154 207 114 213 153 211 113 218 153 216 112 222 152 220 111 226 151 225 111 231 150 230 110 235 150 234 109 240 149 239 108 244 148 243 108 249 147 248 107 253 147 252 106 258 146 257 105 262 145 261 105 267 144 266 104 271 144 270 103 275 143 275 102 280 142 279 102 284 141 284 101 289 141 288 100 293 140 293 99 298 139 297 99 302 138 302 98 306 138 306 97 311 137 311 97 315 136 315 96 320 135 320 95 324 135 324 94 329 134 329 94 333 133 333 93 337 132 338 92 342 132 342 91 346 131 347 91 351 130 351 90 355 130 356 89 360 129 360 88 364 128 365 88 368 127 369 87 373 127 374 86 377 126 378 85 382 125 382 85 386 124 387 84 390 124 391 83 395 123 396 83 399 122 400 82 404 121 405 81 408 121 409 80 412 120 414 80 417 119 418 79 421 119 423 78 425 118 427 77 430 117 432 77 434 116 436 76 439 116 440 75 443 115 445 74 447 114 449 74 452 113 454 73 456 113 458 72 461 112 463 72 465 111 467 71 469 110 472 70 474 110 476 69 478 109 480 69 482 108 485 68 487 108 489 67 491 107 494 66 496 106 498 66 500 105 503 65 504 105 507 64 509 104 512 64 513 103 516 63 517 102 520 62 522 102 525 61 526 101 529 61 530 100 534 60 535 100 538 59 539 99 543 58 543 98 547 58 548 97 551 57 552 97 556 56 557 96 560 56 561 95 565 55 565 94 569 54 570 94 573 53 574 93 578 53 578 92 582 52 583 92 587 51 587 91 591 50 591 90 596 50 596 89 600 49 600 89 604 48 604 88 609 48 609 87 613 47 613 86 618 46 617 86 622 45 622 85 626 45 626 84 631 44 630 84 635 43 635 83 640 42 639 82 644 42 643 81 648 41 648 81 653 40 652 80 657 40 656 79 662 39 661 78 666 38 665 78 670 37 669 77 675 37 674 76 679 36 678 75 684 35 682 75 688 35 687 74 692 34 691 73 697 33 695 72 701 32 700 72 706 32 704 71 710 31 708 70 714 30 713 69 719 29 717 69 723 29 721 68 728 28 726 67 732 27 730 66 736 27 734 65 741 26 738 65 745 25 743 64 749 24 747 63 754 24 751 62 758 23 756 62 763 22 760 61 767 21 764 60 771 21 769 59 776 20 773 59 780 19 777 58 785 19 782 57 789 18 786 57 793 17 790 56 798 16 795 55 802 16 799 54 807 15 803 54 811 14 808 53 815 14 812 52 820 13 816 52 824 12 821 51 828 11 825 50 833 11 829 49 837 10 834 49 842 9 838 48 846 9 843 47 850 8 847 47 855 7 851 46 859 7 856 45 864 6 860 44 868 5 864 44 872 4 869 43 877 4 873 42 881 3 877 42 885 3 882 41 888 2 886 41 892 2 891 40 895 1 895 40 899 1 899 40 902 0 904 39 906 0 908 39 908 1 913 40 910 2 917 40 912 4 921 41 913 5 926 41 915 6 930 42 917 7 934 42 919 8 939 43 921 10 943 44 922 13 946 45 923 16 949 45 923 19 953 46 924 22 956 47 925 25 959 47 925 28 963 48 926 32 964 50 926 37 965 51 927 41 965 52 927 46 965 53 927 50 966 55 927 55 966 56 928 59 967 58 928 64 967 59 928 68 966 60 928 72 965 62 928 77 963 63 928 81 962 63 928 85 960 63 928 89 958 63 928 93 956 64 927 96 952 66 925 99 949 68 923 101 945 70 920 104 942 72 918 107 938 74 916 110 935 76 914 111 931 77 910 112 926 78 905 113 922 79 901 114 917 79 897 115 912 80 892 116 908 81 888 117 903 82 884 118 899 83 880 119 894 84 875 120 890 84 871 120 885 85 867 121 881 86 863 122 877 87 859 123 872 88 854 124 868 89 850 125 863 89 846 126 859 90 842 127 854 91 838 128 850 92 833 128 845 93 829 129 841 94 825 130 837 94 821 131 832 95 817 132 828 96 812 133 823 97 808 134 819 98 804 135 815 99 800 135 810 99 796 136 806 100 792 137 801 101 788 138 797 102 783 139 793 103 779 140 788 103 775 141 784 104 771 141 779 105 767 142 775 106 763 143 771 107 759 144 766 107 754 145 762 108 750 146 758 109 746 147 753 110 742 148 749 111 738 148 744 112 734 149 740 112 730 150 736 113 726 151 731 114 722 152 727 115 717 153 723 116 713 154 718 116 709 154 714 117 705 155 710 118 701 156 705 119 697 157 701 120 693 158 697 121 689 159 692 121 684 160 688 122 680 161 683 123 676 161 679 124 672 162 675 124 668 163 670 125 664 164 666 126 660 165 662 127 655 165 657 127 651 166 653 128 647 167 648 129 643 168 644 130 639 169 640 130 634 169 635 131 630 170 631 132 626 171 626 133 622 172 622 133 618 173 618 134 614 173 613 135 609 174 609 135 605 175 604 136 601 176 600 137 597 177 595 138 593 177 591 138 588 178 587 139 584 179 582 140 580 180 578 141 576 181 573 141 571 181 569 142 567 182 564 143 563 183 560 144 559 184 555 144 554 185 551 145 550 186 546 146 546 186 542 147 542 187 538 147 537 188 533 148 533 189 529 149 529 190 524 150 525 190 519 150 520 191 515 151 516 192 510 152 512 193 506 153 507 194 501 153 503 195 497 154 499 195 492 155 494 196 488 156 490 197 483 157 486 198 479 158 485 199 482 159 489 201 486 161 493 203 490 163 497 204 495 164 501 206 499 166 506 208 503 167 510 209 507 169 514 211 512 171 518 213 516 172 523 214 520 174 527 216 525 176 531 218 529 177 535 219 533 179 539 221 538 181 544 223 542 182 548 224 546 184 552 226 550 186 556 228 555 187 561 229 559 189 565 231 563 191 569 233 568 192 573 234 572 194 578 236 576 195 582 238 581 197 586 239 585 199 590 241 589 200 595 243 594 202 599 244 598 204 603 246 602 205 607 248 607 207 612 249 611 209 616 251 615 210 620 253 620 212 625 254 624 214 629 256 628 215 633 258 633 217 637 260 637 219 642 261 641 220 646 263 646 222 650 265 650 224 655 266 654 225 659 268 659 227 663 270 663 229 667 271 668 230 672 273 672 232 676 275 676 234 680 276 681 235 685 278 685 237 689 280 689 239 693 281 694 240 698 283 698 242 702 285 703 244 706 287 707 246 711 288 711 247 715 290 716 249 719 292 720 251 724 293 724 252 728 295 729 254 732 297 733 256 737 298 738 257 741 300 742 259 745 302 746 261 750 304 751 263 754 306 755 265 758 308 760 267 763 309 764 268 767 311 769 270 771 313 773 272 776 315 777 274 780 317 782 276 784 319 786 278 789 320 791 279 793 322 795 281 797 324 800 283 802 326 804 285 806 328 808 287 811 330 813 289 815 332 817 290 819 333 822 292 824 335 826 294 828 337 831 296 833 339 835 298 837 341 840 300 841 343 844 302 846 344 849 303 850 346 853 305 855 348 858 307 859 350 862 309 863 352 867 311 868 354 871 313 872 356 874 314 870 358 870 316 866 360 866 318 862 362 861 320 857 364 857 322 853 366 853 324 849 368 848 326 844 370 844 328 840 372 840 330 835 374 835 332 831 376 831 334 827 377 827 336 822 379 822 338 818 381 818 340 814 383 813 342 809 385 809 344 805 387 805 346 801 389 800 348 796 391 796 350 792 393 792 352 788 395 787 354 783 397 783 356 779 399 779 358 774 401 774 360 770 403 770 362 766 405 766 364 761 407 761 366 757 409 757 368 753 411 753 370 748 413 749 372 744 415 744 374 740 417 740 376 735 419 736 378 731 421 732 380 727 422 727 381 722 424 723 383 718 426 719 385 714 428 715 387 709 430 710 390 705 432 706 392 701 434 702 394 697 435 697 396 692 437 693 398 688 439 689 400 684 441 685 402 679 443 680 404 675 445 676 405 671 447 672 407 666 449 668 409 662 451 663 411 658 453 659 413 654 455 655 415 649 457 651 417 645 459 646 419 641 461 642 421 636 463 638 423 632 465 634 425 628 467 629 427 624 469 625 429 619 471 621 431 615 472 617 433 611 474 612 435 606 476 608 437 602 478 604 439 598 480 600 441 594 482 595 443 589 484 591 445 585 486 587 447 581 488 583 449 577 490 578 451 572 492 574 453 568 494 570 454 564 496 566 456 559 498 561 458 555 500 557 460 551 502 553 462 547 504 548 464 542 506 544 466 538 508 540 468 534 509 536 469 529 511 534 470 525 512 531 471 521 513 528 473 517 514 526 474 512 515 523 475 508 517 521 476 504 517 517 477 503 518 513 477 501 519 509 478 500 520 504 479 498 520 503 480 502 521 507 480 507 522 511 481 511 522 515 482 516 523 519 483 520 524 523 483 525 524 527 484 529 525 531 485 534 526 535 486 538 526 539 486 543 527 543 487 547 528 547 488 551 528 551 489 556 529 555 489 560 530 559 490 565 530 563 491 569 531 567 491 573 532 571 492 578 532 575 493 582 533 579 494 587 534 583 494 591 534 587 495 595 535 591 496 600 536 595 497 604 536 599 497 608 537 603 498 613 538 607 499 617 538 611 500 622 539 615 500 626 540 619 501 630 540 623 502 635 541 627 503 639 542 631 503 644 542 635 504 648 543 639 505 652 544 643 505 657 544 647 506 661 545 651 507 666 546 655 508 670 546 659 508 675 547 663 509 679 548 667 510 684 548 671 511 688 549 675 511 692 550 679 512 697 550 684 513 701 551 688 514 706 552 692 514 710 552 696 515 715 553 700 516 720 554 704 517 724 555 708 518 729 555 712 518 733 556 717 519 738 557 721 520 742 557 725 521 747 558 729 521 752 559 733 522 756 559 738 523 761 560 742 524 766 561 746 525 771 562 750 525 775 562 755 526 780 563 759 527 785 564 763 528 790 565 768 529 794 565 772 529 799 566 776 530 804 567 781 531 809 567 785 532 814 568 790 533 819 569 794 533 824 570 799 534 829 570 803 535 834 571 808 536 839 572 812 537 844 573 817 538 849 574 822 539 854 574 826 539 859 575 831 540 864 576 836 541 869 577 840 542 875 577 845 543 880 578 850 544 885 579 855 545 890 580 859 546 896 581 864 546 901 581 869 547 906 582 874 548 912 583 879 549 917 584 884 550 923 585 889 551 928 586 894 552 934 586 899 553 940 587 904 554 945 587 908 557 947 591 909 563 947 595 909 569 947 599 909 574 947 603 909 579 947 607 909 585 947 610 909 590 947 614 909 595 947 618 909 600 947 621 909 605 947 625 909 610 947 628 909 615 947 632 909 619 947 635 909 624 947 639 909 629 947 642 909 633 947 645 909 638 947 648 909 642 947 652 909 647 947 655 909 651 947 658 909 656 947 661 909 660 947 664 909 665 947 668 909 669 947 671 909 674 947 674 909 678 947 677 909 683 947 680 909 687 947 684 909 692 947 687 909 696 948 690 909 701 948 693 909 705 948 697 909 710 948 700 909 714 948 703 909 719 948 707 909 724 948 710 909 729 948 714 909 734 948 717 909 739 948 721 909 744 948 724 909 749 948 728 909 754 948 732 909 760 948 736 909 765 948 740 909 770 948 744 909 776 948 748 909 782 948 752 909 788 948 756 909 794 948 760 909 800 948 765 909 806 948 769 909 813 948 774 909 819 948 779 909 826 948 784 909 833 948 831 946 833 948 " />
</svg>
