<?xml version="1.0" encoding="UTF-8" standalone="no"?>
<svg xmlns="http://www.w3.org/2000/svg" version="1.1" width="1261" height="882">
    <path id="Block1Jump0"
        fill="none"
        stroke="#FFC864"
		stroke-width="2px"
		d="M 1234 857 L 1231 857 1234 857 1213 857 1193 857 1172 856 1152 856 1131 856 1111 856 1090 856 1070 856 1049 855 1029 855 1008 855 988 855 967 855 947 855 926 854 906 854 885 854 865 854 844 854 824 854 803 853 783 853 762 853 742 853 721 853 701 853 680 852 660 852 639 852 619 852 598 852 578 852 557 851 537 851 516 851 496 851 475 851 455 851 434 850 414 850 393 850 373 846 354 842 334 837 315 833 295 829 279 822 263 815 246 808 230 801 214 794 200 784 186 774 171 765 157 755 143 745 129 729 116 713 102 697 89 681 82 665 76 649 69 634 63 618 56 602 51 584 46 566 42 549 37 531 32 513 31 493 29 473 28 454 26 434 25 414 27 393 28 373 30 352 32 331 36 313 40 295 45 276 49 258 57 239 64 219 72 200 83 186 94 172 105 158 116 144 131 131 145 117 160 104 173 94 187 83 200 73 214 62 229 56 243 51 258 45 273 39 289 36 306 33 322 29 339 26 354 30 368 33 383 37 393 48 404 58 408 72 413 85 409 99 406 113 391 121 377 129 359 134 341 138 323 146 305 155 288 163 270 172 252 180 242 197 227 210 218 222 209 235 200 247 193 262 187 278 180 293 175 310 171 327 166 344 165 363 165 382 164 400 164 419 163 438 184 438 204 438 225 438 245 438 266 438 287 437 307 437 328 437 348 437 369 437 390 437 410 437 431 437 451 437 472 437 493 436 513 436 534 436 554 436 575 436 596 436 616 436 637 436 657 436 678 436 698 436 719 435 740 435 760 435 781 435 801 435 822 435 843 435 863 435 884 435 904 435 925 434 946 434 966 434 987 434 1007 434 1028 434 1049 434 1069 434 1090 434 1110 434 1131 433 1152 433 1172 433 1193 433 1213 433 1234 433 1234 453 1234 473 1234 494 1234 514 1234 534 1234 554 1234 574 1234 595 1234 615 1234 635 1234 655 1234 675 1234 695 1234 716 1234 736 1234 756 1234 776 1234 796 1234 817 1234 837 1234 857 1234 854 1234 857 " />
    <path id="Block2Jump1"
        fill="none"
        stroke="#FFC896"
		stroke-width="2px"
		d="M 1229 852 L 1229 852 1226 852 1229 852 1208 852 1187 852 1166 851 1145 851 1125 851 1104 851 1083 851 1062 851 1041 850 1020 850 999 850 978 850 958 850 937 850 916 849 895 849 874 849 853 849 832 849 811 849 791 848 770 848 749 848 728 848 707 848 686 847 665 847 644 847 624 847 603 847 582 847 561 846 540 846 519 846 498 846 477 846 457 846 436 845 415 845 394 845 375 841 355 837 336 832 316 828 297 824 281 817 265 810 248 804 232 797 216 790 202 780 188 770 174 761 160 751 146 741 133 725 119 710 106 694 93 678 87 662 80 647 74 631 67 616 61 600 56 582 51 565 47 547 42 530 37 512 36 492 34 473 33 453 31 434 30 414 32 394 33 373 35 353 37 332 41 314 45 296 50 277 54 259 61 240 69 222 76 203 87 189 98 175 109 161 120 147 134 134 149 121 163 108 176 98 189 87 203 77 216 66 235 59 255 51 274 44 290 41 306 38 323 34 339 31 353 35 366 38 380 42 390 52 400 61 404 73 408 85 405 98 402 110 388 117 375 124 357 129 339 133 321 142 303 150 284 159 266 167 248 176 238 194 223 207 214 219 205 232 196 244 189 260 182 275 175 291 170 308 166 326 161 343 160 363 160 383 159 403 159 423 158 443 179 443 199 443 220 443 240 443 261 443 282 442 302 442 323 442 343 442 364 442 385 442 405 442 426 442 446 442 467 442 488 441 508 441 529 441 549 441 570 441 591 441 611 441 632 441 652 441 673 441 693 441 714 440 735 440 755 440 776 440 796 440 817 440 838 440 858 440 879 440 899 440 920 439 941 439 961 439 982 439 1002 439 1023 439 1044 439 1064 439 1085 439 1105 439 1126 438 1147 438 1167 438 1188 438 1208 438 1229 438 1229 459 1229 479 1229 500 1229 521 1229 542 1229 562 1229 583 1229 604 1229 624 1229 645 1229 666 1229 686 1229 707 1229 728 1229 749 1229 769 1229 790 1229 811 1229 831 1229 852 1229 849 1229 852 " />
    <path id="Block3Jump2"
        fill="none"
        stroke="#FFC8C8"
		stroke-width="2px"
		d="M 1234 847 L 1234 847 1231 846 1234 847 1231 846 1234 847 1220 843 1224 857 1208 857 1193 857 1184 837 1173 856 1158 856 1143 856 1133 836 1123 856 1107 856 1092 856 1083 836 1072 856 1057 856 1042 855 1032 835 1022 855 1006 855 991 855 981 835 971 855 956 855 941 855 931 834 921 854 905 854 890 854 880 834 870 854 855 854 840 854 830 834 820 854 804 854 789 853 779 833 769 853 754 853 739 853 729 833 719 853 703 853 688 852 678 832 668 852 653 852 638 852 628 832 618 852 602 852 587 852 577 832 567 851 551 851 536 851 527 831 516 851 501 851 486 851 476 831 466 851 450 851 435 850 426 830 415 850 400 849 385 848 379 827 365 844 350 841 336 838 330 816 316 834 301 830 287 825 285 803 268 817 254 811 240 805 239 783 222 797 209 790 196 782 199 759 180 770 167 762 154 753 158 731 139 740 129 729 119 717 128 696 106 702 97 690 88 678 102 661 80 659 74 645 68 631 83 614 60 613 55 599 51 584 68 569 46 564 42 550 38 535 55 520 33 516 31 501 30 485 49 474 29 465 27 450 26 435 46 423 25 415 26 400 27 384 48 376 29 364 30 349 32 334 53 329 36 314 39 300 43 285 65 280 47 265 52 251 58 237 80 235 65 218 71 204 79 191 101 196 91 175 100 163 110 151 130 158 124 137 135 127 146 116 167 124 161 103 173 94 185 84 206 94 201 72 213 63 227 57 244 72 246 50 260 45 275 39 288 56 294 35 309 32 324 29 338 47 344 27 358 31 373 35 373 54 390 44 404 58 410 76 393 86 411 95 408 103 390 101 397 118 381 127 364 132 350 115 345 137 328 144 311 151 294 137 293 160 277 168 261 176 238 165 247 189 239 200 229 208 206 204 217 224 201 246 178 247 193 264 182 289 159 293 176 308 169 334 147 339 165 354 164 381 143 390 163 401 163 428 149 452 173 438 188 438 204 438 214 458 224 438 239 438 255 438 265 458 275 437 290 437 306 437 316 457 326 437 341 437 357 437 367 457 377 437 392 437 408 437 418 457 428 437 443 437 459 437 469 457 479 437 494 437 510 436 520 456 530 436 545 436 561 436 571 456 581 436 596 436 612 436 622 456 632 436 647 436 663 436 673 456 683 436 698 436 714 435 724 455 734 435 749 435 765 435 775 455 785 435 800 435 816 435 826 455 836 435 851 435 867 435 877 455 887 435 902 435 918 434 928 454 938 434 953 434 969 434 979 454 989 434 1004 434 1020 434 1030 454 1040 434 1055 434 1071 434 1081 454 1091 434 1106 434 1122 434 1132 453 1142 433 1157 433 1173 433 1183 453 1193 433 1208 433 1224 433 1220 447 1234 443 1234 470 1214 480 1234 490 1234 517 1214 527 1234 537 1234 564 1214 574 1234 584 1234 611 1214 621 1234 631 1234 659 1214 669 1234 679 1234 706 1214 716 1234 726 1234 753 1214 763 1234 773 1234 800 1214 810 1234 820 1234 847 1220 843 1224 857 1208 857 1193 857 1184 837 1173 856 1158 856 1143 856 1133 836 1123 856 1107 856 1092 856 1083 836 1072 856 1057 856 1042 855 1032 835 1022 855 1006 855 991 855 981 835 971 855 956 855 941 855 931 834 921 854 905 854 890 854 880 834 870 854 855 854 840 854 830 834 820 854 804 854 789 853 779 833 769 853 754 853 739 853 729 833 719 853 703 853 688 852 678 832 668 852 653 852 638 852 628 832 618 852 602 852 587 852 577 832 567 851 551 851 536 851 527 831 516 851 512 851 515 851 512 851 " />
    <path id="Block4Jump2"
        fill="none"
        stroke="#F64A8A"
		stroke-width="2px"
		d="M 512 851 L 515 851 512 851 532 851 551 851 571 851 590 852 610 852 629 852 649 852 668 852 688 852 707 853 727 853 746 853 766 853 785 853 805 853 824 854 844 854 863 854 883 854 902 854 922 854 941 855 961 855 980 855 1000 855 1019 855 1039 855 1058 856 1078 856 1097 856 1117 856 1136 856 1156 856 1175 857 1195 857 1214 857 1234 857 1246 870 1259 882 1205 832 1253 882 1199 832 1247 882 1193 832 1240 882 1188 832 1234 882 1182 832 1228 882 1176 832 1222 882 1170 832 1216 882 1165 832 1210 882 1159 832 1204 882 1154 832 1198 882 1148 831 1192 881 1142 831 1186 881 1137 831 1180 881 1131 831 1174 881 1126 831 1168 881 1120 831 1162 881 1115 831 1156 881 1109 831 1150 881 1104 831 1145 881 1098 831 1139 881 1093 831 1133 881 1088 831 1127 881 1082 831 1122 881 1077 831 1116 881 1071 831 1110 881 1066 831 1105 881 1061 831 1099 881 1056 831 1093 881 1050 831 1088 881 1045 831 1082 881 1040 831 1077 881 1035 831 1071 880 1030 830 1065 880 1024 830 1060 880 1019 830 1054 880 1014 830 1049 880 1009 830 1044 880 1004 830 1038 880 999 830 1033 880 994 830 1027 880 989 830 1022 880 984 830 1017 880 979 830 1011 880 974 830 1006 880 969 830 1001 880 964 830 995 880 959 830 990 880 954 830 985 880 949 830 980 880 944 830 974 880 939 830 969 880 935 830 964 880 930 830 959 880 925 830 954 880 920 830 949 880 915 829 943 879 911 829 938 879 906 829 933 879 901 829 928 879 896 829 923 879 892 829 918 879 887 829 913 879 882 829 908 879 878 829 903 879 873 829 898 879 868 829 893 879 864 829 888 879 859 829 883 879 854 829 878 879 850 829 873 879 845 829 868 879 841 829 864 879 836 829 859 879 831 829 854 879 827 829 849 879 822 829 844 879 818 829 839 879 813 829 834 879 809 829 830 879 804 829 825 879 800 828 820 878 795 828 815 878 791 828 811 878 787 828 806 878 782 828 801 878 778 828 796 878 773 828 792 878 769 828 787 878 764 828 782 878 760 828 778 878 756 828 773 878 751 828 768 878 747 828 764 878 743 828 759 878 738 828 754 878 734 828 750 878 730 828 745 878 725 828 740 878 721 828 736 878 717 828 731 878 712 828 727 878 708 828 722 878 704 828 717 878 700 828 713 878 695 828 708 878 691 828 704 878 687 828 699 878 683 827 695 877 678 827 690 877 674 827 686 877 670 827 681 877 666 827 677 877 662 827 672 877 657 827 668 877 653 827 663 877 649 827 659 877 645 827 654 877 641 827 650 877 636 827 645 877 632 827 641 877 628 827 636 877 624 827 632 877 620 827 628 877 616 827 623 877 612 827 619 877 607 827 614 877 603 827 610 877 599 827 605 877 595 827 601 877 591 827 597 877 587 827 592 877 583 827 588 877 579 827 583 877 574 827 579 877 570 827 575 877 566 826 570 876 562 826 566 876 558 826 561 876 554 826 557 876 550 826 553 876 546 826 548 876 542 826 544 876 538 826 540 876 534 826 535 876 530 826 531 876 525 826 527 876 521 826 522 876 517 826 518 876 513 826 514 876 509 826 509 876 505 826 505 876 501 826 500 876 497 826 496 876 493 826 492 876 489 826 487 876 485 826 483 876 481 826 479 876 477 826 474 876 473 826 470 876 469 826 466 876 465 826 461 876 460 826 457 876 456 826 453 876 452 826 448 875 448 825 444 875 444 825 440 875 440 825 435 875 436 825 431 875 432 825 427 875 428 825 422 875 424 825 418 875 420 825 413 875 416 825 409 875 412 825 405 875 408 825 400 875 404 825 396 875 399 825 392 875 395 825 387 875 391 824 383 874 388 824 379 873 384 823 374 872 380 822 370 871 376 821 366 870 372 820 362 869 368 819 357 868 364 818 353 868 360 817 349 867 357 817 345 866 353 816 340 865 349 815 336 864 345 814 332 863 341 813 328 862 337 812 323 861 333 811 319 860 330 811 315 859 326 810 311 858 322 809 306 858 318 808 302 857 314 807 298 856 310 806 294 855 306 805 289 854 303 805 285 852 300 804 281 850 297 803 277 849 293 801 273 847 290 799 269 845 286 798 265 843 282 796 261 842 279 795 257 840 275 793 254 838 271 791 250 836 268 790 246 835 264 788 242 833 261 787 238 831 257 785 234 829 253 783 230 828 250 782 226 826 246 780 222 824 243 779 218 823 239 777 214 821 235 775 210 819 232 774 206 817 228 772 202 816 224 771 198 814 221 769 194 811 218 767 191 809 215 764 187 806 212 762 183 804 209 760 180 801 205 758 176 799 202 756 173 796 199 753 169 794 196 751 166 791 193 749 162 789 190 747 159 786 187 745 155 784 184 743 151 781 180 740 148 779 177 738 144 776 174 736 141 774 171 734 137 771 168 732 134 769 165 729 130 766 162 727 127 763 159 725 123 761 156 723 120 758 153 720 117 754 151 717 115 751 149 714 112 747 146 711 109 744 144 708 106 741 142 706 103 737 139 703 101 734 137 700 98 731 135 697 95 727 132 694 92 724 130 691 90 721 128 689 87 717 125 686 84 714 123 683 81 711 121 680 79 707 118 677 76 704 116 675 73 700 114 672 70 697 111 669 67 694 109 666 65 690 108 662 63 686 106 659 62 682 105 655 60 678 103 652 58 674 102 648 57 670 100 645 55 666 99 641 53 662 98 638 52 658 96 634 50 654 95 631 49 650 93 627 47 646 92 624 45 642 91 620 44 638 89 617 42 634 88 613 40 630 86 610 39 625 85 606 37 621 84 603 35 617 82 599 34 613 81 595 32 609 79 591 31 605 78 587 30 601 77 584 29 597 76 580 27 593 75 576 26 588 74 572 25 584 73 568 24 580 72 564 23 576 71 561 22 572 70 557 21 567 69 553 20 563 68 549 18 559 66 545 17 555 65 541 16 551 64 538 15 546 63 534 14 542 62 530 13 538 61 526 12 534 60 522 11 530 59 518 9 525 58 515 8 521 57 511 7 517 56 507 7 513 56 503 6 508 55 499 6 504 55 495 6 499 55 491 6 495 55 487 5 491 54 483 5 486 54 479 5 482 54 475 4 478 54 471 4 473 53 467 4 469 53 463 4 465 53 459 3 460 53 455 3 456 53 451 3 452 52 447 3 447 52 443 2 443 52 439 2 439 52 434 2 434 51 430 1 430 51 426 1 426 51 422 1 421 51 418 1 417 50 414 0 413 50 410 0 408 50 406 0 404 51 403 1 400 51 399 1 395 51 395 2 391 52 391 2 387 52 387 2 382 53 383 3 378 53 379 3 374 53 375 3 369 54 371 4 365 54 367 4 361 54 364 5 356 55 360 5 352 55 356 5 348 56 352 6 343 56 348 6 339 56 344 7 335 57 340 7 330 57 336 8 326 58 333 9 322 58 329 10 318 59 325 11 313 60 321 12 309 61 317 13 305 62 313 14 301 63 309 15 296 64 305 16 292 64 301 17 288 65 298 18 284 66 294 19 280 67 290 20 275 68 286 21 271 69 282 22 267 70 278 23 263 70 274 24 258 71 270 25 254 72 266 26 250 74 262 27 246 76 259 29 242 77 255 30 238 79 252 32 234 80 249 34 230 81 245 35 226 83 242 37 222 84 239 38 218 85 235 40 214 87 232 41 209 88 229 43 205 89 226 44 201 91 222 46 197 92 219 47 193 93 216 49 189 95 213 51 185 96 210 54 182 98 208 57 178 100 205 59 175 103 202 62 172 105 199 65 168 107 196 68 165 110 193 70 161 112 190 73 158 114 187 76 155 116 184 79 151 119 181 81 148 121 178 84 145 123 175 87 141 126 172 89 138 128 169 92 134 130 166 95 131 133 163 98 128 135 160 101 124 137 158 104 121 140 155 107 118 143 152 110 116 146 150 113 113 149 147 117 110 152 145 120 107 155 142 123 104 158 139 126 101 161 137 130 98 164 134 133 95 167 132 136 92 170 129 139 90 173 126 143 87 176 124 146 84 179 121 149 81 181 119 153 78 184 116 156 76 187 114 159 73 190 112 163 70 193 110 166 67 196 107 170 65 199 105 173 62 202 103 176 59 205 101 180 56 208 98 183 54 211 96 187 51 214 94 190 48 217 91 194 46 220 89 197 43 223 87 201 40 226 85 204 38 230 83 208 36 233 82 212 35 237 80 216 33 240 79 221 32 243 78 225 30 247 76 229 29 250 75 233 27 254 74 237 26 257 72 241 24 260 71 245 23 264 70 249 21 267 68 253 20 271 67 257 18 274 65 262 17 278 64 266 16 281 63 270 14 285 62 274 13 288 61 278 12 291 61 283 11 295 60 287 11 298 59 291 10 302 59 295 9 305 58 300 8 308 58 304 7 312 57 308 6 315 57 312 5 319 56 317 4 322 56 321 3 325 55 325 3 329 54 330 2 332 54 334 1 336 53 338 0 338 53 343 1 341 53 347 2 343 54 351 2 346 54 355 3 348 55 360 4 350 55 364 6 353 56 368 7 355 56 372 8 357 57 377 9 360 57 381 10 362 58 385 11 365 59 389 12 367 59 394 13 369 60 398 15 371 61 401 18 372 62 404 21 373 64 407 25 374 65 410 28 376 66 413 31 377 67 416 34 378 69 418 38 379 70 421 41 380 71 424 44 382 73 427 47 382 74 429 52 383 75 430 56 383 76 431 60 384 78 433 64 385 79 434 68 385 80 435 72 386 82 437 77 386 83 438 81 387 85 439 85 387 86 438 90 387 87 437 94 387 88 436 98 386 89 435 102 386 90 434 107 386 91 433 111 385 92 432 115 385 93 431 120 385 94 430 124 384 95 429 129 384 96 426 132 382 97 422 134 381 98 418 136 380 98 414 138 379 99 410 140 377 100 406 142 376 101 402 144 374 102 398 146 373 104 394 148 371 105 390 149 369 106 386 151 366 106 382 153 362 107 378 154 358 108 374 155 354 109 369 156 350 111 365 158 346 112 361 159 342 113 357 160 338 114 353 161 334 115 349 162 330 116 344 164 326 117 341 165 322 119 338 166 318 121 335 168 314 123 331 169 310 124 328 171 306 126 325 172 302 128 322 174 299 130 319 175 295 132 316 176 291 133 313 178 287 135 310 179 283 137 306 181 279 139 303 182 275 141 300 184 271 143 297 185 267 145 294 187 263 147 291 189 259 148 288 190 255 150 284 192 251 152 281 193 247 154 278 195 243 156 276 197 239 158 273 199 235 161 270 200 233 165 268 202 231 168 266 205 228 172 265 208 226 176 263 210 223 180 260 214 221 183 257 217 218 185 254 220 214 188 251 223 211 190 248 226 208 193 245 229 205 196 243 232 202 199 241 234 200 203 239 237 197 206 237 240 195 210 235 243 192 214 233 245 190 217 231 248 187 221 229 251 185 224 227 254 183 228 225 256 180 232 223 259 178 235 221 263 176 239 219 266 174 243 218 269 172 247 216 272 171 251 215 275 169 255 214 278 167 259 212 281 165 263 211 285 164 267 210 288 162 271 208 291 160 275 207 294 158 279 205 297 157 283 204 301 155 287 203 305 154 291 202 308 153 296 201 312 152 300 200 315 151 304 199 319 150 308 198 323 149 312 197 326 148 317 196 330 147 321 195 333 146 325 195 337 145 329 194 340 144 334 193 344 143 338 192 348 141 342 191 351 141 346 191 354 141 351 191 358 140 355 190 361 140 359 190 364 140 364 190 367 140 368 190 371 140 372 190 374 139 377 189 377 139 381 189 380 139 385 189 384 139 390 189 387 139 394 189 390 138 399 188 394 138 403 188 397 138 408 188 399 138 412 188 401 138 416 188 402 138 421 188 403 138 426 188 404 138 431 188 405 138 436 188 407 138 441 188 408 138 446 188 409 138 452 188 411 138 458 188 413 139 462 192 413 145 463 198 413 151 463 204 413 157 463 210 413 163 463 217 413 170 463 223 413 176 463 229 413 182 463 235 413 188 463 241 413 194 463 247 413 200 463 254 413 207 463 260 413 213 463 266 413 219 463 272 413 225 463 278 413 231 463 285 413 238 463 291 413 244 463 297 413 250 462 303 412 256 462 309 412 262 462 315 412 268 462 322 412 275 462 328 412 281 462 334 412 287 462 340 412 293 462 346 412 299 462 353 412 306 462 359 412 312 462 365 412 318 462 371 412 324 462 377 412 330 462 383 412 336 462 390 412 343 462 396 412 349 462 402 412 355 462 408 412 361 462 414 412 367 462 421 412 374 462 427 412 380 462 433 412 386 462 439 412 392 462 445 412 398 462 452 412 404 462 458 412 411 462 464 412 417 462 470 412 423 462 476 412 429 462 483 412 435 462 489 412 442 462 495 412 448 462 501 412 454 462 507 412 460 462 514 411 466 461 520 411 472 461 526 411 479 461 532 411 485 461 538 411 491 461 544 411 497 461 551 411 503 461 557 411 510 461 563 411 516 461 569 411 522 461 575 411 528 461 582 411 534 461 588 411 541 461 594 411 547 461 600 411 553 461 606 411 559 461 613 411 565 461 619 411 572 461 625 411 578 461 631 411 584 461 637 411 590 461 644 411 596 461 650 411 603 461 656 411 609 461 662 411 615 461 669 411 621 461 675 411 627 461 681 411 634 461 687 411 640 461 693 411 646 461 700 411 652 461 706 411 658 461 712 411 665 461 718 411 671 461 724 410 677 460 731 410 683 460 737 410 689 460 743 410 696 460 749 410 702 460 755 410 708 460 762 410 714 460 768 410 720 460 774 410 727 460 780 410 733 460 786 410 739 460 793 410 745 460 799 410 751 460 805 410 758 460 811 410 764 460 818 410 770 460 824 410 776 460 830 410 782 460 836 410 789 460 842 410 795 460 849 410 801 460 855 410 807 460 861 410 813 460 867 410 820 460 873 410 826 460 880 410 832 460 886 410 838 460 892 410 845 460 898 410 851 460 905 410 857 460 911 410 863 460 917 410 869 460 923 410 876 460 929 410 882 460 936 410 888 459 942 409 894 459 948 409 900 459 954 409 907 459 961 409 913 459 967 409 919 459 973 409 925 459 979 409 932 459 985 409 938 459 992 409 944 459 998 409 950 459 1004 409 956 459 1010 409 963 459 1017 409 969 459 1023 409 975 459 1029 409 981 459 1035 409 988 459 1041 409 994 459 1048 409 1000 459 1054 409 1006 459 1060 409 1012 459 1066 409 1019 459 1073 409 1025 459 1079 409 1031 459 1085 409 1037 459 1091 409 1044 459 1097 409 1050 459 1104 409 1056 459 1110 409 1062 459 1116 409 1068 459 1122 409 1075 459 1129 409 1081 459 1135 409 1087 459 1141 409 1093 459 1147 409 1100 458 1154 408 1106 458 1160 408 1112 458 1166 408 1118 458 1172 408 1124 458 1178 408 1131 458 1185 408 1137 458 1191 408 1143 458 1197 408 1149 458 1203 408 1156 458 1210 408 1162 458 1216 408 1168 458 1222 408 1174 458 1228 408 1181 458 1235 408 1187 458 1241 408 1193 458 1247 408 1199 458 1253 408 1205 458 1258 410 1208 461 1261 413 1209 465 1261 419 1209 470 1261 425 1209 474 1261 430 1209 479 1261 436 1209 483 1261 442 1209 488 1261 448 1209 492 1261 453 1209 497 1261 459 1209 501 1261 464 1209 505 1261 470 1209 509 1261 475 1209 514 1261 480 1209 518 1261 486 1209 522 1261 491 1209 526 1261 496 1209 530 1261 501 1209 534 1261 506 1209 538 1261 511 1209 542 1261 516 1209 546 1261 521 1209 549 1261 526 1209 553 1260 531 1209 557 1260 535 1209 561 1260 540 1209 564 1260 545 1209 568 1260 550 1209 572 1260 554 1209 576 1260 559 1209 579 1260 563 1209 583 1260 568 1209 586 1260 573 1209 590 1260 577 1209 593 1260 582 1209 597 1260 586 1209 601 1260 591 1209 604 1260 595 1209 608 1260 599 1209 611 1260 604 1209 614 1260 608 1209 618 1260 613 1209 621 1260 617 1209 625 1260 621 1209 628 1260 626 1209 632 1260 630 1209 635 1260 635 1209 639 1260 639 1209 642 1260 643 1209 645 1260 648 1209 649 1260 652 1209 652 1260 656 1209 656 1260 661 1209 659 1260 665 1209 663 1260 669 1209 666 1260 674 1209 670 1260 678 1209 673 1260 682 1209 676 1260 687 1209 680 1260 691 1209 683 1260 696 1209 687 1260 700 1209 690 1260 705 1209 694 1260 709 1209 698 1260 714 1209 701 1260 718 1209 705 1260 723 1209 708 1260 727 1209 712 1260 732 1209 716 1260 737 1209 719 1260 741 1209 723 1260 746 1209 727 1260 751 1209 730 1260 755 1209 734 1260 760 1209 738 1259 765 1209 742 1259 770 1209 746 1259 775 1209 750 1259 780 1209 754 1259 785 1209 758 1259 790 1209 762 1259 795 1209 766 1259 800 1209 770 1259 805 1209 774 1259 810 1209 778 1259 816 1209 782 1259 821 1209 787 1259 826 1209 791 1259 832 1209 795 1259 837 1209 800 1259 843 1209 804 1259 849 1209 809 1259 854 1209 813 1259 860 1209 818 1259 866 1209 822 1259 872 1209 827 1259 878 1209 832 1211 834 1209 832 " />
    <path id="Block5Jump3"
        fill="none"
        stroke="#70BC1F"
		stroke-width="2px"
		d="M 442 729 L 442 729 444 727 442 729 445 727 442 729 479 707 515 685 552 663 588 641 625 619 659 639 693 660 728 680 762 701 796 721 829 700 862 679 894 659 927 638 960 617 991 635 1022 653 1053 670 1084 688 1115 706 1115 669 1115 632 1084 614 1053 597 1022 579 991 562 960 544 928 564 896 584 865 603 833 623 801 643 766 622 731 601 695 581 660 560 625 539 591 559 557 580 522 600 488 621 454 641 421 619 387 597 354 575 320 553 287 531 258 550 228 569 199 587 170 606 185 639 201 671 228 656 256 640 283 625 315 646 347 667 378 687 410 708 442 729 416 702 390 676 364 649 338 623 312 596 276 599 241 601 205 604 170 606 196 589 223 573 249 556 226 579 202 602 179 625 188 644 215 617 242 591 269 564 296 537 313 548 284 577 255 606 226 634 197 663 201 671 220 660 240 649 270 619 300 589 330 559 347 571 318 600 289 629 306 640 335 611 364 582 381 593 352 622 323 651 340 662 369 633 398 604 415 616 386 645 357 674 374 685 403 656 432 627 449 638 420 667 391 696 408 707 432 683 456 659 481 634 505 610 540 589 575 568 545 598 515 628 485 658 455 688 425 718 442 729 477 707 511 684 546 662 581 639 615 617 650 594 681 613 713 631 744 650 776 668 815 653 853 639 892 624 922 614 953 604 983 594 1009 616 1036 639 1062 661 1089 684 1115 706 1115 678 1097 696 1079 685 1097 668 1115 650 1115 632 1108 628 1085 652 1062 675 1044 665 1067 642 1090 618 1072 608 1049 631 1026 654 1008 644 1031 621 1054 597 1036 587 1013 611 990 634 972 624 995 601 1018 577 1000 567 977 590 955 612 932 635 906 651 881 668 855 684 880 659 906 633 931 608 957 582 982 557 964 546 935 575 907 604 878 633 849 661 821 690 792 719 774 708 800 682 825 657 851 631 876 606 902 580 877 596 852 611 827 627 804 650 780 674 757 697 739 687 764 662 789 636 772 626 746 651 721 676 704 666 729 641 754 615 736 605 711 630 686 655 668 645 693 620 718 594 700 584 675 609 650 634 633 624 658 599 683 573 665 563 638 590 612 616 585 643 549 665 514 686 541 659 567 632 594 606 620 579 647 552 630 542 603 569 576 595 549 622 523 649 496 676 469 702 442 729 442 741 472 712 502 684 532 655 562 627 592 598 624 604 657 611 689 617 722 623 758 636 795 649 831 662 864 641 897 621 930 600 965 611 999 622 1034 633 1064 631 1095 628 1125 626 1102 613 1068 594 1034 574 1012 562 1044 581 1077 602 1110 622 1125 631 1120 628 1087 608 1054 588 1020 568 986 548 997 554 1030 575 1063 597 1095 618 1125 636 1106 624 1073 603 1040 582 1007 561 980 544 984 547 1017 569 1049 590 1081 612 1114 634 1125 642 1091 619 1059 597 1026 576 994 554 977 542 1004 561 1035 584 1067 606 1099 629 1125 647 1109 636 1077 613 1045 591 1013 568 982 546 975 541 991 553 1022 577 1054 600 1085 623 1116 646 1125 653 1095 630 1063 607 1032 584 1001 561 974 541 979 545 1010 569 1041 593 1071 617 1102 641 1125 658 1112 648 1081 624 1050 600 1019 576 989 552 973 540 998 560 1028 585 1058 609 1088 634 1119 659 1125 664 1098 642 1067 617 1037 593 1007 568 977 543 972 540 986 551 1015 577 1045 602 1075 627 1105 652 1125 670 1114 660 1084 635 1054 610 1025 584 995 559 972 539 974 542 1004 568 1033 594 1062 620 1091 645 1120 671 1125 676 1100 653 1071 628 1042 602 1013 576 983 550 971 539 992 558 1021 585 1049 611 1078 638 1106 664 1125 682 1115 673 1087 646 1058 620 1029 593 1001 567 971 539 981 549 1009 576 1037 603 1065 630 1093 657 1121 684 1125 688 1102 666 1073 639 1045 612 1017 585 989 558 967 537 969 539 997 567 1025 594 1052 622 1080 649 1108 677 1125 694 1116 685 1088 658 1060 631 1032 604 1003 577 975 550 958 534 984 559 1011 587 1039 614 1066 642 1094 669 1122 697 1125 700 1102 678 1074 651 1046 624 1018 597 990 570 962 542 955 535 971 551 998 579 1026 607 1053 634 1081 662 1108 690 1125 706 1116 698 1089 671 1061 644 1033 616 1005 589 977 562 952 537 958 543 985 571 1013 599 1040 626 1067 654 1095 682 1122 710 1124 712 1103 691 1075 664 1047 636 1020 609 992 581 964 554 949 539 972 563 1000 591 1027 619 1054 647 1081 674 1109 702 1124 718 1117 711 1089 684 1062 656 1034 628 1006 601 979 573 951 546 946 541 960 555 987 583 1014 611 1041 639 1068 667 1095 695 1118 719 1103 704 1076 676 1048 648 1021 621 993 593 966 566 943 543 946 547 973 575 1001 603 1028 631 1055 659 1082 687 1104 711 1090 696 1062 669 1035 641 1007 613 980 586 952 558 939 545 960 567 987 595 1014 623 1041 651 1068 680 1091 703 1076 689 1049 661 1021 633 994 606 966 578 939 550 936 547 947 559 974 587 1001 616 1028 644 1055 672 1077 695 1063 681 1035 653 1008 626 980 598 953 570 932 549 934 552 961 580 988 608 1014 636 1041 664 1063 688 1049 674 1022 646 994 618 967 590 940 563 929 552 948 572 974 600 1001 628 1028 657 1050 680 1036 666 1008 638 981 610 954 583 925 554 934 564 961 592 988 621 1014 649 1036 672 1022 658 995 631 968 603 940 575 921 556 948 584 974 613 1001 641 1023 665 1009 651 981 623 954 595 927 567 918 558 935 577 961 605 988 634 1009 657 995 643 968 615 941 587 914 561 922 569 948 597 974 626 996 650 982 635 955 608 927 580 911 563 935 589 961 618 983 642 969 628 941 600 914 572 907 565 922 581 948 610 971 636 955 620 928 591 904 566 910 572 935 602 960 630 942 612 916 583 901 568 923 593 948 623 956 632 954 630 929 604 902 575 898 570 910 585 935 614 953 634 943 624 916 596 894 573 897 576 923 606 949 636 929 616 902 588 890 575 910 598 936 627 946 638 943 636 916 608 889 580 886 578 897 589 923 618 942 640 930 628 903 600 882 580 910 610 936 639 939 642 917 620 889 593 878 582 897 602 923 631 936 644 931 640 903 613 875 585 884 594 910 623 932 646 918 633 890 605 871 587 897 615 924 643 929 649 904 625 876 598 867 590 884 607 911 636 925 651 919 645 890 618 863 592 870 600 897 628 921 653 905 638 876 611 859 595 884 621 911 649 917 656 891 631 863 604 855 597 870 613 897 641 914 658 905 650 877 624 851 599 857 605 884 634 910 661 891 643 863 617 847 602 871 626 897 654 906 663 904 661 877 636 849 609 844 604 857 619 884 647 902 666 892 656 864 629 840 607 844 611 871 639 898 668 878 649 850 622 836 609 857 632 884 660 894 671 892 669 864 642 836 615 832 611 844 624 871 652 891 673 879 662 850 635 828 614 831 616 857 645 884 673 887 676 865 655 836 628 824 616 844 637 871 665 883 678 879 674 851 648 823 621 820 619 831 630 858 658 879 681 865 667 837 640 816 621 844 650 871 679 875 683 851 660 823 633 813 623 831 643 858 671 872 685 866 680 837 653 809 626 818 635 844 663 868 688 852 673 824 646 805 628 831 656 858 684 864 690 838 666 810 639 798 628 818 648 845 676 860 693 853 685 824 658 796 632 784 620 804 641 831 669 857 695 839 678 811 651 782 624 770 612 791 633 818 661 846 689 853 697 826 671 797 644 769 617 755 604 777 626 805 654 832 681 850 699 841 690 812 663 784 637 755 610 739 595 763 619 791 646 819 674 846 701 827 683 798 656 770 629 742 603 723 586 750 612 777 639 805 667 833 694 842 704 813 676 785 649 756 622 728 595 708 576 736 604 764 632 791 659 819 687 839 706 828 696 799 669 771 642 743 615 714 588 692 567 695 570 723 597 750 625 778 652 806 680 835 709 814 689 786 662 757 635 729 608 701 581 677 558 681 562 709 590 737 617 764 645 792 672 820 700 831 711 828 708 800 681 772 654 744 627 716 600 687 573 662 549 668 555 695 582 723 610 751 638 778 665 806 693 827 713 814 701 786 674 758 647 730 620 702 593 674 566 647 541 654 547 682 575 710 603 737 630 765 658 792 685 820 713 823 716 801 694 773 667 745 640 717 613 688 586 660 559 633 532 641 540 669 568 696 595 724 623 751 650 779 678 806 705 819 718 815 714 787 687 759 660 731 632 703 605 676 578 648 550 625 528 628 532 656 559 683 587 711 615 738 643 766 670 793 698 815 721 801 707 774 679 746 652 718 625 690 597 663 570 635 542 622 529 643 551 670 579 698 607 725 635 752 663 780 690 807 718 811 723 788 699 760 672 732 644 705 617 677 589 649 562 622 534 618 531 630 543 657 571 685 599 712 627 739 655 766 683 793 711 807 725 802 720 774 692 747 664 719 637 691 609 664 582 636 554 615 533 617 535 644 563 671 591 699 619 726 647 753 675 780 703 804 728 788 712 761 684 733 657 706 629 678 601 651 574 623 546 612 535 631 555 658 583 685 611 712 639 740 667 767 696 794 724 800 730 775 705 747 677 720 649 692 621 665 594 638 566 609 537 619 547 646 575 672 603 699 631 726 660 753 688 780 716 794 731 789 725 761 697 734 669 706 642 679 614 652 586 624 558 605 539 632 567 659 595 686 624 713 652 740 680 767 708 784 725 775 717 748 689 720 662 693 634 666 606 638 578 611 551 602 542 619 560 646 588 673 616 700 644 727 672 754 700 772 719 762 709 735 682 707 654 680 626 652 599 625 571 598 544 606 552 632 580 659 608 686 636 713 665 740 693 757 710 749 702 721 674 694 646 666 619 639 591 611 563 594 546 619 572 646 601 673 629 700 657 727 685 742 701 735 694 708 666 680 639 653 611 625 583 598 556 590 548 606 565 633 593 660 621 686 649 713 678 727 692 722 687 694 659 667 631 639 604 612 576 586 550 593 557 619 585 646 614 673 642 700 670 712 683 708 679 681 651 653 624 626 596 598 568 583 553 606 577 633 606 660 634 686 663 697 674 695 671 667 644 640 616 612 588 585 561 579 555 593 570 619 598 646 627 673 655 683 665 654 636 626 609 599 581 575 557 580 562 606 590 633 619 659 647 668 657 640 629 613 601 585 573 571 559 593 583 619 611 646 640 653 648 627 621 599 593 572 566 567 562 580 575 606 604 632 632 639 639 613 613 586 586 564 563 567 566 593 595 619 624 629 635 627 633 600 605 573 577 562 565 581 587 606 616 621 633 614 625 587 597 558 567 568 578 594 607 618 635 601 617 574 589 555 569 557 571 581 599 607 628 614 637 587 609 560 581 551 571 568 591 594 620 611 640 601 630 574 602 547 574 555 583 581 612 607 642 588 622 561 594 543 576 568 604 594 633 604 644 575 614 547 586 539 578 555 596 581 625 600 646 589 634 561 606 535 581 542 588 568 616 594 645 597 648 575 626 547 599 531 583 555 609 581 637 593 650 589 646 562 619 534 592 527 585 542 601 568 629 590 652 576 639 548 612 523 588 528 593 555 621 582 650 586 654 562 631 534 604 520 590 542 614 569 642 583 656 577 651 549 624 521 597 516 592 529 606 556 634 579 659 563 644 535 617 512 594 516 598 542 626 569 655 575 661 549 636 522 609 509 596 529 619 556 647 571 663 564 656 536 629 508 602 505 599 516 611 543 639 567 666 550 649 522 621 501 601 529 631 556 660 563 668 536 641 509 614 498 603 516 623 543 652 559 671 550 661 523 634 494 605 504 615 530 644 555 673 537 654 510 626 491 607 517 636 543 665 552 675 523 646 496 618 487 609 504 628 529 657 548 678 537 667 510 638 484 611 491 619 517 649 544 680 523 659 497 631 480 613 504 640 530 670 541 682 537 679 510 651 483 623 476 616 491 632 517 661 537 684 524 671 497 643 472 618 478 624 504 653 530 682 534 686 511 663 483 635 468 620 491 645 517 674 531 688 525 683 498 655 470 628 464 622 478 637 505 665 527 690 512 675 484 648 460 625 465 629 491 658 518 686 524 692 499 667 470 641 454 625 478 650 506 677 521 693 514 686 485 660 457 633 446 623 465 642 492 670 518 695 500 679 472 653 443 626 427 611 451 635 479 663 506 690 514 698 487 672 458 645 430 619 408 599 438 628 465 655 493 683 510 700 501 692 473 665 445 638 416 611 390 587 396 593 424 621 452 648 479 676 506 703 487 685 459 658 431 631 403 604 373 575 383 586 411 613 438 641 466 668 493 696 502 705 500 703 474 677 446 650 417 623 389 596 361 569 355 564 370 578 397 606 425 633 452 661 480 689 499 708 488 697 460 670 432 643 404 616 376 589 348 562 338 553 356 571 384 598 411 626 439 654 466 681 495 710 474 690 446 663 418 636 390 609 362 581 335 554 322 542 343 563 370 591 398 618 425 646 453 674 480 702 491 712 489 710 461 683 433 656 405 628 377 601 349 574 321 547 306 531 330 555 357 583 384 611 412 639 439 666 467 694 487 715 475 703 447 676 419 648 391 621 364 593 336 566 308 539 290 521 316 548 344 575 371 603 398 631 426 659 453 687 480 714 483 717 461 696 433 668 406 641 378 614 350 586 322 559 294 531 284 521 303 540 330 568 357 596 385 624 412 651 439 679 467 707 479 719 475 716 447 688 420 661 392 634 364 606 336 579 308 552 280 524 289 533 316 561 344 588 371 616 399 644 426 672 453 700 475 722 462 708 434 681 406 654 378 626 350 599 323 572 295 544 276 526 303 553 330 581 358 609 385 637 412 664 440 692 467 720 471 724 448 701 420 674 392 647 364 619 337 592 309 564 281 537 272 528 289 546 317 574 344 601 371 629 399 657 426 685 454 713 467 726 462 721 434 694 406 667 379 639 351 612 323 585 295 557 268 531 276 538 303 566 331 594 358 622 385 650 413 677 440 705 463 728 448 714 420 687 393 659 365 632 337 605 309 577 281 550 264 533 290 559 317 587 344 614 372 642 399 670 426 698 454 726 459 731 435 707 407 679 379 652 351 625 323 597 296 570 268 543 261 536 276 551 303 579 331 607 358 635 386 663 413 690 440 718 455 733 449 727 421 700 393 672 365 645 337 617 310 590 282 563 257 538 263 544 290 572 317 600 345 627 372 655 399 683 427 711 451 735 435 720 407 692 379 665 352 638 324 610 296 583 268 555 253 540 276 564 304 592 331 620 358 648 386 676 413 703 441 731 447 738 421 712 393 685 366 658 338 630 310 603 282 576 254 548 249 543 263 557 290 585 318 613 345 640 372 668 400 696 427 724 443 740 442 741 410 718 377 695 345 672 313 648 280 625 248 602 231 630 213 657 196 685 198 684 192 674 186 664 202 682 181 652 178 648 199 672 206 680 192 661 172 635 186 651 210 677 204 671 180 640 167 624 173 630 199 659 213 675 192 649 167 620 163 615 186 639 212 667 217 673 204 658 179 629 159 607 171 619 199 647 221 670 217 666 191 638 165 609 158 601 184 627 212 655 225 668 204 646 178 617 161 599 170 608 198 635 225 662 229 666 217 653 191 625 165 597 183 615 211 642 233 664 231 661 204 633 177 604 168 595 170 597 197 623 225 650 237 662 217 641 190 612 172 593 182 603 211 630 239 657 241 660 230 648 203 620 175 590 196 610 224 637 245 657 217 628 190 600 178 588 181 591 210 618 238 644 249 655 230 635 203 607 182 586 195 598 223 625 253 653 243 643 216 615 189 587 185 584 209 605 237 632 257 651 229 623 202 595 189 582 194 586 222 612 251 639 262 649 243 630 215 602 192 579 207 593 236 619 266 646 256 637 229 610 201 582 195 577 221 600 250 626 270 644 242 617 214 590 199 575 206 581 235 607 264 633 274 642 256 624 228 597 202 573 220 588 249 614 278 640 269 631 241 604 213 577 206 570 233 595 263 621 283 638 255 611 227 584 209 567 218 576 247 602 276 628 294 645 268 619 240 592 213 565 232 583 260 609 289 636 306 652 281 627 253 599 226 572 217 563 245 590 273 617 302 644 317 659 294 635 266 607 239 579 221 561 231 570 259 598 287 625 315 652 331 668 307 643 280 615 252 587 225 558 245 578 272 605 300 633 328 660 347 678 320 651 293 623 266 595 239 566 229 556 231 558 258 585 286 613 313 640 341 668 362 688 359 686 333 659 306 630 279 602 252 574 233 554 244 565 272 593 299 620 327 648 354 676 376 698 373 695 346 666 319 638 292 610 266 582 239 554 236 551 258 573 285 600 312 628 340 656 367 684 390 707 386 703 359 674 332 646 306 618 279 590 252 561 240 549 244 552 271 580 298 608 326 636 353 664 380 692 404 716 399 711 372 683 346 654 319 626 292 597 265 569 244 547 257 560 284 588 312 616 339 644 366 672 393 700 417 724 412 719 385 691 359 662 332 634 305 605 279 577 252 548 248 544 271 568 298 596 325 624 352 652 379 680 406 708 430 733 425 727 398 699 371 670 345 642 318 613 292 585 265 556 252 542 257 547 284 576 311 604 338 632 365 660 392 688 419 717 442 741 439 739 442 741 410 720 378 699 347 679 315 658 283 637 254 653 225 669 196 685 183 657 170 630 157 602 189 581 222 561 254 540 287 519 320 541 354 563 387 585 421 607 454 629 488 609 522 588 557 568 591 547 625 527 660 548 695 569 731 589 766 610 801 631 833 611 865 591 896 572 928 552 960 532 993 551 1026 570 1059 588 1092 607 1125 626 1125 658 1125 691 1125 723 1092 704 1059 685 1026 667 993 648 960 629 927 650 894 671 862 691 829 712 796 733 762 713 728 692 693 672 659 651 625 631 588 653 552 675 515 697 479 719 442 741 479 719 515 697 552 675 588 653 625 631 659 651 693 672 728 692 762 713 796 733 829 712 862 691 894 671 927 650 960 629 993 648 1026 667 1059 685 1092 704 1125 723 1125 691 1125 658 1125 626 1092 607 1059 588 1026 570 993 551 960 532 928 552 896 572 865 591 833 611 801 631 766 610 731 589 695 569 660 548 625 527 591 547 557 568 522 588 488 609 454 629 421 607 387 585 354 563 320 541 287 519 254 540 222 561 189 581 157 602 170 630 183 657 196 685 225 669 254 653 283 637 315 658 347 679 378 699 410 720 442 741 439 739 442 741 440 739 442 741 " />
</svg>
