<?xml version="1.0" encoding="UTF-8" standalone="no"?>
<svg xmlns="http://www.w3.org/2000/svg" version="1.1" width="493" height="982">
    <path id="Block1Jump0"
        fill="none"
        stroke="#C70155"
		stroke-width="2px"
		d="M 176 113 L 177 110 176 113 182 100 189 88 195 75 206 62 214 56 214 49 210 35 205 26 198 18 188 12 179 10 170 11 164 14 158 20 152 32 147 46 143 59 138 73 127 61 115 49 104 34 93 26 80 24 64 30 52 43 46 56 44 65 44 83 47 97 49 111 54 127 63 142 72 153 81 164 90 175 105 181 120 192 134 203 149 214 154 204 159 194 162 183 165 172 173 164 180 155 176 138 176 126 176 113 162 123 147 134 133 144 119 154 104 165 90 175 90 175 76 158 63 142 58 135 54 128 53 124 47 103 60 115 88 143 116 172 145 200 152 208 161 187 151 177 122 149 94 120 66 92 44 70 50 47 72 69 100 97 129 125 157 154 170 166 180 154 177 145 163 130 135 102 107 74 78 46 63 31 87 25 113 51 141 79 169 107 176 114 176 113 180 94 185 75 189 56 194 37 198 18 208 33 210 35 212 43 215 49 215 56 210 60 188 38 164 14 152 31 182 61 195 74 185 94 176 84 147 56 145 53 138 73 127 61 115 49 104 37 104 34 138 73 151 86 163 98 176 111 165 100 137 72 109 44 91 26 91 26 109 44 137 72 165 100 176 111 176 113 186 116 170 104 154 93 138 81 122 69 106 57 90 46 74 34 58 22 42 41 54 29 63 20 69 17 64 22 40 46 38 51 45 44 78 14 55 37 36 56 66 29 84 14 76 22 47 51 34 64 57 44 89 15 67 37 38 66 34 70 49 59 78 30 95 16 88 22 59 51 34 76 40 73 69 44 99 17 79 37 50 66 34 82 60 59 89 30 102 20 100 23 71 52 42 81 35 88 52 73 81 44 106 22 91 37 62 66 36 93 43 88 72 59 101 30 109 25 82 52 53 81 36 98 64 74 93 45 112 28 103 37 74 66 45 95 37 103 55 88 84 59 115 31 94 52 65 81 38 108 46 103 75 74 104 45 118 35 115 38 86 67 57 96 39 113 67 88 96 59 120 38 106 52 77 81 48 110 40 118 58 103 87 74 116 45 123 41 97 67 68 96 42 122 50 118 79 89 108 60 126 45 118 52 89 81 60 110 43 127 70 103 99 74 128 48 109 67 80 96 51 125 45 131 61 118 90 89 119 60 131 51 101 82 72 111 47 135 48 137 53 133 82 104 111 75 133 53 134 54 139 41 145 27 150 14 150 14 150 15 159 6 165 3 147 21 144 27 147 24 169 1 157 16 140 36 167 9 176 0 148 31 137 46 159 24 182 1 169 17 140 46 134 54 147 41 176 12 187 2 178 11 149 40 120 69 90 98 61 127 49 139 73 118 102 89 131 60 160 31 191 3 170 24 141 53 112 82 83 111 54 140 52 143 65 133 94 104 123 75 152 46 181 17 195 5 191 10 162 39 133 68 104 97 75 126 54 147 85 118 114 89 143 60 172 31 199 7 182 24 153 53 124 82 95 111 66 140 56 150 76 133 105 104 134 75 163 46 192 17 203 9 174 39 145 68 116 97 87 126 59 153 68 148 97 119 126 90 155 61 184 32 206 12 194 24 165 53 136 82 107 111 78 140 62 156 88 133 117 104 146 75 175 46 204 17 209 16 185 39 156 68 127 97 99 126 70 155 65 159 80 148 109 119 138 90 167 61 196 32 212 19 206 25 177 54 148 83 119 112 90 141 68 163 100 133 129 104 158 75 187 46 214 22 197 39 168 68 139 97 110 126 81 155 71 166 92 148 121 119 150 90 179 61 208 32 217 26 189 54 160 83 131 112 102 141 73 169 83 163 112 134 141 105 170 76 199 47 219 30 209 39 180 68 151 97 122 126 93 155 76 172 103 148 132 119 161 90 190 61 220 34 201 54 172 83 143 112 114 141 85 170 79 176 95 163 124 134 153 105 182 76 211 47 222 39 220 41 192 69 163 98 134 127 105 156 81 179 86 177 115 148 144 119 173 90 202 61 223 44 212 54 183 83 154 112 125 141 96 170 84 183 107 163 136 134 165 105 194 76 224 49 204 69 175 98 146 127 117 156 88 184 98 178 127 149 156 120 185 91 214 62 224 55 195 83 166 112 137 141 108 170 92 187 94 188 118 163 147 134 176 105 205 76 224 58 213 69 224 60 213 69 205 80 184 100 155 129 126 158 96 188 110 178 139 149 168 120 197 91 201 87 197 93 178 113 149 142 120 171 100 190 130 163 159 134 188 106 193 101 190 106 169 127 140 156 111 185 104 193 106 194 122 178 151 149 180 120 188 112 186 116 180 135 175 154 169 173 163 191 158 210 152 229 152 229 155 223 150 228 158 217 162 210 147 225 153 216 165 204 168 198 143 223 162 201 170 189 152 208 140 220 142 215 173 181 160 194 137 217 150 201 176 175 192 156 169 179 140 208 133 215 159 186 188 157 190 152 177 164 149 193 130 212 138 201 167 172 189 147 186 150 157 179 127 209 147 186 176 157 188 142 166 164 137 193 123 206 126 200 155 171 184 142 186 138 174 150 145 179 120 204 135 186 164 157 186 132 183 135 154 164 125 193 116 201 117 198 144 171 173 142 186 126 162 149 133 178 113 199 123 186 152 157 181 128 186 120 171 135 142 164 113 193 109 197 107 195 132 171 161 142 186 117 186 116 184 118 186 116 " />
    <path id="Block2Jump1"
        fill="none"
        stroke="#F993BC"
		stroke-width="2px"
		d="M 338 361 L 341 359 338 361 352 353 365 344 376 335 387 326 398 317 409 307 420 296 431 286 440 275 448 263 457 252 464 239 471 226 475 211 479 196 483 181 483 169 482 156 479 138 473 122 466 114 458 106 443 95 433 92 422 88 412 90 401 91 390 95 378 99 367 113 356 127 344 141 333 155 324 137 316 119 307 101 299 89 290 76 280 68 265 61 250 58 233 61 218 67 210 75 201 82 197 93 192 103 187 122 190 138 192 154 203 148 219 151 235 153 249 164 262 174 269 188 275 203 282 217 282 236 282 256 281 275 281 294 280 313 296 315 306 321 315 327 324 341 335 352 338 361 346 344 354 327 362 310 370 293 378 276 386 259 394 242 402 225 410 208 418 191 426 174 434 157 442 140 450 123 458 106 473 122 481 150 464 136 433 111 408 90 384 97 399 109 430 134 461 159 483 176 478 198 458 182 427 157 396 131 369 109 356 124 362 129 393 154 424 179 455 205 473 219 465 237 452 227 421 202 390 177 359 152 345 140 333 155 324 139 316 124 307 108 299 93 290 77 313 115 297 101 266 76 245 59 222 65 221 65 232 74 263 99 294 124 325 149 356 174 387 200 418 225 449 250 455 254 449 250 418 225 387 200 356 174 325 149 294 124 263 99 232 74 221 65 206 78 229 97 260 122 291 147 322 172 353 197 384 222 415 248 443 270 431 286 412 270 381 245 350 220 319 195 288 170 257 144 226 119 195 94 189 114 204 126 218 138 233 149 247 161 262 173 250 163 237 154 225 144 212 134 196 142 192 154 190 141 201 149 190 141 189 115 192 117 223 142 252 166 262 173 262 174 285 192 316 218 347 243 378 268 409 293 417 299 409 293 378 268 347 243 316 218 285 192 262 174 272 194 281 214 313 240 344 265 375 291 403 313 388 326 372 313 341 288 310 263 282 240 282 265 307 286 338 311 369 336 372 338 356 350 335 334 304 309 281 290 280 299 292 308 303 318 315 327 301 318 287 309 279 313 315 327 335 352 338 361 338 361 338 361 332 377 331 357 329 337 328 318 326 298 325 278 323 258 322 238 320 218 319 199 317 179 316 159 301 149 285 138 270 128 255 118 239 107 224 97 208 86 193 76 188 86 200 71 213 58 209 63 185 92 182 99 193 86 222 54 202 78 181 104 186 102 212 70 229 51 221 62 195 94 179 113 178 118 180 116 205 85 230 53 236 50 214 77 188 109 177 123 198 101 223 69 242 49 233 61 207 92 181 124 178 128 191 116 216 84 242 52 248 48 226 76 200 108 179 134 184 132 209 100 235 68 253 49 245 60 219 91 193 123 180 140 202 115 228 83 258 49 238 75 212 107 186 139 180 145 195 131 221 99 247 67 263 50 256 59 231 90 205 122 181 151 188 146 214 114 240 82 268 51 249 74 223 106 198 138 182 157 207 129 233 98 259 66 272 53 268 58 242 89 216 121 191 153 183 163 200 145 226 113 252 81 276 55 261 73 235 105 209 137 184 168 193 160 219 128 245 97 270 65 279 57 254 88 228 120 202 152 192 165 197 162 212 144 238 112 263 80 283 59 273 72 247 104 221 136 202 160 231 127 256 96 282 64 287 61 266 87 240 119 214 151 208 159 224 143 249 111 275 79 290 64 285 71 259 103 233 135 213 159 242 126 268 95 294 66 278 86 252 118 226 150 218 160 235 142 261 110 287 78 297 69 271 102 245 134 223 161 228 157 254 125 280 94 299 73 289 85 264 117 238 149 228 162 247 141 273 109 299 77 302 76 282 101 256 133 232 163 240 156 266 124 292 92 305 80 301 84 275 116 249 148 235 165 259 140 285 108 307 84 294 100 268 132 242 163 239 168 252 155 278 123 303 91 310 87 287 115 261 147 242 170 271 139 296 107 312 91 306 99 280 130 254 162 246 173 264 154 289 122 315 94 299 114 273 146 249 176 257 170 282 138 308 106 317 98 292 129 266 161 252 178 275 153 301 121 319 102 311 113 285 145 259 177 255 182 268 169 294 137 321 106 304 128 278 160 257 186 261 184 287 152 313 120 323 111 297 144 271 176 259 191 280 168 306 136 325 115 315 127 289 159 264 191 261 195 273 183 299 151 327 119 308 143 282 175 263 199 266 198 292 166 318 135 329 124 327 126 301 158 275 190 264 204 285 182 311 150 331 128 320 142 294 174 268 206 266 208 278 197 304 165 329 134 333 132 313 157 287 189 268 212 269 215 297 181 322 149 334 134 335 136 342 128 348 119 362 103 372 91 358 108 332 140 306 172 281 204 270 217 290 196 315 164 341 133 367 101 380 88 376 92 351 124 325 156 299 188 272 221 283 212 308 180 334 148 360 116 388 85 369 108 344 140 318 172 292 203 272 228 276 227 301 195 327 163 353 132 379 100 396 82 388 91 362 123 337 155 311 187 285 219 272 235 294 211 320 179 346 147 372 115 402 81 381 107 355 139 330 171 304 202 278 234 272 242 287 226 313 194 339 162 365 130 390 99 408 80 400 90 374 122 348 154 322 186 297 218 272 248 280 242 306 210 332 178 358 146 383 114 409 82 414 79 393 106 367 138 341 170 315 201 290 233 272 255 274 256 299 225 325 193 351 161 376 129 402 98 420 79 412 89 386 121 360 153 334 185 308 217 283 249 272 262 292 240 318 209 344 177 369 145 395 113 421 81 426 79 405 105 379 137 353 169 327 200 301 232 276 264 272 269 285 256 311 224 337 192 362 160 388 128 414 97 430 80 423 88 398 120 372 152 346 184 320 216 294 248 272 276 278 271 304 239 330 208 355 176 381 144 407 112 434 82 416 104 391 136 365 167 339 199 313 231 287 263 271 283 297 255 323 223 348 191 374 159 400 127 426 96 439 83 435 87 409 119 384 151 358 183 332 215 306 247 280 279 271 290 290 270 316 238 341 207 367 175 393 143 419 111 443 85 428 103 402 135 377 166 351 198 325 230 299 262 273 294 271 297 283 286 309 254 334 222 360 190 386 158 412 126 438 95 447 86 421 118 395 150 370 182 344 214 318 246 292 277 270 305 276 301 302 269 327 237 353 206 379 174 405 142 431 110 451 89 440 102 414 134 388 165 363 197 337 229 311 261 285 293 269 313 270 315 294 285 320 253 346 221 372 189 398 157 423 125 449 93 454 91 433 117 407 149 381 181 355 213 330 245 304 276 278 308 267 322 287 300 313 268 339 236 365 204 391 173 416 141 442 109 458 93 452 101 426 133 400 164 374 196 348 228 323 260 297 292 272 323 280 316 306 284 332 252 358 220 384 188 409 156 435 124 462 95 445 116 419 148 393 180 367 212 341 244 316 275 290 307 277 323 299 299 325 267 351 235 377 203 402 172 428 140 454 108 465 98 463 100 438 132 412 163 386 195 360 227 334 259 309 291 282 324 292 314 318 283 344 251 370 219 395 187 421 155 447 123 468 101 456 115 431 147 405 179 379 211 353 243 327 274 302 306 287 324 311 298 337 266 363 234 388 202 414 171 440 139 466 107 470 104 449 130 424 162 398 194 372 226 346 258 320 290 295 322 292 325 304 313 330 282 356 250 381 218 407 186 433 154 459 122 473 108 468 114 442 146 417 178 391 210 365 241 339 273 313 305 296 327 323 297 349 265 374 233 400 201 426 170 452 138 476 111 461 129 435 161 410 193 384 225 358 257 332 289 306 321 300 329 316 312 342 281 367 249 393 217 419 185 445 153 471 121 479 114 454 145 428 177 403 209 377 240 351 272 325 304 303 331 309 328 335 296 360 264 386 232 412 200 438 169 464 137 482 117 473 128 447 160 421 192 395 224 370 256 344 288 318 320 307 333 327 311 353 280 379 248 405 216 431 184 456 152 484 122 466 144 440 176 414 208 388 239 363 271 337 303 310 337 320 327 346 295 372 263 398 231 424 199 449 167 475 136 486 126 484 129 459 159 433 191 407 223 381 255 356 287 330 319 312 341 315 340 339 310 365 278 391 247 417 215 442 183 468 151 488 131 478 143 452 175 426 207 400 238 374 270 349 302 323 334 314 344 332 326 358 294 384 262 410 230 435 198 461 166 489 135 471 158 445 190 419 222 393 254 367 286 342 318 317 348 325 341 351 309 377 277 403 246 428 214 454 182 480 150 490 141 464 174 438 206 412 237 386 269 360 301 335 333 320 351 344 325 370 293 396 261 421 229 447 197 473 165 491 147 482 157 457 189 431 221 405 253 379 285 353 317 328 348 323 354 337 340 363 308 389 276 414 245 440 213 466 181 492 152 475 173 450 204 424 236 398 268 372 300 346 332 326 357 330 356 356 324 382 292 407 260 433 228 459 196 485 164 492 159 468 188 443 220 417 252 391 284 365 315 339 347 328 362 349 339 375 307 400 275 426 244 452 212 478 180 492 166 487 172 461 203 436 235 410 267 384 299 358 331 332 363 329 367 342 355 368 323 393 291 419 259 445 227 471 195 492 172 480 187 454 219 428 251 403 283 377 314 351 346 331 372 335 370 360 338 386 306 412 274 438 243 464 211 489 179 492 179 473 202 447 234 422 266 396 298 370 330 344 362 332 377 347 365 362 353 377 341 393 329 408 317 423 305 438 293 424 307 440 287 466 255 472 244 457 263 431 295 412 318 400 330 422 303 447 271 473 239 478 233 481 226 464 248 438 280 412 311 393 335 386 340 403 320 429 288 454 256 480 224 482 221 484 216 471 232 445 264 419 296 393 328 379 345 371 352 384 336 410 304 436 272 461 240 486 210 488 205 478 217 452 249 426 281 400 312 375 344 366 355 361 358 365 353 391 321 417 289 443 257 468 225 489 200 490 195 485 201 459 233 433 265 407 297 382 329 355 362 349 366 372 337 398 305 424 273 450 241 475 210 492 189 493 184 492 186 466 218 440 250 414 282 389 313 363 345 342 371 337 374 353 354 379 322 405 290 431 258 457 226 482 194 492 179 474 202 448 233 422 265 397 297 371 329 345 361 332 377 334 375 332 377 " />
    <path id="Block3Jump2"
        fill="none"
        stroke="#F0F0F0"
		stroke-width="2px"
		d="M 155 234 L 156 231 155 234 160 216 164 198 170 185 179 175 187 164 201 157 216 155 231 159 246 168 259 182 265 195 271 208 274 226 276 244 275 263 274 282 272 300 271 319 254 324 246 333 238 341 231 353 225 365 218 377 207 368 200 360 193 352 186 345 178 338 164 329 148 329 130 336 120 344 109 357 101 375 100 392 98 408 102 423 105 438 103 438 92 425 80 412 69 401 58 390 47 379 39 369 30 359 23 343 15 327 10 310 9 297 8 283 7 270 7 260 7 249 9 234 11 218 15 208 23 200 30 191 45 181 59 176 71 179 83 181 98 186 114 198 130 209 138 221 147 228 155 234 137 228 119 222 101 216 84 209 66 203 48 197 30 191 15 207 14 213 11 218 8 242 21 229 49 201 71 178 94 185 72 207 44 235 16 263 7 271 9 299 38 269 67 241 95 213 112 195 128 208 118 218 90 247 61 275 33 303 14 323 22 343 28 338 56 309 84 281 113 253 141 224 155 234 163 217 171 199 179 182 187 164 210 156 197 168 169 196 163 202 155 234 163 252 171 270 179 288 187 306 195 323 203 341 211 359 219 377 219 377 219 377 229 359 238 341 254 323 271 319 272 306 273 294 245 323 216 351 203 364 216 351 245 323 273 294 274 264 250 288 222 317 193 345 190 349 174 336 199 311 227 282 255 254 275 235 271 209 261 220 232 248 204 276 176 305 152 328 129 336 120 344 120 344 107 358 93 371 86 389 92 405 99 422 105 438 104 434 102 437 88 421 99 411 100 381 91 390 74 407 66 398 60 392 68 384 96 355 125 327 153 299 181 271 210 242 238 214 263 189 250 173 243 180 215 208 187 236 158 265 130 293 102 321 73 349 46 377 32 362 51 343 79 315 107 287 135 259 164 230 192 202 220 174 233 161 231 159 218 172 206 184 193 197 180 209 168 222 155 234 151 222 136 232 121 242 107 251 92 261 77 271 80 290 83 310 85 329 88 349 91 368 94 388 96 407 99 427 102 446 80 421 51 392 36 377 23 361 44 382 73 411 102 440 106 444 94 429 65 400 36 371 21 356 18 350 29 361 58 390 87 419 111 443 109 438 80 409 51 380 22 351 15 344 12 338 15 341 44 370 73 399 102 428 111 437 95 418 66 389 37 360 10 333 8 328 29 349 58 378 87 407 109 429 80 397 51 368 22 339 5 319 15 329 44 358 73 387 102 416 108 422 95 406 66 377 37 348 8 319 3 311 30 338 59 367 88 396 106 414 80 385 51 356 22 327 3 305 15 317 44 346 73 375 102 404 105 407 95 394 66 365 37 336 8 307 2 298 30 326 59 355 88 384 105 401 81 374 52 345 23 316 1 291 15 305 44 334 73 363 102 392 106 396 95 382 66 353 37 324 8 295 1 285 3 287 30 314 59 343 88 372 106 390 81 362 52 333 23 304 0 278 16 294 45 323 74 352 103 381 107 385 95 370 66 341 37 312 8 283 0 272 30 302 59 331 88 360 108 380 81 350 52 321 23 292 0 266 16 282 45 311 74 340 103 369 109 375 96 359 67 330 38 301 9 272 0 260 2 262 30 290 59 319 88 348 111 371 81 338 52 309 23 280 0 254 16 270 45 299 74 328 103 357 113 366 96 347 67 318 38 289 9 260 0 248 2 250 31 279 60 308 89 337 115 362 110 355 81 326 52 297 23 268 0 242 16 258 45 287 74 316 103 345 117 359 96 335 67 306 38 277 9 248 1 237 31 267 60 296 89 325 120 355 111 344 82 315 53 286 24 257 2 232 16 246 45 275 74 304 103 333 122 352 96 323 67 294 38 265 9 236 3 227 31 255 60 284 89 313 118 342 125 349 111 332 82 303 53 274 24 245 3 221 17 235 46 264 75 293 104 322 128 346 125 340 96 311 67 282 38 253 9 224 4 216 31 243 60 272 89 301 118 330 131 343 111 320 82 291 53 262 24 233 6 212 17 223 46 252 75 281 104 310 133 339 136 342 126 329 97 300 68 271 39 242 10 213 8 208 31 231 60 260 89 289 118 318 140 340 140 337 111 308 82 279 53 250 24 221 10 204 17 211 46 240 75 269 104 298 133 327 144 338 126 317 97 288 68 259 39 230 13 201 32 220 61 249 90 278 119 307 148 336 140 325 111 296 82 267 53 238 24 209 16 198 18 200 46 228 75 257 104 286 133 315 154 336 126 305 97 276 68 247 39 218 19 194 32 208 61 237 90 266 119 295 148 324 160 336 165 338 141 314 112 285 83 256 54 227 25 198 21 191 46 216 75 245 104 274 133 303 162 332 174 344 188 357 196 365 203 373 213 382 219 386 213 380 184 351 155 322 126 293 97 264 68 235 39 206 22 189 39 206 68 235 97 264 126 293 155 322 184 351 213 380 221 384 206 370 177 341 148 312 119 283 90 254 61 225 32 196 24 188 54 215 83 244 112 273 141 302 170 331 199 360 223 381 221 379 192 350 163 321 134 292 105 263 76 234 47 205 27 185 39 194 68 223 97 252 126 281 155 310 184 339 213 368 226 378 206 358 177 329 148 300 119 271 90 242 61 213 30 182 54 203 83 232 112 261 141 290 170 319 199 348 228 374 221 367 192 338 163 309 134 280 105 251 76 222 47 193 34 180 40 183 69 212 98 241 127 270 156 299 185 328 214 357 230 370 206 346 177 317 148 288 119 259 90 230 61 201 38 178 54 191 83 220 112 249 141 278 170 307 199 336 228 365 233 367 221 355 192 326 163 297 134 268 105 239 76 210 47 181 41 175 69 200 98 229 127 258 156 287 185 316 214 345 235 363 207 335 178 306 149 277 120 248 91 219 62 190 45 173 54 179 83 208 112 237 141 266 170 295 199 324 228 353 237 359 221 343 192 314 163 285 134 256 105 227 76 198 50 172 69 188 98 217 127 246 156 275 185 304 214 333 239 355 236 352 207 323 178 294 149 265 120 236 91 207 62 178 54 170 84 197 113 226 142 255 171 284 200 313 229 342 241 351 221 331 192 302 163 273 134 244 105 215 76 186 59 169 69 176 98 205 127 234 156 263 185 292 214 321 243 347 236 340 207 311 178 282 149 253 120 224 91 195 66 170 84 185 113 214 142 243 171 272 200 301 229 330 245 343 222 320 193 291 164 262 135 233 106 204 77 175 74 172 98 193 127 222 156 251 185 280 214 309 243 338 248 340 236 328 207 299 178 270 149 241 120 212 91 183 81 173 113 202 142 231 171 260 200 289 229 318 251 337 222 308 193 279 164 250 135 221 106 192 90 176 99 182 128 211 157 240 186 269 215 298 244 327 254 334 236 316 207 287 178 258 149 229 120 200 99 179 105 182 113 190 142 219 171 248 200 277 229 306 257 331 251 325 222 296 193 267 164 238 135 209 113 187 116 189 130 203 143 216 135 204 124 195 128 199 139 210 143 216 148 219 157 228 186 257 215 286 244 315 259 330 259 330 244 315 215 286 186 257 157 228 148 219 151 222 168 212 184 202 201 193 218 183 234 173 251 163 251 163 242 157 246 161 266 181 268 186 254 172 230 151 233 154 261 182 271 192 274 198 268 192 239 163 223 150 246 173 277 204 253 183 224 154 214 147 232 165 261 194 279 212 268 204 239 175 209 148 217 156 246 185 275 214 280 219 253 195 224 166 204 149 231 176 260 205 280 225 268 216 239 187 210 158 199 150 217 168 246 197 275 226 281 232 253 207 224 178 195 152 202 159 231 188 260 217 282 239 267 227 238 198 209 169 191 154 217 180 246 209 275 238 283 246 253 219 224 190 195 161 187 156 202 171 231 200 260 229 282 251 267 239 238 210 209 181 183 158 187 162 216 191 245 220 274 249 282 257 253 231 224 202 195 173 180 161 202 183 231 212 260 241 282 263 267 251 238 222 209 193 177 164 187 174 216 203 245 232 274 261 281 268 252 242 223 213 194 184 174 167 202 195 231 224 260 253 281 274 267 263 238 234 209 205 180 176 172 171 187 186 216 215 245 244 274 273 281 280 252 254 223 225 194 196 170 175 172 177 201 206 230 235 259 264 280 285 267 275 238 246 209 217 180 188 167 178 187 198 216 227 245 256 274 285 280 291 252 266 223 237 194 208 164 181 172 189 201 218 230 247 259 276 280 297 266 286 237 257 208 228 179 199 162 185 187 210 216 239 245 268 274 297 279 302 252 278 223 249 194 220 165 191 160 189 172 201 201 230 230 259 259 288 279 308 266 298 237 269 208 240 179 211 158 193 186 221 215 250 244 279 273 308 278 313 252 290 223 261 194 232 165 203 157 198 172 213 201 242 230 271 259 300 278 319 266 310 237 281 208 252 179 223 156 203 186 233 215 262 244 291 273 320 277 324 251 301 222 272 193 243 164 214 155 208 172 225 201 254 230 283 259 312 273 326 266 322 237 293 208 264 179 235 153 212 157 216 186 245 215 274 244 303 268 327 251 313 222 284 193 255 164 226 152 217 171 236 200 265 229 294 258 323 264 329 261 329 237 305 208 276 179 247 152 220 151 222 153 224 151 222 " />
    <path id="Block4Jump3"
        fill="none"
        stroke="#C70155"
		stroke-width="2px"
		d="M 235 599 L 237 597 235 599 244 591 255 577 267 562 278 548 289 533 298 517 306 502 315 486 323 470 328 453 331 439 333 425 336 411 336 394 335 383 333 371 327 356 320 346 313 336 297 324 285 321 271 321 265 323 254 332 245 343 237 359 232 372 227 384 222 397 213 383 203 368 194 354 184 345 169 338 154 334 145 334 131 339 121 349 112 364 107 378 104 396 105 407 105 418 109 436 114 449 118 461 126 474 134 488 142 501 152 513 161 525 171 537 180 549 192 562 204 574 220 587 235 599 222 586 208 573 195 560 204 574 235 599 241 580 246 561 252 543 257 524 263 505 268 486 274 468 280 449 285 430 291 411 296 392 302 374 307 355 313 336 324 362 335 387 316 368 288 340 270 321 253 334 255 336 282 363 310 391 335 416 330 440 304 414 276 386 248 357 241 351 232 371 242 380 270 408 298 437 325 463 316 483 292 460 264 431 236 403 224 392 222 397 213 383 204 368 195 354 172 339 179 347 209 376 209 376 207 374 179 347 172 339 161 336 140 336 145 341 173 370 201 398 230 426 258 454 286 483 306 502 286 483 258 454 230 426 201 398 173 370 145 341 140 336 123 348 139 364 167 392 195 421 224 449 252 477 280 506 295 521 285 539 274 529 246 500 218 472 189 444 161 415 133 387 112 366 105 389 127 410 155 438 183 467 212 495 240 523 268 551 273 556 260 572 234 546 206 518 177 490 149 461 121 433 105 417 111 438 117 458 143 484 171 513 200 541 228 569 246 587 235 599 235 612 227 594 219 576 211 558 203 540 195 522 187 504 179 486 170 469 162 451 154 433 146 415 138 397 130 379 122 361 114 343 114 343 121 336 126 330 131 328 126 333 110 349 103 359 107 355 136 326 117 348 101 364 99 369 128 341 144 324 138 333 109 362 97 377 119 355 150 324 129 348 100 377 96 384 110 370 139 341 155 325 149 334 121 363 95 391 102 384 131 355 160 326 141 348 112 377 94 398 122 370 151 341 165 327 161 334 132 363 103 392 94 404 114 385 143 356 170 328 153 348 124 377 94 410 105 399 134 370 163 341 174 330 173 334 144 363 115 392 95 415 125 385 154 356 178 332 164 349 136 378 107 406 95 421 117 399 146 370 175 341 182 334 156 363 127 392 96 426 108 414 137 385 166 356 187 335 176 349 147 378 118 407 97 431 129 400 158 371 186 342 191 337 168 363 139 392 110 421 98 436 120 414 149 385 178 356 194 340 188 349 159 378 130 407 101 436 100 440 111 429 140 400 169 371 197 343 179 364 151 393 122 421 101 445 103 443 132 414 161 385 190 356 200 346 200 349 171 378 142 407 113 436 103 449 123 429 152 400 181 371 203 349 191 364 162 393 133 422 105 454 115 443 144 414 172 386 201 357 206 353 183 378 154 407 125 436 106 458 135 429 164 400 193 371 208 356 203 364 174 393 145 422 116 451 108 462 126 444 155 415 184 386 210 360 194 379 166 408 137 436 110 466 118 458 147 429 176 400 205 371 213 363 186 393 157 422 128 451 112 470 138 444 167 415 196 386 215 367 206 379 177 408 148 437 119 466 114 474 130 458 159 429 187 401 217 371 198 393 169 422 140 451 116 478 121 473 150 444 179 415 208 386 220 374 220 375 229 358 238 342 247 325 254 319 251 322 242 331 235 341 267 312 244 335 232 347 227 355 254 328 274 311 264 321 235 350 225 360 245 343 274 314 280 311 256 335 227 364 222 369 221 373 237 357 266 328 283 311 284 311 286 311 276 321 247 350 218 379 189 408 160 437 131 466 117 480 131 466 160 437 189 408 218 379 247 350 276 321 289 312 286 314 257 343 228 372 199 401 170 430 141 459 118 482 123 480 152 451 181 423 209 394 238 365 267 336 294 313 278 328 249 357 220 386 191 415 162 444 133 473 120 486 143 466 172 437 201 408 230 379 259 350 288 321 298 314 269 343 240 372 211 401 182 430 153 459 123 490 134 481 163 452 192 423 221 394 250 365 279 336 302 316 289 329 260 358 231 387 202 416 174 444 145 473 125 493 155 466 184 437 213 408 242 379 271 350 300 321 306 318 281 343 252 372 223 401 194 430 165 459 136 488 128 496 146 481 175 452 204 423 233 394 262 365 291 336 309 321 301 329 272 358 243 387 214 416 185 445 156 474 130 500 138 495 167 466 196 438 224 409 253 380 282 351 313 323 293 343 264 372 235 401 206 430 177 459 148 488 132 504 158 481 187 452 216 423 245 394 274 365 303 336 316 326 313 329 284 358 255 387 226 416 197 445 168 474 139 503 135 507 149 496 178 467 207 438 236 409 265 380 294 351 319 329 304 344 275 373 246 402 217 431 189 459 160 488 138 510 170 481 199 452 228 423 257 394 286 365 315 336 322 332 296 358 267 387 238 416 209 445 180 474 151 503 140 514 161 496 190 467 219 438 248 409 277 380 306 351 325 335 316 344 287 373 258 402 229 431 200 460 171 489 142 518 153 510 182 481 210 452 239 424 268 395 297 366 327 339 308 358 279 387 250 416 221 445 192 474 163 503 145 521 173 496 202 467 231 438 260 409 289 380 318 351 330 342 299 373 270 402 241 431 212 460 183 489 154 518 147 525 164 511 193 482 222 453 251 424 280 395 309 366 332 346 319 359 290 388 261 417 232 446 204 474 175 503 150 528 156 525 185 496 214 467 243 438 272 409 301 380 330 351 335 349 311 373 282 402 253 431 224 460 195 489 166 518 152 532 176 511 205 482 234 453 263 424 292 395 321 366 337 353 331 359 302 388 273 417 244 446 215 475 186 504 155 535 168 525 197 496 225 467 254 439 283 410 312 381 339 357 323 373 294 402 265 431 236 460 207 489 178 518 158 538 188 511 217 482 246 453 275 424 304 395 333 366 340 362 314 388 285 417 256 446 227 475 198 504 169 533 161 541 179 526 208 497 237 468 266 439 295 410 324 381 342 366 334 374 305 403 276 432 247 461 219 489 190 518 164 544 171 540 200 511 229 482 258 453 287 424 316 395 343 371 326 388 297 417 268 446 239 475 210 504 181 533 166 548 191 526 220 497 249 468 278 439 307 410 336 381 344 376 317 403 288 432 259 461 230 490 201 519 172 548 169 551 183 540 212 511 240 482 269 454 298 425 327 396 345 381 338 388 309 417 280 446 251 475 222 504 193 533 171 555 175 554 203 526 232 497 261 468 290 439 319 410 346 386 329 403 300 432 271 461 242 490 213 519 184 548 174 558 194 541 223 512 252 483 281 454 310 425 339 396 346 392 320 418 291 447 262 476 234 504 205 533 177 561 186 555 215 526 244 497 273 468 302 439 331 410 346 398 341 403 312 432 283 461 254 490 225 519 196 548 180 564 206 541 235 512 264 483 293 454 322 425 346 404 332 418 303 447 274 476 245 505 216 534 187 563 183 567 198 555 227 526 255 497 284 469 313 440 342 411 346 410 324 432 295 461 266 490 237 519 208 548 186 570 190 569 218 541 247 512 276 483 305 454 334 425 345 417 343 419 315 447 286 476 257 505 228 534 199 563 189 573 209 556 238 527 267 498 296 469 325 440 343 425 335 433 306 462 277 491 249 519 220 548 192 576 201 570 230 541 259 512 288 483 317 454 342 432 327 447 298 476 269 505 240 534 211 563 195 579 221 556 250 527 279 498 308 469 337 440 340 440 318 462 289 491 260 520 231 549 202 578 198 582 213 570 242 541 270 512 299 484 328 455 339 447 310 476 281 505 252 534 223 563 201 584 233 556 262 527 291 498 320 469 338 454 330 462 301 491 272 520 243 549 214 578 205 587 224 571 253 542 282 513 311 484 336 462 321 477 292 505 263 534 235 563 208 590 216 585 245 556 274 527 303 498 332 469 333 471 313 491 284 520 255 549 226 578 212 592 236 571 265 542 294 513 323 484 331 476 328 482 304 506 275 535 246 564 215 595 228 585 257 556 285 527 314 499 325 488 322 494 296 520 267 549 238 578 218 597 248 571 277 542 306 513 319 500 315 507 287 535 258 564 229 593 221 600 239 586 268 557 297 528 311 514 307 521 278 549 250 578 225 603 231 600 260 571 289 542 303 528 298 536 270 564 241 593 228 606 251 586 280 557 293 544 287 553 261 579 231 609 243 600 272 571 278 565 268 578 253 593 234 611 235 612 243 605 251 598 235 612 237 610 235 612 " />
    <path id="Block5Jump4"
        fill="none"
        stroke="#F993BC"
		stroke-width="2px"
		d="M 165 882 L 168 882 165 882 181 899 168 879 184 896 172 877 188 893 175 874 191 891 178 871 195 888 181 869 199 885 185 866 202 883 188 863 205 879 190 860 208 876 192 858 211 873 194 855 214 869 196 852 217 866 199 850 220 862 201 847 222 858 203 844 224 855 205 841 226 851 206 838 228 847 208 834 231 843 210 831 233 839 212 828 235 835 214 825 237 831 215 821 238 826 216 818 239 822 216 814 240 818 217 810 241 813 218 807 242 809 219 803 243 805 220 799 244 800 220 796 245 796 221 792 245 792 221 788 245 787 221 783 245 783 221 779 245 778 220 775 244 774 220 771 244 769 220 767 244 765 220 762 244 760 220 758 244 756 220 754 244 751 219 750 243 747 219 745 243 742 219 741 243 738 219 737 243 734 219 733 243 729 218 728 242 725 218 724 242 720 218 720 242 716 218 716 242 711 218 711 241 707 217 707 241 703 217 702 241 699 217 698 241 694 217 693 241 690 216 689 240 686 216 684 240 681 216 680 240 677 216 675 240 673 215 671 239 669 215 667 239 664 215 662 239 660 215 658 240 657 216 653 240 653 216 649 240 649 216 644 240 645 217 640 241 641 217 635 241 637 217 631 241 633 218 626 242 629 218 622 242 626 217 620 240 628 216 624 238 632 214 627 236 636 212 630 234 640 210 633 232 644 208 637 229 648 206 640 228 652 205 644 226 656 203 648 224 660 201 652 222 664 199 657 220 668 197 661 218 671 196 665 217 675 194 669 215 679 192 673 213 683 190 677 212 687 189 681 211 690 188 686 210 694 187 690 209 697 186 694 208 701 185 699 208 704 184 703 207 708 182 707 206 711 182 712 206 715 182 716 206 720 182 721 206 724 182 725 206 728 182 730 206 732 182 734 206 736 182 738 206 740 182 743 206 744 182 747 206 748 182 752 206 752 182 756 206 757 182 761 206 761 183 765 207 765 183 770 207 770 184 774 208 774 184 778 208 779 184 783 208 783 184 787 208 788 184 791 208 792 184 796 208 797 184 800 208 801 184 804 208 806 184 808 208 810 184 813 208 814 184 817 208 819 184 821 208 823 184 826 208 827 184 830 208 832 184 834 208 836 184 839 209 840 185 843 209 844 185 848 209 849 185 852 209 853 185 857 209 857 185 861 209 861 185 866 209 866 186 870 210 870 186 875 210 875 186 879 210 879 187 883 211 884 187 888 211 888 187 892 211 893 188 896 212 897 188 900 212 901 188 903 212 906 188 907 213 910 189 911 213 915 189 915 213 919 188 919 212 924 188 923 211 928 187 926 210 933 186 930 210 937 185 933 209 941 184 937 207 946 184 939 206 950 183 942 205 954 182 945 203 958 181 948 200 962 179 949 198 965 178 951 195 969 176 953 192 972 175 955 189 975 173 956 185 977 171 957 180 979 168 958 176 980 165 959 172 982 171 979 172 982 "/>
    <path id="Block5Jump5"
        fill="none"
        stroke="#F993BC"
		stroke-width="2px"
		d="M 302 852 L 303 849 302 852 319 834 300 849 316 831 297 846 313 827 295 843 310 824 292 841 307 821 289 838 303 819 286 836 299 816 283 834 296 813 280 832 293 811 277 829 290 809 273 826 288 807 270 823 286 805 266 820 283 804 263 817 281 802 260 814 279 799 258 810 278 796 257 806 277 793 256 801 277 791 255 797 276 788 253 793 275 785 252 788 274 781 251 784 273 777 249 780 272 773 248 776 271 769 246 771 270 765 246 767 270 761 246 763 270 757 246 758 270 753 246 754 270 749 246 749 270 746 246 745 270 742 246 740 270 738 246 736 270 734 246 732 270 729 246 728 271 725 247 724 271 720 247 720 271 716 247 716 270 711 246 712 270 707 246 708 269 702 245 704 269 698 244 700 268 694 244 696 267 689 242 691 266 685 241 687 265 681 240 683 263 676 239 678 262 672 238 674 262 668 237 670 261 663 237 665 260 659 236 661 260 655 235 657 258 650 234 653 257 646 233 649 256 642 232 645 255 637 231 641 254 633 230 637 253 629 229 634 252 624 228 630 250 620 228 626 249 616 228 624 251 618 230 628 253 621 232 632 255 625 234 636 257 629 236 640 259 632 238 644 261 636 240 648 263 640 241 652 264 644 243 655 266 649 244 659 267 653 246 663 268 657 247 667 270 661 249 671 272 664 251 675 274 668 253 679 275 672 254 683 277 675 256 687 279 679 258 691 281 684 260 694 283 688 261 698 284 692 263 701 285 696 263 705 287 700 264 708 288 705 265 711 289 709 265 714 289 713 266 718 290 718 266 721 290 722 266 724 290 727 266 728 289 731 265 732 289 736 265 735 289 740 264 739 288 744 264 743 288 749 263 747 286 753 262 751 285 757 261 756 284 762 260 760 283 766 259 764 282 770 258 769 282 775 257 773 281 779 257 777 281 783 257 782 280 788 256 786 280 792 256 791 280 796 255 795 279 800 255 800 279 805 255 804 278 809 254 809 278 813 254 813 278 817 253 817 277 822 253 822 277 826 253 826 277 830 252 831 276 834 252 835 276 838 252 840 276 842 252 844 276 846 251 848 275 850 251 853 275 854 251 857 275 859 251 862 274 863 250 866 274 867 250 871 274 871 251 875 275 874 252 879 276 878 253 884 277 881 254 888 278 884 256 892 279 888 257 897 280 891 258 901 281 895 260 905 282 898 261 909 284 902 263 913 286 906 264 918 287 909 266 922 289 913 268 926 290 916 269 930 292 920 271 934 294 923 274 937 297 927 277 941 299 930 280 945 302 933 282 948 304 936 285 952 307 940 288 955 309 943 307 945 309 943 "/>
    <path id="Block5Jump6"
        fill="none"
        stroke="#F993BC"
		stroke-width="2px"
		d="M 240 598 L 243 598 240 598 258 615 243 595 261 612 247 592 264 609 250 589 268 606 253 586 271 603 257 583 274 600 260 580 278 597 263 577 281 594 267 575 284 591 270 572 288 588 273 569 291 585 277 566 294 582 280 563 297 579 283 560 301 576 287 557 303 574 290 554 306 572 294 552 309 570 297 549 311 568 301 547 314 566 305 545 317 565 309 543 320 564 313 541 323 563 317 539 326 562 321 538 329 561 326 536 331 560 330 536 334 560 334 536 337 560 339 536 339 559 343 535 342 559 348 535 345 559 352 536 346 560 356 538 347 560 360 540 348 561 364 542 349 561 368 545 350 562 371 548 351 564 372 552 352 566 374 556 352 569 376 561 353 571 377 565 354 573 378 569 354 575 378 574 354 576 379 578 355 578 379 582 355 580 379 587 354 582 377 591 353 585 375 595 351 588 373 599 350 590 371 603 349 593 369 607 348 595 367 611 347 597 364 615 345 599 360 617 343 600 357 620 341 601 353 622 339 603 349 624 337 604 345 626 334 605 341 627 332 605 337 629 329 606 332 630 326 607 328 631 323 608 324 632 320 608 319 632 316 608 315 632 312 608 310 632 308 608 306 632 305 608 302 632 301 608 297 632 297 608 293 632 293 607 288 631 289 607 284 631 285 607 279 630 282 606 275 630 278 606 271 630 274 605 266 629 270 605 263 628 266 603 259 627 261 602 256 626 257 601 253 624 253 600 249 623 248 598 246 622 244 597 246 621 246 596 251 620 248 595 255 619 251 595 259 618 256 594 264 617 260 593 268 616 264 592 272 615 269 591 277 614 273 589 281 612 277 588 285 611 281 586 289 609 285 584 293 607 289 583 297 606 294 582 301 605 298 581 305 605 302 580 309 604 307 580 313 603 311 579 317 603 316 578 321 602 320 578 325 602 324 578 329 601 329 577 333 601 333 577 336 601 338 577 340 601 342 577 343 601 347 577 347 601 351 578 349 602 355 579 352 602 360 580 355 603 364 581 358 603 368 582 359 604 372 585 361 605 376 587 362 605 380 589 363 606 382 593 364 608 384 597 364 609 386 601 365 610 388 605 366 614 389 609 367 617 390 613 367 620 392 617 368 623 392 622 368 624 392 626 368 626 392 631 368 628 391 635 368 629 390 639 367 630 388 643 366 631 386 648 365 633 383 650 364 634 379 653 362 635 376 656 361 637 372 658 359 638 368 661 357 639 364 662 354 640 360 663 351 641 355 664 348 641 351 666 345 642 347 666 342 642 342 666 339 642 338 666 336 642 333 667 332 643 329 667 329 643 325 667 326 643 320 667 323 642 316 665 319 641 312 664 316 639 308 662 312 638 303 660 309 637 299 659 306 636 295 657 302 634 291 656 299 633 287 654 295 631 283 652 292 629 279 649 289 627 275 647 285 625 271 645 282 623 268 643 278 621 264 641 275 619 260 638 271 617 256 636 268 615 252 634 265 613 249 631 262 610 245 628 259 608 242 626 256 606 238 623 253 603 235 620 237 618 235 620 "/>
    <path id="Block5Jump7"
        fill="none"
        stroke="#F993BC"
		stroke-width="2px"
		d="M 221 620 L 220 617 221 620 231 597 217 618 227 595 214 616 223 593 210 614 219 591 206 612 215 589 203 610 211 587 199 607 207 584 195 605 204 582 192 603 200 580 188 601 196 579 183 600 191 577 179 598 187 575 175 596 183 573 171 594 179 571 167 592 175 569 163 590 171 567 159 588 167 565 156 586 164 563 152 584 160 561 148 582 156 559 144 580 151 558 140 579 147 556 136 578 143 555 132 576 138 554 129 576 134 552 126 575 130 551 124 574 126 550 120 574 121 550 117 574 117 550 114 574 112 550 112 574 108 550 109 574 103 550 107 574 99 550 105 574 95 552 103 575 91 554 101 576 87 557 99 578 84 559 97 579 80 562 96 580 78 566 95 582 75 569 94 584 72 573 92 585 70 577 92 587 69 581 91 590 67 585 90 592 66 589 90 594 66 594 90 597 66 598 90 599 66 603 90 601 66 607 90 604 66 612 90 606 67 616 91 608 70 620 92 610 73 623 93 612 75 627 94 613 78 631 96 615 80 634 97 617 84 637 100 618 88 639 102 619 92 641 104 620 96 644 106 622 99 646 109 622 104 646 113 623 108 647 116 623 113 647 120 624 117 648 123 624 122 648 127 624 126 649 131 625 131 649 134 625 135 649 138 625 140 649 142 625 144 649 145 625 148 649 149 625 153 649 153 625 157 649 156 624 162 648 160 624 166 648 163 624 171 647 167 623 175 647 171 622 179 645 174 621 183 643 178 619 187 641 181 618 191 640 185 617 196 638 189 616 200 637 193 614 204 636 197 613 209 634 201 612 213 632 204 610 216 630 207 608 220 628 210 606 224 626 213 604 228 624 216 602 230 622 219 600 231 621 223 597 228 621 219 597 224 621 216 597 219 621 212 597 215 621 209 598 210 622 205 598 206 622 202 598 201 622 199 598 197 622 195 598 193 622 191 598 188 621 186 597 184 621 182 597 179 621 178 597 175 620 174 596 170 620 170 596 166 620 165 595 162 619 161 595 157 619 157 595 155 619 152 595 152 619 148 594 149 618 143 594 146 618 139 594 144 619 135 596 141 620 131 598 139 621 127 600 137 622 123 602 135 624 119 605 132 625 116 608 130 627 112 610 128 629 109 613 126 631 106 617 124 633 104 621 123 635 101 624 122 637 99 628 120 640 97 632 119 643 96 636 118 646 94 641 117 649 93 645 117 651 93 649 117 653 92 654 116 656 92 658 116 658 93 663 117 660 94 667 117 663 94 671 117 666 95 676 118 668 97 680 118 669 99 684 118 669 102 687 118 669 104 691 119 669 109 692 121 670 113 693 123 671 118 694 125 671 122 695 127 672 126 696 130 672 131 696 133 672 135 696 136 672 140 696 139 672 144 696 142 672 148 695 144 671 153 693 147 670 157 692 149 669 161 690 152 668 165 688 155 666 169 686 158 665 173 684 161 663 177 681 164 660 180 678 166 657 183 675 169 654 186 672 172 652 189 668 174 649 192 665 178 646 195 662 181 643 198 659 184 640 202 656 187 637 205 653 190 634 208 650 193 631 211 647 195 628 214 643 198 625 217 640 201 622 220 637 204 619 223 634 207 616 226 631 210 613 229 628 214 610 232 625 217 607 235 622 220 604 222 606 220 604 "/>
    <path id="Block5Jump8"
        fill="none"
        stroke="#F993BC"
		stroke-width="2px"
		d="M 226 604 L 224 606 226 604 222 609 226 604 228 602 228 602 226 604 235 615 243 626 243 626 247 619 239 627 241 622 247 613 233 627 247 607 239 615 228 626 229 622 245 603 225 623 238 607 240 602 228 614 222 620 234 602 221 615 228 602 222 609 226 604 224 606 226 604 " />
</svg>
