<?xml version="1.0" encoding="UTF-8" standalone="no"?>
<svg xmlns="http://www.w3.org/2000/svg" version="1.1" width="991" height="946">
    <path id="Block1Jump0"
        fill="none"
        stroke="#FFC864"
		stroke-width="2px"
		d="M 196 620 L 195 623 196 620 190 632 184 644 178 656 172 667 166 679 160 691 154 703 150 716 146 728 142 741 138 753 134 766 130 778 130 793 130 807 129 822 129 836 129 851 141 850 153 850 165 849 177 849 190 845 203 841 215 838 228 834 241 830 254 826 267 822 280 818 293 813 306 809 319 805 332 801 344 796 356 790 368 785 380 779 392 774 404 768 416 763 429 757 441 750 454 744 466 738 479 732 491 725 504 719 516 711 528 704 540 696 552 688 564 681 576 673 588 666 600 658 610 650 620 642 630 634 641 625 651 617 661 609 671 601 682 591 693 582 704 572 715 563 726 553 737 544 748 534 759 525 769 515 779 505 789 495 799 485 809 476 819 466 829 456 839 446 848 435 857 424 866 413 876 402 885 391 894 380 903 369 911 359 918 348 926 338 934 327 942 317 949 306 957 296 961 283 965 270 968 258 972 245 959 241 947 236 934 232 920 229 905 226 891 222 876 219 862 216 847 215 833 214 818 213 803 213 789 212 774 211 761 213 747 215 734 217 720 219 707 221 700 209 693 197 686 185 679 173 673 161 666 149 659 137 652 125 645 113 638 101 630 89 623 77 615 65 608 53 601 41 593 29 586 17 572 15 558 14 546 18 534 23 521 27 509 32 497 36 485 42 473 48 461 54 449 60 437 65 425 71 413 77 401 83 389 89 377 97 366 104 354 112 342 119 331 127 319 135 307 142 296 150 284 157 272 165 261 172 249 180 238 189 226 198 215 208 204 217 192 226 181 235 170 245 158 254 147 263 137 273 128 282 118 292 109 301 99 311 90 320 80 330 71 339 63 350 54 361 46 371 37 382 29 393 25 405 21 418 17 430 27 440 36 451 46 461 56 471 66 482 75 492 85 503 95 513 105 523 114 534 124 544 133 554 142 563 151 573 161 582 170 592 179 601 188 611 197 620 190 633 184 645 177 658 171 670 172 667 171 670 " />
    <path id="Block2Jump1"
        fill="none"
        stroke="#FFC896"
		stroke-width="2px"
		d="M 196 620 L 196 620 195 623 196 620 190 632 184 644 178 656 172 667 166 679 160 691 154 703 150 716 146 728 142 741 138 753 134 766 130 778 130 793 130 807 129 822 129 836 129 851 141 850 153 850 165 849 177 849 190 845 203 841 215 838 228 834 241 830 254 826 267 822 280 818 293 813 306 809 319 805 332 801 344 796 356 790 368 785 380 779 392 774 404 768 416 763 429 757 441 750 454 744 466 738 479 732 491 725 504 719 516 711 528 704 540 696 552 688 564 681 576 673 588 666 600 658 610 650 620 642 630 634 641 625 651 617 661 609 671 601 682 591 693 582 704 572 715 563 726 553 737 544 748 534 759 525 769 515 779 505 789 495 799 485 809 476 819 466 829 456 839 446 848 435 857 424 866 413 876 402 885 391 894 380 903 369 911 359 918 348 926 338 934 327 942 317 949 306 957 296 961 283 965 270 968 258 972 245 959 241 947 236 934 232 920 229 905 226 891 222 876 219 862 216 847 215 833 214 818 213 803 213 789 212 774 211 761 213 747 215 734 217 720 219 707 221 700 209 693 197 686 185 679 173 673 161 666 149 659 137 652 125 645 113 638 101 630 89 623 77 615 65 608 53 601 41 593 29 586 17 572 15 558 14 546 18 534 23 521 27 509 32 497 36 485 42 473 48 461 54 449 60 437 65 425 71 413 77 401 83 389 89 377 97 366 104 354 112 342 119 331 127 319 135 307 142 296 150 284 157 272 165 261 172 249 180 238 189 226 198 215 208 204 217 192 226 181 235 170 245 158 254 147 263 137 273 128 282 118 292 109 301 99 311 90 320 80 330 71 339 63 350 54 361 46 371 37 382 29 393 25 405 21 418 17 430 27 440 36 451 46 461 56 471 66 482 75 492 85 503 95 513 105 523 114 534 124 544 133 554 142 563 151 573 161 582 170 592 179 601 188 611 197 620 190 633 184 645 177 658 171 670 172 667 171 670 " />
    <path id="Block3Jump2"
        fill="none"
        stroke="#F993BC"
		stroke-width="2px"
		d="M 455 443 L 455 443 458 442 455 443 470 458 458 440 473 455 461 438 476 453 464 435 479 450 467 433 482 447 470 430 485 445 473 427 488 442 476 425 491 440 479 422 494 437 482 420 497 434 485 417 500 432 488 415 503 429 491 412 506 427 493 409 509 424 496 407 512 421 499 404 515 419 502 402 518 416 505 399 521 414 508 396 524 411 511 394 527 409 514 391 530 406 517 389 533 403 520 386 536 400 523 383 539 398 526 381 542 395 529 378 545 393 532 376 548 390 535 373 551 387 538 371 554 385 541 368 556 382 544 366 559 380 547 363 562 377 550 361 565 375 553 358 568 372 556 356 571 369 559 353 574 367 562 351 577 364 565 348 580 362 567 346 583 359 570 343 586 356 573 341 589 354 576 338 592 351 579 336 595 349 582 333 598 346 585 330 601 343 588 328 603 341 591 325 606 338 594 323 609 336 597 320 612 333 600 318 615 330 603 315 618 328 605 312 621 325 608 309 624 322 611 307 627 319 614 304 629 317 617 301 632 314 620 299 635 311 623 296 638 309 625 293 641 306 628 291 644 303 631 288 647 301 634 285 649 298 637 282 652 295 640 280 655 292 643 277 658 290 645 274 661 287 648 272 664 284 651 269 667 282 654 266 669 279 657 264 672 276 660 261 675 274 663 258 678 271 665 255 681 268 668 253 684 265 671 250 687 263 674 247 689 260 677 245 692 257 680 242 695 255 683 239 698 252 685 237 701 249 688 234 704 247 691 231 707 244 694 228 709 241 697 226 712 238 700 223 715 236 703 220 718 233 716 231 718 233 "/>
    <path id="Block3Jump3"
        fill="none"
        stroke="#F993BC"
		stroke-width="2px"
		d="M 693 229 L 693 229 692 226 693 229 718 211 691 226 716 208 689 222 714 204 687 219 712 201 685 216 710 197 683 212 707 193 681 209 705 190 679 206 703 186 677 202 701 183 675 199 699 179 673 195 697 176 671 192 695 172 669 189 693 169 667 185 691 165 665 182 688 161 663 179 686 158 661 175 684 154 659 172 682 151 657 169 680 147 656 165 678 144 654 162 676 140 652 159 674 137 650 155 672 133 648 152 669 129 646 149 667 126 644 145 665 122 642 142 663 119 640 139 661 115 638 135 659 112 636 132 657 108 634 128 655 105 632 125 653 101 630 122 650 97 628 118 648 94 626 115 646 90 624 112 644 87 622 108 642 83 620 105 640 80 618 102 638 76 616 98 636 73 614 95 634 69 612 92 631 65 610 88 629 62 608 85 627 58 606 82 625 55 604 78 623 51 602 75 621 48 600 71 619 44 598 68 617 41 596 65 615 37 594 61 612 33 592 58 610 30 590 55 608 26 588 51 606 23 586 48 604 19 584 45 602 16 582 41 600 12 581 38 598 9 579 35 596 5 576 32 592 3 575 32 588 3 574 31 584 2 572 31 580 2 571 31 576 1 570 31 571 1 568 30 567 0 567 30 563 1 564 31 559 2 561 32 556 3 559 32 552 4 556 33 548 5 553 34 544 6 550 35 540 8 547 36 536 9 543 37 533 10 540 39 529 11 536 40 525 12 533 41 522 13 529 42 518 15 526 43 514 16 522 44 510 17 519 46 507 18 515 47 503 19 512 48 499 21 508 49 496 22 505 50 492 23 501 52 488 24 498 53 484 25 494 54 481 26 491 55 477 28 487 57 473 30 484 58 470 31 480 60 466 33 477 62 463 35 474 63 459 37 470 65 456 38 467 67 452 40 463 68 449 42 460 70 445 44 456 72 442 45 453 73 438 47 450 75 435 49 446 77 431 51 443 78 428 52 439 80 424 54 436 82 421 56 432 83 417 57 429 85 414 59 426 87 410 61 422 88 407 63 419 90 403 64 415 92 400 66 412 93 396 68 408 95 393 70 405 97 389 71 401 98 386 73 398 100 382 75 395 102 379 77 392 104 376 79 389 106 372 82 385 108 369 84 382 110 366 86 379 112 363 88 376 114 359 90 372 116 356 92 369 118 353 94 366 120 349 96 363 122 346 98 360 124 343 101 356 126 339 103 353 128 336 105 350 130 333 107 347 133 330 109 343 135 326 111 340 137 323 113 337 139 320 115 334 141 316 117 331 143 313 119 327 145 310 122 324 147 306 124 320 149 303 126 317 151 300 129 314 154 296 131 311 156 293 133 308 158 290 135 305 160 287 138 302 163 284 140 299 165 281 142 296 167 277 144 293 169 274 147 290 172 271 149 287 174 268 151 284 176 265 153 281 178 262 156 277 181 258 158 274 183 255 160 271 185 252 162 268 187 249 165 265 190 246 167 262 192 243 169 259 194 239 171 256 196 236 173 253 199 233 176 250 201 230 178 247 203 227 180 244 206 224 183 241 208 220 185 237 210 217 187 234 213 214 190 231 215 211 192 228 217 208 194 225 220 205 197 222 222 201 199 219 224 198 201 216 227 195 204 213 229 192 206 210 231 189 208 207 234 186 211 204 236 183 213 201 238 179 215 198 241 176 218 194 243 173 220 191 245 170 222 189 247 167 225 186 250 164 227 183 252 161 230 180 255 158 233 177 258 156 235 175 260 153 238 172 263 150 241 169 265 147 243 166 268 144 246 163 270 141 249 161 273 138 251 158 276 135 254 155 278 132 257 152 281 129 259 149 283 127 262 147 286 124 265 144 288 121 267 141 291 118 270 138 294 115 273 135 296 112 275 133 299 109 278 130 301 106 281 127 304 104 284 124 307 101 287 122 310 98 290 119 312 96 292 117 315 93 295 114 318 91 298 111 321 88 301 109 323 85 304 106 326 83 307 103 329 80 310 101 332 77 313 98 334 75 316 96 337 72 318 93 340 70 321 91 342 67 324 88 345 65 327 86 348 62 330 83 351 59 333 81 354 57 336 78 356 54 339 75 359 51 341 73 362 49 344 70 365 46 347 68 368 43 350 65 370 41 353 63 373 38 356 60 376 35 359 58 379 33 362 55 382 30 365 53 384 27 368 50 387 25 371 49 390 23 375 47 392 21 378 46 395 19 381 44 397 17 385 42 400 15 388 41 403 13 392 39 406 12 395 38 408 10 399 37 411 8 402 35 414 7 406 35 416 6 410 34 417 5 414 34 419 4 418 33 420 3 422 33 422 2 426 33 423 1 430 32 425 0 434 34 426 3 437 36 429 6 440 38 431 8 443 40 433 11 446 41 436 14 450 43 438 16 453 45 440 19 456 47 443 22 459 49 445 24 462 51 447 27 465 53 449 30 469 55 452 32 472 56 454 35 475 58 456 38 478 61 459 41 480 64 462 43 483 67 464 46 486 69 467 49 489 72 469 52 491 75 472 55 494 77 475 58 497 80 477 60 499 83 480 63 502 86 482 66 505 88 485 69 508 91 488 72 510 94 490 75 513 96 493 77 516 99 495 80 519 102 498 83 521 105 501 86 524 88 522 86 524 "/>
    <path id="Block3Jump4"
        fill="none"
        stroke="#F993BC"
		stroke-width="2px"
		d="M 110 532 L 110 532 112 534 110 532 122 544 135 557 147 569 160 582 172 594 185 607 197 619 188 636 179 654 170 671 163 689 156 706 157 703 156 706 "/>
    <path id="Block3Jump5"
        fill="none"
        stroke="#F993BC"
		stroke-width="2px"
		d="M 163 724 L 163 724 161 726 163 724 134 716 162 728 133 720 161 731 132 723 160 735 130 727 158 738 129 731 157 742 128 734 156 745 126 738 155 749 125 742 154 752 124 745 153 756 123 749 151 759 121 753 150 763 120 757 149 766 119 760 148 769 118 764 148 772 118 768 147 776 117 772 147 779 116 776 146 782 116 780 145 785 115 784 145 789 115 787 144 792 114 791 144 796 114 795 144 799 114 799 144 803 114 803 144 806 114 807 144 810 114 811 144 814 114 815 144 817 114 819 144 820 114 824 144 821 115 828 144 823 115 833 144 824 115 838 144 826 115 842 145 828 116 847 145 829 116 852 145 831 116 856 145 832 116 861 145 834 117 865 145 835 117 870 147 836 122 869 149 835 127 868 152 835 131 868 154 834 136 867 157 834 140 866 159 834 145 866 162 833 150 865 165 833 154 865 167 832 159 864 170 832 164 863 172 831 168 863 175 831 173 862 178 831 177 861 180 830 182 861 183 830 187 860 185 829 191 859 188 829 196 858 192 828 200 857 195 827 203 856 199 826 207 855 202 825 211 854 206 824 215 853 210 823 218 852 213 822 222 851 217 821 226 850 220 820 230 849 224 819 234 848 228 818 237 847 231 817 241 845 235 816 245 844 238 815 249 843 242 814 252 842 245 813 256 841 249 812 260 840 253 811 264 839 256 810 267 838 260 809 271 837 263 808 275 836 267 807 279 835 271 806 283 833 275 805 287 832 278 803 290 831 282 802 294 830 285 801 298 828 289 800 301 827 293 798 305 826 296 797 309 824 300 796 312 823 303 795 316 822 307 793 320 821 311 792 323 819 314 791 327 818 318 789 331 817 321 788 335 815 325 787 338 814 329 786 342 813 332 784 346 812 336 783 349 810 339 782 353 809 343 780 357 808 346 779 361 806 350 777 364 805 354 776 368 803 357 774 371 801 361 773 375 800 364 771 379 798 368 770 382 797 371 768 386 795 375 767 389 793 378 765 393 792 382 764 396 790 385 762 400 789 389 761 403 787 392 759 407 785 396 758 411 784 399 756 414 782 402 755 418 781 406 753 421 779 409 752 425 777 413 750 428 776 416 749 432 774 420 747 435 773 423 746 439 771 426 744 442 769 430 742 446 767 433 740 449 765 437 739 453 764 440 737 456 762 443 735 460 760 447 733 463 758 450 731 466 756 453 729 470 754 457 727 473 752 460 725 477 751 464 724 480 749 467 722 484 747 470 720 487 745 474 718 491 743 477 716 494 741 480 714 498 739 484 712 501 737 487 711 505 736 491 709 508 734 494 707 511 732 497 705 515 730 501 703 518 728 504 701 522 726 507 699 525 724 510 697 528 722 514 695 532 720 517 693 535 718 520 691 538 715 523 689 542 713 527 687 545 711 530 685 548 709 533 683 552 707 536 681 555 705 540 679 558 703 543 677 562 701 546 675 565 699 549 673 568 697 553 671 572 695 556 669 575 693 559 667 578 691 562 665 582 689 566 663 585 686 569 661 588 684 572 659 592 682 575 657 595 680 579 655 599 678 582 653 602 675 585 650 605 673 588 648 608 671 591 645 611 668 594 643 614 666 597 641 617 663 600 638 620 661 603 636 623 659 606 634 626 656 609 631 629 654 612 629 632 652 615 626 636 649 618 624 639 647 621 622 642 644 624 619 645 642 627 617 648 640 630 614 651 637 633 612 654 635 636 610 657 632 639 607 660 630 642 605 663 627 645 602 666 625 648 600 669 622 651 597 672 619 654 595 675 617 657 592 678 614 659 590 681 612 662 587 684 609 665 585 687 606 668 582 690 604 671 580 693 601 674 577 695 599 677 575 698 596 680 572 701 594 683 570 704 591 686 567 707 588 689 565 710 586 691 563 713 583 694 560 716 581 697 558 719 578 700 555 722 576 703 552 725 573 706 550 728 571 709 547 731 568 712 545 734 565 715 542 737 563 718 539 740 560 721 537 743 558 724 534 746 555 727 532 748 552 730 529 751 550 733 527 754 547 736 524 757 545 739 521 760 542 742 519 763 540 745 516 766 537 748 514 769 534 751 511 772 532 753 509 775 529 756 506 778 526 759 503 780 524 762 501 783 521 764 498 786 518 767 495 789 515 770 493 792 513 772 490 794 510 775 487 797 507 778 485 800 504 781 482 803 502 783 479 806 499 786 477 808 496 789 474 811 493 791 471 814 491 794 469 817 488 797 466 820 485 800 463 822 482 802 461 825 480 805 458 828 477 808 455 831 474 810 453 834 471 813 450 837 468 816 447 839 465 818 444 842 462 821 441 845 460 824 438 847 457 826 435 850 454 829 432 853 451 831 429 855 448 834 427 858 445 836 424 860 442 839 421 863 439 842 418 866 437 844 415 868 434 847 412 871 431 849 409 874 428 852 406 876 425 854 404 879 422 857 401 882 419 860 398 884 416 862 395 887 414 865 392 890 411 867 389 892 408 870 386 895 405 872 383 898 402 875 381 900 399 878 378 903 396 880 375 905 393 882 372 908 390 885 369 910 387 887 366 912 383 889 363 915 380 892 360 917 377 894 357 919 374 896 354 922 371 899 351 924 368 901 348 926 365 903 345 928 361 906 342 931 358 908 339 933 355 910 336 935 352 913 333 938 349 915 330 940 346 917 327 942 342 920 324 945 339 922 321 947 336 924 318 949 333 926 315 952 330 929 312 954 326 931 309 956 323 933 306 958 320 934 303 960 316 936 300 962 313 938 297 964 310 940 294 966 307 942 291 968 303 944 287 970 300 946 284 972 296 947 281 974 293 948 278 975 289 949 275 977 285 950 272 978 282 951 269 979 278 952 266 981 275 953 263 982 271 953 262 983 266 954 261 984 262 954 260 985 257 954 259 987 253 954 258 988 248 954 257 989 244 955 256 990 239 955 255 991 235 955 255 987 234 954 254 982 232 953 254 978 231 952 253 974 230 950 253 969 228 949 252 965 227 948 252 961 225 947 251 957 224 946 251 952 223 942 250 948 222 939 249 945 221 935 248 941 220 932 248 937 219 928 247 933 218 924 246 929 217 921 245 926 216 917 244 922 215 914 243 918 214 910 242 914 213 906 242 910 212 903 241 907 211 899 240 903 210 896 239 899 209 892 238 895 208 888 237 891 207 885 236 888 206 881 236 884 205 878 235 880 204 874 234 876 204 870 233 872 203 866 233 868 203 863 233 864 203 859 232 860 202 855 232 857 202 851 232 853 202 847 231 849 201 844 231 845 201 840 231 841 200 836 230 837 200 832 230 833 200 828 230 829 199 825 229 825 199 821 229 821 199 817 229 818 198 813 228 814 198 809 228 810 198 806 228 806 197 802 227 802 197 798 227 798 197 795 227 794 197 791 227 790 197 787 227 786 197 784 227 782 197 780 227 778 198 777 228 774 198 773 228 771 198 769 228 767 198 766 228 763 198 762 228 759 198 758 228 755 198 755 228 751 199 751 229 747 199 748 229 743 200 744 230 739 200 740 230 735 201 737 231 732 201 733 232 728 202 729 232 724 202 725 233 720 203 722 233 716 203 718 234 712 204 712 207 712 204 " />
    <path id="Block4Jump6"
        fill="none"
        stroke="#F64A8A"
		stroke-width="2px"
		d="M 218 518 L 218 518 216 516 218 518 208 507 199 497 189 486 180 476 170 465 161 455 151 444 145 432 139 420 133 408 129 397 126 385 122 374 119 363 117 350 115 337 113 323 111 310 109 297 109 283 109 270 109 256 109 242 109 228 109 215 109 201 109 204 109 201 "/>
    <path id="Block4Jump7"
        fill="none"
        stroke="#F64A8A"
		stroke-width="2px"
		d="M 111 194 L 111 194 111 191 111 194 111 179 111 163 111 148 103 137 95 126 83 135 83 146 83 156 91 168 99 181 107 193 118 185 129 177 137 169 144 161 145 151 145 141 137 133 126 141 116 149 100 143 85 137 104 140 122 143 141 146 139 154 121 152 103 150 85 148 84 156 103 157 121 159 140 160 134 168 120 167 107 166 93 165 95 171 111 175 127 179 120 185 110 182 100 180 94 166 88 151 83 137 77 123 71 152 84 116 72 159 88 115 75 165 92 113 77 171 96 113 81 176 99 114 "/>
    <path id="Block4Jump8"
        fill="none"
        stroke="#F64A8A"
		stroke-width="2px"
		d="M 84 180 L "/>
    <path id="Block4Jump9"
        fill="none"
        stroke="#F64A8A"
		stroke-width="2px"
		d="M 103 115 L "/>
    <path id="Block4Jump10"
        fill="none"
        stroke="#F64A8A"
		stroke-width="2px"
		d="M 88 185 L "/>
    <path id="Block4Jump11"
        fill="none"
        stroke="#F64A8A"
		stroke-width="2px"
		d="M 106 118 L "/>
    <path id="Block4Jump12"
        fill="none"
        stroke="#F64A8A"
		stroke-width="2px"
		d="M 91 188 L "/>
    <path id="Block4Jump13"
        fill="none"
        stroke="#F64A8A"
		stroke-width="2px"
		d="M 109 122 L "/>
    <path id="Block4Jump14"
        fill="none"
        stroke="#F64A8A"
		stroke-width="2px"
		d="M 95 192 L "/>
    <path id="Block4Jump15"
        fill="none"
        stroke="#F64A8A"
		stroke-width="2px"
		d="M 111 126 L "/>
    <path id="Block4Jump16"
        fill="none"
        stroke="#F64A8A"
		stroke-width="2px"
		d="M 99 196 L "/>
    <path id="Block4Jump17"
        fill="none"
        stroke="#F64A8A"
		stroke-width="2px"
		d="M 114 129 L "/>
    <path id="Block4Jump18"
        fill="none"
        stroke="#F64A8A"
		stroke-width="2px"
		d="M 102 200 L "/>
    <path id="Block4Jump19"
        fill="none"
        stroke="#F64A8A"
		stroke-width="2px"
		d="M 116 132 L "/>
    <path id="Block4Jump20"
        fill="none"
        stroke="#F64A8A"
		stroke-width="2px"
		d="M 106 205 L 115 191 124 177 133 163 144 149 158 138 150 170 158 137 143 178 156 130 136 185 154 126 130 189 "/>
    <path id="Block4Jump21"
        fill="none"
        stroke="#F64A8A"
		stroke-width="2px"
		d="M 151 124 L "/>
    <path id="Block4Jump22"
        fill="none"
        stroke="#F64A8A"
		stroke-width="2px"
		d="M 125 193 L "/>
    <path id="Block4Jump23"
        fill="none"
        stroke="#F64A8A"
		stroke-width="2px"
		d="M 148 122 L "/>
    <path id="Block4Jump24"
        fill="none"
        stroke="#F64A8A"
		stroke-width="2px"
		d="M 120 196 L "/>
    <path id="Block4Jump25"
        fill="none"
        stroke="#F64A8A"
		stroke-width="2px"
		d="M 144 120 L "/>
    <path id="Block4Jump26"
        fill="none"
        stroke="#F64A8A"
		stroke-width="2px"
		d="M 117 199 L "/>
    <path id="Block4Jump27"
        fill="none"
        stroke="#F64A8A"
		stroke-width="2px"
		d="M 140 119 L "/>
    <path id="Block4Jump28"
        fill="none"
        stroke="#F64A8A"
		stroke-width="2px"
		d="M 113 201 L "/>
    <path id="Block4Jump29"
        fill="none"
        stroke="#F64A8A"
		stroke-width="2px"
		d="M 135 119 L "/>
    <path id="Block4Jump30"
        fill="none"
        stroke="#F64A8A"
		stroke-width="2px"
		d="M 110 203 L "/>
    <path id="Block4Jump31"
        fill="none"
        stroke="#F64A8A"
		stroke-width="2px"
		d="M 130 121 L "/>
    <path id="Block4Jump32"
        fill="none"
        stroke="#F64A8A"
		stroke-width="2px"
		d="M 108 204 L "/>
    <path id="Block4Jump33"
        fill="none"
        stroke="#F64A8A"
		stroke-width="2px"
		d="M 126 124 L "/>
    <path id="Block4Jump34"
        fill="none"
        stroke="#F64A8A"
		stroke-width="2px"
		d="M 105 204 L "/>
    <path id="Block4Jump35"
        fill="none"
        stroke="#F64A8A"
		stroke-width="2px"
		d="M 120 130 L "/>
    <path id="Block4Jump36"
        fill="none"
        stroke="#F64A8A"
		stroke-width="2px"
		d="M 103 202 L 104 199 103 202 "/>
    <path id="Block4Jump37"
        fill="none"
        stroke="#F64A8A"
		stroke-width="2px"
		d="M 108 204 L 108 204 107 207 108 204 105 217 102 230 105 242 108 254 108 241 108 229 108 216 108 204 111 217 114 230 111 242 108 254 106 268 104 281 108 293 112 305 111 292 110 279 109 267 108 254 112 267 116 280 114 293 112 305 110 318 109 331 114 343 118 355 116 342 115 330 113 317 112 305 117 318 121 330 119 343 118 355 119 368 119 381 125 392 131 403 128 391 124 379 121 367 118 355 125 367 131 378 131 391 131 403 135 416 138 429 147 439 155 448 149 437 143 425 137 414 131 403 140 413 149 423 152 436 155 448 162 460 168 471 179 478 189 485 180 476 172 466 163 457 155 448 166 456 177 463 183 474 189 485 193 493 196 500 203 503 210 506 199 495 189 485 197 489 204 492 207 499 210 506 209 503 210 506 "/>
    <path id="Block4Jump38"
        fill="none"
        stroke="#F64A8A"
		stroke-width="2px"
		d="M 275 504 L 275 504 276 501 275 504 280 491 286 477 291 464 296 450 302 437 307 423 312 410 318 396 323 383 328 371 333 359 338 347 342 336 347 324 352 312 355 300 357 288 360 276 362 264 364 250 367 236 369 222 371 208 371 211 371 208 "/>
    <path id="Block4Jump39"
        fill="none"
        stroke="#F64A8A"
		stroke-width="2px"
		d="M 375 205 L 375 205 375 202 375 205 374 190 372 174 371 159 362 149 353 139 342 149 343 160 344 170 353 182 362 193 371 205 382 196 392 187 399 178 405 169 404 159 404 149 395 142 385 151 376 160 360 155 344 151 363 152 382 154 401 155 399 163 381 163 363 162 345 162 345 170 364 170 382 169 401 169 396 177 382 177 369 178 355 178 357 184 374 187 390 189 383 195 373 193 363 192 356 178 349 165 342 151 335 138 331 166 341 130 333 175 346 128 337 180 350 126 340 186 354 126 "/>
    <path id="Block4Jump40"
        fill="none"
        stroke="#F64A8A"
		stroke-width="2px"
		d="M 344 190 L 357 127 "/>
    <path id="Block4Jump41"
        fill="none"
        stroke="#F64A8A"
		stroke-width="2px"
		d="M 347 194 L "/>
    <path id="Block4Jump42"
        fill="none"
        stroke="#F64A8A"
		stroke-width="2px"
		d="M 360 127 L "/>
    <path id="Block4Jump43"
        fill="none"
        stroke="#F64A8A"
		stroke-width="2px"
		d="M 351 198 L "/>
    <path id="Block4Jump44"
        fill="none"
        stroke="#F64A8A"
		stroke-width="2px"
		d="M 363 130 L "/>
    <path id="Block4Jump45"
        fill="none"
        stroke="#F64A8A"
		stroke-width="2px"
		d="M 355 201 L "/>
    <path id="Block4Jump46"
        fill="none"
        stroke="#F64A8A"
		stroke-width="2px"
		d="M 366 133 L "/>
    <path id="Block4Jump47"
        fill="none"
        stroke="#F64A8A"
		stroke-width="2px"
		d="M 359 204 L "/>
    <path id="Block4Jump48"
        fill="none"
        stroke="#F64A8A"
		stroke-width="2px"
		d="M 369 136 L "/>
    <path id="Block4Jump49"
        fill="none"
        stroke="#F64A8A"
		stroke-width="2px"
		d="M 363 207 L "/>
    <path id="Block4Jump50"
        fill="none"
        stroke="#F64A8A"
		stroke-width="2px"
		d="M 372 140 L "/>
    <path id="Block4Jump51"
        fill="none"
        stroke="#F64A8A"
		stroke-width="2px"
		d="M 367 212 L "/>
    <path id="Block4Jump52"
        fill="none"
        stroke="#F64A8A"
		stroke-width="2px"
		d="M 375 143 L "/>
    <path id="Block4Jump53"
        fill="none"
        stroke="#F64A8A"
		stroke-width="2px"
		d="M 371 217 L 379 202 386 187 394 172 404 157 417 145 412 178 417 145 406 186 415 138 400 194 412 134 "/>
    <path id="Block4Jump54"
        fill="none"
        stroke="#F64A8A"
		stroke-width="2px"
		d="M 395 198 L "/>
    <path id="Block4Jump55"
        fill="none"
        stroke="#F64A8A"
		stroke-width="2px"
		d="M 409 132 L "/>
    <path id="Block4Jump56"
        fill="none"
        stroke="#F64A8A"
		stroke-width="2px"
		d="M 389 202 L "/>
    <path id="Block4Jump57"
        fill="none"
        stroke="#F64A8A"
		stroke-width="2px"
		d="M 406 130 L "/>
    <path id="Block4Jump58"
        fill="none"
        stroke="#F64A8A"
		stroke-width="2px"
		d="M 385 206 L "/>
    <path id="Block4Jump59"
        fill="none"
        stroke="#F64A8A"
		stroke-width="2px"
		d="M 402 129 L "/>
    <path id="Block4Jump60"
        fill="none"
        stroke="#F64A8A"
		stroke-width="2px"
		d="M 382 209 L "/>
    <path id="Block4Jump61"
        fill="none"
        stroke="#F64A8A"
		stroke-width="2px"
		d="M 398 128 L "/>
    <path id="Block4Jump62"
        fill="none"
        stroke="#F64A8A"
		stroke-width="2px"
		d="M 378 212 L "/>
    <path id="Block4Jump63"
        fill="none"
        stroke="#F64A8A"
		stroke-width="2px"
		d="M 393 128 L "/>
    <path id="Block4Jump64"
        fill="none"
        stroke="#F64A8A"
		stroke-width="2px"
		d="M 376 214 L "/>
    <path id="Block4Jump65"
        fill="none"
        stroke="#F64A8A"
		stroke-width="2px"
		d="M 388 131 L "/>
    <path id="Block4Jump66"
        fill="none"
        stroke="#F64A8A"
		stroke-width="2px"
		d="M 373 216 L "/>
    <path id="Block4Jump67"
        fill="none"
        stroke="#F64A8A"
		stroke-width="2px"
		d="M 384 134 L "/>
    <path id="Block4Jump68"
        fill="none"
        stroke="#F64A8A"
		stroke-width="2px"
		d="M 370 216 L "/>
    <path id="Block4Jump69"
        fill="none"
        stroke="#F64A8A"
		stroke-width="2px"
		d="M 379 140 L "/>
    <path id="Block4Jump70"
        fill="none"
        stroke="#F64A8A"
		stroke-width="2px"
		d="M 368 214 L 368 211 368 214 "/>
    <path id="Block4Jump71"
        fill="none"
        stroke="#F64A8A"
		stroke-width="2px"
		d="M 368 234 L 368 234 367 237 368 234 362 246 357 257 357 269 357 281 360 269 363 257 365 246 368 234 368 247 368 259 362 270 357 281 352 291 347 301 348 312 348 323 351 309 354 295 357 281 358 293 358 304 353 314 348 323 349 320 348 323 "/>
    <path id="Block4Jump72"
        fill="none"
        stroke="#F64A8A"
		stroke-width="2px"
		d="M 352 335 L 352 335 354 337 352 335 360 345 369 354 377 364 384 353 390 342 397 331 403 320 410 309 416 298 424 287 431 277 439 266 448 258 457 250 465 242 474 234 485 228 496 222 506 216 517 210 528 204 525 205 528 204 "/>
    <path id="Block4Jump73"
        fill="none"
        stroke="#F64A8A"
		stroke-width="2px"
		d="M 528 207 L 528 207 530 205 528 207 537 195 547 183 556 171 557 157 557 144 542 143 535 152 529 160 528 175 526 189 525 204 539 205 552 205 563 203 574 201 587 186 586 175 572 175 559 175 551 160 543 146 556 160 568 174 581 188 574 193 561 180 549 168 536 155 530 160 544 173 557 185 571 198 562 201 552 192 541 182 531 173 529 179 539 192 549 205 540 205 528 189 532 174 537 159 541 145 545 130 523 148 555 128 519 156 559 130 517 162 563 132 515 169 566 135 515 174 568 137 515 180 570 140 515 185 571 144 516 190 570 149 516 195 570 153 517 200 570 157 517 206 570 161 517 212 533 207 548 201 564 196 581 192 599 192 573 212 599 192 563 214 603 185 553 216 603 180 546 215 603 177 539 214 602 173 "/>
    <path id="Block4Jump74"
        fill="none"
        stroke="#F64A8A"
		stroke-width="2px"
		d="M 534 214 L "/>
    <path id="Block4Jump75"
        fill="none"
        stroke="#F64A8A"
		stroke-width="2px"
		d="M 599 170 L "/>
    <path id="Block4Jump76"
        fill="none"
        stroke="#F64A8A"
		stroke-width="2px"
		d="M 529 214 L "/>
    <path id="Block4Jump77"
        fill="none"
        stroke="#F64A8A"
		stroke-width="2px"
		d="M 597 166 L "/>
    <path id="Block4Jump78"
        fill="none"
        stroke="#F64A8A"
		stroke-width="2px"
		d="M 525 214 L "/>
    <path id="Block4Jump79"
        fill="none"
        stroke="#F64A8A"
		stroke-width="2px"
		d="M 593 163 L "/>
    <path id="Block4Jump80"
        fill="none"
        stroke="#F64A8A"
		stroke-width="2px"
		d="M 522 213 L "/>
    <path id="Block4Jump81"
        fill="none"
        stroke="#F64A8A"
		stroke-width="2px"
		d="M 588 162 L "/>
    <path id="Block4Jump82"
        fill="none"
        stroke="#F64A8A"
		stroke-width="2px"
		d="M 519 212 L 582 161 "/>
    <path id="Block4Jump83"
        fill="none"
        stroke="#F64A8A"
		stroke-width="2px"
		d="M 517 211 L 574 162 516 208 518 206 516 208 "/>
    <path id="Block4Jump84"
        fill="none"
        stroke="#F64A8A"
		stroke-width="2px"
		d="M 519 211 L 519 211 516 212 519 211 506 215 493 218 484 227 475 235 486 229 497 223 508 217 519 211 509 220 499 229 487 232 475 235 463 241 451 247 443 257 436 267 446 259 456 251 465 243 475 235 467 246 459 256 447 262 436 267 426 277 417 286 413 298 409 310 416 299 423 288 429 278 436 267 431 280 427 292 418 301 409 310 399 321 389 331 384 344 380 357 387 345 395 333 402 322 409 310 404 324 399 337 389 347 380 357 382 355 380 357 "/>
    <path id="Block4Jump85"
        fill="none"
        stroke="#F64A8A"
		stroke-width="2px"
		d="M 387 369 L 387 369 390 370 387 369 398 374 408 380 419 385 426 393 432 402 439 410 442 421 445 433 448 444 447 453 446 462 440 473 434 484 429 496 423 507 417 518 423 531 429 543 436 556 442 568 448 581 457 587 465 593 477 598 489 604 501 609 513 614 526 620 539 625 552 631 565 636 578 642 591 647 604 653 617 658 629 662 642 667 655 671 667 676 680 680 693 683 705 686 718 689 731 691 744 694 756 697 769 700 766 699 769 700 "/>
    <path id="Block4Jump86"
        fill="none"
        stroke="#F64A8A"
		stroke-width="2px"
		d="M 766 702 L 766 702 769 703 766 702 781 705 796 709 811 712 824 706 836 701 829 687 819 685 809 683 795 688 782 693 768 698 773 711 778 723 785 732 791 741 810 747 820 741 814 729 809 717 818 703 827 689 820 707 813 724 806 742 799 738 805 721 810 703 816 686 809 684 804 702 798 720 793 738 786 730 790 717 794 704 798 691 792 691 784 706 777 721 773 713 778 703 782 694 797 691 812 689 827 686 842 684 815 671 848 693 809 671 848 697 803 672 848 701 796 674 847 704 791 676 846 707 786 679 845 710 781 681 842 713 "/>
    <path id="Block4Jump87"
        fill="none"
        stroke="#F64A8A"
		stroke-width="2px"
		d="M 777 684 L 838 715 "/>
    <path id="Block4Jump88"
        fill="none"
        stroke="#F64A8A"
		stroke-width="2px"
		d="M 772 686 L 834 716 "/>
    <path id="Block4Jump89"
        fill="none"
        stroke="#F64A8A"
		stroke-width="2px"
		d="M 767 689 L 829 718 "/>
    <path id="Block4Jump90"
        fill="none"
        stroke="#F64A8A"
		stroke-width="2px"
		d="M 762 692 L "/>
    <path id="Block4Jump91"
        fill="none"
        stroke="#F64A8A"
		stroke-width="2px"
		d="M 826 720 L "/>
    <path id="Block4Jump92"
        fill="none"
        stroke="#F64A8A"
		stroke-width="2px"
		d="M 756 694 L 768 706 779 718 791 730 802 744 810 760 780 745 810 760 774 737 817 760 769 729 822 759 766 722 825 757 764 715 "/>
    <path id="Block4Jump93"
        fill="none"
        stroke="#F64A8A"
		stroke-width="2px"
		d="M 828 754 L "/>
    <path id="Block4Jump94"
        fill="none"
        stroke="#F64A8A"
		stroke-width="2px"
		d="M 762 710 L "/>
    <path id="Block4Jump95"
        fill="none"
        stroke="#F64A8A"
		stroke-width="2px"
		d="M 831 751 L "/>
    <path id="Block4Jump96"
        fill="none"
        stroke="#F64A8A"
		stroke-width="2px"
		d="M 760 706 L "/>
    <path id="Block4Jump97"
        fill="none"
        stroke="#F64A8A"
		stroke-width="2px"
		d="M 833 747 L "/>
    <path id="Block4Jump98"
        fill="none"
        stroke="#F64A8A"
		stroke-width="2px"
		d="M 758 702 L "/>
    <path id="Block4Jump99"
        fill="none"
        stroke="#F64A8A"
		stroke-width="2px"
		d="M 833 742 L "/>
    <path id="Block4Jump100"
        fill="none"
        stroke="#F64A8A"
		stroke-width="2px"
		d="M 757 699 L "/>
    <path id="Block4Jump101"
        fill="none"
        stroke="#F64A8A"
		stroke-width="2px"
		d="M 832 737 L "/>
    <path id="Block4Jump102"
        fill="none"
        stroke="#F64A8A"
		stroke-width="2px"
		d="M 756 696 L "/>
    <path id="Block4Jump103"
        fill="none"
        stroke="#F64A8A"
		stroke-width="2px"
		d="M 831 731 L "/>
    <path id="Block4Jump104"
        fill="none"
        stroke="#F64A8A"
		stroke-width="2px"
		d="M 757 693 L "/>
    <path id="Block4Jump105"
        fill="none"
        stroke="#F64A8A"
		stroke-width="2px"
		d="M 826 724 L "/>
    <path id="Block4Jump106"
        fill="none"
        stroke="#F64A8A"
		stroke-width="2px"
		d="M 760 692 L 763 693 760 692 "/>
    <path id="Block4Jump107"
        fill="none"
        stroke="#F64A8A"
		stroke-width="2px"
		d="M 764 698 L 764 698 761 697 764 698 752 692 741 687 729 687 717 687 729 690 741 693 752 695 764 698 751 698 739 698 728 692 717 687 705 681 694 676 682 676 671 676 683 679 694 682 706 684 717 687 704 687 692 687 681 681 671 676 660 669 649 662 637 661 625 660 637 664 648 668 660 672 671 676 658 675 645 674 635 667 625 660 615 652 605 645 593 643 581 642 592 647 603 651 614 656 625 660 612 658 600 657 590 649 581 642 570 635 560 628 548 626 536 624 547 629 559 633 570 638 581 642 568 640 555 639 545 631 536 624 525 616 515 608 503 605 491 603 502 608 514 614 525 619 536 624 523 621 510 619 500 611 491 603 480 594 469 585 456 582 444 579 456 585 468 591 479 597 491 603 477 599 464 596 454 587 444 579 446 581 444 579 "/>
    <path id="Block4Jump108"
        fill="none"
        stroke="#F64A8A"
		stroke-width="2px"
		d="M 416 602 L 416 602 418 604 416 602 425 613 434 625 442 636 451 648 460 659 470 669 479 678 489 688 498 697 508 707 517 716 526 726 534 735 543 745 551 754 560 764 571 773 582 782 593 791 605 801 616 810 627 819 638 828 636 826 638 828 "/>
    <path id="Block4Jump109"
        fill="none"
        stroke="#F64A8A"
		stroke-width="2px"
		d="M 646 841 L 646 841 648 843 646 841 659 850 671 858 684 867 698 867 711 867 711 852 702 846 693 840 678 839 664 839 649 838 650 852 650 866 653 877 655 887 671 899 682 897 681 884 680 871 694 861 708 852 695 866 682 879 669 893 663 887 675 873 687 860 699 846 693 841 681 855 670 870 658 884 655 875 663 864 672 854 680 843 674 841 662 852 650 863 649 854 657 847 664 840 679 844 694 847 709 851 724 854 704 832 726 863 697 829 724 868 690 827 723 872 683 826 721 875 678 826 718 877 672 827 716 879 667 827 712 880 662 828 707 880 657 829 702 880 651 830 698 880 646 830 695 881 640 831 646 846 653 862 659 877 665 894 666 912 643 886 667 912 641 876 673 915 639 867 678 915 639 860 681 914 639 853 685 912 "/>
    <path id="Block4Jump110"
        fill="none"
        stroke="#F64A8A"
		stroke-width="2px"
		d="M 639 847 L 688 910 "/>
    <path id="Block4Jump111"
        fill="none"
        stroke="#F64A8A"
		stroke-width="2px"
		d="M 639 843 L "/>
    <path id="Block4Jump112"
        fill="none"
        stroke="#F64A8A"
		stroke-width="2px"
		d="M 692 908 L "/>
    <path id="Block4Jump113"
        fill="none"
        stroke="#F64A8A"
		stroke-width="2px"
		d="M 639 839 L "/>
    <path id="Block4Jump114"
        fill="none"
        stroke="#F64A8A"
		stroke-width="2px"
		d="M 694 903 L "/>
    <path id="Block4Jump115"
        fill="none"
        stroke="#F64A8A"
		stroke-width="2px"
		d="M 639 836 L 695 898 "/>
    <path id="Block4Jump116"
        fill="none"
        stroke="#F64A8A"
		stroke-width="2px"
		d="M 640 833 L 696 893 641 831 694 885 644 830 646 832 644 830 "/>
    <path id="Block4Jump117"
        fill="none"
        stroke="#F64A8A"
		stroke-width="2px"
		d="M 641 831 L 641 831 639 829 641 831 633 821 625 811 614 806 603 801 613 809 622 816 632 824 641 831 629 825 618 820 610 810 603 801 596 791 589 782 578 777 568 772 577 779 586 787 594 794 603 801 592 796 581 791 574 781 568 772 561 761 555 751 545 746 535 741 543 749 552 757 560 764 568 772 557 766 547 760 541 750 535 741 530 730 525 719 515 712 506 706 513 715 521 724 528 732 535 741 525 733 516 726 511 716 506 706 500 695 495 684 485 677 476 671 484 680 491 689 499 697 506 706 496 699 486 692 481 681 476 671 470 660 465 650 455 644 445 638 453 646 461 655 468 663 476 671 466 664 456 658 450 648 445 638 439 627 434 616 424 610 414 604 422 613 430 621 437 630 445 638 435 631 425 624 419 614 414 604 415 607 414 604 "/>
    <path id="Block4Jump118"
        fill="none"
        stroke="#F64A8A"
		stroke-width="2px"
		d="M 437 589 L 437 589 435 591 437 589 427 597 417 605 404 601 390 596 377 592 364 587 350 583 337 578 324 574 310 569 297 565 306 575 315 584 325 594 334 604 343 613 352 623 362 633 371 642 380 652 389 664 398 675 407 687 412 698 417 709 421 719 426 730 429 744 432 758 435 772 436 785 436 798 437 811 437 824 438 837 438 850 439 863 439 860 439 863 "/>
    <path id="Block4Jump119"
        fill="none"
        stroke="#F64A8A"
		stroke-width="2px"
		d="M 437 867 L 437 867 438 870 437 867 440 882 444 897 447 912 457 921 467 930 477 918 475 908 473 898 462 888 452 877 441 867 432 877 423 887 417 897 412 906 414 916 415 926 425 932 434 922 442 912 459 915 475 917 456 918 437 919 418 920 418 912 436 910 454 908 472 906 472 898 453 901 435 903 416 906 420 897 434 895 447 893 461 891 458 886 441 885 425 885 430 878 441 878 451 878 460 891 469 904 477 916 486 929 486 904 481 937 484 893 477 939 480 888 473 941 476 883 470 942 472 879 466 942 "/>
    <path id="Block4Jump120"
        fill="none"
        stroke="#F64A8A"
		stroke-width="2px"
		d="M 467 875 L "/>
    <path id="Block4Jump121"
        fill="none"
        stroke="#F64A8A"
		stroke-width="2px"
		d="M 463 942 L "/>
    <path id="Block4Jump122"
        fill="none"
        stroke="#F64A8A"
		stroke-width="2px"
		d="M 463 871 L "/>
    <path id="Block4Jump123"
        fill="none"
        stroke="#F64A8A"
		stroke-width="2px"
		d="M 459 940 L "/>
    <path id="Block4Jump124"
        fill="none"
        stroke="#F64A8A"
		stroke-width="2px"
		d="M 458 868 L "/>
    <path id="Block4Jump125"
        fill="none"
        stroke="#F64A8A"
		stroke-width="2px"
		d="M 455 937 L "/>
    <path id="Block4Jump126"
        fill="none"
        stroke="#F64A8A"
		stroke-width="2px"
		d="M 454 865 L "/>
    <path id="Block4Jump127"
        fill="none"
        stroke="#F64A8A"
		stroke-width="2px"
		d="M 452 934 L "/>
    <path id="Block4Jump128"
        fill="none"
        stroke="#F64A8A"
		stroke-width="2px"
		d="M 449 863 L "/>
    <path id="Block4Jump129"
        fill="none"
        stroke="#F64A8A"
		stroke-width="2px"
		d="M 448 932 L "/>
    <path id="Block4Jump130"
        fill="none"
        stroke="#F64A8A"
		stroke-width="2px"
		d="M 445 859 L "/>
    <path id="Block4Jump131"
        fill="none"
        stroke="#F64A8A"
		stroke-width="2px"
		d="M 445 929 L "/>
    <path id="Block4Jump132"
        fill="none"
        stroke="#F64A8A"
		stroke-width="2px"
		d="M 440 855 L 434 871 428 886 422 902 415 918 403 932 404 897 404 934 410 888 406 940 415 880 410 942 "/>
    <path id="Block4Jump133"
        fill="none"
        stroke="#F64A8A"
		stroke-width="2px"
		d="M 421 874 L "/>
    <path id="Block4Jump134"
        fill="none"
        stroke="#F64A8A"
		stroke-width="2px"
		d="M 415 944 L "/>
    <path id="Block4Jump135"
        fill="none"
        stroke="#F64A8A"
		stroke-width="2px"
		d="M 426 868 L "/>
    <path id="Block4Jump136"
        fill="none"
        stroke="#F64A8A"
		stroke-width="2px"
		d="M 419 946 L "/>
    <path id="Block4Jump137"
        fill="none"
        stroke="#F64A8A"
		stroke-width="2px"
		d="M 429 865 L "/>
    <path id="Block4Jump138"
        fill="none"
        stroke="#F64A8A"
		stroke-width="2px"
		d="M 423 946 L "/>
    <path id="Block4Jump139"
        fill="none"
        stroke="#F64A8A"
		stroke-width="2px"
		d="M 433 861 L "/>
    <path id="Block4Jump140"
        fill="none"
        stroke="#F64A8A"
		stroke-width="2px"
		d="M 428 946 L "/>
    <path id="Block4Jump141"
        fill="none"
        stroke="#F64A8A"
		stroke-width="2px"
		d="M 436 859 L "/>
    <path id="Block4Jump142"
        fill="none"
        stroke="#F64A8A"
		stroke-width="2px"
		d="M 433 943 L "/>
    <path id="Block4Jump143"
        fill="none"
        stroke="#F64A8A"
		stroke-width="2px"
		d="M 438 857 L "/>
    <path id="Block4Jump144"
        fill="none"
        stroke="#F64A8A"
		stroke-width="2px"
		d="M 437 939 L "/>
    <path id="Block4Jump145"
        fill="none"
        stroke="#F64A8A"
		stroke-width="2px"
		d="M 440 855 L "/>
    <path id="Block4Jump146"
        fill="none"
        stroke="#F64A8A"
		stroke-width="2px"
		d="M 442 932 L "/>
    <path id="Block4Jump147"
        fill="none"
        stroke="#F64A8A"
		stroke-width="2px"
		d="M 443 857 L 443 860 443 857 "/>
    <path id="Block4Jump148"
        fill="none"
        stroke="#F64A8A"
		stroke-width="2px"
		d="M 439 867 L 439 867 440 864 439 867 442 854 445 842 442 830 439 819 439 831 439 843 439 855 439 867 436 854 433 842 436 830 439 819 442 806 444 794 440 782 437 771 438 783 438 795 439 807 439 819 435 806 432 794 435 782 437 771 436 758 436 746 430 735 424 725 427 737 431 748 434 760 437 771 430 760 424 749 424 737 424 725 420 712 417 700 409 691 401 683 407 694 413 704 418 715 424 725 415 715 407 706 404 694 401 683 396 671 391 660 382 653 373 647 380 656 387 665 394 674 401 683 391 675 382 668 377 657 373 647 367 636 361 625 351 619 342 613 350 622 358 630 365 639 373 647 363 640 353 633 347 623 342 613 336 602 330 591 320 585 311 579 319 588 327 596 334 605 342 613 332 606 322 600 316 589 311 579 312 582 311 579 "/>
    <path id="Block4Jump149"
        fill="none"
        stroke="#F64A8A"
		stroke-width="2px"
		d="M 286 579 L 286 579 283 579 286 579 278 579 270 579 260 574 250 570 241 581 231 591 222 602 212 612 203 623 193 633 184 644 175 654 165 665 156 675 146 686 137 696 130 706 122 716 115 725 108 735 103 748 98 762 93 775 88 788 83 801 78 815 73 828 74 825 73 828 "/>
    <path id="Block4Jump150"
        fill="none"
        stroke="#F64A8A"
		stroke-width="2px"
		d="M 69 832 L 69 832 68 835 69 832 66 847 64 863 61 878 68 890 74 902 87 895 89 884 90 874 84 861 79 847 73 834 61 840 49 846 40 853 31 859 29 869 27 879 33 888 45 882 57 876 71 885 85 893 67 887 50 881 32 875 35 867 52 872 70 877 87 882 89 874 71 870 53 865 35 861 42 854 55 857 69 861 82 864 81 857 66 850 51 844 59 840 69 844 78 848 81 863 85 878 88 893 91 908 102 879 83 914 102 873 79 914 100 866 75 915 99 859 71 914 96 855 67 913 93 850 64 911 "/>
    <path id="Block4Jump151"
        fill="none"
        stroke="#F64A8A"
		stroke-width="2px"
		d="M 91 845 L 62 908 "/>
    <path id="Block4Jump152"
        fill="none"
        stroke="#F64A8A"
		stroke-width="2px"
		d="M 88 841 L 60 904 "/>
    <path id="Block4Jump153"
        fill="none"
        stroke="#F64A8A"
		stroke-width="2px"
		d="M 85 837 L 57 900 "/>
    <path id="Block4Jump154"
        fill="none"
        stroke="#F64A8A"
		stroke-width="2px"
		d="M 81 833 L 55 896 "/>
    <path id="Block4Jump155"
        fill="none"
        stroke="#F64A8A"
		stroke-width="2px"
		d="M 79 827 L "/>
    <path id="Block4Jump156"
        fill="none"
        stroke="#F64A8A"
		stroke-width="2px"
		d="M 54 893 L "/>
    <path id="Block4Jump157"
        fill="none"
        stroke="#F64A8A"
		stroke-width="2px"
		d="M 76 822 L 65 834 53 847 42 859 29 871 13 880 27 849 13 881 34 843 14 887 42 837 15 892 49 834 18 895 55 831 "/>
    <path id="Block4Jump158"
        fill="none"
        stroke="#F64A8A"
		stroke-width="2px"
		d="M 21 897 L "/>
    <path id="Block4Jump159"
        fill="none"
        stroke="#F64A8A"
		stroke-width="2px"
		d="M 60 829 L "/>
    <path id="Block4Jump160"
        fill="none"
        stroke="#F64A8A"
		stroke-width="2px"
		d="M 24 900 L "/>
    <path id="Block4Jump161"
        fill="none"
        stroke="#F64A8A"
		stroke-width="2px"
		d="M 64 827 L "/>
    <path id="Block4Jump162"
        fill="none"
        stroke="#F64A8A"
		stroke-width="2px"
		d="M 28 902 L "/>
    <path id="Block4Jump163"
        fill="none"
        stroke="#F64A8A"
		stroke-width="2px"
		d="M 68 825 L "/>
    <path id="Block4Jump164"
        fill="none"
        stroke="#F64A8A"
		stroke-width="2px"
		d="M 32 902 L "/>
    <path id="Block4Jump165"
        fill="none"
        stroke="#F64A8A"
		stroke-width="2px"
		d="M 71 824 L "/>
    <path id="Block4Jump166"
        fill="none"
        stroke="#F64A8A"
		stroke-width="2px"
		d="M 38 901 L "/>
    <path id="Block4Jump167"
        fill="none"
        stroke="#F64A8A"
		stroke-width="2px"
		d="M 74 823 L "/>
    <path id="Block4Jump168"
        fill="none"
        stroke="#F64A8A"
		stroke-width="2px"
		d="M 43 899 L "/>
    <path id="Block4Jump169"
        fill="none"
        stroke="#F64A8A"
		stroke-width="2px"
		d="M 76 823 L "/>
    <path id="Block4Jump170"
        fill="none"
        stroke="#F64A8A"
		stroke-width="2px"
		d="M 50 894 L "/>
    <path id="Block4Jump171"
        fill="none"
        stroke="#F64A8A"
		stroke-width="2px"
		d="M 78 826 L 77 829 78 826 "/>
    <path id="Block4Jump172"
        fill="none"
        stroke="#F64A8A"
		stroke-width="2px"
		d="M 78 820 L 78 820 80 817 78 820 85 808 92 797 93 784 93 772 89 784 85 796 82 808 78 820 79 806 80 793 87 782 93 772 102 761 110 751 112 738 114 726 109 738 103 749 98 761 93 772 96 759 99 746 107 736 114 726 123 719 131 713 135 703 138 694 130 705 122 715 114 726 118 716 122 706 130 700 138 694 136 696 138 694 " />
    <path id="Block5Jump173"
        fill="none"
        stroke="#FFC864"
		stroke-width="2px"
		d="M 220 504 L 220 504 222 502 220 504 229 496 237 488 233 474 228 461 224 447 219 434 215 420 210 407 206 393 201 380 197 366 207 363 218 360 228 357 240 360 252 362 261 364 269 366 272 356 274 345 277 335 283 322 290 308 296 295 309 297 321 298 330 303 338 308 347 313 355 321 362 328 370 336 377 344 383 353 390 361 400 365 410 368 421 374 431 379 438 389 445 399 450 410 454 420 458 432 461 444 462 453 462 462 471 471 479 480 482 491 485 501 485 514 486 527 486 540 484 551 481 563 479 574 469 574 458 574 448 574 448 587 448 599 443 612 438 624 432 637 419 630 406 623 393 616 380 609 367 601 354 594 341 587 328 580 315 573 307 581 299 589 305 601 311 612 318 624 324 635 330 647 335 658 340 670 344 681 349 692 353 702 357 711 347 715 337 719 327 723 315 723 304 722 292 722 292 733 293 743 293 754 281 756 268 758 256 760 243 758 231 757 218 755 210 752 203 750 195 742 188 735 180 727 168 724 157 721 145 717 134 714 122 711 112 703 103 695 97 682 91 670 87 660 84 651 75 643 66 636 57 628 50 619 44 610 37 601 32 591 28 581 27 566 26 552 38 547 51 541 63 536 75 533 87 529 99 526 97 516 94 506 92 496 93 488 94 481 99 470 103 459 116 464 129 469 142 474 155 479 169 485 182 490 195 495 208 500 221 505 229 496 236 487 234 489 236 487 " />
    <path id="Block6Jump174"
        fill="none"
        stroke="#FFC896"
		stroke-width="2px"
		d="M 220 504 L 220 504 222 502 220 504 229 496 237 488 233 474 228 461 224 447 219 434 215 420 210 407 206 393 201 380 197 366 207 363 218 360 228 357 240 360 252 362 261 364 269 366 272 356 274 345 277 335 283 322 290 308 296 295 309 297 321 298 330 303 338 308 347 313 355 321 362 328 370 336 377 344 383 353 390 361 400 365 410 368 421 374 431 379 438 389 445 399 450 410 454 420 458 432 461 444 462 453 462 462 471 471 479 480 482 491 485 501 485 514 486 527 486 540 484 551 481 563 479 574 469 574 458 574 448 574 448 587 448 599 443 612 438 624 432 637 419 630 406 623 393 616 380 609 367 601 354 594 341 587 328 580 315 573 307 581 299 589 305 601 311 612 318 624 324 635 330 647 335 658 340 670 344 681 349 692 353 702 357 711 347 715 337 719 327 723 315 723 304 722 292 722 292 733 293 743 293 754 281 756 268 758 256 760 243 758 231 757 218 755 210 752 203 750 195 742 188 735 180 727 168 724 157 721 145 717 134 714 122 711 112 703 103 695 97 682 91 670 87 660 84 651 75 643 66 636 57 628 50 619 44 610 37 601 32 591 28 581 27 566 26 552 38 547 51 541 63 536 75 533 87 529 99 526 97 516 94 506 92 496 93 488 94 481 99 470 103 459 116 464 129 469 142 474 155 479 169 485 182 490 195 495 208 500 221 505 229 496 236 487 234 489 236 487 " />
    <path id="Block7Jump175"
        fill="none"
        stroke="#F73866"
		stroke-width="2px"
		d="M 293 507 L 293 507 294 504 293 507 299 491 305 476 315 456 324 436 338 417 352 398 348 401 352 403 343 405 349 408 339 409 347 412 336 413 344 416 334 416 341 420 331 419 339 424 329 421 336 427 327 424 334 431 325 428 332 434 322 432 330 438 320 435 327 441 317 439 325 445 315 443 322 448 313 447 320 452 311 451 318 456 309 454 316 460 307 458 315 464 306 462 314 468 304 466 312 471 303 470 311 475 302 474 309 480 300 479 308 484 299 483 306 488 297 487 304 492 295 491 302 496 293 495 301 500 292 498 299 504 291 502 303 516 312 528 328 519 344 511 361 503 379 496 396 488 420 483 444 478 442 477 442 481 436 478 440 482 430 479 435 484 425 480 430 486 420 480 425 487 414 481 419 488 409 481 414 489 406 482 409 490 403 483 405 490 398 484 401 491 393 485 397 492 389 487 393 493 386 488 389 495 384 490 385 496 380 491 382 498 375 493 378 499 371 494 375 501 368 495 370 502 365 496 366 504 362 498 362 506 358 499 359 507 354 501 355 509 350 503 351 511 346 505 347 514 343 507 344 516 339 509 340 517 335 510 336 519 331 512 333 522 328 514 329 525 325 516 326 527 321 518 324 528 317 519 321 529 313 521 319 530 312 527 316 532 313 535 317 551 312 568 315 573 313 570 315 573 "/>
    <path id="Block7Jump176"
        fill="none"
        stroke="#F73866"
		stroke-width="2px"
		d="M 320 560 L 320 560 322 562 320 560 310 581 323 562 313 583 327 564 316 585 330 566 320 587 333 568 323 589 337 570 326 591 340 572 330 593 343 574 333 595 347 576 336 597 350 578 340 599 353 580 343 601 357 582 346 603 360 584 350 605 363 586 353 607 367 588 356 609 370 590 360 611 373 592 363 613 376 594 366 615 380 596 369 617 383 598 373 619 386 600 376 621 390 602 380 623 393 604 383 625 397 606 386 627 400 608 390 629 403 610 393 631 406 611 397 633 408 612 401 635 410 613 405 637 412 614 409 640 414 615 413 642 416 616 417 644 418 617 421 646 420 618 425 648 422 620 429 650 424 621 434 652 426 622 437 653 427 621 439 649 428 620 441 645 428 619 443 641 429 618 445 637 429 617 447 633 429 616 450 629 430 615 452 625 431 613 454 621 432 610 455 618 433 607 457 614 434 604 458 610 435 602 460 607 437 599 461 603 437 596 461 599 437 594 462 595 438 591 462 591 438 589 462 587 438 586 462 583 437 583 461 580 437 580 461 576 436 577 460 572 457 572 460 572 "/>
    <path id="Block7Jump177"
        fill="none"
        stroke="#F73866"
		stroke-width="2px"
		d="M 436 572 L 436 572 433 572 436 572 422 571 407 570 393 569 379 568 365 567 350 566 336 565 322 564 322 564 325 564 322 564 "/>
    <path id="Block7Jump178"
        fill="none"
        stroke="#F73866"
		stroke-width="2px"
		d="M 317 552 L 317 552 320 553 317 552 317 576 321 552 321 576 325 553 325 577 329 553 329 577 333 553 333 577 337 553 336 578 340 554 340 578 344 554 344 578 348 554 348 578 352 555 352 579 356 555 356 579 360 555 360 579 364 555 364 580 368 556 368 580 372 556 372 580 376 556 375 580 379 557 379 581 383 557 383 581 387 557 387 581 391 557 391 582 395 558 395 582 399 558 399 582 403 558 403 582 407 558 407 582 411 558 410 583 414 559 414 583 418 559 418 583 422 559 422 583 426 559 426 583 430 559 430 584 434 560 434 584 438 560 438 584 441 560 442 584 444 560 447 585 446 560 451 585 449 561 456 585 451 561 460 586 454 561 465 586 457 561 469 586 459 561 474 587 462 561 478 587 464 562 483 588 467 562 487 588 469 562 490 584 468 564 491 578 468 566 492 571 469 565 493 567 469 562 494 563 470 558 494 559 471 554 495 556 472 551 496 552 472 547 497 548 473 543 497 544 474 540 498 540 474 536 499 536 475 532 499 532 475 529 498 528 474 526 498 524 474 522 498 520 474 519 498 516 473 516 497 513 473 512 497 509 473 509 497 505 473 506 496 501 472 502 496 497 472 499 496 493 472 497 495 489 471 494 494 485 471 492 493 481 470 490 492 477 470 488 490 474 468 486 487 472 466 484 484 469 463 482 481 466 461 480 478 463 459 478 477 462 456 475 476 460 453 472 475 459 451 469 474 458 450 465 474 455 449 461 473 452 449 457 473 449 449 453 473 446 448 449 472 443 448 445 472 439 447 442 471 435 447 439 470 432 446 435 469 428 446 432 468 424 445 429 467 420 444 426 466 416 443 423 464 412 442 420 463 409 441 417 461 405 439 414 460 402 438 411 458 398 437 408 456 395 435 405 455 391 434 403 453 388 433 400 450 385 431 398 448 382 429 396 446 378 427 393 443 375 426 391 441 372 424 390 438 370 421 388 434 368 419 387 431 366 417 385 427 364 414 384 424 362 412 382 420 360 408 381 417 359 405 380 413 357 401 378 410 355 398 376 406 354 394 375 404 352 391 373 402 351 387 371 399 350 384 369 397 348 381 366 395 345 378 363 393 343 376 360 391 341 373 357 389 338 371 354 387 336 368 351 385 334 366 349 382 331 363 346 380 328 361 343 377 325 359 341 374 322 356 338 372 319 354 335 369 316 352 333 366 314 349 331 363 311 347 329 360 309 344 327 357 306 342 324 354 303 339 322 351 301 336 321 348 299 333 319 344 298 330 318 341 296 328 316 337 294 325 315 334 292 322 313 330 291 320 311 326 289 317 310 323 287 314 309 319 287 311 309 315 286 309 309 311 285 306 308 307 284 304 308 303 284 304 308 299 284 304 308 294 284 304 308 290 284 304 308 287 286 303 310 285 290 302 313 284 293 301 315 282 297 299 317 280 301 298 320 278 305 297 322 276 309 296 324 275 312 295 327 273 316 294 329 271 320 293 331 270 324 291 335 268 327 290 338 267 331 288 342 265 335 287 345 264 338 285 348 262 342 284 352 261 346 283 355 260 349 282 359 259 353 281 362 258 357 281 365 257 361 280 369 255 364 279 372 254 368 278 376 253 372 277 380 252 375 276 383 251 379 275 387 250 383 274 391 249 387 273 395 248 391 272 399 247 395 271 402 246 399 270 405 246 402 269 408 245 406 268 411 244 410 268 414 243 414 267 418 243 418 267 421 244 422 268 424 244 426 268 428 244 430 268 431 244 433 268 435 245 437 269 438 245 441 269 441 245 445 269 445 246 449 270 449 246 453 270 453 246 457 271 457 247 461 271 461 247 465 271 465 248 468 272 468 248 473 272 472 248 476 272 476 248 480 272 480 248 483 272 484 248 487 272 488 248 490 251 490 248 490 "/>
    <path id="Block7Jump179"
        fill="none"
        stroke="#F73866"
		stroke-width="2px"
		d="M 247 491 L 247 491 244 491 247 491 235 491 231 477 226 463 222 449 218 435 213 421 209 407 205 393 200 379 196 365 210 362 223 359 231 356 243 360 254 363 251 362 254 363 "/>
    <path id="Block7Jump180"
        fill="none"
        stroke="#F73866"
		stroke-width="2px"
		d="M 256 375 L 256 375 254 373 256 375 260 351 253 374 256 350 250 373 252 349 247 373 248 348 244 372 244 347 241 371 241 347 237 370 237 346 234 369 233 345 231 370 229 346 228 370 225 346 225 371 221 347 222 371 217 348 219 372 213 348 216 373 209 349 214 373 205 350 214 373 201 352 214 373 196 353 213 373 192 355 213 373 188 357 213 373 184 359 214 374 184 362 215 377 186 367 216 381 187 371 217 385 188 375 218 388 190 380 219 392 191 384 220 395 192 388 221 399 194 393 222 403 195 397 223 406 197 401 225 410 198 406 226 414 199 410 227 417 201 414 228 421 202 419 229 424 203 423 230 428 205 427 231 432 206 431 232 435 207 436 233 439 209 440 234 442 210 444 235 446 211 449 237 450 213 453 238 453 214 457 239 457 216 462 240 461 217 466 241 464 218 470 242 468 220 475 243 471 221 479 244 475 222 483 245 479 224 488 246 482 225 492 228 491 225 492 "/>
    <path id="Block7Jump181"
        fill="none"
        stroke="#F73866"
		stroke-width="2px"
		d="M 217 516 L 217 516 215 514 217 516 223 493 213 515 220 492 210 513 216 490 206 512 212 489 202 510 209 488 199 509 205 486 195 508 201 485 191 506 198 483 188 505 194 482 184 503 190 481 180 502 187 479 177 501 183 478 173 499 179 476 169 498 176 475 166 496 172 474 162 495 168 472 158 493 165 471 155 492 161 469 151 491 157 468 147 489 154 467 144 488 150 465 140 486 146 464 138 485 142 462 135 484 137 461 133 483 133 459 130 482 129 457 128 482 125 455 125 481 120 454 123 480 116 452 120 479 112 450 118 478 108 448 115 477 103 446 113 476 99 445 110 475 95 443 108 476 94 448 108 477 92 452 107 479 90 456 107 480 89 461 106 482 87 465 106 483 86 470 105 485 84 474 105 486 82 479 104 488 81 483 104 489 80 487 104 491 80 491 105 493 81 495 105 495 81 499 105 497 82 503 106 500 82 507 107 504 83 511 108 508 84 514 108 511 85 518 109 515 85 522 110 519 86 526 111 522 87 530 90 529 87 530 "/>
    <path id="Block7Jump182"
        fill="none"
        stroke="#F73866"
		stroke-width="2px"
		d="M 115 524 L 115 524 118 524 115 524 130 522 144 520 156 521 169 523 181 524 193 526 206 528 218 530 221 538 224 545 229 558 228 555 229 558 "/>
    <path id="Block7Jump183"
        fill="none"
        stroke="#F73866"
		stroke-width="2px"
		d="M 217 562 L 217 562 214 563 217 562 195 566 176 572 157 577 136 587 115 597 117 594 119 598 123 590 123 596 127 587 128 594 130 585 132 592 135 583 137 591 139 582 141 589 144 580 145 588 147 578 149 586 150 577 153 584 154 575 157 582 158 573 160 580 162 571 164 579 167 570 167 578 172 568 171 577 177 567 176 576 181 566 181 574 184 565 185 573 187 564 190 572 189 564 194 571 192 563 198 571 197 562 201 571 201 561 204 571 205 560 209 570 210 559 213 569 214 559 217 568 217 558 222 567 220 558 228 558 236 571 251 584 240 598 230 612 218 627 206 643 194 658 186 682 179 705 179 703 183 701 178 698 185 698 178 693 187 694 179 689 188 690 180 685 190 685 181 681 191 681 182 677 192 677 183 673 193 674 185 669 195 671 186 665 198 667 188 662 200 664 190 658 201 662 192 654 203 659 194 650 205 655 196 646 207 652 197 643 209 648 200 639 211 644 203 636 213 640 206 633 215 638 209 629 217 635 211 626 220 632 213 623 223 629 215 620 226 626 217 617 229 623 220 614 231 619 222 610 233 616 225 607 236 613 228 603 238 610 231 600 241 607 234 596 243 604 237 593 244 600 239 589 247 597 241 586 250 593 242 582 253 590 264 588 279 591 291 591 288 591 291 591 "/>
    <path id="Block7Jump184"
        fill="none"
        stroke="#F73866"
		stroke-width="2px"
		d="M 311 584 L 311 584 312 587 311 584 290 596 313 588 292 599 315 592 293 603 317 597 295 606 319 601 297 610 321 605 298 613 323 609 300 617 325 614 302 620 327 618 303 624 329 622 305 627 331 626 307 631 333 631 308 634 335 635 310 638 337 639 312 641 339 643 314 644 341 648 315 648 343 652 317 651 345 656 319 655 347 660 320 658 349 665 322 662 351 669 324 665 353 673 325 669 355 677 327 672 357 682 329 676 359 686 330 679 361 690 332 683 363 694 334 686 365 699 336 690 367 703 337 693 369 707 339 697 371 711 341 700 373 716 341 703 371 719 340 704 366 720 338 705 362 722 337 705 358 723 335 706 354 725 334 707 349 726 332 707 345 728 330 708 341 729 329 709 336 731 327 709 332 732 324 710 329 733 322 711 325 734 319 711 321 735 317 712 317 736 314 712 313 736 310 711 309 735 307 711 306 735 304 711 302 735 301 711 298 734 297 710 294 734 294 710 294 713 294 710 "/>
    <path id="Block7Jump185"
        fill="none"
        stroke="#F73866"
		stroke-width="2px"
		d="M 293 710 L 293 710 293 707 293 710 293 697 293 683 293 670 294 656 294 643 294 630 294 616 294 603 294 606 294 603 "/>
    <path id="Block7Jump186"
        fill="none"
        stroke="#F73866"
		stroke-width="2px"
		d="M 306 594 L 306 594 306 597 306 594 282 596 306 598 282 600 306 603 282 604 306 607 282 608 306 612 282 612 306 616 282 616 306 621 282 619 306 625 282 623 306 630 282 627 306 634 282 631 306 639 282 635 306 643 282 639 306 648 282 643 306 652 282 647 306 657 282 651 306 661 282 655 306 666 282 659 306 670 282 663 306 675 282 667 306 679 281 670 305 684 281 674 305 688 281 678 305 693 281 682 305 697 281 686 305 702 281 690 305 706 281 694 305 711 281 698 305 715 281 702 305 720 281 706 305 724 281 710 305 729 281 714 305 733 281 718 305 738 281 721 305 742 281 725 305 747 281 729 305 751 281 733 305 756 281 737 305 760 281 741 305 765 281 745 303 767 279 745 298 768 277 746 294 768 274 746 289 769 272 746 285 769 270 746 280 770 268 747 276 770 265 747 272 770 263 747 267 771 261 748 263 771 259 748 258 772 256 748 254 772 253 748 250 771 250 747 246 771 246 747 242 771 243 747 238 771 239 747 235 770 236 746 231 770 233 746 227 770 229 746 223 769 226 745 219 768 224 745 215 767 221 744 211 766 218 743 208 764 216 742 204 763 214 741 201 761 212 740 197 759 210 739 194 757 207 736 192 755 204 733 189 752 201 730 186 750 198 727 184 747 195 725 181 745 192 722 178 742 189 719 176 740 186 716 173 738 182 715 170 737 178 714 167 736 175 713 164 736 171 712 161 735 167 711 158 734 163 710 155 734 159 709 151 732 156 708 147 731 152 707 144 730 149 707 140 729 145 706 136 728 142 705 133 727 138 704 129 726 135 703 125 725 132 702 121 723 129 701 118 722 127 700 114 720 124 699 111 718 122 697 108 716 121 696 105 713 119 694 101 711 117 693 98 709 115 691 95 707 113 690 92 703 112 687 91 700 111 685 89 696 110 683 88 693 109 680 86 689 108 678 85 685 106 674 83 682 105 671 82 678 103 668 80 674 102 664 79 671 100 661 78 668 99 657 77 666 98 653 77 664 97 649 76 661 96 645 75 659 94 642 73 656 91 640 70 655 87 638 68 653 84 635 65 651 80 633 62 650 77 631 59 648 74 629 56 645 72 626 54 642 69 624 51 639 67 621 49 636 65 619 46 633 62 617 44 630 60 614 41 627 58 612 39 624 56 609 36 621 55 606 34 617 53 604 32 614 51 601 30 611 49 598 27 608 47 596 25 605 46 593 22 601 44 590 21 597 43 587 20 594 42 585 19 590 41 582 18 586 41 579 16 583 40 576 15 579 39 573 15 575 39 571 15 570 39 570 15 566 39 568 15 562 38 566 14 557 38 565 14 553 38 563 14 549 38 561 14 545 39 560 18 542 41 559 22 541 44 558 26 539 46 557 29 537 48 556 33 536 50 555 37 534 52 554 41 533 55 553 45 531 57 552 49 529 60 551 52 528 64 549 56 526 67 548 60 525 70 546 63 523 73 545 67 522 77 543 71 521 80 542 75 520 84 542 78 519 87 541 82 518 90 540 86 517 93 539 90 516 97 539 93 515 100 538 97 514 103 537 101 513 107 537 105 512 110 536 109 512 114 536 113 512 117 535 117 511 121 535 120 511 124 535 124 510 128 534 128 510 132 534 132 509 135 533 136 509 139 533 140 509 142 532 144 508 146 532 148 508 150 533 152 509 153 533 156 510 157 534 160 510 161 534 163 511 165 535 167 511 168 536 171 512 172 536 175 513 176 537 179 513 179 537 183 514 183 538 187 514 187 539 191 515 191 539 195 515 195 539 199 516 199 540 203 516 202 540 206 516 206 540 210 517 210 541 214 517 214 541 214 538 214 541 " />
    <path id="Block8Jump187"
        fill="none"
        stroke="#E8A900"
		stroke-width="2px"
		d="M 307 533 L 307 533 308 536 307 533 313 550 309 569 297 584 275 591 262 585 250 579 233 565 227 553 222 541 222 521 235 502 248 495 266 494 288 505 298 516 307 527 313 539 318 550 315 563 312 575 297 590 273 593 260 588 248 584 238 574 229 564 220 549 216 530 219 512 228 498 243 490 264 489 276 495 288 501 306 518 317 537 321 554 318 578 306 590 288 600 274 597 260 594 247 587 235 581 226 568 217 555 209 534 210 513 222 496 238 486 257 486 279 491 291 501 302 511 317 529 320 549 312 559 321 576 300 580 292 600 273 587 255 592 245 575 229 571 226 550 212 542 222 522 213 509 233 502 235 488 256 495 275 490 284 506 296 511 308 515 306 532 302 537 320 528 304 539 321 532 305 541 323 537 306 544 324 541 306 548 325 545 306 551 326 549 306 554 327 554 306 557 327 558 306 560 327 563 305 562 327 567 304 565 326 571 303 568 324 576 302 570 323 580 300 573 321 584 299 575 319 588 298 576 315 591 297 577 312 594 295 579 309 597 292 580 306 600 291 581 301 601 289 581 297 603 285 582 293 604 282 582 288 604 280 582 284 604 278 583 279 604 275 583 275 604 272 582 270 603 270 582 266 602 267 581 262 600 264 580 258 598 262 579 254 596 259 579 249 594 256 577 245 593 254 576 242 590 251 574 238 588 248 571 235 585 245 569 231 582 243 567 228 579 240 563 226 577 237 560 223 574 235 556 221 570 234 553 218 566 232 550 216 563 231 549 213 559 230 547 211 555 229 544 210 551 228 542 208 547 228 539 207 542 228 536 207 538 227 533 206 533 227 530 206 529 228 527 206 525 228 525 206 520 228 522 206 516 229 520 206 511 230 518 208 507 231 516 210 503 232 513 213 499 234 511 216 496 235 508 218 492 236 507 221 489 238 506 224 486 239 505 228 484 241 504 232 481 244 503 236 480 246 503 241 480 249 502 245 479 252 502 250 479 254 502 254 480 257 502 259 481 260 502 263 481 264 503 268 482 267 504 272 484 270 505 276 485 272 506 280 487 275 507 284 489 279 509 288 491 282 511 292 493 285 513 296 495 287 515 299 498 290 517 303 501 292 518 306 504 294 520 309 508 296 523 311 512 298 526 313 515 299 529 316 519 300 531 318 523 302 535 319 526 304 539 306 537 304 539 " />
</svg>
