<?xml version="1.0" encoding="UTF-8" standalone="no"?>
<svg xmlns="http://www.w3.org/2000/svg" version="1.1" width="538" height="638">
    <path id="Block1Jump0"
        fill="none"
        stroke="#003822"
		stroke-width="2px"
		d="M 511 367 L 509 354 523 348 537 342 534 327 537 312 537 316 524 324 511 331 512 346 510 361 507 376 522 372 537 367 532 351 533 333 537 316 537 312 537 371 534 314 533 373 531 316 530 374 528 318 527 375 525 320 524 376 522 321 520 377 519 323 517 378 517 324 514 379 514 325 510 379 511 327 506 380 511 367 514 376 514 384 525 382 537 380 534 389 537 399 537 395 526 397 516 397 517 384 511 371 524 368 537 364 533 380 537 395 537 399 537 360 533 400 533 361 530 400 530 362 526 401 526 363 524 401 522 364 522 401 519 365 519 401 515 366 516 401 511 367 499 377 485 381 472 385 459 389 441 386 422 383 407 380 392 378 381 379 370 381 380 398 391 415 380 416 399 422 413 426 420 443 424 461 432 478 442 493 449 510 454 527 460 545 468 561 478 577 468 561 460 544 454 526 448 508 441 490 430 475 423 457 419 439 410 422 397 409 384 395 397 395 393 395 408 408 424 420 440 431 448 449 452 468 462 485 475 500 481 518 481 538 483 558 481 577 475 573 474 577 460 564 447 550 435 535 425 519 417 501 410 483 402 466 395 448 389 430 382 412 375 394 387 398 393 395 397 395 371 394 403 400 372 397 408 403 373 400 413 407 374 403 418 411 376 407 424 415 377 410 430 419 378 413 435 422 380 416 439 425 381 420 443 429 382 423 "/>
    <path id="Block1Jump1"
        fill="none"
        stroke="#003822"
		stroke-width="2px"
		d="M 446 432 L 383 426 "/>
    <path id="Block1Jump2"
        fill="none"
        stroke="#003822"
		stroke-width="2px"
		d="M 448 435 L 385 429 "/>
    <path id="Block1Jump3"
        fill="none"
        stroke="#003822"
		stroke-width="2px"
		d="M 449 438 L 386 432 "/>
    <path id="Block1Jump4"
        fill="none"
        stroke="#003822"
		stroke-width="2px"
		d="M 450 441 L 386 435 "/>
    <path id="Block1Jump5"
        fill="none"
        stroke="#003822"
		stroke-width="2px"
		d="M 451 444 L 387 438 "/>
    <path id="Block1Jump6"
        fill="none"
        stroke="#003822"
		stroke-width="2px"
		d="M 452 447 L 388 441 "/>
    <path id="Block1Jump7"
        fill="none"
        stroke="#003822"
		stroke-width="2px"
		d="M 453 450 L 389 444 "/>
    <path id="Block1Jump8"
        fill="none"
        stroke="#003822"
		stroke-width="2px"
		d="M 453 453 L 390 447 453 456 391 450 454 459 392 453 454 462 393 456 455 465 394 459 456 468 396 462 457 471 397 465 458 474 398 468 460 477 400 471 462 480 401 474 "/>
    <path id="Block1Jump9"
        fill="none"
        stroke="#003822"
		stroke-width="2px"
		d="M 465 483 L 403 477 "/>
    <path id="Block1Jump10"
        fill="none"
        stroke="#003822"
		stroke-width="2px"
		d="M 468 486 L 404 480 "/>
    <path id="Block1Jump11"
        fill="none"
        stroke="#003822"
		stroke-width="2px"
		d="M 471 489 L "/>
    <path id="Block1Jump12"
        fill="none"
        stroke="#003822"
		stroke-width="2px"
		d="M 405 483 L "/>
    <path id="Block1Jump13"
        fill="none"
        stroke="#003822"
		stroke-width="2px"
		d="M 474 492 L "/>
    <path id="Block1Jump14"
        fill="none"
        stroke="#003822"
		stroke-width="2px"
		d="M 407 486 L "/>
    <path id="Block1Jump15"
        fill="none"
        stroke="#003822"
		stroke-width="2px"
		d="M 476 494 L "/>
    <path id="Block1Jump16"
        fill="none"
        stroke="#003822"
		stroke-width="2px"
		d="M 408 489 L "/>
    <path id="Block1Jump17"
        fill="none"
        stroke="#003822"
		stroke-width="2px"
		d="M 478 497 L "/>
    <path id="Block1Jump18"
        fill="none"
        stroke="#003822"
		stroke-width="2px"
		d="M 409 492 L "/>
    <path id="Block1Jump19"
        fill="none"
        stroke="#003822"
		stroke-width="2px"
		d="M 479 500 L "/>
    <path id="Block1Jump20"
        fill="none"
        stroke="#003822"
		stroke-width="2px"
		d="M 410 495 L "/>
    <path id="Block1Jump21"
        fill="none"
        stroke="#003822"
		stroke-width="2px"
		d="M 480 503 L "/>
    <path id="Block1Jump22"
        fill="none"
        stroke="#003822"
		stroke-width="2px"
		d="M 411 498 L "/>
    <path id="Block1Jump23"
        fill="none"
        stroke="#003822"
		stroke-width="2px"
		d="M 482 506 L "/>
    <path id="Block1Jump24"
        fill="none"
        stroke="#003822"
		stroke-width="2px"
		d="M 412 501 L "/>
    <path id="Block1Jump25"
        fill="none"
        stroke="#003822"
		stroke-width="2px"
		d="M 483 509 L "/>
    <path id="Block1Jump26"
        fill="none"
        stroke="#003822"
		stroke-width="2px"
		d="M 413 503 L "/>
    <path id="Block1Jump27"
        fill="none"
        stroke="#003822"
		stroke-width="2px"
		d="M 483 512 L "/>
    <path id="Block1Jump28"
        fill="none"
        stroke="#003822"
		stroke-width="2px"
		d="M 414 506 L "/>
    <path id="Block1Jump29"
        fill="none"
        stroke="#003822"
		stroke-width="2px"
		d="M 484 515 L "/>
    <path id="Block1Jump30"
        fill="none"
        stroke="#003822"
		stroke-width="2px"
		d="M 416 509 L "/>
    <path id="Block1Jump31"
        fill="none"
        stroke="#003822"
		stroke-width="2px"
		d="M 485 517 L "/>
    <path id="Block1Jump32"
        fill="none"
        stroke="#003822"
		stroke-width="2px"
		d="M 417 512 L "/>
    <path id="Block1Jump33"
        fill="none"
        stroke="#003822"
		stroke-width="2px"
		d="M 485 520 L "/>
    <path id="Block1Jump34"
        fill="none"
        stroke="#003822"
		stroke-width="2px"
		d="M 418 515 L "/>
    <path id="Block1Jump35"
        fill="none"
        stroke="#003822"
		stroke-width="2px"
		d="M 485 523 L "/>
    <path id="Block1Jump36"
        fill="none"
        stroke="#003822"
		stroke-width="2px"
		d="M 420 518 L "/>
    <path id="Block1Jump37"
        fill="none"
        stroke="#003822"
		stroke-width="2px"
		d="M 485 526 L 421 521 "/>
    <path id="Block1Jump38"
        fill="none"
        stroke="#003822"
		stroke-width="2px"
		d="M 485 529 L 423 524 485 532 425 527 485 535 427 530 485 538 429 533 484 541 431 537 485 544 434 540 485 547 436 543 486 551 438 546 486 554 441 550 487 557 444 553 487 561 447 556 487 564 450 560 487 567 454 564 487 571 459 568 486 574 464 572 485 577 470 576 475 580 475 573 458 564 444 553 431 539 422 523 415 505 408 488 402 471 395 453 402 470 408 488 415 505 421 522 431 538 443 552 458 564 468 570 475 580 475 576 457 574 440 569 426 558 417 543 413 525 408 509 402 492 397 475 391 458 397 457 399 449 406 465 414 481 422 497 432 513 442 528 452 542 462 557 475 570 471 571 475 576 475 580 475 566 471 580 472 563 467 580 470 560 463 580 467 557 459 579 465 554 455 578 463 551 451 577 461 549 448 576 459 546 444 575 458 544 441 573 455 541 438 572 453 537 436 571 451 534 433 569 448 530 431 568 446 527 429 566 443 523 426 564 441 520 424 562 439 516 422 560 436 512 420 557 434 509 417 554 433 506 415 549 431 504 414 544 429 501 412 538 427 498 411 532 426 495 409 527 424 492 408 522 423 489 406 517 421 486 405 512 419 483 403 507 417 479 401 502 416 476 400 497 414 473 398 493 412 469 397 488 411 466 396 483 409 462 394 479 408 459 393 474 406 456 391 470 405 452 390 465 397 456 402 445 389 461 404 449 390 465 382 466 370 472 366 457 362 442 358 427 355 413 359 429 363 446 367 463 372 480 377 496 384 512 394 527 392 538 392 534 378 523 370 506 365 488 361 470 357 452 355 434 352 415 356 417 358 410 365 428 371 447 377 465 383 484 389 502 395 519 391 522 392 534 392 538 396 515 388 537 394 508 384 534 393 503 381 532 392 499 378 529 391 496 375 526 390 494 373 523 390 491 370 520 388 487 369 516 387 483 367 512 386 480 366 507 385 476 364 502 384 473 363 498 383 470 362 493 382 466 361 489 381 463 360 484 379 459 359 480 378 456 358 475 377 452 357 471 376 449 356 467 375 445 355 462 374 442 354 458 373 439 353 454 372 436 353 450 370 432 352 446 369 429 352 441 368 425 351 437 367 421 351 432 365 418 350 428 364 414 350 423 362 410 350 418 361 407 361 395 359 377 356 359 353 341 350 322 355 305 360 287 366 270 366 275 378 265 390 255 373 263 357 272 370 260 383 248 369 256 354 265 363 252 371 239 360 250 349 261 357 247 365 232 354 245 343 258 351 242 359 226 351 239 342 252 340 238 351 245 358 257 370 246 378 237 383 223 388 208 394 194 399 179 404 164 408 150 404 147 407 149 393 162 380 175 367 189 356 205 349 222 343 241 355 250 365 261 373 273 386 271 400 270 404 253 407 236 409 219 410 202 410 185 409 167 408 150 407 154 407 149 404 147 412 153 401 149 412 158 399 151 413 164 396 154 413 169 394 156 414 174 391 158 414 179 389 161 414 184 387 163 414 189 384 165 414 194 382 168 414 198 379 170 414 202 377 172 414 207 375 175 414 210 373 177 413 214 371 179 413 218 368 181 413 222 366 183 412 225 365 186 412 229 363 188 412 232 361 190 411 235 360 192 411 239 359 193 410 243 358 195 409 246 357 197 409 249 355 198 408 253 354 200 407 256 353 202 406 260 352 204 405 263 351 206 405 267 350 208 404 270 349 210 403 273 348 212 400 274 347 215 397 274 346 218 394 274 345 221 392 274 344 224 389 275 343 227 386 275 342 230 383 275 341 234 379 275 340 238 376 275 368 278 359 293 349 308 340 323 330 338 316 346 303 354 289 362 293 379 297 396 300 412 303 427 307 441 310 456 310 472 309 488 309 504 309 520 309 536 316 528 307 540 293 532 279 525 269 513 264 498 270 514 282 526 297 535 312 543 321 530 319 533 304 526 290 518 278 507 271 492 265 501 256 505 262 522 274 535 290 543 305 553 309 542 319 533 321 530 302 557 319 529 300 554 316 528 297 552 314 527 294 550 312 525 291 548 309 524 287 546 306 523 284 545 304 521 280 543 301 520 277 541 298 518 274 539 295 516 271 537 292 515 268 535 289 513 265 533 286 510 263 531 284 508 261 528 282 505 259 525 280 503 257 522 278 500 256 519 277 496 254 516 276 493 253 512 275 489 253 508 275 489 272 471 266 455 260 439 254 422 250 404 247 386 236 376 220 376 205 377 189 377 174 381 159 385 146 382 162 386 169 404 173 423 177 442 180 461 182 481 183 500 184 519 184 539 184 558 183 578 183 597 184 617 188 636 184 617 183 598 183 579 184 560 184 541 184 521 183 502 182 483 180 464 178 445 174 426 169 407 164 389 146 382 150 383 149 403 149 422 150 442 151 462 152 482 154 501 156 521 160 540 164 560 169 579 174 598 180 617 187 635 187 632 190 636 190 616 197 598 204 579 209 560 212 540 214 520 213 500 211 481 206 461 201 442 193 423 184 406 175 388 162 388 150 383 146 382 179 389 146 385 182 393 146 388 184 397 146 391 187 401 145 394 189 406 145 397 191 410 145 399 193 414 145 402 195 418 145 405 197 422 145 408 199 426 145 410 200 430 145 413 202 434 145 416 203 438 145 419 205 441 145 422 206 445 145 425 207 448 145 428 208 452 145 431 "/>
    <path id="Block1Jump39"
        fill="none"
        stroke="#003822"
		stroke-width="2px"
		d="M 209 455 L 146 434 "/>
    <path id="Block1Jump40"
        fill="none"
        stroke="#003822"
		stroke-width="2px"
		d="M 210 459 L 146 437 "/>
    <path id="Block1Jump41"
        fill="none"
        stroke="#003822"
		stroke-width="2px"
		d="M 211 462 L "/>
    <path id="Block1Jump42"
        fill="none"
        stroke="#003822"
		stroke-width="2px"
		d="M 146 440 L "/>
    <path id="Block1Jump43"
        fill="none"
        stroke="#003822"
		stroke-width="2px"
		d="M 212 465 L "/>
    <path id="Block1Jump44"
        fill="none"
        stroke="#003822"
		stroke-width="2px"
		d="M 146 443 L "/>
    <path id="Block1Jump45"
        fill="none"
        stroke="#003822"
		stroke-width="2px"
		d="M 212 469 L "/>
    <path id="Block1Jump46"
        fill="none"
        stroke="#003822"
		stroke-width="2px"
		d="M 146 446 L "/>
    <path id="Block1Jump47"
        fill="none"
        stroke="#003822"
		stroke-width="2px"
		d="M 213 472 L "/>
    <path id="Block1Jump48"
        fill="none"
        stroke="#003822"
		stroke-width="2px"
		d="M 146 449 L "/>
    <path id="Block1Jump49"
        fill="none"
        stroke="#003822"
		stroke-width="2px"
		d="M 214 475 L "/>
    <path id="Block1Jump50"
        fill="none"
        stroke="#003822"
		stroke-width="2px"
		d="M 146 452 L "/>
    <path id="Block1Jump51"
        fill="none"
        stroke="#003822"
		stroke-width="2px"
		d="M 214 478 L "/>
    <path id="Block1Jump52"
        fill="none"
        stroke="#003822"
		stroke-width="2px"
		d="M 146 455 L "/>
    <path id="Block1Jump53"
        fill="none"
        stroke="#003822"
		stroke-width="2px"
		d="M 215 481 L "/>
    <path id="Block1Jump54"
        fill="none"
        stroke="#003822"
		stroke-width="2px"
		d="M 147 458 L "/>
    <path id="Block1Jump55"
        fill="none"
        stroke="#003822"
		stroke-width="2px"
		d="M 215 485 L "/>
    <path id="Block1Jump56"
        fill="none"
        stroke="#003822"
		stroke-width="2px"
		d="M 147 461 L "/>
    <path id="Block1Jump57"
        fill="none"
        stroke="#003822"
		stroke-width="2px"
		d="M 216 488 L "/>
    <path id="Block1Jump58"
        fill="none"
        stroke="#003822"
		stroke-width="2px"
		d="M 147 464 L "/>
    <path id="Block1Jump59"
        fill="none"
        stroke="#003822"
		stroke-width="2px"
		d="M 216 491 L "/>
    <path id="Block1Jump60"
        fill="none"
        stroke="#003822"
		stroke-width="2px"
		d="M 147 467 L "/>
    <path id="Block1Jump61"
        fill="none"
        stroke="#003822"
		stroke-width="2px"
		d="M 217 494 L "/>
    <path id="Block1Jump62"
        fill="none"
        stroke="#003822"
		stroke-width="2px"
		d="M 147 470 L "/>
    <path id="Block1Jump63"
        fill="none"
        stroke="#003822"
		stroke-width="2px"
		d="M 217 497 L "/>
    <path id="Block1Jump64"
        fill="none"
        stroke="#003822"
		stroke-width="2px"
		d="M 148 473 L "/>
    <path id="Block1Jump65"
        fill="none"
        stroke="#003822"
		stroke-width="2px"
		d="M 217 500 L "/>
    <path id="Block1Jump66"
        fill="none"
        stroke="#003822"
		stroke-width="2px"
		d="M 148 476 L "/>
    <path id="Block1Jump67"
        fill="none"
        stroke="#003822"
		stroke-width="2px"
		d="M 217 503 L "/>
    <path id="Block1Jump68"
        fill="none"
        stroke="#003822"
		stroke-width="2px"
		d="M 148 479 L "/>
    <path id="Block1Jump69"
        fill="none"
        stroke="#003822"
		stroke-width="2px"
		d="M 217 506 L "/>
    <path id="Block1Jump70"
        fill="none"
        stroke="#003822"
		stroke-width="2px"
		d="M 148 482 L "/>
    <path id="Block1Jump71"
        fill="none"
        stroke="#003822"
		stroke-width="2px"
		d="M 217 509 L "/>
    <path id="Block1Jump72"
        fill="none"
        stroke="#003822"
		stroke-width="2px"
		d="M 149 485 L "/>
    <path id="Block1Jump73"
        fill="none"
        stroke="#003822"
		stroke-width="2px"
		d="M 218 512 L "/>
    <path id="Block1Jump74"
        fill="none"
        stroke="#003822"
		stroke-width="2px"
		d="M 149 488 L "/>
    <path id="Block1Jump75"
        fill="none"
        stroke="#003822"
		stroke-width="2px"
		d="M 218 515 L "/>
    <path id="Block1Jump76"
        fill="none"
        stroke="#003822"
		stroke-width="2px"
		d="M 149 491 L "/>
    <path id="Block1Jump77"
        fill="none"
        stroke="#003822"
		stroke-width="2px"
		d="M 218 518 L "/>
    <path id="Block1Jump78"
        fill="none"
        stroke="#003822"
		stroke-width="2px"
		d="M 149 494 L "/>
    <path id="Block1Jump79"
        fill="none"
        stroke="#003822"
		stroke-width="2px"
		d="M 218 521 L "/>
    <path id="Block1Jump80"
        fill="none"
        stroke="#003822"
		stroke-width="2px"
		d="M 150 498 L "/>
    <path id="Block1Jump81"
        fill="none"
        stroke="#003822"
		stroke-width="2px"
		d="M 217 524 L "/>
    <path id="Block1Jump82"
        fill="none"
        stroke="#003822"
		stroke-width="2px"
		d="M 150 501 L "/>
    <path id="Block1Jump83"
        fill="none"
        stroke="#003822"
		stroke-width="2px"
		d="M 217 527 L "/>
    <path id="Block1Jump84"
        fill="none"
        stroke="#003822"
		stroke-width="2px"
		d="M 150 504 L "/>
    <path id="Block1Jump85"
        fill="none"
        stroke="#003822"
		stroke-width="2px"
		d="M 217 530 L "/>
    <path id="Block1Jump86"
        fill="none"
        stroke="#003822"
		stroke-width="2px"
		d="M 151 507 L "/>
    <path id="Block1Jump87"
        fill="none"
        stroke="#003822"
		stroke-width="2px"
		d="M 217 533 L "/>
    <path id="Block1Jump88"
        fill="none"
        stroke="#003822"
		stroke-width="2px"
		d="M 151 510 L "/>
    <path id="Block1Jump89"
        fill="none"
        stroke="#003822"
		stroke-width="2px"
		d="M 217 536 L "/>
    <path id="Block1Jump90"
        fill="none"
        stroke="#003822"
		stroke-width="2px"
		d="M 151 513 L "/>
    <path id="Block1Jump91"
        fill="none"
        stroke="#003822"
		stroke-width="2px"
		d="M 217 538 L "/>
    <path id="Block1Jump92"
        fill="none"
        stroke="#003822"
		stroke-width="2px"
		d="M 152 516 L "/>
    <path id="Block1Jump93"
        fill="none"
        stroke="#003822"
		stroke-width="2px"
		d="M 216 541 L 152 519 "/>
    <path id="Block1Jump94"
        fill="none"
        stroke="#003822"
		stroke-width="2px"
		d="M 216 544 L 153 523 215 547 153 526 215 550 154 529 215 553 154 532 214 556 155 536 213 559 155 539 213 562 156 542 212 564 157 546 211 567 157 549 210 570 158 552 210 573 159 555 209 576 160 559 208 580 161 562 207 583 162 566 206 586 162 569 204 589 163 573 203 592 164 577 202 595 165 581 201 598 166 585 199 601 168 589 198 604 169 593 197 607 170 598 196 610 171 602 195 613 172 606 194 616 174 611 193 620 175 615 193 623 177 620 193 627 179 625 193 630 181 629 194 634 183 634 194 638 184 638 186 632 178 617 170 601 163 585 154 571 146 555 144 537 151 523 144 536 146 552 151 567 161 581 168 596 175 611 181 624 184 638 185 634 173 620 162 605 150 590 135 579 125 563 128 545 140 531 140 528 151 524 161 518 165 537 168 556 172 574 175 593 180 612 187 630 184 628 185 634 184 638 188 626 181 635 187 621 178 632 185 617 175 629 184 612 172 625 183 607 170 622 182 603 167 619 180 599 165 616 179 594 162 613 179 590 160 610 178 587 158 606 177 584 156 603 177 580 153 600 176 577 151 597 176 574 149 594 175 571 146 591 175 568 143 589 174 565 140 587 174 562 137 586 173 559 134 584 173 556 131 581 172 553 128 579 172 550 127 577 171 547 125 574 170 544 123 571 170 541 122 568 169 537 121 565 169 534 121 562 168 531 120 558 167 527 121 554 167 525 121 549 166 523 123 544 166 520 127 538 166 518 137 530 151 523 165 516 137 530 140 528 142 527 145 526 142 526 140 529 136 529 " />
    <path id="Block2Jump95"
        fill="none"
        stroke="#70BC1F"
		stroke-width="2px"
		d="M 178 608 L 180 609 178 608 173 610 185 616 172 605 184 611 170 599 191 610 168 593 188 604 167 588 184 597 165 582 179 590 164 577 182 587 162 572 190 587 161 567 188 582 160 562 196 581 158 558 190 574 157 553 198 574 156 549 201 572 155 545 191 562 155 541 198 562 154 537 193 556 153 532 198 554 153 528 209 556 152 524 193 544 152 520 200 544 152 516 202 541 151 512 191 532 151 508 196 531 151 503 201 530 151 499 161 505 172 510 182 516 193 522 151 499 149 496 200 521 149 489 205 516 148 482 207 509 148 475 192 494 147 468 200 490 147 461 203 483 147 455 197 473 147 448 202 468 146 441 186 455 146 433 188 448 146 426 192 442 146 419 194 435 146 412 182 424 145 405 171 413 145 397 170 406 145 390 159 394 172 399 145 390 132 395 132 415 133 435 133 455 133 475 133 495 122 506 131 498 139 489 136 480 132 472 137 484 142 497 145 510 148 523 151 537 155 550 159 563 164 575 169 588 165 593 173 583 164 589 172 577 157 593 171 572 156 588 170 567 152 588 169 562 154 577 168 557 154 571 167 551 154 564 166 546 150 564 165 541 141 573 164 535 147 556 164 531 137 565 163 526 143 551 163 522 135 555 162 519 140 542 162 515 133 546 162 511 135 538 161 508 136 531 161 504 131 531 161 501 136 521 160 497 131 522 160 494 135 513 160 491 131 512 160 487 123 514 159 484 130 504 159 481 115 512 159 478 117 506 159 474 125 496 159 471 118 497 159 467 109 499 159 464 104 498 159 461 113 488 159 457 106 489 159 454 148 456 139 462 131 469 131 456 132 444 132 431 134 418 136 405 138 393 135 408 133 423 132 438 131 453 128 466 116 475 105 485 158 453 105 482 157 450 105 478 157 447 105 474 157 444 105 471 157 441 105 467 157 438 106 463 157 435 106 459 157 433 106 456 157 430 107 452 157 427 107 448 157 424 108 444 157 421 109 441 157 418 109 436 157 415 110 432 157 412 111 428 157 409 112 424 157 405 113 420 157 402 114 416 157 399 115 412 157 396 116 408 157 393 117 404 157 389 118 400 131 395 144 391 157 386 118 400 123 388 110 391 98 395 89 380 79 366 70 351 87 362 72 367 55 357 40 344 29 329 21 311 12 294 21 311 28 328 38 342 53 355 68 365 58 372 62 370 46 364 31 358 16 349 8 343 5 327 5 310 5 293 14 298 18 295 30 307 45 319 60 333 73 347 83 364 71 365 62 370 58 372 87 362 51 370 86 360 44 368 85 357 38 366 83 355 33 363 82 353 28 361 81 351 23 358 79 348 19 356 77 346 15 354 75 343 12 351 73 340 9 349 70 338 6 347 68 335 "/>
    <path id="Block2Jump96"
        fill="none"
        stroke="#70BC1F"
		stroke-width="2px"
		d="M 3 344 L 65 332 "/>
    <path id="Block2Jump97"
        fill="none"
        stroke="#70BC1F"
		stroke-width="2px"
		d="M 0 342 L 63 330 0 339 61 328 1 335 58 326 1 332 56 324 1 329 54 322 1 325 52 320 1 322 49 317 1 319 47 315 1 315 44 313 1 312 41 310 1 308 38 308 1 304 34 305 1 301 31 302 1 297 27 299 1 293 22 295 15 308 22 299 29 291 42 306 55 321 67 336 80 352 68 337 56 322 44 308 31 294 18 280 8 264 4 245 5 240 4 244 19 255 32 269 43 283 54 299 63 315 72 331 82 347 77 349 78 357 63 346 49 334 36 322 23 310 10 297 6 285 6 267 4 249 5 253 5 249 4 244 5 240 3 251 9 242 3 270 12 244 3 281 15 247 6 278 19 249 3 291 22 252 3 295 24 254 5 298 26 256 8 300 28 259 10 303 31 261 13 306 33 263 15 308 35 266 18 311 37 269 20 313 39 271 23 316 41 274 26 318 43 277 28 321 45 280 31 323 48 283 34 326 50 286 36 328 52 289 39 330 54 293 41 333 57 296 44 335 59 300 47 337 61 303 49 339 64 307 52 341 66 311 54 344 68 314 57 346 70 318 60 348 72 322 62 350 75 326 65 352 77 330 68 354 79 335 77 348 76 361 83 344 73 358 81 339 71 356 79 335 85 337 87 321 90 304 93 288 96 272 95 252 95 262 114 268 133 276 150 285 168 294 185 304 202 315 218 327 233 341 218 327 203 316 186 305 169 295 152 286 135 277 117 269 99 263 95 252 95 256 114 253 132 257 148 265 165 274 180 284 195 295 209 308 221 322 233 336 229 337 232 345 214 337 196 328 179 319 162 310 145 300 128 290 112 279 96 268 99 263 95 256 95 252 96 272 98 251 100 275 101 250 104 278 104 250 108 281 107 249 112 284 110 249 116 286 113 249 120 289 116 249 124 292 119 250 127 294 123 250 131 296 126 251 135 299 130 252 138 301 133 254 142 303 136 255 146 305 140 257 149 307 143 258 153 309 147 260 156 311 150 262 160 313 154 264 163 315 157 265 167 317 161 267 170 319 164 269 173 321 168 271 176 322 172 273 179 324 175 276 183 326 179 278 186 327 182 280 189 329 186 283 192 330 190 286 195 332 193 288 198 333 197 291 201 335 201 295 204 336 205 298 207 338 208 302 210 339 212 306 213 341 216 310 216 342 220 314 219 344 224 318 222 345 227 322 225 346 231 327 228 348 234 332 231 349 233 340 223 345 205 340 187 334 171 325 155 316 140 305 126 294 112 281 98 269 113 282 128 295 143 308 160 319 177 329 195 337 214 343 233 340 229 342 213 334 196 325 181 315 165 306 149 297 133 288 117 279 102 269 102 272 94 269 103 286 114 301 128 314 144 325 160 334 178 340 197 345 215 349 217 344 229 342 233 340 212 350 230 338 204 350 227 336 197 349 224 335 190 348 220 333 184 346 217 331 178 345 214 330 172 343 211 328 167 341 207 326 161 339 204 324 157 337 200 322 152 334 196 320 148 332 192 318 144 330 189 315 140 328 185 313 136 325 181 311 133 323 177 309 130 321 174 307 126 318 170 304 123 316 166 302 120 313 162 300 118 310 159 297 115 308 155 295 112 305 151 293 110 302 147 291 107 299 143 289 105 296 139 286 103 293 135 284 101 290 131 282 99 287 126 279 97 283 122 277 95 280 117 274 93 277 112 271 92 273 106 269 90 269 102 258 94 274 87 289 93 305 92 322 92 339 93 320 92 301 84 283 77 266 69 248 62 231 54 213 47 195 42 177 36 181 40 178 39 197 41 217 45 235 50 254 56 272 63 290 71 308 79 325 88 342 92 335 96 337 99 319 103 301 107 283 101 266 94 250 86 233 77 217 68 202 57 187 44 176 43 181 40 178 36 181 47 173 36 186 50 175 35 192 52 177 35 198 54 178 35 203 56 181 36 207 59 183 36 211 61 186 37 216 63 188 37 220 65 191 38 223 67 194 39 227 69 197 39 231 71 199 40 235 73 202 41 238 75 205 42 242 76 208 43 245 78 210 44 249 80 213 45 252 81 216 46 256 83 218 47 259 84 221 48 262 86 224 50 266 87 227 51 269 88 229 52 272 90 232 53 276 91 235 55 279 92 238 56 282 94 241 57 285 95 243 58 288 96 246 60 292 98 249 61 295 99 252 62 298 100 255 64 301 102 258 65 305 103 261 66 308 104 264 68 311 105 267 69 315 107 270 71 318 108 273 72 321 109 277 74 324 110 280 75 327 111 283 76 329 110 290 78 331 108 297 79 333 106 304 80 335 105 311 81 338 104 317 82 340 102 323 83 342 101 329 85 344 100 334 85 344 77 346 87 343 74 329 63 313 54 296 46 278 41 259 37 240 34 221 34 201 37 182 34 201 34 220 37 238 40 257 46 275 53 293 61 310 72 326 84 340 77 346 81 345 66 333 53 320 41 305 32 288 26 271 22 252 20 234 20 215 25 197 36 182 36 185 38 182 42 201 46 219 51 237 57 255 63 273 69 290 77 308 85 325 93 342 84 340 81 345 77 346 97 340 84 340 72 326 62 311 53 294 46 277 41 259 37 241 34 223 34 204 36 185 42 183 32 181 43 187 29 184 44 192 27 187 45 196 24 189 46 200 23 193 47 204 21 196 48 208 20 199 48 212 18 202 49 215 17 205 50 219 17 209 51 222 16 212 52 225 16 216 53 229 16 219 54 232 16 223 55 235 16 227 56 238 16 230 57 241 16 234 58 244 16 237 58 247 17 241 60 251 17 244 61 254 17 248 62 257 18 251 63 261 18 254 64 264 19 258 65 267 19 261 66 271 20 264 68 274 21 268 69 277 22 271 70 281 23 274 71 284 24 278 73 287 25 281 74 290 26 285 75 293 28 288 76 296 30 292 77 299 31 295 78 301 33 299 80 304 35 302 81 307 37 306 82 310 40 309 83 313 42 313 85 316 45 316 86 318 48 320 87 321 51 323 89 324 54 327 90 327 57 330 92 330 61 333 93 333 65 337 95 335 68 340 96 338 73 343 97 340 92 353 94 369 96 385 97 402 113 396 128 391 143 386 161 383 179 379 197 376 213 374 230 372 246 370 261 367 275 364 290 361 279 378 290 373 287 391 286 409 288 427 291 445 296 463 301 480 307 497 301 480 296 464 291 447 288 430 286 412 286 395 289 377 279 378 283 376 276 395 271 414 269 433 272 452 278 471 288 488 301 502 306 493 313 492 311 474 311 457 309 439 307 422 304 405 301 387 298 370 289 377 283 376 279 378 302 369 276 383 302 371 274 388 303 374 272 394 303 377 270 399 304 380 269 404 304 383 267 409 304 386 267 413 305 388 266 418 305 391 266 422 306 394 265 426 307 398 265 430 307 401 265 434 308 404 266 438 308 407 266 441 309 411 266 445 309 414 267 448 310 417 268 451 311 420 268 455 311 424 269 458 312 427 270 461 312 430 271 464 313 434 272 467 313 437 274 470 313 440 275 473 314 444 277 476 314 447 278 479 314 451 280 482 315 454 281 484 315 458 283 487 315 461 285 490 315 465 287 492 315 469 289 495 315 472 291 497 316 476 293 500 316 480 296 502 316 485 299 505 315 489 312 496 326 498 326 479 325 459 324 440 321 421 317 402 310 384 301 367 310 384 317 402 321 420 324 439 325 458 326 477 326 496 336 512 328 509 332 510 332 507 318 496 309 489 307 471 306 453 304 436 302 418 299 401 296 384 292 366 303 371 309 368 320 384 330 400 338 418 343 437 345 456 346 475 344 495 341 514 332 507 332 510 328 509 345 515 319 502 345 512 312 496 346 508 305 491 347 505 305 487 347 502 304 484 348 499 304 480 348 496 304 477 348 493 304 473 349 489 303 469 349 486 303 466 349 483 303 462 349 480 302 459 349 477 302 455 350 473 301 452 350 470 301 448 350 467 301 445 350 464 300 441 349 460 300 438 349 457 300 435 349 453 299 432 348 450 299 429 348 446 298 426 348 443 298 422 347 439 298 419 347 436 297 416 346 432 297 413 345 428 296 409 345 425 296 406 344 421 295 402 342 418 295 399 341 414 294 395 340 410 293 393 338 406 293 390 336 401 292 387 333 397 292 384 331 393 291 381 329 389 291 378 326 385 290 375 323 380 289 372 320 376 289 369 317 372 288 366 313 368 312 362 322 348 332 335 343 322 347 303 351 284 356 265 363 256 359 250 352 246 355 232 359 219 364 205 371 193 378 181 386 169 384 165 389 173 380 168 386 178 376 172 384 183 372 176 383 187 369 179 381 192 366 183 379 196 362 187 378 201 359 192 376 205 357 196 375 209 354 200 373 214 352 204 372 219 350 209 371 224 348 213 369 229 346 217 368 234 344 222 367 239 343 227 366 245 341 232 364 250 340 237 363 256 356 263 368 269 372 256 377 242 372 258 368 273 376 263 384 254 377 266 370 279 366 276 386 275 405 274 409 290 412 306 416 322 412 302 407 283 402 264 413 255 414 238 411 221 413 211 407 200 409 183 410 166 408 149 403 151 406 150 405 169 399 188 389 204 389 213 394 221 388 229 391 242 390 256 381 267 369 273 379 285 389 298 400 310 410 322 415 318 422 321 427 304 432 287 435 269 438 251 437 233 435 215 431 198 422 182 415 166 409 148 409 153 406 150 403 151 413 147 403 156 415 150 402 160 416 154 402 164 417 158 401 169 418 161 401 173 419 165 400 178 419 169 398 182 421 172 395 187 423 176 392 191 425 179 390 196 427 182 387 201 429 185 384 205 431 188 382 210 433 191 384 212 434 194 386 215 435 197 388 218 436 200 390 220 437 203 387 224 438 207 383 227 438 211 384 230 439 214 385 232 439 217 386 235 440 220 387 238 440 223 387 241 440 226 387 244 440 229 387 247 441 232 387 250 441 235 386 253 441 238 386 255 441 241 385 258 442 244 384 260 442 247 383 263 442 251 "/>
    <path id="Block2Jump98"
        fill="none"
        stroke="#70BC1F"
		stroke-width="2px"
		d="M 373 267 L "/>
    <path id="Block2Jump99"
        fill="none"
        stroke="#70BC1F"
		stroke-width="2px"
		d="M 441 254 L "/>
    <path id="Block2Jump100"
        fill="none"
        stroke="#70BC1F"
		stroke-width="2px"
		d="M 363 271 L "/>
    <path id="Block2Jump101"
        fill="none"
        stroke="#70BC1F"
		stroke-width="2px"
		d="M 441 256 L "/>
    <path id="Block2Jump102"
        fill="none"
        stroke="#70BC1F"
		stroke-width="2px"
		d="M 364 274 L "/>
    <path id="Block2Jump103"
        fill="none"
        stroke="#70BC1F"
		stroke-width="2px"
		d="M 441 259 L "/>
    <path id="Block2Jump104"
        fill="none"
        stroke="#70BC1F"
		stroke-width="2px"
		d="M 366 276 L "/>
    <path id="Block2Jump105"
        fill="none"
        stroke="#70BC1F"
		stroke-width="2px"
		d="M 440 262 L "/>
    <path id="Block2Jump106"
        fill="none"
        stroke="#70BC1F"
		stroke-width="2px"
		d="M 368 278 L "/>
    <path id="Block2Jump107"
        fill="none"
        stroke="#70BC1F"
		stroke-width="2px"
		d="M 440 265 L "/>
    <path id="Block2Jump108"
        fill="none"
        stroke="#70BC1F"
		stroke-width="2px"
		d="M 370 281 L "/>
    <path id="Block2Jump109"
        fill="none"
        stroke="#70BC1F"
		stroke-width="2px"
		d="M 439 268 L "/>
    <path id="Block2Jump110"
        fill="none"
        stroke="#70BC1F"
		stroke-width="2px"
		d="M 372 283 L "/>
    <path id="Block2Jump111"
        fill="none"
        stroke="#70BC1F"
		stroke-width="2px"
		d="M 439 271 L "/>
    <path id="Block2Jump112"
        fill="none"
        stroke="#70BC1F"
		stroke-width="2px"
		d="M 374 286 L "/>
    <path id="Block2Jump113"
        fill="none"
        stroke="#70BC1F"
		stroke-width="2px"
		d="M 438 274 L 376 288 438 277 378 291 437 280 380 293 436 283 383 296 436 286 385 298 435 290 387 301 434 293 389 303 433 296 391 306 432 300 393 309 432 303 396 311 431 307 398 314 430 310 400 317 428 314 403 320 427 317 406 323 416 322 426 321 406 323 412 324 400 334 393 344 389 359 383 373 390 355 395 335 385 329 376 322 365 324 369 323 368 340 370 357 376 373 384 370 390 373 401 360 411 346 419 331 408 328 395 326 383 321 380 325 369 323 365 324 387 320 364 328 396 322 364 333 404 323 364 336 412 324 364 340 418 325 364 344 425 327 365 346 424 330 365 349 422 334 365 351 421 337 365 354 419 341 366 356 417 345 366 359 415 348 367 361 412 352 368 364 409 356 369 366 406 360 369 369 402 364 371 371 398 368 372 373 383 373 394 372 372 373 369 391 379 391 371 395 392 396 373 399 390 400 375 403 406 406 377 407 405 410 378 411 408 415 380 416 420 421 382 421 431 427 383 426 429 432 385 431 430 437 387 436 436 443 389 441 446 449 391 447 442 454 394 453 442 460 397 459 447 466 400 466 454 472 403 472 446 477 406 478 452 484 409 484 463 492 413 491 460 498 417 498 473 507 421 505 469 513 426 512 473 521 432 521 467 527 437 529 478 536 444 538 474 543 451 547 463 548 474 550 451 547 451 559 456 539 444 551 451 533 435 553 446 526 431 543 442 520 428 535 438 515 419 540 434 509 419 528 430 503 413 529 427 497 412 518 424 491 407 519 420 486 407 509 417 481 408 495 415 476 404 494 412 470 399 469 392 459 386 449 379 433 372 416 370 402 369 387 367 373 384 376 402 380 419 383 436 384 453 386 454 391 456 381 468 368 484 360 502 355 519 350 503 354 488 359 473 366 460 376 454 391 455 386 470 384 486 381 501 378 516 375 516 358 518 342 521 326 505 332 490 339 476 350 466 364 457 376 461 374 455 386 454 391 458 372 457 390 464 359 461 389 469 352 464 389 473 347 468 388 478 343 471 388 481 340 475 387 485 337 478 386 488 335 481 386 492 334 485 385 495 332 488 384 498 331 492 384 502 329 495 383 505 328 499 382 508 326 502 382 511 325 506 381 514 324 509 380 516 323 512 379 519 322 516 379 518 360 520 340 522 321 516 379 517 365 516 374 521 383 505 386 490 388 474 390 459 390 478 390 498 387 518 383 517 365 517 369 502 373 487 377 471 381 456 385 463 390 461 395 477 397 492 399 508 399 524 397 518 383 517 369 517 365 525 401 513 366 522 401 510 367 519 402 506 368 517 402 502 369 514 402 499 370 512 402 495 371 509 403 491 372 506 403 488 373 503 403 485 374 500 403 481 374 496 403 478 375 492 403 475 376 488 402 471 377 484 402 468 378 480 402 465 379 476 401 461 380 472 400 458 381 467 400 454 382 463 398 463 396 462 393 461 390 463 392 462 396 466 399 " />
    <path id="Block3Jump114"
        fill="none"
        stroke="#66BA49"
		stroke-width="2px"
		d="M 476 575 L 478 571 475 573 478 571 476 575 477 581 480 574 474 578 478 571 471 575 475 568 469 571 472 564 466 568 470 561 463 565 468 557 461 562 465 554 458 558 463 551 455 555 461 547 453 552 458 544 450 549 456 541 448 545 454 537 446 542 452 534 443 539 450 531 441 536 447 528 438 532 445 524 436 529 443 521 434 526 441 518 432 522 439 514 430 519 437 511 428 516 435 507 425 512 433 504 423 509 431 501 421 506 429 497 419 502 427 494 417 499 425 490 415 495 423 487 413 492 422 483 411 488 420 479 410 485 418 476 408 481 416 472 406 478 414 469 404 474 412 465 402 470 411 461 400 467 409 458 399 463 407 454 397 459 405 450 395 455 404 446 393 451 402 443 392 448 400 439 390 444 399 435 388 440 397 431 387 436 395 427 385 432 394 423 384 428 392 419 384 428 379 419 373 406 368 392 362 378 354 368 345 357 330 357 316 358 301 358 285 362 270 366 254 370 240 372 226 374 211 375 192 377 173 380 154 382 159 387 152 389 152 404 152 419 152 434 152 448 153 463 154 478 155 493 156 507 158 522 160 537 163 551 166 566 169 580 173 595 177 609 181 623 178 626 187 629 177 621 185 625 175 616 184 620 173 612 183 615 172 607 181 611 170 602 180 606 169 597 179 601 167 592 178 597 166 588 177 592 165 583 176 588 164 578 175 583 162 574 174 579 161 569 173 574 160 565 172 570 159 560 171 565 158 555 170 561 157 551 169 556 156 546 169 552 155 542 168 547 155 538 167 543 154 533 166 539 153 529 166 534 152 524 165 530 152 520 165 526 151 515 164 521 151 511 163 517 150 507 163 513 150 502 162 508 149 498 162 504 149 494 162 500 149 490 161 495 148 485 161 491 148 481 160 487 148 477 160 482 147 472 160 478 147 468 159 474 147 464 159 470 147 460 159 465 147 455 159 461 146 451 159 457 146 447 158 453 146 443 158 449 146 439 158 444 146 434 158 440 146 430 158 436 146 426 158 432 146 422 158 427 146 418 158 423 146 415 158 419 146 411 158 415 146 407 158 411 146 403 158 407 146 399 158 403 146 395 158 399 146 392 158 395 146 388 159 391 146 384 159 387 163 372 155 372 157 361 161 351 167 341 161 339 173 343 159 343 171 346 157 346 169 349 155 350 167 352 153 353 166 356 152 357 165 359 150 361 164 362 149 365 163 366 148 368 163 369 147 372 163 372 147 372 150 379 138 384 126 389 109 394 92 399 91 382 90 366 90 353 90 340 89 335 100 323 85 328 97 315 82 320 98 302 78 313 99 290 75 306 102 276 72 299 95 273 69 292 90 268 67 285 89 260 64 279 92 248 62 272 87 244 60 265 83 239 57 259 84 230 55 252 75 232 54 246 81 217 52 240 72 220 50 235 72 211 49 230 70 205 47 224 63 206 46 219 64 195 45 214 57 196 43 208 53 194 42 203 54 185 41 197 47 187 39 192 49 174 38 186 43 176 37 180 43 184 38 186 44 188 35 189 45 192 27 191 46 197 31 196 47 203 25 198 49 209 28 205 50 215 29 211 51 221 31 217 52 227 27 222 54 234 20 225 55 240 30 236 57 246 24 240 59 252 29 248 61 258 30 256 63 264 66 260 60 260 55 247 52 233 48 220 45 206 43 193 41 186 36 181 46 184 36 185 47 188 37 189 48 192 38 193 48 196 38 197 49 200 39 201 50 204 39 205 51 208 40 210 52 211 41 213 53 215 42 217 54 219 43 221 55 223 43 225 56 227 44 229 57 230 45 233 58 234 46 237 59 238 47 241 60 241 48 245 62 245 49 248 63 249 50 252 64 252 52 256 65 256 53 260 66 260 54 264 68 264 55 267 69 267 56 271 70 271 58 275 72 275 59 279 73 278 60 282 74 282 62 286 76 286 63 290 77 289 65 294 79 293 66 297 80 297 68 301 82 300 69 305 83 304 71 308 85 307 72 312 86 311 74 315 88 314 76 319 89 318 77 322 91 321 79 326 92 325 81 330 94 328 83 333 96 332 85 337 97 335 86 340 99 338 97 337 94 337 97 337 99 338 " />
    <path id="Block4Jump115"
        fill="none"
        stroke="#132B1A"
		stroke-width="2px"
		d="M 97 276 L 100 277 103 279 100 277 97 276 103 279 104 298 102 318 98 337 93 355 86 373 92 358 96 343 100 327 103 311 104 295 104 284 97 276 101 278 95 296 91 315 86 333 83 352 80 371 87 370 92 376 101 362 108 346 112 330 113 313 110 296 106 280 104 283 101 278 97 276 110 282 96 279 112 287 95 283 113 292 94 286 114 296 93 289 116 301 92 293 116 305 91 296 117 310 90 299 117 314 90 302 117 318 89 306 117 322 88 309 117 326 87 312 116 330 86 315 116 334 86 319 115 337 85 322 114 340 84 326 113 344 83 329 112 347 82 333 111 350 82 337 110 353 81 340 109 355 80 344 108 358 80 347 106 361 79 351 105 364 78 355 103 367 78 358 101 369 77 362 99 372 77 366 97 375 76 370 86 373 95 377 76 370 68 363 77 379 61 386 44 394 28 401 11 408 29 401 46 393 63 385 80 378 98 373 102 378 100 375 88 391 72 403 54 410 35 413 15 413 15 407 8 404 18 390 31 378 46 370 63 367 80 368 96 371 94 374 100 375 102 378 94 368 100 382 87 366 98 385 82 364 96 388 77 363 94 390 73 363 92 393 68 363 90 395 65 363 88 397 61 363 85 400 58 363 83 401 54 364 80 403 51 364 78 405 48 365 75 406 45 366 72 408 42 367 69 409 39 369 66 411 36 370 63 412 33 372 60 413 31 373 57 414 28 375 54 415 26 377 50 415 23 379 47 416 21 381 43 417 18 383 39 417 16 386 35 417 14 388 31 417 12 391 27 417 10 394 22 417 8 397 17 416 6 400 17 416 26 433 26 427 14 419 2 412 13 418 23 424 26 420 26 424 14 409 2 395 5 413 3 432 15 432 26 429 23 424 26 424 26 420 26 433 23 426 15 420 6 414 4 425 3 436 2 389 6 436 5 392 9 437 9 396 12 437 12 400 16 436 16 404 19 436 19 409 23 435 23 414 26 433 27 441 17 455 2 464 5 477 3 489 3 484 15 474 22 459 27 445 24 447 26 437 14 440 2 444 4 457 4 471 3 484 3 489 2 440 6 487 5 439 9 485 7 438 12 483 9 437 15 480 12 436 18 477 14 435 21 473 17 435 23 468 20 434 26 462 23 433 28 449 26 433 36 427 50 423 63 418 77 414 90 418 102 410 102 427 100 444 103 458 110 474 119 483 126 499 130 515 136 531 142 547 150 562 142 546 135 529 129 512 125 495 118 483 109 472 102 456 100 443 102 425 106 413 118 403 114 405 111 422 108 439 105 455 116 469 125 483 140 491 144 509 147 527 150 545 152 563 147 557 147 561 137 546 126 530 116 513 108 494 101 476 95 456 93 436 93 416 105 413 114 405 118 403 90 418 104 414 101 433 99 451 107 468 111 478 121 485 127 503 132 522 139 540 147 557 144 560 156 565 138 554 155 560 134 549 155 556 130 544 155 552 127 539 154 548 124 535 154 544 121 531 153 540 119 527 153 536 117 523 152 532 115 520 152 529 113 516 151 525 111 513 150 521 110 509 150 518 108 506 149 514 107 502 148 510 106 499 148 506 105 495 147 503 103 492 146 499 102 489 145 495 101 485 144 492 99 482 144 488 98 479 135 484 96 475 126 479 95 471 124 476 94 467 123 473 93 463 121 470 92 459 119 466 91 456 115 461 90 452 112 457 90 449 108 452 89 446 109 449 89 442 110 445 89 439 112 442 88 435 113 438 88 432 114 434 88 431 114 430 89 429 115 426 89 427 116 422 89 425 116 417 89 423 117 413 89 421 118 408 90 418 98 411 88 417 78 423 76 441 76 459 79 477 85 495 93 511 103 526 116 539 129 551 144 563 143 569 143 565 125 558 108 550 91 540 78 526 68 509 61 491 58 472 59 452 61 433 79 426 94 414 93 434 95 453 99 473 105 492 112 510 121 528 131 545 144 561 140 560 143 565 143 569 144 557 139 567 141 553 135 566 139 549 132 565 136 546 128 563 134 542 124 562 132 539 121 560 130 535 117 558 128 532 114 557 126 529 110 555 125 526 107 554 123 523 104 552 122 521 100 551 120 518 97 549 119 515 94 547 117 512 91 545 116 509 89 543 115 507 86 541 114 504 83 539 113 501 81 536 112 499 79 534 111 496 77 531 110 494 74 528 109 491 72 525 108 489 71 522 107 486 69 520 106 483 67 517 105 481 66 514 105 478 64 510 104 476 63 507 103 474 61 504 103 471 60 501 102 467 59 498 101 464 58 495 100 461 57 491 100 458 57 488 99 455 56 484 98 452 55 481 98 448 55 477 98 445 55 474 97 442 54 470 97 438 54 466 97 435 54 462 97 432 54 458 97 428 55 453 97 425 55 449 97 421 56 445 97 418 57 440 97 415 58 435 98 411 90 406 106 398 123 390 140 384 157 379 175 375 194 373 212 372 230 373 248 375 265 382 263 393 263 404 272 413 275 423 271 431 281 446 287 462 296 477 312 485 325 498 333 514 344 528 352 539 344 527 333 513 325 497 312 485 296 478 287 463 281 446 271 431 275 423 272 412 263 404 263 393 265 382 271 376 282 379 278 378 276 394 275 410 292 420 288 427 280 433 291 445 296 460 301 476 314 485 330 490 339 496 347 509 351 525 359 539 353 536 355 539 339 528 323 516 310 502 297 486 285 471 274 454 265 436 258 418 252 399 251 380 260 378 270 374 272 378 278 378 282 379 266 373 286 383 259 374 285 386 252 374 284 389 247 374 282 392 247 378 281 394 247 382 280 396 247 386 278 399 247 390 278 402 247 393 278 405 248 396 279 408 248 399 278 409 249 403 293 413 249 406 295 417 250 410 296 420 251 413 296 424 253 417 295 428 254 421 290 431 256 425 284 434 257 428 291 439 259 433 297 444 261 437 297 448 263 441 298 452 265 445 299 455 266 449 300 459 269 453 301 463 271 457 302 467 274 461 303 471 277 466 305 474 280 471 307 478 284 475 309 481 287 479 331 485 291 483 335 488 293 486 338 491 294 489 344 494 297 492 350 497 299 495 350 500 301 498 350 503 304 501 350 506 306 504 351 510 309 507 351 513 312 510 352 516 315 513 354 520 318 517 355 524 322 520 356 527 327 524 358 530 333 528 360 533 338 532 361 536 345 536 363 538 351 540 351 545 350 540 332 533 314 525 299 514 286 501 276 485 267 469 256 454 247 437 241 420 239 401 240 387 234 375 240 391 240 411 244 429 251 446 261 461 272 477 281 493 292 508 306 520 323 529 338 535 351 545 350 541 330 541 310 539 292 532 277 518 269 500 258 484 243 471 231 455 224 436 223 416 225 396 230 377 236 378 239 374 254 378 257 397 261 416 268 434 275 452 284 469 295 485 306 501 320 515 334 528 350 539 346 538 350 541 351 545 349 535 347 545 345 532 343 545 342 529 339 546 338 526 335 545 335 523 332 545 331 520 328 545 328 517 324 545 325 514 321 545 323 512 317 544 320 509 313 544 317 507 310 543 315 504 306 543 313 502 303 542 310 499 300 540 308 497 296 539 306 495 293 537 305 492 290 535 303 490 287 533 301 488 284 531 300 485 281 528 298 483 279 526 297 481 276 523 295 478 273 520 294 476 271 517 292 474 269 513 290 471 268 509 289 468 266 505 287 466 265 500 285 463 263 497 284 460 261 493 282 457 259 490 281 455 256 487 279 452 254 485 278 449 251 483 277 447 248 480 276 444 246 478 275 441 243 476 274 439 240 474 273 436 238 471 272 434 236 469 271 431 234 466 270 428 232 463 269 426 230 461 268 423 228 458 267 421 227 455 266 418 225 451 265 416 224 448 265 413 223 445 264 410 222 442 263 408 221 438 262 405 220 435 262 403 219 431 261 400 219 427 261 397 219 423 260 394 219 419 260 391 219 415 259 388 219 411 259 384 220 407 259 381 220 403 259 378 221 398 259 375 222 394 255 374 223 389 251 373 225 384 247 373 227 379 242 372 240 374 238 376 235 377 238 376 240 373 245 373 " />
    <path id="Block5Jump116"
        fill="none"
        stroke="#435607"
		stroke-width="2px"
		d="M 237 377 L 240 376 243 375 240 376 237 377 250 372 237 377 253 373 226 388 250 377 239 385 259 375 222 401 259 380 231 400 259 385 236 402 260 390 225 417 260 395 228 420 261 400 238 419 262 405 230 431 263 409 237 431 264 413 236 439 266 417 241 441 267 421 235 454 269 425 244 452 270 429 244 459 272 433 241 471 273 438 248 472 275 442 249 479 277 446 264 466 279 450 265 475 281 455 263 489 283 459 274 478 286 464 273 491 289 469 277 496 292 473 278 505 295 478 279 516 297 481 284 517 299 485 290 515 302 489 291 532 305 493 299 521 308 497 302 532 311 500 306 542 314 503 313 527 317 507 317 532 321 511 322 527 325 515 328 532 329 519 333 534 337 534 342 532 348 537 352 545 352 535 349 542 349 533 345 540 345 530 341 537 342 527 337 534 339 524 334 532 336 521 330 529 333 518 327 526 330 515 324 523 327 512 321 520 324 510 317 518 321 507 314 515 319 504 311 512 316 501 308 509 313 498 306 505 311 495 303 502 309 492 300 499 306 489 297 496 304 486 295 493 302 483 293 490 300 480 290 487 298 477 288 483 296 473 286 480 294 470 283 477 292 467 281 473 290 464 279 470 288 460 277 466 286 457 275 463 284 454 274 459 282 450 272 456 281 447 270 452 279 443 268 449 278 440 267 445 276 436 265 441 275 433 263 438 273 429 262 434 272 426 261 430 271 422 259 426 270 418 258 423 269 415 257 419 268 411 256 415 267 407 255 411 266 404 253 407 265 400 253 403 264 396 252 398 264 392 251 394 263 388 250 390 262 385 249 386 262 381 249 382 262 377 248 378 261 373 252 372 233 371 215 372 197 373 178 376 160 379 143 384 126 392 110 401 95 411 98 411 69 429 97 417 61 441 97 423 64 446 97 429 71 448 97 435 64 460 97 441 70 462 98 447 66 472 99 453 71 475 100 459 70 483 101 464 68 492 102 470 74 495 104 475 71 505 105 480 80 504 107 485 80 512 108 490 80 520 110 495 89 519 112 500 86 532 114 504 97 527 116 509 94 540 118 514 99 542 121 519 103 547 124 524 112 543 126 529 114 552 129 534 122 549 133 539 127 549 136 544 131 554 138 548 136 557 143 553 140 556 144 561 145 568 150 562 142 565 148 559 140 562 146 556 137 559 143 553 135 556 141 549 132 552 139 546 130 549 137 543 128 546 135 540 126 543 133 536 124 539 131 533 122 536 129 530 120 533 128 526 118 529 126 523 116 526 124 520 114 522 123 516 112 519 121 513 110 516 119 509 108 512 118 506 107 509 116 503 105 505 115 499 103 502 114 496 102 498 112 492 100 495 111 489 99 491 110 485 97 487 108 482 96 484 107 478 95 480 106 475 94 477 105 471 92 473 104 467 91 469 103 464 91 466 103 460 90 462 102 457 89 458 101 453 88 454 101 449 88 450 100 445 87 447 100 441 87 442 100 437 87 438 100 432 87 434 100 428 87 430 100 424 87 426 100 419 88 421 100 415 88 417 101 410 88 417 80 412 62 419 44 426 26 433 27 445 22 434 23 446 19 434 21 462 15 435 17 457 12 436 14 463 9 437 10 474 5 438 6 463 2 439 3 473 2 439 3 436 2 403 6 436 6 412 9 437 9 404 13 437 12 418 16 436 16 415 19 436 19 417 23 435 23 423 26 433 26 426 25 428 25 431 25 434 24 431 26 428 24 424 " />
    <path id="Block6Jump117"
        fill="none"
        stroke="#2A1301"
		stroke-width="2px"
		d="M 38 409 L 40 411 38 409 29 405 37 413 34 405 42 413 39 404 46 412 44 403 50 411 48 402 54 410 52 401 58 409 56 400 62 408 59 398 65 406 63 397 69 405 66 395 72 403 69 393 76 401 72 391 79 399 75 389 82 397 78 387 85 394 81 385 88 392 83 382 91 389 86 380 93 386 88 377 96 383 90 374 98 380 93 371 101 377 97 375 97 366 91 356 82 348 72 341 61 337 49 334 45 339 46 330 48 339 50 330 52 339 54 330 56 340 58 331 59 341 62 332 63 342 65 333 66 343 69 334 69 345 73 336 72 347 76 338 75 349 79 340 79 351 83 342 82 354 86 345 84 356 89 347 87 360 92 350 90 363 95 353 92 367 97 357 95 371 100 360 97 375 102 364 98 380 104 369 98 389 104 383 105 370 108 357 111 344 116 332 121 320 128 318 119 314 126 321 117 318 124 325 115 322 123 328 113 325 121 332 111 329 120 335 110 333 119 339 108 337 118 342 107 341 116 346 105 345 115 349 104 348 114 353 103 352 113 356 102 356 113 360 101 360 112 363 101 364 111 367 100 368 110 370 99 372 110 374 99 377 109 378 99 381 109 381 98 385 109 385 98 389 108 389 98 394 108 389 105 390 102 390 105 390 108 389 "/>
    <path id="Block6Jump118"
        fill="none"
        stroke="#2A1301"
		stroke-width="2px"
		d="M 4 455 L 4 455 4 452 4 455 4 458 4 442 23 437 42 430 60 423 78 414 96 405 113 396 132 388 151 383 171 381 191 379 211 378 230 376 250 372 269 367 288 361 307 354 288 361 270 367 251 372 231 376 212 378 192 379 173 381 153 383 134 387 116 395 98 404 81 413 63 421 45 429 26 436 8 441 4 458 4 454 22 448 40 442 58 435 75 428 92 420 109 411 125 402 143 396 162 393 181 391 200 390 219 389 237 386 256 382 274 377 292 371 310 364 303 355 304 343 286 351 267 357 248 362 228 366 209 368 189 369 170 370 150 373 131 377 113 384 95 393 78 402 60 411 42 419 23 425 4 430 7 442 4 454 4 458 4 426 8 457 8 425 11 456 11 425 15 455 14 424 18 454 17 423 22 453 20 422 25 451 24 421 29 450 27 420 32 449 30 419 36 448 33 418 39 447 36 417 43 445 39 416 46 444 42 415 50 443 45 413 53 441 48 412 57 440 51 411 60 439 54 410 63 437 57 408 67 436 60 407 70 435 63 405 73 433 66 404 77 432 69 402 80 430 72 401 83 429 75 399 87 427 78 398 90 426 81 396 93 424 84 394 96 422 87 393 99 421 90 391 102 419 93 390 105 417 96 388 108 415 99 386 111 414 102 385 114 412 106 383 117 410 109 381 120 408 112 380 124 407 115 379 127 405 118 377 130 404 122 376 133 403 125 375 136 402 128 374 139 401 132 373 142 400 135 372 145 399 139 371 148 399 142 370 151 398 146 370 155 398 149 369 158 397 153 368 161 397 157 368 164 396 160 367 167 396 164 367 170 396 167 367 173 395 171 366 177 395 174 366 180 395 178 365 183 395 181 365 187 394 185 365 190 394 188 365 194 394 192 364 197 394 195 364 201 394 199 364 204 394 202 364 208 393 205 364 211 393 209 364 215 393 212 363 218 393 216 363 222 392 219 363 225 392 223 362 228 392 226 362 232 391 229 361 235 390 233 361 239 390 236 360 242 389 240 360 246 388 243 359 249 388 246 358 252 387 250 358 256 386 253 357 259 385 256 356 263 384 260 355 266 383 263 354 270 382 267 353 273 381 270 352 276 380 273 351 280 379 276 350 283 378 279 349 287 377 282 348 290 376 285 347 294 375 288 346 297 373 291 344 301 372 294 343 304 371 297 342 307 369 300 341 311 368 307 354 302 339 311 368 319 364 338 368 357 372 376 375 395 378 414 381 432 385 451 389 470 394 472 399 477 405 477 417 475 430 472 441 473 452 465 447 474 448 467 443 476 445 468 440 477 441 469 436 478 437 470 431 479 433 470 427 480 429 471 423 481 425 472 419 481 421 472 415 482 416 472 411 482 412 472 407 482 407 472 403 482 403 472 399 482 403 482 397 493 393 505 389 507 384 510 391 503 385 507 393 499 386 503 394 495 387 500 396 491 389 496 397 486 390 493 398 482 391 489 400 478 393 486 401 473 394 482 403 473 394 469 395 473 390 466 379 460 369 462 364 453 366 464 368 455 370 466 371 457 373 469 375 459 377 471 378 461 381 473 382 463 384 475 385 465 388 478 389 467 392 480 392 469 395 480 392 482 399 495 405 507 410 519 419 531 427 528 425 527 431 519 439 511 447 505 457 503 467 497 462 505 464 499 459 507 461 501 455 509 457 503 451 512 454 505 448 514 451 508 445 517 448 510 442 519 445 513 439 522 443 516 436 525 440 518 433 528 437 521 430 531 435 524 428 534 432 528 425 533 435 530 422 517 415 504 409 491 403 478 398 465 393 451 388 437 385 423 382 409 379 395 378 381 377 394 378 408 379 422 381 435 384 448 388 461 392 474 396 487 401 500 407 512 413 525 419 537 425 536 437 537 414 533 435 534 412 529 433 531 410 526 431 528 409 522 429 525 407 519 427 522 405 515 426 519 404 512 424 515 402 508 422 512 401 505 421 509 399 501 419 506 398 498 418 503 397 494 416 500 395 491 414 497 394 487 413 494 393 484 412 491 392 481 410 488 390 477 409 484 389 474 408 481 387 471 406 477 386 468 405 474 385 464 404 471 384 461 403 467 382 458 402 464 381 454 401 460 380 451 400 457 379 448 399 453 378 444 398 449 377 441 397 446 376 438 396 442 375 435 395 439 374 431 394 435 373 428 394 431 372 425 393 428 372 422 392 424 371 418 392 420 370 415 391 416 370 412 391 413 369 409 390 409 369 405 390 405 368 402 389 402 368 399 389 398 367 396 389 394 367 392 388 390 367 389 388 387 367 386 388 383 366 382 388 379 366 381 368 382 371 381 368 379 366 " />
    <path id="Block7Jump119"
        fill="none"
        stroke="#B54C64"
		stroke-width="2px"
		d="M 532 415 L 530 418 532 415 537 414 533 433 534 412 530 419 530 410 526 423 527 408 522 423 523 406 519 411 520 404 514 420 516 403 511 415 513 401 507 416 509 400 504 407 506 398 502 402 503 396 495 413 499 395 494 403 496 394 490 403 493 392 485 404 489 391 481 407 486 389 479 400 482 388 476 397 478 387 473 391 475 385 466 403 471 384 466 390 468 383 461 393 464 381 456 397 461 380 452 398 457 379 449 394 453 378 446 390 450 377 445 381 446 376 440 384 443 375 435 392 439 374 432 388 435 373 429 386 431 372 426 384 427 372 423 377 424 371 419 385 420 370 415 381 416 370 412 386 412 369 408 375 408 369 404 379 404 368 401 386 400 368 397 380 395 367 394 387 391 367 389 378 387 367 386 379 383 366 382 379 379 366 373 370 358 365 343 360 328 355 313 349 308 358 302 339 308 358 299 341 303 354 296 342 302 367 293 344 298 365 290 345 293 361 286 346 290 366 283 348 287 369 280 349 284 374 276 350 280 374 273 351 275 369 269 352 271 366 266 353 269 378 262 354 264 371 259 355 261 382 255 356 257 370 252 357 254 378 248 358 250 378 245 359 246 371 241 359 242 376 237 360 239 385 234 361 235 372 230 361 232 387 226 362 228 385 223 362 224 379 219 363 220 374 216 363 217 379 212 363 214 387 208 364 209 381 205 364 205 376 201 364 203 390 197 364 199 387 194 364 195 379 190 365 191 381 186 365 187 379 183 365 184 384 179 365 180 390 176 366 176 380 172 366 173 385 168 366 170 388 164 367 166 384 160 367 164 392 157 368 159 383 153 368 157 390 149 369 151 381 145 370 149 385 142 370 147 391 138 371 143 391 134 372 139 388 131 373 137 394 127 374 131 386 123 375 130 394 120 377 128 400 116 378 121 392 113 380 117 391 110 381 116 398 106 383 112 397 103 384 109 402 100 386 108 408 96 388 101 399 93 389 100 408 90 391 98 412 86 393 92 407 83 395 91 416 80 396 86 414 77 398 85 421 74 400 81 421 71 401 74 413 68 403 73 424 65 404 71 430 62 406 66 427 59 408 61 423 56 409 59 434 53 410 55 429 49 412 52 435 46 413 48 432 43 415 45 442 39 416 41 441 36 417 37 441 32 418 34 445 29 419 29 432 25 421 26 440 22 422 23 449 18 423 19 442 15 424 15 447 11 424 11 440 8 425 8 453 4 426 4 446 6 444 6 441 6 438 7 441 5 444 7 450 " />
    <path id="Block8Jump120"
        fill="none"
        stroke="#FFF08D"
		stroke-width="2px"
		d="M 36 415 L 33 416 36 415 26 422 33 411 29 423 35 411 30 405 18 403 32 402 19 398 30 405 29 396 21 387 31 393 19 390 32 391 30 397 42 398 34 391 39 400 32 394 42 395 48 402 39 407 46 400 42 410 48 400 52 398 45 395 56 395 48 391 54 399 46 392 44 389 34 387 45 386 36 383 45 387 49 383 60 385 49 379 58 390 48 383 60 387 62 392 72 395 65 388 69 396 61 389 66 398 59 403 53 411 56 401 58 410 62 401 69 400 68 405 74 395 74 403 73 395 75 388 65 384 76 385 64 377 75 388 84 386 82 397 89 384 87 396 85 380 92 376 97 365 88 375 92 364 95 377 93 364 90 361 79 370 87 357 75 367 89 359 81 357 66 365 74 354 71 368 77 354 73 348 60 351 73 342 59 347 74 344 64 351 60 352 51 362 57 351 57 364 58 349 53 350 40 357 50 346 42 359 52 345 66 337 50 338 62 343 50 340 46 342 36 348 43 338 37 351 44 339 35 340 20 347 32 338 26 349 35 340 27 335 12 338 25 329 13 340 26 333 31 333 44 332 26 328 43 336 31 328 34 324 44 327 33 317 44 329 32 322 46 325 49 322 41 313 56 320 46 312 49 322 51 327 62 332 53 322 59 334 51 327 62 322 59 309 71 322 57 312 68 322 66 328 74 335 69 324 70 337 66 325 77 336 77 340 85 349 82 337 81 350 80 339 82 331 79 320 90 332 77 323 87 335 90 340 90 356 94 339 94 354 88 340 95 349 98 361 110 366 99 355 106 367 96 356 100 349 110 356 104 347 99 338 105 356 98 343 107 348 107 341 101 331 111 340 104 330 107 341 114 329 105 317 117 326 105 322 114 323 121 320 116 306 126 317 112 309 125 315 111 312 123 310 132 313 142 321 152 327 164 332 151 327 140 319 130 310 122 300 114 289 108 291 120 287 105 295 125 289 113 297 129 291 103 304 133 294 113 304 137 296 116 307 140 299 109 312 143 301 109 316 145 304 115 318 147 306 116 321 149 309 122 322 152 311 128 324 154 313 130 327 156 316 133 329 146 327 151 327 160 330 171 329 156 334 168 326 153 332 165 323 140 333 162 321 144 328 159 318 133 329 122 332 136 330 119 338 133 334 120 333 128 340 140 338 125 346 136 342 120 343 114 349 128 349 114 353 128 353 114 349 126 357 136 358 117 362 134 358 120 358 114 362 107 371 120 364 108 372 117 364 115 367 112 368 115 367 117 364 "/>
    <path id="Block8Jump121"
        fill="none"
        stroke="#FFF08D"
		stroke-width="2px"
		d="M 535 441 L 535 441 535 438 536 447 531 438 538 446 530 441 528 447 523 437 527 451 521 442 529 450 533 451 535 464 530 454 536 463 528 456 521 453 525 462 519 455 527 461 518 453 518 448 514 444 517 455 512 447 518 453 517 463 517 470 514 459 519 469 515 458 511 461 508 454 510 467 505 458 512 466 510 470 510 479 506 468 512 477 504 470 502 465 502 475 500 465 500 476 503 467 497 466 486 471 494 464 485 469 497 466 495 459 485 462 499 457 486 455 498 459 503 452 489 450 503 449 493 451 506 454 509 446 498 444 512 444 500 441 509 446 493 439 504 436 493 435 503 438 492 438 505 436 506 433 517 436 510 431 520 434 506 433 511 428 524 426 511 426 524 423 516 428 527 424 518 411 516 402 516 416 511 405 518 408 513 402 520 393 508 398 516 390 511 400 512 389 525 379 510 385 522 385 511 383 505 382 509 373 499 383 505 372 501 384 491 385 497 374 485 385 492 376 494 386 489 376 494 368 485 374 492 365 486 376 494 367 482 375 483 382 487 391 479 381 483 391 483 382 476 379 474 388 472 373 477 384 470 374 472 368 479 357 478 365 486 351 480 367 475 359 473 366 468 359 464 349 465 360 459 350 467 357 456 358 440 348 452 359 448 348 445 356 456 358 452 364 440 365 454 368 440 370 452 364 454 374 443 383 457 374 448 384 454 372 458 381 462 374 460 388 466 376 466 387 463 378 469 386 465 394 465 403 469 392 470 403 465 394 476 394 482 402 480 391 476 401 481 392 487 396 487 409 490 395 492 405 487 396 496 394 504 399 499 389 502 401 496 394 497 403 505 412 496 407 507 408 497 403 492 416 486 412 493 423 485 416 494 421 483 413 481 419 491 435 480 423 491 430 481 423 481 433 490 440 480 436 490 436 480 438 480 447 486 454 477 449 484 458 480 449 477 459 480 472 481 461 473 472 480 459 471 458 464 468 468 457 468 467 465 457 461 451 451 455 463 448 452 450 463 449 466 442 455 443 466 437 457 439 466 442 473 440 467 449 472 437 474 446 473 435 467 432 454 431 466 428 459 434 466 429 461 424 449 424 461 420 449 421 462 422 463 414 452 410 466 411 455 412 463 409 465 416 476 420 465 420 475 416 465 416 473 426 479 418 471 424 480 421 476 417 477 407 468 410 478 405 468 406 458 403 450 404 458 400 448 401 458 403 455 396 443 396 455 391 447 397 454 389 443 388 431 391 443 385 432 387 444 387 438 378 430 381 437 375 432 383 438 376 426 379 424 387 430 379 428 388 426 380 431 389 424 394 420 400 427 394 422 403 425 395 428 401 435 393 433 404 432 396 436 402 439 405 443 397 442 409 441 400 438 408 441 406 441 403 441 406 438 408 " />
    <path id="Block9Jump122"
        fill="none"
        stroke="#ED171F"
		stroke-width="2px"
		d="M 320 294 L 321 297 320 294 323 312 325 329 326 313 327 297 330 313 332 329 334 312 337 295 340 314 343 332 346 315 348 299 349 317 351 336 355 317 359 299 359 312 360 326 361 339 364 321 367 303 368 322 368 341 370 325 371 309 376 321 373 320 347 320 321 319 348 328 375 337 326 339 352 346 377 354 333 358 380 371 341 378 383 389 349 398 387 408 356 418 391 427 362 438 396 446 368 458 402 465 375 477 408 485 382 496 414 505 389 517 419 524 394 536 422 544 400 555 425 561 409 574 420 578 410 579 414 579 407 567 404 558 398 549 391 526 385 504 377 482 369 461 362 439 355 418 348 396 340 375 331 354 324 332 319 310 333 315 344 320 358 321 373 320 376 344 380 368 384 391 388 414 393 436 400 458 406 480 413 502 419 524 423 547 425 563 420 578 417 575 414 579 410 579 424 578 407 577 428 574 405 575 429 570 404 571 429 567 403 567 429 564 403 564 429 561 403 561 428 557 398 558 428 555 396 555 428 553 394 552 427 550 394 549 427 547 393 546 426 543 392 542 426 540 391 539 425 537 390 536 425 533 389 533 424 530 389 530 424 527 388 527 423 524 387 524 422 521 386 520 422 517 385 517 421 514 384 513 420 511 383 510 419 508 382 507 418 504 380 503 417 501 379 500 416 498 378 497 415 495 377 493 414 492 376 490 413 488 375 487 412 485 374 484 411 481 372 480 410 478 371 477 409 475 370 474 408 471 369 471 407 468 368 468 406 465 366 465 405 461 365 461 404 458 364 458 403 455 363 455 402 451 362 452 401 448 361 448 400 445 360 445 399 442 359 442 398 439 358 438 397 436 357 435 396 433 356 431 396 430 355 428 395 427 353 425 394 424 352 421 393 421 351 418 393 418 350 414 392 415 349 411 391 411 348 408 391 408 347 404 390 405 345 401 390 402 344 398 389 399 343 394 388 395 342 391 388 392 340 388 387 389 339 385 387 386 338 381 386 383 337 378 386 380 335 375 385 377 334 371 385 374 333 368 384 371 331 365 384 368 330 361 383 365 329 358 383 363 327 355 383 360 326 351 382 357 325 348 382 354 324 345 381 351 323 341 381 348 322 338 380 346 321 335 380 343 320 332 379 340 319 328 379 338 318 325 379 335 318 322 378 332 317 318 378 329 316 315 377 327 316 312 377 324 315 309 376 321 315 309 318 309 321 310 324 311 321 309 318 310 315 308 " />
    <path id="Block10Jump123"
        fill="none"
        stroke="#FE370F"
		stroke-width="2px"
		d="M 96 98 L 95 100 94 103 95 100 96 98 92 108 93 120 81 108 68 100 52 95 52 101 52 97 67 107 80 120 91 136 90 118 95 102 82 94 67 91 52 93 56 96 52 97 52 101 53 89 55 103 56 88 59 106 60 88 63 109 63 87 66 112 67 87 69 115 70 87 72 118 74 88 75 121 77 88 78 124 80 89 80 127 84 90 83 131 87 92 85 134 90 94 87 138 93 95 90 142 96 98 95 113 92 103 93 93 77 87 61 87 44 90 59 88 75 87 90 91 91 74 91 78 75 78 59 81 44 88 48 90 44 91 54 95 68 95 82 99 95 106 90 92 91 78 91 74 95 113 92 102 90 91 76 87 62 87 48 90 44 95 44 84 48 98 48 82 51 100 53 79 55 99 56 78 58 99 60 77 62 98 63 76 66 98 67 75 69 99 70 75 73 100 73 74 77 101 76 74 80 102 79 74 84 104 82 73 88 106 85 73 91 109 88 73 95 113 93 110 93 107 92 104 92 108 94 110 92 111 " />
    <path id="Block11Jump124"
        fill="none"
        stroke="#ED171F"
		stroke-width="2px"
		d="M 303 306 L 305 304 303 306 310 299 316 312 322 326 311 311 300 296 307 310 314 325 303 311 292 297 298 309 304 322 295 311 287 300 292 311 297 322 289 312 281 302 286 313 292 325 282 314 273 302 279 314 285 326 278 330 302 325 300 316 278 316 323 317 283 329 328 333 301 347 335 352 310 366 342 371 325 384 349 390 347 402 343 403 347 402 330 389 315 373 304 354 296 334 282 329 278 316 300 316 321 311 329 333 336 356 345 378 353 401 347 398 347 402 343 403 357 400 339 400 356 396 334 397 354 393 330 394 353 390 327 391 352 386 323 388 351 383 320 385 349 380 317 382 348 376 315 379 347 373 312 376 346 370 310 373 345 367 308 370 343 363 306 367 342 360 304 364 341 357 302 361 340 354 301 357 339 351 299 354 338 348 298 351 337 345 297 348 336 342 295 344 335 339 294 341 334 336 294 338 333 332 285 336 332 330 280 333 331 328 278 330 330 326 276 327 329 323 275 325 328 320 274 322 327 317 274 319 326 314 274 317 325 310 318 311 303 293 287 276 272 258 256 240 240 223 224 206 208 189 192 172 176 155 160 138 144 120 128 103 112 86 96 69 96 82 96 86 111 79 115 78 126 80 128 84 119 100 108 116 96 130 96 141 102 159 106 178 106 168 106 138 106 108 106 78 116 55 116 70 116 100 116 130 116 160 116 190 116 220 116 230 121 243 126 243 126 213 126 183 126 153 126 123 126 93 126 63 136 43 136 55 136 85 136 115 136 145 136 175 136 205 136 235 136 265 136 273 146 258 146 228 146 198 146 168 146 138 146 108 146 78 146 48 156 32 156 40 156 70 156 100 156 130 156 160 156 190 156 220 156 250 156 280 156 293 166 273 166 243 166 213 166 183 166 153 166 123 166 93 166 63 166 33 166 29 166 24 176 17 176 25 176 30 166 37 160 41 158 47 174 61 176 57 176 64 176 73 176 84 170 84 176 90 176 95 166 93 176 103 176 115 176 145 176 175 176 205 176 235 176 265 176 295 176 299 176 305 186 309 186 288 186 258 186 228 186 198 186 168 186 138 191 119 196 128 196 132 196 160 196 190 196 220 196 250 196 280 196 309 196 313 206 303 206 273 206 243 206 213 206 183 206 153 216 147 216 175 216 205 216 235 216 265 216 295 216 317 226 314 226 288 226 258 226 228 226 198 226 168 236 160 236 164 236 190 236 220 236 250 236 280 236 310 236 319 246 303 246 273 246 243 246 213 246 183 256 171 256 175 256 205 256 235 256 265 256 295 256 320 266 315 266 288 266 258 266 228 266 198 276 184 276 190 276 220 276 250 276 280 276 310 276 318 286 303 286 273 286 243 286 213 296 198 296 205 296 235 296 265 296 295 296 314 306 288 306 258 306 228 316 215 316 220 316 250 316 280 316 306 316 310 326 313 326 303 326 273 326 243 336 232 336 236 336 265 336 295 336 315 346 288 346 258 356 251 356 280 356 310 356 319 366 303 366 273 376 272 376 295 376 322 386 318 386 288 386 283 401 301 416 320 416 325 406 325 406 306 396 310 396 318 396 325 409 325 421 326 410 310 397 296 385 281 372 267 359 253 345 240 331 227 317 215 302 203 287 191 271 180 255 170 238 161 222 151 207 139 194 125 186 108 175 109 179 102 172 104 179 89 174 92 176 85 181 76 175 80 177 73 182 65 174 67 178 56 167 59 175 47 167 50 170 41 176 31 183 20 175 21 179 15 164 26 150 36 134 44 119 53 104 63 90 74 98 88 106 102 99 121 96 138 101 157 106 176 110 196 113 215 118 234 125 253 135 270 148 285 163 298 181 307 199 314 219 317 239 319 259 319 279 318 298 314 318 311 337 315 357 319 377 322 397 325 408 327 427 327 400 326 390 325 367 323 381 323 414 323 424 323 408 321 372 321 342 319 363 319 399 319 422 319 390 317 354 317 325 315 345 315 381 315 409 315 419 315 407 313 372 313 336 313 316 311 327 311 363 311 399 311 417 311 384 312 364 312 339 295 315 277 292 258 269 238 246 219 223 199 200 179 177 161 155 143 147 131 140 106 160 104 179 101 187 99 180 99 161 104 139 101 159 94 179 89 185 87 176 87 182 89 159 94 150 93 136 89 153 83 169 79 183 74 189 71 182 71 187 75 176 75 183 76 158 82 148 80 133 76 156 70 179 65 182 61 188 63 177 63 184 64 161 70 153 69 138 64 157 61 175 57 177 53 183 55 172 55 183 59 168 59 155 61 140 57 157 52 174 47 183 43 177 43 172 45 182 47 171 47 154 52 140 57 137 67 133 74 139 99 140 111 141 135 149 149 166 173 178 193 188 220 198 247 211 273 227 295 240 306 255 313 275 318 264 321 235 321 216 319 226 319 255 319 285 319 275 317 246 317 214 317 194 315 204 315 237 315 273 315 304 315 294 313 264 313 228 313 199 313 183 311 219 311 255 311 291 311 327 311 363 311 399 311 416 311 390 309 354 309 318 309 282 309 246 309 210 309 183 308 173 307 201 307 237 307 273 307 309 307 345 307 381 307 413 307 401 305 372 305 336 305 300 305 264 305 228 305 192 305 164 303 183 303 219 303 255 303 291 303 327 303 363 303 399 303 409 303 390 301 354 301 318 301 282 301 246 301 210 301 174 301 159 299 169 299 201 299 237 299 273 299 309 299 345 299 381 299 406 299 372 297 336 297 300 297 264 297 228 297 192 297 166 297 153 295 183 295 219 295 255 295 291 295 327 295 363 295 393 295 403 295 390 293 354 293 318 293 282 293 246 293 210 293 174 293 148 291 165 291 201 291 237 291 273 291 309 291 345 291 381 291 399 291 372 289 336 289 300 289 264 289 228 289 192 289 156 289 144 287 154 287 183 287 219 287 255 287 291 287 327 287 363 287 396 287 384 285 354 285 318 285 282 285 246 285 210 285 174 285 140 283 165 283 201 283 237 283 273 283 309 283 345 283 381 283 392 283 372 281 336 281 300 281 264 281 228 281 192 281 156 281 136 279 147 279 183 279 219 279 255 279 291 279 327 279 363 279 389 279 354 277 318 277 282 277 246 277 210 277 174 277 144 277 132 275 165 275 201 275 237 275 273 275 309 275 345 275 375 275 386 275 372 273 336 273 300 273 264 273 228 273 192 273 156 273 130 271 147 271 183 271 219 271 255 271 291 271 327 271 363 271 382 271 354 269 318 269 282 269 246 269 210 269 174 269 139 269 128 267 138 267 165 267 201 267 237 267 273 267 309 267 345 267 378 267 366 265 336 265 300 265 264 265 228 265 192 265 156 265 125 263 147 263 183 263 219 263 255 263 291 263 327 263 363 263 374 263 354 261 318 261 282 261 246 261 210 261 174 261 138 261 123 259 133 259 165 259 201 259 237 259 273 259 309 259 345 259 370 259 336 257 300 257 264 257 228 257 192 257 156 257 121 255 147 255 183 255 219 255 255 255 291 255 327 255 356 255 366 255 354 253 318 253 282 253 246 253 210 253 174 253 138 253 118 251 129 251 165 251 201 251 237 251 273 251 309 251 345 251 362 251 336 249 300 249 264 249 228 249 192 249 156 249 128 249 117 247 147 247 183 247 219 247 255 247 291 247 327 247 358 247 346 245 318 245 282 245 246 245 210 245 174 245 138 245 116 243 129 243 165 243 201 243 237 243 273 243 309 243 345 243 355 243 336 241 300 241 264 241 228 241 192 241 156 241 125 241 114 239 147 239 183 239 219 239 255 239 291 239 327 239 350 239 318 237 282 237 246 237 210 237 174 237 138 237 113 235 129 235 165 235 201 235 237 235 273 235 309 235 336 235 346 235 333 233 300 233 264 233 228 233 192 233 156 233 122 233 111 231 147 231 183 231 219 231 255 231 291 231 327 231 341 231 318 229 282 229 246 229 210 229 174 229 138 229 110 227 129 227 165 227 201 227 237 227 273 227 309 227 336 227 310 226 300 225 264 225 228 225 192 225 156 225 120 225 109 223 119 223 147 223 183 223 219 223 255 223 291 223 322 223 332 223 318 221 282 221 246 221 210 221 174 221 138 221 109 219 129 219 165 219 201 219 237 219 273 219 309 219 327 219 300 217 264 217 228 217 192 217 156 217 120 217 108 215 118 215 147 215 183 215 219 215 255 215 291 215 323 215 311 213 282 213 246 213 210 213 174 213 138 213 107 211 129 211 165 211 201 211 237 211 273 211 308 211 318 211 300 209 264 209 228 209 192 209 156 209 120 209 106 207 116 207 147 207 183 207 219 207 255 207 291 207 313 207 282 205 246 205 210 205 174 205 138 205 106 203 129 203 165 203 201 203 237 203 273 203 308 203 296 201 264 201 228 201 192 201 156 201 120 201 105 199 115 199 147 199 183 199 219 199 255 199 291 199 303 199 282 197 246 197 210 197 174 197 138 197 105 195 129 195 165 195 201 195 237 195 273 195 298 195 264 193 228 193 192 193 156 193 120 193 104 191 114 191 147 191 183 191 219 191 255 191 284 191 294 191 281 189 246 189 210 189 174 189 138 189 104 187 129 187 165 187 201 187 237 187 273 187 289 187 264 185 228 185 192 185 156 185 120 185 103 183 113 183 147 183 183 183 219 183 255 183 282 183 256 182 246 181 210 181 174 181 138 181 112 181 102 179 129 179 165 179 201 179 237 179 266 179 276 179 263 177 228 177 192 177 156 177 120 177 101 175 111 175 147 175 183 175 219 175 255 175 270 175 246 173 210 173 174 173 138 173 110 173 100 171 129 171 165 171 201 171 237 171 263 171 228 169 192 169 156 169 120 169 99 167 111 167 147 167 183 167 219 167 247 167 257 167 243 165 210 165 174 165 138 165 108 165 98 163 129 163 165 163 201 163 237 163 250 163 228 161 192 161 156 161 120 161 97 159 111 159 147 159 183 159 219 159 242 159 210 157 174 157 138 157 106 157 96 155 129 155 165 155 201 155 235 155 221 153 192 153 156 153 120 153 94 151 111 151 147 151 183 151 218 151 228 151 210 149 174 149 138 149 104 149 93 147 103 147 129 147 165 147 201 147 223 147 192 145 156 145 120 145 92 143 111 143 147 143 183 143 217 143 205 141 174 141 138 141 102 141 91 139 101 139 129 139 165 139 201 139 212 139 192 137 156 137 120 137 90 135 111 135 147 135 183 135 208 135 174 133 138 133 102 133 91 131 101 131 129 131 165 131 195 131 205 131 192 129 156 129 120 129 92 127 111 127 147 127 183 127 201 127 174 125 138 125 103 125 94 123 129 123 165 123 199 123 188 121 156 121 120 121 95 119 111 119 147 119 183 119 196 119 174 117 138 117 106 117 96 115 129 115 165 115 194 115 183 113 156 113 120 113 97 111 111 111 147 111 182 111 192 111 174 109 138 109 109 109 99 107 129 107 165 107 191 107 156 105 120 105 100 103 111 103 147 103 174 103 184 103 174 101 138 101 110 101 99 99 129 99 165 99 179 99 156 97 120 97 96 95 111 95 147 95 181 95 172 93 138 93 105 93 94 91 129 91 165 91 183 91 156 89 120 89 92 87 111 87 147 87 180 87 170 85 138 85 102 85 90 83 100 83 129 83 165 83 182 83 156 81 120 81 87 79 111 79 147 79 174 79 184 79 174 77 138 77 102 77 85 75 95 75 129 75 165 75 181 75 156 73 120 73 87 71 111 71 147 71 183 71 173 69 138 69 102 69 92 67 102 67 129 67 165 67 185 67 156 65 120 65 97 63 111 63 147 63 181 63 171 61 138 61 112 61 103 59 129 59 165 59 182 59 156 57 120 57 109 55 119 55 147 55 175 55 165 53 138 53 115 51 129 51 165 51 178 51 156 49 132 49 122 47 147 47 180 47 171 45 139 45 129 43 164 43 174 43 156 41 137 39 147 39 176 39 160 37 144 35 165 35 179 35 165 33 150 31 181 31 169 29 156 27 166 27 184 27 172 25 161 23 176 23 186 23 176 21 167 19 188 19 172 15 184 15 177 11 186 11 185 7 185 10 185 13 183 11 184 14 186 9 181 10 " />
    <path id="Block12Jump125"
        fill="none"
        stroke="#ED171F"
		stroke-width="2px"
		d="M 191 18 L 188 18 185 18 188 18 191 18 173 18 179 22 186 26 174 26 150 26 166 30 181 34 164 34 154 34 165 38 176 42 166 42 146 42 155 46 176 46 173 43 176 47 179 43 185 42 164 46 180 50 156 50 140 50 165 54 184 58 174 58 147 58 157 62 178 62 188 66 163 66 153 66 165 70 189 74 174 74 144 74 153 78 175 78 184 82 156 82 140 82 165 86 186 90 174 90 149 90 174 94 189 98 156 98 144 98 165 102 193 106 174 106 157 106 183 110 196 114 186 114 166 114 156 114 170 118 201 122 174 122 160 122 183 126 207 130 192 130 157 130 147 130 165 134 201 134 217 138 207 138 174 138 158 138 183 142 200 142 218 142 217 148 207 148 180 148 170 148 183 152 213 152 237 156 227 156 192 156 172 156 201 160 237 163 247 164 237 164 210 164 180 164 189 168 219 168 245 172 228 172 192 172 171 172 201 176 237 176 262 180 246 180 210 180 181 180 171 180 187 184 219 184 255 184 280 188 264 188 228 188 196 188 186 188 201 192 237 192 264 192 273 196 246 196 210 196 181 196 209 199 219 200 255 200 287 204 264 204 228 204 201 204 190 204 201 208 237 208 273 208 304 212 282 212 246 212 212 212 202 212 222 216 255 216 291 216 322 220 300 220 264 220 230 220 263 223 273 224 309 224 319 228 309 228 282 228 253 228 243 228 255 232 291 232 321 232 335 236 300 236 264 236 248 236 273 240 309 240 339 243 349 244 318 244 282 244 253 244 262 248 291 248 327 248 356 252 336 252 300 252 264 252 254 252 273 256 309 256 341 256 359 260 349 260 318 260 282 260 265 260 291 264 327 264 359 267 369 268 336 268 300 268 278 268 309 272 345 272 371 276 354 276 318 276 284 276 300 280 327 280 362 280 383 284 372 284 336 284 302 284 315 288 345 288 374 291 384 292 354 292 324 292 314 292 331 296 363 296 385 300 372 300 345 300 335 300 346 304 381 304 404 308 390 308 354 308 341 308 377 311 397 312 380 313 360 314 380 317 400 320 420 325 408 325 380 323 370 322 399 322 423 322 390 319 354 319 334 316 345 316 381 316 406 316 372 313 336 313 300 313 264 311 252 310 262 310 291 310 327 310 354 310 318 307 282 307 253 304 273 304 309 304 334 304 299 301 264 301 237 298 255 298 291 298 302 298 282 295 246 295 227 292 237 292 268 292 278 292 264 289 228 287 216 286 226 286 255 286 271 286 246 283 211 281 201 280 211 280 237 280 256 280 228 277 202 274 219 274 255 274 272 274 246 271 210 271 187 268 201 268 237 268 266 268 256 265 228 265 201 262 219 262 255 262 273 262 246 259 210 259 190 256 201 256 237 256 273 256 238 254 228 253 199 253 190 250 219 250 247 250 220 248 210 247 188 244 201 244 228 244 219 241 192 241 173 238 183 238 219 238 240 238 210 235 177 232 201 232 237 232 252 232 228 229 192 229 171 226 183 226 219 226 243 226 234 223 210 223 181 223 162 220 173 220 201 220 237 220 252 220 228 217 192 217 170 214 183 214 219 214 245 214 210 211 188 211 179 208 201 208 229 208 239 208 228 205 192 205 168 202 183 202 219 202 230 202 201 199 182 196 201 196 226 196 192 193 172 190 183 190 212 190 222 190 209 187 181 185 171 184 201 184 220 184 192 181 173 178 183 178 219 178 208 175 180 175 190 172 201 172 215 172 197 169 183 166 199 166 188 156 203 150 198 146 191 143 210 142 226 144 216 144 187 144 197 147 220 147 235 149 201 149 183 149 210 151 243 154 219 154 194 154 203 156 228 156 251 159 237 159 202 159 192 159 210 161 245 161 259 163 249 163 219 163 189 163 179 163 198 166 228 166 257 167 267 168 237 168 201 168 186 168 210 170 246 170 274 173 255 173 219 173 192 173 182 173 218 175 228 175 264 175 282 178 272 178 237 178 205 178 195 178 210 180 246 180 275 180 288 182 255 182 219 182 187 182 218 184 228 185 264 185 294 187 273 187 237 187 205 187 195 187 211 190 246 190 282 190 300 192 290 192 255 192 219 192 197 192 228 194 264 194 293 194 306 197 273 197 237 197 206 197 219 199 246 199 282 199 311 202 291 202 255 202 219 202 204 202 228 204 264 204 300 204 316 206 306 206 273 206 237 206 215 206 246 209 282 209 309 209 322 211 291 211 255 211 234 211 264 213 300 213 327 216 309 216 273 216 256 216 282 218 318 218 332 221 322 221 291 221 260 221 290 222 300 223 328 225 338 225 309 225 294 225 318 228 343 230 327 230 304 230 335 233 347 235 337 235 321 235 311 237 342 237 352 240 327 240 312 240 336 242 357 245 345 245 312 245 302 245 318 247 349 247 361 249 327 249 297 249 287 249 302 252 336 252 366 254 345 254 309 254 298 254 318 256 354 256 371 259 361 259 327 259 295 259 305 261 336 261 363 261 375 264 345 264 309 264 292 264 318 266 354 266 380 268 363 268 327 268 315 268 336 271 372 271 384 273 374 273 345 273 320 273 354 276 389 278 363 278 335 278 325 278 340 280 372 280 393 283 381 283 345 283 326 283 354 285 385 285 397 288 363 288 351 288 372 290 401 292 382 292 372 292 390 295 405 297 394 297 372 297 391 299 408 302 392 302 409 307 408 304 405 304 402 303 399 302 402 304 405 303 408 305 409 303 "/>
    <path id="Block12Jump126"
        fill="none"
        stroke="#ED171F"
		stroke-width="2px"
		d="M 111 196 L 111 196 114 196 109 195 105 196 114 196 105 193 109 193 104 189 123 189 103 185 114 185 103 181 124 182 102 178 116 178 101 174 124 174 100 170 120 171 99 167 112 167 97 163 120 163 96 159 123 159 94 155 117 156 93 152 113 152 91 148 120 148 89 144 122 144 87 141 118 141 85 137 114 137 83 134 122 134 81 130 114 130 78 126 111 126 76 123 121 123 73 119 118 119 85 117 113 114 84 114 120 110 94 111 122 106 91 108 124 102 81 105 126 98 92 101 127 94 89 98 128 90 84 96 114 89 84 94 112 85 89 90 107 82 77 90 107 78 87 84 92 79 82 83 94 74 87 77 80 80 94 74 87 75 99 62 113 51 129 41 145 32 160 22 174 10 189 0 180 15 189 14 181 28 172 42 184 41 174 52 184 51 178 60 188 60 181 69 189 69 179 84 186 82 178 97 186 97 183 104 189 104 197 122 207 135 224 146 241 155 258 165 274 176 290 187 305 200 319 211 332 224 344 236 357 249 369 262 382 275 394 288 405 302 416 316 426 331 408 329 389 327 371 325 352 322 334 318 316 313 301 318 307 335 314 353 323 369 333 385 323 369 314 353 307 335 301 318 289 320 277 322 281 331 288 336 297 337 303 355 312 371 324 385 337 397 352 408 337 397 324 385 312 371 303 355 297 338 288 337 281 331 277 323 257 325 237 324 217 322 198 317 180 309 162 300 147 287 134 271 124 254 117 235 112 216 108 196 104 177 98 158 90 140 78 123 64 109 49 96 63 95 77 98 90 105 78 98 63 95 48 96 38 90 53 82 70 77 87 76 69 77 52 82 38 90 48 97 64 108 77 122 88 137 97 154 103 172 107 191 111 209 115 228 121 246 129 263 140 279 153 293 168 304 185 313 203 319 222 323 241 325 260 325 279 323 298 319 316 313 334 318 352 322 371 325 389 327 408 329 427 330 415 315 402 299 390 284 377 270 364 255 350 241 336 228 322 214 309 202 295 191 280 180 265 170 250 160 234 151 218 142 207 135 196 121 189 104 183 104 186 96 178 97 186 82 178 84 189 70 181 70 188 60 179 60 184 51 174 51 184 40 173 41 181 27 189 13 180 14 190 0 174 10 160 21 145 32 129 41 113 50 99 62 87 75 89 74 87 75 " />
    <path id="Block13Jump127"
        fill="none"
        stroke="#B54C64"
		stroke-width="2px"
		d="M 109 92 L 109 89 109 92 109 89 109 92 111 98 114 90 110 95 109 89 108 98 103 90 106 97 100 93 107 100 98 98 106 101 99 103 111 102 102 107 103 104 106 103 103 104 102 107 "/>
    <path id="Block13Jump128"
        fill="none"
        stroke="#B54C64"
		stroke-width="2px"
		d="M 212 256 L 212 256 210 258 212 264 215 256 209 262 212 254 205 261 209 253 202 259 206 251 199 257 203 249 195 255 200 247 192 252 197 245 189 250 194 242 186 247 191 240 188 245 183 254 190 248 185 257 193 251 188 260 195 254 190 263 198 256 193 266 201 259 196 268 204 261 199 270 207 262 202 272 210 264 205 274 213 266 209 275 216 267 212 276 220 268 216 277 223 269 219 278 226 270 223 279 230 270 227 279 233 271 231 279 230 276 231 273 230 276 231 279 "/>
    <path id="Block13Jump129"
        fill="none"
        stroke="#B54C64"
		stroke-width="2px"
		d="M 321 317 L 324 317 321 317 313 314 326 313 314 317 327 317 316 321 328 321 317 325 330 325 318 329 331 328 319 332 332 332 320 336 334 336 321 340 335 339 323 343 336 343 324 347 338 347 326 351 340 351 327 355 341 354 329 358 343 358 330 362 345 362 332 366 346 366 334 369 348 369 335 373 350 373 337 377 351 377 338 381 353 381 339 384 354 384 341 388 356 388 342 392 357 391 343 396 358 395 345 399 359 398 346 403 360 402 347 407 361 406 348 410 362 409 350 414 364 413 351 418 365 416 352 421 366 420 354 425 367 423 356 428 369 427 357 432 370 431 359 436 371 434 360 439 373 438 362 443 374 441 364 446 376 445 366 450 377 449 367 454 379 452 369 457 380 456 371 461 382 460 372 464 383 464 374 468 385 467 376 472 386 471 377 476 387 474 379 479 389 478 380 483 390 481 382 487 391 485 383 491 393 488 384 494 394 492 386 498 395 495 387 502 396 498 388 506 397 502 389 509 399 505 391 513 400 509 392 517 401 512 393 521 402 516 393 524 403 519 394 528 404 523 395 532 405 527 396 536 406 530 397 539 408 534 397 543 409 537 398 547 410 540 398 551 412 543 405 551 414 546 405 556 415 549 405 561 416 552 409 562 416 558 409 567 418 561 410 571 420 565 412 574 422 570 415 576 423 575 421 573 418 574 421 573 423 575 "/>
    <path id="Block13Jump130"
        fill="none"
        stroke="#B54C64"
		stroke-width="2px"
		d="M 421 328 L 421 328 419 330 420 333 429 328 414 333 424 326 409 332 419 325 403 332 414 324 398 331 410 322 394 330 405 321 389 329 401 320 384 328 396 319 380 327 391 318 375 326 387 317 371 325 382 316 366 323 377 315 362 322 372 314 358 320 367 313 353 318 361 313 361 315 358 317 361 315 361 313 " />
    <path id="Block14Jump131"
        fill="none"
        stroke="#E8A900"
		stroke-width="2px"
		d="M 194 365 L 197 365 194 365 207 366 218 369 227 377 227 384 222 392 216 390 221 396 218 388 225 395 220 386 229 392 221 384 232 388 222 382 234 384 222 380 234 379 220 377 233 376 218 375 231 372 213 372 228 369 206 368 225 367 194 365 219 364 200 361 224 361 207 357 229 359 213 354 233 357 218 351 237 355 223 348 241 353 228 345 245 351 233 343 249 350 237 340 252 348 242 338 255 347 246 336 258 346 250 334 262 344 254 332 265 343 258 330 269 342 262 329 272 341 266 327 275 340 269 325 279 339 273 324 278 331 282 338 273 324 278 331 272 324 260 330 247 335 234 341 222 347 210 354 198 361 186 368 198 375 198 389 186 394 198 389 198 375 186 368 197 361 209 354 221 348 233 342 244 336 257 331 269 326 278 331 267 318 274 332 264 320 270 333 260 322 267 334 257 323 263 336 253 325 259 337 249 327 256 339 246 328 252 340 242 330 249 342 239 332 245 344 235 334 241 345 232 335 238 347 228 337 235 348 224 339 232 350 220 341 229 351 216 343 226 353 212 346 222 354 208 348 219 356 203 351 215 358 198 353 211 360 193 357 207 362 187 360 202 365 181 363 197 368 175 367 201 370 183 370 203 372 188 373 205 375 192 377 206 379 193 379 206 383 194 382 205 387 194 384 203 391 193 386 200 394 192 388 196 396 190 389 192 397 187 390 188 397 185 390 187 392 188 394 187 392 185 390 " />
</svg>
