<?xml version="1.0" encoding="UTF-8" standalone="no"?>
<svg xmlns="http://www.w3.org/2000/svg" version="1.1" width="398" height="398">
    <path id="Block1Jump0"
        fill="none"
        stroke="#F0F0F0"
		stroke-width="2px"
		d="M 377 185 L 380 195 377 175 379 198 377 175 372 151 364 128 353 106 339 86 322 68 303 53 282 40 259 30 235 23 211 20 187 20 163 23 139 29 116 39 95 52 76 68 59 86 45 106 34 128 26 151 21 175 19 199 21 223 25 247 33 270 45 292 59 312 76 330 95 346 116 358 139 368 163 375 187 378 211 379 235 375 259 369 282 359 303 346 322 330 338 312 353 292 364 270 372 247 377 223 379 199 377 223 379 213 378 203 377 222 377 222 " />
    <path id="Block2Jump1"
        fill="none"
        stroke="#A8A8A8"
		stroke-width="2px"
		d="M 288 177 L 288 177 292 187 291 198 291 191 288 167 282 143 273 120 259 100 245 85 223 74 204 69 180 72 158 83 137 105 124 128 116 151 110 175 109 199 111 228 116 252 125 275 132 286 148 305 167 320 182 326 206 328 229 322 247 310 263 291 276 270 284 247 289 223 291 199 289 223 284 247 276 270 263 291 247 310 229 322 206 328 182 326 167 320 148 305 132 286 125 275 116 252 111 228 109 199 110 175 116 151 124 128 137 105 154 87 180 72 204 69 223 74 245 85 259 100 273 120 282 143 288 167 291 191 291 198 278 199 279 175 275 151 267 128 254 107 237 89 229 84 206 76 184 77 175 80 153 93 137 111 124 132 116 155 111 179 109 203 110 227 115 251 123 274 135 295 152 313 172 327 196 333 218 332 227 329 246 320 264 303 272 293 285 272 294 249 300 225 306 203 272 199 310 203 272 203 310 208 272 206 310 212 272 209 309 216 272 212 309 220 271 216 308 224 271 219 308 228 270 222 307 232 270 225 307 236 269 228 306 240 269 232 305 244 268 235 304 248 268 238 303 252 267 241 302 256 266 244 300 260 265 247 299 264 264 250 298 268 263 254 297 271 261 257 295 275 260 260 293 279 259 263 291 283 258 265 289 286 256 268 287 290 255 271 285 293 253 273 283 297 252 276 280 300 250 278 278 304 248 280 276 307 247 283 273 310 245 285 270 314 243 287 268 317 241 289 265 320 239 292 262 323 237 294 259 326 235 296 256 328 232 299 252 331 230 300 249 333 228 302 245 335 226 303 241 337 224 304 238 339 221 305 234 341 219 306 230 342 217 307 226 344 215 308 222 345 212 309 218 346 210 309 213 347 208 309 209 347 205 310 205 347 203 310 201 347 200 309 197 347 198 309 192 347 196 309 188 347 193 309 184 346 191 309 180 345 189 308 176 344 186 308 172 342 184 307 168 341 182 306 164 339 180 305 160 337 178 304 156 335 176 303 153 333 173 302 149 331 171 300 146 329 169 299 142 326 166 296 139 323 164 294 136 321 162 292 133 318 160 290 130 315 157 288 128 312 155 286 125 308 153 283 122 305 151 281 120 302 150 279 117 298 148 276 115 295 146 274 113 291 145 271 111 288 143 269 109 284 142 266 107 280 141 264 105 276 140 261 104 273 139 258 103 269 137 254 101 265 136 251 100 262 135 248 99 258 134 245 97 254 133 242 96 250 132 239 95 246 132 236 94 242 131 233 93 238 130 229 93 234 130 226 92 229 129 223 91 225 129 220 91 221 129 217 91 217 128 213 90 213 128 210 90 209 128 207 90 205 128 204 90 201 128 200 90 196 128 197 90 192 128 194 90 188 128 191 91 184 128 187 91 180 128 184 91 176 129 181 92 172 129 178 93 168 130 174 93 164 130 171 94 160 131 168 95 155 132 165 96 151 132 161 97 147 133 158 98 143 134 155 99 139 135 152 100 135 136 149 102 132 137 146 103 128 138 143 105 124 139 140 106 120 141 137 108 116 142 134 110 113 143 132 112 109 144 129 114 105 146 127 117 102 148 124 119 99 149 121 122 95 151 119 124 92 153 117 127 89 155 114 129 85 157 112 132 82 159 110 135 79 161 107 138 76 163 105 141 73 165 103 143 71 168 100 147 68 170 99 150 66 172 97 154 64 174 96 158 62 176 95 161 60 178 94 165 58 181 93 169 57 183 92 173 55 185 91 177 54 187 90 181 53 190 90 186 52 192 89 190 51 194 89 194 51 197 88 198 50 199 88 202 51 201 88 207 51 204 89 211 52 206 89 215 52 208 89 219 53 211 90 223 55 213 90 227 56 215 91 231 57 218 92 235 59 220 93 239 60 222 94 243 62 224 95 247 64 226 97 250 66 229 98 254 68 231 99 258 71 233 101 261 73 236 103 263 76 238 105 266 79 240 108 269 83 242 110 272 86 244 112 274 89 246 114 277 92 248 117 279 96 250 119 282 99 251 122 284 103 253 124 286 106 255 127 288 110 256 129 290 113 257 132 292 117 259 134 294 121 260 137 296 125 261 139 297 128 263 143 299 132 264 146 300 136 265 149 301 140 266 152 302 144 267 155 303 148 268 159 304 152 268 162 305 156 269 165 306 160 270 168 307 164 270 171 308 168 271 175 308 172 271 178 309 176 271 181 309 180 272 184 309 184 272 188 310 188 272 191 310 193 272 194 310 197 272 197 310 199 278 199 310 199 278 199 300 198 290 200 280 198 291 196 291 196 " />
    <path id="Block3Jump2"
        fill="none"
        stroke="#F0F0F0"
		stroke-width="2px"
		d="M 379 213 L 379 213 378 203 377 223 379 199 377 223 372 247 364 270 353 292 338 312 322 330 303 346 282 359 259 369 235 375 211 379 187 378 163 375 139 368 116 358 95 346 76 330 59 312 45 292 33 270 25 247 21 223 19 199 21 175 26 151 34 128 45 106 59 86 76 68 95 52 116 39 139 29 163 23 187 20 211 20 235 23 259 30 282 40 303 53 322 68 339 86 353 106 364 128 372 151 377 175 379 198 377 175 377 185 380 195 378 184 378 184 " />
    <path id="Block4Jump3"
        fill="none"
        stroke="#A8A8A8"
		stroke-width="2px"
		d="M 371 155 L 371 155 376 164 376 174 379 198 376 169 370 145 361 122 349 100 334 81 317 64 298 50 273 35 252 28 228 22 204 19 180 20 156 24 133 32 108 43 93 53 75 69 58 87 44 107 33 130 25 153 20 177 19 201 20 222 25 246 33 269 44 291 58 311 77 331 96 347 104 352 126 364 138 368 162 375 186 379 210 379 234 376 258 369 265 366 287 356 307 342 326 326 342 307 353 292 364 270 372 247 377 223 379 199 377 223 372 247 364 270 353 292 342 307 326 326 307 342 287 356 265 366 258 369 234 376 210 379 186 379 162 375 138 368 126 364 104 352 96 347 77 331 58 311 44 291 33 269 25 246 20 222 19 201 20 177 25 153 33 130 44 107 58 87 75 69 93 53 108 43 133 32 156 24 180 20 204 19 228 22 252 28 273 35 298 50 317 64 334 81 349 100 361 122 370 145 376 169 379 198 360 187 365 173 360 149 352 126 341 104 329 89 312 71 293 55 272 43 249 34 225 28 201 25 177 26 153 31 130 38 108 48 88 62 70 79 54 97 41 118 31 140 24 163 20 187 19 211 22 235 28 259 37 281 49 302 59 315 75 334 94 349 115 362 137 373 161 379 185 384 209 385 233 382 257 376 280 367 302 355 322 341 340 324 355 305 368 284 378 261 385 237 390 213 398 199 360 199 398 203 360 202 398 207 360 206 397 211 359 209 397 215 359 212 397 220 359 216 396 224 358 219 395 228 358 223 395 232 357 226 394 236 357 229 393 240 356 233 392 244 355 236 391 248 354 239 390 252 353 242 389 256 352 246 388 260 351 249 386 264 350 252 385 268 349 255 384 271 348 258 382 275 347 262 380 279 346 265 379 283 344 268 377 287 343 271 375 290 342 274 373 294 340 277 372 298 339 280 369 301 336 283 367 305 334 285 365 308 332 288 363 312 331 291 360 315 329 293 358 318 327 296 355 322 325 298 353 325 323 301 350 328 321 303 347 331 319 306 344 334 317 308 341 337 315 310 339 340 312 313 336 343 310 315 333 346 308 317 330 349 305 320 326 351 303 322 323 354 300 324 320 356 298 326 317 359 295 328 313 361 292 330 310 364 290 332 307 366 287 334 303 368 284 336 300 370 281 338 296 373 279 339 292 374 276 341 289 376 273 342 285 378 270 344 281 380 266 345 277 382 263 347 274 383 260 348 270 385 257 349 266 386 254 350 262 388 251 352 258 389 248 353 254 390 244 354 250 391 241 355 246 392 238 355 242 393 235 356 238 394 231 357 234 395 228 358 230 396 225 358 226 396 221 359 222 397 218 359 218 397 214 359 214 398 211 360 210 398 208 360 206 398 204 360 201 398 201 360 197 398 198 360 193 398 194 360 189 398 191 360 185 397 187 360 181 397 184 360 177 397 181 359 173 396 177 359 169 396 174 358 165 395 171 358 160 394 167 357 156 393 164 357 152 392 161 356 149 391 158 355 145 390 154 354 141 389 151 353 137 388 148 352 133 386 145 351 129 385 141 350 125 383 138 348 121 382 135 347 117 380 132 346 114 378 129 344 110 377 126 343 106 375 123 341 103 373 120 340 99 371 117 337 96 369 114 335 92 366 111 334 88 364 109 332 85 362 106 330 82 359 103 328 78 357 101 327 75 354 98 325 72 352 96 323 69 349 93 321 66 346 91 318 63 344 88 316 60 341 86 314 57 338 84 312 54 335 81 309 51 332 79 307 48 329 77 305 46 326 75 302 43 322 73 300 41 319 71 297 38 316 69 295 36 313 67 292 33 309 65 289 31 306 63 286 29 302 62 283 27 299 60 281 25 295 58 278 23 291 57 275 21 288 55 272 19 284 54 269 18 280 52 266 16 277 51 263 14 273 50 259 13 269 48 256 11 265 47 253 10 261 46 250 9 257 45 247 7 253 44 244 6 249 43 240 5 245 42 237 4 241 41 234 3 237 41 230 3 233 40 227 2 229 40 224 1 225 39 220 1 221 39 217 1 217 38 214 0 213 38 210 0 209 38 207 0 205 38 204 0 201 38 200 0 196 38 197 0 192 38 193 0 188 38 190 1 184 38 187 1 180 39 183 1 176 39 180 2 172 39 177 3 168 40 173 3 164 40 170 4 160 41 167 5 156 42 163 6 152 43 160 7 148 43 157 8 144 44 154 10 140 45 150 11 136 46 147 12 132 48 144 14 128 49 141 15 124 50 138 17 120 51 135 18 117 53 131 20 113 54 128 22 109 56 125 24 105 57 122 26 102 59 119 28 98 61 116 30 95 63 114 32 91 65 111 34 88 66 108 37 84 68 106 39 81 70 103 42 78 72 100 44 75 74 98 47 71 76 95 50 68 78 93 52 65 80 90 55 62 82 88 58 59 85 86 61 56 87 83 64 53 89 81 67 51 92 79 70 48 94 77 73 45 97 75 77 43 99 73 80 40 102 71 83 38 104 69 87 35 107 67 90 33 110 65 93 31 113 63 97 28 115 61 100 26 118 59 104 24 121 58 108 22 124 56 111 21 127 55 115 19 130 53 119 17 133 52 123 16 136 51 127 14 140 49 130 13 143 48 134 11 146 47 138 10 149 46 142 9 152 45 146 7 156 44 150 6 159 43 154 5 162 42 158 4 165 42 162 4 169 41 166 3 172 40 170 2 175 40 174 2 179 39 178 1 182 39 182 1 185 39 187 0 189 38 191 0 192 38 195 0 196 38 199 0 199 38 203 0 202 38 207 0 206 38 211 1 209 39 215 1 212 39 219 1 216 39 224 2 219 40 228 3 222 40 232 3 226 41 236 4 229 41 240 5 232 42 244 6 236 43 248 7 239 44 252 8 242 45 256 9 245 46 260 10 249 47 264 12 252 48 267 13 255 49 271 15 258 50 275 16 261 51 279 18 265 52 283 19 268 54 287 21 271 55 290 23 274 56 294 24 277 58 298 26 280 59 301 28 283 62 305 31 285 64 308 33 288 66 311 36 290 67 315 38 293 69 318 40 296 71 321 43 298 73 325 46 300 75 328 48 303 77 331 51 305 79 334 54 308 81 337 57 310 84 340 60 312 86 343 63 315 88 345 66 317 90 348 69 319 93 351 72 321 95 354 75 324 98 356 78 326 100 359 81 328 103 361 85 330 106 364 88 332 108 366 91 334 111 368 95 336 114 370 98 338 116 372 102 339 119 374 106 341 122 376 109 342 125 378 113 344 129 380 117 345 132 381 121 346 135 383 124 348 138 384 128 349 141 386 132 350 144 387 136 351 147 389 140 352 151 390 144 353 154 391 148 354 157 392 152 355 160 393 156 356 164 394 160 357 167 395 164 357 170 395 168 358 174 396 172 358 177 397 176 359 180 397 180 359 184 397 184 360 187 398 188 360 190 398 193 360 194 398 197 360 197 398 199 366 199 398 199 366 199 388 198 378 200 368 198 379 199 " />
</svg>
