<?xml version="1.0" encoding="UTF-8" standalone="no"?>
<svg xmlns="http://www.w3.org/2000/svg" version="1.1" width="769" height="564">
    <path id="Block1Jump0"
        fill="none"
        stroke="#F0F0F0"
		stroke-width="2px"
		d="M 297 64 L 299 62 297 64 302 60 310 66 321 58 321 48 321 58 332 66 344 58 344 47 337 42 341 41 351 41 344 47 344 58 355 66 366 58 366 47 359 41 373 42 366 47 366 58 377 66 388 58 388 47 384 44 390 46 388 47 388 58 399 66 410 58 410 53 410 58 422 66 425 63 436 71 443 83 450 95 455 109 450 95 444 85 444 90 449 93 450 95 455 108 444 117 433 109 433 98 444 90 444 85 438 74 433 71 422 79 422 90 433 98 433 109 422 117 410 109 410 98 422 90 422 79 410 71 399 79 399 90 410 98 410 109 399 117 388 109 388 98 399 90 399 79 388 71 377 79 377 90 388 98 388 109 377 117 366 109 366 98 377 90 377 79 366 71 355 79 355 90 366 98 366 109 355 117 344 109 344 98 355 90 355 79 344 71 332 79 332 90 344 98 344 109 332 117 321 109 321 98 332 90 332 79 321 71 310 79 310 90 321 98 321 109 310 117 299 109 299 98 310 90 310 79 299 71 288 79 288 90 299 98 299 109 288 117 277 109 277 98 288 90 288 79 285 77 278 85 271 93 277 98 277 109 265 117 261 114 253 132 245 150 237 168 236 149 234 129 233 110 232 98 231 82 226 75 221 79 221 90 232 98 232 109 221 117 210 109 210 98 221 90 221 79 210 71 199 79 199 90 210 98 210 109 199 117 187 109 187 98 199 90 199 79 187 71 176 79 176 90 187 98 187 109 176 117 165 109 165 98 176 90 176 79 165 71 154 79 154 90 165 98 165 109 154 117 143 109 143 98 154 90 154 79 143 71 132 79 132 90 143 98 143 109 132 117 120 109 120 98 132 90 132 79 120 71 109 79 109 90 120 98 120 109 109 117 98 109 98 98 109 90 109 79 98 71 87 79 87 90 98 98 98 109 87 117 76 109 76 98 87 90 87 79 76 71 65 79 65 90 76 98 76 109 65 117 53 109 53 98 65 90 65 79 53 71 42 79 42 90 53 98 53 109 42 117 31 109 31 98 42 90 42 79 34 73 25 89 24 93 31 98 31 109 21 116 20 126 21 140 22 153 25 164 31 160 31 149 21 142 20 129 31 122 42 130 42 141 31 149 31 160 42 168 53 160 53 149 42 141 42 130 53 122 65 130 65 141 53 149 53 160 65 168 76 160 76 149 65 141 65 130 76 122 87 130 87 141 76 149 76 160 87 168 98 160 98 149 87 141 87 130 98 122 109 130 109 141 98 149 98 160 109 168 120 160 120 149 109 141 109 130 120 122 132 130 132 141 120 149 120 160 132 168 143 160 143 149 132 141 132 130 143 122 154 130 154 141 143 149 143 160 154 168 165 160 165 149 154 141 154 130 165 122 176 130 176 141 165 149 165 160 176 168 187 160 187 149 176 141 176 130 187 122 199 130 199 141 187 149 187 160 199 168 210 160 210 149 199 141 199 130 210 122 221 130 221 141 210 149 210 160 221 168 232 160 232 149 221 141 221 130 232 122 234 123 235 135 235 146 232 149 232 160 237 163 237 168 239 165 243 168 254 160 254 149 248 144 253 133 257 123 265 130 265 141 254 149 254 160 265 168 277 160 277 149 265 141 265 130 277 122 288 130 288 141 277 149 277 160 288 168 299 160 299 149 288 141 288 130 299 122 310 130 310 141 299 149 299 160 310 168 321 160 321 149 310 141 310 130 321 122 332 130 332 141 321 149 321 160 331 167 321 173 320 173 314 177 310 181 310 190 306 202 303 214 299 211 299 200 309 192 310 190 310 181 299 173 288 181 288 192 299 200 299 211 288 219 277 211 277 200 288 192 288 181 277 173 265 181 265 192 277 200 277 211 265 219 254 211 254 200 265 192 265 181 254 173 243 181 243 192 254 200 254 211 243 219 232 211 232 200 243 192 243 181 232 173 221 181 221 192 232 200 232 211 221 219 210 211 210 200 221 192 221 181 210 173 199 181 199 192 210 200 210 211 199 219 187 211 187 200 199 192 199 181 187 173 176 181 176 192 187 200 187 211 176 219 165 211 165 200 176 192 176 181 165 173 154 181 154 192 165 200 165 211 154 219 143 211 143 200 154 192 154 181 143 173 132 181 132 192 143 200 143 211 132 219 120 211 120 200 132 192 132 181 120 173 109 181 109 192 120 200 120 211 109 219 98 211 98 200 109 192 109 181 98 173 87 181 87 192 98 200 98 211 87 219 76 211 76 200 87 192 87 181 76 173 65 181 65 192 76 200 76 211 65 219 53 211 53 200 65 192 65 181 53 173 42 181 42 192 53 200 53 211 46 216 44 212 37 196 42 192 42 181 31 173 28 175 31 183 38 198 44 212 50 226 53 224 65 232 65 243 60 246 66 256 71 265 76 262 76 251 65 243 65 232 76 224 87 232 87 243 76 251 76 262 87 270 98 262 98 251 87 243 87 232 98 224 109 232 109 243 98 251 98 262 109 270 120 262 120 251 109 243 109 232 120 224 132 232 132 243 120 251 120 262 132 270 143 262 143 251 132 243 132 232 143 224 154 232 154 243 143 251 143 262 154 270 165 262 165 251 154 243 154 232 165 224 176 232 176 243 165 251 165 262 176 270 187 262 187 251 176 243 176 232 187 224 199 232 199 243 187 251 187 262 199 270 210 262 210 251 199 243 199 232 210 224 221 232 221 243 210 251 210 262 221 270 232 262 232 251 221 243 221 232 232 224 243 232 243 243 232 251 232 262 243 270 254 262 254 251 243 243 243 232 254 224 265 232 265 243 254 251 254 262 265 270 277 262 277 251 265 243 265 232 277 224 288 232 288 243 277 251 277 262 288 270 290 268 288 262 293 246 288 243 288 232 299 224 304 208 309 193 314 177 329 168 344 160 344 149 332 141 332 130 344 122 355 130 355 141 344 149 344 160 354 153 364 147 355 141 355 130 366 122 377 130 377 141 374 143 379 142 377 141 377 130 388 122 399 130 399 137 399 130 410 122 422 130 422 136 422 130 433 122 444 130 444 141 444 130 455 122 461 126 461 144 445 141 430 137 414 134 399 137 385 141 370 144 356 152 342 161 328 169 314 177 309 194 304 211 298 228 293 245 288 262 294 281 300 299 306 318 299 313 299 302 300 301 296 290 293 279 288 283 288 294 299 302 299 313 288 321 277 313 277 302 288 294 288 283 277 275 265 283 265 294 277 302 277 313 265 321 254 313 254 302 265 294 265 283 254 275 243 283 243 294 254 302 254 313 243 321 232 313 232 302 243 294 243 283 232 275 221 283 221 294 232 302 232 313 221 321 210 313 210 302 221 294 221 283 210 275 199 283 199 294 210 302 210 313 199 321 187 313 187 302 199 294 199 283 187 275 176 283 176 294 187 302 187 313 176 321 165 313 165 302 176 294 176 283 165 275 154 283 154 294 165 302 165 313 154 321 143 313 143 302 154 294 154 283 143 275 132 283 132 294 143 302 143 313 132 321 120 313 120 302 132 294 132 283 120 275 109 283 109 294 120 302 120 313 115 317 124 328 132 334 132 337 132 334 143 326 154 334 154 345 144 352 146 354 158 369 165 364 165 353 154 345 154 334 165 326 176 334 176 345 165 353 165 364 176 372 187 364 187 353 176 345 176 334 187 326 199 334 199 345 187 353 187 364 199 372 210 364 210 353 199 345 199 334 210 326 221 334 221 345 210 353 210 364 221 372 232 364 232 353 221 345 221 334 232 326 243 334 243 345 232 353 232 364 243 372 254 364 254 353 243 345 243 334 254 326 265 334 265 345 254 353 254 364 265 372 277 364 277 353 265 345 265 334 277 326 288 334 288 345 277 353 277 364 282 367 291 360 299 353 288 345 288 334 299 326 310 334 310 343 300 352 310 343 310 334 313 341 299 353 284 365 270 377 262 382 254 377 243 385 243 396 232 404 243 396 243 385 232 377 221 385 221 396 232 404 222 411 213 417 210 415 210 404 221 396 221 385 210 377 199 385 199 396 210 404 210 415 202 420 195 412 188 404 199 396 199 385 187 377 176 385 176 391 176 385 165 377 155 365 146 354 135 341 124 328 112 314 100 300 109 294 109 283 98 275 87 283 87 285 87 283 78 276 77 275 69 262 62 249 54 236 49 224 44 212 37 197 31 183 26 168 22 153 21 139 20 126 23 107 25 89 32 76 39 63 42 66 53 58 53 47 65 38 61 41 53 47 53 58 65 66 76 58 76 47 65 39 70 34 86 27 87 39 76 47 76 58 87 66 98 58 98 47 87 39 87 28 90 25 93 24 102 22 109 28 109 39 98 47 98 58 109 66 120 58 120 47 109 39 109 28 120 20 132 28 132 39 120 47 120 58 132 66 143 58 143 47 132 39 132 28 143 20 154 28 154 39 143 47 143 58 154 66 165 58 165 47 154 39 154 28 163 21 170 23 176 28 176 39 165 47 165 58 176 66 187 58 187 47 176 39 176 28 179 26 189 31 199 36 199 39 187 47 187 58 199 66 210 58 210 48 208 46 199 39 199 36 204 39 210 48 210 58 221 66 231 82 232 99 233 116 235 134 236 151 237 168 245 150 253 131 261 113 269 95 279 84 288 74 298 63 296 65 298 63 "/>
    <path id="Block1Jump1"
        fill="none"
        stroke="#F0F0F0"
		stroke-width="2px"
		d="M 456 140 L 456 140 453 140 456 140 439 141 450 137 460 133 449 134 439 135 452 130 465 126 452 128 439 129 454 124 468 119 453 121 439 123 455 118 470 113 455 115 440 117 455 112 469 108 453 110 438 112 453 107 467 102 452 104 437 106 450 102 462 98 447 100 433 102 445 98 456 94 443 96 430 97 440 93 450 89 438 91 426 92 442 86 428 96 435 87 441 78 433 85 425 91 433 80 441 69 431 78 421 87 431 74 440 62 429 72 418 82 428 69 438 56 426 66 415 76 425 64 434 52 422 63 411 73 420 61 429 49 418 59 407 69 415 58 423 47 412 57 401 67 409 57 416 48 406 57 396 65 402 56 408 48 399 56 390 63 399 49 393 66 394 54 395 43 391 53 388 63 389 49 390 36 386 49 383 61 384 45 385 30 381 44 377 58 379 42 380 26 376 41 372 55 374 40 375 25 370 40 366 55 368 40 369 25 365 40 361 54 362 40 363 27 359 41 355 55 356 43 357 31 353 44 349 56 350 45 350 35 346 47 343 58 344 41 348 58 342 48 336 38 339 49 342 59 335 47 329 35 333 48 336 60 328 46 321 33 326 47 330 61 322 47 315 33 320 48 325 62 317 48 310 34 315 49 319 64 312 51 305 38 310 52 314 66 307 54 301 43 306 57 310 71 304 60 298 50 302 63 306 75 300 66 295 57 299 69 302 80 293 65 304 79 294 72 285 66 293 74 300 82 288 74 277 67 286 77 295 86 282 77 270 68 280 79 290 89 277 80 264 71 275 82 285 92 272 83 260 75 271 86 282 97 269 88 257 80 268 91 279 101 267 93 256 86 267 97 277 107 267 100 257 94 266 103 275 112 266 106 257 101 266 110 274 119 259 110 273 120 262 116 252 113 261 119 269 124 256 119 244 115 255 122 266 129 251 124 237 119 250 126 262 133 247 128 232 123 245 131 258 138 243 132 229 127 243 135 256 143 242 138 228 133 241 141 254 148 241 143 228 139 241 147 253 154 242 150 231 146 242 153 253 160 243 156 233 153 244 160 254 166 237 161 220 159 232 157 243 155 232 154 221 154 235 151 248 149 235 148 222 148 237 145 252 143 237 142 223 142 239 139 255 137 239 136 224 136 240 133 255 131 239 131 224 131 239 128 253 126 238 125 223 125 237 122 250 120 235 120 221 120 233 117 244 115 231 115 218 115 229 112 239 110 226 109 214 109 231 106 214 108 225 103 235 98 224 100 214 102 227 96 239 91 226 94 213 96 228 90 242 84 227 87 213 90 228 84 243 78 228 81 213 84 228 78 242 72 226 76 211 79 225 73 239 67 224 71 209 74 222 68 234 63 220 66 206 69 217 64 228 59 215 62 202 64 212 60 221 56 209 58 197 60 213 53 200 65 206 55 212 45 204 53 197 60 204 48 210 36 201 46 193 56 201 42 208 29 198 40 189 51 197 37 205 24 195 36 186 47 194 33 201 20 191 32 181 44 189 30 196 17 186 29 176 40 183 28 190 17 180 28 170 39 176 28 182 18 173 28 165 38 170 28 175 19 166 28 158 37 166 22 162 39 161 27 161 16 158 26 156 36 155 22 155 9 153 22 151 35 150 19 150 4 147 19 145 33 145 17 145 1 142 16 140 31 139 15 139 0 136 16 134 31 133 16 133 1 130 16 128 30 128 16 128 3 125 18 123 32 122 20 122 8 119 21 117 34 116 23 116 13 113 25 111 37 110 20 113 37 108 26 103 16 105 27 107 37 101 25 95 13 99 26 102 38 95 24 88 10 92 25 96 39 89 24 82 10 86 25 90 39 83 25 76 11 80 26 84 41 78 27 72 14 76 29 79 43 73 31 67 19 71 33 75 47 69 36 64 25 67 38 70 51 65 41 61 32 64 44 66 56 58 41 69 54 59 47 50 41 57 49 64 57 53 49 42 41 51 51 60 60 47 51 35 42 45 53 55 63 42 53 29 44 40 55 50 66 37 57 25 48 36 59 47 70 35 61 23 53 33 64 43 74 32 66 21 59 32 70 42 80 32 73 22 66 31 76 40 85 31 79 22 73 31 82 39 91 24 82 41 88 29 87 18 86 28 90 38 93 24 92 11 91 24 95 36 98 20 96 5 95 20 99 34 103 18 101 2 100 17 104 31 108 15 106 0 105 15 109 30 113 15 111 0 110 15 114 29 118 15 117 2 116 16 120 30 124 18 123 6 122 19 126 32 129 21 128 11 128 23 132 34 135 17 134 34 134 23 138 12 141 23 140 33 140 20 144 7 147 21 146 34 145 19 150 4 154 19 152 33 151 17 155 2 159 17 157 32 156 17 161 2 165 18 163 33 162 18 166 4 170 19 168 34 167 21 171 8 174 23 173 37 172 25 176 14 179 27 177 40 176 30 180 20 183 33 182 45 181 28 186 45 182 35 188 25 194 36 191 46 188 34 195 22 201 35 197 47 193 33 201 19 208 33 203 47 199 33 207 19 214 34 209 48 205 34 212 20 219 35 214 50 210 36 217 23 224 38 219 52 214 40 221 28 227 42 222 56 218 45 224 35 230 48 226 60 222 51 228 42 233 54 229 65 226 50 235 67 229 57 236 48 242 58 238 68 234 57 242 46 250 58 244 70 239 57 248 45 257 58 251 71 245 58 254 45 263 59 256 72 250 59 259 47 268 61 261 75 255 63 264 51 272 65 265 78 259 67 267 56 275 69 269 82 263 72 270 63 277 75 271 87 266 78 273 70 279 81 274 92 269 79 280 94 271 86 279 78 287 87 282 96 277 86 286 77 295 88 288 99 282 87 293 76 303 89 295 101 287 89 298 77 309 90 300 103 292 91 303 80 313 93 304 106 296 95 307 84 317 97 309 109 301 99 310 90 319 102 311 114 303 105 312 97 320 108 313 119 306 111 314 104 321 115 314 125 308 113 321 128 312 120 321 112 329 121 323 130 317 120 327 111 336 122 329 133 322 122 333 111 344 123 335 135 327 123 339 112 350 125 341 137 333 125 344 114 354 127 345 140 337 129 348 119 358 132 349 144 341 134 351 124 360 137 352 149 344 140 353 132 361 143 353 154 346 146 354 139 361 149 354 159 348 148 361 163 353 154 361 146 369 156 363 165 358 155 368 145 377 157 370 168 363 156 374 144 384 157 376 169 369 157 380 145 390 158 382 171 374 159 385 148 395 161 386 174 378 163 388 152 398 165 390 178 382 168 392 158 401 170 393 182 385 173 394 165 402 176 395 187 388 179 396 172 403 183 397 193 391 181 402 185 386 186 398 186 409 188 398 190 388 191 402 191 415 193 402 195 389 196 405 196 420 199 405 201 391 201 407 201 423 204 408 206 393 207 409 207 424 209 408 211 393 212 408 212 423 215 408 217 394 217 408 217 421 220 406 222 392 223 404 223 416 225 403 227 390 228 401 228 411 231 399 233 387 234 404 226 389 234 397 242 405 236 396 231 387 241 397 250 407 243 395 236 384 247 396 257 407 249 394 242 382 253 394 263 406 255 393 247 381 258 393 268 404 259 390 251 377 261 388 271 399 263 386 255 374 265 384 274 394 266 381 258 369 267 378 275 387 268 375 261 364 269 372 276 379 269 368 263 358 275 371 266 356 275 364 283 372 277 363 271 354 281 364 290 373 283 362 276 352 287 363 297 374 288 362 280 350 292 362 303 373 294 360 285 348 296 360 307 371 298 358 289 345 300 356 310 367 301 354 292 342 302 352 312 361 303 349 295 337 304 346 312 354 304 343 297 333 305 340 312 347 305 337 299 327 311 339 309 337 311 339 "/>
    <path id="Block1Jump2"
        fill="none"
        stroke="#F0F0F0"
		stroke-width="2px"
		d="M 585 200 L 585 200 583 202 585 200 576 210 566 221 557 231 549 249 541 268 533 286 525 304 524 287 523 270 521 253 520 236 519 219 513 210 508 201 498 194 498 184 492 175 487 172 487 175 496 181 498 184 498 194 487 202 475 194 475 183 487 175 487 172 477 167 467 162 464 164 464 175 475 183 475 194 464 202 453 194 453 183 464 175 464 164 458 159 451 157 442 164 442 175 453 183 453 194 442 202 431 194 431 183 442 175 442 164 431 156 420 164 420 175 431 183 431 194 420 202 408 194 408 183 420 175 420 164 408 156 397 164 397 175 408 183 408 194 397 202 386 194 386 183 397 175 397 164 390 158 381 160 378 161 375 164 375 175 386 183 386 194 375 202 364 194 364 183 375 175 375 164 358 170 353 174 364 183 364 194 353 202 341 194 341 183 349 177 353 175 341 183 341 194 330 202 327 199 320 212 313 225 311 239 309 252 319 245 319 234 312 229 313 225 322 209 330 215 330 226 319 234 319 245 330 253 341 245 341 234 330 226 330 215 341 207 353 215 353 226 341 234 341 245 353 253 364 245 364 234 353 226 353 215 364 207 375 215 375 226 364 234 364 245 375 253 386 245 386 234 375 226 375 215 386 207 397 215 397 226 386 234 386 245 397 253 408 245 408 234 397 226 397 215 408 207 420 215 420 226 408 234 408 245 420 253 431 245 431 234 420 226 420 215 431 207 442 215 442 226 431 234 431 245 442 253 453 245 453 234 442 226 442 215 453 207 464 215 464 226 453 234 453 245 464 253 475 245 475 234 464 226 464 215 475 207 487 215 487 226 475 234 475 245 487 253 498 245 498 234 487 226 487 215 498 207 509 215 509 226 498 234 498 245 509 253 520 245 520 234 509 226 509 215 514 211 519 219 520 234 520 245 522 265 523 284 525 304 527 301 531 304 542 296 542 285 536 280 541 269 545 259 553 266 553 277 542 285 542 296 553 304 565 296 565 285 553 277 553 266 565 258 576 266 576 277 565 285 565 296 576 304 587 296 587 285 576 277 576 266 587 258 598 266 598 277 587 285 587 296 598 304 609 296 609 285 598 277 598 266 609 258 620 266 620 277 609 285 609 296 620 304 632 296 632 285 620 277 620 266 632 258 643 266 643 277 632 285 632 296 643 304 654 296 654 285 643 277 643 266 654 258 665 266 665 277 654 285 654 296 665 304 676 296 676 285 665 277 665 266 676 258 687 266 687 277 676 285 676 296 687 304 698 296 698 285 687 277 687 266 698 258 710 266 710 277 698 285 698 296 710 304 721 296 721 285 710 277 710 266 721 258 732 266 732 277 721 285 721 296 732 304 743 296 743 285 732 277 732 266 743 258 749 262 751 279 743 285 743 296 752 302 750 316 749 330 744 342 738 355 733 367 732 368 732 369 726 379 721 388 721 387 722 386 732 369 732 368 721 360 710 368 710 379 721 387 721 388 711 401 702 413 698 411 687 419 687 426 687 419 676 411 665 419 665 430 675 437 663 447 650 456 638 466 632 462 620 470 620 478 620 470 609 462 598 470 598 481 607 487 597 494 588 500 587 489 598 481 598 470 587 462 576 470 576 481 587 489 587 500 576 508 565 500 565 489 576 481 576 470 565 462 553 470 553 481 565 489 565 500 553 508 542 500 542 489 553 481 553 470 542 462 531 470 531 481 542 489 542 500 531 508 520 500 520 489 531 481 531 470 520 462 509 470 509 481 520 489 520 500 509 508 498 500 498 489 509 481 509 470 498 462 487 470 487 481 498 489 498 500 487 508 475 500 475 489 487 481 487 470 475 462 464 470 464 481 475 489 475 500 464 508 453 500 453 489 464 481 464 470 453 462 442 470 442 481 453 489 453 500 446 505 434 490 423 477 412 464 420 470 420 473 420 470 431 462 442 470 442 481 432 488 434 490 444 502 453 513 464 521 464 527 464 521 475 513 487 521 487 532 476 539 484 547 492 555 498 551 498 540 487 532 487 521 498 513 509 521 509 532 498 540 498 551 504 555 520 545 520 540 509 532 509 521 520 513 531 521 531 532 520 540 520 545 536 535 531 532 531 521 542 513 553 521 553 523 553 521 565 513 567 514 580 505 594 496 607 487 621 478 634 469 646 460 657 451 654 449 654 438 665 430 665 419 654 411 643 419 643 430 654 438 654 449 643 457 632 449 632 438 643 430 643 419 632 411 620 419 620 430 632 438 632 449 620 457 609 449 609 438 620 430 620 419 609 411 598 419 598 430 609 438 609 449 598 457 587 449 587 438 598 430 598 419 587 411 576 419 576 430 587 438 587 449 576 457 565 449 565 438 576 430 576 419 565 411 553 419 553 430 565 438 565 449 553 457 542 449 542 438 553 430 553 419 542 411 531 419 531 430 542 438 542 449 531 457 520 449 520 438 531 430 531 419 520 411 509 419 509 430 520 438 520 449 509 457 498 449 498 438 509 430 509 419 498 411 487 419 487 430 498 438 498 449 487 457 475 449 475 438 487 430 487 419 475 411 464 419 464 430 475 438 475 449 464 457 453 449 453 438 464 430 464 419 453 411 442 419 442 430 453 438 453 449 442 457 431 449 431 438 442 430 442 419 431 411 420 419 420 430 431 438 431 449 420 457 408 449 408 438 420 430 420 419 408 411 397 419 397 430 408 438 408 449 403 453 395 444 388 436 397 430 397 419 386 411 375 419 375 421 375 419 366 412 365 411 356 396 348 382 353 379 353 368 341 360 338 362 342 372 351 387 359 401 364 398 364 387 353 379 353 368 364 360 375 368 375 379 364 387 364 398 375 406 386 398 386 387 375 379 375 368 386 360 397 368 397 379 386 387 386 398 397 406 408 398 408 387 397 379 397 368 408 360 420 368 420 379 408 387 408 398 420 406 431 398 431 387 420 379 420 368 431 360 442 368 442 379 431 387 431 398 442 406 453 398 453 387 442 379 442 368 453 360 464 368 464 379 453 387 453 398 464 406 475 398 475 387 464 379 464 368 475 360 487 368 487 379 475 387 475 398 487 406 498 398 498 387 487 379 487 368 498 360 509 368 509 379 498 387 498 398 509 406 520 398 520 387 509 379 509 368 520 360 531 368 531 379 520 387 520 398 531 406 542 398 542 387 531 379 531 368 542 360 553 368 553 379 542 387 542 398 553 406 565 398 565 387 553 379 553 368 565 360 576 368 576 379 565 387 565 398 576 406 587 398 587 387 576 379 576 368 587 360 598 368 598 379 587 387 587 398 598 406 609 398 609 387 598 379 598 368 609 360 620 368 620 379 609 387 609 398 620 406 632 398 632 387 620 379 620 368 632 360 643 368 643 379 632 387 632 398 643 406 654 398 654 387 643 379 643 368 654 360 665 368 665 379 654 387 654 398 665 406 676 398 676 387 665 379 665 368 676 360 687 368 687 379 676 387 676 398 687 406 698 398 698 387 687 379 687 368 698 360 710 368 710 379 698 387 698 398 708 405 715 396 721 388 727 377 733 367 738 355 743 344 743 336 748 332 749 330 751 314 743 309 732 317 732 328 743 336 743 344 741 348 732 355 721 347 721 336 732 328 732 317 721 309 710 317 710 328 721 336 721 347 710 355 698 347 698 336 710 328 710 317 698 309 687 317 687 328 698 336 698 347 687 355 676 347 676 336 687 328 687 317 676 309 665 317 665 328 676 336 676 347 665 355 654 347 654 336 665 328 665 317 654 309 643 317 643 328 654 336 654 347 643 355 632 347 632 336 643 328 643 317 632 309 620 317 620 328 632 336 632 347 620 355 609 347 609 336 620 328 620 317 609 309 598 317 598 328 609 336 609 347 598 355 587 347 587 336 598 328 598 317 587 309 576 317 576 328 587 336 587 347 576 355 565 347 565 336 576 328 576 317 565 309 553 317 553 328 565 336 565 347 553 355 542 347 542 336 553 328 553 317 542 309 531 317 531 328 542 336 542 347 531 355 520 347 520 336 531 328 531 317 520 309 509 317 509 328 520 336 520 347 509 355 498 347 498 336 509 328 509 317 498 309 487 317 487 328 498 336 498 347 487 355 475 347 475 336 487 328 487 317 475 309 464 317 464 328 475 336 475 347 464 355 453 347 453 336 464 328 464 317 453 309 442 317 442 328 453 336 453 347 442 355 431 347 431 336 442 328 442 317 431 309 420 317 420 328 431 336 431 347 420 355 408 347 408 336 420 328 420 317 408 309 397 317 397 328 408 336 408 347 397 355 386 347 386 336 397 328 397 317 386 309 375 317 375 328 386 336 386 347 375 355 364 347 364 336 375 328 375 317 364 309 353 317 353 328 364 336 364 347 353 355 341 347 341 336 353 328 353 317 341 309 330 317 330 328 341 336 341 347 334 352 332 348 325 332 330 328 330 317 319 309 316 311 313 300 319 296 319 285 309 278 308 265 319 258 330 266 330 277 319 285 319 296 330 304 341 296 341 285 330 277 330 266 341 258 353 266 353 277 341 285 341 296 353 304 364 296 364 285 353 277 353 266 364 258 375 266 375 277 364 285 364 296 375 304 386 296 386 285 375 277 375 266 386 258 397 266 397 277 386 285 386 296 397 304 408 296 408 285 397 277 397 266 408 258 420 266 420 277 408 285 408 296 420 304 431 296 431 285 420 277 420 266 431 258 442 266 442 277 431 285 431 296 442 304 453 296 453 285 442 277 442 266 453 258 464 266 464 277 453 285 453 296 464 304 475 296 475 285 464 277 464 266 475 258 487 266 487 277 475 285 475 296 487 304 498 296 498 285 487 277 487 266 498 258 509 266 509 277 498 285 498 296 509 304 520 296 520 285 509 277 509 266 520 258 522 259 523 271 523 282 520 285 520 296 525 299 525 304 533 286 541 268 549 250 553 253 565 245 565 234 559 229 566 221 573 213 576 215 576 226 565 234 565 245 576 253 587 245 587 234 576 226 576 215 587 207 598 215 598 226 587 234 587 245 598 253 609 245 609 234 598 226 598 215 609 207 620 215 620 226 609 234 609 245 620 253 632 245 632 234 620 226 620 215 632 207 643 215 643 226 632 234 632 245 643 253 654 245 654 234 643 226 643 215 654 207 665 215 665 226 654 234 654 245 665 253 676 245 676 234 665 226 665 215 676 207 687 215 687 226 676 234 676 245 687 253 698 245 698 234 687 226 687 215 698 207 710 215 710 226 698 234 698 245 710 253 721 245 721 234 710 226 710 215 721 207 726 210 732 221 732 226 721 234 721 245 732 253 743 245 738 232 736 229 732 226 732 221 724 207 713 199 710 202 698 194 698 190 698 194 687 202 676 194 676 183 678 182 673 180 676 183 676 194 665 202 654 194 654 183 661 178 647 177 654 183 654 194 643 202 632 194 632 183 639 177 629 177 625 178 632 183 632 194 620 202 609 194 609 184 609 194 598 202 590 196 584 201 586 199 584 201 585 200 585 200 596 213 586 207 577 201 584 209 591 217 580 209 569 202 578 211 587 220 574 211 561 203 572 214 582 224 569 215 556 206 567 217 577 227 564 218 551 210 563 221 574 231 561 223 549 215 560 226 570 236 559 228 548 221 559 231 569 241 558 234 548 228 558 238 567 247 558 241 549 236 558 245 566 253 551 245 565 255 554 251 543 247 552 253 561 259 548 254 536 250 547 257 558 264 543 258 529 253 542 261 554 268 539 262 524 257 537 265 550 272 535 267 521 262 534 270 547 278 533 272 519 267 532 275 545 283 532 278 520 274 533 282 545 289 533 285 522 281 533 288 544 295 534 291 524 288 535 295 545 301 529 296 511 295 523 292 534 289 523 289 512 289 526 286 539 283 526 283 513 283 528 280 543 277 528 277 514 277 530 274 545 271 530 271 515 271 530 268 545 265 529 266 514 266 529 263 544 260 528 260 513 260 527 257 540 255 525 255 511 255 523 252 534 250 521 250 508 250 518 247 528 245 516 245 504 245 521 240 503 243 514 238 524 233 513 235 503 237 516 231 528 226 515 229 502 232 516 225 530 219 516 223 502 226 517 219 531 212 516 216 502 220 516 213 530 207 515 211 500 214 514 208 527 202 512 206 498 209 510 203 522 198 508 202 494 205 505 199 515 194 502 197 490 200 500 195 509 191 497 194 485 196 500 188 488 200 494 190 499 180 491 188 484 196 491 184 497 172 488 182 480 192 488 178 495 165 485 176 476 187 484 173 492 159 482 171 473 182 481 168 488 155 478 167 468 179 476 166 483 153 473 165 463 176 470 164 477 153 467 164 458 175 464 164 469 154 460 164 452 173 457 164 462 155 454 164 446 173 453 158 449 175 448 163 448 152 446 162 444 172 443 158 442 145 440 158 438 171 437 155 437 140 435 155 433 169 432 153 431 137 429 152 427 167 426 151 426 136 423 152 421 167 420 152 420 137 418 152 416 167 415 153 414 140 412 155 410 169 409 157 409 145 407 158 405 171 404 160 403 150 401 162 399 174 397 157 401 174 395 164 390 154 393 164 395 174 388 162 382 150 386 163 389 176 382 162 375 148 379 162 383 176 376 162 369 148 373 163 377 177 370 163 363 149 368 164 372 179 365 165 358 152 363 167 367 181 361 169 355 157 359 171 363 185 357 174 351 164 355 177 359 189 353 180 348 171 352 183 355 194 346 180 358 193 348 187 338 181 346 189 353 196 341 189 330 182 340 191 349 200 335 191 322 183 333 193 344 203 330 194 317 186 328 197 339 207 326 198 313 190 324 201 335 211 322 203 310 195 321 206 332 216 320 208 309 201 320 211 330 221 320 215 310 209 320 218 329 227 320 221 311 216 320 225 328 233 313 225 330 230 318 230 307 230 317 233 327 235 313 235 300 235 313 238 326 241 310 241 295 241 310 244 324 246 308 246 292 246 307 249 321 252 305 251 290 251 306 254 321 257 306 257 291 257 306 260 321 263 307 263 293 263 308 266 322 269 310 269 298 269 311 272 324 274 313 275 303 275 315 278 326 280 309 281 327 279 316 284 305 288 316 286 326 285 313 290 301 295 314 293 327 291 312 297 298 302 313 299 327 297 312 303 297 308 312 305 327 303 312 309 298 314 313 311 328 308 314 314 300 319 315 316 330 313 317 318 305 323 319 320 333 318 322 323 311 327 324 325 337 323 327 327 318 331 330 329 342 327 326 334 343 330 333 336 323 342 333 339 343 336 331 343 320 350 333 346 345 342 331 350 318 357 332 352 345 348 331 356 317 363 332 358 346 354 332 362 319 369 334 364 348 359 335 366 322 373 337 368 351 364 339 371 327 377 341 372 355 368 344 374 334 380 347 376 359 372 350 378 341 383 353 379 364 376 350 385 366 378 357 386 348 393 358 388 367 384 357 393 347 401 359 395 370 389 358 399 346 409 359 401 372 394 359 405 347 415 360 407 373 400 361 410 349 420 363 412 377 404 365 414 354 424 367 416 380 409 369 418 359 427 372 419 385 412 376 420 367 428 379 422 390 416 382 423 374 430 385 424 396 418 383 430 398 422 390 430 382 438 391 432 400 427 390 437 381 446 392 439 403 432 392 443 381 454 393 446 405 438 393 449 382 460 395 451 408 443 396 454 385 465 398 456 411 448 400 458 390 468 403 460 415 452 405 462 395 471 408 463 420 455 411 464 403 472 414 465 425 458 417 466 410 473 421 466 431 460 419 473 435 465 426 473 418 481 428 475 437 470 427 480 417 489 429 482 440 475 428 486 417 496 430 488 442 481 430 492 418 503 431 494 444 486 432 497 421 508 434 499 447 491 436 501 425 511 438 503 451 495 441 505 431 514 444 506 456 498 447 507 439 515 450 508 461 501 453 509 446 516 457 509 467 503 455 516 470 507 462 516 455 524 464 518 472 512 463 522 454 532 465 524 476 517 465 528 454 539 466 530 478 522 467 534 456 546 468 537 480 528 469 539 459 550 472 541 484 532 474 543 464 554 476 545 488 536 479 546 470 556 482 547 493 539 485 548 477 556 488 548 499 541 492 549 485 557 495 550 505 543 493 556 489 540 495 550 501 559 498 549 495 539 502 551 509 562 504 549 500 537 508 551 516 564 511 550 506 536 515 550 523 564 517 549 512 535 520 549 528 562 522 547 517 533 525 546 533 558 527 544 522 530 529 542 536 553 531 539 526 526 533 536 539 546 534 533 530 521 536 530 541 539 537 527 533 516 543 530 537 514 544 523 551 532 546 522 542 512 551 523 559 534 553 522 548 510 557 523 566 535 559 522 553 509 563 522 573 534 566 520 559 507 569 520 578 532 571 518 564 504 573 516 582 528 575 514 568 501 577 512 585 523 578 509 572 496 580 506 587 515 581 503 576 492 583 500 589 508 584 497 579 486 589 499 583 483 590 492 597 501 593 491 589 481 597 492 605 503 599 491 594 479 604 492 613 504 606 491 600 478 610 491 619 503 612 489 605 476 615 489 624 501 617 487 610 473 620 485 629 497 622 483 615 470 623 481 631 491 624 478 618 465 626 475 633 484 627 472 622 460 629 469 635 477 630 466 625 455 636 468 628 452 636 461 644 469 639 459 634 450 643 460 652 470 645 458 639 447 650 459 660 470 652 457 644 445 655 457 666 469 658 456 650 443 661 455 671 466 662 453 654 440 665 451 675 462 667 449 659 436 668 446 677 456 669 443 662 431 670 440 678 449 671 437 665 426 673 434 680 442 673 431 667 420 680 433 670 418 679 426 688 433 681 424 675 416 686 425 696 433 688 422 680 412 692 422 703 432 694 420 685 409 697 420 709 430 699 418 690 407 702 417 714 427 704 415 694 403 706 413 717 422 707 410 698 399 709 408 719 416 709 404 700 393 710 401 719 408 711 398 703 388 711 395 719 401 711 391 704 382 718 392 705 381 716 386 726 390 717 383 709 377 722 382 734 387 723 379 712 372 727 379 741 385 729 376 717 368 732 375 746 381 733 372 721 364 736 371 750 377 737 368 724 359 738 365 751 371 738 362 726 354 739 360 751 365 739 356 727 348 738 353 749 358 738 350 728 342 738 346 747 350 737 343 728 336 744 342 727 336 739 337 751 338 740 334 730 331 744 332 757 333 744 329 732 325 748 327 763 328 749 324 735 320 751 322 767 323 752 319 738 315 754 317 769 318 754 313 739 309 754 311 769 312 754 308 739 304 753 305 766 306 752 302 738 298 750 299 762 300 749 296 737 292 748 293 758 293 746 289 735 286 752 287 735 287 746 283 757 280 746 281 735 282 748 277 761 273 748 275 735 276 750 271 764 266 749 268 735 270 751 265 766 260 751 262 736 264 751 259 766 254 750 257 735 259 749 254 763 249 748 251 733 253 746 249 759 245 744 247 730 248 742 244 753 240 740 242 727 243 737 239 746 236 734 238 722 239 738 233 723 241 731 232 739 224 730 230 721 236 730 226 739 216 728 224 717 231 728 219 739 208 727 217 715 225 726 213 737 202 724 211 712 219 723 208 734 197 721 206 708 215 719 204 729 193 716 202 704 211 714 201 723 191 711 200 699 208 707 199 715 190 704 198 693 205 700 197 707 189 697 196 687 203 698 190 691 205 693 193 694 182 689 192 685 202 687 188 689 175 684 188 680 200 682 184 684 169 679 183 675 197 677 181 679 165 674 180 669 194 672 178 674 163 669 178 664 192 666 177 668 163 663 177 658 191 660 177 661 164 656 178 652 192 654 180 655 168 650 181 645 193 647 182 648 172 643 183 639 194 641 177 643 195 638 184 633 174 635 185 637 195 631 183 625 171 628 184 631 196 624 182 618 168 622 183 625 197 618 182 611 168 615 183 618 197 611 183 605 169 609 184 613 199 606 185 600 172 604 187 607 202 601 189 595 177 599 192 603 206 597 195 592 184 595 197 598 210 593 200 588 191 591 203 593 215 585 199 586 202 585 199 " />
</svg>
