<?xml version="1.0" encoding="UTF-8" standalone="no"?>
<svg xmlns="http://www.w3.org/2000/svg" version="1.1" width="807" height="571">
    <path id="Block1Jump1"
        fill="none"
        stroke="#000000"
		stroke-width="2px"
		d="M 723 279 L 748 280 783 266 791 255 790 247 782 259 783 265 784 273 748 280 733 280 694 287 670 292 644 282 639 269 638 255 636 241 638 227 643 211 603 217 597 218 636 211 659 207 666 199 646 201 647 186 651 171 655 169 652 169 645 173 657 172 641 177 653 175 658 176 638 182 641 181 659 180 654 181 636 186 660 184 642 187 635 191 655 187 661 188 632 195 643 193 662 192 656 193 629 200 631 199 664 196 644 199 626 204 657 199 666 197 666 199 688 193 700 177 701 173 709 173 706 174 691 179 710 177 694 180 685 184 707 180 708 182 679 189 695 186 708 186 673 194 683 192 706 190 696 192 670 196 666 199 641 208 625 206 632 205 671 198 705 194 684 198 645 205 620 211 658 205 697 198 704 199 672 204 633 211 615 214 597 218 639 224 637 239 638 253 639 267 642 281 661 292 670 292 702 288 741 280 773 274 785 258 791 242 793 232 795 231 803 232 788 237 803 236 796 237 784 241 802 240 784 243 780 246 797 243 801 245 777 251 785 249 799 249 798 249 775 255 798 253 786 255 773 260 796 258 774 261 771 264 787 261 796 262 767 269 775 267 797 265 788 267 760 274 763 274 799 269 776 273 749 278 710 286 702 288 712 301 712 315 710 330 707 344 706 359 707 365 668 373 647 377 656 390 667 392 644 394 674 387 664 388 631 392 651 389 677 382 638 389 620 390 625 389 663 382 679 378 650 383 615 387 637 383 676 376 681 373 662 377 624 383 611 384 649 377 684 371 707 365 752 359 760 372 764 385 757 392 758 392 796 384 783 386 736 392 770 386 799 379 795 380 757 386 725 390 743 387 782 380 800 375 769 380 730 387 720 387 756 380 794 374 801 370 781 374 742 381 719 383 729 381 768 374 802 366 793 368 754 375 719 379 741 375 780 368 803 362 767 368 728 375 717 375 753 369 792 362 803 358 779 362 740 369 713 372 727 369 766 362 804 354 791 356 752 363 714 370 708 369 739 363 778 356 805 349 803 350 764 357 726 363 699 368 707 365 745 353 755 350 795 348 805 347 790 350 751 357 713 364 675 370 636 377 609 380 623 377 661 371 700 364 738 357 777 350 805 343 802 344 763 351 725 357 687 364 648 371 610 378 607 376 635 371 673 364 712 358 750 351 789 344 805 339 776 344 737 351 699 358 660 365 622 372 608 372 609 372 647 365 686 358 724 351 762 345 801 338 805 335 788 338 749 345 711 352 672 359 634 365 608 368 621 366 659 359 698 352 736 345 775 339 806 331 800 332 761 339 723 346 685 352 646 359 608 364 633 359 671 353 710 346 748 339 787 332 806 327 773 333 735 339 697 346 658 353 620 360 611 359 645 353 683 346 722 340 760 333 799 326 806 323 786 326 747 333 709 340 670 347 632 354 612 355 619 354 657 347 696 340 734 333 772 327 807 319 798 320 759 327 721 334 682 341 644 347 613 351 631 348 669 341 708 334 746 327 785 321 806 315 771 321 733 328 695 334 656 341 618 348 614 346 643 341 681 335 720 328 758 321 797 314 806 311 783 315 745 321 707 328 668 335 630 342 616 342 617 342 655 335 694 328 732 322 770 315 806 306 796 308 757 315 719 322 680 329 642 335 616 338 629 336 667 329 706 322 744 315 782 309 807 302 769 309 731 316 692 323 654 329 618 334 641 330 679 323 718 316 756 309 795 302 806 298 781 303 743 310 705 316 666 323 628 330 620 329 653 323 691 317 730 310 768 303 806 294 794 297 755 303 717 310 678 317 640 324 620 325 627 324 665 317 704 310 742 304 780 297 806 290 767 297 729 304 690 311 652 317 620 321 639 318 677 311 716 304 754 297 792 291 805 286 779 291 741 298 703 305 664 311 626 318 619 317 651 312 689 305 728 298 766 291 804 283 791 285 753 292 715 298 676 305 638 312 617 314 625 312 663 305 701 299 740 292 778 285 803 279 765 285 727 292 688 299 650 306 614 310 637 306 675 299 714 292 752 286 790 279 801 275 777 279 739 286 700 293 662 299 624 306 608 307 610 307 649 300 687 293 726 286 764 279 800 271 789 273 751 280 713 286 674 293 636 300 604 306 643 298 670 292 633 298 598 305 623 300 661 294 699 287 738 280 732 279 725 280 686 287 648 294 609 301 591 304 619 293 655 290 642 279 639 265 637 251 638 237 638 222 607 216 595 218 582 222 608 218 646 211 685 204 704 203 698 204 660 211 621 217 583 224 578 227 596 224 634 217 673 210 704 207 686 210 647 217 609 224 576 231 584 230 622 223 661 216 699 210 703 211 674 216 635 223 597 230 575 236 610 229 648 223 687 216 704 215 700 216 662 222 623 229 585 236 572 240 598 236 636 229 675 222 704 219 688 222 650 229 611 235 573 242 571 244 586 242 624 235 663 228 701 221 704 223 676 228 637 235 599 242 571 249 574 248 612 241 651 234 689 228 704 227 702 227 664 234 625 241 587 248 570 253 600 247 638 241 677 234 705 231 690 234 652 240 613 247 575 254 569 257 588 254 626 247 665 240 703 233 705 235 678 240 639 247 601 253 569 261 576 260 614 253 653 246 691 240 706 239 704 239 666 246 627 253 589 260 569 265 602 259 641 252 679 246 708 243 692 245 654 252 615 259 577 266 568 269 590 265 628 259 667 252 705 245 709 247 680 252 642 258 603 265 567 274 578 272 616 265 655 258 693 251 710 250 706 251 668 258 629 265 591 271 567 278 604 271 643 264 681 258 712 254 694 257 656 264 617 271 579 278 566 282 592 277 631 270 669 264 707 257 714 258 682 263 644 270 605 277 567 284 566 286 580 283 618 277 657 270 695 263 715 262 708 263 670 270 632 276 593 283 567 290 568 290 606 283 645 276 683 269 717 265 696 269 658 276 619 283 581 289 569 294 594 289 633 282 671 276 709 269 719 269 684 275 646 282 607 289 572 297 582 295 620 289 659 282 697 275 721 273 710 275 672 281 634 288 595 295 577 300 608 295 647 288 685 281 725 276 698 281 660 288 622 294 583 301 583 303 596 301 635 294 673 287 711 281 727 278 733 280 "/>
    <path id="Block1Jump2"
        fill="none"
        stroke="#000000"
		stroke-width="2px"
		d="M 653 280 L "/>
    <path id="Block1Jump3"
        fill="none"
        stroke="#000000"
		stroke-width="2px"
		d="M 93 280 L 59 283 24 269 16 258 17 250 25 262 24 268 23 276 59 283 74 283 113 290 137 295 163 285 168 272 169 258 171 244 169 230 164 214 204 220 210 221 171 214 148 210 141 202 161 204 160 189 156 174 152 172 155 172 162 176 150 175 166 180 154 178 149 179 169 185 166 184 148 183 153 184 171 189 147 187 165 190 172 194 152 190 146 191 175 198 164 196 145 195 151 196 178 203 176 202 143 199 163 202 181 207 150 202 141 200 141 202 119 196 107 180 106 176 98 176 101 177 116 182 97 180 113 183 122 187 100 183 99 185 128 192 112 189 99 189 134 197 124 195 101 193 111 195 137 199 141 202 166 211 182 209 175 208 136 201 102 197 123 201 162 208 187 214 149 208 110 201 103 202 135 207 174 214 192 217 210 221 168 227 170 242 169 256 168 270 165 284 146 295 137 295 105 291 66 283 34 277 22 261 16 245 14 235 12 234 4 235 19 240 4 239 11 240 23 244 5 243 23 246 27 249 10 246 6 248 30 254 22 252 8 252 9 252 32 258 9 256 21 258 34 263 11 261 33 264 36 267 20 264 11 265 40 272 32 270 10 268 19 270 47 277 44 277 8 272 31 276 58 281 97 289 105 291 95 304 95 318 97 333 100 347 101 362 100 368 139 376 160 380 151 393 140 395 163 397 133 390 143 391 176 395 156 392 130 385 169 392 187 393 182 392 144 385 128 381 157 386 192 390 170 386 131 379 126 376 145 380 183 386 196 387 158 380 123 374 100 368 55 362 47 375 43 388 50 395 49 395 11 387 24 389 71 395 37 389 8 382 12 383 50 389 82 393 64 390 25 383 7 378 38 383 77 390 87 390 51 383 13 377 6 373 26 377 65 384 88 386 78 384 39 377 5 369 14 371 53 378 88 382 66 378 27 371 4 365 40 371 79 378 90 378 54 372 15 365 4 361 28 365 67 372 94 375 80 372 41 365 3 357 16 359 55 366 93 373 99 372 68 366 29 359 2 352 4 353 43 360 81 366 108 371 100 368 62 356 52 353 12 351 2 350 17 353 56 360 94 367 132 373 171 380 198 383 184 380 146 374 107 367 69 360 30 353 2 346 5 347 44 354 82 360 120 367 159 374 197 381 200 379 172 374 134 367 95 361 57 354 18 347 2 342 31 347 70 354 108 361 147 368 185 375 199 375 198 375 160 368 121 361 83 354 45 348 6 341 2 338 19 341 58 348 96 355 135 362 173 368 199 371 186 369 148 362 109 355 71 348 32 342 1 334 7 335 46 342 84 349 122 355 161 362 199 367 174 362 136 356 97 349 59 342 20 335 1 330 34 336 72 342 110 349 149 356 187 363 196 362 162 356 124 349 85 343 47 336 8 329 1 326 21 329 60 336 98 343 137 350 175 357 195 358 188 357 150 350 111 343 73 336 35 330 0 322 9 323 48 330 86 337 125 344 163 350 194 354 176 351 138 344 99 337 61 330 22 324 1 318 36 324 74 331 112 337 151 344 189 351 193 349 164 344 126 338 87 331 49 324 10 317 1 314 24 318 62 324 100 331 139 338 177 345 191 345 190 345 152 338 113 331 75 325 37 318 1 309 11 311 50 318 88 325 127 332 165 338 191 341 178 339 140 332 101 325 63 318 25 312 0 305 38 312 76 319 115 326 153 332 189 337 166 333 128 326 89 319 51 312 12 305 1 301 26 306 64 313 102 319 141 326 179 333 187 332 154 326 116 320 77 313 39 306 1 297 13 300 52 306 90 313 129 320 167 327 187 328 180 327 142 320 103 313 65 307 27 300 1 293 40 300 78 307 117 314 155 320 187 324 168 321 130 314 91 307 53 300 15 294 2 289 28 294 66 301 104 308 143 314 181 321 188 320 156 315 118 308 79 301 41 294 3 286 16 288 54 295 92 301 131 308 169 315 190 317 182 315 144 308 106 302 67 295 29 288 4 282 42 288 80 295 119 302 157 309 193 313 170 309 132 302 93 295 55 289 17 282 6 278 30 282 68 289 107 296 145 302 183 309 199 310 197 310 158 303 120 296 81 289 43 282 7 274 18 276 56 283 94 289 133 296 171 303 203 309 164 301 137 295 174 301 209 308 184 303 146 297 108 290 69 283 75 282 82 283 121 290 159 297 198 304 216 307 188 296 152 293 165 282 168 268 170 254 169 240 169 225 200 219 212 221 225 225 199 221 161 214 122 207 103 206 109 207 147 214 186 220 224 227 229 230 211 227 173 220 134 213 103 210 121 213 160 220 198 227 231 234 223 233 185 226 146 219 108 213 104 214 133 219 172 226 210 233 232 239 197 232 159 226 120 219 103 218 107 219 145 225 184 232 222 239 235 243 209 239 171 232 132 225 103 222 119 225 157 232 196 238 234 245 236 247 221 245 183 238 144 231 106 224 103 226 131 231 170 238 208 245 236 252 233 251 195 244 156 237 118 231 103 230 105 230 143 237 182 244 220 251 237 256 207 250 169 244 130 237 102 234 117 237 155 243 194 250 232 257 238 260 219 257 181 250 142 243 104 236 102 238 129 243 168 250 206 256 238 264 231 263 193 256 154 249 116 243 101 242 103 242 141 249 180 256 218 263 238 268 205 262 166 255 128 249 99 246 115 248 153 255 192 262 230 269 239 272 217 268 179 262 140 255 102 248 98 250 127 255 165 261 204 268 240 277 229 275 191 268 152 261 114 254 97 253 101 254 139 261 178 268 216 274 240 281 203 274 164 267 126 261 95 257 113 260 151 267 190 274 228 281 241 285 215 280 176 273 138 267 100 260 93 261 125 266 163 273 202 280 240 287 241 289 227 286 189 280 150 273 112 266 92 265 99 266 137 273 175 279 214 286 240 293 239 293 201 286 162 279 124 272 90 268 111 272 149 279 188 286 226 292 238 297 213 292 174 285 136 279 98 272 88 272 123 278 161 285 200 292 235 300 225 298 187 292 148 285 110 278 86 276 97 278 135 284 173 291 212 298 230 303 199 298 160 291 122 284 82 279 109 284 147 291 185 297 224 304 224 306 211 304 172 297 134 290 96 284 80 281 74 283 " />
    <path id="Block2Jump4"
        fill="none"
        stroke="#FEB343"
		stroke-width="2px"
		d="M 394 283 L 403 285 408 312 418 313 428 313 438 313 449 314 459 318 470 320 480 318 489 311 504 338 489 311 480 318 470 320 459 318 449 314 438 313 428 313 418 313 408 312 398 313 388 313 377 313 367 313 357 312 346 309 336 309 327 313 317 315 302 288 309 327 312 346 302 343 315 363 315 362 309 327 302 288 317 315 327 313 336 309 346 309 357 312 367 313 377 313 388 313 398 313 408 312 418 313 428 313 438 313 449 314 459 318 470 320 480 318 489 311 504 338 497 299 495 286 506 294 491 265 491 266 498 306 504 338 476 309 466 299 496 325 502 330 497 357 492 331 484 284 472 272 477 301 485 349 477 361 470 319 453 282 454 289 463 336 454 345 447 307 433 285 440 324 433 342 425 294 413 285 418 312 413 340 411 329 403 285 375 302 398 313 388 313 377 313 367 313 357 312 346 309 336 309 327 313 317 315 300 279 "/>
    <path id="Block2Jump5"
        fill="none"
        stroke="#FEB343"
		stroke-width="2px"
		d="M 325 364 L 322 345 314 298 318 266 321 280 329 327 343 350 336 310 340 274 343 292 352 340 362 342 359 322 362 284 366 305 382 340 381 334 373 287 383 284 388 317 403 341 395 299 393 285 403 285 403 270 360 283 400 278 439 270 482 262 499 251 472 256 464 259 485 255 507 253 498 255 457 264 473 261 512 257 486 261 454 267 415 275 400 278 409 291 407 306 402 321 399 335 405 344 366 352 327 360 338 372 313 375 334 371 343 368 321 372 304 372 308 372 348 363 333 365 300 369 320 366 356 357 345 359 307 366 296 366 332 359 358 355 397 346 405 344 443 340 482 347 488 360 485 375 493 374 500 370 480 374 472 373 507 365 492 368 467 370 479 368 513 360 504 362 465 368 461 367 491 362 517 355 516 355 477 362 457 364 464 362 503 356 519 351 490 356 453 360 476 356 515 349 520 346 502 350 463 357 448 357 450 357 489 350 522 342 514 344 475 350 443 354 462 351 501 344 522 338 487 344 449 351 428 353 436 351 474 344 513 338 521 334 500 338 461 345 423 351 404 353 410 352 448 345 486 338 520 330 512 332 473 339 435 345 396 352 378 353 383 352 422 346 460 339 499 332 518 327 485 332 447 339 409 346 370 353 368 353 405 344 365 347 346 349 308 360 294 364 319 360 357 353 395 346 434 339 472 333 511 326 516 323 498 326 459 333 421 340 382 346 344 353 305 360 291 360 292 360 331 353 369 347 408 340 446 333 484 326 514 319 510 320 471 327 433 333 394 340 356 347 318 354 290 357 304 354 343 347 381 341 420 334 458 327 496 320 510 316 483 320 445 327 407 334 368 341 330 348 291 354 288 353 317 348 355 341 393 334 432 328 470 321 509 314 509 312 495 314 457 321 419 328 380 335 342 341 303 348 287 349 290 348 329 342 367 335 405 328 444 321 482 315 513 307 508 308 469 315 431 322 392 328 354 335 315 342 287 345 302 342 341 335 379 329 418 322 456 315 494 308 518 302 481 309 443 315 404 322 366 329 328 336 289 343 286 341 314 336 353 329 391 323 430 316 468 309 506 302 520 298 493 302 455 309 417 316 378 323 340 330 301 336 286 337 288 337 327 330 365 323 403 316 442 310 480 303 519 296 522 293 505 296 467 303 429 310 390 317 352 323 313 330 286 333 300 330 339 324 377 317 415 310 454 303 492 297 523 289 518 290 479 297 441 304 402 310 364 317 326 324 288 329 312 324 351 317 389 311 428 304 466 297 504 290 524 285 491 291 453 297 414 304 376 311 338 318 299 325 292 324 324 318 363 311 401 304 440 298 478 291 517 284 524 281 503 284 465 291 427 298 388 305 350 312 311 318 296 319 298 319 337 312 375 305 413 298 452 292 490 285 523 277 515 278 477 285 439 292 400 299 362 305 323 312 298 315 310 312 349 306 387 299 426 292 464 285 502 279 523 273 489 279 451 286 412 292 374 299 336 306 298 311 322 306 361 299 399 293 438 286 476 279 514 272 521 269 501 273 463 279 424 286 386 293 348 300 309 307 293 307 296 307 335 300 373 293 411 286 450 280 488 273 519 265 513 266 475 273 437 280 398 287 360 294 321 300 290 304 308 301 347 294 385 287 423 280 462 274 500 267 517 262 487 267 449 274 410 281 372 287 333 294 295 301 289 300 320 294 359 288 397 281 436 274 474 267 512 261 513 258 499 261 461 268 422 274 384 281 346 288 307 295 287 298 326 290 360 283 316 287 286 296 294 295 332 288 371 281 409 275 424 270 396 275 358 282 319 288 284 293 306 289 345 282 383 275 403 270 370 276 331 282 293 289 284 291 304 281 337 279 318 268 311 255 318 252 313 253 297 258 326 253 332 254 301 259 292 263 314 259 339 257 327 259 288 268 302 265 340 258 346 259 315 265 286 272 290 271 328 265 350 263 341 264 303 271 286 276 316 271 356 266 329 270 291 277 284 280 304 277 342 270 360 269 356 270 317 277 284 285 292 283 330 276 377 270 343 276 305 283 285 288 318 283 357 276 390 270 403 270 403 269 " />
    <path id="Block3Jump6"
        fill="none"
        stroke="#FE370F"
		stroke-width="2px"
		d="M 187 164 L "/>
    <path id="Block3Jump7"
        fill="none"
        stroke="#FE370F"
		stroke-width="2px"
		d="M 110 127 L 119 124 119 132 115 128 123 128 119 124 107 107 115 96 99 81 105 66 90 52 98 49 85 38 83 27 90 40 88 28 94 41 93 30 95 41 95 30 104 32 113 30 113 40 109 29 109 39 105 28 105 38 101 27 101 37 97 26 97 36 93 25 93 35 89 24 89 34 85 23 85 33 81 22 81 32 77 21 77 31 75 21 75 31 71 20 71 31 75 21 75 31 101 37 81 36 99 41 81 40 100 45 83 45 102 50 85 50 103 54 85 50 105 59 87 55 106 64 88 60 108 69 90 65 110 74 91 70 111 79 93 75 113 84 94 80 115 89 96 85 117 94 97 90 118 99 99 95 120 104 101 100 122 109 102 105 123 114 104 110 125 119 105 115 127 124 107 120 128 129 108 125 129 131 109 127 127 137 111 133 128 133 110 129 129 131 109 127 119 129 129 131 120 126 130 128 121 123 131 125 122 120 132 122 123 117 133 119 123 114 134 116 124 111 135 113 125 108 136 110 126 105 137 107 127 102 138 104 128 99 139 101 129 96 140 98 130 93 141 95 130 90 142 92 131 87 143 89 132 84 144 86 133 81 145 83 134 78 146 80 135 75 147 77 136 72 148 74 137 69 149 71 137 66 150 68 138 63 151 65 139 60 152 62 140 57 153 59 160 53 160 44 156 53 156 43 152 52 152 43 148 52 148 42 130 34 130 44 134 35 134 45 138 35 138 45 142 36 142 46 146 36 146 47 150 37 150 47 154 37 154 48 158 38 158 48 162 38 162 49 166 39 166 50 168 39 168 50 178 40 178 51 174 40 174 51 170 39 170 50 168 39 168 50 154 51 140 46 168 50 142 50 166 54 141 54 168 58 140 57 169 61 154 69 159 83 165 97 170 111 176 125 182 140 192 141 187 127 182 113 177 99 173 85 168 71 165 64 151 60 146 58 169 61 147 63 171 66 149 68 172 71 151 73 174 76 153 78 176 81 155 83 178 86 157 88 179 90 159 93 181 95 161 98 182 100 163 103 184 105 165 108 186 110 166 113 187 114 168 118 189 119 170 123 191 124 172 128 192 129 174 133 194 134 176 138 196 139 177 140 196 140 179 144 194 144 177 140 196 140 194 119 204 105 202 88 211 74 211 61 219 51 220 42 216 52 216 43 213 53 212 44 204 43 195 51 196 40 200 50 201 39 205 49 206 38 210 49 211 38 215 48 216 37 220 47 221 36 225 46 226 35 227 46 227 35 229 41 230 34 230 45 227 35 227 46 206 50 222 51 209 54 220 56 208 59 219 59 207 61 219 59 206 66 218 64 204 71 216 69 203 76 215 74 201 81 213 79 200 86 212 84 199 91 210 89 197 96 209 94 196 100 208 99 195 105 206 104 193 110 205 109 192 115 203 114 191 120 202 119 189 125 201 124 188 130 199 129 186 135 198 134 185 140 196 139 185 140 196 140 193 140 196 140 194 140 196 140 226 118 219 106 229 88 229 74 243 65 256 55 270 58 280 60 276 77 256 85 240 95 225 93 225 102 228 92 229 100 232 90 233 99 235 89 237 97 238 87 241 95 241 86 245 94 244 85 249 92 248 83 253 90 251 82 257 88 254 81 261 87 257 79 265 85 261 78 269 83 264 76 274 81 268 75 279 79 272 73 283 77 272 73 284 77 282 70 288 75 282 78 288 72 278 77 287 69 274 75 287 67 271 74 287 67 270 71 286 63 270 68 284 59 269 66 282 56 268 65 280 54 267 64 277 52 266 63 274 51 265 62 271 50 262 61 267 50 259 61 263 50 257 62 259 52 254 63 255 54 252 64 252 55 252 64 248 57 249 66 244 59 247 68 241 61 245 69 237 63 242 72 233 66 240 74 230 69 237 77 227 73 236 80 224 76 235 82 221 81 233 85 218 86 232 88 217 90 232 91 216 95 231 94 215 101 231 98 215 105 231 100 215 105 231 103 215 110 232 107 217 115 233 110 218 120 234 113 220 124 235 115 223 128 237 118 227 131 240 120 232 132 243 121 236 133 246 121 241 133 250 121 247 132 253 120 252 129 255 119 255 128 255 119 259 126 259 117 264 123 262 115 269 118 265 112 273 114 267 109 277 110 269 107 280 107 272 104 281 106 272 104 283 96 278 90 288 86 277 95 287 92 276 99 286 97 274 102 284 102 272 104 281 106 278 105 281 106 279 105 281 106 304 103 304 111 300 107 308 107 304 103 320 103 335 97 333 102 321 99 321 91 317 99 317 91 313 100 313 92 312 100 312 92 320 78 312 69 321 55 312 45 320 34 312 23 320 12 321 5 316 14 317 5 312 15 313 6 312 15 312 6 303 10 294 6 294 15 298 5 298 14 302 4 302 13 306 4 306 13 310 3 310 12 314 2 314 11 318 1 318 10 322 0 322 9 324 0 324 9 302 13 324 14 307 16 324 19 307 20 324 21 308 23 324 21 308 28 324 26 308 33 324 31 308 38 324 36 308 43 324 41 308 48 324 46 308 53 324 51 308 58 324 56 308 63 324 61 308 68 324 66 308 73 324 71 308 78 324 76 308 83 324 81 308 87 324 84 308 87 324 89 308 92 325 93 306 96 329 95 303 99 302 106 294 102 294 111 298 101 298 110 302 101 302 110 306 100 306 109 310 99 310 108 314 99 314 108 318 98 318 107 322 98 322 107 326 97 326 106 330 96 330 105 334 96 334 105 338 95 338 104 338 99 338 104 338 101 338 104 352 86 352 94 348 90 356 90 352 86 344 74 353 66 347 51 357 49 363 40 378 45 393 52 403 65 406 78 396 70 402 83 392 75 397 85 394 82 404 88 389 73 407 87 389 68 408 85 392 66 409 81 396 65 409 77 400 68 409 77 401 69 409 77 401 68 408 71 398 64 406 65 394 59 403 61 395 58 400 57 391 55 397 53 390 55 395 51 390 55 393 49 388 54 390 46 386 53 387 43 385 52 384 42 382 51 381 41 380 50 378 39 378 49 374 38 375 48 370 37 372 47 366 36 369 47 362 36 366 47 358 36 364 49 358 36 362 51 354 37 360 53 351 39 359 56 348 42 358 58 346 46 357 59 344 49 357 62 343 53 356 64 342 57 356 66 341 61 356 68 340 65 356 68 341 70 356 72 341 75 357 75 343 79 357 78 344 83 358 81 346 87 359 84 348 91 360 87 350 95 361 90 354 99 363 92 357 102 365 95 361 105 367 97 364 107 369 100 368 109 371 101 372 112 374 103 376 113 377 105 379 114 379 106 379 114 382 107 383 116 386 109 388 118 390 109 393 119 393 108 398 118 396 107 403 116 397 104 407 112 398 101 409 107 399 97 409 103 399 97 409 102 406 101 409 102 405 100 409 102 429 123 429 131 425 127 433 127 429 123 420 107 427 104 419 90 429 88 426 77 439 75 446 70 464 73 471 81 481 82 478 93 488 104 479 115 481 132 471 125 478 135 470 127 475 138 468 130 471 140 466 131 468 142 464 132 464 143 461 133 460 144 458 134 456 143 455 134 454 143 454 134 454 143 451 133 450 142 448 133 445 141 446 132 442 140 443 131 438 138 441 129 435 136 439 127 432 134 437 125 429 131 436 123 426 128 434 120 423 124 433 117 421 120 432 115 420 117 432 113 418 113 432 110 417 109 431 107 416 104 431 104 415 100 427 102 415 95 431 101 415 95 431 101 415 91 431 98 416 87 432 95 417 83 432 92 418 79 433 90 421 76 434 87 423 73 435 85 427 71 436 83 431 69 438 81 435 68 441 79 439 68 444 78 443 68 447 78 447 68 449 78 452 69 453 78 454 69 454 78 454 69 457 78 458 70 460 79 462 70 464 81 466 71 467 83 471 73 470 86 477 75 472 89 482 78 476 86 485 81 474 93 488 86 474 96 490 90 485 103 474 96 490 90 475 100 491 95 475 103 492 100 475 107 492 105 475 110 491 110 474 113 490 114 474 116 489 118 473 119 487 122 473 121 486 126 472 124 483 130 471 125 481 132 478 130 481 132 477 129 481 132 506 130 506 138 502 134 510 134 506 130 519 121 536 120 533 117 521 127 512 119 511 128 517 116 516 126 520 115 520 124 540 120 540 110 536 122 536 112 532 123 532 114 528 125 528 115 524 127 524 117 520 129 520 119 516 130 516 121 512 132 512 123 508 134 508 124 504 135 504 126 500 137 500 128 494 139 494 130 498 138 498 129 500 137 500 128 531 115 506 122 525 114 507 118 525 110 508 114 525 107 508 114 525 103 508 110 525 99 508 106 525 95 508 102 525 91 508 98 525 87 508 94 525 83 508 90 525 82 508 89 521 79 525 67 530 69 523 70 528 72 521 73 527 75 519 76 525 78 517 79 524 80 516 82 523 82 513 80 521 69 521 63 517 71 517 65 513 72 513 66 511 73 511 67 504 66 497 72 493 65 494 74 497 63 498 72 501 62 502 71 505 60 506 69 509 59 510 68 513 57 514 66 517 56 518 65 521 54 522 63 525 53 525 62 500 72 525 67 507 74 525 67 508 74 520 76 508 89 525 82 508 85 525 78 508 81 525 74 508 77 525 70 508 74 525 67 530 65 535 56 541 55 545 46 552 48 559 40 563 47 574 45 567 59 579 47 585 51 576 49 583 54 575 53 581 57 574 57 580 60 572 60 579 62 569 55 569 41 553 42 541 51 533 60 530 69 525 67 532 67 526 64 534 65 528 61 536 62 530 58 537 60 533 55 539 58 535 51 542 56 538 48 544 54 541 46 544 54 545 44 547 52 549 41 550 51 554 39 553 47 558 37 554 50 563 36 557 48 564 36 557 50 564 36 560 49 570 36 562 51 575 38 566 49 577 42 563 56 579 46 563 56 579 47 569 63 576 70 569 80 577 84 568 94 568 103 572 93 572 102 576 91 576 100 577 91 577 100 586 103 596 94 596 104 592 95 592 105 588 96 588 106 584 97 584 107 580 98 580 107 576 99 576 108 572 100 572 109 568 101 568 110 564 102 564 111 560 103 560 112 558 103 558 112 555 107 550 115 550 106 554 113 554 104 558 112 558 103 587 95 563 98 581 93 564 94 581 89 564 90 581 85 564 89 581 85 564 89 581 81 564 85 581 77 564 81 581 73 564 77 581 69 564 73 581 65 564 69 581 61 564 65 581 59 564 63 581 59 564 60 581 55 564 57 581 51 563 56 579 47 589 44 594 35 602 37 610 31 618 40 629 39 624 53 634 62 624 71 635 81 624 87 634 90 634 99 630 90 630 99 626 89 626 99 625 89 625 99 632 87 626 79 634 70 625 58 629 46 622 34 605 32 593 37 586 44 585 51 579 47 587 48 582 44 589 46 584 41 592 43 587 38 595 41 590 35 598 40 593 33 601 39 597 31 602 39 599 30 602 39 603 29 605 39 608 28 608 35 613 28 610 39 618 29 613 40 620 30 614 41 620 30 617 44 626 32 621 43 629 34 619 48 633 39 622 48 635 43 621 52 637 48 627 52 637 52 621 56 637 56 621 56 637 57 621 56 637 62 621 61 637 67 621 66 637 72 621 71 637 77 621 76 637 82 621 81 637 86 621 85 637 86 620 89 637 91 616 93 641 95 613 94 642 96 639 104 626 96 618 101 605 94 605 104 609 94 609 104 613 95 613 105 617 95 617 105 621 95 621 105 625 96 625 105 629 96 629 106 633 96 633 106 637 97 637 106 641 97 641 106 645 98 645 107 649 98 649 107 650 98 650 107 650 101 650 107 650 104 650 107 664 89 657 74 667 60 667 46 680 45 694 45 707 58 718 66 714 81 693 74 678 73 663 63 662 72 666 64 666 73 670 65 670 74 673 65 674 75 677 66 679 76 681 67 684 77 684 68 688 78 687 69 692 79 691 70 697 80 695 71 702 81 699 72 708 83 703 73 713 84 707 74 718 85 709 74 721 86 719 77 725 86 719 85 725 82 715 81 725 79 712 77 725 77 709 74 725 77 708 71 724 73 707 68 722 68 706 65 719 63 705 63 717 60 704 61 715 57 702 59 712 54 701 57 709 50 699 55 706 48 697 53 702 45 695 52 699 44 692 51 694 41 691 49 689 40 689 50 689 40 689 50 685 39 686 50 681 39 683 50 677 39 680 51 673 40 678 52 669 41 675 53 665 43 673 55 662 45 672 57 660 48 671 59 658 51 671 61 656 55 670 64 654 59 669 67 653 63 669 69 653 67 669 72 653 70 669 74 653 70 669 77 653 75 670 81 654 80 671 84 656 85 672 87 657 89 672 89 659 93 674 92 661 97 676 95 665 101 677 97 669 105 680 100 673 108 683 103 677 110 685 104 681 113 689 106 686 114 691 107 690 115 693 107 693 116 693 107 697 117 696 108 702 117 700 108 707 117 704 108 711 116 706 107 715 114 709 106 718 112 710 105 721 104 715 95 725 97 714 98 725 102 714 100 723 106 713 102 721 110 710 105 718 112 715 110 718 112 716 110 718 112 "/>
    <path id="Block3Jump8"
        fill="none"
        stroke="#FE370F"
		stroke-width="2px"
		d="M 653 159 L "/>
    <path id="Block3Jump9"
        fill="none"
        stroke="#FE370F"
		stroke-width="2px"
		d="M 133 535 L 108 550 117 546 117 554 113 550 121 550 117 546 132 550 132 538 136 551 136 540 140 552 140 541 140 526 140 511 140 504 155 508 170 511 179 514 181 529 182 531 181 538 185 532 185 517 185 502 185 492 180 492 182 507 184 522 187 537 188 541 177 540 188 538 177 536 188 534 177 532 188 530 177 528 188 526 177 524 188 522 177 520 188 518 177 516 188 514 177 512 188 510 177 508 188 506 177 504 188 502 177 500 188 498 177 496 188 490 177 488 188 495 177 493 188 498 177 496 177 529 175 504 174 520 171 507 171 518 167 507 167 517 166 507 166 517 166 507 162 516 162 506 158 515 158 505 154 514 154 504 150 513 150 503 146 512 146 502 142 511 142 501 140 510 140 500 140 485 140 470 141 469 141 458 137 467 137 457 133 466 133 455 132 466 132 455 147 458 162 460 177 463 192 466 207 469 215 472 207 479 217 494 212 502 219 509 208 510 219 506 208 506 219 502 208 502 219 498 208 498 219 494 208 494 219 490 208 490 219 486 208 486 219 482 208 482 219 478 208 478 219 474 208 474 219 470 208 470 219 466 208 467 208 496 204 466 206 486 200 466 203 482 196 466 199 478 192 466 195 476 189 465 191 475 186 464 187 474 185 464 185 474 185 464 181 473 181 463 177 472 177 462 173 471 173 461 169 470 169 460 165 469 165 459 161 468 161 458 157 467 157 457 153 466 153 456 149 465 149 455 145 464 145 454 141 463 141 453 137 462 137 453 133 461 133 452 129 460 129 451 125 459 125 450 121 458 121 449 118 457 118 448 114 452 108 445 108 455 112 446 112 456 116 447 116 457 118 448 118 457 146 465 126 462 146 469 127 465 146 473 127 469 146 476 127 473 146 479 127 473 146 483 127 477 146 487 127 481 146 491 127 485 146 495 127 489 146 499 127 493 146 503 127 497 146 507 127 501 146 511 127 505 146 515 127 509 146 519 127 513 146 523 127 517 146 527 127 521 146 531 127 525 146 534 127 529 146 534 127 534 146 539 126 538 146 544 124 542 148 548 118 542 153 552 144 558 126 547 117 549 108 539 108 550 112 540 112 551 116 541 116 552 120 542 120 553 124 543 124 554 128 545 128 555 132 546 132 556 136 547 136 557 140 548 140 558 144 549 144 559 148 550 148 560 152 551 152 561 156 552 156 562 160 553 160 563 164 554 164 564 166 555 166 565 166 562 166 565 166 562 166 565 "/>
    <path id="Block3Jump10"
        fill="none"
        stroke="#FE370F"
		stroke-width="2px"
		d="M 237 563 L 237 571 233 567 241 567 237 563 252 557 252 549 248 558 248 550 244 560 244 552 243 560 243 552 252 535 244 525 253 514 258 500 267 488 276 478 285 476 293 479 279 487 291 477 281 494 292 486 286 495 289 493 278 496 294 487 276 493 295 483 276 489 296 480 278 486 296 476 280 483 294 473 281 481 292 472 282 481 288 471 281 478 284 472 279 481 280 473 274 485 278 475 274 485 278 475 270 489 273 478 268 491 268 483 264 496 262 489 262 501 260 493 260 504 256 497 258 507 254 502 257 510 252 506 256 513 250 511 255 516 248 515 254 519 247 520 254 521 247 523 243 512 252 501 252 495 248 503 248 496 244 505 244 498 243 505 243 498 232 502 225 495 225 504 229 494 229 503 233 493 233 502 237 492 237 501 241 490 241 499 245 489 245 498 249 488 249 497 253 487 253 496 256 486 256 495 233 502 256 500 238 505 254 502 240 509 256 503 240 509 256 503 240 514 256 508 240 519 256 513 240 524 256 518 240 529 256 523 240 534 256 528 240 539 256 533 240 544 256 538 240 549 256 543 240 550 256 544 240 550 257 548 239 555 260 550 236 559 261 550 234 559 244 564 257 554 272 553 270 549 255 560 234 566 225 561 225 571 229 559 229 569 233 558 233 568 237 556 237 566 241 555 241 565 245 553 245 563 249 552 249 562 253 550 253 560 257 549 257 559 261 547 261 557 265 546 265 556 269 544 269 554 273 543 273 553 273 547 273 553 273 549 273 553 309 529 309 537 305 533 313 533 309 529 318 526 318 518 322 525 322 517 326 525 326 516 326 501 327 486 327 471 328 462 324 468 319 463 316 467 302 467 318 435 315 435 316 435 315 435 317 439 320 428 323 440 328 428 331 434 331 431 328 441 327 425 325 444 324 425 322 445 322 425 318 445 318 427 315 443 314 431 313 439 313 435 312 438 312 435 313 438 310 463 310 465 308 463 308 465 310 463 302 462 302 470 306 461 306 469 310 460 310 468 314 459 314 467 318 457 318 465 322 456 322 464 326 455 326 463 330 454 330 462 308 467 330 467 313 470 330 471 315 474 330 475 316 477 330 475 316 478 330 475 316 483 330 480 316 488 330 485 316 493 330 490 316 498 330 495 316 503 330 500 316 508 330 505 316 511 330 508 316 511 330 513 316 516 331 517 315 521 334 520 312 525 334 520 311 525 322 529 338 522 338 527 323 523 311 531 302 528 302 537 306 527 306 536 310 526 310 535 314 526 314 535 318 525 318 534 322 524 322 533 326 523 326 532 330 523 330 532 334 522 334 531 338 521 338 530 342 520 342 529 344 520 344 529 344 525 344 529 344 526 344 529 358 510 351 495 361 481 361 467 375 468 388 472 402 490 412 502 408 515 388 501 372 496 357 484 356 493 360 485 360 495 364 487 364 497 367 489 369 500 371 491 374 502 375 493 379 505 379 495 384 507 383 497 389 510 387 499 394 512 392 501 401 516 397 504 407 519 403 507 415 523 404 507 416 523 413 514 420 525 414 522 420 521 410 516 419 517 406 510 419 515 403 506 419 515 402 502 417 509 407 502 415 504 401 497 412 498 399 493 410 494 398 490 408 489 396 488 405 486 395 486 402 483 393 484 400 480 392 483 398 478 390 481 395 475 389 479 393 473 387 478 389 470 385 476 384 467 384 476 384 467 384 476 380 465 381 475 376 464 378 474 372 463 376 473 368 463 373 473 364 463 370 474 360 464 368 476 357 466 367 478 354 469 366 480 352 472 365 482 350 476 364 484 348 480 364 487 348 484 364 490 347 488 363 492 347 492 363 495 347 492 363 499 347 497 364 502 348 502 365 505 350 506 366 508 351 510 367 511 353 514 368 513 355 518 370 517 359 522 371 520 362 526 373 522 365 529 375 525 369 532 377 527 372 535 380 530 376 538 382 531 380 540 385 534 384 543 387 535 387 544 387 535 392 546 390 537 398 549 394 538 402 550 397 539 406 550 400 539 410 549 403 538 412 549 404 538 415 541 409 530 420 535 408 533 419 539 411 536 418 543 406 536 416 547 404 538 412 549 409 545 412 549 410 546 412 549 438 563 438 571 434 567 442 567 438 563 452 557 452 564 448 557 448 564 444 556 444 563 442 556 442 563 450 568 458 564 468 570 468 560 464 570 464 560 460 569 460 560 456 569 456 559 452 569 452 559 448 568 448 559 444 568 444 559 440 568 440 558 436 567 436 558 433 567 433 558 426 565 426 556 430 566 430 557 433 567 433 558 462 561 438 555 456 557 438 551 456 553 438 548 456 550 442 539 451 532 444 515 455 509 460 514 452 511 458 517 450 515 457 520 449 519 455 523 447 523 454 525 446 525 454 526 443 515 452 511 452 503 448 511 448 503 444 510 444 502 443 510 443 502 433 500 426 490 426 499 430 491 430 500 434 492 434 501 438 492 438 501 442 493 442 502 446 494 446 503 450 495 450 504 454 496 454 505 455 496 455 505 432 501 449 506 434 503 455 509 437 506 455 509 438 507 451 517 444 529 450 539 438 548 456 549 438 544 456 545 438 540 456 541 438 536 456 537 438 532 456 533 438 528 455 529 438 524 455 525 438 520 455 521 438 516 455 517 438 512 455 513 438 508 455 509 438 507 455 509 464 508 470 497 481 499 492 490 494 504 507 502 495 517 507 523 496 540 506 541 506 549 502 543 502 551 498 546 498 553 496 547 496 554 507 533 495 529 507 510 500 504 501 492 482 492 471 500 462 507 455 509 460 514 458 506 462 511 460 503 464 509 463 500 467 508 466 498 470 506 470 497 473 505 471 496 474 504 471 496 474 501 474 494 478 503 478 492 481 501 483 490 485 501 489 488 486 501 491 487 486 501 496 487 489 502 502 489 494 501 506 492 492 507 509 497 495 508 509 501 493 512 509 504 493 513 509 504 493 518 509 509 493 523 509 514 493 528 509 519 493 533 509 524 493 538 509 529 493 543 509 534 493 544 509 535 493 544 509 539 493 549 512 542 490 554 514 541 488 555 487 562 480 557 480 566 484 555 484 564 488 553 488 562 492 551 492 560 496 549 496 558 500 547 500 556 504 545 504 554 508 543 508 552 512 541 512 550 516 539 516 548 520 537 520 546 522 536 522 545 522 539 522 545 522 541 522 545 539 519 539 527 535 523 543 523 539 519 530 513 538 500 531 488 543 475 546 465 561 461 572 458 582 466 586 476 591 480 584 492 593 492 584 489 593 488 584 486 592 485 584 484 591 482 583 481 590 478 582 478 589 474 582 475 588 471 580 473 586 468 580 471 584 465 578 469 582 462 576 467 580 460 573 465 577 458 571 463 574 456 568 462 570 455 565 462 566 454 562 463 562 454 562 463 558 455 560 464 555 457 558 464 552 458 556 466 548 460 553 468 545 463 551 470 541 465 549 472 539 469 547 475 536 472 547 477 534 476 545 480 532 480 545 482 530 484 544 484 529 488 544 487 528 493 543 490 527 498 543 493 526 503 543 496 526 505 543 497 526 505 543 500 526 510 543 504 527 515 543 506 528 519 544 509 530 523 545 511 533 526 546 513 536 529 548 516 540 531 551 518 545 531 554 520 550 532 558 521 555 531 561 521 560 530 563 521 563 530 563 521 567 529 566 520 571 527 569 519 575 526 572 518 579 523 575 515 582 521 577 513 585 517 579 510 587 514 580 508 590 511 581 506 591 507 582 503 592 503 583 500 593 499 583 497 593 495 584 494 593 492 584 492 593 492 589 478 598 470 588 457 595 443 588 435 588 429 592 436 592 429 596 436 596 429 588 426 580 430 569 424 569 433 573 424 573 433 577 424 577 433 581 424 581 433 585 424 585 433 589 424 589 433 593 424 593 433 597 424 597 433 600 424 600 433 580 432 600 438 584 436 600 443 584 441 600 443 584 442 600 443 584 447 600 448 584 452 600 453 584 457 600 458 584 462 600 463 584 467 600 468 584 472 600 473 584 477 600 478 584 482 600 483 584 487 600 488 584 492 600 493 584 497 600 498 584 502 600 503 584 507 600 508 584 511 600 512 587 514 587 522 591 514 591 522 595 514 595 523 597 514 597 523 611 527 611 522 595 524 584 511 600 512 584 515 602 517 586 516 605 519 584 517 605 519 594 524 584 517 584 526 588 517 588 526 592 518 592 527 596 518 596 527 600 519 600 528 604 519 604 528 608 519 608 528 612 520 612 529 613 520 613 529 613 527 613 529 613 528 613 529 623 520 623 528 619 524 627 524 623 520 627 507 622 506 627 518 622 523 627 533 619 531 628 529 619 527 629 526 619 523 630 522 619 519 631 519 619 516 628 518 619 512 628 514 619 508 627 510 619 504 627 506 619 501 627 502 627 512 631 517 629 522 639 526 647 535 658 536 669 541 672 535 682 533 675 524 680 515 665 513 660 500 645 505 641 491 627 492 630 483 622 474 633 471 636 463 647 469 659 472 667 482 676 489 680 499 676 498 680 486 675 472 683 474 674 476 683 479 673 480 683 483 671 484 683 487 671 485 683 488 672 485 683 492 673 490 683 497 673 495 683 502 674 500 683 503 674 501 682 503 673 498 681 499 672 495 680 495 671 492 678 491 670 490 676 488 668 488 674 485 665 485 672 481 663 483 670 478 661 481 668 476 660 480 666 474 657 478 663 471 655 476 660 469 653 476 657 467 651 474 654 466 649 473 651 465 647 473 648 464 645 472 645 463 645 472 640 462 642 472 635 461 639 472 630 461 635 470 627 463 635 473 623 466 633 476 620 471 628 475 620 472 632 478 620 472 629 479 619 476 633 483 619 481 630 484 620 486 634 485 623 491 640 488 627 496 638 491 631 499 644 490 636 502 647 492 640 504 648 492 642 505 648 492 645 506 652 494 649 508 656 495 652 509 660 497 655 510 664 499 658 512 668 501 661 514 672 504 664 515 676 507 667 518 680 510 670 521 683 514 670 522 684 516 670 522 686 522 676 523 686 527 672 526 686 533 673 529 684 537 671 530 680 541 673 533 679 541 670 531 670 539 649 535 634 524 623 510 627 502 620 501 628 506 621 506 629 509 622 510 630 512 623 514 632 515 625 518 634 518 627 522 637 521 631 526 639 523 634 529 641 525 637 532 644 527 641 535 654 537 644 527 641 535 647 530 646 537 650 531 651 539 654 532 656 541 658 533 662 543 661 533 666 544 664 533 670 544 667 532 675 543 670 531 679 541 "/>
    <path id="Block3Jump11"
        fill="none"
        stroke="#FE370F"
		stroke-width="2px"
		d="M 399 256 L 403 263 " />
</svg>
