<?xml version="1.0" encoding="UTF-8" standalone="no"?>
<svg xmlns="http://www.w3.org/2000/svg" version="1.1" width="829" height="919">
    <path id="Block1Jump0"
        fill="none"
        stroke="#D15C00"
		stroke-width="2px"
		d="M 384 241 L 387 242 384 241 395 243 406 245 413 251 403 254 394 254 391 254 394 254 "/>
    <path id="Block1Jump1"
        fill="none"
        stroke="#D15C00"
		stroke-width="2px"
		d="M 394 352 L 394 352 393 355 394 352 391 368 388 384 384 396 380 407 368 398 356 389 345 381 339 364 348 355 331 364 322 369 333 369 322 369 331 364 348 355 339 364 345 381 357 390 368 398 380 407 380 407 374 407 377 401 374 407 380 407 391 407 404 402 417 398 428 388 438 378 438 366 446 369 452 381 446 378 452 381 446 369 447 372 446 369 "/>
    <path id="Block1Jump2"
        fill="none"
        stroke="#D15C00"
		stroke-width="2px"
		d="M 487 291 L 487 291 488 288 487 291 493 281 498 271 500 261 501 251 511 267 521 283 521 268 521 254 517 240 513 228 517 240 516 237 517 240 "/>
    <path id="Block1Jump3"
        fill="none"
        stroke="#D15C00"
		stroke-width="2px"
		d="M 530 236 L 530 236 532 238 530 236 539 247 547 257 556 268 569 271 582 274 591 269 600 265 585 260 571 256 589 251 597 234 578 236 559 238 578 236 597 234 589 251 571 256 586 261 600 265 591 270 582 274 569 271 556 268 547 257 538 246 530 236 532 238 530 236 "/>
    <path id="Block1Jump4"
        fill="none"
        stroke="#D15C00"
		stroke-width="2px"
		d="M 464 207 L 464 207 464 204 464 207 464 190 455 202 440 196 443 197 440 196 "/>
    <path id="Block1Jump5"
        fill="none"
        stroke="#D15C00"
		stroke-width="2px"
		d="M 354 190 L 354 190 351 192 354 190 339 199 331 199 328 210 329 207 328 210 "/>
    <path id="Block1Jump6"
        fill="none"
        stroke="#D15C00"
		stroke-width="2px"
		d="M 296 242 L 296 242 293 243 296 242 278 248 275 258 273 265 273 245 276 235 278 225 275 235 273 245 273 265 275 258 274 261 275 258 "/>
    <path id="Block1Jump7"
        fill="none"
        stroke="#D15C00"
		stroke-width="2px"
		d="M 290 262 L 290 262 290 265 290 262 288 278 287 288 288 278 288 281 288 278 "/>
    <path id="Block1Jump8"
        fill="none"
        stroke="#D15C00"
		stroke-width="2px"
		d="M 255 274 L 255 274 252 275 255 274 239 277 224 280 213 283 203 285 215 294 226 303 206 303 194 307 183 311 171 317 187 318 202 319 218 320 215 332 200 334 186 335 171 339 157 343 166 357 164 371 162 384 151 375 140 366 131 355 141 347 143 346 145 340 143 346 141 347 143 346 141 347 "/>
    <path id="Block1Jump9"
        fill="none"
        stroke="#D15C00"
		stroke-width="2px"
		d="M 139 344 L 139 344 136 345 139 344 122 352 127 342 131 332 137 317 131 332 126 342 122 352 123 349 122 352 "/>
    <path id="Block1Jump10"
        fill="none"
        stroke="#D15C00"
		stroke-width="2px"
		d="M 116 352 L 116 352 116 355 116 352 116 339 116 326 109 342 102 358 102 340 102 323 120 314 137 306 123 313 110 319 96 326 96 306 108 297 108 297 106 299 108 297 "/>
    <path id="Block1Jump11"
        fill="none"
        stroke="#D15C00"
		stroke-width="2px"
		d="M 105 291 L 105 291 108 290 105 291 117 285 128 280 116 286 105 291 92 297 79 303 86 290 93 277 93 277 93 277 107 272 120 267 134 262 120 267 107 272 93 277 76 280 86 271 96 262 94 264 96 262 "/>
    <path id="Block1Jump12"
        fill="none"
        stroke="#D15C00"
		stroke-width="2px"
		d="M 102 262 L 102 262 105 260 102 262 118 252 135 243 151 233 135 243 118 252 102 262 109 252 116 242 102 242 111 235 119 228 131 223 143 219 143 219 140 220 143 219 "/>
    <path id="Block1Jump13"
        fill="none"
        stroke="#D15C00"
		stroke-width="2px"
		d="M 140 210 L 140 210 137 210 140 210 122 210 137 207 151 205 166 202 182 208 197 213 184 203 171 193 187 199 202 205 218 211 231 226 240 237 249 247 240 236 231 226 218 211 202 205 187 199 171 193 184 203 197 213 195 211 197 213 "/>
    <path id="Block1Jump14"
        fill="none"
        stroke="#D15C00"
		stroke-width="2px"
		d="M 185 258 L 185 258 182 257 185 258 182 257 172 262 162 266 159 282 176 274 188 272 176 280 162 290 176 280 188 272 176 274 159 282 162 266 172 261 182 257 185 258 197 261 192 277 184 295 185 292 184 295 "/>
    <path id="Block1Jump15"
        fill="none"
        stroke="#D15C00"
		stroke-width="2px"
		d="M 197 345 L 197 345 200 344 197 345 207 342 197 345 184 348 174 364 171 367 181 363 190 360 202 361 205 361 202 361 202 361 203 360 202 361 194 373 194 380 200 383 200 383 197 382 200 383 "/>
    <path id="Block1Jump16"
        fill="none"
        stroke="#D15C00"
		stroke-width="2px"
		d="M 202 385 L 202 385 204 383 202 385 210 374 222 365 233 357 221 366 210 374 202 385 198 390 192 409 196 419 200 429 207 418 214 408 219 399 224 390 224 383 233 378 242 374 242 374 239 375 242 374 "/>
    <path id="Block1Jump17"
        fill="none"
        stroke="#D15C00"
		stroke-width="2px"
		d="M 253 383 L 253 383 251 385 253 383 250 386 253 383 260 374 274 371 279 370 274 371 277 370 274 371 "/>
    <path id="Block1Jump18"
        fill="none"
        stroke="#D15C00"
		stroke-width="2px"
		d="M 278 389 L 278 389 276 391 278 389 263 400 249 410 238 424 227 438 222 425 217 413 219 401 221 390 219 402 217 413 222 426 227 438 238 424 249 410 264 399 278 389 269 403 260 416 254 434 249 452 254 443 259 434 254 443 249 452 255 434 260 416 269 402 278 389 276 391 278 389 "/>
    <path id="Block1Jump19"
        fill="none"
        stroke="#D15C00"
		stroke-width="2px"
		d="M 441 438 L 441 438 444 437 441 438 452 433 463 429 478 434 493 438 478 433 463 429 452 434 441 438 446 431 448 419 446 431 441 438 443 436 441 438 "/>
    <path id="Block1Jump20"
        fill="none"
        stroke="#D15C00"
		stroke-width="2px"
		d="M 441 439 L 441 439 438 440 441 439 424 447 408 452 395 460 385 458 375 457 363 453 352 449 350 440 347 426 349 416 347 426 350 440 349 437 350 440 "/>
    <path id="Block1Jump21"
        fill="none"
        stroke="#D15C00"
		stroke-width="2px"
		d="M 347 441 L 347 441 345 439 347 441 336 425 319 421 302 418 290 419 278 419 268 429 259 438 249 449 240 460 235 474 230 487 231 498 231 509 236 500 240 491 239 510 239 513 239 510 239 510 254 504 239 510 226 515 214 522 202 528 191 541 181 554 179 572 179 572 179 569 179 572 "/>
    <path id="Block1Jump22"
        fill="none"
        stroke="#D15C00"
		stroke-width="2px"
		d="M 181 574 L 181 574 179 576 181 574 172 582 164 590 163 601 164 590 173 582 181 574 184 570 198 557 212 545 224 538 236 532 248 525 236 532 224 538 212 545 198 557 200 555 198 557 "/>
    <path id="Block1Jump23"
        fill="none"
        stroke="#D15C00"
		stroke-width="2px"
		d="M 209 569 L 209 569 207 571 209 569 196 584 190 595 184 605 180 611 184 605 182 607 184 605 "/>
    <path id="Block1Jump24"
        fill="none"
        stroke="#D15C00"
		stroke-width="2px"
		d="M 199 615 L 199 615 197 618 199 615 193 625 199 615 201 612 210 600 208 602 210 600 "/>
    <path id="Block1Jump25"
        fill="none"
        stroke="#D15C00"
		stroke-width="2px"
		d="M 310 526 L 310 526 310 523 310 526 311 512 312 498 313 484 311 504 310 523 310 523 312 522 326 517 341 512 355 507 341 512 326 517 312 522 310 523 301 530 293 536 283 549 274 561 263 574 253 587 247 600 241 613 235 626 230 643 238 632 238 644 238 655 243 668 247 655 251 642 251 641 251 642 "/>
    <path id="Block1Jump26"
        fill="none"
        stroke="#D15C00"
		stroke-width="2px"
		d="M 273 648 L 273 648 274 645 273 648 281 635 288 622 297 612 306 603 297 613 288 622 290 620 288 622 "/>
    <path id="Block1Jump27"
        fill="none"
        stroke="#D15C00"
		stroke-width="2px"
		d="M 273 612 L 273 612 275 609 273 612 280 601 273 612 268 620 270 601 263 603 273 591 273 584 287 580 300 571 313 562 300 571 287 580 273 584 273 591 263 603 270 601 268 620 268 617 268 620 "/>
    <path id="Block1Jump28"
        fill="none"
        stroke="#D15C00"
		stroke-width="2px"
		d="M 242 672 L 242 672 239 670 242 672 237 669 247 674 242 672 249 675 259 691 268 706 258 690 249 675 247 674 249 675 247 674 "/>
    <path id="Block1Jump29"
        fill="none"
        stroke="#D15C00"
		stroke-width="2px"
		d="M 246 676 L 246 676 243 676 246 676 233 676 225 667 218 658 211 643 204 629 196 621 188 613 173 604 159 596 145 593 131 591 139 598 147 604 150 607 161 614 171 621 160 614 150 607 147 604 149 606 147 604 "/>
    <path id="Block1Jump30"
        fill="none"
        stroke="#D15C00"
		stroke-width="2px"
		d="M 145 606 L 145 606 142 605 145 606 130 599 116 593 96 595 77 596 91 603 76 605 61 606 80 612 61 613 42 613 56 623 42 628 28 632 16 647 4 662 0 681 10 676 20 671 14 682 9 693 8 707 7 720 11 735 15 749 3 760 16 759 17 770 17 781 29 781 41 781 51 784 61 787 46 793 32 798 50 799 69 801 87 802 102 807 117 812 129 815 115 815 102 815 92 813 82 811 68 814 54 817 69 821 84 825 96 831 108 837 123 839 124 839 137 837 149 835 158 841 166 847 157 841 149 835 136 837 124 839 127 839 124 839 "/>
    <path id="Block1Jump31"
        fill="none"
        stroke="#D15C00"
		stroke-width="2px"
		d="M 124 841 L 124 841 126 843 124 841 136 855 148 869 158 878 168 887 178 896 195 900 213 904 230 908 245 903 259 899 268 886 276 873 278 859 280 845 282 831 275 817 269 803 262 789 256 775 246 763 237 751 227 739 217 727 207 716 197 704 181 697 164 691 148 684 134 684 121 684 107 684 92 691 78 698 63 705 49 711 43 726 38 741 47 730 56 720 56 731 56 741 58 756 59 770 57 755 56 741 56 730 56 720 47 731 38 741 44 726 49 711 63 705 60 706 63 705 "/>
    <path id="Block1Jump32"
        fill="none"
        stroke="#D15C00"
		stroke-width="2px"
		d="M 67 714 L 67 714 67 717 67 714 69 731 70 748 72 765 72 762 72 765 "/>
    <path id="Block1Jump33"
        fill="none"
        stroke="#D15C00"
		stroke-width="2px"
		d="M 85 765 L 85 765 85 762 85 765 86 747 86 728 87 710 86 728 86 747 85 765 86 749 86 733 87 718 87 702 87 710 87 707 87 710 "/>
    <path id="Block1Jump34"
        fill="none"
        stroke="#D15C00"
		stroke-width="2px"
		d="M 96 710 L 96 710 96 713 96 710 96 722 96 734 100 751 104 768 100 751 96 734 96 722 96 710 102 701 107 692 107 692 105 695 107 692 "/>
    <path id="Block1Jump35"
        fill="none"
        stroke="#D15C00"
		stroke-width="2px"
		d="M 119 692 L 119 692 119 689 119 692 119 688 119 692 120 711 120 730 121 743 123 757 124 770 124 770 124 767 124 770 "/>
    <path id="Block1Jump36"
        fill="none"
        stroke="#D15C00"
		stroke-width="2px"
		d="M 140 769 L 140 769 140 772 140 769 138 752 137 736 143 721 149 707 151 705 158 695 151 705 153 703 151 705 "/>
    <path id="Block1Jump37"
        fill="none"
        stroke="#D15C00"
		stroke-width="2px"
		d="M 163 714 L 163 714 162 717 163 714 160 729 158 744 155 759 158 744 160 729 163 714 178 701 176 703 178 701 "/>
    <path id="Block1Jump38"
        fill="none"
        stroke="#D15C00"
		stroke-width="2px"
		d="M 193 708 L 193 708 194 705 193 708 195 704 193 708 187 720 181 732 175 744 173 759 172 774 170 791 169 808 171 791 172 774 172 777 172 774 "/>
    <path id="Block1Jump39"
        fill="none"
        stroke="#D15C00"
		stroke-width="2px"
		d="M 187 775 L 187 775 188 772 187 775 192 758 197 741 208 728 197 741 192 758 187 775 188 787 189 801 189 816 190 830 189 816 189 801 188 787 188 790 188 787 "/>
    <path id="Block1Jump40"
        fill="none"
        stroke="#D15C00"
		stroke-width="2px"
		d="M 205 786 L 205 786 206 783 205 786 214 770 219 758 224 746 219 758 214 770 205 786 206 801 207 816 208 831 208 828 208 831 "/>
    <path id="Block1Jump41"
        fill="none"
        stroke="#D15C00"
		stroke-width="2px"
		d="M 228 837 L 228 837 227 840 228 837 227 840 228 837 233 822 237 807 239 792 240 778 242 763 240 778 239 792 237 807 237 804 237 807 "/>
    <path id="Block1Jump42"
        fill="none"
        stroke="#D15C00"
		stroke-width="2px"
		d="M 252 811 L 252 811 253 808 252 811 253 808 255 795 257 783 255 796 253 808 252 811 249 826 246 839 243 851 246 838 249 826 248 829 249 826 "/>
    <path id="Block1Jump43"
        fill="none"
        stroke="#D15C00"
		stroke-width="2px"
		d="M 265 830 L 265 830 266 827 265 830 268 819 271 808 268 819 265 830 263 844 262 857 262 857 262 854 262 857 "/>
    <path id="Block1Jump44"
        fill="none"
        stroke="#D15C00"
		stroke-width="2px"
		d="M 295 874 L 295 874 294 877 295 874 289 885 284 895 265 900 246 905 265 900 284 895 290 884 295 874 301 863 307 849 312 835 318 821 320 836 321 851 323 866 326 852 330 838 333 824 332 807 331 791 333 808 336 824 338 841 341 854 343 866 346 851 348 835 351 820 347 802 344 785 351 797 357 809 361 796 365 783 365 779 366 762 366 746 362 731 358 717 354 702 343 693 332 685 321 676 303 673 285 671 271 671 257 671 271 671 285 671 303 674 321 676 332 685 343 693 354 702 358 717 362 731 366 746 365 763 365 779 365 779 379 778 392 778 403 770 413 761 424 753 415 766 405 779 396 792 408 786 419 781 427 770 435 759 427 773 419 786 433 779 447 772 457 762 466 753 460 767 454 781 473 778 489 770 493 759 506 744 509 741 506 744 493 759 489 770 490 767 489 770 "/>
    <path id="Block1Jump45"
        fill="none"
        stroke="#D15C00"
		stroke-width="2px"
		d="M 494 775 L 494 775 496 773 494 775 505 763 494 775 487 782 483 800 479 818 476 830 474 841 484 836 493 831 495 847 496 863 503 857 505 867 506 877 509 872 517 888 524 903 528 893 541 906 554 919 551 903 567 910 583 916 577 909 592 908 607 907 622 906 621 902 638 900 654 898 640 899 626 899 611 894 596 889 590 877 584 866 587 848 590 830 596 815 602 801 616 790 629 779 617 786 606 792 618 781 630 770 642 759 642 759 640 761 642 759 "/>
    <path id="Block1Jump46"
        fill="none"
        stroke="#D15C00"
		stroke-width="2px"
		d="M 674 746 L 674 746 676 744 674 746 686 733 697 721 711 717 725 714 740 718 754 721 741 728 756 727 772 726 787 725 794 733 801 741 804 760 806 778 813 762 819 746 818 731 817 716 816 701 807 687 818 696 829 705 825 690 822 675 809 660 797 646 784 632 782 649 772 637 758 631 744 625 731 625 742 632 752 639 766 651 749 645 733 640 716 636 699 633 683 638 667 642 654 647 641 652 636 662 637 659 636 662 "/>
    <path id="Block1Jump47"
        fill="none"
        stroke="#D15C00"
		stroke-width="2px"
		d="M 626 678 L 626 678 623 679 626 678 611 684 595 691 580 697 570 714 560 730 560 743 560 756 569 741 577 725 586 710 586 721 598 707 610 694 610 694 598 708 586 721 586 710 577 725 569 741 560 756 560 743 560 730 570 713 580 697 595 691 611 684 626 678 623 679 626 678 "/>
    <path id="Block1Jump48"
        fill="none"
        stroke="#D15C00"
		stroke-width="2px"
		d="M 636 671 L 636 671 635 668 636 671 628 653 614 646 600 639 584 641 571 643 552 651 534 658 523 665 513 672 501 684 488 696 476 708 488 696 501 684 513 672 524 665 534 658 553 650 571 643 584 641 581 641 584 641 "/>
    <path id="Block1Jump49"
        fill="none"
        stroke="#D15C00"
		stroke-width="2px"
		d="M 583 633 L 583 633 580 632 583 633 567 627 553 636 538 644 524 653 527 651 524 653 "/>
    <path id="Block1Jump50"
        fill="none"
        stroke="#D15C00"
		stroke-width="2px"
		d="M 479 634 L 479 634 478 631 479 634 475 621 471 608 467 595 469 581 464 596 460 612 455 627 451 642 453 627 455 612 457 597 459 582 453 569 446 555 440 542 432 532 424 523 432 533 440 542 446 555 453 569 459 582 457 597 455 612 453 627 451 642 456 627 460 611 465 596 469 581 467 595 471 608 475 621 479 634 471 650 463 666 456 681 448 697 449 694 448 697 "/>
    <path id="Block1Jump51"
        fill="none"
        stroke="#D15C00"
		stroke-width="2px"
		d="M 651 899 L 651 899 654 898 651 899 665 891 677 881 689 872 698 858 706 848 713 839 722 830 731 821 741 813 750 806 766 798 781 791 786 779 791 767 796 754 800 741 795 754 791 767 786 779 781 791 765 799 750 806 740 814 731 821 722 830 713 839 705 849 698 858 689 872 689 872 690 872 689 872 674 876 660 879 642 876 625 873 625 873 628 874 625 873 "/>
    <path id="Block1Jump52"
        fill="none"
        stroke="#D15C00"
		stroke-width="2px"
		d="M 626 856 L 626 856 629 855 626 856 635 854 652 853 668 853 674 852 689 849 704 846 689 849 674 852 677 851 674 852 "/>
    <path id="Block1Jump53"
        fill="none"
        stroke="#D15C00"
		stroke-width="2px"
		d="M 671 839 L 671 839 674 838 671 839 686 833 701 828 715 825 728 823 725 824 728 823 "/>
    <path id="Block1Jump54"
        fill="none"
        stroke="#D15C00"
		stroke-width="2px"
		d="M 728 811 L 728 811 731 811 728 811 744 811 728 811 716 811 704 811 693 813 681 815 670 817 658 822 647 827 659 822 670 817 682 815 693 813 690 814 693 813 "/>
    <path id="Block1Jump55"
        fill="none"
        stroke="#D15C00"
		stroke-width="2px"
		d="M 691 800 L 691 800 694 799 691 800 711 796 730 792 741 791 752 790 771 794 752 790 755 791 752 790 "/>
    <path id="Block1Jump56"
        fill="none"
        stroke="#D15C00"
		stroke-width="2px"
		d="M 754 777 L 754 777 751 777 754 777 742 775 731 774 718 776 706 778 719 776 731 774 743 776 754 777 758 778 773 776 788 774 788 774 782 765 777 756 763 755 749 755 738 755 728 755 714 759 700 763 714 759 728 755 739 755 749 755 763 756 777 756 774 756 777 756 "/>
    <path id="Block1Jump57"
        fill="none"
        stroke="#D15C00"
		stroke-width="2px"
		d="M 781 748 L 781 748 784 749 781 748 796 755 781 748 778 746 764 745 750 743 736 742 716 742 716 742 719 742 716 742 "/>
    <path id="Block1Jump58"
        fill="none"
        stroke="#D15C00"
		stroke-width="2px"
		d="M 571 642 L 571 642 572 639 571 642 576 632 583 617 577 608 571 600 571 588 571 577 573 566 571 577 571 589 571 600 577 609 583 617 576 632 577 629 576 632 "/>
    <path id="Block1Jump59"
        fill="none"
        stroke="#D15C00"
		stroke-width="2px"
		d="M 577 632 L 577 632 580 632 577 632 590 630 602 629 609 618 615 607 617 594 618 581 625 596 628 614 632 603 635 592 635 575 635 559 639 569 643 579 654 595 653 580 652 565 651 558 646 544 642 530 647 544 651 558 652 565 652 562 652 565 "/>
    <path id="Block1Jump60"
        fill="none"
        stroke="#D15C00"
		stroke-width="2px"
		d="M 654 565 L 654 565 655 562 654 565 660 546 651 528 642 511 654 525 665 538 674 548 670 533 686 545 679 533 671 522 664 510 656 503 649 496 639 493 629 491 639 494 649 496 646 495 649 496 "/>
    <path id="Block1Jump61"
        fill="none"
        stroke="#D15C00"
		stroke-width="2px"
		d="M 652 491 L 652 491 655 492 652 491 668 495 683 498 667 494 652 491 643 475 635 459 628 449 621 440 610 433 600 426 588 423 577 420 566 422 556 423 541 432 530 442 518 457 506 462 503 463 490 465 476 463 465 460 452 463 445 469 443 483 445 497 458 510 469 513 479 515 496 510 500 503 496 515 493 526 494 537 495 548 502 561 511 567 520 573 535 574 550 575 565 571 580 568 589 557 597 546 600 533 603 520 606 501 613 497 606 501 603 520 600 533 597 546 588 557 580 568 565 572 550 575 535 574 520 573 511 567 502 561 495 548 494 537 493 526 497 514 500 503 496 510 479 515 468 512 458 510 445 497 443 483 445 469 452 463 465 460 476 463 490 465 503 463 506 462 503 463 506 462 "/>
    <path id="Block1Jump62"
        fill="none"
        stroke="#D15C00"
		stroke-width="2px"
		d="M 511 475 L 511 475 511 478 511 475 511 488 511 475 519 472 524 471 519 472 511 475 514 474 511 475 "/>
    <path id="Block1Jump63"
        fill="none"
        stroke="#D15C00"
		stroke-width="2px"
		d="M 494 437 L 494 437 492 435 494 437 484 428 474 419 491 424 508 428 511 415 513 402 522 413 530 423 545 431 538 416 531 401 524 386 525 387 539 396 552 406 566 415 566 415 552 406 539 396 525 387 527 389 525 387 "/>
    <path id="Block1Jump64"
        fill="none"
        stroke="#D15C00"
		stroke-width="2px"
		d="M 531 378 L 531 378 534 380 531 378 544 386 558 390 572 393 589 394 606 394 593 387 579 380 566 373 553 368 540 363 539 344 552 354 564 363 579 369 595 375 610 381 600 370 591 360 581 349 578 346 567 335 557 325 568 336 578 346 576 344 578 346 "/>
    <path id="Block1Jump65"
        fill="none"
        stroke="#D15C00"
		stroke-width="2px"
		d="M 579 344 L 579 344 579 341 579 344 581 329 581 329 581 332 581 329 "/>
    <path id="Block1Jump66"
        fill="none"
        stroke="#D15C00"
		stroke-width="2px"
		d="M 580 328 L 580 328 578 330 580 328 571 335 570 325 570 315 560 321 563 303 566 286 563 304 560 321 570 315 571 325 571 335 580 328 593 319 597 330 600 341 604 328 607 316 614 328 621 339 617 322 613 305 621 313 629 321 626 308 623 295 623 295 624 298 623 295 "/>
    <path id="Block1Jump67"
        fill="none"
        stroke="#D15C00"
		stroke-width="2px"
		d="M 625 294 L 625 294 624 291 625 294 618 281 611 269 618 282 625 294 632 308 639 321 637 306 635 291 646 299 656 307 648 291 641 276 654 282 666 287 665 275 656 269 648 264 658 262 651 248 645 235 632 224 643 228 654 231 642 222 631 214 643 217 655 220 640 212 625 204 610 196 626 192 642 188 626 180 609 181 593 182 576 183 576 183 579 183 576 183 " />
    <path id="Block2Jump68"
        fill="none"
        stroke="#0B3D91"
		stroke-width="2px"
		d="M 227 109 L 227 109 224 110 227 109 210 119 194 128 177 138 161 147 157 154 166 146 189 124 175 139 154 162 157 159 185 131 196 121 194 123 167 152 150 170 159 162 188 134 205 118 197 127 170 156 150 177 152 175 179 149 208 121 216 113 189 142 162 171 149 184 171 163 200 135 227 109 247 110 267 111 286 113 306 114 326 115 346 116 365 117 385 119 405 120 425 121 444 122 464 123 484 125 504 126 523 127 543 128 563 129 583 131 602 132 622 133 635 146 648 159 661 172 675 186 688 199 701 212 714 225 717 242 721 260 724 277 728 294 731 311 735 329 738 346 734 347 752 326 760 317 743 333 726 349 733 341 760 312 752 320 722 347 713 356 715 354 741 327 760 307 731 334 709 354 722 341 749 312 759 301 740 320 711 348 706 353 730 327 759 295 748 305 720 333 702 351 711 341 738 312 761 288 757 292 728 319 699 347 697 349 719 326 747 298 775 269 783 261 766 277 737 305 708 333 696 344 699 341 727 312 755 283 783 255 774 263 745 291 716 318 703 330 707 326 735 297 763 269 784 248 782 250 754 276 725 304 700 327 715 311 743 283 771 254 784 241 762 262 733 290 704 317 698 323 724 297 751 268 781 237 771 247 742 275 713 303 696 319 704 310 732 282 760 253 779 233 751 260 722 288 694 315 713 296 741 267 769 239 777 230 759 247 730 274 701 302 699 304 721 282 748 253 774 226 767 232 738 260 711 286 729 267 757 238 772 222 747 246 717 273 711 279 736 252 764 223 769 218 755 231 726 259 711 273 717 267 744 238 767 214 763 218 734 245 709 269 725 252 752 223 764 211 743 231 714 259 707 265 733 238 760 209 752 217 723 244 704 262 713 252 740 223 756 206 730 230 701 258 721 237 748 208 752 204 739 216 710 244 697 256 701 252 729 223 749 201 747 203 719 230 693 255 709 237 737 208 745 199 727 216 698 244 688 253 690 251 717 222 741 197 736 202 707 230 683 253 698 237 725 208 738 194 715 216 686 243 676 253 678 251 705 222 734 192 724 201 695 229 670 253 686 236 714 207 729 191 704 215 675 242 661 256 667 250 694 221 722 192 725 189 713 201 684 228 655 256 674 236 702 207 720 188 692 215 663 242 653 252 655 250 682 221 709 192 715 186 700 200 671 227 650 247 662 235 689 206 710 184 708 186 679 213 650 241 648 243 669 220 697 191 705 183 688 199 659 227 646 239 653 231 642 227 632 224 634 226 637 226 637 229 642 227 641 232 647 229 644 235 650 230 645 238 653 231 673 211 701 182 692 190 663 218 651 229 654 226 682 197 699 179 672 204 648 227 663 212 690 183 697 176 689 184 660 213 654 219 642 216 631 214 631 214 634 215 635 217 639 216 638 219 644 217 642 222 649 218 645 225 654 219 673 199 696 174 692 178 663 205 650 217 654 213 681 183 693 170 671 191 645 215 661 198 689 169 691 166 679 177 650 204 641 213 643 211 669 183 689 162 687 164 658 190 637 210 649 197 676 168 687 157 667 176 638 204 633 208 656 183 684 154 687 150 675 162 646 189 628 206 637 197 664 168 687 144 679 152 650 181 642 189 626 193 610 196 610 196 614 195 614 198 621 194 617 200 628 192 621 202 630 195 635 191 624 204 642 189 661 169 687 141 680 148 651 175 638 187 642 183 669 154 686 136 659 161 634 185 650 168 677 139 686 130 668 147 639 175 630 183 632 181 657 154 685 124 676 133 647 160 626 181 638 168 666 139 685 118 683 120 656 146 627 173 620 180 646 153 674 124 684 113 664 132 636 160 614 181 627 168 654 139 682 110 684 107 673 118 644 146 616 174 608 181 635 153 663 124 684 102 675 110 647 138 618 166 602 181 609 174 637 145 665 117 682 99 656 125 627 152 596 182 617 160 645 131 673 103 680 95 664 111 635 139 606 166 590 182 597 175 625 146 653 117 677 92 672 97 644 125 615 153 585 182 606 161 633 132 661 103 675 89 652 111 624 139 595 167 579 183 586 176 614 147 642 118 670 89 673 86 661 98 632 126 604 153 573 183 566 198 561 200 571 188 552 204 560 196 573 183 581 175 610 146 638 118 666 90 672 84 663 92 635 120 606 149 578 177 548 206 569 185 597 156 625 128 653 99 671 81 644 108 615 136 587 164 558 192 541 209 535 220 529 230 528 228 537 216 526 224 534 216 541 209 533 217 526 224 546 204 574 176 602 147 630 119 658 90 668 80 649 98 620 126 591 154 563 182 534 209 523 220 525 218 553 189 582 161 610 133 638 104 664 78 657 84 629 112 600 140 571 168 543 196 521 217 534 204 562 175 590 147 618 118 646 90 659 76 637 98 608 126 579 153 551 181 522 209 518 213 542 189 570 161 598 132 626 104 655 74 646 83 617 111 588 139 560 167 531 195 516 210 523 203 551 175 579 146 607 117 635 89 651 72 625 97 597 125 568 153 539 180 511 208 530 188 558 160 587 131 615 103 643 74 647 70 634 83 605 111 577 139 548 167 519 195 507 207 511 203 539 174 567 146 595 117 622 88 643 67 641 69 613 96 585 124 556 152 528 180 502 205 519 188 547 159 575 131 603 102 631 73 639 65 622 82 593 110 564 137 536 165 507 193 497 203 499 201 527 173 555 144 583 116 611 87 634 64 631 67 602 95 573 123 544 151 516 179 493 201 507 187 535 158 563 130 591 101 619 72 627 64 610 81 581 109 552 136 524 164 495 192 488 199 515 172 543 144 571 115 599 87 621 65 619 67 590 95 562 123 533 151 504 178 484 198 495 186 523 158 551 129 579 100 607 72 614 65 598 80 570 108 541 136 512 164 484 191 479 196 503 171 531 142 559 114 587 85 607 65 605 67 578 93 549 121 521 149 492 177 475 194 484 185 512 157 540 128 568 99 595 71 600 66 587 79 558 107 529 135 501 163 470 193 492 171 520 143 548 114 576 86 594 67 567 93 538 121 509 149 481 177 466 191 472 185 500 156 528 128 556 99 584 71 588 67 575 79 546 107 518 135 489 162 461 189 480 170 508 141 536 113 564 84 581 67 555 92 526 120 498 148 469 176 457 188 461 184 489 156 516 127 544 98 574 68 564 78 535 106 506 133 478 161 452 186 469 169 497 140 525 112 553 83 568 68 544 91 515 119 486 147 458 175 448 184 450 182 477 154 505 126 533 97 562 68 553 77 524 105 495 132 466 160 443 182 457 168 485 139 513 111 541 82 555 68 532 90 503 118 475 146 446 174 439 181 466 154 493 125 521 96 549 68 540 76 512 104 483 132 454 160 434 179 445 168 473 139 501 110 529 82 542 69 520 90 491 118 463 146 434 173 429 178 453 153 481 125 509 96 535 70 529 76 500 104 471 132 442 159 424 177 433 167 461 139 489 110 517 81 528 70 508 90 479 117 451 145 422 173 419 176 442 153 469 124 497 95 521 71 517 75 488 103 459 131 431 159 414 175 422 167 450 138 478 109 506 81 517 69 497 89 468 116 439 144 409 173 429 152 457 123 485 95 512 67 504 75 476 102 447 130 418 158 404 172 410 166 437 138 465 109 493 80 508 65 484 88 455 116 426 144 399 170 417 151 445 123 473 94 501 66 504 63 492 74 464 102 435 130 406 157 392 171 397 166 425 137 453 108 481 80 500 61 472 88 444 116 415 144 385 173 406 152 433 123 461 94 489 65 495 59 480 74 451 102 423 130 394 158 377 174 385 166 413 137 441 108 469 80 491 57 488 60 460 88 431 116 402 144 374 172 369 176 393 151 421 122 449 93 477 65 487 54 468 73 439 101 411 129 382 157 362 177 373 165 401 136 429 108 457 79 483 52 476 59 448 87 419 115 390 143 362 171 354 178 381 150 409 121 437 93 465 64 479 49 455 72 427 100 398 128 370 156 347 179 361 164 389 136 417 107 445 78 473 49 475 47 464 58 435 86 407 114 378 142 350 170 337 183 341 178 369 150 397 121 425 92 453 64 472 44 444 72 415 100 387 128 358 156 329 184 324 189 349 163 377 135 405 106 433 77 460 49 468 41 451 57 423 85 395 114 366 142 338 170 312 195 329 178 357 149 385 120 413 92 441 63 465 38 460 43 431 71 403 99 375 127 346 156 318 184 300 201 309 192 337 163 365 135 393 106 421 77 449 49 462 35 440 57 411 85 383 113 354 141 326 169 297 197 287 207 289 205 317 177 345 148 373 120 401 91 429 63 459 32 448 42 420 70 391 99 363 127 334 155 306 183 277 211 260 228 269 219 297 190 325 162 353 133 381 105 409 76 437 48 454 31 428 56 400 84 371 112 343 141 314 169 286 197 257 225 242 240 249 233 277 204 305 176 333 147 361 119 389 90 418 62 446 33 451 28 437 42 408 70 380 98 351 126 323 154 294 182 265 210 239 236 257 218 285 190 313 161 341 133 369 104 397 76 425 47 447 25 445 27 416 55 388 83 359 111 331 140 302 168 274 196 245 224 236 233 238 231 265 204 293 175 321 147 349 118 377 90 405 61 433 33 444 22 425 41 396 69 368 97 339 125 311 153 282 182 254 210 233 230 245 218 273 189 301 161 329 132 357 104 385 75 413 46 440 19 433 26 404 54 376 82 347 111 319 139 290 167 262 195 233 223 230 226 253 203 281 174 309 146 338 117 366 89 394 61 422 32 437 17 413 41 385 69 356 97 328 125 299 153 271 181 242 209 228 223 234 217 262 189 290 160 318 132 346 103 374 75 402 46 430 17 433 14 421 26 393 54 364 82 336 110 307 138 279 167 251 195 225 220 242 203 270 174 298 146 326 117 354 89 382 60 410 32 429 12 401 40 372 68 344 96 316 124 287 152 259 181 230 209 222 217 224 215 250 188 278 160 306 131 334 103 362 74 390 46 418 17 425 10 409 25 381 54 352 82 324 110 295 138 267 166 238 194 219 213 230 202 258 173 286 145 314 116 342 88 370 59 398 30 420 8 417 11 389 39 361 67 332 95 304 123 275 151 247 179 218 208 216 210 238 187 266 159 294 130 322 102 350 73 378 45 406 16 416 6 397 25 369 53 340 81 312 109 283 137 255 165 226 193 213 206 218 201 246 173 274 144 302 116 330 87 358 59 386 30 412 4 406 10 377 38 349 66 320 94 292 122 263 151 235 179 208 205 226 187 254 158 282 130 310 101 338 73 366 44 394 16 408 2 385 24 357 52 329 80 300 108 272 136 243 165 215 193 203 204 206 201 234 172 262 144 290 115 318 87 346 58 375 30 404 0 395 8 367 36 338 65 310 93 281 121 253 149 225 177 199 202 216 185 244 156 272 128 300 99 328 71 356 42 384 14 398 0 375 22 347 50 319 78 290 106 262 134 233 163 205 191 194 201 196 199 224 171 252 142 280 114 308 85 336 57 364 28 392 0 384 8 355 36 327 64 298 92 269 120 241 148 212 176 189 199 204 184 232 156 260 127 288 99 316 71 344 42 372 14 386 0 363 22 335 50 306 78 278 106 250 134 221 163 193 191 185 198 212 170 240 142 268 113 296 85 324 56 352 27 379 0 371 8 343 36 314 64 286 92 257 120 229 148 200 176 180 196 192 184 220 156 248 127 276 99 304 70 332 42 360 13 373 0 351 21 323 50 295 78 266 106 238 134 209 162 181 190 176 195 200 170 228 142 256 113 284 84 312 56 340 27 367 0 360 7 331 35 303 63 274 91 246 120 217 148 189 176 171 193 185 204 198 214 196 213 194 211 191 211 191 208 187 209 187 206 182 208 184 203 177 206 180 200 173 204 176 197 168 202 173 195 163 201 171 193 163 201 183 181 211 153 239 124 267 96 295 67 323 39 351 10 361 0 342 18 314 46 285 74 256 103 228 131 199 159 171 187 155 202 162 195 190 166 219 138 247 109 275 81 303 52 331 24 353 2 351 4 322 32 294 60 265 88 237 117 208 145 180 173 151 201 149 203 171 181 199 153 227 124 256 96 284 67 312 39 340 11 346 5 331 19 303 47 274 75 246 104 217 132 189 160 160 188 149 199 152 196 180 167 208 139 236 110 264 82 292 53 320 25 339 6 311 33 283 61 254 89 226 117 197 145 168 173 149 192 160 181 188 153 216 124 244 96 272 67 300 39 328 10 316 22 303 35 291 47 278 60 266 72 254 84 241 97 229 109 240 96 251 83 262 70 273 58 284 45 295 32 280 49 285 44 308 23 294 37 267 66 251 82 276 58 305 30 321 14 313 22 286 50 258 79 229 109 216 122 202 136 189 149 176 162 162 176 149 189 157 180 185 152 213 123 227 109 225 111 227 109 " />
    <path id="Block3Jump69"
        fill="none"
        stroke="#000000"
		stroke-width="2px"
		d="M 333 300 L 333 300 335 302 333 300 344 311 354 321 364 310 374 300 380 288 386 276 371 274 354 279 337 283 340 282 348 276 347 281 356 273 359 271 352 281 361 273 368 268 358 281 374 268 363 281 372 273 379 268 368 282 385 268 373 284 384 274 391 268 377 285 397 269 385 282 376 293 395 275 401 270 377 296 374 300 390 303 406 306 423 308 439 311 455 314 447 319 430 337 439 327 455 309 428 334 420 341 446 312 454 304 437 320 413 342 427 327 453 299 445 306 416 333 406 343 408 341 434 312 451 294 424 319 401 341 415 327 443 298 450 290 433 305 404 333 396 340 423 312 446 287 441 291 412 319 391 339 403 326 431 297 442 285 421 305 392 332 387 337 411 311 437 283 430 290 401 318 383 335 392 326 419 296 433 281 409 304 381 332 378 334 399 311 427 281 429 279 418 290 389 318 374 332 380 326 407 296 425 277 397 304 370 330 388 311 415 282 420 276 406 290 377 317 366 328 368 325 396 296 415 275 413 277 385 303 361 325 375 310 403 281 410 274 394 289 364 316 357 323 383 295 405 272 402 275 373 302 354 321 364 310 374 300 365 308 352 320 356 315 367 301 349 317 361 302 354 308 345 315 354 303 345 311 342 313 349 302 338 312 344 302 335 309 339 301 331 307 336 301 332 302 333 300 333 300 331 306 339 311 348 317 357 323 374 332 390 338 406 343 416 341 426 340 440 326 455 314 455 306 449 288 436 282 423 277 408 272 394 268 379 268 365 268 351 276 337 283 347 281 364 281 377 285 377 291 374 300 357 303 345 301 333 300 345 302 357 303 374 300 377 291 377 285 364 281 347 281 337 283 351 275 365 268 380 268 394 268 409 273 423 277 420 276 423 277 "/>
    <path id="Block3Jump70"
        fill="none"
        stroke="#000000"
		stroke-width="2px"
		d="M 432 254 L 432 254 434 252 432 254 436 249 432 245 432 248 438 245 432 254 443 245 451 252 458 259 455 259 460 250 449 259 460 245 458 247 443 258 448 252 460 239 440 256 455 237 458 234 446 245 435 254 437 252 450 238 456 230 445 238 453 228 442 235 446 228 439 232 438 230 438 230 440 233 446 239 443 245 440 245 432 245 432 254 442 258 458 259 460 249 460 238 455 228 443 228 438 230 443 228 455 228 460 238 460 249 458 259 442 258 432 254 432 245 432 248 432 245 "/>
    <path id="Block3Jump71"
        fill="none"
        stroke="#000000"
		stroke-width="2px"
		d="M 365 242 L 365 242 364 245 365 242 357 257 354 258 364 245 362 247 347 259 353 252 363 240 341 259 362 235 351 245 336 259 342 252 360 231 332 257 340 249 348 242 333 248 331 242 328 248 335 244 330 253 342 244 331 257 340 249 348 242 358 229 347 238 355 226 344 235 352 225 343 232 347 225 342 228 342 225 342 225 342 230 345 236 348 239 348 242 336 245 331 242 328 248 331 257 336 259 344 260 357 257 362 251 365 242 362 233 354 225 342 225 354 225 362 233 365 242 362 251 357 257 344 260 336 259 331 257 328 248 331 242 336 245 348 242 348 239 345 236 342 230 342 225 342 225 " />
    <path id="Block4Jump72"
        fill="none"
        stroke="#F0F0F0"
		stroke-width="2px"
		d="M 339 230 L 339 230 337 233 339 230 333 240 339 230 338 241 345 239 345 239 342 240 345 239 "/>
    <path id="Block4Jump73"
        fill="none"
        stroke="#F0F0F0"
		stroke-width="2px"
		d="M 431 241 L 431 241 433 239 431 241 438 232 438 242 441 242 438 242 438 232 431 241 433 239 431 241 "/>
    <path id="Block4Jump74"
        fill="none"
        stroke="#F0F0F0"
		stroke-width="2px"
		d="M 368 289 L 368 289 365 290 368 289 357 295 360 287 347 294 343 288 337 293 343 288 347 294 360 287 357 295 368 289 370 297 370 297 369 294 370 297 "/>
    <path id="Block4Jump75"
        fill="none"
        stroke="#F0F0F0"
		stroke-width="2px"
		d="M 612 373 L 612 373 612 373 612 373 615 373 617 374 622 372 621 376 628 372 626 377 635 371 640 360 629 359 619 359 619 359 622 359 622 361 627 359 625 364 632 359 635 347 634 351 640 348 632 359 626 365 635 357 644 350 629 368 648 352 652 340 651 344 656 341 648 352 640 360 631 369 640 361 660 343 665 334 660 343 666 337 647 358 635 371 657 350 668 340 666 342 638 371 621 389 648 364 669 343 657 356 628 388 613 401 613 401 622 393 628 388 614 401 623 393 652 365 671 347 661 358 633 386 619 401 642 379 672 350 652 371 623 401 633 392 662 364 686 340 686 357 687 374 687 391 691 404 696 416 700 429 700 429 699 427 697 426 698 423 695 423 697 418 692 420 696 414 706 405 696 414 715 410 711 411 711 408 704 412 708 406 696 414 706 405 697 413 690 418 703 404 688 417 687 436 685 435 687 431 681 434 688 425 677 432 688 420 686 422 673 431 682 423 688 417 680 424 673 431 681 422 700 402 709 393 700 402 712 396 723 391 718 393 717 392 709 398 712 393 700 402 692 410 671 431 690 410 706 393 680 418 669 428 671 426 699 397 701 394 689 405 667 425 680 411 696 394 705 385 713 377 705 385 696 394 708 387 720 381 715 384 717 379 706 389 714 378 705 386 696 394 688 402 666 424 674 415 702 386 712 376 721 367 712 376 723 368 712 376 721 367 712 375 683 403 664 421 674 410 702 381 716 366 692 389 661 417 658 427 655 437 654 435 657 429 653 431 660 421 651 427 661 417 651 427 670 407 698 378 711 365 689 386 660 414 650 423 652 421 679 393 707 364 698 372 669 399 648 419 660 407 688 378 710 355 701 363 673 391 648 415 641 427 641 423 648 415 641 423 660 403 688 374 707 353 705 355 678 381 649 409 639 418 641 416 668 388 696 359 703 352 687 367 658 394 637 414 649 402 677 373 699 350 696 353 667 381 638 408 629 417 631 415 657 388 685 359 695 348 675 366 646 394 629 410 637 401 665 373 692 345 684 353 656 380 629 406 646 388 674 358 689 342 664 366 635 394 627 402 654 373 682 344 686 340 "/>
    <path id="Block4Jump76"
        fill="none"
        stroke="#F0F0F0"
		stroke-width="2px"
		d="M 686 339 L 686 339 691 345 693 346 710 355 704 363 723 368 712 376 720 381 708 388 697 394 710 392 723 391 711 397 700 402 715 410 696 414 700 428 688 417 687 436 671 431 661 417 658 427 655 437 651 426 648 415 641 427 638 414 629 418 629 402 613 401 628 388 619 389 629 378 612 373 624 372 635 371 619 359 632 359 635 346 648 352 652 340 660 343 665 334 673 350 686 339 673 350 665 334 660 343 652 340 648 352 635 346 638 347 635 346 " />
    <path id="Block5Jump77"
        fill="none"
        stroke="#0E1F7C"
		stroke-width="2px"
		d="M 529 229 L 529 229 531 226 529 229 535 219 541 209 554 203 566 198 572 185 579 172 580 153 581 135 569 130 557 125 544 125 532 125 520 126 509 126 501 113 493 100 486 88 480 76 487 88 493 100 501 113 509 126 521 125 532 125 545 125 557 125 569 130 581 135 580 154 579 172 572 185 566 198 553 204 541 209 535 219 529 229 522 219 515 209 503 204 492 200 475 194 458 189 441 181 424 174 415 161 402 151 389 142 376 132 361 128 345 123 330 119 315 125 301 130 286 136 281 147 276 157 294 158 308 151 321 145 307 152 294 158 276 157 281 146 286 136 285 139 286 136 "/>
    <path id="Block5Jump78"
        fill="none"
        stroke="#0E1F7C"
		stroke-width="2px"
		d="M 267 99 L 267 99 270 98 267 99 280 93 292 86 305 80 323 72 340 65 355 59 371 53 386 47 371 45 355 44 340 42 355 44 371 45 386 47 371 53 355 59 340 65 322 73 305 80 292 86 280 93 267 99 257 104 245 107 234 109 221 112 204 119 187 125 173 137 159 148 154 160 150 172 149 188 148 203 149 187 150 172 155 160 159 148 173 136 187 125 204 118 221 112 234 109 231 110 234 109 "/>
    <path id="Block5Jump79"
        fill="none"
        stroke="#0E1F7C"
		stroke-width="2px"
		d="M 233 103 L 233 103 235 101 233 103 244 91 255 79 266 67 276 55 287 43 297 31 308 24 320 16 331 9 348 4 365 0 383 0 401 0 418 8 435 15 450 27 464 39 476 47 487 55 504 63 521 70 540 69 558 68 577 67 597 66 616 65 628 65 639 65 655 73 670 81 677 92 684 103 685 118 686 133 687 147 687 161 694 171 700 181 713 185 726 190 739 194 753 204 767 214 776 228 784 242 783 254 782 265 772 275 762 284 759 297 760 309 761 320 748 333 736 345 723 350 710 355 713 354 710 355 "/>
    <path id="Block5Jump80"
        fill="none"
        stroke="#0E1F7C"
		stroke-width="2px"
		d="M 696 346 L 696 346 697 343 696 346 704 330 693 317 699 303 710 290 712 272 700 256 684 252 667 253 656 258 659 257 656 258 "/>
    <path id="Block5Jump81"
        fill="none"
        stroke="#0E1F7C"
		stroke-width="2px"
		d="M 432 180 L 432 180 429 179 432 180 415 174 399 169 386 172 372 174 359 177 348 179 338 181 328 186 318 191 310 195 294 203 279 211 267 221 256 232 244 242 256 232 267 221 279 211 295 203 310 195 318 191 315 192 318 191 " />
</svg>
