<?xml version="1.0" encoding="UTF-8" standalone="no"?>
<svg xmlns="http://www.w3.org/2000/svg" version="1.1" width="956" height="872">
    <path id="Block1Jump1"
        fill="none"
        stroke="#000000"
		stroke-width="2px"
		d="M 412 502 L 355 539 353 525 346 512 340 507 346 506 353 507 335 512 359 510 347 512 334 516 363 513 333 520 348 518 365 517 364 517 335 524 368 520 349 524 337 528 365 523 371 524 338 532 350 530 371 528 366 529 342 535 369 532 351 535 346 539 363 538 348 540 350 541 350 533 350 539 350 535 350 541 384 510 380 497 377 483 374 469 367 467 372 466 382 466 363 471 388 469 373 472 361 476 391 472 360 480 374 478 393 476 390 477 360 484 395 480 375 483 361 488 391 483 396 484 362 492 376 489 395 488 392 489 363 496 396 492 377 495 365 499 393 494 396 496 366 503 378 501 395 500 394 500 370 507 394 504 379 507 375 510 390 509 379 511 383 512 383 504 383 510 383 506 383 512 418 501 424 486 422 472 421 458 424 454 411 458 433 456 407 463 416 461 436 460 432 460 406 467 438 463 417 467 405 471 433 466 440 467 404 475 418 473 441 471 434 472 405 479 442 475 419 479 405 483 435 478 443 479 406 487 420 485 441 483 436 484 406 491 440 487 421 491 409 495 437 490 438 492 412 498 422 497 434 497 416 502 420 501 418 502 418 494 418 500 418 496 418 502 461 520 461 506 462 492 466 489 461 490 455 493 471 492 452 498 462 496 474 496 449 502 474 500 463 502 449 506 475 504 449 510 464 508 474 508 450 514 473 512 465 514 452 518 468 517 458 521 464 520 461 522 461 514 461 520 461 516 461 522 438 558 429 568 440 572 423 532 426 547 422 582 419 565 412 527 395 546 407 557 398 561 388 565 389 570 401 579 396 552 403 532 403 535 412 582 421 595 421 594 421 580 416 566 413 553 409 539 410 525 399 516 421 514 393 521 412 518 428 517 390 526 397 525 432 521 413 524 386 531 429 523 437 524 398 531 381 536 414 530 441 527 430 529 383 538 378 540 399 537 444 531 415 536 375 545 384 543 431 535 446 534 400 543 374 549 416 542 450 538 432 541 385 549 373 553 401 549 448 540 452 541 417 548 373 558 386 555 433 547 454 545 449 546 402 554 373 562 418 554 457 549 434 553 387 561 372 566 403 560 450 552 457 553 419 560 373 570 388 567 435 559 458 557 451 558 404 566 374 574 420 565 459 561 436 565 389 573 375 577 405 572 452 564 459 565 421 571 379 581 390 579 437 571 457 569 453 570 406 578 383 584 422 577 456 573 438 576 391 585 388 587 407 584 453 578 423 583 395 590 439 582 449 583 408 590 403 593 424 589 440 588 419 594 423 593 421 595 421 587 421 593 421 589 421 595 "/>
    <path id="Block1Jump2"
        fill="none"
        stroke="#000000"
		stroke-width="2px"
		d="M 294 361 L 292 347 285 334 279 329 285 328 292 329 274 334 298 332 286 334 273 338 302 335 272 342 287 340 304 339 303 339 274 346 307 342 288 346 276 350 304 345 310 346 277 354 289 352 310 350 305 351 281 357 308 354 290 357 285 361 302 360 287 362 289 363 289 355 289 361 289 357 289 363 323 332 319 319 316 305 313 291 306 289 311 288 321 288 302 293 327 291 312 294 300 298 330 294 299 302 313 300 332 298 329 299 299 306 334 302 314 305 300 310 330 305 335 306 301 314 315 311 334 310 331 311 302 318 335 314 316 317 304 321 332 316 335 318 305 325 317 323 334 322 333 322 309 329 333 326 318 329 314 332 329 331 318 333 322 334 322 326 322 332 322 328 322 334 357 323 363 308 361 294 360 280 363 276 350 280 372 278 346 285 355 283 375 282 371 282 345 289 377 285 356 289 344 293 372 288 379 289 343 297 357 295 380 293 373 294 344 301 381 297 358 301 344 305 374 300 382 301 345 309 359 307 380 305 375 306 345 313 379 309 360 313 348 317 376 312 377 314 351 320 361 319 373 319 355 324 359 323 357 324 357 316 357 322 357 318 357 324 400 342 400 328 401 314 405 311 400 312 394 315 410 314 391 320 401 318 413 318 388 324 413 322 402 324 388 328 414 326 388 332 403 330 413 330 389 336 412 334 404 336 391 340 407 339 397 343 403 342 400 344 400 336 400 342 400 338 400 344 377 380 368 390 379 394 362 354 365 369 361 404 358 387 351 349 334 368 346 379 337 383 327 387 328 392 340 401 335 374 342 354 342 357 351 404 360 417 360 416 360 402 355 388 352 375 348 361 349 347 338 338 360 336 332 343 351 340 367 339 329 348 336 347 371 343 352 346 325 353 368 345 376 346 337 353 320 358 353 352 380 349 369 351 322 360 317 362 338 359 383 353 354 358 314 367 323 365 370 357 385 356 339 365 313 371 355 364 389 360 371 363 324 371 312 375 340 371 387 362 391 363 356 370 312 380 325 377 372 369 393 367 388 368 341 376 312 384 357 376 396 371 373 375 326 383 311 388 342 382 389 374 396 375 358 382 312 392 327 389 374 381 397 379 390 380 343 388 313 396 359 387 398 383 375 387 328 395 314 399 344 394 391 386 398 387 360 393 318 403 329 401 376 393 396 391 392 392 345 400 322 406 361 399 395 395 377 398 330 407 327 409 346 406 392 400 362 405 334 412 378 404 388 405 347 412 342 415 363 411 379 410 358 416 362 415 360 417 360 409 360 415 360 411 360 417 "/>
    <path id="Block1Jump3"
        fill="none"
        stroke="#000000"
		stroke-width="2px"
		d="M 504 375 L 502 361 495 348 489 343 495 342 502 343 484 348 508 346 496 348 483 352 512 349 482 356 497 354 514 353 513 353 484 360 517 356 498 360 486 364 514 359 520 360 487 368 499 366 520 364 515 365 491 371 518 368 500 371 495 375 512 374 497 376 499 377 499 369 499 375 499 371 499 377 533 346 529 333 526 319 523 305 516 303 521 302 531 302 512 307 537 305 522 308 510 312 540 308 509 316 523 314 542 312 539 313 509 320 544 316 524 319 510 324 540 319 545 320 511 328 525 325 544 324 541 325 512 332 545 328 526 331 514 335 542 330 545 332 515 339 527 337 544 336 543 336 519 343 543 340 528 343 524 346 539 345 528 347 532 348 532 340 532 346 532 342 532 348 567 337 573 322 571 308 570 294 573 290 560 294 582 292 556 299 565 297 585 296 581 296 555 303 587 299 566 303 554 307 582 302 589 303 553 311 567 309 590 307 583 308 554 315 591 311 568 315 554 319 584 314 592 315 555 323 569 321 590 319 585 320 555 327 589 323 570 327 558 331 586 326 587 328 561 334 571 333 583 333 565 338 569 337 567 338 567 330 567 336 567 332 567 338 610 356 610 342 611 328 615 325 610 326 604 329 620 328 601 334 611 332 623 332 598 338 623 336 612 338 598 342 624 340 598 346 613 344 623 344 599 350 622 348 614 350 601 354 617 353 607 357 613 356 610 358 610 350 610 356 610 352 610 358 587 394 578 404 589 408 572 368 575 383 571 418 568 401 561 363 544 382 556 393 547 397 537 401 538 406 550 415 545 388 552 368 552 371 561 418 570 431 570 430 570 416 565 402 562 389 558 375 559 361 548 352 570 350 542 357 561 354 577 353 539 362 546 361 581 357 562 360 535 367 578 359 586 360 547 367 530 372 563 366 590 363 579 365 532 374 527 376 548 373 593 367 564 372 524 381 533 379 580 371 595 370 549 379 523 385 565 378 599 374 581 377 534 385 522 389 550 385 597 376 601 377 566 384 522 394 535 391 582 383 603 381 598 382 551 390 522 398 567 390 606 385 583 389 536 397 521 402 552 396 599 388 606 389 568 396 522 406 537 403 584 395 607 393 600 394 553 402 523 410 569 401 608 397 585 401 538 409 524 413 554 408 601 400 608 401 570 407 528 417 539 415 586 407 606 405 602 406 555 414 532 420 571 413 605 409 587 412 540 421 537 423 556 420 602 414 572 419 544 426 588 418 598 419 557 426 552 429 573 425 589 424 568 430 572 429 570 431 570 423 570 429 570 425 570 431 "/>
    <path id="Block1Jump4"
        fill="none"
        stroke="#000000"
		stroke-width="2px"
		d="M 546 591 L 544 577 537 564 531 559 537 558 544 559 526 564 550 562 538 564 525 568 554 565 524 572 539 570 556 569 555 569 526 576 559 572 540 576 528 580 556 575 562 576 529 584 541 582 562 580 557 581 533 587 560 584 542 587 537 591 554 590 539 592 541 593 541 585 541 591 541 587 541 593 575 562 571 549 568 535 565 521 558 519 563 518 573 518 554 523 579 521 564 524 552 528 582 524 551 532 565 530 584 528 581 529 551 536 586 532 566 535 552 540 582 535 587 536 553 544 567 541 586 540 583 541 554 548 587 544 568 547 556 551 584 546 587 548 557 555 569 553 586 552 585 552 561 559 585 556 570 559 566 562 581 561 570 563 574 564 574 556 574 562 574 558 574 564 609 553 615 538 613 524 612 510 615 506 602 510 624 508 598 515 607 513 627 512 623 512 597 519 629 515 608 519 596 523 624 518 631 519 595 527 609 525 632 523 625 524 596 531 633 527 610 531 596 535 626 530 634 531 597 539 611 537 632 535 627 536 597 543 631 539 612 543 600 547 628 542 629 544 603 550 613 549 625 549 607 554 611 553 609 554 609 546 609 552 609 548 609 554 652 572 652 558 653 544 657 541 652 542 646 545 662 544 643 550 653 548 665 548 640 554 665 552 654 554 640 558 666 556 640 562 655 560 665 560 641 566 664 564 656 566 643 570 659 569 649 573 655 572 652 574 652 566 652 572 652 568 652 574 629 610 620 620 631 624 614 584 617 599 613 634 610 617 603 579 586 598 598 609 589 613 579 617 580 622 592 631 587 604 594 584 594 587 603 634 612 647 612 646 612 632 607 618 604 605 600 591 601 577 590 568 612 566 584 573 603 570 619 569 581 578 588 577 623 573 604 576 577 583 620 575 628 576 589 583 572 588 605 582 632 579 621 581 574 590 569 592 590 589 635 583 606 588 566 597 575 595 622 587 637 586 591 595 565 601 607 594 641 590 623 593 576 601 564 605 592 601 639 592 643 593 608 600 564 610 577 607 624 599 645 597 640 598 593 606 564 614 609 606 648 601 625 605 578 613 563 618 594 612 641 604 648 605 610 612 564 622 579 619 626 611 649 609 642 610 595 618 565 626 611 617 650 613 627 617 580 625 566 629 596 624 643 616 650 617 612 623 570 633 581 631 628 623 648 621 644 622 597 630 574 636 613 629 647 625 629 628 582 637 579 639 598 636 644 630 614 635 586 642 630 634 640 635 599 642 594 645 615 641 631 640 610 646 614 645 612 647 612 639 612 645 612 641 612 647 " />
    <path id="Block2Jump5"
        fill="none"
        stroke="#ED171F"
		stroke-width="2px"
		d="M 92 271 L 52 242 58 234 58 242 54 238 62 238 58 234 49 215 39 198 24 184 11 169 8 149 8 129 12 109 19 90 29 73 41 58 60 51 77 62 68 80 52 68 33 74 22 92 16 111 19 131 28 149 41 164 53 180 62 198 71 179 80 161 91 144 89 124 94 104 114 108 119 127 128 144 138 161 158 160 168 143 178 126 182 106 180 86 175 67 160 54 168 36 186 44 192 63 197 82 193 103 186 122 176 139 166 156 155 173 144 189 139 208 126 192 120 173 114 155 102 139 90 155 80 172 72 191 66 210 61 228 60 233 53 215 50 208 62 217 58 197 57 191 47 200 35 189 52 185 33 179 26 177 46 175 27 170 17 167 37 165 39 164 20 158 13 155 28 154 11 141 20 144 12 126 11 123 15 104 15 105 20 90 30 73 42 62 53 64 65 80 56 62 53 55 70 73 64 53 75 65 79 64 64 62 45 63 38 65 26 81 20 89 15 108 14 111 16 128 13 148 30 163 39 178 48 191 58 202 64 204 72 186 74 182 83 162 93 146 101 135 89 117 108 122 112 123 100 106 112 117 124 100 110 114 99 126 117 130 108 136 126 140 112 143 131 151 121 151 133 162 122 164 140 171 129 175 141 184 131 190 137 202 137 187 149 176 160 161 171 144 180 126 184 118 184 98 184 97 190 100 183 82 192 88 182 71 180 67 195 77 189 58 187 51 169 44 165 42 182 43 173 36 167 53 186 59 190 60 187 80 185 89 187 108 181 127 180 131 169 147 166 152 155 170 144 182 151 186 140 186 142 176 158 164 174 139 184 117 188 99 188 82 183 69 177 56 165 47 177 24 163 34 168 32 180 27 153 45 182 30 171 37 146 54 184 34 155 50 145 59 174 42 186 37 145 63 158 55 189 40 177 47 158 60 191 44 161 61 162 63 180 52 193 47 164 66 194 51 183 58 166 69 196 55 168 73 186 63 197 59 170 77 170 76 199 62 189 68 172 80 200 66 173 81 174 84 192 73 201 70 175 88 176 87 201 75 195 78 176 92 201 79 179 92 176 96 198 84 200 84 176 101 182 97 200 89 176 106 199 94 185 102 176 110 199 99 176 114 188 107 197 105 174 120 195 111 191 113 173 126 193 116 176 126 169 132 190 123 167 138 179 131 187 129 163 145 164 145 183 136 182 137 158 153 178 143 167 150 155 159 172 151 151 166 170 155 167 159 148 170 142 176 132 179 127 166 122 153 115 141 114 139 104 143 104 126 106 111 96 115 101 96 87 106 105 98 94 104 80 114 107 101 79 118 76 121 97 109 110 104 79 124 82 123 112 105 106 111 122 100 128 91 116 101 131 94 113 105 106 111 105 128 104 143 87 154 74 178 74 181 57 192 49 195 40 184 30 173 22 162 14 150 12 136 12 119 17 100 23 85 47 69 60 64 72 73 53 98 69 86 51 94 81 75 61 86 54 88 89 65 76 73 54 83 58 81 88 62 52 80 73 68 85 59 55 76 50 77 82 56 70 63 45 75 52 71 79 53 42 74 47 69 40 57 43 55 61 47 31 67 68 47 46 60 24 75 64 52 73 49 31 74 21 82 49 66 77 52 67 57 18 86 23 85 22 93 31 81 15 92 26 88 18 93 12 98 25 94 10 104 21 98 23 99 7 111 22 104 4 117 21 109 9 116 3 122 21 114 2 127 12 122 22 118 2 132 22 123 15 127 1 137 23 127 1 142 18 132 24 131 1 146 3 145 25 135 21 137 0 151 27 138 6 151 0 156 24 142 29 142 1 160 9 156 32 145 27 148 1 165 36 147 12 161 2 169 30 153 39 150 5 172 15 166 41 154 33 158 7 175 44 156 18 171 9 179 36 163 46 159 11 182 21 177 50 162 39 168 12 186 53 165 24 182 15 189 42 174 55 168 18 192 27 187 57 172 45 179 22 195 60 175 30 192 25 197 48 184 62 178 28 200 33 197 63 182 51 189 32 202 64 186 36 203 33 204 57 192 57 209 57 225 56 242 60 244 51 247 63 238 50 243 57 239 65 232 48 239 67 226 54 234 47 235 68 221 47 231 51 229 69 216 46 227 66 215 70 210 48 223 45 223 72 205 63 210 43 219 45 218 72 200 42 215 60 205 74 194 42 213 40 212 75 191 78 188 57 200 38 208 39 208 80 182 72 186 35 205 54 194 81 179 74 181 75 173 65 186 83 173 69 181 68 179 88 165 85 167 71 173 91 159 74 167 82 162 96 152 77 160 97 149 98 148 104 143 104 126 132 96 100 115 83 127 118 106 127 104 85 128 86 130 103 120 120 112 88 133 120 117 106 125 91 136 122 120 91 138 88 143 109 130 124 124 82 151 94 144 127 127 112 135 79 157 128 129 114 139 110 148 99 147 130 132 115 141 102 150 132 135 103 154 118 146 133 139 105 158 136 142 121 151 107 161 138 146 109 165 124 156 139 150 111 169 141 153 127 161 112 173 142 157 114 176 130 167 143 161 115 180 144 165 133 172 117 183 146 169 118 185 118 187 136 177 147 171 142 176 151 178 167 162 154 169 119 191 121 190 163 168 139 182 120 195 157 174 160 175 124 196 121 199 142 187 154 183 122 201 131 205 136 195 135 212 141 223 128 228 139 222 141 218 128 223 142 213 136 216 127 219 143 207 126 215 133 211 145 202 126 211 148 195 130 206 125 207 149 190 145 192 123 203 127 201 151 187 152 186 144 191 149 187 146 189 150 187 "/>
    <path id="Block2Jump6"
        fill="none"
        stroke="#ED171F"
		stroke-width="2px"
		d="M 150 187 L "/>
    <path id="Block2Jump7"
        fill="none"
        stroke="#ED171F"
		stroke-width="2px"
		d="M 223 207 L 229 207 229 215 225 211 233 211 229 207 229 187 230 167 231 147 231 127 228 107 233 87 237 85 238 89 238 84 242 63 238 59 246 59 242 55 236 36 245 49 245 50 238 44 247 45 237 36 249 38 238 28 250 34 243 26 249 31 242 40 241 53 239 66 241 48 240 32 234 25 245 20 243 21 231 31 250 22 229 37 246 27 253 25 228 42 231 40 255 29 249 32 228 47 255 33 234 45 230 50 252 37 254 38 230 54 237 50 252 44 231 58 249 51 240 56 233 62 246 57 234 66 243 61 241 64 236 67 239 67 237 67 239 67 238 67 239 67 238 96 234 92 242 92 238 88 245 107 246 127 246 147 246 167 246 187 250 207 230 209 230 205 235 204 231 192 244 203 234 185 232 181 244 187 235 169 233 166 245 169 233 149 244 153 233 133 244 136 233 118 243 121 231 107 243 110 224 97 242 99 232 91 242 91 237 87 233 107 232 110 242 126 232 143 244 161 232 176 242 191 254 203 255 209 257 210 254 207 261 208 249 212 253 210 258 205 239 214 256 201 250 205 235 213 235 207 242 207 237 194 238 177 238 161 239 144 239 128 239 112 234 99 234 82 242 80 218 96 229 90 245 83 211 105 214 103 246 87 232 95 214 108 248 90 222 107 235 100 249 94 224 111 251 98 238 105 226 115 252 102 227 119 241 110 253 106 226 124 252 111 244 116 225 129 252 116 229 129 227 133 247 121 252 121 226 138 232 134 252 125 250 126 225 143 252 129 235 139 226 147 253 134 226 152 238 145 252 139 225 157 252 143 241 150 226 161 253 148 225 166 244 155 252 153 225 170 229 168 252 157 247 160 225 175 252 162 232 174 225 180 250 165 252 167 225 184 235 179 252 171 225 189 253 176 238 184 226 193 252 181 224 199 241 189 251 186 223 204 225 203 252 190 244 194 220 211 253 194 228 208 221 215 247 200 254 198 230 214 231 213 255 200 255 203 251 206 254 204 253 204 "/>
    <path id="Block2Jump8"
        fill="none"
        stroke="#ED171F"
		stroke-width="2px"
		d="M 253 204 L 281 185 281 193 277 189 285 189 281 185 281 182 286 175 286 155 286 153 286 133 286 123 286 107 281 89 301 89 321 89 337 77 355 87 368 103 372 123 371 143 365 162 355 178 342 192 331 199 312 194 303 208 303 228 303 248 284 254 286 234 286 214 286 194 286 182 302 169 307 165 324 176 343 182 355 165 362 146 360 126 351 108 336 95 317 101 305 117 304 137 303 157 303 170 311 188 308 171 316 189 318 193 316 173 315 171 323 189 326 195 325 181 334 193 331 185 340 190 339 184 347 185 350 179 355 178 356 170 361 169 362 161 365 162 364 147 369 151 363 135 371 139 362 124 371 130 358 112 370 119 363 101 361 97 355 108 340 94 358 95 338 82 350 84 338 78 337 92 328 87 328 89 321 93 315 98 309 102 306 103 296 86 294 82 301 101 303 107 287 88 297 105 303 116 289 102 281 95 292 111 300 122 287 110 298 127 303 136 287 128 303 147 287 141 301 160 287 153 300 168 289 169 303 187 283 183 282 183 300 196 286 191 299 211 287 201 300 219 289 216 293 236 296 247 289 231 301 237 281 250 289 243 296 231 301 248 298 228 297 224 297 203 296 194 300 183 311 182 325 188 343 196 335 201 337 184 357 170 365 149 366 133 364 118 358 105 348 94 341 90 317 101 314 96 295 104 286 93 296 74 277 87 296 76 298 77 268 97 281 90 300 81 299 81 268 101 302 84 284 95 274 102 302 86 304 88 278 105 287 100 306 91 305 92 280 108 308 95 290 105 280 113 308 97 311 95 314 96 329 85 344 71 320 88 342 75 347 74 312 95 314 96 317 101 299 114 294 133 293 149 294 165 295 181 273 196 300 180 307 192 308 194 292 205 293 221 291 238 299 250 304 258 312 252 307 255 301 256 310 248 295 254 304 249 308 245 286 255 308 240 301 244 273 258 282 252 307 236 274 253 298 239 307 231 279 247 278 246 307 227 295 234 280 240 306 223 280 236 292 229 306 218 280 231 306 213 289 223 280 226 307 208 304 210 281 221 286 218 306 204 280 217 301 205 306 200 283 213 280 212 305 198 308 194 322 188 307 199 335 183 337 179 316 191 306 197 308 194 318 181 335 178 298 200 281 207 332 178 332 175 313 186 280 203 295 194 330 172 329 173 280 198 310 181 326 170 292 189 281 193 322 167 307 176 280 192 273 196 305 170 275 195 270 195 289 184 319 164 271 192 269 191 304 171 315 162 286 179 271 185 310 160 301 165 280 176 283 174 308 157 279 171 298 160 308 152 280 166 308 148 295 155 281 161 307 143 280 157 292 150 307 139 280 152 308 134 289 145 281 147 306 130 305 131 280 143 286 139 307 125 281 138 302 126 308 120 283 134 281 133 308 115 299 121 280 129 311 109 280 125 296 116 319 102 317 101 349 76 326 89 280 118 293 110 345 80 352 79 311 102 281 122 329 94 354 80 341 90 340 97 327 98 348 86 356 83 333 98 359 86 351 91 336 101 362 89 340 104 354 96 364 92 343 107 366 96 357 101 346 110 368 99 348 113 360 106 370 103 350 116 372 106 363 111 352 120 373 110 354 123 366 117 375 113 356 127 376 118 369 122 356 132 376 122 357 136 372 127 375 127 356 141 376 132 375 132 357 145 375 137 359 146 357 149 374 142 356 154 362 151 374 147 356 159 372 152 365 156 353 166 371 158 348 173 368 161 369 164 346 177 337 184 327 196 310 200 353 175 364 171 319 197 314 202 338 188 361 177 356 180 319 204 322 202 352 187 341 193 322 204 330 202 337 198 339 199 325 205 348 192 344 196 337 198 343 196 339 197 343 196 "/>
    <path id="Block2Jump9"
        fill="none"
        stroke="#ED171F"
		stroke-width="2px"
		d="M 343 196 L "/>
    <path id="Block2Jump10"
        fill="none"
        stroke="#ED171F"
		stroke-width="2px"
		d="M 413 189 L 413 197 409 193 417 193 413 189 398 176 393 157 388 138 388 118 395 99 405 82 422 72 442 75 458 86 458 106 442 118 426 130 411 142 404 142 419 129 434 116 436 96 432 92 428 84 408 84 399 102 397 122 397 127 399 134 406 152 419 167 438 174 455 164 453 184 436 195 416 192 414 191 412 171 411 164 402 149 412 138 424 128 438 117 449 109 466 95 454 85 459 101 449 84 446 78 450 98 451 104 431 86 447 95 439 77 438 74 435 86 423 71 426 78 418 74 411 80 405 85 400 91 397 99 391 107 397 126 388 119 399 138 391 137 404 154 395 158 407 162 407 182 407 183 398 167 416 186 416 169 421 188 423 193 423 173 430 191 432 195 432 175 432 173 440 191 440 176 447 185 447 174 454 180 452 170 459 172 459 164 469 160 437 176 425 180 408 174 399 163 411 140 422 129 394 143 392 128 392 112 399 94 415 82 428 77 441 85 452 95 457 99 437 111 472 98 422 126 417 127 456 105 473 92 438 113 434 113 442 108 457 99 444 100 443 108 471 91 470 89 453 99 439 105 467 86 435 103 450 94 464 84 433 99 460 82 447 89 430 96 456 79 428 93 444 84 453 76 425 90 449 74 441 79 423 87 445 72 420 84 438 73 440 70 420 82 417 83 415 82 422 69 403 82 434 67 417 77 395 91 435 68 439 68 401 90 393 95 399 94 391 105 390 99 406 92 387 105 404 95 404 98 385 111 389 109 400 104 385 116 400 109 392 114 385 120 400 114 385 125 395 119 400 118 384 130 400 123 398 124 384 134 401 127 384 139 402 131 385 143 386 143 404 135 385 148 403 137 422 129 397 150 385 150 389 148 441 118 450 115 407 140 385 155 425 132 431 130 392 153 386 159 410 145 409 148 386 163 395 158 409 152 388 167 411 156 398 164 389 171 414 159 390 175 401 169 417 162 392 178 420 165 404 174 394 182 424 167 397 185 407 179 428 169 425 171 399 188 436 169 410 184 401 192 428 176 448 167 446 168 403 193 437 176 461 159 463 151 471 149 462 154 457 159 471 154 452 164 437 176 442 189 436 199 440 197 458 184 425 201 455 183 464 176 437 192 418 201 419 200 467 170 452 178 412 199 434 187 469 164 468 165 416 195 409 197 449 173 471 158 431 181 404 195 413 190 465 160 471 156 470 160 466 162 468 161 467 162 469 160 "/>
    <path id="Block2Jump11"
        fill="none"
        stroke="#ED171F"
		stroke-width="2px"
		d="M 546 181 L 581 191 581 199 577 195 585 195 581 191 565 177 558 158 553 139 547 120 543 100 539 80 534 61 527 42 517 25 527 8 543 20 547 40 550 60 555 79 560 98 566 117 573 136 579 155 587 173 606 168 615 149 624 131 632 113 638 94 639 74 631 56 620 40 618 19 635 8 649 23 643 42 651 60 650 80 648 86 640 68 632 50 623 31 636 45 650 61 641 43 631 25 626 15 633 34 640 53 646 69 646 89 638 108 631 127 622 145 613 163 604 181 595 199 587 217 576 234 560 245 540 246 532 228 552 230 572 227 585 211 585 194 581 174 579 164 566 149 557 138 570 140 556 126 549 120 566 121 554 105 545 93 560 103 550 86 540 69 554 77 542 61 532 48 549 59 536 43 527 31 543 39 526 28 516 22 536 22 540 22 527 13 533 32 538 47 544 66 549 83 554 102 558 117 563 137 566 150 564 162 577 182 597 188 590 207 589 209 580 225 568 233 554 243 538 228 543 242 533 234 553 238 563 240 576 229 585 216 591 197 593 193 602 179 608 167 616 164 607 168 619 145 628 123 638 102 644 82 646 65 639 52 632 41 625 28 631 23 645 17 653 26 647 27 655 21 646 23 653 17 644 20 651 13 639 20 631 23 626 9 632 4 627 7 617 15 638 5 613 22 630 12 643 7 612 27 615 25 647 9 633 17 611 32 650 12 618 30 611 34 625 28 632 41 639 52 646 65 644 82 638 102 628 123 619 145 607 168 591 180 581 183 573 172 568 158 563 145 558 132 556 117 552 103 549 88 546 74 542 60 539 46 534 32 526 21 525 5 519 6 534 0 513 15 533 3 539 2 501 26 517 17 542 5 536 8 499 32 502 30 544 8 520 22 508 31 539 14 546 12 515 32 523 27 547 16 542 19 517 36 548 20 526 32 519 39 545 24 549 24 520 43 529 38 551 27 548 29 522 46 552 31 532 43 523 50 551 34 553 35 524 54 535 48 554 40 525 58 556 43 538 53 526 62 556 48 527 66 541 58 557 52 529 70 558 56 544 64 530 74 559 59 532 78 547 69 559 64 533 82 561 68 550 74 533 86 561 72 535 87 534 90 553 79 562 76 535 94 538 93 563 80 556 84 536 99 563 85 541 98 537 102 559 89 565 89 538 106 544 103 566 93 562 95 539 110 567 97 547 108 540 114 565 100 567 101 541 118 550 113 568 105 542 123 568 110 553 119 543 127 570 113 544 131 556 124 572 117 544 135 573 121 559 129 544 140 574 125 545 144 562 134 575 129 547 148 575 133 565 139 548 152 577 137 550 153 549 156 568 145 579 140 550 159 553 158 580 144 571 150 551 163 582 148 556 163 553 167 574 155 583 152 554 171 559 168 584 156 577 160 556 174 586 160 562 174 558 178 580 165 588 163 560 181 565 179 590 167 583 171 562 185 592 170 568 184 564 188 586 176 596 172 566 192 571 189 597 174 591 180 592 195 584 216 561 232 546 238 534 229 535 212 537 211 540 212 531 219 542 215 540 216 528 225 544 219 526 231 543 221 546 222 523 237 528 235 550 224 546 226 520 244 555 226 531 240 524 246 549 232 561 227 527 249 534 245 566 227 561 232 575 240 548 253 558 247 584 230 541 252 573 234 588 223 555 242 534 252 537 250 589 220 592 216 570 229 529 250 552 237 594 213 584 216 585 208 573 223 586 215 597 206 578 215 601 199 583 210 582 208 603 193 598 196 581 204 605 188 578 201 595 191 608 182 575 198 611 175 592 186 572 195 574 194 613 169 607 173 568 193 589 181 614 166 607 168 619 145 628 123 638 102 644 82 646 65 639 52 632 41 612 36 636 22 639 23 614 40 621 36 641 26 639 27 616 43 643 30 624 41 618 47 642 33 645 33 620 50 627 46 647 37 645 38 622 53 649 40 630 51 624 57 648 43 651 43 626 60 633 56 654 46 651 48 628 64 656 50 636 62 630 67 654 53 657 54 632 71 639 67 659 58 657 59 633 75 658 63 642 72 633 79 657 67 633 84 645 77 656 73 634 88 654 78 648 82 633 93 652 84 632 98 650 90 630 104 635 101 648 96 627 111 645 102 638 106 624 116 642 109 622 122 640 115 620 128 626 125 636 121 617 135 633 128 629 130 613 141 631 134 614 144 611 147 629 140 608 154 617 149 625 146 605 160 622 152 620 154 601 167 618 159 604 167 597 174 617 162 617 164 611 167 613 165 609 166 615 165 "/>
    <path id="Block2Jump12"
        fill="none"
        stroke="#ED171F"
		stroke-width="2px"
		d="M 615 165 L "/>
    <path id="Block2Jump13"
        fill="none"
        stroke="#ED171F"
		stroke-width="2px"
		d="M 690 200 L 690 208 686 204 694 204 690 200 674 187 664 169 658 150 659 130 664 111 676 95 691 82 711 83 728 93 739 110 745 129 748 149 748 170 736 187 723 202 704 207 692 191 693 177 709 190 729 187 739 170 738 150 729 132 718 116 704 101 684 97 670 112 669 132 676 151 685 169 690 173 684 191 681 172 679 163 678 183 677 185 686 172 693 191 697 202 697 183 706 201 707 204 708 192 715 201 716 191 721 197 702 198 684 183 674 180 674 160 674 156 668 171 663 152 661 143 671 152 663 134 661 129 668 133 666 117 669 103 679 94 684 88 691 94 693 84 702 99 704 83 711 101 713 105 713 86 719 105 723 118 723 98 722 92 727 111 732 131 732 132 732 112 731 100 734 120 737 140 738 143 739 123 740 120 744 140 747 151 740 148 747 167 741 164 741 175 735 185 727 194 723 193 717 197 722 206 716 208 718 191 703 197 689 189 680 179 672 167 666 154 663 140 664 123 668 111 689 97 702 92 717 99 726 111 734 122 739 135 743 149 743 165 749 171 732 178 740 174 751 165 735 172 752 160 737 169 736 167 753 155 736 162 752 151 736 158 750 150 753 146 735 154 753 141 747 145 733 150 752 137 731 146 744 139 751 133 729 143 750 129 741 134 727 140 748 125 725 136 738 129 747 121 723 133 746 117 735 124 721 129 745 113 719 126 732 119 743 110 717 123 741 107 729 114 715 119 739 103 712 116 726 108 737 100 710 113 735 96 723 103 706 110 732 93 703 107 720 98 730 90 701 106 698 105 727 87 717 93 694 103 698 101 723 84 688 102 714 88 720 81 695 96 684 102 689 97 678 87 701 76 668 97 689 85 708 77 664 104 674 99 715 78 692 91 661 111 711 82 718 80 677 104 660 114 668 111 659 123 659 117 673 111 662 118 657 123 671 116 656 128 665 123 671 121 654 133 671 126 668 128 653 139 671 130 653 143 671 133 672 134 654 148 655 147 673 139 653 153 675 142 658 152 654 157 677 146 654 161 661 157 679 149 655 165 681 153 664 162 657 168 683 156 659 172 667 167 685 160 660 176 688 163 670 173 662 180 690 166 664 183 673 178 692 169 666 187 695 172 676 183 668 190 695 175 698 175 670 194 679 188 701 178 698 180 673 197 705 180 682 193 675 200 701 185 709 183 678 203 685 199 712 185 704 190 683 205 717 187 688 204 688 206 707 195 720 188 718 191 707 204 689 208 725 187 747 177 743 179 693 210 710 201 743 184 728 192 699 212 737 192 713 206 706 212 731 198 723 204 709 212 723 206 716 207 721 206 718 205 721 206 "/>
    <path id="Block2Jump14"
        fill="none"
        stroke="#ED171F"
		stroke-width="2px"
		d="M 721 206 L "/>
    <path id="Block2Jump15"
        fill="none"
        stroke="#ED171F"
		stroke-width="2px"
		d="M 797 212 L 797 220 793 216 801 216 797 212 782 197 776 178 776 158 777 138 776 118 765 107 782 95 791 113 792 133 792 153 792 173 797 192 813 204 832 198 837 179 837 159 837 139 837 119 854 108 851 128 851 148 852 168 852 188 856 208 848 226 839 208 834 203 826 205 817 211 809 216 797 213 794 192 793 189 799 208 800 210 786 197 792 196 781 180 778 175 789 179 778 162 789 167 780 149 778 146 789 150 779 133 789 136 778 120 789 124 777 111 789 116 771 105 789 107 780 99 786 96 778 113 789 128 780 139 787 156 779 169 792 187 779 188 798 199 792 203 806 204 809 210 817 207 826 202 836 199 853 203 840 187 850 192 840 173 850 178 840 161 850 163 839 143 850 155 842 137 840 132 849 139 841 121 840 118 849 126 840 110 851 115 847 112 852 110 842 122 849 130 842 149 840 153 850 169 842 180 851 198 840 197 853 209 844 209 850 222 851 213 856 219 871 220 859 228 854 220 846 208 842 202 815 217 823 201 805 209 792 200 784 188 782 174 781 158 783 141 784 124 782 109 774 98 775 94 760 106 789 91 776 98 759 111 791 94 766 112 779 104 793 98 768 115 795 102 782 109 770 118 796 106 770 123 785 114 798 109 769 128 770 127 798 114 788 119 770 132 797 119 773 133 770 137 791 124 796 124 770 141 776 138 796 129 794 130 769 146 796 134 779 143 769 151 795 139 770 155 782 148 793 144 769 160 793 149 785 153 770 165 793 153 770 167 770 169 788 159 793 158 770 174 773 172 794 162 791 164 770 178 795 166 776 177 770 183 794 171 770 188 779 183 795 175 771 191 796 180 782 188 773 195 798 183 775 198 785 193 800 187 777 202 802 190 788 198 779 205 804 194 783 208 791 203 806 197 786 211 809 199 794 208 788 214 816 200 790 218 797 214 821 200 823 201 841 188 844 170 843 154 843 138 846 121 840 108 832 96 827 102 836 98 829 105 839 101 831 109 845 103 832 113 850 104 849 105 833 117 861 103 834 118 833 121 852 110 862 107 833 126 837 123 859 113 855 115 832 131 858 118 840 129 832 135 858 123 832 140 843 134 855 129 832 145 856 134 846 139 832 149 855 138 833 154 849 144 855 143 833 158 834 158 856 147 852 149 832 163 856 152 837 163 833 168 855 155 856 156 833 172 840 168 855 161 833 177 856 166 843 173 832 182 855 171 833 186 846 178 855 175 831 191 855 180 849 184 827 196 823 201 840 198 855 182 815 205 793 221 833 197 855 187 852 189 800 219 796 224 818 211 855 191 836 202 803 224 811 220 811 219 819 215 842 202 840 210 829 209 855 194 855 196 834 211 839 208 856 200 834 215 858 204 842 213 836 218 860 207 838 222 845 218 863 210 840 225 867 213 848 223 842 229 867 215 871 215 844 232 851 228 871 217 864 226 859 226 861 227 854 231 853 232 846 234 870 220 872 219 872 220 869 221 872 220 871 219 872 220 869 220 872 220 869 220 872 220 "/>
    <path id="Block2Jump16"
        fill="none"
        stroke="#ED171F"
		stroke-width="2px"
		d="M 872 220 L 895 236 895 244 891 240 899 240 895 236 896 216 896 196 896 176 895 156 890 136 910 136 930 131 946 144 946 159 940 163 937 169 932 150 913 156 912 176 912 196 912 216 913 236 893 239 895 234 899 235 897 226 905 236 898 219 910 235 913 240 904 222 898 209 910 219 900 202 898 198 911 207 901 190 897 183 910 191 897 171 910 182 900 165 897 160 910 169 897 150 910 162 900 145 896 139 910 154 910 140 897 122 905 138 893 127 891 134 886 131 903 142 911 147 916 145 922 141 929 144 928 136 938 155 938 163 942 157 933 139 931 134 944 153 937 136 947 148 951 149 937 143 926 141 919 143 913 145 898 156 908 173 910 177 898 191 910 201 897 204 907 221 910 226 910 234 921 247 920 252 911 242 900 231 903 213 904 197 903 181 903 165 903 163 918 152 914 142 903 147 898 133 887 123 894 115 899 114 875 130 879 128 901 118 897 120 878 133 904 121 882 134 882 136 900 125 907 124 885 139 909 127 903 130 888 142 911 130 890 145 906 136 913 134 892 149 915 137 909 141 892 153 915 140 914 142 926 134 923 133 936 128 927 133 916 139 914 142 918 152 935 144 944 155 933 175 939 170 933 171 945 164 954 157 933 166 956 151 942 159 933 162 954 147 932 158 939 153 951 144 931 153 949 141 936 148 927 151 946 138 925 150 918 152 891 156 894 154 940 130 912 146 891 160 930 138 943 133 897 160 891 165 915 151 945 136 933 143 891 167 903 163 910 166 916 155 900 165 891 172 916 160 891 176 903 170 916 165 891 181 916 169 906 175 892 185 916 174 891 190 909 180 917 178 892 195 893 194 917 182 912 186 892 199 917 187 896 199 892 204 915 191 917 192 891 209 899 204 917 196 891 214 916 201 902 209 891 218 916 206 891 223 905 215 916 211 892 227 915 216 908 220 887 234 916 220 893 233 885 240 911 225 917 224 886 244 896 238 916 229 914 230 897 242 916 234 902 244 917 238 906 246 919 241 911 248 921 244 913 249 917 252 917 249 918 254 923 248 914 251 922 247 916 246 920 246 918 246 921 247 "/>
    <path id="Block2Jump17"
        fill="none"
        stroke="#ED171F"
		stroke-width="2px"
		d="M 857 295 L "/>
    <path id="Block2Jump18"
        fill="none"
        stroke="#ED171F"
		stroke-width="2px"
		d="M 281 727 L "/>
    <path id="Block2Jump19"
        fill="none"
        stroke="#ED171F"
		stroke-width="2px"
		d="M 214 773 L 214 772 219 772 219 780 215 776 223 776 219 772 233 758 243 741 244 721 242 701 235 682 253 674 262 692 261 712 261 732 261 752 266 771 281 784 295 797 312 808 331 802 342 785 350 767 351 747 350 727 346 707 338 688 327 671 313 656 295 648 275 646 255 648 235 652 215 652 199 640 191 622 201 639 219 648 239 645 258 640 277 635 297 631 316 637 334 646 350 658 359 676 366 695 368 715 369 735 364 754 357 773 347 790 335 806 319 818 299 821 283 810 269 796 261 814 261 834 261 854 241 855 244 835 244 815 242 795 242 775 225 764 219 773 222 763 229 759 239 761 252 777 258 785 253 804 248 819 254 838 261 857 248 841 258 837 250 824 257 820 250 801 246 789 258 805 253 786 248 766 246 757 259 766 252 747 248 735 259 742 252 723 247 712 258 722 250 704 241 685 258 705 251 685 259 692 259 677 248 697 251 717 253 728 253 748 254 753 255 773 267 789 270 794 268 777 277 795 283 807 280 787 280 786 290 803 299 819 294 800 293 798 311 814 311 806 321 812 336 801 348 781 357 763 354 743 353 738 364 746 356 728 352 719 368 732 358 715 347 697 367 712 354 697 338 678 355 689 364 694 349 681 334 668 317 654 335 663 353 671 357 673 341 662 325 651 308 640 301 635 319 644 337 652 345 656 325 652 305 648 298 646 286 637 266 641 255 643 275 643 285 642 305 642 324 643 335 659 347 675 350 680 355 699 357 707 359 727 360 734 357 751 354 771 360 779 341 792 322 805 304 813 290 805 280 795 264 801 260 788 253 775 249 761 247 758 238 761 238 754 252 744 252 728 251 712 252 695 255 677 261 667 241 679 232 672 231 672 223 680 239 672 225 683 234 678 250 671 228 686 254 671 261 667 244 684 254 671 276 660 237 683 231 689 256 675 277 664 274 666 233 692 240 688 272 672 259 680 235 696 271 677 243 693 236 700 262 685 268 684 238 703 246 698 266 689 265 690 238 708 267 694 249 704 237 713 266 699 238 717 252 709 265 704 238 722 266 708 255 714 238 726 266 713 240 728 237 731 258 719 266 717 238 736 243 733 266 721 261 724 238 740 267 726 246 738 237 745 264 730 267 730 238 750 249 743 266 735 238 752 238 754 223 760 226 757 212 767 215 765 235 753 238 754 238 761 219 774 223 779 214 781 226 773 221 775 212 778 226 770 238 761 266 738 234 757 211 772 252 748 267 742 218 770 211 776 237 762 266 745 247 758 252 771 258 784 263 797 264 801 251 811 251 827 249 845 256 857 266 867 266 872 272 866 262 870 271 862 257 868 269 858 253 866 267 855 249 863 266 853 266 851 248 861 240 864 266 846 263 848 236 861 245 856 266 842 233 858 260 843 266 837 242 851 231 855 267 832 257 838 235 848 239 846 267 828 237 842 254 832 266 823 237 838 266 819 251 827 237 833 266 814 238 828 248 822 265 810 237 824 264 809 266 805 245 817 237 819 265 803 264 801 260 788 253 775 249 761 266 747 255 754 233 769 266 752 240 767 235 772 258 759 266 756 237 775 243 772 266 761 261 764 238 780 268 764 246 777 238 784 264 769 271 767 237 789 249 783 275 770 267 774 237 794 278 773 252 788 238 798 270 779 281 775 237 803 255 793 285 778 273 785 237 808 239 806 288 781 258 798 238 812 276 790 291 784 242 812 237 817 261 803 292 785 280 795 277 803 266 803 279 795 295 788 269 806 298 791 282 800 272 808 302 793 274 811 285 805 306 796 303 797 276 815 310 798 288 811 280 817 306 802 312 801 283 820 291 816 317 803 309 808 286 823 322 802 322 805 320 822 317 826 330 816 318 823 305 828 340 806 334 810 298 828 315 818 346 798 297 826 292 827 331 805 352 790 312 813 289 824 294 821 346 791 355 786 341 792 349 787 358 782 328 799 332 795 361 778 355 774 348 783 357 762 359 744 360 727 358 712 355 698 349 685 343 672 334 662 323 652 308 644 287 640 255 643 215 650 200 642 194 629 190 615 188 605 184 609 191 608 186 613 194 611 186 618 196 614 187 622 198 618 188 626 199 622 189 630 199 626 190 634 199 631 192 637 201 634 194 641 203 638 196 644 206 641 198 648 209 644 201 651 213 646 205 653 222 645 209 655 240 640 219 652 214 657 238 643 261 632 256 635 220 658 222 657 278 627 241 649 226 659 259 640 287 627 277 632 235 659 244 654 295 627 262 646 248 656 280 637 301 628 298 629 259 654 265 651 307 628 283 642 274 650 301 634 314 629 280 651 286 648 319 631 304 639 286 653 324 633 289 653 291 654 307 645 328 635 326 636 296 656 332 637 310 650 301 658 329 642 336 640 305 660 313 655 340 642 332 647 309 662 343 645 316 660 312 665 335 652 346 648 315 668 319 665 349 651 338 657 318 671 352 654 322 671 321 674 341 662 354 657 324 677 325 676 356 661 344 668 326 680 359 663 328 681 328 684 347 673 360 667 330 687 331 686 362 671 350 678 332 691 364 674 334 691 334 694 353 683 366 678 336 698 337 697 368 681 356 688 338 701 369 685 340 702 339 705 359 693 371 689 340 709 343 707 371 693 362 699 341 713 372 698 346 712 342 717 365 704 373 702 343 721 349 717 374 706 368 709 345 725 374 710 352 723 346 729 371 714 374 715 346 733 355 728 375 719 374 719 345 738 375 723 358 733 346 743 373 729 347 747 361 738 374 733 346 752 373 738 364 743 346 756 373 743 349 757 345 762 367 749 371 749 344 767 352 762 370 754 342 772 369 759 355 767 341 778 367 765 340 781 339 783 358 772 364 771 335 790 343 786 362 775 361 779 352 782 359 779 356 781 359 779 "/>
    <path id="Block2Jump20"
        fill="none"
        stroke="#ED171F"
		stroke-width="2px"
		d="M 359 779 L 410 833 410 841 406 837 414 837 410 833 394 819 388 800 387 780 391 760 399 741 412 726 430 719 450 724 469 731 467 751 467 771 466 791 466 811 479 826 465 841 452 826 433 832 421 818 447 816 450 796 451 776 458 757 443 743 429 730 410 736 401 754 400 763 400 779 405 799 417 815 414 832 412 813 411 809 408 826 404 806 402 799 400 819 394 800 389 787 400 788 393 769 391 766 398 772 397 752 397 751 400 752 403 740 409 732 417 726 424 722 433 732 433 720 443 737 447 743 441 724 439 719 449 736 455 746 450 727 448 721 459 738 464 747 461 732 467 739 471 733 461 745 464 758 461 756 464 771 459 764 464 784 455 776 463 792 453 785 463 804 452 797 462 814 452 810 456 827 463 836 464 822 471 831 472 823 478 827 459 822 450 819 442 821 434 826 426 822 428 832 414 815 421 834 431 825 439 822 452 817 461 822 472 826 487 827 466 843 464 828 459 820 441 827 437 821 420 828 407 819 400 807 393 795 392 780 394 762 400 745 419 732 433 726 448 733 453 738 479 723 463 748 458 767 458 783 457 800 446 813 470 797 445 809 460 800 470 792 445 804 471 787 457 795 446 799 471 783 445 795 454 790 470 778 446 790 469 776 470 774 451 785 446 786 470 769 466 771 445 781 448 780 470 765 446 776 463 766 470 760 448 770 471 755 460 761 452 764 471 750 455 757 457 756 472 745 454 753 474 739 454 751 446 753 480 731 470 737 442 751 451 745 482 725 439 748 467 732 485 719 473 726 453 738 455 729 469 728 448 740 436 745 465 726 464 727 433 742 445 735 461 724 430 739 456 722 442 730 427 736 452 719 422 735 439 725 449 717 421 733 418 734 419 732 416 722 438 712 433 714 398 737 400 736 444 713 418 728 394 744 436 719 447 716 403 741 391 748 400 745 391 757 389 751 410 742 386 758 406 746 408 747 383 764 390 760 407 752 382 769 406 758 393 765 381 774 404 763 382 779 396 770 403 768 380 784 381 784 404 773 399 775 380 789 405 777 384 789 380 794 402 781 404 782 381 797 387 794 406 785 405 786 381 802 407 789 390 799 382 806 409 793 384 809 393 804 411 796 386 813 413 800 396 810 388 817 415 803 390 820 399 815 417 806 392 824 420 809 402 820 394 827 420 812 423 812 396 831 405 825 426 815 423 817 398 834 431 817 408 830 400 837 426 822 440 817 402 838 437 821 441 827 426 839 425 841 414 845 437 832 441 827 404 840 411 836 463 806 469 804 429 827 408 842 448 819 469 809 466 811 414 841 412 844 432 832 470 810 459 820 456 828 446 827 451 824 472 814 469 816 449 830 474 817 454 829 451 833 472 821 477 820 453 837 457 835 482 822 475 826 455 840 487 824 460 840 456 842 464 842 472 835 460 846 463 845 484 830 457 844 478 832 488 826 488 827 483 828 485 827 483 828 486 827 "/>
    <path id="Block2Jump21"
        fill="none"
        stroke="#ED171F"
		stroke-width="2px"
		d="M 486 827 L 544 832 527 820 516 803 516 797 516 777 516 757 513 737 521 719 530 737 530 757 530 777 531 798 544 814 562 806 572 789 574 769 573 749 564 731 574 714 588 728 591 748 591 768 593 788 602 806 621 801 630 783 637 764 637 744 628 727 627 707 646 713 649 733 645 754 637 773 628 791 618 808 609 826 590 821 576 808 561 821 547 835 544 835 543 816 542 814 525 803 519 799 530 797 518 784 528 782 516 771 528 772 516 757 528 760 516 745 527 749 514 735 527 739 513 728 528 730 519 722 527 723 517 737 527 754 518 774 529 792 522 811 532 803 527 816 535 809 531 824 533 806 538 826 538 827 539 812 547 828 546 816 553 825 554 817 561 819 561 810 564 810 570 799 574 802 574 795 585 812 605 826 594 810 591 805 580 788 577 783 588 788 577 773 590 774 579 759 590 763 576 748 590 751 575 739 588 741 571 730 587 732 577 717 579 725 569 721 562 726 580 735 588 746 577 765 590 778 577 790 581 807 590 794 588 815 595 821 595 804 601 824 602 810 607 823 607 813 612 816 613 812 619 805 624 797 629 786 635 774 642 758 639 750 645 750 639 738 648 739 634 727 648 730 646 715 635 705 642 721 629 710 631 726 622 718 637 721 642 733 643 745 640 761 637 768 633 778 626 792 621 800 617 809 610 819 612 826 606 832 605 816 605 814 621 802 632 780 640 759 644 741 640 727 630 716 636 697 625 705 641 698 613 717 627 709 644 701 609 724 612 722 647 704 630 714 612 727 650 707 618 728 633 719 652 711 621 730 653 715 636 724 626 732 654 719 629 735 639 729 654 723 631 739 654 728 642 735 633 742 654 733 633 747 645 740 653 738 633 751 653 742 648 745 633 756 651 748 632 761 649 754 632 766 636 764 647 760 631 771 644 766 639 769 629 777 642 772 626 784 640 778 622 790 627 788 635 785 618 797 631 792 630 793 616 803 628 798 615 806 605 814 599 815 587 806 585 803 563 813 562 811 540 821 529 812 523 799 522 784 522 767 522 751 521 735 514 724 525 713 502 728 518 719 528 715 496 736 502 732 530 718 521 724 502 737 532 722 505 737 507 739 524 729 533 726 509 742 533 731 527 734 511 746 533 735 512 750 530 740 533 740 511 755 514 753 534 744 533 745 512 759 534 749 517 758 511 764 534 753 512 768 520 763 534 758 511 773 534 763 523 769 511 778 533 768 512 782 526 774 533 772 511 787 533 777 529 779 510 792 532 782 514 792 511 797 533 786 510 802 517 798 534 790 511 806 536 794 520 803 512 810 538 797 514 814 523 808 540 801 516 817 543 804 526 813 518 820 545 807 520 824 529 818 549 809 547 810 522 827 553 812 532 824 525 830 550 815 555 813 562 811 576 800 582 781 583 764 583 748 580 734 567 725 577 708 564 717 581 710 555 727 584 713 566 723 549 735 585 715 587 716 551 736 553 738 569 728 589 719 588 720 559 739 591 722 572 733 564 741 591 725 593 726 567 744 575 739 595 730 594 730 569 747 595 734 578 744 571 751 596 738 570 756 581 749 596 743 570 760 596 747 584 754 571 764 597 752 570 769 587 759 596 757 571 773 572 773 596 761 590 765 571 778 596 766 575 778 570 783 593 770 595 771 569 789 578 783 596 775 567 794 597 779 581 788 564 801 596 784 566 802 559 808 584 794 597 788 556 812 562 811 563 813 550 823 553 837 541 841 558 829 541 839 537 840 564 821 556 826 533 837 538 834 569 814 530 834 553 821 570 811 563 813 597 791 569 807 528 833 535 829 587 799 598 792 585 803 595 803 599 794 572 812 601 798 590 804 575 815 604 801 577 819 593 809 608 803 579 822 612 805 596 814 583 824 614 806 605 814 613 816 625 802 587 827 599 820 622 809 617 811 591 829 620 814 602 825 595 831 616 821 597 832 602 832 605 830 610 829 599 834 605 830 612 826 613 826 609 830 613 826 610 828 613 826 "/>
    <path id="Block2Jump22"
        fill="none"
        stroke="#ED171F"
		stroke-width="2px"
		d="M 613 826 L "/>
    <path id="Block2Jump23"
        fill="none"
        stroke="#ED171F"
		stroke-width="2px"
		d="M 684 805 L 684 813 680 809 688 809 684 805 678 805 672 801 667 793 671 773 678 792 695 802 713 794 724 778 733 761 736 741 723 726 707 738 704 758 684 756 672 741 670 721 675 702 687 686 704 676 714 676 722 677 738 665 732 685 716 697 696 694 678 702 676 722 691 735 710 728 722 712 740 703 750 720 750 740 743 759 734 777 722 793 706 805 686 807 684 807 671 797 676 785 672 776 679 773 678 780 670 780 678 792 669 788 678 801 686 805 691 808 697 805 701 805 704 800 712 800 715 794 722 791 726 781 733 778 730 773 738 769 734 763 742 761 737 752 745 750 737 743 747 743 736 736 750 733 733 729 750 724 730 724 750 715 739 705 747 711 730 709 745 717 725 715 723 714 726 724 717 721 719 726 706 734 704 743 695 738 703 757 689 738 693 756 684 738 681 732 684 751 677 732 676 730 675 742 673 722 672 732 673 712 678 699 684 691 693 690 692 683 703 693 700 680 711 695 706 679 717 696 714 677 722 694 722 679 726 690 726 680 730 683 733 673 736 671 722 686 712 685 704 685 693 686 682 692 676 703 673 716 676 731 679 748 686 736 689 754 693 737 697 756 700 737 706 737 714 727 728 717 731 714 737 719 744 730 744 740 741 758 736 768 728 782 729 787 709 796 725 784 738 761 743 742 742 726 738 722 715 732 711 726 683 739 674 729 673 713 676 702 697 687 705 685 710 685 716 684 736 669 742 661 734 669 740 667 733 671 716 684 720 697 726 696 711 703 732 688 712 700 704 702 735 682 728 686 700 700 709 694 738 676 694 698 725 681 739 670 706 689 692 697 710 685 699 691 689 697 725 674 722 676 685 697 697 687 697 679 678 692 700 679 716 672 674 699 685 692 722 673 703 684 672 702 676 702 670 712 669 706 670 706 680 702 667 712 679 707 673 711 667 717 678 712 666 722 676 716 679 716 665 727 679 721 666 731 681 725 666 735 682 726 685 727 667 739 690 729 685 732 668 743 694 731 670 747 688 737 696 732 711 726 729 713 717 713 737 702 746 698 711 721 721 715 751 700 740 707 707 725 711 726 715 732 694 747 701 759 708 760 695 765 708 755 690 763 700 758 706 751 685 761 707 746 697 752 680 760 709 740 676 757 694 747 713 736 715 732 678 746 671 749 706 729 754 703 724 720 673 752 691 742 743 712 755 707 709 734 675 756 727 725 755 709 738 722 749 722 755 712 746 717 725 731 755 716 730 731 728 734 749 722 756 721 730 738 733 736 755 726 752 728 732 741 755 730 736 741 732 746 755 735 731 751 739 746 752 741 732 755 752 746 742 751 731 760 749 752 729 766 745 757 747 758 726 773 730 770 745 764 721 780 742 770 733 775 715 788 738 777 718 789 712 792 709 796 691 804 674 798 672 783 680 766 665 778 684 769 666 779 663 784 684 771 683 774 662 789 669 785 682 779 662 793 681 784 672 790 663 797 681 789 665 800 675 795 682 793 667 804 686 796 678 800 670 807 690 798 674 809 681 805 695 800 679 811 703 797 709 796 723 795 689 812 721 794 731 786 702 802 681 812 684 811 736 781 737 780 730 787 723 793 730 787 726 791 730 787 "/>
    <path id="Block2Jump24"
        fill="none"
        stroke="#ED171F"
		stroke-width="2px"
		d="M 479 459 L " />
</svg>
