<?xml version="1.0" encoding="UTF-8" standalone="no"?>
<svg xmlns="http://www.w3.org/2000/svg" version="1.1" width="881" height="709">
    <path id="Block1Jump0"
        fill="none"
        stroke="#000000"
		stroke-width="2px"
		d="M 174 40 L 174 40 167 49 156 68 144 89 136 111 135 134 138 145 144 154 153 163 163 168 185 174 207 180 230 186 237 195 238 207 235 221 228 232 219 237 208 239 197 236 191 232 190 229 195 220 200 211 202 205 200 198 189 203 187 204 188 192 179 192 174 195 166 204 162 215 161 226 164 238 169 247 177 254 186 260 198 264 209 265 231 261 242 255 250 248 261 229 265 206 260 183 254 173 247 165 225 156 204 151 183 146 172 143 166 138 163 134 162 129 163 113 169 96 180 78 188 65 201 50 215 38 229 31 240 29 247 30 252 34 260 43 265 54 266 67 264 79 260 86 255 88 241 92 236 96 232 104 243 109 236 118 234 119 237 122 241 125 247 127 258 125 269 120 277 112 288 92 293 70 290 47 281 26 264 10 254 5 243 3 220 6 199 16 181 31 174 40 189 42 207 31 230 17 255 20 272 38 276 51 279 63 274 90 255 100 231 112 235 122 231 111 234 114 232 103 239 127 235 95 244 129 241 111 238 91 247 130 242 89 249 119 251 130 248 110 245 88 248 99 255 129 246 88 256 118 259 128 253 109 247 88 251 98 263 126 254 103 266 124 258 107 251 91 270 122 255 93 274 119 263 103 277 117 256 91 280 114 268 101 258 91 282 110 256 85 284 107 272 97 258 85 286 103 259 84 289 98 260 82 290 94 279 88 261 79 292 91 261 77 271 80 293 87 281 82 262 75 294 83 262 73 273 75 295 79 284 76 263 71 296 75 263 69 274 70 296 71 285 69 263 67 296 67 263 65 275 64 296 62 285 63 263 63 296 58 263 61 275 58 295 54 263 59 294 50 263 57 274 53 293 47 262 55 292 43 261 53 273 48 290 39 261 51 289 35 260 50 271 43 287 31 259 48 285 28 259 46 268 38 283 24 258 45 266 36 281 21 257 43 278 18 271 25 256 41 262 32 275 15 254 39 272 12 266 21 252 39 258 28 269 10 251 38 266 7 260 17 249 36 254 25 261 4 256 14 248 34 250 23 256 2 245 33 252 1 249 12 243 32 245 21 247 1 241 32 243 0 242 10 240 32 239 20 239 0 238 32 233 0 235 32 233 20 229 1 233 33 225 2 231 33 227 20 221 2 230 34 217 3 228 34 222 22 213 5 226 35 219 23 209 7 223 37 205 10 220 38 212 26 201 11 218 40 198 13 215 41 206 30 195 16 212 44 191 17 210 44 200 33 188 21 208 46 185 23 205 49 194 38 182 26 203 51 179 29 202 54 189 42 177 32 200 56 174 35 198 58 184 47 171 38 196 61 169 41 193 63 179 53 167 45 191 65 164 48 190 68 174 58 162 51 188 70 159 54 186 73 170 64 157 58 184 75 155 61 183 79 166 71 153 65 181 81 151 68 180 83 162 77 149 72 178 87 147 75 177 89 159 83 145 79 175 92 143 82 174 95 156 90 142 86 173 96 141 90 170 100 154 96 139 93 170 102 137 97 169 104 152 103 135 101 168 108 135 105 166 111 151 110 134 109 166 113 133 113 165 116 150 116 133 117 165 118 132 121 165 121 149 123 132 125 165 123 132 129 165 125 150 129 132 133 165 128 133 137 165 131 151 135 134 141 164 133 135 145 165 134 152 141 137 148 167 135 139 152 167 136 154 145 141 156 169 136 143 159 169 137 157 150 147 162 169 140 150 164 170 141 161 154 153 167 173 140 157 169 177 142 168 158 161 171 174 151 179 142 164 171 183 143 173 162 168 172 180 155 187 144 173 173 192 145 175 175 186 160 196 146 180 176 200 147 184 177 192 164 203 148 187 178 207 149 190 179 198 168 211 150 205 161 194 180 215 151 199 181 204 173 219 152 212 165 203 182 223 153 207 183 227 154 219 170 211 183 231 155 214 184 235 156 224 174 218 185 231 167 239 157 221 186 242 159 225 187 237 172 246 161 228 188 250 163 231 187 242 177 252 166 232 188 255 169 231 190 245 181 258 172 232 192 260 175 234 194 248 187 261 180 234 196 264 183 235 198 250 192 265 187 236 200 266 191 236 203 252 199 267 195 236 205 267 199 236 207 253 205 268 203 236 210 268 207 235 212 253 212 268 211 235 215 267 215 234 216 253 218 267 219 234 218 266 223 243 221 233 220 252 224 265 227 232 223 264 231 244 228 262 235 230 226 248 234 261 239 229 227 258 243 249 239 229 247 217 251 186 245 176 224 190 200 197 195 200 197 189 189 201 198 203 201 183 189 203 205 178 191 190 199 204 209 174 193 203 212 171 194 185 205 201 216 176 201 167 196 199 219 165 200 181 211 198 222 163 204 197 222 161 207 178 216 196 225 160 211 195 225 159 215 175 221 194 228 158 219 185 227 158 223 174 226 191 229 158 226 192 229 171 227 159 226 177 228 193 229 176 228 158 228 178 231 159 232 187 231 173 234 160 236 191 231 161 240 177 238 164 244 192 232 166 247 185 236 194 230 167 250 183 241 170 253 192 235 173 255 183 245 193 235 176 258 189 243 180 260 188 248 197 233 183 262 199 234 187 264 194 250 201 235 191 266 202 235 195 266 204 236 199 267 202 252 206 236 203 267 208 236 207 268 208 252 210 236 211 267 212 236 215 267 215 252 214 236 219 267 219 248 223 266 220 250 217 237 227 265 219 237 231 264 225 248 221 236 235 263 222 235 238 261 230 245 224 234 242 259 225 233 246 257 234 242 226 232 248 254 226 229 251 251 253 250 236 236 227 228 255 246 237 234 229 228 246 237 258 244 229 227 243 233 "/>
    <path id="Block1Jump1"
        fill="none"
        stroke="#000000"
		stroke-width="2px"
		d="M 308 341 L 308 341 308 354 329 355 340 355 343 351 344 344 331 338 331 317 330 295 330 274 330 252 330 231 329 209 329 188 329 172 338 167 341 166 339 167 318 167 301 167 296 164 293 160 301 156 293 150 298 147 301 145 324 144 347 143 363 145 390 153 411 167 420 181 426 197 425 215 419 232 407 245 392 256 377 263 356 268 343 272 350 260 342 267 342 248 355 248 369 244 389 232 399 223 403 214 404 202 401 192 396 183 385 175 372 169 360 166 339 167 341 166 333 168 333 189 332 211 332 232 332 254 332 275 331 297 331 327 337 342 342 343 331 332 321 343 321 320 320 298 320 275 319 253 319 230 319 208 318 185 318 168 329 178 340 167 340 188 341 210 341 231 342 253 342 274 343 296 343 317 344 344 343 351 322 354 305 354 303 349 304 343 299 344 293 348 301 353 292 356 296 362 301 364 322 365 344 365 365 366 370 362 372 358 362 356 369 348 366 346 350 343 327 342 313 342 304 343 307 353 328 354 345 355 344 344 331 343 331 320 330 298 330 275 330 253 330 230 329 208 329 185 329 171 341 166 334 155 313 156 291 157 291 153 293 164 291 152 293 147 297 169 297 143 301 171 301 141 305 171 304 141 306 171 308 140 310 171 310 140 314 171 314 140 318 171 318 140 322 171 322 140 326 171 326 140 330 171 330 140 334 170 333 140 338 170 337 140 341 169 341 140 342 149 362 156 391 167 409 184 414 206 407 229 389 246 360 258 350 260 344 261 342 273 342 264 342 274 344 276 342 259 348 273 342 249 350 274 344 244 353 274 348 243 357 273 352 243 361 272 355 243 365 271 359 243 369 270 360 241 373 270 362 240 377 268 364 240 381 267 368 240 383 266 368 239 387 264 371 238 390 262 374 237 394 260 376 236 398 258 379 234 401 255 380 233 404 253 382 232 408 251 389 234 411 248 389 230 415 244 389 226 417 241 390 225 420 238 392 223 422 234 394 221 425 231 395 218 426 227 397 216 427 223 398 214 428 219 410 214 429 215 398 212 430 211 399 209 430 207 399 206 430 203 399 205 430 199 399 203 430 195 399 199 429 191 399 198 427 187 398 197 426 183 409 189 425 179 398 193 423 176 397 191 420 172 395 189 420 168 394 188 415 166 393 188 413 163 392 184 409 161 389 182 407 158 387 181 403 156 385 179 400 153 383 179 396 151 380 178 393 149 377 176 389 148 375 175 385 147 373 174 382 146 370 172 378 144 366 171 374 143 365 171 370 142 361 171 366 141 360 170 362 140 356 169 358 140 353 169 354 140 350 169 350 140 347 169 346 140 344 169 342 140 342 169 339 147 341 169 336 159 341 168 334 166 339 172 334 166 336 176 335 166 329 167 344 166 328 167 314 168 344 170 314 172 344 174 314 176 343 178 314 180 343 182 314 184 343 186 314 188 343 190 314 192 343 194 314 196 343 198 314 200 343 201 314 204 343 205 314 207 344 208 314 211 344 212 314 214 344 215 314 218 344 219 314 222 344 223 314 225 344 226 314 229 344 230 314 232 345 234 314 236 345 238 314 240 345 242 314 243 346 244 315 247 346 248 315 251 347 252 315 255 347 256 315 258 347 261 315 262 347 265 315 266 347 269 315 270 347 273 315 274 347 277 315 278 347 280 315 282 347 284 315 286 347 288 315 290 347 292 315 294 347 296 315 297 347 298 315 301 347 300 315 305 347 304 316 306 347 307 316 310 347 311 316 314 347 315 316 318 347 319 316 322 347 323 316 326 347 327 316 330 347 331 316 334 347 334 316 338 347 338 316 342 347 342 316 343 345 343 316 343 344 343 340 354 332 355 310 353 291 351 293 344 291 361 293 343 293 353 298 341 294 364 302 340 297 366 305 339 301 368 308 339 305 369 311 339 309 370 314 339 312 370 318 339 316 370 322 339 320 370 326 339 324 370 330 339 328 370 333 339 332 370 337 339 335 370 341 340 339 370 344 340 343 370 347 340 348 370 349 340 352 370 351 352 350 340 357 370 354 341 362 370 358 341 366 370 360 341 371 369 364 342 372 366 369 344 372 363 369 347 "/>
    <path id="Block1Jump2"
        fill="none"
        stroke="#000000"
		stroke-width="2px"
		d="M 477 75 L 477 75 487 69 499 73 506 83 508 97 505 111 496 119 484 121 475 113 470 99 471 85 477 75 487 69 471 87 487 69 498 73 484 89 471 103 476 113 490 97 505 79 508 93 493 109 484 119 476 109 472 107 484 119 490 113 497 91 501 77 506 83 494 71 482 71 497 88 508 101 503 113 489 96 475 79 470 89 485 106 496 119 489 97 483 67 498 69 477 70 503 72 475 74 505 74 471 78 509 79 469 82 510 83 467 86 511 87 466 89 512 91 466 93 512 94 466 97 512 98 467 101 511 102 468 105 510 106 470 109 508 110 471 112 506 114 474 116 504 118 481 120 500 121 486 123 490 135 483 143 489 165 494 181 495 202 496 231 511 239 520 239 528 247 517 251 527 263 523 265 518 267 497 266 479 265 469 263 462 259 471 249 459 245 462 239 467 235 475 233 496 235 510 237 505 237 499 217 492 196 486 176 478 151 490 137 467 139 474 149 461 147 459 157 463 165 475 169 478 171 482 179 483 200 484 222 484 233 501 237 496 225 510 237 509 216 508 194 507 173 506 151 503 143 498 139 494 137 490 137 467 145 462 141 458 149 462 141 462 146 462 140 463 143 467 137 469 136 457 153 475 135 457 158 481 134 468 148 457 161 477 143 486 134 459 166 492 133 474 155 462 169 482 149 497 134 490 142 465 170 501 136 479 160 469 171 487 154 503 138 495 147 472 173 506 141 485 165 476 175 492 160 508 144 500 153 483 171 509 149 485 171 496 164 510 154 492 166 479 175 510 161 492 171 511 165 485 178 511 169 478 179 511 173 493 180 511 177 478 185 511 181 478 190 511 185 478 192 511 190 478 196 512 193 478 197 512 198 478 201 512 202 478 205 512 206 479 209 512 210 479 213 512 214 479 217 513 218 479 221 513 219 479 225 513 223 479 229 513 227 479 233 513 229 487 234 513 233 504 237 512 237 505 249 493 253 470 253 458 253 459 241 458 254 459 240 460 248 460 259 460 248 464 264 462 234 469 266 466 231 471 264 470 228 472 255 474 228 474 266 478 228 476 268 482 230 480 268 486 230 483 270 490 230 486 270 494 230 490 270 497 232 493 270 501 232 497 270 504 232 501 270 507 232 504 272 511 232 508 272 515 233 512 272 518 234 517 272 522 235 520 272 526 238 523 270 529 243 528 263 529 261 528 243 528 259 "/>
    <path id="Block1Jump3"
        fill="none"
        stroke="#000000"
		stroke-width="2px"
		d="M 617 106 L 617 106 620 116 617 128 612 128 608 124 608 114 603 108 598 108 589 118 598 122 598 126 575 127 556 128 549 128 545 126 544 122 553 120 546 114 554 112 575 111 598 110 603 108 612 126 617 128 617 107 617 78 614 72 609 78 606 72 602 72 600 74 598 78 598 101 599 123 599 146 600 168 600 191 601 213 601 236 603 248 609 256 615 262 626 268 638 270 648 270 659 266 666 262 673 252 676 246 675 234 671 226 664 218 656 214 643 214 637 216 630 222 638 228 630 232 629 236 630 240 634 244 637 246 645 248 650 250 654 250 647 252 640 254 628 248 622 242 620 236 619 213 619 191 618 168 617 146 617 128 620 116 617 108 617 114 627 116 619 126 641 123 664 120 657 114 666 114 664 110 662 108 655 106 632 107 620 108 623 118 617 128 610 122 608 120 608 114 598 108 596 118 570 120 543 118 543 127 543 117 543 127 547 109 545 130 551 109 548 131 556 109 552 132 559 109 556 133 560 109 559 131 565 107 564 131 566 107 568 131 568 107 572 131 572 107 576 131 576 105 580 131 580 105 584 131 583 105 588 131 585 105 592 131 589 105 595 131 593 105 598 124 596 107 607 104 608 100 608 78 612 72 605 70 620 74 604 70 599 72 621 78 595 74 621 80 594 78 622 84 593 82 622 87 593 86 622 91 593 90 622 95 593 94 622 99 593 98 622 101 593 102 622 105 593 106 622 109 593 110 622 113 593 114 622 117 593 118 622 121 593 122 622 123 593 126 622 127 594 128 602 128 608 136 609 157 610 179 611 200 611 222 612 238 623 258 651 260 662 248 655 232 629 226 631 220 628 237 631 219 634 215 630 244 639 211 636 229 633 246 640 221 643 209 637 248 647 209 644 232 641 247 647 223 650 209 644 251 654 209 649 230 644 248 651 226 655 212 649 233 645 246 650 230 655 209 650 231 659 211 653 229 663 212 647 242 666 216 644 249 656 231 665 216 652 235 645 246 658 229 666 218 651 237 667 217 669 215 647 245 671 219 645 249 674 222 644 249 676 223 659 237 645 248 663 234 673 226 656 240 673 226 668 232 651 244 676 230 656 241 645 248 664 237 677 230 658 242 647 248 666 238 676 232 658 242 677 232 658 242 679 234 657 242 644 248 680 238 661 243 679 242 649 246 678 242 657 246 644 248 666 244 677 242 647 248 680 242 665 246 680 246 651 249 679 250 650 251 677 254 660 253 674 258 649 250 674 258 651 250 671 258 659 254 671 258 654 250 670 263 653 249 670 265 650 249 665 264 654 252 666 264 651 250 664 266 651 250 662 269 656 255 659 271 651 251 655 273 650 248 650 273 646 249 646 274 646 259 645 249 640 275 641 249 636 273 639 251 632 273 638 250 628 273 634 249 624 272 635 249 618 270 632 246 615 268 629 244 611 265 628 242 608 261 625 239 606 257 624 234 603 254 623 229 601 251 623 225 599 247 623 220 598 241 623 216 597 237 623 211 597 231 623 207 595 227 623 202 595 222 623 198 595 217 622 195 595 211 622 192 595 206 622 187 595 201 622 183 595 196 622 178 595 191 622 175 595 187 622 171 595 182 622 168 594 178 622 165 594 174 622 161 594 169 622 157 594 165 622 152 594 160 622 150 594 156 622 148 594 152 622 146 593 148 622 141 593 144 622 140 593 140 622 136 593 136 622 132 593 132 622 129 593 129 624 125 615 124 624 124 616 124 624 122 617 124 617 118 619 129 617 117 617 105 621 129 621 103 625 129 625 103 629 129 629 103 633 128 632 103 637 127 636 103 641 127 640 103 643 127 644 103 646 127 648 103 649 126 652 103 650 124 651 118 656 114 659 114 666 116 666 112 663 123 666 111 665 105 659 125 662 103 656 125 658 103 652 125 654 103 650 121 652 103 650 120 "/>
    <path id="Block1Jump4"
        fill="none"
        stroke="#000000"
		stroke-width="2px"
		d="M 10 367 L 10 367 10 376 13 382 28 389 36 411 36 434 36 456 36 479 36 501 36 524 36 546 36 569 36 586 35 584 46 582 49 581 66 586 69 592 59 595 68 601 66 603 55 606 33 608 10 611 5 607 13 599 2 598 4 593 9 590 17 586 35 584 36 586 36 565 36 543 36 522 36 500 36 479 36 457 36 436 36 411 28 389 13 382 10 376 10 367 13 368 37 372 40 365 68 368 74 375 64 380 74 384 72 389 58 392 36 395 21 378 13 368 10 367 10 376 26 387 36 400 36 421 36 443 36 464 36 486 36 507 36 529 37 533 42 537 49 537 49 522 56 508 72 497 87 490 92 507 92 530 92 552 93 575 93 601 80 608 85 608 91 606 110 604 119 605 127 610 117 616 128 620 125 625 119 627 95 633 65 635 61 632 70 624 58 622 61 618 65 615 72 611 85 608 80 608 88 605 89 582 90 560 91 537 92 508 71 498 59 517 49 535 65 518 74 510 81 508 81 531 81 553 81 576 81 606 93 594 101 605 105 605 105 582 105 560 104 537 104 515 104 489 102 481 97 476 92 471 85 473 78 477 60 490 40 504 46 525 49 535 49 522 49 534 49 537 42 537 41 514 39 492 38 469 37 447 36 424 34 397 14 382 11 376 11 369 29 383 47 396 47 417 47 439 47 460 47 482 48 503 48 525 48 546 48 568 48 584 36 574 24 585 24 562 24 540 24 517 24 495 24 472 24 450 24 427 24 395 23 391 20 391 6 389 2 384 13 382 3 373 7 369 11 369 19 385 29 391 36 415 36 438 36 460 36 483 36 505 36 528 36 550 36 573 36 586 42 596 69 593 70 591 69 604 70 590 68 584 65 607 64 581 61 608 60 580 57 609 56 579 53 610 52 578 51 612 48 577 48 612 44 578 45 613 40 579 43 613 36 580 39 614 35 580 37 601 38 613 34 581 38 612 37 603 29 598 18 598 2 603 7 611 1 602 6 611 2 594 6 612 5 602 11 614 3 589 16 615 6 585 19 615 10 583 22 615 14 583 26 614 18 582 29 614 22 582 33 614 26 581 36 614 30 581 40 613 34 580 40 613 35 581 36 587 36 564 37 536 49 537 48 517 57 508 74 496 89 494 92 510 92 531 92 553 93 574 93 602 80 608 89 620 111 616 130 613 130 617 127 605 130 618 128 625 123 602 124 631 119 601 121 631 115 601 118 631 111 600 114 633 107 601 110 634 103 602 107 635 99 602 104 635 94 602 100 637 90 603 96 637 86 603 92 637 82 604 89 637 78 605 85 638 81 627 74 623 69 624 58 625 62 636 58 624 58 618 67 638 59 614 70 639 63 612 75 639 66 610 79 638 69 608 82 638 73 606 84 632 77 605 84 626 79 604 85 608 81 607 93 607 80 607 78 605 106 605 78 603 109 601 78 599 109 597 78 597 109 593 78 593 109 589 78 589 109 586 78 585 109 582 78 581 108 578 78 577 108 574 78 573 108 570 78 569 108 566 78 566 108 562 78 562 108 558 78 558 108 555 78 554 108 552 78 550 108 548 78 547 108 544 78 543 108 540 78 539 108 536 78 535 108 532 78 531 108 528 78 527 108 525 78 523 108 522 78 519 108 518 85 518 108 513 91 516 108 513 79 518 107 508 86 516 107 507 81 516 106 505 80 517 107 505 86 512 108 505 95 508 107 500 107 497 78 518 107 492 82 513 107 487 86 506 106 482 80 513 104 482 99 486 86 505 79 516 90 497 102 476 90 495 81 509 90 490 98 472 80 514 95 470 81 506 91 468 83 497 87 468 81 501 83 469 79 501 78 473 77 510 74 476 76 511 70 478 73 498 66 481 74 512 65 483 73 510 61 484 77 515 57 486 74 513 55 490 72 516 51 492 70 518 47 493 67 521 44 495 64 523 41 498 61 526 38 501 59 529 39 507 56 532 41 516 53 535 47 532 50 538 47 530 49 539 37 536 36 559 36 581 29 587 20 587 51 586 20 583 51 583 20 579 51 579 20 576 51 575 20 572 51 571 20 568 51 568 20 564 51 564 20 561 51 560 20 557 51 556 20 553 51 552 20 549 51 548 20 545 51 544 20 541 52 540 20 537 52 536 20 533 52 532 20 529 52 528 20 525 52 524 20 521 52 520 20 517 51 516 20 513 51 512 20 509 51 508 20 505 51 504 20 501 51 500 20 497 51 496 20 493 51 492 20 489 51 488 20 485 51 484 20 482 51 480 20 479 51 476 20 475 51 472 20 471 51 468 20 467 51 464 20 463 51 460 20 459 51 456 20 455 51 452 20 451 51 448 20 447 51 444 20 444 51 440 20 440 51 436 20 437 51 432 20 433 51 428 20 429 51 426 20 426 51 422 20 422 51 418 20 420 51 413 20 416 51 409 20 412 51 405 20 408 51 401 20 405 51 397 20 402 49 393 20 401 46 390 20 400 42 387 27 393 38 384 20 396 35 382 18 395 31 380 16 396 27 378 14 396 24 375 12 396 21 372 11 395 17 370 9 395 14 367 6 393 10 366 4 392 7 365 7 375 4 379 0 382 1 372 0 383 2 388 5 367 5 392 9 365 7 393 11 366 7 393 11 367 32 365 9 367 33 365 41 365 12 371 32 367 15 375 48 365 17 378 50 364 19 382 38 372 22 385 48 367 25 388 49 369 28 391 41 378 31 393 51 369 34 397 52 369 38 398 56 365 42 398 56 365 47 398 55 373 51 398 55 378 56 397 58 364 61 397 60 374 65 396 62 364 68 395 65 365 68 394 65 367 66 375 73 380 78 379 74 370 77 387 71 367 74 391 67 365 70 394 64 364 65 379 "/>
    <path id="Block1Jump5"
        fill="none"
        stroke="#000000"
		stroke-width="2px"
		d="M 180 566 L 180 566 189 564 199 564 209 566 214 567 219 568 220 558 220 535 219 508 216 499 210 491 201 486 191 487 182 492 177 500 175 510 176 515 185 518 192 525 193 535 190 544 182 549 172 547 164 540 160 532 157 522 155 512 156 502 159 493 164 484 170 477 178 471 188 467 198 467 208 468 217 471 225 478 232 485 236 494 237 515 238 537 239 558 239 580 240 594 245 594 255 595 258 605 256 615 251 623 243 629 233 628 225 623 215 624 202 609 192 609 182 607 174 602 171 598 170 594 178 587 187 583 197 583 207 584 216 589 219 592 219 599 212 606 202 609 205 626 195 627 184 627 175 623 166 619 158 612 153 603 152 593 155 583 161 576 170 570 180 566 186 565 178 571 174 577 168 571 154 585 160 591 152 598 167 583 186 565 196 564 182 580 166 596 155 607 160 613 168 607 172 601 160 614 166 619 179 606 184 611 173 623 187 609 198 609 184 623 181 626 191 627 214 604 220 610 228 603 232 598 226 592 230 566 239 558 233 552 239 546 233 541 238 536 233 530 238 524 232 519 238 514 232 508 225 503 211 487 199 473 183 489 163 509 168 515 185 540 186 542 179 549 193 535 192 525 170 546 165 541 187 519 178 516 160 534 158 525 175 508 170 502 170 479 162 487 178 471 194 467 178 483 156 505 156 516 172 500 188 484 205 467 214 469 198 485 207 488 221 474 227 479 213 493 217 500 232 485 236 493 219 510 224 515 232 509 237 503 219 520 225 526 233 520 238 514 219 532 225 537 233 531 238 524 220 543 226 548 233 542 238 536 220 554 226 560 233 553 239 546 219 565 225 571 211 585 205 580 196 578 191 583 208 566 214 571 206 578 202 583 217 568 222 574 239 558 224 573 211 585 217 590 239 568 240 579 219 600 225 605 217 612 211 620 204 626 220 610 240 591 246 596 238 603 235 606 241 612 249 605 252 601 258 606 250 613 244 621 235 629 250 614 258 606 256 597 241 612 228 625 222 619 230 613 236 604 244 598 248 593 233 608 220 621 218 624 210 616 201 609 196 615 191 621 176 606 154 585 160 579 166 587 172 591 178 585 184 581 187 583 172 569 167 574 173 582 178 586 165 573 159 578 172 591 166 597 161 614 155 608 166 619 185 627 170 612 152 594 154 585 169 600 185 615 197 627 203 621 196 613 190 609 205 623 207 625 212 620 217 624 222 618 229 626 231 627 237 621 230 613 222 608 217 602 223 597 230 604 234 608 240 602 234 595 225 589 219 580 211 575 205 566 202 564 196 570 191 564 185 570 181 566 198 583 203 577 197 570 191 564 213 587 219 581 226 589 234 595 240 603 248 609 252 614 258 608 244 594 238 600 234 596 240 591 233 583 225 577 217 568 223 563 232 560 229 539 226 518 224 507 230 502 223 494 215 489 209 480 202 474 196 479 181 487 171 500 176 505 170 510 176 518 185 524 191 532 193 533 188 539 185 548 175 548 161 535 167 530 160 522 156 518 171 533 185 548 191 542 176 527 156 507 161 501 168 509 176 515 182 523 190 529 193 533 177 517 157 497 160 489 176 505 179 497 165 483 170 477 184 491 192 487 177 472 185 468 203 487 209 481 215 489 224 495 231 503 237 497 221 481 207 467 201 473 195 467 210 482 226 497 238 509 232 515 230 545 229 522 228 511 217 500 238 521 238 532 219 513 219 525 238 544 239 556 219 537 220 548 239 568 234 573 227 565 219 559 240 579 240 591 217 568 212 574 205 566 202 564 218 580 234 596 255 617 249 623 243 615 234 609 229 601 220 593 236 609 250 623 244 628 228 612 217 602 212 608 218 615 227 621 231 627 210 606 201 609 217 624 214 623 204 625 197 625 199 628 180 627 200 628 210 627 173 625 192 625 220 625 199 625 174 625 184 625 195 623 199 623 172 608 161 596 170 585 195 568 196 563 189 563 208 564 188 563 179 564 205 566 218 567 196 567 183 567 173 567 173 570 196 570 218 570 229 570 229 567 226 546 223 525 220 503 218 488 218 484 195 484 178 484 177 487 166 501 170 523 175 550 186 549 174 550 171 549 192 545 166 544 195 541 179 541 162 540 196 537 160 536 196 533 180 533 157 532 196 529 155 528 169 527 195 525 180 525 155 524 194 523 154 520 170 519 187 517 153 516 177 513 153 513 177 512 153 509 178 505 153 505 180 501 154 500 171 498 182 497 155 497 185 493 156 493 192 489 158 489 174 489 195 488 158 489 179 488 194 488 203 465 185 466 204 465 212 467 176 470 220 471 188 473 171 474 198 473 225 473 208 474 166 478 178 478 218 478 230 479 188 480 162 482 198 481 232 481 208 483 159 486 178 486 218 486 236 487 234 488 218 488 234 493 224 493 215 489 201 488 225 489 236 489 208 492 238 493 211 495 225 496 239 497 214 500 224 500 240 501 216 504 240 505 216 508 240 509 216 512 240 513 216 516 240 517 216 520 241 521 216 524 241 525 217 528 241 529 217 532 241 532 217 535 241 536 217 539 241 540 217 542 241 544 217 549 241 549 217 553 241 552 217 557 241 556 217 561 241 560 217 564 242 565 231 566 217 567 242 567 218 567 218 570 197 570 171 570 192 568 214 568 242 568 224 568 184 568 170 568 167 569 213 571 242 572 224 572 184 572 162 572 160 574 174 574 214 575 242 576 205 576 156 577 194 578 242 580 225 580 185 581 153 581 174 582 215 583 242 584 205 584 165 584 152 584 160 585 166 587 175 585 187 585 164 586 151 586 178 585 188 585 184 586 150 589 177 590 160 592 150 593 173 594 149 596 173 598 150 600 178 603 151 605 186 606 152 607 169 608 194 609 207 611 192 611 213 609 230 608 230 594 226 587 232 585 242 585 203 585 242 588 228 588 213 589 242 592 217 593 230 594 217 593 229 594 238 596 233 596 248 594 244 592 251 592 254 593 233 594 217 594 255 593 257 595 235 597 217 598 260 599 215 602 245 603 261 603 235 604 206 606 225 606 261 606 215 607 199 607 244 607 260 607 237 607 215 607 200 607 221 616 239 623 242 631 232 630 243 631 247 629 226 625 236 625 253 625 226 624 207 611 182 608 153 608 196 608 236 608 260 608 227 608 186 609 153 609 176 610 216 611 260 612 246 612 206 614 158 615 196 615 236 616 258 616 226 617 186 618 161 619 176 619 216 619 256 619 206 621 167 622 196 622 236 623 254 623 226 623 186 623 170 623 217 624 "/>
    <path id="Block1Jump6"
        fill="none"
        stroke="#000000"
		stroke-width="2px"
		d="M 278 680 L 278 680 278 693 299 694 310 694 313 690 314 683 301 677 301 656 300 634 300 613 300 591 300 570 299 548 299 527 299 511 308 506 311 505 309 506 288 506 271 506 266 503 263 499 271 495 263 489 268 486 271 484 294 483 317 482 333 484 360 492 381 506 390 520 396 536 395 554 389 571 377 584 362 595 347 602 326 607 313 611 320 599 312 606 312 587 325 587 339 583 359 571 369 562 373 553 374 541 371 531 366 522 355 514 342 508 330 505 309 506 311 505 303 507 303 528 302 550 302 571 302 593 302 614 301 636 301 666 307 681 312 682 301 671 291 682 291 659 290 637 290 614 289 592 289 569 289 547 288 524 288 507 299 517 310 506 310 527 311 549 311 570 312 592 312 613 313 635 313 656 314 683 313 690 292 693 275 693 273 688 274 682 269 683 263 687 271 692 262 695 266 701 271 703 292 704 314 704 335 705 340 701 342 697 332 695 339 687 336 685 320 682 297 681 283 681 274 682 277 692 298 693 315 694 314 683 301 682 301 659 300 637 300 614 300 592 300 569 299 547 299 524 299 510 311 505 304 494 283 495 261 496 261 492 263 503 261 491 263 486 267 508 267 482 271 510 271 480 275 510 274 480 276 510 278 479 280 510 280 479 284 510 284 479 288 510 288 479 292 510 292 479 296 510 296 479 300 510 300 479 304 509 303 479 308 509 307 479 311 508 311 479 312 488 332 495 361 506 379 523 384 545 377 568 359 585 330 597 320 599 314 600 312 612 312 603 312 613 314 615 312 598 318 612 312 588 320 613 314 583 323 613 318 582 327 612 322 582 331 611 325 582 335 610 329 582 339 609 330 580 343 609 332 579 347 607 334 579 351 606 338 579 353 605 338 578 357 603 341 577 360 601 344 576 364 599 346 575 368 597 349 573 371 594 350 572 374 592 352 571 378 590 359 573 381 587 359 569 385 583 359 565 387 580 360 564 390 577 362 562 392 573 364 560 395 570 365 557 396 566 367 555 397 562 368 553 398 558 380 553 399 554 368 551 400 550 369 548 400 546 369 545 400 542 369 544 400 538 369 542 400 534 369 538 399 530 369 537 397 526 368 536 396 522 379 528 395 518 368 532 393 515 367 530 390 511 365 528 390 507 364 527 385 505 363 527 383 502 362 523 379 500 359 521 377 497 357 520 373 495 355 518 370 492 353 518 366 490 350 517 363 488 347 515 359 487 345 514 355 486 343 513 352 485 340 511 348 483 336 510 344 482 335 510 340 481 331 510 336 480 330 509 332 479 326 508 328 479 323 508 324 479 320 508 320 479 317 508 316 479 314 508 312 479 312 508 309 486 311 508 306 498 311 507 304 505 309 511 304 505 306 515 305 505 299 506 314 505 298 506 284 507 314 509 284 511 314 513 284 515 313 517 284 519 313 521 284 523 313 525 284 527 313 529 284 531 313 533 284 535 313 537 284 539 313 540 284 543 313 544 284 546 314 547 284 550 314 551 284 553 314 554 284 557 314 558 284 561 314 562 284 564 314 565 284 568 314 569 284 571 315 573 284 575 315 577 284 579 315 581 284 582 316 583 285 586 316 587 285 590 317 591 285 594 317 595 285 597 317 600 285 601 317 604 285 605 317 608 285 609 317 612 285 613 317 616 285 617 317 619 285 621 317 623 285 625 317 627 285 629 317 631 285 633 317 635 285 636 317 637 285 640 317 639 285 644 317 643 286 645 317 646 286 649 317 650 286 653 317 654 286 657 317 658 286 661 317 662 286 665 317 666 286 669 317 670 286 673 317 673 286 677 317 677 286 681 317 681 286 682 315 682 286 682 314 682 310 693 302 694 280 692 261 690 263 683 261 700 263 682 263 692 268 680 264 703 272 679 267 705 275 678 271 707 278 678 275 708 281 678 279 709 284 678 282 709 288 678 286 709 292 678 290 709 296 678 294 709 300 678 298 709 303 678 302 709 307 678 305 709 311 679 309 709 314 679 313 709 317 679 318 709 319 679 322 709 321 691 320 679 327 709 324 680 332 709 328 680 336 709 330 680 341 708 334 681 342 705 339 683 342 702 339 686 "/>
    <path id="Block1Jump7"
        fill="none"
        stroke="#000000"
		stroke-width="2px"
		d="M 418 680 L 418 680 418 693 439 694 450 694 453 690 454 683 441 677 441 656 440 634 440 613 440 591 440 570 439 548 439 527 439 511 448 506 451 505 449 506 428 506 411 506 406 503 403 499 411 495 403 489 408 486 411 484 434 483 457 482 473 484 500 492 521 506 530 520 536 536 535 554 529 571 517 584 502 595 487 602 466 607 453 611 460 599 452 606 452 587 465 587 479 583 499 571 509 562 513 553 514 541 511 531 506 522 495 514 482 508 470 505 449 506 451 505 443 507 443 528 442 550 442 571 442 593 442 614 441 636 441 666 447 681 452 682 441 671 431 682 431 659 430 637 430 614 429 592 429 569 429 547 428 524 428 507 439 517 450 506 450 527 451 549 451 570 452 592 452 613 453 635 453 656 454 683 453 690 432 693 415 693 413 688 414 682 409 683 403 687 411 692 402 695 406 701 411 703 432 704 454 704 475 705 480 701 482 697 472 695 479 687 476 685 460 682 437 681 423 681 414 682 417 692 438 693 455 694 454 683 441 682 441 659 440 637 440 614 440 592 440 569 439 547 439 524 439 510 451 505 444 494 423 495 401 496 401 492 403 503 401 491 403 486 407 508 407 482 411 510 411 480 415 510 414 480 416 510 418 479 420 510 420 479 424 510 424 479 428 510 428 479 432 510 432 479 436 510 436 479 440 510 440 479 444 509 443 479 448 509 447 479 451 508 451 479 452 488 472 495 501 506 519 523 524 545 517 568 499 585 470 597 460 599 454 600 452 612 452 603 452 613 454 615 452 598 458 612 452 588 460 613 454 583 463 613 458 582 467 612 462 582 471 611 465 582 475 610 469 582 479 609 470 580 483 609 472 579 487 607 474 579 491 606 478 579 493 605 478 578 497 603 481 577 500 601 484 576 504 599 486 575 508 597 489 573 511 594 490 572 514 592 492 571 518 590 499 573 521 587 499 569 525 583 499 565 527 580 500 564 530 577 502 562 532 573 504 560 535 570 505 557 536 566 507 555 537 562 508 553 538 558 520 553 539 554 508 551 540 550 509 548 540 546 509 545 540 542 509 544 540 538 509 542 540 534 509 538 539 530 509 537 537 526 508 536 536 522 519 528 535 518 508 532 533 515 507 530 530 511 505 528 530 507 504 527 525 505 503 527 523 502 502 523 519 500 499 521 517 497 497 520 513 495 495 518 510 492 493 518 506 490 490 517 503 488 487 515 499 487 485 514 495 486 483 513 492 485 480 511 488 483 476 510 484 482 475 510 480 481 471 510 476 480 470 509 472 479 466 508 468 479 463 508 464 479 460 508 460 479 457 508 456 479 454 508 452 479 452 508 449 486 451 508 446 498 451 507 444 505 449 511 444 505 446 515 445 505 439 506 454 505 438 506 424 507 454 509 424 511 454 513 424 515 453 517 424 519 453 521 424 523 453 525 424 527 453 529 424 531 453 533 424 535 453 537 424 539 453 540 424 543 453 544 424 546 454 547 424 550 454 551 424 553 454 554 424 557 454 558 424 561 454 562 424 564 454 565 424 568 454 569 424 571 455 573 424 575 455 577 424 579 455 581 424 582 456 583 425 586 456 587 425 590 457 591 425 594 457 595 425 597 457 600 425 601 457 604 425 605 457 608 425 609 457 612 425 613 457 616 425 617 457 619 425 621 457 623 425 625 457 627 425 629 457 631 425 633 457 635 425 636 457 637 425 640 457 639 425 644 457 643 426 645 457 646 426 649 457 650 426 653 457 654 426 657 457 658 426 661 457 662 426 665 457 666 426 669 457 670 426 673 457 673 426 677 457 677 426 681 457 681 426 682 455 682 426 682 454 682 450 693 442 694 420 692 401 690 403 683 401 700 403 682 403 692 408 680 404 703 412 679 407 705 415 678 411 707 418 678 415 708 421 678 419 709 424 678 422 709 428 678 426 709 432 678 430 709 436 678 434 709 440 678 438 709 443 678 442 709 447 678 445 709 451 679 449 709 454 679 453 709 457 679 458 709 459 679 462 709 461 691 460 679 467 709 464 680 472 709 468 680 476 709 470 680 481 708 474 681 482 705 479 683 482 702 479 686 "/>
    <path id="Block1Jump8"
        fill="none"
        stroke="#000000"
		stroke-width="2px"
		d="M 583 493 L 583 493 580 496 565 517 558 540 558 563 566 586 575 597 587 604 604 607 621 605 635 599 646 592 650 584 651 581 650 570 645 564 638 561 628 560 619 561 622 569 624 571 610 571 610 574 610 578 618 585 613 589 605 590 598 588 590 582 586 574 581 560 581 540 586 522 598 503 604 497 610 494 616 492 621 494 624 498 627 511 628 537 616 539 595 539 583 539 593 548 583 557 606 556 628 555 642 554 648 551 651 546 651 527 646 504 640 492 633 483 625 479 618 477 603 479 592 484 583 493 605 490 622 487 634 501 639 519 640 537 633 547 612 548 592 548 580 558 581 539 580 559 581 539 584 561 585 536 586 561 587 535 590 561 590 535 594 561 595 535 598 560 599 535 601 560 600 535 605 560 603 535 609 560 607 535 613 560 610 535 617 560 614 535 621 559 619 537 623 559 622 540 628 559 623 540 632 558 623 538 636 558 625 538 641 558 635 547 646 557 630 540 650 556 633 542 654 553 642 544 655 549 626 536 656 545 628 536 653 542 632 538 654 542 633 536 656 538 629 535 656 534 623 531 656 528 623 528 655 524 623 526 655 520 623 524 655 516 623 521 654 512 623 518 652 508 623 516 651 504 622 512 650 500 622 510 649 496 622 508 648 492 621 505 645 489 620 501 643 486 618 499 640 483 617 497 636 481 615 497 633 478 628 483 619 492 630 482 630 478 619 488 625 476 618 495 625 475 620 482 621 474 617 485 617 473 616 491 613 473 615 497 609 474 613 498 605 474 611 498 601 475 610 499 597 476 606 493 593 478 608 498 589 480 597 491 586 483 603 496 583 486 606 501 579 488 603 503 576 491 602 505 574 495 600 509 571 498 599 511 568 501 596 513 566 505 594 517 564 509 593 521 562 512 592 523 560 516 591 525 559 520 589 528 558 524 588 531 555 527 587 535 555 532 587 537 553 536 587 541 553 540 587 545 552 544 586 547 552 548 586 551 552 552 586 553 552 556 586 557 552 561 586 559 553 565 586 561 553 569 586 563 554 572 587 565 557 576 587 566 559 580 588 568 559 584 589 572 561 587 590 573 563 591 581 582 566 593 592 575 569 596 594 579 573 599 594 581 576 601 597 584 578 603 597 585 581 606 597 584 586 607 600 585 589 609 603 585 593 610 605 585 598 610 607 586 602 611 608 586 606 611 609 586 610 611 610 596 614 610 611 585 618 610 612 585 623 610 616 585 627 609 615 585 626 608 618 585 625 608 618 586 633 604 619 590 636 601 616 585 640 600 617 586 640 598 617 586 631 590 633 589 634 585 635 578 621 569 610 567 610 570 620 559 609 571 606 573 629 556 606 577 632 556 608 581 636 557 612 581 641 558 622 576 646 559 611 585 649 562 612 586 652 565 613 586 654 569 620 584 641 577 654 573 632 580 619 584 639 578 654 573 633 580 618 585 639 580 655 576 636 580 656 576 636 580 656 580 628 584 655 583 618 585 653 587 632 586 650 591 622 586 648 595 619 586 644 598 616 586 644 598 617 586 642 598 625 590 "/>
    <path id="Block1Jump9"
        fill="none"
        stroke="#000000"
		stroke-width="2px"
		d="M 675 461 L 675 461 685 457 707 455 718 456 727 461 727 472 720 480 721 484 742 478 752 481 760 488 765 498 768 509 768 532 768 553 766 574 764 596 763 608 767 611 772 613 777 623 771 632 761 635 739 637 728 635 722 627 722 622 737 606 739 584 742 561 745 529 743 507 740 503 731 509 718 527 718 548 718 570 718 587 727 593 730 603 724 612 703 614 691 615 680 612 676 609 676 598 684 591 693 588 693 567 693 545 693 524 693 502 693 483 677 480 671 471 675 461 671 472 679 464 698 483 679 464 686 457 671 472 677 479 693 463 700 455 713 455 697 471 687 481 693 487 709 471 723 457 728 464 712 480 693 500 699 506 703 527 710 534 706 563 693 575 699 581 709 585 697 596 691 590 682 597 675 605 691 590 697 596 724 606 730 600 718 613 704 614 726 592 718 587 702 603 691 615 681 613 697 597 718 575 712 569 703 576 697 585 693 588 708 573 718 563 712 557 693 575 709 559 718 550 718 538 702 554 693 562 693 550 709 534 720 523 713 517 707 498 693 512 709 496 721 484 738 479 722 495 706 511 693 525 693 537 709 521 725 505 741 489 750 480 756 486 758 484 739 503 745 511 763 492 766 501 745 523 751 529 759 522 766 512 768 511 752 527 745 535 745 548 761 532 769 523 769 536 753 552 743 562 742 576 758 560 768 549 767 562 751 578 739 591 745 597 754 590 760 581 767 576 752 591 737 605 744 612 765 590 749 606 733 622 726 629 724 631 731 636 746 621 763 604 768 612 753 627 743 637 757 636 775 617 769 618 759 612 753 603 749 599 755 593 752 565 744 557 750 551 751 539 751 527 751 514 759 510 752 501 742 495 736 485 731 481 724 487 724 498 717 491 708 483 702 489 695 480 688 475 681 481 671 471 678 464 685 473 694 480 700 489 709 495 716 504 724 511 726 514 720 520 713 512 710 510 704 516 706 543 718 555 712 562 712 573 703 577 702 600 694 594 690 590 684 596 691 605 696 608 690 615 676 600 680 593 702 614 708 608 713 613 690 590 693 581 709 597 724 612 729 605 713 589 693 568 699 562 706 570 716 577 718 580 703 565 693 556 699 550 706 558 716 564 718 568 702 552 693 543 699 537 718 555 703 540 693 530 693 518 708 533 718 543 718 530 703 515 693 506 699 499 706 508 716 514 721 521 705 505 693 493 699 487 692 478 683 472 677 462 674 461 690 477 706 493 726 514 732 508 725 499 717 493 713 488 724 475 728 466 719 456 713 462 705 455 725 475 719 481 696 458 694 456 683 457 698 472 713 488 733 508 739 502 732 493 723 487 721 484 741 503 747 497 754 506 761 511 767 505 752 490 741 479 731 481 746 496 761 512 769 520 763 526 756 517 746 511 742 506 758 522 769 532 763 538 756 530 746 523 745 520 760 535 768 544 762 550 755 542 746 536 745 533 768 556 762 562 755 554 745 548 745 545 760 561 767 568 761 574 745 558 759 573 766 580 765 591 750 576 742 568 741 579 756 595 763 602 757 608 750 600 741 593 739 590 755 606 776 627 770 633 763 624 753 616 747 623 729 630 736 637 722 622 728 616 748 636 759 635 744 620 734 610 738 601 753 616 770 633 748 634 738 639 733 639 756 638 744 639 732 639 727 637 771 635 744 634 723 634 735 634 745 632 748 632 749 611 750 589 751 568 752 546 753 525 754 506 737 492 726 484 710 483 691 483 686 482 700 465 710 453 689 454 711 453 725 455 698 456 675 458 708 458 729 459 718 459 670 461 688 462 731 463 698 464 670 465 708 466 731 467 718 467 669 469 687 470 730 470 698 472 669 473 707 474 729 474 718 475 672 477 687 478 724 478 698 480 676 481 716 482 677 482 712 483 726 485 716 485 739 483 748 477 733 478 749 477 754 479 723 481 758 482 739 483 758 482 740 483 723 498 715 505 713 528 711 551 709 573 708 588 708 592 691 592 691 589 688 588 683 616 704 615 717 615 682 616 678 614 698 613 728 611 709 611 674 610 673 608 700 607 732 605 690 604 673 604 720 602 732 601 710 601 673 602 700 600 732 599 690 598 674 598 720 595 731 595 710 594 675 594 700 592 728 591 690 590 680 590 723 587 710 586 691 586 721 583 691 582 721 579 711 578 691 578 721 575 691 574 721 571 711 570 691 570 721 567 691 566 721 563 691 562 721 559 691 558 721 555 691 554 721 551 691 550 721 547 691 546 701 545 721 543 691 542 721 539 691 538 701 537 721 535 691 534 721 531 691 530 701 529 721 527 691 526 723 523 712 522 691 522 701 521 725 519 691 518 729 515 712 515 691 515 701 514 733 511 691 510 722 508 738 507 712 506 691 506 712 506 738 506 726 486 740 483 758 483 735 483 713 484 691 484 730 483 759 483 761 484 740 485 691 488 710 488 750 488 764 488 720 490 691 492 730 493 766 493 740 494 691 496 710 496 750 497 768 497 720 499 691 500 730 500 769 501 740 502 691 504 710 504 750 504 770 505 762 506 756 512 749 506 740 506 770 507 739 506 771 509 753 510 741 511 771 513 742 515 771 517 754 518 742 519 771 521 742 522 771 525 754 526 742 526 771 529 742 530 771 533 754 534 742 534 771 537 742 538 771 540 755 541 742 542 771 544 742 546 771 548 755 549 741 550 771 552 741 553 771 555 756 556 741 557 771 559 741 558 770 563 756 563 741 562 770 567 740 566 770 571 756 571 739 571 769 575 738 576 769 581 738 581 768 585 757 585 737 585 748 588 768 589 737 591 767 593 736 595 749 596 767 597 735 598 766 601 735 602 749 603 766 605 734 606 768 609 730 610 749 611 775 613 740 614 726 614 777 617 760 617 722 618 750 619 778 621 740 621 720 622 730 622 779 625 760 625 719 626 750 627 778 629 740 629 720 630 768 633 722 632 743 632 767 633 "/>
    <path id="Block1Jump10"
        fill="none"
        stroke="#000000"
		stroke-width="2px"
		d="M 815 483 L 815 483 818 479 829 470 837 467 841 465 854 465 866 471 874 482 878 495 878 504 878 508 874 521 866 531 859 533 852 533 845 531 841 529 838 526 844 520 837 516 838 511 840 507 847 504 850 503 859 504 857 494 854 488 849 485 843 485 837 489 825 502 817 519 819 528 824 532 843 541 859 549 866 554 868 556 875 568 878 581 877 594 871 606 861 615 849 620 836 621 823 619 810 612 805 607 802 601 801 594 802 588 806 580 813 585 816 577 822 576 826 578 828 584 831 599 841 601 846 600 851 597 855 594 857 588 858 581 857 574 852 568 833 559 812 549 806 545 802 540 797 527 798 514 803 501 809 490 815 483 826 486 847 475 859 479 867 491 868 506 863 513 836 520 836 514 838 524 838 527 838 521 836 510 838 522 840 531 839 505 842 521 845 534 842 503 849 535 846 501 850 520 853 536 853 521 857 536 849 505 854 518 861 535 850 505 865 533 859 517 869 532 851 502 872 529 851 501 862 512 874 525 855 501 864 509 877 521 858 504 879 517 859 504 880 513 869 506 880 509 863 503 881 505 859 502 881 500 866 499 881 496 858 500 880 492 857 497 879 488 856 496 878 484 857 494 877 480 875 478 874 475 872 473 853 491 869 470 858 481 865 468 850 488 856 477 861 465 849 486 856 463 848 484 852 462 847 482 848 462 845 485 843 463 843 485 839 463 842 487 835 464 841 489 832 466 839 490 828 467 827 469 836 494 823 471 834 495 820 474 833 497 817 477 814 479 830 501 811 482 810 485 826 505 807 488 825 507 804 493 824 510 802 496 823 512 800 501 822 515 797 504 798 506 821 517 807 513 797 510 820 520 796 513 820 521 796 518 808 522 795 522 817 523 806 524 795 526 820 524 795 530 807 529 796 534 819 526 797 538 818 528 800 542 824 529 803 547 827 532 817 541 807 549 832 533 811 551 835 534 814 553 838 537 818 554 842 539 821 556 835 548 847 540 826 557 851 542 830 559 840 553 855 544 834 561 859 546 838 563 862 547 854 554 842 565 865 550 844 567 868 552 859 560 848 569 871 555 851 571 874 558 863 565 852 572 876 562 853 572 877 565 854 574 878 569 868 572 855 576 880 576 870 577 856 580 880 582 856 582 880 586 856 584 880 592 855 587 879 596 855 589 878 600 854 590 876 603 855 592 874 607 853 592 872 610 854 596 869 613 851 594 868 614 853 598 858 605 856 606 852 609 843 611 826 609 817 588 811 576 813 575 807 577 814 575 819 574 802 583 823 575 800 588 828 576 799 592 817 585 830 579 831 582 799 596 816 591 831 586 799 599 832 591 822 597 801 604 818 599 802 608 833 596 806 611 815 606 829 598 808 614 822 604 812 616 829 602 816 619 828 604 835 598 823 621 837 599 832 609 827 622 837 599 834 611 831 623 839 599 834 624 841 599 843 624 844 598 847 623 845 600 851 622 847 598 855 621 849 597 859 620 850 599 862 617 851 596 866 615 858 604 851 594 859 603 " />
</svg>
