<?xml version="1.0" encoding="UTF-8" standalone="no"?>
<svg xmlns="http://www.w3.org/2000/svg" version="1.1" width="407" height="995">
    <path id="Block1Jump0"
        fill="none"
        stroke="#FFC864"
		stroke-width="2px"
		d="M 170 151 L 170 151 183 161 170 151 183 161 170 151 183 161 193 158 194 172 208 165 198 169 185 173 170 176 187 169 208 159 176 171 169 172 204 159 209 155 195 160 169 167 184 162 208 150 173 163 168 162 201 150 209 145 192 152 168 157 180 153 209 140 167 153 198 142 209 136 200 137 210 133 205 127 195 120 216 123 204 121 200 116 200 95 184 83 175 76 159 77 150 86 150 106 150 122 153 131 162 140 168 148 189 144 196 137 197 128 202 125 207 131 189 119 181 129 162 148 155 153 177 154 149 147 164 150 183 151 156 146 145 141 185 148 190 147 175 145 142 137 166 141 195 144 157 137 139 132 147 134 186 140 200 140 177 136 137 127 167 132 204 137 198 135 159 129 137 122 148 124 188 131 205 132 178 127 137 120 166 117 175 113 175 107 171 96 168 71 164 63 190 70 170 66 152 65 178 70 196 75 188 74 148 69 158 70 197 77 204 82 168 75 143 73 177 79 209 87 186 83 147 76 137 77 156 80 195 87 214 93 206 91 167 84 137 81 175 88 213 96 185 91 145 84 137 85 155 88 194 95 213 102 204 100 165 93 137 90 173 97 213 106 183 100 144 93 137 95 153 98 192 105 213 111 203 109 163 102 137 99 172 105 211 112 219 116 181 109 142 102 137 103 152 106 191 113 227 122 201 118 162 111 136 108 170 114 210 121 226 126 219 125 180 118 140 111 135 113 150 116 189 123 222 131 200 127 160 120 135 117 169 123 208 130 217 134 178 127 136 121 148 124 188 131 207 134 188 131 207 134 188 131 207 134 207 134 " />
    <path id="Block2Jump1"
        fill="none"
        stroke="#FFFF00"
		stroke-width="2px"
		d="M 172 168 L 172 168 172 168 179 178 187 187 179 178 172 168 188 189 177 202 200 200 187 200 173 198 210 195 172 193 196 193 210 191 187 191 172 188 210 186 171 184 196 184 209 182 187 182 171 180 209 177 170 175 196 175 209 173 187 173 170 170 176 170 208 168 191 168 201 172 202 162 208 164 197 166 208 168 191 168 208 164 197 166 208 168 191 168 209 170 176 170 169 170 169 170 " />
    <path id="Block3Jump2"
        fill="none"
        stroke="#FEB343"
		stroke-width="2px"
		d="M 228 141 L 228 141 228 141 240 137 251 132 240 137 228 141 252 131 259 129 270 126 279 130 294 148 303 142 282 148 291 144 301 137 282 146 274 147 299 134 266 147 288 137 297 129 278 138 256 146 268 141 295 126 259 143 246 145 284 128 293 121 274 130 238 145 264 132 291 117 255 134 231 144 244 137 280 120 288 113 270 122 234 139 223 142 260 124 287 110 251 126 225 135 240 128 276 111 284 106 266 114 229 129 256 116 281 102 237 123 246 117 273 104 280 101 265 88 251 77 235 70 220 64 202 65 185 66 172 72 164 73 159 72 155 68 146 58 130 55 117 55 112 59 92 74 84 83 77 86 51 86 65 74 60 80 54 90 68 73 79 64 56 94 87 60 66 85 60 97 75 79 96 57 83 73 63 99 90 67 103 56 100 61 74 91 66 103 82 85 109 56 90 79 70 106 97 73 113 57 106 66 80 96 73 109 89 91 114 61 96 73 82 92 93 105 109 117 121 127 139 138 141 132 135 137 138 130 130 137 134 127 125 135 132 123 119 133 128 120 115 132 126 117 111 131 115 126 122 113 106 129 119 111 101 127 108 120 115 108 97 125 114 103 109 108 94 123 101 114 112 97 90 120 109 95 103 102 85 118 94 108 105 91 82 115 102 89 96 97 79 114 88 103 101 88 112 69 104 79 75 110 97 84 114 61 89 91 71 107 80 96 106 66 114 56 106 66 114 56 106 66 114 56 114 56 " />
    <path id="Block4Jump3"
        fill="none"
        stroke="#ED171F"
		stroke-width="2px"
		d="M 136 132 L 136 132 136 132 144 130 136 132 144 130 136 132 144 130 130 128 143 125 124 123 131 123 142 121 117 118 125 118 133 118 141 116 135 116 122 116 111 114 118 114 136 114 141 112 116 112 110 110 143 107 110 105 131 105 144 103 121 103 104 100 111 100 145 98 136 98 113 98 97 96 116 96 131 96 145 94 126 94 119 94 94 92 122 92 145 89 101 89 95 87 131 87 145 85 121 85 98 82 111 82 128 82 145 80 133 80 119 80 102 78 114 78 135 78 149 76 137 76 108 74 154 71 141 71 109 69 131 69 154 67 121 67 110 67 129 71 114 56 148 58 121 58 112 60 131 60 151 62 141 62 111 64 154 67 121 67 109 69 131 69 155 69 143 69 131 69 143 69 155 69 160 73 166 74 173 72 191 70 196 71 214 81 217 86 216 107 222 110 231 121 235 119 248 122 257 112 268 107 263 104 255 95 236 83 223 75 206 73 197 73 181 68 204 74 212 76 220 80 227 85 231 91 235 98 237 105 227 128 221 136 224 150 205 148 215 148 229 146 205 143 232 141 225 141 206 139 215 139 234 137 206 135 236 132 207 130 215 130 236 128 211 128 224 133 227 127 240 101 250 124 256 132 236 132 216 131 207 130 215 130 236 130 259 128 239 128 218 125 242 125 261 123 244 123 225 123 216 121 244 121 274 119 243 119 208 117 235 117 278 114 230 114 204 112 215 112 252 112 280 110 254 110 203 107 235 107 257 107 275 107 283 105 258 105 225 105 203 103 215 103 260 103 279 101 261 101 234 101 204 99 229 99 240 99 262 99 275 96 265 96 242 96 222 96 205 94 217 94 243 94 271 92 244 92 213 92 201 89 235 89 267 87 225 87 194 85 215 85 255 85 261 83 245 83 205 83 189 81 195 81 235 81 254 78 225 78 184 76 215 76 248 74 205 74 180 71 195 71 235 71 241 69 225 69 178 69 191 70 227 63 195 63 179 65 205 65 237 67 215 67 178 67 178 67 " />
    <path id="Block5Jump4"
        fill="none"
        stroke="#C70155"
		stroke-width="2px"
		d="M 164 137 L 164 137 164 137 159 140 157 136 164 141 161 136 167 139 172 134 167 136 166 141 159 136 166 141 159 136 159 136 " />
    <path id="Block6Jump5"
        fill="none"
        stroke="#FFFFB3"
		stroke-width="2px"
		d="M 171 206 L 171 206 171 206 177 213 171 206 177 213 171 206 177 213 194 216 196 224 193 241 195 260 177 259 177 252 178 239 172 220 170 215 174 196 177 217 180 224 185 226 201 215 205 196 221 198 198 200 228 202 206 202 194 204 216 204 223 207 194 207 188 223 188 245 184 251 189 255 157 270 187 270 205 268 176 268 157 265 166 265 209 263 196 263 157 261 187 261 209 258 176 258 160 256 166 256 208 254 196 254 161 252 187 252 208 250 176 250 164 247 208 245 196 245 166 243 187 243 207 240 176 240 163 238 207 236 196 236 161 234 187 234 208 232 176 232 159 229 166 229 210 227 196 227 158 225 187 225 212 222 176 222 157 220 166 220 206 220 215 218 196 218 156 216 187 216 218 214 176 214 157 211 166 211 206 211 221 209 196 209 158 207 187 207 226 204 216 204 176 204 160 202 166 202 181 200 166 198 179 198 166 198 179 198 166 198 179 198 "/>
    <path id="Block6Jump6"
        fill="none"
        stroke="#FFFFB3"
		stroke-width="2px"
		d="M 253 399 L 253 399 253 399 252 407 253 399 252 407 253 399 252 407 260 426 268 446 276 461 269 464 252 477 236 490 218 502 199 512 179 519 159 527 139 531 120 525 102 521 93 526 93 515 93 494 95 473 99 452 107 434 115 436 125 443 144 448 163 448 184 444 192 441 212 433 230 422 248 407 243 433 237 453 227 459 205 472 196 476 187 478 165 485 174 509 179 526 195 507 211 487 228 468 244 449 260 430 265 424 240 428 216 432 189 437 173 456 156 475 140 494 124 514 112 528 101 506 91 483 89 478 105 459 123 438 122 466 124 474 128 480 132 485 118 482 89 478 105 497 121 517 137 536 162 529 190 521 174 502 158 483 142 464 126 445 110 425 120 441 130 450 147 469 162 458 179 446 186 438 202 458 218 477 235 497 216 478 210 472 224 460 238 451 262 461 274 466 258 447 242 428 232 416 238 442 239 449 228 456 211 466 190 474 164 479 139 477 126 474 117 458 108 434 100 405 106 406 98 409 109 409 97 414 113 413 95 419 115 417 101 420 93 424 111 421 119 421 92 428 121 424 103 429 90 432 113 429 126 428 89 437 95 437 130 431 105 437 86 442 116 438 139 433 126 437 85 446 97 446 136 436 146 434 108 446 84 450 98 449 118 446 155 436 128 446 101 452 83 454 104 454 138 445 165 435 148 443 106 455 82 459 109 458 158 442 184 431 168 439 131 455 111 460 91 461 82 463 115 461 141 454 178 437 197 429 187 434 151 452 117 463 81 467 121 464 160 449 200 433 170 448 125 466 93 470 82 471 104 472 129 467 180 445 201 435 197 464 197 474 215 467 228 489 190 518 157 541 191 526 228 508 247 498 218 511 182 529 144 543 129 542 172 530 208 512 245 495 261 488 235 497 199 515 162 532 120 539 152 533 189 518 225 499 263 485 270 480 253 485 216 501 179 519 141 533 108 535 131 533 169 521 206 504 243 487 277 475 271 476 233 488 196 506 159 523 120 532 81 528 110 531 149 524 187 509 223 491 261 476 282 471 251 477 213 493 177 511 139 525 99 529 80 523 87 524 129 524 167 513 204 495 240 478 279 468 288 465 269 467 231 480 194 498 157 514 118 524 80 519 107 522 147 516 184 500 221 482 258 468 289 460 248 468 211 484 174 502 137 516 96 519 78 514 85 515 126 516 165 504 201 486 238 469 277 459 287 456 266 459 231 470 219 475 189 490 155 506 116 515 78 510 105 514 145 507 174 495 218 473 244 463 285 453 249 459 209 476 164 498 135 508 94 511 78 506 124 507 153 499 199 477 236 460 254 454 274 450 284 448 257 451 226 462 189 480 147 499 113 506 78 502 103 505 140 499 180 483 216 465 260 449 282 443 264 445 243 450 206 466 170 484 133 498 91 501 78 497 129 497 160 486 197 469 233 452 265 443 281 439 267 440 224 454 187 471 150 488 124 496 78 494 100 496 120 495 140 490 177 474 214 456 251 442 269 438 279 435 241 443 204 458 168 477 116 493 89 494 78 489 110 491 158 478 194 460 231 443 270 433 276 431 259 433 209 450 194 458 148 480 107 489 79 486 104 487 138 481 188 459 225 441 249 433 275 426 237 434 202 449 166 466 127 481 99 485 79 481 117 481 157 468 192 451 243 429 267 424 273 422 248 426 219 436 182 454 150 469 106 480 80 478 96 479 144 469 173 457 209 439 253 423 272 418 256 420 237 425 199 441 163 459 140 469 81 473 115 472 132 468 153 460 190 443 226 426 261 416 270 413 217 428 180 445 129 467 104 472 81 469 93 470 125 466 170 448 207 430 244 416 268 409 234 415 202 427 224 417 266 405 252 407 214 419 219 415 242 407 264 401 233 404 263 396 250 398 241 398 261 391 250 391 260 389 260 389 " />
    <path id="Block7Jump7"
        fill="none"
        stroke="#FFFF00"
		stroke-width="2px"
		d="M 91 56 L 91 56 91 56 108 52 91 56 108 52 91 56 108 52 125 47 149 45 155 49 165 58 173 59 181 69 166 69 150 67 156 67 188 65 148 62 176 62 208 60 166 60 146 58 156 58 196 58 208 56 187 56 146 56 166 59 185 54 210 52 225 54 234 57 255 71 269 81 273 87 279 94 286 105 294 113 299 122 305 148 281 148 308 146 299 144 309 141 297 139 309 137 295 134 308 132 293 130 307 128 291 126 305 123 288 121 304 119 286 116 296 116 302 114 283 112 300 110 280 108 298 105 286 105 277 103 295 101 274 98 292 96 286 96 269 94 276 94 287 92 265 90 283 87 259 85 280 83 267 83 252 80 276 78 246 76 272 74 239 72 256 72 267 69 246 69 231 67 263 65 221 62 257 60 246 60 213 60 197 60 157 58 144 58 156 58 196 58 236 58 251 56 227 56 187 56 147 56 140 54 176 54 216 54 242 51 206 51 166 51 126 51 102 49 116 49 156 49 196 49 238 49 208 49 182 50 175 44 216 44 221 47 187 47 175 49 196 49 221 49 191 49 166 50 157 48 147 46 160 36 136 36 127 38 147 38 169 40 156 40 117 42 126 42 166 42 173 44 136 44 106 47 147 47 187 47 227 47 234 47 232 34 228 20 214 18 195 14 217 7 232 2 216 2 183 4 227 4 242 6 236 6 196 6 177 8 206 8 250 10 216 10 173 13 187 13 227 13 256 15 236 15 196 15 169 17 206 17 246 17 262 20 256 20 216 20 176 20 167 22 187 22 227 22 266 24 236 24 196 24 167 24 190 26 206 26 246 26 262 28 256 28 216 28 197 28 210 31 227 31 255 33 236 33 219 33 236 33 219 33 236 33 219 33 219 33 " />
    <path id="Block8Jump8"
        fill="none"
        stroke="#E8A900"
		stroke-width="2px"
		d="M 171 33 L 171 33 171 33 175 34 181 34 186 34 191 34 197 34 202 35 207 36 212 37 218 38 225 40 220 39 214 37 209 36 204 36 199 35 193 34 188 34 183 34 177 34 170 32 160 35 167 25 163 39 170 23 166 41 172 22 170 45 175 22 174 46 178 22 179 46 182 22 183 45 185 22 187 45 189 23 192 45 194 23 196 45 198 24 200 45 202 25 204 45 207 27 208 45 211 28 212 46 215 29 216 46 219 30 220 46 224 32 224 47 228 33 228 47 232 35 232 46 235 37 236 37 259 43 268 45 277 58 283 61 286 70 282 90 299 88 277 85 296 85 302 83 286 83 274 81 304 79 271 77 296 77 304 74 286 74 267 72 276 72 302 70 267 70 261 67 296 67 302 65 286 65 256 63 276 63 305 61 267 61 251 59 296 59 303 56 286 56 242 54 276 54 300 52 267 52 239 49 256 49 296 47 286 47 246 47 237 45 276 45 289 43 267 43 235 41 256 41 290 38 246 38 234 38 250 39 267 39 260 23 284 25 267 25 255 27 276 27 286 29 255 31 286 31 271 39 250 39 256 27 237 29 246 29 288 31 256 31 234 34 267 34 290 36 276 36 234 36 246 36 258 36 246 36 234 36 234 36 " />
    <path id="Block9Jump9"
        fill="none"
        stroke="#FE9E32"
		stroke-width="2px"
		d="M 247 324 L 247 324 247 324 251 328 259 334 263 347 277 345 289 338 301 346 304 356 287 367 287 372 295 391 305 409 310 420 305 435 312 456 311 477 314 482 331 493 319 510 318 524 325 536 334 546 319 565 321 577 319 566 320 557 318 536 313 515 307 493 302 472 296 452 289 432 282 412 276 394 265 376 256 359 259 354 258 332 245 324 257 329 240 324 251 329 265 350 271 363 246 351 246 357 248 374 248 352 251 341 251 347 251 367 253 382 253 362 253 342 255 332 255 357 255 377 257 385 257 372 257 352 259 332 259 347 259 367 259 385 271 366 282 389 290 406 297 418 295 424 296 433 302 449 303 454 308 479 316 496 329 496 347 509 347 492 345 484 345 497 343 511 343 502 341 481 341 487 338 510 338 492 336 478 336 497 334 511 334 502 334 482 331 476 331 487 331 507 329 516 329 492 327 476 327 497 325 516 325 502 325 476 317 496 314 504 315 515 321 537 325 546 349 540 349 547 347 563 347 552 345 536 345 557 343 565 343 542 341 532 341 547 338 566 338 552 338 532 336 527 336 537 336 557 334 566 334 542 331 522 331 547 329 571 329 552 329 532 327 520 327 537 327 557 325 571 325 562 325 542 325 520 319 532 322 538 326 546 324 552 321 573 322 582 331 576 331 587 331 607 329 628 329 612 329 592 329 572 328 522 327 482 327 475 327 497 327 517 327 537 327 557 327 577 327 597 327 617 325 632 325 622 325 602 325 582 325 562 325 542 325 522 325 502 325 482 323 473 323 487 323 507 323 527 323 547 323 567 323 587 323 607 323 627 320 634 320 612 320 592 320 572 320 552 320 532 320 512 320 492 320 471 318 442 318 434 318 457 318 477 318 497 318 517 318 537 318 557 318 577 318 597 318 617 316 635 316 622 316 602 316 582 316 562 316 542 316 522 316 502 316 482 316 462 316 442 313 434 313 447 313 467 313 476 313 487 313 507 313 527 313 547 313 567 313 587 313 598 318 592 318 566 318 541 315 516 314 504 313 492 306 473 302 450 297 434 296 424 320 430 320 412 318 404 318 417 318 433 318 452 317 492 317 532 317 572 316 612 316 635 316 622 316 602 316 582 316 562 316 542 316 522 316 502 316 482 316 462 316 442 316 422 316 402 313 396 313 407 313 427 313 435 313 447 313 467 313 476 313 487 313 507 313 527 313 547 313 567 313 587 313 598 311 578 311 572 311 552 311 532 311 512 311 492 311 477 311 452 311 436 311 412 309 390 309 397 309 417 309 436 309 457 309 479 309 497 309 517 309 537 309 557 309 564 307 549 307 542 307 522 307 502 307 480 307 462 307 437 307 422 307 402 305 384 305 407 305 427 305 437 305 447 305 467 305 481 305 507 305 540 302 527 302 512 302 492 302 483 302 472 302 452 302 438 302 412 302 392 300 375 300 397 300 417 300 439 300 457 300 477 300 485 300 497 300 517 298 511 298 502 298 482 298 462 298 438 298 422 298 402 298 382 295 372 295 387 295 407 295 427 295 438 295 447 295 467 293 487 293 472 293 452 293 438 293 412 293 392 293 372 272 362 279 357 286 354 306 342 313 338 313 347 311 366 311 352 309 334 309 357 307 369 307 362 307 342 305 331 305 347 302 371 302 352 300 328 300 337 300 357 298 373 298 362 298 342 295 325 295 347 295 367 295 387 295 407 295 427 295 438 295 447 295 467 293 487 293 472 293 452 293 438 293 412 293 392 293 372 293 352 293 332 291 324 291 337 291 357 291 372 291 397 291 417 291 437 291 457 289 474 289 462 289 437 289 422 289 402 289 382 289 373 289 362 289 342 287 324 287 347 287 373 287 387 287 407 287 427 287 437 287 447 287 467 284 459 284 452 284 436 284 412 284 392 284 375 284 352 284 332 282 325 282 337 282 357 282 375 282 397 282 417 282 436 280 447 280 422 280 402 280 390 280 376 280 362 280 342 277 328 277 347 277 367 277 387 277 407 277 427 275 432 275 412 275 392 275 372 275 352 273 332 273 357 273 377 273 397 271 420 271 402 271 382 271 362 271 342 269 334 269 347 269 367 269 387 266 406 266 392 266 372 266 352 264 333 264 357 264 377 262 396 262 382 262 362 262 342 259 331 259 347 259 367 257 388 257 372 257 352 257 328 257 328 " />
    <path id="Block10Jump10"
        fill="none"
        stroke="#FFFF00"
		stroke-width="2px"
		d="M 238 255 L 238 255 238 255 249 242 238 255 249 242 238 255 249 242 259 241 263 247 257 267 251 287 247 298 232 298 222 296 209 300 202 312 190 328 186 337 170 351 164 352 162 344 163 324 159 304 149 293 141 288 159 298 181 298 200 303 205 301 215 296 230 281 236 262 240 256 251 260 247 265 239 288 231 292 209 299 200 298 184 317 168 336 155 350 166 303 146 292 139 287 139 284 141 268 143 256 131 243 152 245 131 248 152 250 131 252 152 254 131 256 153 259 147 259 131 261 153 263 130 266 136 266 154 268 147 268 130 270 153 272 130 274 136 274 152 277 130 279 150 281 130 284 136 284 149 284 185 286 147 286 130 288 156 288 203 290 166 290 133 292 176 292 211 295 187 295 147 295 141 297 156 297 196 297 211 297 186 312 178 315 176 326 167 344 164 371 147 369 156 369 171 367 146 364 178 362 166 362 146 360 156 360 183 358 146 356 176 356 188 353 166 353 147 351 156 351 192 349 148 346 176 346 198 344 166 344 148 342 156 342 196 342 201 340 187 340 149 338 176 338 202 335 166 335 149 333 156 333 196 333 204 331 187 331 149 328 176 328 209 326 166 326 149 324 156 324 196 324 213 322 187 322 149 320 176 320 215 317 206 317 166 317 148 315 156 315 196 315 216 313 187 313 147 310 176 310 217 308 206 308 166 308 145 306 156 306 196 306 218 304 187 304 145 302 176 302 218 299 206 299 166 299 145 299 167 304 194 304 202 303 220 296 231 294 238 290 247 297 261 308 246 308 221 306 236 306 262 304 227 304 218 304 177 303 144 302 176 302 216 302 256 302 263 299 246 299 206 299 166 299 141 297 156 297 196 297 236 297 264 295 227 295 187 295 147 295 139 295 177 293 214 292 256 292 266 290 246 290 215 288 236 288 267 286 227 286 216 284 256 284 268 281 246 281 218 279 236 279 269 277 227 277 219 274 256 274 271 272 246 272 220 270 236 270 272 268 227 268 221 266 256 266 273 263 246 263 222 261 236 261 274 259 267 259 224 256 256 256 276 254 246 254 225 252 236 252 276 250 267 250 226 248 256 248 276 248 252 252 244 230 256 230 272 232 238 234 278 236 246 236 234 238 256 238 279 241 267 241 230 243 236 243 278 245 246 245 226 248 256 248 277 250 267 250 225 250 237 250 249 250 237 250 225 250 "/>
    <path id="Block10Jump11"
        fill="none"
        stroke="#FFFF00"
		stroke-width="2px"
		d="M 113 407 L 113 407 113 407 129 409 113 407 129 409 113 407 129 409 149 403 167 398 188 391 210 384 229 377 235 377 239 384 235 391 218 403 199 413 179 421 159 426 148 425 131 414 124 409 104 404 137 412 144 413 155 416 142 437 156 437 167 437 178 435 147 435 135 433 176 433 194 430 166 430 128 428 156 428 196 428 203 426 187 426 147 426 121 423 136 423 176 423 213 421 206 421 166 421 126 421 117 419 156 419 196 419 220 417 187 417 147 417 112 415 136 415 176 415 216 415 229 412 206 412 166 412 126 412 107 410 116 410 156 410 196 410 234 408 227 408 187 408 147 408 107 408 102 405 136 405 176 405 216 405 241 403 206 403 166 403 126 403 107 401 116 401 156 401 196 401 236 401 246 399 227 399 187 399 147 399 122 397 136 397 176 397 216 397 253 394 246 394 206 394 166 394 141 392 156 392 196 392 236 392 255 390 227 390 187 390 148 390 159 387 176 387 216 387 255 387 230 387 231 379 245 361 229 363 247 365 236 365 219 367 249 369 216 369 205 372 227 372 251 374 236 374 193 376 206 376 246 376 253 379 216 379 178 381 187 381 227 381 255 383 236 383 196 383 165 385 206 385 246 385 257 387 216 387 176 387 159 387 148 390 187 390 227 390 257 390 264 404 272 419 278 435 283 450 285 475 273 501 284 479 276 490 258 503 239 516 221 527 202 537 183 547 162 552 144 556 126 569 130 573 139 592 142 613 143 633 134 652 126 657 104 659 89 652 86 674 84 697 78 719 73 739 66 760 60 781 55 801 51 823 50 845 52 866 55 877 70 894 88 905 108 915 128 923 149 927 171 930 194 928 216 924 236 918 257 912 279 906 302 900 316 899 337 901 358 902 367 900 371 889 372 867 371 845 366 825 361 804 351 785 341 764 331 743 322 725 313 704 305 684 304 668 304 647 303 626 301 603 298 581 294 560 290 538 286 516 281 495 279 488 268 514 267 521 256 547 247 566 223 579 200 591 188 597 192 620 191 638 184 657 171 681 153 698 136 703 130 705 123 722 97 716 "/>
    <path id="Block10Jump12"
        fill="none"
        stroke="#FFFF00"
		stroke-width="2px"
		d="M 85 632 L 89 661 80 686 72 711 89 691 105 671 122 651 136 676 150 699 135 703 130 705 130 713 150 730 170 747 190 763 210 780 230 797 250 813 270 830 290 847 299 852 324 853 340 868 346 881 360 903 363 909 377 892 376 866 374 840 373 820 356 840 339 860 322 879 306 899 299 908 274 914 249 922 224 929 213 932 230 912 247 892 264 872 280 852 297 832 314 812 330 792 347 772 351 768 339 745 327 719 310 739 293 759 277 778 260 798 243 818 227 838 210 858 193 878 176 898 160 918 146 934 121 926 95 917 112 897 128 877 145 857 162 837 179 818 195 798 212 778 229 758 245 738 262 718 279 698 296 678 312 659 310 633 308 607 306 588 289 608 273 628 256 648 239 667 223 687 206 707 189 727 172 747 156 767 139 787 122 807 106 827 89 847 72 867 55 887 50 861 47 836 44 822 61 802 78 782 94 762 111 743 128 723 144 703 161 683 178 663 195 643 211 623 228 603 245 583 261 563 278 543 295 523 272 512 249 500 233 520 216 540 199 559 183 579 166 599 149 619 133 638 140 638 144 626 160 605 140 587 130 575 123 573 140 553 144 547 159 571 167 582 176 587 193 606 211 627 228 647 245 667 261 687 272 702 283 727 291 748 272 765 250 783 230 799 210 816 190 833 170 850 150 866 130 884 112 876 100 899 92 915 76 895 59 875 43 857 46 831 49 805 52 789 68 809 85 829 102 849 118 868 135 888 152 908 169 928 175 936 200 932 227 928 233 927 216 907 199 887 182 867 166 847 149 827 132 807 116 787 99 767 82 747 68 731 76 721 83 696 80 667 97 687 113 707 130 727 147 747 163 767 180 787 197 806 214 826 230 846 247 866 264 886 280 906 286 912 289 905 315 899 331 902 348 908 331 888 314 869 298 849 281 829 264 809 247 789 231 769 214 749 197 729 181 709 164 689 147 669 128 646 144 627 140 609 138 593 124 564 141 584 158 604 175 624 191 644 208 664 225 684 241 704 258 724 275 744 292 764 308 784 325 803 342 823 358 843 375 863 379 868 371 843 363 818 355 794 347 769 338 741 321 722 305 702 288 682 271 662 255 642 238 622 221 602 204 582 188 562 172 544 182 551 201 538 220 527 218 521 235 541 252 561 268 581 285 601 302 620 310 630 281 630 267 629 264 603 260 575 255 549 281 540 296 536 280 516 263 496 260 493 266 520 258 532 236 549 213 563 190 573 166 578 161 583 166 603 171 630 168 648 157 670 141 684 125 686 106 681 91 654 85 636 85 616 87 607 88 582 98 571 79 567 87 569 98 575 92 573 78 571 98 580 82 575 77 575 87 578 98 584 92 582 77 579 98 589 82 584 76 584 87 587 97 592 75 589 97 597 82 593 75 593 87 596 97 601 75 597 97 606 82 602 74 601 87 605 97 610 74 606 97 615 82 611 74 610 87 614 97 619 73 614 97 624 82 620 73 619 87 623 97 628 73 624 97 633 82 629 73 628 87 632 99 638 92 636 73 632 97 639 107 645 82 638 72 637 87 641 107 649 92 645 72 642 97 649 107 652 111 686 133 688 149 680 159 669 163 665 191 669 217 670 243 670 269 668 277 666 278 693 283 711 293 733 303 756 313 780 323 801 333 822 340 845 344 870 356 882 369 899 385 911 367 917 377 912 385 906 372 913 359 917 367 913 385 902 362 914 350 917 357 914 377 904 386 896 372 904 352 913 340 916 347 913 367 904 386 892 362 905 342 913 328 915 337 912 357 904 377 894 387 887 372 895 352 904 332 912 318 914 327 912 347 904 367 895 387 883 362 896 342 904 322 911 310 913 317 911 337 904 357 896 377 886 387 878 372 886 352 895 332 903 310 908 327 903 347 895 367 886 387 874 362 887 342 895 319 903 310 906 303 880 299 875 277 881 250 888 224 894 198 900 181 902 182 930 184 944 172 942 152 939 132 935 112 930 97 925 84 919 107 926 127 931 147 936 167 939 187 942 207 942 182 940 162 937 142 933 122 928 102 923 82 917 69 911 77 913 97 919 117 925 137 930 157 934 177 937 197 939 223 938 212 937 192 936 172 933 152 930 132 926 112 921 92 915 72 909 57 901 67 905 87 911 107 917 127 922 147 927 167 930 187 933 207 935 227 936 237 934 222 934 202 933 182 931 162 928 142 924 122 919 102 914 82 908 62 901 49 894 57 896 77 903 97 909 117 915 137 920 157 924 177 927 197 929 217 930 237 931 258 927 252 928 232 929 212 928 192 927 172 924 152 921 137 918 112 912 92 906 72 900 52 893 44 888 67 896 87 902 107 908 127 913 137 916 147 918 167 921 187 924 207 926 227 927 247 926 270 924 285 920 262 923 242 924 222 925 202 924 182 922 162 919 137 914 122 910 102 905 82 899 62 892 40 882 57 888 77 895 97 901 117 907 137 912 157 916 177 919 197 921 217 922 237 923 257 922 277 919 297 916 316 910 362 892 387 878 372 886 352 895 332 903 312 909 292 914 272 917 252 919 232 920 212 919 192 918 172 915 152 912 137 909 112 903 92 897 72 891 52 884 37 876 47 880 67 887 87 893 107 899 127 904 137 907 147 909 167 912 187 915 207 917 227 918 247 917 267 916 287 913 307 908 327 903 347 895 367 886 388 874 382 877 362 887 342 895 319 903 302 908 282 911 262 914 242 915 222 916 202 915 182 913 162 910 137 905 122 901 102 896 82 890 62 883 42 876 36 871 57 878 77 885 97 891 117 897 137 902 157 906 177 909 197 911 217 912 237 913 257 912 277 909 297 906 318 900 337 894 357 886 377 876 388 869 372 877 352 886 332 894 318 898 292 905 272 908 252 910 232 911 212 910 192 909 172 906 152 903 137 900 112 894 92 888 72 882 52 875 35 867 47 871 67 878 87 884 107 890 127 895 137 898 147 900 167 903 187 906 207 908 227 909 247 908 267 907 287 904 307 899 317 897 327 894 347 886 367 877 388 865 382 868 362 878 342 886 317 895 302 899 282 902 262 905 242 906 222 907 202 906 182 904 162 901 137 896 122 892 102 887 82 881 62 874 42 867 35 863 57 870 77 877 97 883 117 889 137 894 157 898 177 901 197 903 217 904 237 905 257 904 277 901 297 898 317 893 337 886 357 878 377 868 388 860 372 868 352 877 332 885 316 890 292 896 272 899 252 901 232 902 212 901 192 900 172 897 152 894 137 891 112 885 92 879 72 873 52 866 34 858 47 862 67 869 87 875 107 881 127 886 137 889 147 891 167 894 187 897 207 899 227 900 247 899 267 898 287 895 307 890 316 888 327 885 347 877 367 868 387 856 362 869 342 877 315 886 302 890 282 893 262 896 242 897 222 898 202 897 182 895 162 892 137 887 122 883 102 878 82 872 62 865 42 858 34 853 57 860 77 867 97 873 117 879 137 884 157 888 177 891 197 893 217 894 237 895 257 894 277 891 297 888 314 883 337 876 357 868 377 858 387 851 372 859 352 868 332 876 314 881 292 887 272 890 252 892 232 893 212 892 192 891 172 888 152 885 137 882 112 876 92 870 72 864 52 857 34 849 47 853 67 860 87 866 107 872 127 877 137 880 147 882 167 885 187 888 207 890 227 891 247 890 267 889 287 886 314 879 327 876 347 868 367 859 386 847 362 860 342 868 322 875 313 878 302 881 282 884 262 887 242 888 222 889 202 888 182 886 162 883 137 878 122 874 102 869 82 863 62 856 42 849 34 845 57 852 77 859 97 865 117 871 137 876 157 880 177 883 197 885 217 886 237 887 257 886 277 883 297 880 313 876 337 868 357 860 377 850 386 842 372 850 352 859 332 867 312 873 292 878 272 881 252 883 232 884 212 883 192 882 172 879 152 876 137 873 112 867 92 861 72 855 52 848 34 840 47 844 67 851 87 857 107 863 127 868 137 871 147 873 167 876 187 879 207 881 227 882 247 881 267 880 287 877 311 871 327 867 347 859 367 850 385 839 362 851 342 859 322 866 311 869 302 872 282 875 262 878 242 879 222 880 202 879 182 877 162 874 137 869 122 865 102 860 82 854 62 847 42 840 34 835 57 842 77 849 97 855 117 861 137 866 157 870 177 873 197 875 217 876 237 877 257 876 277 873 297 870 310 867 337 858 357 850 377 840 384 834 372 841 352 850 332 858 310 865 292 869 272 872 252 874 232 875 212 874 192 873 172 870 152 867 137 864 112 858 92 852 72 846 52 839 34 831 47 835 67 842 87 848 107 854 127 859 137 862 147 864 167 867 187 870 207 872 227 873 247 872 267 871 287 868 309 863 327 858 347 850 367 841 384 830 362 842 342 850 322 857 309 861 282 866 262 869 242 870 222 871 202 870 182 868 162 865 137 860 122 856 102 851 82 845 62 838 42 831 35 827 57 834 77 841 97 847 117 853 137 858 157 862 177 865 197 867 217 868 237 869 257 868 277 865 297 862 308 859 317 857 337 850 357 842 377 832 383 826 372 832 352 841 332 849 307 856 292 860 272 863 252 865 232 866 212 865 192 864 172 861 152 858 137 855 112 849 92 843 72 837 52 830 35 822 47 826 67 833 87 839 107 845 127 850 137 853 147 855 167 858 187 861 207 863 227 864 247 863 267 862 287 859 306 855 327 849 347 841 367 832 382 823 362 833 342 841 322 848 306 853 282 857 262 860 242 861 222 862 202 861 182 859 162 856 137 851 122 847 102 842 82 836 62 829 42 822 36 817 57 824 77 831 97 837 117 843 137 848 157 852 177 855 197 857 217 858 237 859 257 858 277 855 297 852 305 850 317 847 337 840 357 832 381 818 372 823 352 832 332 840 304 848 292 851 272 854 252 856 232 857 212 856 192 855 172 852 152 849 137 846 112 840 92 834 72 828 52 821 36 813 47 817 67 824 87 830 107 836 127 841 137 844 147 846 167 849 187 852 207 854 227 855 247 854 267 853 287 850 304 846 327 840 347 832 367 823 380 815 362 824 342 832 322 839 303 844 282 848 262 851 242 852 222 853 202 852 182 850 162 847 137 842 122 838 102 833 82 827 62 820 42 813 37 809 57 816 77 823 97 829 117 835 137 840 157 844 177 847 197 849 217 850 237 851 257 850 277 847 302 843 317 839 337 832 357 824 379 810 372 814 352 823 332 831 312 837 301 840 292 842 272 845 252 847 232 848 212 847 192 846 172 843 152 840 136 836 112 831 92 825 72 819 52 812 38 805 47 808 67 815 87 821 107 827 127 832 136 834 147 837 167 840 187 843 207 845 227 846 247 845 267 844 287 841 300 838 327 831 347 823 367 814 378 807 362 815 342 823 322 830 299 836 282 839 262 842 242 843 222 844 202 843 182 841 162 838 136 832 122 829 102 824 82 818 62 811 39 800 57 806 77 813 97 819 117 825 136 829 157 834 177 837 197 839 217 840 237 841 257 840 277 837 298 833 317 829 337 822 357 814 377 802 352 814 332 822 312 828 298 831 272 836 252 838 232 839 212 838 192 837 172 834 152 831 136 827 112 822 92 816 72 810 52 803 40 796 47 799 67 806 87 812 107 818 127 823 136 825 147 828 167 831 187 834 207 836 227 837 247 836 267 835 287 832 297 830 307 827 327 822 347 814 367 805 376 799 362 806 342 814 322 821 296 828 282 830 262 833 242 834 222 835 202 834 182 832 162 829 136 823 122 820 102 815 82 809 62 802 41 793 57 798 77 805 97 811 117 817 136 821 157 826 177 829 197 831 217 832 237 833 257 832 277 829 295 826 317 821 337 814 357 806 375 794 352 805 332 813 312 819 294 823 272 827 252 829 232 830 212 829 192 828 172 825 152 822 136 818 112 813 92 807 72 801 52 794 42 788 67 797 87 803 107 809 127 814 136 816 147 819 167 822 187 825 207 827 227 828 247 827 267 826 293 821 307 818 327 813 347 805 367 796 373 791 362 797 342 805 322 812 302 818 292 820 282 821 262 824 242 825 222 826 202 825 182 823 162 820 135 814 122 811 102 806 82 800 62 793 43 784 57 788 77 795 97 801 117 807 135 811 157 816 177 819 197 821 217 822 237 823 257 822 277 819 291 817 317 811 337 804 357 796 371 787 352 796 332 804 312 810 290 815 272 818 252 820 232 821 212 820 192 819 172 816 152 813 135 809 112 804 92 798 72 792 52 785 44 780 67 788 87 794 107 800 127 805 135 807 147 810 167 813 187 816 207 818 227 819 247 818 267 817 290 813 307 809 327 804 347 796 370 784 362 788 342 796 322 803 302 809 289 811 262 815 242 816 222 817 202 816 182 814 162 811 135 805 122 802 102 797 82 791 62 784 45 776 57 780 77 787 97 793 117 799 135 803 157 808 177 811 197 813 217 814 237 815 257 814 277 811 288 809 297 808 317 803 337 796 357 788 367 780 352 787 332 795 312 801 287 807 272 809 252 811 232 812 212 811 192 810 172 807 152 804 135 800 112 795 92 789 72 783 52 776 46 772 67 779 87 785 107 791 127 796 136 798 147 801 167 804 187 807 207 809 227 810 247 809 267 808 286 805 307 800 327 795 347 787 366 777 342 787 322 794 302 800 285 803 262 806 242 807 222 808 202 807 182 805 162 802 136 796 122 793 102 788 82 782 62 775 47 767 57 770 77 777 97 783 117 789 137 794 157 798 177 801 197 803 217 804 237 805 257 804 284 800 297 798 317 793 337 786 357 778 364 773 352 778 332 786 312 792 292 797 283 798 272 800 252 802 232 803 212 802 192 801 172 798 152 795 137 792 112 786 92 780 72 774 48 763 67 770 87 776 107 782 127 787 137 790 147 792 167 795 187 798 207 800 227 801 247 800 267 799 283 796 307 791 327 786 347 778 362 770 342 778 322 785 302 791 282 794 262 797 242 798 222 799 202 798 182 796 162 793 137 788 122 784 102 779 82 773 62 766 49 760 57 762 77 769 97 775 117 781 138 786 157 790 177 793 197 795 217 796 237 797 257 796 281 793 297 790 317 785 337 778 360 766 352 769 332 777 312 783 292 788 280 790 272 791 252 793 232 794 212 793 192 792 172 789 152 786 138 783 112 777 92 771 72 765 51 755 67 761 87 767 107 773 127 778 138 781 147 783 167 786 187 789 207 791 227 792 247 791 267 790 279 788 307 782 327 777 347 769 359 762 342 769 322 776 302 782 278 786 262 788 242 789 222 790 202 789 182 787 162 784 139 779 122 775 102 770 82 764 62 757 52 751 77 759 97 765 117 771 139 776 157 780 177 783 197 785 217 786 237 787 257 786 277 783 297 780 317 775 337 768 357 758 332 768 312 774 292 779 276 781 252 784 232 785 212 784 192 783 172 780 152 777 140 774 132 773 112 768 92 762 72 756 53 747 67 752 87 758 107 764 127 769 140 772 167 777 187 780 207 782 227 783 247 782 267 781 275 780 287 778 307 773 327 768 347 760 355 755 342 760 322 767 302 773 275 778 262 779 242 780 222 781 202 780 182 778 162 775 140 770 122 766 102 761 82 755 62 748 54 743 77 751 97 757 117 763 140 768 157 772 177 775 197 777 217 778 237 779 257 778 274 776 297 772 317 767 337 760 353 751 332 759 312 765 292 770 273 773 252 775 232 776 212 775 192 774 172 771 152 768 141 766 132 764 112 759 92 753 72 747 56 739 67 743 87 749 107 755 127 760 141 764 167 768 187 771 207 773 227 774 247 773 272 771 287 769 307 764 327 759 351 748 342 751 322 758 302 764 282 767 271 769 262 770 242 771 222 772 202 771 182 769 162 766 141 762 122 757 102 752 82 746 62 739 57 734 77 741 97 747 117 753 142 759 157 762 177 765 197 767 217 768 237 769 257 768 270 766 297 762 317 757 337 750 349 743 332 750 312 756 292 761 269 764 252 766 232 767 212 766 192 765 172 762 152 759 142 757 132 755 112 750 92 744 72 738 58 731 67 734 87 740 107 746 127 751 143 755 167 759 187 762 207 764 227 765 247 764 268 762 287 760 307 755 327 750 348 740 342 742 322 749 302 755 282 758 268 760 242 762 222 763 202 762 182 760 162 757 143 753 122 748 102 743 82 737 59 727 77 733 97 739 117 745 143 751 157 754 177 757 197 759 217 760 237 761 257 760 267 759 277 757 297 754 317 749 337 742 345 736 332 741 312 747 292 752 266 756 252 757 232 758 212 757 192 756 172 753 152 750 144 748 132 746 112 741 92 735 72 729 60 723 67 725 87 731 107 737 127 742 144 746 167 750 187 753 207 755 227 756 247 755 265 754 287 751 307 746 327 741 344 732 322 740 302 746 282 749 264 752 242 753 222 754 202 753 182 751 162 748 144 744 122 739 102 734 82 728 61 718 77 723 97 729 117 735 137 740 145 741 157 744 177 747 197 749 217 750 237 751 263 749 277 747 297 744 317 739 337 732 342 728 332 732 312 738 292 743 272 746 262 747 252 748 232 749 212 748 192 747 172 744 145 739 132 737 112 732 92 726 72 720 62 714 87 722 107 728 127 733 146 738 167 741 187 744 207 746 227 747 247 746 261 745 287 742 307 737 327 732 340 725 322 731 302 737 282 740 261 743 242 744 222 745 202 744 182 742 162 739 147 736 122 730 102 725 82 719 63 711 77 715 97 721 117 727 137 732 148 734 157 736 177 739 197 741 217 742 237 743 260 741 277 739 297 736 317 731 338 721 332 723 312 729 292 734 272 737 259 738 232 740 212 739 192 738 172 735 149 731 132 728 112 723 92 717 72 711 65 706 87 713 107 719 127 724 150 729 167 732 187 735 207 737 227 738 247 737 258 736 267 736 287 733 307 728 327 723 336 717 322 722 302 728 282 731 257 735 242 735 222 736 202 735 182 733 162 730 150 727 142 726 122 721 102 716 82 710 66 702 77 705 97 711 117 717 137 722 152 725 177 729 197 731 217 732 237 733 256 732 277 729 297 726 317 721 334 713 312 720 292 725 272 728 255 730 232 731 212 730 192 729 172 726 152 723 132 719 112 714 92 708 72 702 67 698 87 704 107 710 127 715 153 721 167 723 187 726 207 728 227 729 254 728 267 727 287 724 307 719 327 714 332 710 322 713 302 719 282 722 262 725 253 726 242 726 222 727 202 726 182 724 154 719 142 717 122 712 102 707 82 701 67 694 77 697 97 703 117 709 137 714 155 717 177 721 197 723 217 724 237 725 253 724 277 721 297 718 317 713 331 705 312 711 292 716 272 719 253 721 232 722 212 721 192 720 172 717 156 715 132 710 112 705 92 699 68 689 87 695 107 701 127 706 147 711 157 713 167 714 187 717 207 719 227 720 253 719 267 718 287 715 307 710 329 702 322 704 302 710 282 713 262 716 253 717 242 717 222 718 202 717 182 715 157 711 142 708 122 703 102 698 82 692 68 684 77 687 97 693 117 699 137 704 159 708 177 711 197 713 217 714 237 715 253 714 277 711 297 708 317 703 327 698 312 702 292 707 272 710 253 712 232 713 212 712 192 711 172 708 159 706 132 701 112 696 92 690 69 681 87 686 107 692 127 697 147 702 160 704 187 708 207 710 227 711 253 710 267 709 287 706 307 701 325 694 302 701 282 704 262 707 253 708 242 708 222 709 202 708 182 706 161 702 142 699 122 694 102 689 82 683 69 677 77 679 97 685 117 691 137 696 162 701 177 703 197 705 217 706 237 707 253 706 277 703 297 700 317 695 323 690 312 693 292 698 272 701 253 703 232 704 212 703 192 702 172 699 163 698 152 696 132 692 112 687 92 681 70 672 87 677 107 683 127 688 147 693 164 696 187 699 207 701 227 702 253 701 267 700 287 697 307 692 322 686 302 692 282 695 262 698 253 699 242 699 222 700 202 699 182 697 165 694 142 690 122 685 102 680 82 674 70 667 77 669 97 675 117 681 137 686 157 690 166 691 177 693 197 695 217 696 237 697 253 696 277 693 297 690 320 682 312 684 292 689 272 692 253 694 232 695 212 694 192 693 167 689 152 687 132 683 112 678 92 672 71 663 87 668 107 674 127 679 147 684 167 687 187 690 207 692 227 693 253 692 267 691 287 688 307 683 319 678 302 683 282 686 262 689 253 690 242 690 222 691 202 690 182 688 168 686 142 681 122 676 102 671 82 665 71 659 77 661 97 667 117 673 137 678 157 682 169 684 177 685 197 687 217 688 237 689 253 688 277 685 297 682 319 673 312 675 292 680 272 683 253 685 232 686 212 685 192 684 169 681 152 678 132 674 112 669 92 663 72 655 87 659 107 665 127 670 147 675 169 679 187 681 207 683 227 684 253 683 267 682 287 679 307 674 320 669 302 674 282 677 262 680 253 681 242 681 222 682 202 681 182 679 169 677 142 672 122 667 102 662 82 656 72 650 97 657 117 663 137 668 157 672 170 674 197 677 217 678 237 679 253 678 277 675 297 672 320 664 312 666 292 671 272 674 253 676 232 677 212 676 192 675 170 672 152 669 132 665 112 660 92 654 72 646 87 650 107 656 127 661 147 666 170 670 187 672 207 674 227 675 253 674 267 673 287 670 307 665 320 660 302 665 282 668 262 671 253 672 242 672 222 673 202 672 182 670 170 668 162 667 142 663 122 658 102 653 82 647 72 642 97 649 117 655 137 660 157 664 170 666 197 669 217 670 237 671 253 670 277 667 297 664 320 655 312 657 292 662 272 665 253 667 232 668 212 667 192 666 171 663 152 660 132 656 112 651 92 645 72 637 87 641 107 647 127 652 147 657 171 661 187 663 207 665 227 666 253 665 267 664 287 661 307 656 320 651 302 656 282 659 262 662 253 663 242 663 222 664 202 663 182 661 171 659 162 658 142 654 122 649 115 644 137 650 157 654 171 656 197 659 217 660 237 661 253 660 277 657 297 654 320 646 312 648 292 653 272 656 253 658 232 659 212 658 192 657 172 654 152 651 132 647 121 642 127 643 147 648 172 652 187 654 207 656 227 657 253 656 267 655 287 652 307 647 320 642 302 647 282 650 262 653 253 654 242 654 222 655 202 654 182 652 172 650 162 649 142 645 123 638 137 642 157 646 172 648 197 651 217 652 237 653 253 652 277 649 297 646 319 637 312 639 292 644 272 647 253 649 232 650 212 649 192 648 172 645 152 642 132 638 125 634 147 639 173 643 187 645 207 647 227 648 253 647 267 646 287 643 307 638 319 633 302 638 282 641 262 644 253 645 242 645 222 646 202 645 182 643 173 641 162 640 142 636 128 630 137 632 157 636 173 638 197 641 217 642 237 643 253 642 277 639 297 636 319 628 312 630 292 635 272 638 253 640 232 641 212 640 192 639 173 636 152 633 129 626 147 630 173 634 187 636 207 638 227 639 253 638 267 637 287 634 307 629 319 624 302 629 282 632 262 635 253 636 242 636 222 637 202 636 182 634 174 632 162 631 142 627 128 622 137 624 157 628 174 630 197 633 217 634 237 635 253 634 277 631 297 628 318 619 312 621 292 626 272 629 253 631 232 632 212 631 192 630 174 627 152 624 132 620 127 616 147 621 174 625 187 627 207 629 227 630 252 629 267 628 287 625 307 620 318 615 302 620 282 623 262 626 252 627 242 627 222 628 202 627 174 623 162 622 142 618 126 611 137 614 157 618 175 621 197 623 217 624 237 625 251 624 277 621 297 618 318 610 312 612 292 617 272 620 251 622 232 623 212 622 192 621 175 619 152 615 132 611 125 607 147 612 167 615 175 617 187 618 207 620 227 621 251 620 267 619 287 616 307 611 318 606 302 611 282 614 262 617 250 618 242 618 222 619 202 618 175 615 162 613 142 609 125 603 137 606 157 610 175 613 197 615 217 616 237 617 250 616 277 613 297 610 317 602 292 608 272 611 250 613 232 614 212 613 192 612 176 610 152 606 132 602 124 598 147 603 167 606 176 608 187 609 207 611 227 612 249 611 267 610 287 607 307 602 317 598 302 602 282 605 262 608 249 609 222 610 202 609 176 606 162 604 142 600 122 592 137 596 157 600 176 603 197 605 217 606 237 607 248 606 257 606 277 603 297 600 316 593 292 599 272 602 248 604 232 605 212 604 192 603 177 601 152 597 132 593 120 588 127 589 147 594 167 597 177 599 187 600 207 602 227 603 248 602 267 601 287 598 307 593 316 589 302 593 282 596 262 599 247 600 222 601 202 600 182 598 162 595 142 591 118 583 137 588 157 592 177 595 197 597 217 598 237 599 247 598 257 598 277 595 297 592 315 584 292 590 272 593 247 595 232 596 212 595 192 594 172 591 152 588 132 584 116 578 127 580 147 585 167 588 187 591 207 593 227 594 246 593 267 592 287 589 307 584 315 580 302 584 282 587 262 590 246 591 222 592 202 591 182 589 162 586 142 582 122 577 113 572 137 578 157 582 177 585 197 587 217 588 237 589 245 588 257 588 277 585 297 582 314 575 292 581 272 584 245 586 232 587 212 586 192 585 172 582 152 579 132 575 111 567 127 571 147 576 167 579 187 582 207 584 227 585 245 584 267 583 287 580 307 575 313 572 302 575 282 578 262 581 244 582 222 583 202 582 182 580 162 577 142 573 122 568 111 563 117 565 137 570 157 574 177 577 197 579 217 580 244 580 257 580 277 577 297 574 312 567 292 572 272 575 252 577 244 577 232 578 212 577 192 576 172 573 152 570 132 566 116 560 127 562 147 567 167 570 187 573 207 575 227 576 243 575 267 574 287 571 311 563 302 566 282 569 262 572 243 573 222 574 202 573 182 571 162 568 142 564 121 556 137 560 157 564 177 567 197 569 217 570 242 570 257 570 277 567 297 564 311 558 292 563 272 566 252 568 242 568 232 569 212 568 192 567 172 564 152 561 132 557 125 553 147 558 167 561 187 564 207 566 227 567 242 566 267 565 287 562 310 555 302 557 282 560 262 563 241 564 222 565 202 564 182 562 162 559 142 555 127 549 137 552 157 556 177 559 197 561 217 562 241 562 257 562 277 559 297 556 309 550 292 554 272 557 252 559 241 559 232 560 212 559 192 558 172 555 152 552 130 545 147 549 167 552 187 555 207 557 227 558 240 557 267 556 287 553 308 546 302 548 282 551 262 554 240 555 222 556 202 555 182 553 162 550 142 546 131 540 137 542 157 546 177 549 197 551 217 552 239 553 257 552 277 549 297 546 307 541 292 545 272 548 252 550 239 551 212 550 192 549 172 546 152 543 144 539 167 543 187 546 207 548 227 549 239 549 247 548 267 547 287 544 307 537 282 542 262 545 242 546 222 547 202 546 182 544 162 541 157 538 177 541 197 543 217 544 237 545 257 544 277 541 297 538 306 533 292 536 272 539 252 541 232 542 212 541 192 540 171 535 187 537 207 539 227 540 247 539 267 538 287 535 305 529 282 533 262 536 242 537 222 538 202 537 183 532 197 533 217 534 237 535 257 534 277 531 297 528 304 524 292 527 272 530 252 532 232 533 212 532 188 528 207 530 227 531 247 530 267 529 287 526 303 520 282 524 262 527 242 528 222 529 202 528 194 525 217 526 237 527 257 526 277 523 297 520 302 516 292 518 272 521 252 523 232 524 212 523 201 521 207 521 227 522 247 521 267 520 287 517 302 512 282 515 262 518 242 519 222 520 209 516 217 516 237 517 257 516 277 513 301 507 292 509 272 512 252 514 232 515 216 512 227 513 247 512 267 511 287 508 300 503 282 506 262 509 242 510 222 509 237 509 257 508 277 505 299 498 292 500 272 503 252 505 230 504 247 503 267 502 287 499 298 494 282 497 262 500 242 501 237 499 257 498 277 495 296 490 272 494 252 496 243 494 267 493 287 490 295 486 282 488 262 491 249 490 257 490 277 487 294 481 272 485 257 485 267 484 287 481 292 478 282 479 266 479 277 477 291 473 273 474 290 469 281 469 290 467 290 467 " />
    <path id="Block11Jump13"
        fill="none"
        stroke="#E8A900"
		stroke-width="2px"
		d="M 220 200 L 220 200 220 200 216 218 220 200 216 218 220 200 216 218 211 231 215 240 213 261 208 275 204 281 184 279 168 278 158 276 157 250 154 244 153 218 155 211 151 199 169 201 148 203 156 203 168 205 146 207 166 210 144 212 156 212 164 214 143 217 162 219 147 219 142 221 156 221 161 223 142 225 163 228 147 228 141 230 156 230 164 232 141 235 166 237 147 237 142 239 156 239 167 241 142 243 167 246 143 248 156 248 167 250 144 253 166 255 145 257 156 257 165 259 146 261 163 264 146 266 156 266 166 268 146 271 166 273 146 273 156 279 182 281 203 281 197 297 216 297 221 295 206 295 185 293 196 293 222 291 187 291 179 289 216 289 222 286 206 286 179 286 207 292 221 295 206 295 185 293 196 293 222 291 187 291 179 291 138 289 176 289 216 289 223 286 206 286 166 286 138 284 156 284 196 284 224 282 187 282 147 282 140 279 176 279 216 279 225 277 206 277 166 277 142 275 156 275 196 275 226 273 187 273 145 271 176 271 216 271 227 268 206 268 192 266 228 264 201 261 216 261 229 259 206 259 201 257 230 255 201 253 216 253 231 250 206 250 201 248 231 246 200 243 216 243 230 241 206 241 200 239 228 237 200 235 216 235 227 232 206 232 200 230 226 228 201 225 216 225 226 223 204 221 230 219 207 217 216 217 235 214 210 212 239 210 227 210 211 210 224 209 229 201 215 203 240 205 213 207 242 207 241 208 251 219 240 222 234 227 231 252 225 248 221 243 233 247 220 236 235 244 230 240 219 229 239 240 219 224 242 238 235 233 221 220 227 225 247 235 223 216 251 233 240 226 226 212 233 217 258 232 229 209 252 225 262 232 272 237 245 218 232 206 238 210 270 233 282 238 264 225 239 205 257 218 283 234 251 211 242 205 248 214 259 215 281 219 255 203 284 226 262 210 249 203 269 218 283 230 276 225 242 205 251 211 282 235 257 218 239 205 257 218 239 205 257 218 239 205 "/>
    <path id="Block11Jump14"
        fill="none"
        stroke="#E8A900"
		stroke-width="2px"
		d="M 155 200 L 155 200 155 200 136 211 155 200 136 211 155 200 136 211 127 200 153 195 130 201 122 206 139 201 157 199 151 201 120 211 154 204 132 210 119 216 142 210 152 209 120 221 149 215 135 219 121 224 149 220 122 229 148 225 137 227 124 233 148 229 125 238 147 234 139 236 127 241 147 239 132 245 148 241 138 238 149 247 137 248 147 243 142 245 132 245 147 239 129 244 133 258 131 273 130 297 134 304 143 323 147 334 137 356 131 353 124 337 124 325 137 315 135 305 132 288 114 295 123 292 139 290 134 291 118 299 145 293 120 302 126 301 148 298 136 301 123 307 149 302 118 312 128 310 151 305 134 310 113 319 140 311 153 310 142 313 120 319 109 324 144 315 154 315 141 319 109 329 151 318 156 318 122 328 110 333 133 327 157 322 143 326 110 338 153 327 160 327 125 336 111 342 135 336 162 331 145 336 112 347 160 336 127 345 114 350 137 344 158 341 147 344 116 355 156 347 129 354 118 359 129 356 153 353 139 356 118 364 146 357 153 357 132 362 117 368 142 362 155 360 116 374 124 372 157 365 134 371 115 378 144 370 159 370 114 382 142 374 123 387 159 376 147 379 116 385 136 380 159 372 126 380 114 384 126 380 114 384 126 380 114 384 "/>
    <path id="Block11Jump15"
        fill="none"
        stroke="#E8A900"
		stroke-width="2px"
		d="M 111 390 L 111 390 111 390 120 398 111 390 120 398 111 390 120 398 131 392 147 390 160 383 181 377 202 370 220 362 235 352 243 333 246 325 242 319 226 317 222 328 210 336 206 350 188 360 171 372 162 382 154 385 132 391 126 393 113 393 125 394 142 388 159 383 175 375 189 367 198 363 216 354 226 342 233 332 245 314 229 333 212 352 196 372 189 380 158 380 143 389 123 395 110 394 101 395 98 394 83 415 76 400 89 415 86 410 77 394 82 401 94 414 79 390 98 412 93 405 83 387 89 396 102 410 86 387 79 373 107 409 101 400 82 370 96 391 112 410 93 382 87 370 111 405 120 412 108 395 93 371 104 385 124 410 100 377 100 371 119 399 128 408 115 390 105 371 111 380 132 406 110 372 126 394 136 403 122 380 140 402 128 380 134 389 145 400 133 380 149 400 145 394 138 380 155 399 142 378 158 397 153 389 147 376 164 396 150 373 164 392 168 395 160 384 153 370 173 394 156 366 171 387 177 393 167 379 160 363 164 368 182 391 163 361 178 382 186 390 175 373 166 358 170 363 192 389 170 355 186 377 195 387 182 368 174 352 178 358 200 385 178 350 193 372 204 384 190 363 181 347 185 353 209 382 205 376 186 345 200 366 213 381 197 358 190 342 193 347 218 379 212 371 193 341 208 361 221 377 204 353 197 339 226 375 219 366 196 329 215 356 229 373 212 348 199 325 208 337 234 370 227 360 204 328 202 322 223 351 237 368 219 342 206 320 214 332 241 366 234 355 211 319 230 346 245 364 226 337 215 316 223 327 246 360 230 347 227 340 232 330 247 321 251 317 272 321 259 306 263 312 269 322 255 306 265 324 248 306 256 317 261 328 243 306 258 332 244 312 236 305 249 322 256 336 252 330 231 304 255 341 237 316 222 300 241 327 252 346 245 336 222 303 215 297 226 312 249 345 250 351 229 322 212 301 234 332 248 355 237 341 210 306 218 317 241 350 246 360 223 327 210 314 226 337 245 364 238 354 231 344 238 354 245 364 245 364 " />
    <path id="Block12Jump16"
        fill="none"
        stroke="#FFFF00"
		stroke-width="2px"
		d="M 133 244 L 133 244 133 244 138 266 133 244 138 266 133 244 138 266 137 276 128 287 144 285 129 283 146 281 136 281 130 278 148 276 130 274 149 271 136 271 130 269 149 267 131 265 150 263 136 263 131 260 150 258 131 256 150 253 136 253 131 251 148 249 131 247 145 245 136 245 131 245 131 245 " />
    <path id="Block13Jump17"
        fill="none"
        stroke="#D15C00"
		stroke-width="2px"
		d="M 382 925 L 382 925 382 925 374 927 382 925 374 927 382 925 374 927 356 925 338 922 326 921 307 922 290 927 273 934 256 938 244 944 229 945 215 952 204 951 191 955 173 953 155 951 136 947 119 944 101 939 84 933 76 931 62 920 50 907 43 903 38 890 26 904 13 917 19 922 32 919 48 923 61 926 64 944 71 954 84 955 98 953 116 951 123 950 137 962 150 971 168 971 185 963 194 962 211 970 219 972 229 981 244 982 254 975 259 982 269 975 286 961 299 960 297 952 310 965 323 972 329 968 328 964 343 969 342 950 341 938 346 947 354 930 357 936 375 940 386 944 395 940 381 919 394 948 373 926 367 920 368 945 352 918 347 948 346 956 325 933 309 916 308 947 307 968 287 945 273 928 272 959 271 980 255 954 245 938 241 969 239 988 224 961 216 947 205 973 193 950 174 975 166 947 145 969 141 973 136 942 115 957 106 935 84 957 80 961 77 930 76 923 56 934 55 905 29 922 22 926 33 897 39 883 18 905 7 917 34 903 47 896 42 926 64 914 65 945 66 956 86 933 90 929 97 958 121 939 129 963 153 945 157 977 175 952 178 948 191 965 204 945 217 973 220 981 227 951 230 939 245 966 256 986 257 955 258 932 277 956 284 966 289 936 291 921 310 946 328 970 332 975 331 944 330 915 356 939 360 920 381 947 373 920 400 939 379 913 386 919 399 931 406 937 392 927 375 913 383 921 399 936 407 944 390 930 373 913 385 927 398 941 405 948 390 935 376 920 378 923 394 942 402 952 385 933 368 913 376 923 391 944 398 954 382 934 366 913 373 924 387 945 394 955 378 934 364 913 373 928 383 946 388 955 376 937 365 918 368 923 378 944 383 955 371 933 360 912 364 923 373 943 378 954 367 933 358 912 362 922 369 943 373 953 363 932 355 912 358 922 365 942 368 952 360 931 353 911 356 921 360 941 363 950 356 930 351 911 352 921 356 940 358 949 353 931 346 910 349 921 354 942 357 952 350 932 341 910 344 921 352 944 355 955 347 933 336 909 341 921 350 946 354 958 343 934 331 908 336 922 347 948 352 962 340 937 327 908 333 923 345 954 352 969 338 941 323 908 330 926 344 960 351 977 335 944 318 909 326 927 341 964 348 983 331 946 314 909 322 928 337 966 345 985 327 947 310 909 317 928 332 966 340 984 323 946 306 909 313 927 327 964 334 982 318 946 302 910 310 929 324 966 331 984 315 948 299 911 306 930 319 966 326 985 310 948 295 912 301 930 314 966 321 984 306 948 291 913 298 930 310 964 316 982 302 947 288 914 294 930 305 962 311 978 297 945 285 915 289 930 299 959 304 973 292 945 281 917 285 931 295 959 299 973 288 945 277 918 282 932 291 960 295 973 284 946 274 920 278 933 287 960 291 974 281 947 271 921 274 934 282 961 286 974 277 949 267 921 271 936 279 964 283 978 273 951 263 922 267 937 276 967 280 981 270 953 259 923 264 939 272 970 277 985 266 955 256 925 260 940 269 972 273 988 263 957 253 926 257 942 266 975 270 991 259 960 249 928 253 944 262 977 266 993 256 961 246 929 250 946 258 978 262 995 252 962 243 931 246 947 254 977 257 993 248 962 239 931 242 947 249 978 253 994 244 963 235 931 238 947 245 979 249 995 240 963 232 931 235 947 241 979 245 995 236 963 228 932 231 948 237 979 240 995 232 964 225 933 227 949 233 979 235 995 228 964 222 935 224 950 229 979 231 994 224 964 218 937 220 951 224 978 226 992 220 964 215 939 216 951 220 976 221 989 216 963 212 938 213 950 216 975 217 987 212 962 209 938 209 949 211 973 212 984 209 961 206 938 206 949 207 971 208 982 205 960 203 938 203 949 203 970 203 980 201 959 200 939 200 949 199 968 199 978 197 958 196 940 196 949 195 967 195 976 194 958 193 942 192 950 191 966 191 974 190 959 189 942 188 951 187 968 186 977 185 960 185 941 184 951 182 970 181 980 181 961 182 941 180 951 178 971 176 981 177 961 179 941 177 951 173 972 172 983 173 962 176 940 173 951 169 973 167 983 169 962 173 940 170 951 165 973 162 984 165 962 170 940 167 951 160 973 157 984 162 962 167 940 163 951 156 973 152 984 158 962 165 939 160 950 152 973 148 984 154 961 162 939 157 950 148 972 143 983 151 960 158 938 153 949 144 970 140 981 147 959 154 938 150 948 141 968 137 978 143 957 149 937 145 947 138 966 134 976 140 956 145 936 141 945 134 964 131 973 136 954 140 935 137 944 131 962 128 971 132 952 136 935 133 943 127 960 125 968 128 951 131 934 129 942 124 958 122 966 125 949 127 933 125 941 121 956 118 964 120 948 123 932 121 940 116 956 114 964 116 948 119 931 117 939 111 956 109 965 112 948 116 930 113 939 107 956 104 965 108 947 112 929 109 938 102 956 99 965 103 947 108 928 104 937 98 956 94 966 99 947 104 926 100 936 93 956 89 966 94 946 100 925 96 936 89 957 85 967 90 946 95 923 92 935 84 957 81 968 86 945 91 922 87 933 80 956 77 968 82 944 87 920 83 932 76 956 73 967 78 943 83 919 79 931 73 955 69 967 74 942 79 917 76 929 69 953 65 965 71 939 76 915 73 926 65 950 62 961 67 936 74 912 70 923 62 946 58 957 65 932 71 910 67 920 59 941 55 951 62 928 68 907 64 916 57 935 53 944 59 924 65 905 61 913 54 931 50 939 56 921 63 903 59 911 51 928 47 937 54 919 61 901 57 909 48 926 43 934 51 917 59 899 54 907 44 924 38 933 47 915 58 897 52 906 40 923 34 932 44 914 56 895 49 904 35 923 28 932 40 913 54 893 46 903 30 922 22 932 36 912 53 890 43 901 25 922 15 933 32 910 51 887 41 898 20 921 10 932 29 908 49 883 38 895 17 918 6 929 26 905 46 880 36 892 14 914 4 926 24 901 44 878 33 888 12 910 2 921 22 897 41 875 31 885 10 906 0 916 10 906 0 916 10 906 0 916 0 916 " />
    <path id="Block14Jump18"
        fill="none"
        stroke="#000000"
		stroke-width="2px"
		d="M 98 526 L 98 526 98 526 97 521 97 515 97 510 97 505 97 499 97 494 97 489 97 484 97 479 97 473 97 468 96 463 96 458 96 453 96 447 96 442 96 437 96 432 96 427 95 419 95 424 96 430 96 435 96 440 96 446 96 451 96 457 96 462 97 468 97 473 97 478 97 483 97 488 97 494 97 499 97 504 97 509 97 515 97 520 98 526 96 531 93 535 103 535 93 531 103 531 93 527 103 527 93 524 102 523 92 520 102 519 92 516 102 515 92 512 102 511 92 508 102 507 92 504 102 504 92 500 102 500 92 496 102 496 92 492 102 492 92 488 102 488 92 484 102 484 92 481 102 480 92 477 102 476 92 473 102 472 92 469 102 468 91 465 101 464 91 461 101 461 91 457 101 457 91 453 101 453 91 449 101 449 91 445 101 445 91 441 101 441 91 438 101 437 91 434 101 433 91 430 101 429 90 426 100 425 90 422 100 421 90 418 100 418 90 414 100 414 90 410 100 410 90 410 100 410 90 410 100 410 "/>
    <path id="Block14Jump19"
        fill="none"
        stroke="#000000"
		stroke-width="2px"
		d="M 111 653 L 111 653 111 653 112 663 111 653 112 663 111 653 112 663 111 653 109 648 106 644 117 644 106 648 117 648 106 652 117 652 106 656 117 656 106 660 117 660 106 664 117 664 107 668 118 668 107 672 118 672 107 672 118 672 107 672 118 672 118 672 " />
    <path id="Block15Jump20"
        fill="none"
        stroke="#F64A8A"
		stroke-width="2px"
		d="M 91 368 L 91 368 91 368 91 363 91 358 91 353 89 348 87 343 85 338 85 333 84 328 84 323 84 318 84 312 85 305 84 311 84 316 84 322 84 327 84 332 85 337 87 342 89 346 90 351 91 356 91 362 91 368 81 370 88 375 81 369 94 374 80 363 100 374 84 365 103 370 80 362 103 365 80 361 103 360 79 359 103 356 79 355 103 351 76 351 103 347 73 346 104 342 69 342 104 338 66 338 104 334 65 333 104 331 64 329 104 327 64 324 103 324 64 320 103 319 64 315 103 315 65 311 103 312 66 306 97 309 68 302 101 308 70 297 100 305 73 294 99 303 88 299 76 295 88 299 99 303 "/>
    <path id="Block15Jump21"
        fill="none"
        stroke="#F64A8A"
		stroke-width="2px"
		d="M 88 544 L 88 544 88 544 82 547 88 544 82 547 88 544 82 547 86 556 94 558 100 568 102 578 101 595 100 613 101 630 111 640 118 639 120 627 119 609 113 592 107 576 103 564 114 551 117 541 85 541 115 541 123 541 93 545 78 547 108 553 117 555 95 565 117 587 96 603 120 621 125 625 108 643 94 624 123 607 101 587 97 583 109 566 79 556 108 548 125 544 95 544 81 544 115 538 81 537 120 534 76 541 128 538 72 545 132 541 69 547 132 546 70 551 129 550 71 554 125 555 75 558 121 560 79 562 118 564 84 565 118 569 86 568 119 574 88 571 121 579 90 574 123 584 90 578 124 588 90 582 126 592 90 587 127 596 89 591 128 600 89 596 129 604 89 600 130 608 89 605 131 612 88 609 132 616 88 614 132 620 88 619 132 623 87 623 133 627 87 628 133 630 88 631 132 634 91 635 131 639 94 639 128 643 97 643 124 648 103 647 121 649 103 647 121 649 103 647 121 649 121 649 " />
    <path id="Block16Jump22"
        fill="none"
        stroke="#000000"
		stroke-width="2px"
		d="M 158 120 L 158 120 158 120 163 123 158 120 163 123 "/>
    <path id="Block16Jump23"
        fill="none"
        stroke="#000000"
		stroke-width="2px"
		d="M 177 96 L 177 96 177 96 180 99 181 95 184 102 185 95 187 102 187 97 191 101 191 96 195 101 180 98 192 100 180 98 "/>
    <path id="Block16Jump24"
        fill="none"
        stroke="#000000"
		stroke-width="2px"
		d="M 142 92 L 142 92 142 92 144 95 146 91 148 98 148 91 150 98 151 93 154 98 154 93 157 97 144 93 155 97 144 93 "/>
    <path id="Block16Jump25"
        fill="none"
        stroke="#000000"
		stroke-width="2px"
		d="M 190 78 L 190 78 190 78 179 81 190 78 176 82 190 78 176 83 190 77 176 83 187 78 176 83 "/>
    <path id="Block16Jump26"
        fill="none"
        stroke="#000000"
		stroke-width="2px"
		d="M 152 78 L 152 78 152 78 142 74 152 78 142 74 152 79 141 76 152 78 141 75 152 78 141 75 141 75 " />
    <path id="Block17Jump27"
        fill="none"
        stroke="#7B6F00"
		stroke-width="2px"
		d="M 223 198 L 223 198 223 198 234 202 223 198 241 205 223 198 241 205 231 213 224 222 222 229 221 236 223 243 228 250 225 266 221 283 218 298 221 283 218 298 221 283 225 266 221 283 225 266 228 250 225 266 228 250 222 238 227 249 222 238 222 227 222 238 222 227 229 215 222 227 229 215 241 204 229 215 241 204 242 204 260 204 242 204 260 204 273 209 260 204 273 209 283 221 273 209 283 221 279 239 283 222 279 239 268 233 258 231 250 232 242 235 235 241 229 248 240 237 229 248 240 237 252 231 240 237 252 231 265 232 252 231 265 232 279 239 265 232 279 239 278 240 274 256 278 240 274 256 270 272 274 256 270 272 266 289 270 272 266 289 262 305 266 289 262 305 247 307 235 307 223 303 212 298 197 295 184 290 174 288 163 290 151 292 143 291 134 289 141 290 134 289 141 290 141 283 143 278 146 274 148 263 147 252 134 247 147 252 134 247 147 252 146 274 147 253 146 274 142 281 145 275 142 281 141 289 142 281 141 289 142 290 153 292 142 290 153 292 168 289 153 292 168 289 184 290 168 289 184 290 200 296 184 290 200 296 218 300 200 296 218 300 214 303 212 306 211 310 211 315 212 321 205 323 201 326 198 331 198 336 199 341 186 349 173 358 159 367 151 376 144 382 137 384 130 384 123 382 116 378 128 384 116 378 128 384 138 384 128 384 138 384 147 379 138 384 147 379 154 370 147 379 154 370 152 360 156 349 161 335 156 319 149 303 141 291 150 304 141 291 150 304 156 319 150 304 156 319 161 335 156 319 161 335 157 346 161 336 157 346 151 356 157 346 151 356 137 354 126 355 122 358 134 354 122 358 134 354 150 355 134 354 150 355 150 356 154 370 150 356 154 370 155 369 169 360 155 369 169 360 184 350 169 360 184 350 199 341 184 350 199 341 198 330 198 340 198 330 204 323 198 330 204 323 212 321 204 323 212 321 212 307 212 321 212 307 218 300 212 307 218 300 219 300 231 306 219 300 231 306 247 308 231 306 247 308 263 306 247 308 263 306 270 313 263 306 270 313 268 322 270 313 268 322 261 326 268 322 261 326 264 336 261 326 264 336 273 334 264 336 273 334 279 327 273 334 279 327 296 329 280 327 296 329 308 334 296 329 308 334 314 342 308 334 314 342 316 352 314 342 316 352 314 363 316 352 314 363 307 369 314 363 307 369 299 373 307 369 299 373 290 373 285 374 282 377 280 381 279 386 278 391 279 398 279 385 279 398 279 385 283 376 279 385 283 376 290 373 283 376 290 373 299 373 290 373 299 373 306 386 299 373 306 386 315 399 306 386 315 399 322 411 315 399 322 411 321 425 322 411 321 425 317 435 321 425 317 435 323 449 317 436 323 449 324 463 323 449 324 463 320 475 324 463 320 475 336 481 321 475 336 481 348 489 336 481 348 489 353 497 348 489 353 497 349 505 353 497 349 505 337 510 349 505 337 510 328 514 337 510 328 514 329 523 328 514 329 523 335 530 329 523 335 530 347 539 335 530 347 539 350 552 347 539 350 552 345 560 350 552 345 560 336 562 345 560 336 562 329 568 336 562 329 568 329 579 329 568 329 579 333 595 329 579 333 595 334 611 333 595 334 611 328 625 334 611 328 625 317 635 328 625 317 635 316 619 314 602 313 587 310 570 308 554 305 539 302 523 298 507 294 491 290 476 286 461 281 446 276 431 271 417 264 402 257 388 249 374 241 360 247 349 253 337 259 327 250 344 259 327 250 344 241 360 250 344 241 360 249 374 241 361 249 374 256 387 249 374 256 387 245 398 234 407 221 416 208 423 194 430 180 434 165 437 152 438 141 435 135 432 127 426 117 419 107 409 127 409 137 400 152 398 168 393 184 388 198 383 213 377 227 369 233 366 242 361 227 369 242 361 227 369 210 378 227 369 210 378 192 385 210 378 192 385 174 392 192 385 174 392 155 397 174 392 155 397 137 400 155 397 137 400 127 409 136 401 127 409 107 409 126 409 107 409 103 408 99 409 91 415 100 408 91 415 100 408 107 408 100 408 107 408 108 409 119 421 108 409 119 421 132 430 119 421 132 430 141 435 132 430 141 435 153 438 141 435 153 438 167 437 153 438 167 437 183 434 167 437 183 434 199 428 183 434 199 428 215 420 199 428 215 420 230 410 215 420 230 410 244 399 230 410 244 399 256 387 244 399 256 387 257 388 265 401 257 388 265 401 272 417 265 401 272 417 278 433 272 417 278 433 283 449 278 433 283 449 287 465 283 449 287 465 274 474 262 484 249 492 236 501 222 510 209 518 196 526 182 534 168 538 153 540 138 542 125 555 113 565 95 565 81 561 92 574 91 592 90 610 90 626 91 634 97 642 101 645 105 647 118 650 127 643 130 627 129 610 124 595 119 580 113 565 121 584 113 565 121 584 127 603 121 584 127 603 130 623 127 603 130 623 127 643 130 623 127 643 118 650 126 644 118 650 104 646 117 650 104 646 97 642 104 646 97 642 91 634 97 642 91 634 90 624 91 635 90 624 90 608 90 624 90 608 91 591 90 608 91 591 92 574 91 591 92 574 83 561 91 573 83 561 84 562 98 566 84 562 98 566 114 565 98 566 114 565 126 554 114 565 126 554 138 542 126 554 138 542 156 540 139 542 156 540 175 536 156 540 175 536 192 528 175 536 192 528 208 519 192 528 208 519 225 508 208 519 225 508 240 498 225 508 240 498 256 488 240 498 256 488 272 476 256 488 272 476 287 465 272 476 287 465 287 466 293 484 287 466 293 484 297 502 293 484 297 502 302 521 297 502 302 521 305 540 302 521 305 540 309 559 305 540 309 559 311 578 309 559 311 578 314 598 311 578 314 598 316 616 314 598 316 616 317 635 316 616 317 635 317 636 317 655 317 636 317 655 316 675 317 655 316 675 322 694 316 675 322 694 331 712 322 694 331 712 339 730 331 712 339 730 348 747 339 730 348 747 356 761 348 747 356 761 365 778 356 761 365 778 373 796 365 778 373 796 378 815 373 796 378 815 382 834 378 815 382 834 385 854 382 834 385 854 385 874 385 854 385 874 385 894 385 874 385 894 383 913 385 894 383 913 367 915 354 913 342 911 327 910 311 911 296 914 282 918 268 923 253 928 237 932 222 936 206 939 189 941 175 941 159 940 144 938 128 935 113 931 97 926 84 918 71 909 58 898 48 885 38 873 50 888 38 873 50 888 62 903 50 888 62 903 78 914 62 903 78 914 94 925 78 914 94 925 112 931 94 925 112 931 131 936 112 931 131 936 150 939 131 936 150 939 168 941 150 939 168 941 187 941 168 941 187 941 205 939 187 941 205 939 224 935 205 939 224 935 243 931 224 935 243 931 261 926 243 931 261 926 278 919 261 926 278 919 296 914 278 919 296 914 313 911 296 914 313 911 332 911 313 911 332 911 350 913 332 911 350 913 365 915 350 913 365 915 383 913 365 915 383 913 383 914 396 925 383 914 396 925 405 937 396 925 405 937 405 947 405 937 405 947 397 952 405 947 397 952 386 954 397 952 386 954 370 948 385 954 370 948 358 949 370 948 358 949 352 956 358 949 352 956 352 966 352 956 352 966 349 977 352 966 349 977 341 982 349 977 341 982 330 982 341 982 330 982 315 979 330 982 315 979 302 971 315 979 302 971 290 970 302 971 290 970 282 975 290 970 282 975 275 985 282 975 275 985 261 992 274 986 261 992 245 994 261 992 245 994 229 992 245 994 229 992 214 987 229 992 214 987 202 977 214 987 202 977 191 973 202 977 191 973 178 974 191 973 178 974 166 981 178 974 166 981 153 985 166 981 153 985 140 982 153 985 140 982 129 973 140 982 129 973 119 961 129 973 119 961 100 965 118 961 100 965 81 967 100 965 81 967 65 966 81 967 65 966 56 960 65 966 56 960 53 950 56 960 53 950 51 939 53 950 51 939 45 932 51 939 45 932 35 930 45 932 35 930 20 930 35 930 20 930 7 927 20 930 7 927 2 919 7 927 2 919 6 909 2 919 6 909 14 900 6 909 14 900 27 887 14 900 27 887 39 873 27 887 39 873 37 854 39 873 37 854 37 835 37 854 37 835 39 814 37 835 39 814 42 795 39 814 42 795 46 776 42 795 46 776 51 757 46 776 51 757 58 739 51 757 58 739 63 719 58 739 63 719 68 700 63 719 68 700 71 681 68 700 71 681 74 662 71 681 74 662 75 642 74 662 75 642 76 623 75 642 76 623 75 602 76 623 75 602 78 583 75 602 78 583 82 564 78 583 82 564 75 555 81 563 75 555 73 547 75 555 73 547 76 539 73 547 76 539 84 531 76 539 84 531 101 530 118 531 132 536 134 541 133 545 132 537 133 545 132 537 118 531 132 537 118 531 101 530 118 531 101 530 84 531 101 530 84 531 84 530 81 512 84 530 81 512 81 493 81 512 81 493 82 474 81 493 82 474 85 455 82 474 85 455 90 436 85 455 90 436 89 417 90 436 89 417 79 414 88 417 79 414 77 404 79 414 77 404 83 387 77 404 83 387 79 376 83 387 79 376 80 367 79 376 80 367 79 351 80 367 79 351 85 349 87 344 88 339 89 331 87 346 89 331 87 346 79 351 87 346 79 351 69 339 79 351 69 339 64 324 69 339 64 324 67 308 64 324 67 308 74 293 67 308 74 293 88 293 75 293 88 293 96 298 88 293 96 298 101 305 96 298 101 305 102 318 101 305 102 318 102 336 102 318 102 336 101 354 102 336 101 354 101 371 101 354 101 371 90 374 84 373 92 374 84 373 92 374 101 371 92 374 101 371 102 371 115 373 102 371 115 373 121 359 115 373 121 359 113 343 120 358 113 343 112 328 113 343 112 328 117 316 112 328 117 316 127 309 117 316 127 309 136 309 143 312 147 316 138 309 147 316 138 309 127 309 138 309 127 309 126 308 120 301 126 308 120 301 115 292 120 301 115 292 121 288 115 291 121 288 131 287 121 288 131 287 132 268 132 287 132 268 132 248 132 268 132 248 125 230 132 248 125 230 122 215 125 230 122 215 125 204 122 215 125 204 133 198 125 204 133 198 143 194 133 198 143 194 153 196 143 194 153 196 167 199 153 196 167 199 175 195 168 199 175 195 174 182 175 194 174 182 172 169 174 182 172 169 190 169 206 167 190 169 206 167 190 169 172 169 190 169 172 169 172 168 171 157 172 168 171 157 184 149 197 139 185 148 197 139 185 148 171 157 185 148 171 157 170 157 162 158 170 157 162 158 151 147 161 157 151 147 145 137 151 147 145 137 128 135 144 136 128 135 112 131 128 135 112 131 97 125 112 131 97 125 83 116 97 125 83 116 71 108 83 116 71 108 60 96 71 108 60 96 51 83 60 96 51 83 66 75 52 83 66 75 81 64 66 75 81 64 94 55 81 64 94 55 111 46 94 55 111 46 126 39 111 46 126 39 143 34 126 39 143 34 159 35 143 34 159 35 170 21 160 35 170 21 182 9 170 21 182 9 197 1 182 9 197 1 214 0 197 1 214 0 232 4 214 0 232 4 248 12 232 4 248 12 263 21 248 12 263 21 255 29 249 25 244 25 240 27 237 31 235 36 222 31 209 27 195 24 181 23 169 23 185 23 169 23 185 23 202 26 185 23 202 26 220 30 202 26 220 30 235 36 220 30 235 36 233 41 233 46 235 36 233 46 235 36 236 35 240 27 236 35 240 27 248 25 240 27 248 25 255 29 248 25 255 29 263 21 255 28 263 21 264 21 277 23 264 21 277 23 285 28 277 23 285 28 288 35 285 28 288 35 288 45 288 35 288 45 299 51 288 45 299 51 302 60 299 51 302 60 298 68 302 60 298 68 301 81 298 68 301 81 297 89 301 81 297 89 289 95 297 89 289 95 277 83 266 71 255 62 243 53 231 48 216 44 201 43 186 43 172 47 160 36 172 47 160 36 172 47 190 43 173 46 190 43 208 43 190 43 208 43 226 46 208 43 226 46 242 52 226 46 242 52 256 63 242 52 256 63 270 75 256 63 270 75 276 70 279 66 281 61 280 57 279 51 273 45 266 41 262 42 260 46 260 50 263 41 260 50 263 41 271 43 263 41 271 43 278 50 271 43 278 50 281 60 278 50 281 60 277 69 281 60 277 69 270 76 277 69 270 76 271 76 280 85 271 76 280 85 289 95 280 85 289 95 290 96 299 111 290 96 299 111 306 129 299 111 306 129 307 147 306 129 307 147 299 148 306 147 299 148 300 142 298 135 293 126 287 114 279 102 269 92 258 83 247 75 235 68 222 63 210 60 200 61 187 63 179 66 177 70 168 73 162 72 158 70 154 66 151 61 147 58 143 55 138 54 130 54 120 55 115 55 101 57 87 60 100 58 87 60 100 58 113 56 100 58 113 56 109 74 101 81 97 86 96 90 97 94 100 97 105 100 112 102 112 109 114 114 117 117 121 120 130 125 143 135 140 121 141 108 143 94 142 80 154 68 142 80 154 68 142 80 143 99 142 81 143 99 139 117 143 99 139 117 143 135 139 117 143 135 128 124 142 134 128 124 117 117 128 124 117 117 112 110 117 117 112 110 112 102 112 110 112 102 100 97 112 102 100 97 96 90 100 97 96 90 100 81 96 90 100 81 109 74 100 81 109 74 112 56 110 73 112 56 113 56 120 55 113 56 120 55 135 54 121 55 135 54 146 57 135 54 146 57 153 65 146 57 153 65 160 71 153 65 160 71 169 72 160 71 169 72 180 68 169 72 180 68 187 79 197 85 208 90 205 104 207 114 210 117 214 120 218 121 220 125 209 130 207 140 208 149 207 139 208 149 207 139 209 130 207 139 209 130 220 125 209 129 220 125 218 121 220 124 218 121 209 116 217 121 209 116 204 107 209 116 204 107 208 90 204 107 208 90 195 85 207 90 195 85 187 78 195 85 187 78 180 69 187 78 180 69 180 67 188 63 180 67 188 63 200 61 188 63 200 61 212 60 200 61 212 60 227 65 212 60 227 65 243 73 227 65 243 73 257 82 243 73 257 82 269 92 257 82 269 92 281 105 269 92 281 105 274 117 270 121 265 123 260 122 256 130 253 133 249 135 244 135 240 133 236 131 246 135 236 131 246 135 255 131 246 135 255 131 260 122 255 131 260 122 269 122 260 122 269 122 275 116 269 122 275 116 281 104 275 116 281 104 282 106 287 114 282 106 287 114 294 127 287 114 294 127 300 139 294 127 300 139 300 148 300 139 300 148 298 148 282 147 298 148 282 147 264 145 282 147 264 145 247 144 264 145 247 144 230 143 247 144 230 143 224 150 230 143 224 150 216 152 224 150 216 152 209 150 216 152 209 150 209 171 209 150 209 171 210 193 209 171 210 193 221 198 211 193 221 198 212 213 202 228 202 246 203 262 194 267 184 269 172 269 160 268 164 256 167 243 165 235 160 224 159 219 161 214 166 205 170 200 174 197 180 201 186 203 193 203 201 200 209 195 197 202 209 195 197 202 185 203 197 202 185 203 174 197 185 203 174 197 166 205 173 197 166 205 158 220 166 205 158 220 165 235 159 221 165 235 165 251 165 235 165 251 160 267 165 251 160 267 176 269 161 267 176 269 191 268 176 269 191 268 203 262 191 268 203 262 202 245 203 261 202 245 202 228 202 245 202 228 212 214 203 228 212 214 221 199 212 214 221 199 215 209 221 199 " />
</svg>
